M48
; DRILL file {KiCad (5.99.0-10559-g8513ca974c)} date 09/14/21 12:44:10
; FORMAT={2:4/ absolute / inch / suppress leading zeros}
; #@! TF.CreationDate,2021-09-14T12:44:10+03:00
; #@! TF.GenerationSoftware,Kicad,Pcbnew,(5.99.0-10559-g8513ca974c)
; #@! TF.FileFunction,MixedPlating,1,2
FMAT,2
INCH,TZ
; #@! TA.AperFunction,Plated,PTH,ComponentDrill
T1C0.0118
; #@! TA.AperFunction,Plated,PTH,ViaDrill
T2C0.0118
; #@! TA.AperFunction,Plated,PTH,ComponentDrill
T3C0.0118
; #@! TA.AperFunction,Plated,PTH,ViaDrill
T4C0.0120
; #@! TA.AperFunction,Plated,PTH,ViaDrill
T5C0.0130
; #@! TA.AperFunction,Plated,PTH,ViaDrill
T6C0.0197
; #@! TA.AperFunction,Plated,PTH,ComponentDrill
T7C0.0276
; #@! TA.AperFunction,Plated,PTH,ComponentDrill
T8C0.0320
; #@! TA.AperFunction,Plated,PTH,ComponentDrill
T9C0.0335
; #@! TA.AperFunction,Plated,PTH,ComponentDrill
T10C0.0362
; #@! TA.AperFunction,Plated,PTH,ComponentDrill
T11C0.0394
; #@! TA.AperFunction,Plated,PTH,ComponentDrill
T12C0.0433
; #@! TA.AperFunction,Plated,PTH,ComponentDrill
T13C0.0709
; #@! TA.AperFunction,Plated,PTH,ComponentDrill
T14C0.0787
; #@! TA.AperFunction,Plated,PTH,ComponentDrill
T15C0.0917
; #@! TA.AperFunction,Plated,PTH,ComponentDrill
T16C0.1200
; #@! TA.AperFunction,Plated,PTH,ComponentDrill
T17C0.1378
; #@! TA.AperFunction,Plated,PTH,ComponentDrill
T18C0.1969
; #@! TA.AperFunction,NonPlated,NPTH,ComponentDrill
T19C0.1181
%
G90
G05
T1
X5842Y37677
X5842Y33386
X5842Y27795
X5842Y22967
X5852Y47198
X6373Y43960
X7338Y23514
X8433Y43967
X8627Y44708
X9070Y41815
X23409Y38140
X23616Y38484
X23911Y38022
X25309Y38051
X29712Y7006
X30332Y5075
X31995Y4811
X32458Y4811
X33314Y4811
X34190Y4811
X35334Y5078
X40549Y6763
X40578Y5366
X40667Y7265
X41011Y7058
X46575Y11150
X46575Y10383
X46575Y9359
X47091Y10895
X47268Y10255
X47298Y9192
X47298Y9920
X47304Y8444
X47382Y9576
X48908Y8326
T2
X941Y17408
X946Y50868
X946Y47915
X946Y42994
X946Y38073
X946Y32167
X946Y25278
X946Y14451
X946Y7561
X2796Y43467
X2914Y33349
X3072Y38703
X3111Y49687
X3642Y56132
X3898Y3624
X4528Y45356
X4528Y40475
X4528Y34963
X4568Y30711
X4568Y25160
X4741Y49246
X4774Y51577
X5020Y22473
X5316Y44963
X5316Y31813
X5394Y27404
X5424Y47522
X5434Y42522
X5434Y38034
X5660Y39402
X5788Y7364
X5847Y366
X6359Y54884
X6694Y2876
X7284Y5593
X7363Y57669
X8396Y39057
X8446Y40868
X8603Y48427
X8820Y34530
X8908Y48112
X8957Y28752
X8997Y23290
X9070Y41248
X9070Y36445
X9095Y31065
X9095Y22738
X9351Y38112
X9410Y36380
X9420Y32847
X9449Y55150
X9449Y33349
X9489Y32266
X9686Y26774
X9804Y60711
X9961Y51538
X10040Y43162
X10040Y2915
X10207Y39215
X10306Y11931
X10385Y34559
X10616Y36344
X10629Y37481
X10709Y48093
X10818Y10622
X11034Y297
X11142Y15514
X11182Y25120
X11221Y20514
X11261Y13309
X11339Y28585
X11379Y11577
X11615Y52069
X11762Y50297
X11812Y47837
X11812Y46577
X11851Y55041
X11959Y40524
X12048Y33654
X12107Y35022
X12186Y37689
X12255Y39293
X12688Y46597
X12717Y41912
X12757Y37128
X12766Y44244
X13111Y11341
X13298Y48496
X13347Y47482
X13534Y39302
X13721Y8132
X13761Y32965
X13790Y55051
X13800Y33654
X13829Y47640
X13839Y42758
X13869Y44264
X13898Y6695
X13967Y32207
X14135Y37679
X14135Y31183
X14135Y29648
X14292Y44264
X14558Y45593
X14577Y39914
X14715Y40396
X14715Y46319
X14764Y44923
X14774Y60652
X14774Y57728
X14823Y33083
X14833Y33585
X14981Y40868
X15079Y11341
X15148Y32826
X15237Y31341
X15886Y297
X16123Y32915
X16516Y32719
X16585Y32364
X16694Y29648
X16713Y46252
X16753Y39766
X16930Y45307
X16930Y40110
X17156Y33683
X17245Y29815
X17283Y49173
X17294Y48841
X17353Y37699
X17422Y45288
X17461Y40081
X17511Y31410
X17540Y7541
X17609Y41134
X17638Y44697
X17698Y46223
X17737Y39854
X17776Y37679
X17796Y33939
X17806Y32965
X17875Y11459
X17904Y47473
X17953Y44854
X17953Y41321
X17953Y9648
X17953Y1892
X18062Y36705
X18140Y30012
X18199Y48417
X18219Y5967
X18278Y46813
X18505Y37768
X18692Y36715
X18831Y34530
X18859Y47630
X18928Y56390
X19144Y34028
X19194Y46695
X19284Y35327
X19361Y38092
X19449Y36114
X19475Y49490
X19499Y51026
X19518Y54106
X19528Y55652
X19686Y3545
X19784Y29067
X19804Y11459
X20050Y1498
X20109Y30160
X20148Y248
X20631Y60711
X20729Y48861
X20764Y29702
X20955Y37837
X21054Y48368
X21103Y39067
X21142Y31026
X21142Y29530
X21241Y36360
X21261Y34097
X21428Y36095
X21654Y1459
X21664Y35494
X22196Y48929
X22294Y33644
X22323Y57650
X22354Y36735
X22373Y32758
X22402Y3624
X22412Y59175
X22442Y11734
X22449Y41264
X22560Y34215
X22668Y44894
X22678Y32420
X22821Y28721
X22835Y14254
X22835Y13821
X22835Y9136
X22835Y5947
X22875Y20632
X22953Y32797
X22990Y28046
X23032Y22286
X23150Y23545
X23229Y34608
X23323Y48545
X23419Y14867
X23465Y11774
X23505Y24293
X23574Y43162
X23583Y297
X23662Y14175
X23731Y15110
X23741Y42788
X23780Y32167
X23859Y33978
X23908Y50268
X24007Y43595
X24016Y15297
X24125Y20642
X24312Y43122
X24331Y31734
X24489Y32758
X24538Y54914
X24568Y34146
X24686Y8644
X24725Y9451
X24744Y6142
X24922Y52640
X24981Y21823
X25119Y26668
X25119Y11262
X25168Y28575
X25168Y23585
X25316Y10160
X25345Y15740
X25355Y32207
X25473Y9490
X25512Y33915
X25621Y8782
X25635Y10632
X25660Y14146
X25661Y11419
X25709Y47207
X25788Y45160
X25808Y54933
X25809Y48914
X25827Y37128
X25857Y7906
X25867Y39215
X25906Y42246
X25945Y5325
X25946Y53664
X26103Y22797
X26103Y20475
X26142Y28585
X26182Y34451
X26182Y19805
X26221Y15750
X26300Y23506
X26349Y297
X26516Y60681
X26536Y9569
X26723Y53329
X26733Y33939
X26733Y6026
X26762Y52404
X27030Y33753
X27087Y9766
X27117Y3063
X27166Y22679
X27166Y20317
X27235Y27660
X27402Y34293
X27461Y52354
X27589Y58211
X27698Y55071
X27766Y56852
X27796Y52345
X27875Y36104
X28032Y32364
X28062Y33700
X28072Y24451
X28121Y52335
X28583Y36144
X28642Y6410
X29174Y32325
X29184Y59274
X29203Y278
X29253Y23467
X29381Y6114
X29410Y36045
X29410Y4195
X29735Y55101
X29794Y36351
X30070Y36026
X30158Y31695
X30198Y23978
X30316Y26892
X30316Y25081
X30394Y58270
X30512Y27955
X31182Y23860
X31339Y31931
X31457Y30504
X31546Y52492
X31694Y297
X31743Y55091
X31979Y60750
X32284Y44884
X32284Y40593
X32284Y37089
X32363Y50278
X32373Y53447
X32579Y52581
X32894Y38142
X32914Y47955
X32993Y29963
X33003Y31508
X33072Y57108
X33121Y52138
X33130Y32650
X33150Y33683
X33229Y24490
X33236Y32946
X33249Y31745
X33298Y54687
X33347Y46223
X33347Y43349
X33495Y49864
X33524Y41921
X33583Y31962
X33642Y31291
X33667Y50646
X33711Y32502
X33743Y41723
X33743Y41723
X33785Y34195
X33790Y38437
X33800Y41114
X33881Y41418
X33881Y41418
X34036Y51547
X34105Y49933
X34154Y42610
X34499Y51784
X34528Y58309
X34617Y49697
X34780Y34612
X34794Y33732
X34825Y35286
X35001Y32335
X35050Y52049
X35178Y41498
X35316Y55041
X35316Y48063
X35325Y59215
X35355Y46065
X35759Y2443
X35759Y317
X35926Y42886
X36103Y30425
X36103Y4766
X36182Y39372
X36418Y53191
X36458Y2306
X36497Y1685
X36497Y612
X36526Y54559
X36837Y39547
X36900Y32443
X37048Y47994
X37073Y30726
X37127Y45160
X37166Y7994
X37166Y6695
X37186Y32689
X37383Y37738
X37491Y49362
X37717Y39372
X37816Y55868
X37973Y31282
X38062Y317
X38249Y32345
X38347Y43112
X38426Y5475
X38505Y7994
X38505Y6380
X38633Y31213
X38741Y29963
X38938Y1656
X38987Y52089
X39016Y5317
X39056Y47719
X39066Y32473
X39154Y44057
X39154Y33427
X39331Y60711
X39528Y39490
X39735Y31400
X40001Y45199
X40001Y32837
X40011Y33516
X40316Y58349
X40316Y30228
X40414Y31636
X40631Y52601
X40631Y33191
X41034Y39569
X41103Y41301
X41179Y30560
X41221Y38742
X41241Y46164
X41261Y44608
X41270Y31617
X41477Y52591
X41556Y51006
X41890Y33585
X41910Y46685
X42491Y32315
X42511Y31744
X42541Y33282
X42638Y278
X42786Y52246
X42786Y46725
X42796Y7955
X42816Y30701
X42835Y43201
X42855Y33723
X42894Y31400
X42934Y38821
X42973Y45917
X42973Y41429
X43199Y48309
X43199Y32059
X43209Y34303
X43288Y31528
X43593Y30228
X43761Y33624
X43938Y43181
X43967Y58388
X43967Y38752
X43977Y34018
X44016Y35238
X44056Y31813
X44184Y30337
X44213Y8152
X44253Y60711
X44253Y5317
X44331Y6498
X44484Y43580
X44587Y1852
X44912Y42541
X45119Y35238
X45198Y33467
X45316Y31262
X45434Y38703
X45473Y7601
X45532Y42108
X45680Y47620
X45906Y29215
X45946Y27049
X45985Y24175
X46103Y13821
X46133Y52728
X46182Y11577
X46261Y22719
X46261Y19845
X46261Y17679
X46280Y31075
X46300Y38703
X46300Y35081
X46497Y33614
X46605Y41675
X46654Y45917
X46674Y46695
X46851Y54973
X46851Y38703
X46940Y37014
X46969Y1656
X47009Y21380
X47077Y48919
X47097Y49165
X47196Y37014
X47323Y17443
X47717Y7404
X47796Y41577
X47835Y25435
X47875Y28073
X47894Y46784
X47914Y33575
X47993Y54982
X48022Y45868
X48081Y35110
X48101Y38870
X48111Y22561
X48298Y58142
X48337Y31085
X48613Y60780
X48731Y34480
X48820Y29648
X48859Y35406
X48898Y34126
X48937Y49096
X48937Y48850
X48938Y24175
X49036Y33782
X49056Y32010
X49528Y3624
X49725Y34923
X49804Y20002
X49863Y46341
X49961Y2404
X50001Y23782
X50001Y21183
X50001Y9727
X50237Y32246
X50512Y30002
X50522Y297
X50552Y5278
X50581Y43949
X50709Y23073
X50749Y26183
X50749Y20160
X50749Y7679
X50788Y19057
X50847Y3526
X50896Y35730
X50946Y6419
X50985Y10986
X51103Y33585
X51103Y30632
X51142Y32049
X51182Y13742
X51261Y17640
X51300Y43703
X51318Y37955
X51536Y7915
X51615Y35908
X51890Y3427
X52127Y59727
X52225Y32177
X52359Y2660
X52599Y43073
X52626Y4044
X52796Y45002
X52875Y35790
X53111Y5278
X53190Y35790
X53426Y16223
X53544Y10593
X53583Y3644
X53780Y6223
X53997Y4097
X54016Y5160
X54174Y35356
X54174Y6931
X54292Y46459
X54371Y13309
X54528Y51971
X54686Y18112
X54686Y8545
X54883Y22837
X54883Y4254
X55198Y26104
X55237Y54018
X55512Y40671
X55512Y14569
X55591Y17994
X56064Y2640
X56812Y8112
X56969Y55160
X57127Y37325
X57599Y23427
X58229Y40396
X58308Y50081
X58623Y46931
X58623Y37364
X58741Y43427
X60001Y56774
X60001Y49884
X60001Y42994
X60001Y31183
X60001Y24293
X60001Y17404
X60001Y10514
X60070Y37748
T3
X27392Y36929
X27785Y36929
X29183Y36929
X29577Y36929
X30010Y51988
X30404Y51988
X30797Y51988
X31152Y24254
X31191Y51988
X31433Y28132
X31674Y27561
X31703Y24254
X31913Y24697
X32009Y27561
X32127Y24254
X32343Y27561
X32678Y24254
X32678Y27561
T4
X6477Y48221
X9086Y33073
X14505Y29072
X15237Y35120
X15317Y33581
X15375Y32286
X17944Y35445
X18268Y29745
X18824Y31656
X20391Y36931
X20490Y34815
X20627Y31971
X21116Y35218
X21427Y40538
X21526Y36528
X21725Y40425
X21827Y36633
X22205Y30081
X22235Y34146
X22520Y28821
X22835Y28388
X23032Y25249
X23155Y21656
X23155Y8624
X23249Y30160
X23446Y6075
X23780Y6065
X23839Y30858
X24074Y27440
X24105Y6065
X24371Y11065
X24410Y11538
X24410Y6075
X24579Y30041
X24710Y30337
X24794Y24973
X25089Y8693
X25119Y29136
X25166Y25099
X25385Y26301
X25483Y36321
X25542Y34244
X25714Y29766
X25877Y36469
X25929Y52195
X26049Y30337
X26370Y12566
X26536Y34382
X26540Y11191
X26540Y10872
X26540Y10553
X26551Y10227
X26678Y12484
X26694Y6934
X26975Y12187
X27090Y29413
X27171Y11695
X27481Y6934
X27505Y30336
X27845Y8526
X27918Y6459
X27944Y34331
X28378Y33683
X28446Y36698
X28544Y24375
X28750Y24090
X28824Y30336
X28898Y34205
X29047Y23793
X29122Y31816
X29542Y31816
X29572Y8112
X29636Y2473
X29686Y24018
X29715Y33406
X31225Y7994
X31698Y7994
X32018Y33665
X32717Y1587
X32879Y8152
X33174Y27154
X33190Y26498
X33190Y27969
X33347Y30475
X33588Y8152
X33655Y23580
X34078Y34021
X35044Y8112
X35205Y30640
X36934Y31065
X37353Y1665
X37442Y30770
X39686Y29963
X40670Y8153
X41575Y40927
X41822Y40150
X43151Y7958
X43505Y7958
X44154Y30850
X44336Y31419
X44489Y23784
X44489Y23194
X44656Y30347
X44915Y23691
X47367Y1104
X48268Y23706
X48524Y35849
X48662Y37089
X48770Y35849
X48977Y17603
X49213Y30553
X49253Y17131
X49372Y36862
X49715Y36311
X50011Y36085
X51339Y19443
X51575Y19727
X51930Y36774
T5
X31406Y23194
X33859Y29966
X35828Y29966
X36458Y5635
X45394Y29687
T6
X12245Y46029
X14587Y32236
X15955Y46053
X15955Y45207
X15955Y40780
X15955Y40110
X18953Y40071
X18957Y46026
X18957Y45238
X18957Y40760
T7
X55867Y45740
X56182Y45051
X56497Y45740
X56812Y45051
X57127Y45740
T8
X5272Y51029
X5272Y49529
X5379Y52139
X6473Y51057
X6473Y49557
X7308Y52139
X7329Y51057
X7329Y49557
X8186Y51037
X8186Y49537
X8317Y52126
X8337Y53071
X9071Y51027
X9071Y49527
X9918Y51019
X9918Y49519
X10246Y52126
X10266Y53071
X12363Y51825
X12363Y50325
X13672Y51825
X13672Y50325
X14517Y51826
X14517Y50326
X15403Y51836
X15403Y50336
X16328Y51835
X16328Y50335
X17205Y51825
X17205Y50325
X18051Y51825
X18051Y50325
X18907Y51825
X18907Y50325
X21034Y51825
X21034Y50325
X21999Y51815
X21999Y50315
X40985Y51638
X40985Y50138
X42333Y51628
X42333Y50128
X43267Y51646
X43267Y50146
X44518Y51539
X44518Y50039
X44538Y48961
X44538Y47461
X46556Y51579
X46556Y50079
X48259Y48961
X48259Y47461
X49813Y51518
X49813Y50018
X50177Y48978
X50177Y47478
X50355Y18587
X50355Y17587
X50355Y16587
X50355Y15587
X50355Y14587
X50355Y13587
X51142Y48978
X51142Y47478
X52018Y48969
X52018Y47469
X52117Y51556
X52117Y50056
X52879Y48978
X52879Y47478
X52973Y51556
X52973Y50056
T9
X50768Y42167
X50768Y41183
X50768Y40199
X50768Y39215
X50768Y38230
T10
X53274Y40494
X53274Y39510
X54062Y40494
X54062Y39510
T11
X1957Y21755
X1957Y20755
X1957Y19755
X1957Y18755
X1957Y17755
X1957Y16755
X1957Y15755
X1957Y14755
X1957Y13755
X1957Y12755
X1957Y11755
X1957Y10755
X1957Y9755
X1957Y8755
X1957Y7755
X2957Y21755
X2957Y20755
X2957Y19755
X2957Y18755
X2957Y17755
X2957Y16755
X2957Y15755
X2957Y14755
X2957Y13755
X2957Y12755
X2957Y11755
X2957Y10755
X2957Y9755
X2957Y8755
X2957Y7755
X3957Y21755
X3957Y20755
X3957Y19755
X3957Y18755
X3957Y17755
X3957Y16755
X3957Y15755
X3957Y14755
X3957Y13755
X3957Y12755
X3957Y11755
X3957Y10755
X3957Y9755
X3957Y8755
X3957Y7755
X4957Y21755
X4957Y20755
X4957Y19755
X4957Y18755
X4957Y17755
X4957Y16755
X4957Y15755
X4957Y14755
X4957Y13755
X4957Y12755
X5808Y48742
X5957Y21755
X5957Y20755
X5957Y19755
X5957Y18755
X5957Y17755
X5957Y16755
X5957Y15755
X5957Y14755
X5957Y13755
X5957Y12755
X6957Y21755
X6957Y20755
X6957Y19755
X6957Y18755
X6957Y17755
X6957Y16755
X6957Y15755
X6957Y14755
X6957Y13755
X6957Y12755
X7957Y21755
X7957Y20755
X7957Y19755
X7957Y18755
X7957Y17755
X7957Y16755
X7957Y15755
X7957Y14755
X7957Y13755
X7957Y12755
X8957Y21755
X8957Y20755
X8957Y19755
X8957Y18755
X8957Y17755
X8957Y16755
X8957Y15755
X8957Y14755
X8957Y13755
X8957Y12755
X9957Y21755
X9957Y20755
X9957Y19755
X9957Y18755
X9957Y17755
X9957Y16755
X9957Y15755
X9957Y14755
X9957Y13755
X9957Y12755
X11694Y31104
X11694Y29963
X12225Y52640
X12835Y31096
X12835Y29963
X13121Y49047
X13751Y52640
X14715Y49057
X15798Y49057
X16614Y52669
X18859Y31104
X21615Y46843
X21615Y45843
X21615Y44843
X21615Y43843
X21615Y42843
X21615Y41843
X24528Y17091
X24528Y14138
X25635Y17091
X26142Y27640
X26142Y25435
X27245Y26538
X27245Y24333
X32249Y30081
X34597Y32728
X35719Y32728
X35886Y38191
X35985Y52630
X35985Y51478
X36886Y38191
X37127Y52630
X37127Y51498
X37356Y3539
X37356Y2539
X37886Y38191
X38356Y3539
X38356Y2539
X38886Y38191
X39356Y3539
X39356Y2539
X39886Y38191
X40356Y3539
X40356Y2539
X40886Y38191
X41356Y3539
X41356Y2539
X41871Y32807
X42356Y3539
X42356Y2539
X43071Y34963
X43356Y3539
X43356Y2539
X44356Y3539
X44356Y2539
X45356Y3539
X45356Y2539
X45650Y50337
X45680Y51774
X46356Y3539
X46356Y2539
X46418Y16223
X46418Y15106
X47356Y3539
X47356Y2539
X47599Y16223
X47599Y15106
X48317Y50778
X48356Y3539
X48356Y2539
X48780Y16223
X48780Y15106
X50982Y50748
T12
X6296Y55937
X6296Y54165
X7673Y55937
X7673Y54165
X8894Y55937
X8894Y54165
X10075Y55937
X10075Y54165
X11256Y55937
X11256Y54165
X12437Y55937
X12437Y54165
X13618Y55937
X13618Y54165
X14799Y55937
X14799Y54165
X15980Y55937
X15980Y54165
X17161Y55937
X17161Y54165
X18382Y55937
X18382Y54165
X20725Y55937
X20725Y54165
X21906Y55937
X21906Y54165
X23087Y55937
X23087Y54165
X24268Y55937
X24268Y54165
X25450Y55937
X25450Y54165
X26631Y55937
X26631Y54165
X28874Y55937
X28874Y54165
X30055Y55937
X30055Y54165
X31236Y55937
X31236Y54165
X32417Y55937
X32417Y54165
X33599Y55937
X33599Y54165
X34780Y55937
X34780Y54165
X35961Y55937
X35961Y54165
X37142Y55937
X37142Y54165
X39483Y55937
X39483Y54165
X40861Y55937
X40861Y54165
X42083Y55937
X42083Y54165
X43264Y55937
X43264Y54165
X44445Y55937
X44445Y54165
X45626Y55937
X45626Y54165
X46807Y55937
X46807Y54165
X47988Y55937
X47988Y54165
X49169Y55937
X49169Y54165
X50350Y55937
X50350Y54165
X51571Y55937
X51571Y54165
X52949Y55937
X52949Y54165
X54327Y55937
X54327Y54165
T13
X10787Y39961
X12953Y39961
T14
X52688Y34619
X54144Y33753
X54892Y34619
X56349Y33753
X57333Y34619
T15
X55129Y42372
X55129Y37632
T16
X55355Y20587
X55355Y11587
T17
X6040Y58181
X19603Y58181
X38264Y58181
X54583Y58181
T18
X1969Y60591
X1969Y28307
X1969Y2008
X58642Y28307
X58661Y60591
X58661Y2323
T19
X7913Y39961
T7
X55060Y45140G85X55060Y45652
G05
X57934Y45140G85X57934Y45652
G05
T0
M30
