G75*
G70*
%OFA0B0*%
%FSLAX25Y25*%
%IPPOS*%
%LPD*%
%AMOC8*
5,1,8,0,0,1.08239X$1,22.5*
%
%AMM174*
21,1,0.015350,0.009840,-0.000000,-0.000000,180.000000*
21,1,0.000000,0.025200,-0.000000,-0.000000,180.000000*
1,1,0.015350,-0.000000,0.004920*
1,1,0.015350,-0.000000,0.004920*
1,1,0.015350,-0.000000,-0.004920*
1,1,0.015350,-0.000000,-0.004920*
%
%AMM175*
21,1,0.015350,0.009840,-0.000000,-0.000000,270.000000*
21,1,0.000000,0.025200,-0.000000,-0.000000,270.000000*
1,1,0.015350,-0.004920,-0.000000*
1,1,0.015350,-0.004920,-0.000000*
1,1,0.015350,0.004920,-0.000000*
1,1,0.015350,0.004920,-0.000000*
%
%AMM256*
21,1,0.015350,0.009840,-0.000000,-0.000000,90.000000*
21,1,0.000000,0.025200,-0.000000,-0.000000,90.000000*
1,1,0.015350,0.004920,-0.000000*
1,1,0.015350,0.004920,-0.000000*
1,1,0.015350,-0.004920,-0.000000*
1,1,0.015350,-0.004920,-0.000000*
%
%AMM345*
21,1,0.015350,0.009840,-0.000000,0.000000,270.000000*
21,1,0.000000,0.025200,-0.000000,0.000000,270.000000*
1,1,0.015350,-0.004920,0.000000*
1,1,0.015350,-0.004920,0.000000*
1,1,0.015350,0.004920,0.000000*
1,1,0.015350,0.004920,0.000000*
%
%ADD129O,0.04331X0.09449*%
%ADD133C,0.02362*%
%ADD137O,0.02913X0.02126*%
%ADD138C,0.13780*%
%ADD139O,0.04488X0.06457*%
%ADD164O,0.14567X0.10630*%
%ADD169O,0.03150X0.02362*%
%ADD176C,0.04331*%
%ADD195C,0.06693*%
%ADD196C,0.07874*%
%ADD198R,0.06693X0.06693*%
%ADD205C,0.11811*%
%ADD206O,0.03701X0.02913*%
%ADD218O,0.03937X0.05906*%
%ADD22O,0.44882X0.04331*%
%ADD225O,0.02913X0.03701*%
%ADD235C,0.13000*%
%ADD237O,0.45433X0.04882*%
%ADD253C,0.27559*%
%ADD255R,0.06457X0.06457*%
%ADD256R,0.04331X0.04331*%
%ADD265O,0.06693X0.06693*%
%ADD280O,0.07283X0.06693*%
%ADD299C,0.02913*%
%ADD303C,0.04451*%
%ADD31O,0.02126X0.02913*%
%ADD316O,0.01575X0.02362*%
%ADD324O,0.02362X0.03150*%
%ADD340O,0.02362X0.01575*%
%ADD356C,0.07087*%
%ADD360C,0.03900*%
%ADD392M174*%
%ADD393M175*%
%ADD484M256*%
%ADD588M345*%
%ADD639R,0.07874X0.07500*%
%ADD640O,0.07874X0.07500*%
%ADD71C,0.06457*%
%ADD80C,0.06000*%
%ADD93O,0.02126X0.01339*%
%ADD98O,0.01575X0.00787*%
X0000000Y0000000D02*
%LPD*%
G01*
D133*
X0297120Y0070059D03*
X0303321Y0050748D03*
X0353337Y0050784D03*
X0319955Y0048110D03*
X0324581Y0048110D03*
X0333144Y0048110D03*
X0341904Y0048110D03*
D80*
X0501772Y0474783D03*
X0501772Y0489783D03*
X0189073Y0503249D03*
X0189073Y0518249D03*
D195*
X0245285Y0141379D03*
X0245285Y0170915D03*
X0157979Y0490572D03*
D198*
X0408865Y0381911D03*
D265*
X0398865Y0381911D03*
X0388865Y0381911D03*
X0378865Y0381911D03*
X0368865Y0381911D03*
X0358865Y0381911D03*
D195*
X0456503Y0503367D03*
X0079567Y0177549D03*
X0079567Y0187549D03*
X0079567Y0197549D03*
X0079567Y0207549D03*
X0079567Y0217549D03*
X0089567Y0177549D03*
X0089567Y0187549D03*
X0089567Y0197549D03*
X0089567Y0207549D03*
X0089567Y0217549D03*
X0099567Y0177549D03*
X0099567Y0187549D03*
X0099567Y0197549D03*
X0099567Y0207549D03*
X0099567Y0217549D03*
X0359849Y0514785D03*
D80*
X0219987Y0503151D03*
X0219987Y0518151D03*
D195*
X0116936Y0311045D03*
X0049567Y0127549D03*
X0049567Y0137549D03*
X0049567Y0147549D03*
X0049567Y0157549D03*
X0049567Y0167549D03*
X0059567Y0127549D03*
X0059567Y0137549D03*
X0059567Y0147549D03*
X0059567Y0157549D03*
X0059567Y0167549D03*
X0069567Y0127549D03*
X0069567Y0137549D03*
X0069567Y0147549D03*
X0069567Y0157549D03*
X0069567Y0167549D03*
D218*
X0119744Y0282846D03*
X0124688Y0282846D03*
D22*
X0150059Y0283339D03*
D316*
X0175453Y0284520D03*
D324*
X0179291Y0284126D03*
D316*
X0182716Y0284520D03*
X0185591Y0284520D03*
X0189113Y0284520D03*
X0197283Y0284520D03*
X0200826Y0284520D03*
X0203622Y0284520D03*
D324*
X0207638Y0284126D03*
X0212264Y0284126D03*
X0217579Y0284126D03*
X0222205Y0284126D03*
D340*
X0225748Y0280464D03*
X0225748Y0277728D03*
X0225748Y0275050D03*
D169*
X0225374Y0271823D03*
D340*
X0225748Y0266684D03*
D169*
X0225374Y0262866D03*
D340*
X0225748Y0257846D03*
X0225748Y0255287D03*
D169*
X0225374Y0250563D03*
X0225374Y0246331D03*
X0225374Y0242886D03*
D340*
X0225748Y0239638D03*
X0225748Y0216606D03*
D98*
X0226161Y0200642D03*
X0226161Y0198043D03*
X0226161Y0193870D03*
X0226161Y0191098D03*
X0226161Y0187948D03*
X0226161Y0184799D03*
X0226161Y0181665D03*
X0226161Y0173024D03*
X0226161Y0171291D03*
X0226161Y0169559D03*
X0226161Y0167827D03*
X0226161Y0166095D03*
X0226161Y0164362D03*
X0226161Y0162630D03*
X0226161Y0160898D03*
X0226161Y0156469D03*
X0226161Y0153870D03*
X0226161Y0151272D03*
X0226161Y0148673D03*
X0226161Y0135268D03*
X0226161Y0133535D03*
X0226161Y0131803D03*
X0226161Y0130071D03*
X0226161Y0128339D03*
X0226161Y0126606D03*
X0226161Y0124874D03*
D80*
X0123629Y0503249D03*
X0123629Y0518249D03*
X0445184Y0500395D03*
X0445184Y0515395D03*
D195*
X0359849Y0526301D03*
D80*
X0445381Y0474608D03*
X0445381Y0489608D03*
X0172054Y0503249D03*
X0172054Y0518249D03*
X0052721Y0495293D03*
X0052721Y0510293D03*
D138*
X0545831Y0581810D03*
X0060398Y0581810D03*
X0196027Y0581810D03*
X0382642Y0581810D03*
D356*
X0062957Y0541650D03*
X0076727Y0541650D03*
X0088937Y0541650D03*
X0100747Y0541650D03*
X0112557Y0541650D03*
X0124367Y0541650D03*
X0136177Y0541650D03*
X0147987Y0541650D03*
X0159797Y0541650D03*
X0171607Y0541650D03*
X0183817Y0541650D03*
X0062957Y0559370D03*
X0076727Y0559370D03*
X0088937Y0559370D03*
X0100747Y0559370D03*
X0112557Y0559370D03*
X0124367Y0559370D03*
X0136177Y0559370D03*
X0147987Y0559370D03*
X0159797Y0559370D03*
X0171607Y0559370D03*
X0183817Y0559370D03*
X0288744Y0541650D03*
X0300554Y0541650D03*
X0312364Y0541650D03*
X0324174Y0541650D03*
X0335994Y0541650D03*
X0347804Y0541650D03*
X0359614Y0541650D03*
X0371424Y0541650D03*
X0288744Y0559370D03*
X0300554Y0559370D03*
X0312364Y0559370D03*
X0324174Y0559370D03*
X0335994Y0559370D03*
X0347804Y0559370D03*
X0359614Y0559370D03*
X0371424Y0559370D03*
X0394834Y0541650D03*
X0408614Y0541650D03*
X0420834Y0541650D03*
X0432644Y0541650D03*
X0444454Y0541650D03*
X0456264Y0541650D03*
X0468074Y0541650D03*
X0479884Y0541650D03*
X0491694Y0541650D03*
X0503504Y0541650D03*
X0515714Y0541650D03*
X0529494Y0541650D03*
X0543274Y0541650D03*
X0394834Y0559370D03*
X0408614Y0559370D03*
X0420834Y0559370D03*
X0432644Y0559370D03*
X0444454Y0559370D03*
X0456264Y0559370D03*
X0468074Y0559370D03*
X0479884Y0559370D03*
X0491694Y0559370D03*
X0503504Y0559370D03*
X0515714Y0559370D03*
X0529494Y0559370D03*
X0543274Y0559370D03*
X0207248Y0541650D03*
X0219058Y0541650D03*
X0230868Y0541650D03*
X0242678Y0541650D03*
X0254498Y0541650D03*
X0266308Y0541650D03*
X0207248Y0559370D03*
X0219058Y0559370D03*
X0230868Y0559370D03*
X0242678Y0559370D03*
X0254498Y0559370D03*
X0266308Y0559370D03*
D195*
X0166142Y0526694D03*
X0509821Y0507480D03*
X0357192Y0327285D03*
X0128353Y0299627D03*
X0475991Y0162226D03*
D80*
X0210341Y0503249D03*
X0210341Y0518249D03*
D256*
X0571266Y0457403D03*
D176*
X0568117Y0450513D03*
X0564967Y0457403D03*
X0561818Y0450513D03*
X0558668Y0457403D03*
D129*
X0579337Y0453958D03*
X0550597Y0453958D03*
D198*
X0216148Y0416655D03*
D265*
X0216148Y0426655D03*
X0216148Y0436655D03*
X0216148Y0446655D03*
X0216148Y0456655D03*
X0216148Y0466655D03*
X0216148Y0476655D03*
X0216148Y0486655D03*
D195*
X0475991Y0151064D03*
D198*
X0532743Y0404942D03*
D195*
X0532743Y0395100D03*
X0540617Y0395100D03*
X0540617Y0404942D03*
D138*
X0551286Y0376320D03*
X0551286Y0423722D03*
D195*
X0256349Y0170906D03*
X0487802Y0151064D03*
D133*
X0234091Y0381397D03*
X0236158Y0384842D03*
X0239110Y0380216D03*
X0253087Y0380511D03*
D235*
X0553550Y0205867D03*
X0553550Y0115867D03*
D80*
X0503550Y0185867D03*
X0503550Y0175867D03*
X0503550Y0165867D03*
X0503550Y0155867D03*
X0503550Y0145867D03*
X0503550Y0135867D03*
X0521168Y0515555D03*
X0521168Y0500555D03*
D195*
X0019567Y0177549D03*
X0019567Y0187549D03*
X0019567Y0197549D03*
X0019567Y0207549D03*
X0019567Y0217549D03*
X0029567Y0177549D03*
X0029567Y0187549D03*
X0029567Y0197549D03*
X0029567Y0207549D03*
X0029567Y0217549D03*
X0039567Y0177549D03*
X0039567Y0187549D03*
X0039567Y0197549D03*
X0039567Y0207549D03*
X0039567Y0217549D03*
X0456798Y0517738D03*
X0272448Y0243328D03*
D133*
X0406667Y0072652D03*
X0410112Y0070585D03*
X0405486Y0067632D03*
X0405782Y0053656D03*
D195*
X0116936Y0299627D03*
X0122251Y0526399D03*
D80*
X0090713Y0495273D03*
X0090713Y0510273D03*
D253*
X0019685Y0020079D03*
G36*
G01*
X0223638Y0086788D02*
X0224622Y0086788D01*
G75*
G02*
X0225114Y0086296I0000000J-000492D01*
G01*
X0225114Y0086296D01*
G75*
G02*
X0224622Y0085804I-000492J0000000D01*
G01*
X0223638Y0085804D01*
G75*
G02*
X0223146Y0086296I0000000J0000492D01*
G01*
X0223146Y0086296D01*
G75*
G02*
X0223638Y0086788I0000492J0000000D01*
G01*
G37*
G36*
G01*
X0223638Y0082458D02*
X0224622Y0082458D01*
G75*
G02*
X0225114Y0081965I0000000J-000492D01*
G01*
X0225114Y0081965D01*
G75*
G02*
X0224622Y0081473I-000492J0000000D01*
G01*
X0223638Y0081473D01*
G75*
G02*
X0223146Y0081965I0000000J0000492D01*
G01*
X0223146Y0081965D01*
G75*
G02*
X0223638Y0082458I0000492J0000000D01*
G01*
G37*
G36*
G01*
X0223638Y0078127D02*
X0224622Y0078127D01*
G75*
G02*
X0225114Y0077635I0000000J-000492D01*
G01*
X0225114Y0077635D01*
G75*
G02*
X0224622Y0077143I-000492J0000000D01*
G01*
X0223638Y0077143D01*
G75*
G02*
X0223146Y0077635I0000000J0000492D01*
G01*
X0223146Y0077635D01*
G75*
G02*
X0223638Y0078127I0000492J0000000D01*
G01*
G37*
G36*
G01*
X0223638Y0073796D02*
X0224622Y0073796D01*
G75*
G02*
X0225114Y0073304I0000000J-000492D01*
G01*
X0225114Y0073304D01*
G75*
G02*
X0224622Y0072812I-000492J0000000D01*
G01*
X0223638Y0072812D01*
G75*
G02*
X0223146Y0073304I0000000J0000492D01*
G01*
X0223146Y0073304D01*
G75*
G02*
X0223638Y0073796I0000492J0000000D01*
G01*
G37*
G36*
G01*
X0223638Y0069465D02*
X0224622Y0069465D01*
G75*
G02*
X0225114Y0068973I0000000J-000492D01*
G01*
X0225114Y0068973D01*
G75*
G02*
X0224622Y0068481I-000492J0000000D01*
G01*
X0223638Y0068481D01*
G75*
G02*
X0223146Y0068973I0000000J0000492D01*
G01*
X0223146Y0068973D01*
G75*
G02*
X0223638Y0069465I0000492J0000000D01*
G01*
G37*
G36*
G01*
X0223638Y0065135D02*
X0224622Y0065135D01*
G75*
G02*
X0225114Y0064643I0000000J-000492D01*
G01*
X0225114Y0064643D01*
G75*
G02*
X0224622Y0064151I-000492J0000000D01*
G01*
X0223638Y0064151D01*
G75*
G02*
X0223146Y0064643I0000000J0000492D01*
G01*
X0223146Y0064643D01*
G75*
G02*
X0223638Y0065135I0000492J0000000D01*
G01*
G37*
D195*
X0322492Y0300812D03*
X0487802Y0162226D03*
X0371266Y0514982D03*
X0019567Y0077549D03*
X0019567Y0087549D03*
X0019567Y0097549D03*
X0019567Y0107549D03*
X0019567Y0117549D03*
X0029567Y0077549D03*
X0029567Y0087549D03*
X0029567Y0097549D03*
X0029567Y0107549D03*
X0029567Y0117549D03*
X0039567Y0077549D03*
X0039567Y0087549D03*
X0039567Y0097549D03*
X0039567Y0107549D03*
X0039567Y0117549D03*
G36*
G01*
X0335286Y0273039D02*
X0336270Y0273039D01*
G75*
G02*
X0336762Y0272547I0000000J-000492D01*
G01*
X0336762Y0272547D01*
G75*
G02*
X0336270Y0272054I-000492J0000000D01*
G01*
X0335286Y0272054D01*
G75*
G02*
X0334794Y0272547I0000000J0000492D01*
G01*
X0334794Y0272547D01*
G75*
G02*
X0335286Y0273039I0000492J0000000D01*
G01*
G37*
G36*
G01*
X0335286Y0275637D02*
X0336270Y0275637D01*
G75*
G02*
X0336762Y0275145I0000000J-000492D01*
G01*
X0336762Y0275145D01*
G75*
G02*
X0336270Y0274653I-000492J0000000D01*
G01*
X0335286Y0274653D01*
G75*
G02*
X0334794Y0275145I0000000J0000492D01*
G01*
X0334794Y0275145D01*
G75*
G02*
X0335286Y0275637I0000492J0000000D01*
G01*
G37*
G36*
G01*
X0335286Y0278236D02*
X0336270Y0278236D01*
G75*
G02*
X0336762Y0277743I0000000J-000492D01*
G01*
X0336762Y0277743D01*
G75*
G02*
X0336270Y0277251I-000492J0000000D01*
G01*
X0335286Y0277251D01*
G75*
G02*
X0334794Y0277743I0000000J0000492D01*
G01*
X0334794Y0277743D01*
G75*
G02*
X0335286Y0278236I0000492J0000000D01*
G01*
G37*
G36*
G01*
X0335286Y0280834D02*
X0336270Y0280834D01*
G75*
G02*
X0336762Y0280342I0000000J-000492D01*
G01*
X0336762Y0280342D01*
G75*
G02*
X0336270Y0279850I-000492J0000000D01*
G01*
X0335286Y0279850D01*
G75*
G02*
X0334794Y0280342I0000000J0000492D01*
G01*
X0334794Y0280342D01*
G75*
G02*
X0335286Y0280834I0000492J0000000D01*
G01*
G37*
G36*
G01*
X0335286Y0293826D02*
X0336270Y0293826D01*
G75*
G02*
X0336762Y0293334I0000000J-000492D01*
G01*
X0336762Y0293334D01*
G75*
G02*
X0336270Y0292842I-000492J0000000D01*
G01*
X0335286Y0292842D01*
G75*
G02*
X0334794Y0293334I0000000J0000492D01*
G01*
X0334794Y0293334D01*
G75*
G02*
X0335286Y0293826I0000492J0000000D01*
G01*
G37*
G36*
G01*
X0448554Y0240681D02*
X0448554Y0241665D01*
G75*
G02*
X0449046Y0242158I0000492J0000000D01*
G01*
X0449046Y0242158D01*
G75*
G02*
X0449538Y0241665I0000000J-000492D01*
G01*
X0449538Y0240681D01*
G75*
G02*
X0449046Y0240189I-000492J0000000D01*
G01*
X0449046Y0240189D01*
G75*
G02*
X0448554Y0240681I0000000J0000492D01*
G01*
G37*
G36*
G01*
X0445207Y0241665D02*
X0445207Y0240681D01*
G75*
G02*
X0444715Y0240189I-000492J0000000D01*
G01*
X0444715Y0240189D01*
G75*
G02*
X0444223Y0240681I0000000J0000492D01*
G01*
X0444223Y0241665D01*
G75*
G02*
X0444715Y0242158I0000492J0000000D01*
G01*
X0444715Y0242158D01*
G75*
G02*
X0445207Y0241665I0000000J-000492D01*
G01*
G37*
G36*
G01*
X0440877Y0241665D02*
X0440877Y0240681D01*
G75*
G02*
X0440384Y0240189I-000492J0000000D01*
G01*
X0440384Y0240189D01*
G75*
G02*
X0439892Y0240681I0000000J0000492D01*
G01*
X0439892Y0241665D01*
G75*
G02*
X0440384Y0242158I0000492J0000000D01*
G01*
X0440384Y0242158D01*
G75*
G02*
X0440877Y0241665I0000000J-000492D01*
G01*
G37*
G36*
G01*
X0436546Y0241665D02*
X0436546Y0240681D01*
G75*
G02*
X0436054Y0240189I-000492J0000000D01*
G01*
X0436054Y0240189D01*
G75*
G02*
X0435562Y0240681I0000000J0000492D01*
G01*
X0435562Y0241665D01*
G75*
G02*
X0436054Y0242158I0000492J0000000D01*
G01*
X0436054Y0242158D01*
G75*
G02*
X0436546Y0241665I0000000J-000492D01*
G01*
G37*
G36*
G01*
X0432215Y0241665D02*
X0432215Y0240681D01*
G75*
G02*
X0431723Y0240189I-000492J0000000D01*
G01*
X0431723Y0240189D01*
G75*
G02*
X0431231Y0240681I0000000J0000492D01*
G01*
X0431231Y0241665D01*
G75*
G02*
X0431723Y0242158I0000492J0000000D01*
G01*
X0431723Y0242158D01*
G75*
G02*
X0432215Y0241665I0000000J-000492D01*
G01*
G37*
G36*
G01*
X0427884Y0241665D02*
X0427884Y0240681D01*
G75*
G02*
X0427392Y0240189I-000492J0000000D01*
G01*
X0427392Y0240189D01*
G75*
G02*
X0426900Y0240681I0000000J0000492D01*
G01*
X0426900Y0241665D01*
G75*
G02*
X0427392Y0242158I0000492J0000000D01*
G01*
X0427392Y0242158D01*
G75*
G02*
X0427884Y0241665I0000000J-000492D01*
G01*
G37*
G36*
G01*
X0423554Y0241665D02*
X0423554Y0240681D01*
G75*
G02*
X0423062Y0240189I-000492J0000000D01*
G01*
X0423062Y0240189D01*
G75*
G02*
X0422569Y0240681I0000000J0000492D01*
G01*
X0422569Y0241665D01*
G75*
G02*
X0423062Y0242158I0000492J0000000D01*
G01*
X0423062Y0242158D01*
G75*
G02*
X0423554Y0241665I0000000J-000492D01*
G01*
G37*
G36*
G01*
X0419223Y0241665D02*
X0419223Y0240681D01*
G75*
G02*
X0418731Y0240189I-000492J0000000D01*
G01*
X0418731Y0240189D01*
G75*
G02*
X0418239Y0240681I0000000J0000492D01*
G01*
X0418239Y0241665D01*
G75*
G02*
X0418731Y0242158I0000492J0000000D01*
G01*
X0418731Y0242158D01*
G75*
G02*
X0419223Y0241665I0000000J-000492D01*
G01*
G37*
G36*
G01*
X0414892Y0241665D02*
X0414892Y0240681D01*
G75*
G02*
X0414400Y0240189I-000492J0000000D01*
G01*
X0414400Y0240189D01*
G75*
G02*
X0413908Y0240681I0000000J0000492D01*
G01*
X0413908Y0241665D01*
G75*
G02*
X0414400Y0242158I0000492J0000000D01*
G01*
X0414400Y0242158D01*
G75*
G02*
X0414892Y0241665I0000000J-000492D01*
G01*
G37*
G36*
G01*
X0410562Y0241665D02*
X0410562Y0240681D01*
G75*
G02*
X0410069Y0240189I-000492J0000000D01*
G01*
X0410069Y0240189D01*
G75*
G02*
X0409577Y0240681I0000000J0000492D01*
G01*
X0409577Y0241665D01*
G75*
G02*
X0410069Y0242158I0000492J0000000D01*
G01*
X0410069Y0242158D01*
G75*
G02*
X0410562Y0241665I0000000J-000492D01*
G01*
G37*
G36*
G01*
X0406231Y0241665D02*
X0406231Y0240681D01*
G75*
G02*
X0405739Y0240189I-000492J0000000D01*
G01*
X0405739Y0240189D01*
G75*
G02*
X0405247Y0240681I0000000J0000492D01*
G01*
X0405247Y0241665D01*
G75*
G02*
X0405739Y0242158I0000492J0000000D01*
G01*
X0405739Y0242158D01*
G75*
G02*
X0406231Y0241665I0000000J-000492D01*
G01*
G37*
G36*
G01*
X0401900Y0241665D02*
X0401900Y0240681D01*
G75*
G02*
X0401408Y0240189I-000492J0000000D01*
G01*
X0401408Y0240189D01*
G75*
G02*
X0400916Y0240681I0000000J0000492D01*
G01*
X0400916Y0241665D01*
G75*
G02*
X0401408Y0242158I0000492J0000000D01*
G01*
X0401408Y0242158D01*
G75*
G02*
X0401900Y0241665I0000000J-000492D01*
G01*
G37*
G36*
G01*
X0397570Y0241665D02*
X0397570Y0240681D01*
G75*
G02*
X0397077Y0240189I-000492J0000000D01*
G01*
X0397077Y0240189D01*
G75*
G02*
X0396585Y0240681I0000000J0000492D01*
G01*
X0396585Y0241665D01*
G75*
G02*
X0397077Y0242158I0000492J0000000D01*
G01*
X0397077Y0242158D01*
G75*
G02*
X0397570Y0241665I0000000J-000492D01*
G01*
G37*
G36*
G01*
X0393239Y0241665D02*
X0393239Y0240681D01*
G75*
G02*
X0392747Y0240189I-000492J0000000D01*
G01*
X0392747Y0240189D01*
G75*
G02*
X0392255Y0240681I0000000J0000492D01*
G01*
X0392255Y0241665D01*
G75*
G02*
X0392747Y0242158I0000492J0000000D01*
G01*
X0392747Y0242158D01*
G75*
G02*
X0393239Y0241665I0000000J-000492D01*
G01*
G37*
G36*
G01*
X0388908Y0241665D02*
X0388908Y0240681D01*
G75*
G02*
X0388416Y0240189I-000492J0000000D01*
G01*
X0388416Y0240189D01*
G75*
G02*
X0387924Y0240681I0000000J0000492D01*
G01*
X0387924Y0241665D01*
G75*
G02*
X0388416Y0242158I0000492J0000000D01*
G01*
X0388416Y0242158D01*
G75*
G02*
X0388908Y0241665I0000000J-000492D01*
G01*
G37*
G36*
G01*
X0384577Y0241665D02*
X0384577Y0240681D01*
G75*
G02*
X0384085Y0240189I-000492J0000000D01*
G01*
X0384085Y0240189D01*
G75*
G02*
X0383593Y0240681I0000000J0000492D01*
G01*
X0383593Y0241665D01*
G75*
G02*
X0384085Y0242158I0000492J0000000D01*
G01*
X0384085Y0242158D01*
G75*
G02*
X0384577Y0241665I0000000J-000492D01*
G01*
G37*
G36*
G01*
X0380247Y0241665D02*
X0380247Y0240681D01*
G75*
G02*
X0379755Y0240189I-000492J0000000D01*
G01*
X0379755Y0240189D01*
G75*
G02*
X0379262Y0240681I0000000J0000492D01*
G01*
X0379262Y0241665D01*
G75*
G02*
X0379755Y0242158I0000492J0000000D01*
G01*
X0379755Y0242158D01*
G75*
G02*
X0380247Y0241665I0000000J-000492D01*
G01*
G37*
G36*
G01*
X0375916Y0241665D02*
X0375916Y0240681D01*
G75*
G02*
X0375424Y0240189I-000492J0000000D01*
G01*
X0375424Y0240189D01*
G75*
G02*
X0374932Y0240681I0000000J0000492D01*
G01*
X0374932Y0241665D01*
G75*
G02*
X0375424Y0242158I0000492J0000000D01*
G01*
X0375424Y0242158D01*
G75*
G02*
X0375916Y0241665I0000000J-000492D01*
G01*
G37*
G36*
G01*
X0371585Y0241665D02*
X0371585Y0240681D01*
G75*
G02*
X0371093Y0240189I-000492J0000000D01*
G01*
X0371093Y0240189D01*
G75*
G02*
X0370601Y0240681I0000000J0000492D01*
G01*
X0370601Y0241665D01*
G75*
G02*
X0371093Y0242158I0000492J0000000D01*
G01*
X0371093Y0242158D01*
G75*
G02*
X0371585Y0241665I0000000J-000492D01*
G01*
G37*
G36*
G01*
X0367255Y0241665D02*
X0367255Y0240681D01*
G75*
G02*
X0366762Y0240189I-000492J0000000D01*
G01*
X0366762Y0240189D01*
G75*
G02*
X0366270Y0240681I0000000J0000492D01*
G01*
X0366270Y0241665D01*
G75*
G02*
X0366762Y0242158I0000492J0000000D01*
G01*
X0366762Y0242158D01*
G75*
G02*
X0367255Y0241665I0000000J-000492D01*
G01*
G37*
G36*
G01*
X0362924Y0241665D02*
X0362924Y0240681D01*
G75*
G02*
X0362432Y0240189I-000492J0000000D01*
G01*
X0362432Y0240189D01*
G75*
G02*
X0361940Y0240681I0000000J0000492D01*
G01*
X0361940Y0241665D01*
G75*
G02*
X0362432Y0242158I0000492J0000000D01*
G01*
X0362432Y0242158D01*
G75*
G02*
X0362924Y0241665I0000000J-000492D01*
G01*
G37*
G36*
G01*
X0358593Y0241665D02*
X0358593Y0240681D01*
G75*
G02*
X0358101Y0240189I-000492J0000000D01*
G01*
X0358101Y0240189D01*
G75*
G02*
X0357609Y0240681I0000000J0000492D01*
G01*
X0357609Y0241665D01*
G75*
G02*
X0358101Y0242158I0000492J0000000D01*
G01*
X0358101Y0242158D01*
G75*
G02*
X0358593Y0241665I0000000J-000492D01*
G01*
G37*
G36*
G01*
X0354263Y0241665D02*
X0354263Y0240681D01*
G75*
G02*
X0353770Y0240189I-000492J0000000D01*
G01*
X0353770Y0240189D01*
G75*
G02*
X0353278Y0240681I0000000J0000492D01*
G01*
X0353278Y0241665D01*
G75*
G02*
X0353770Y0242158I0000492J0000000D01*
G01*
X0353770Y0242158D01*
G75*
G02*
X0354263Y0241665I0000000J-000492D01*
G01*
G37*
G36*
G01*
X0349932Y0241665D02*
X0349932Y0240681D01*
G75*
G02*
X0349440Y0240189I-000492J0000000D01*
G01*
X0349440Y0240189D01*
G75*
G02*
X0348948Y0240681I0000000J0000492D01*
G01*
X0348948Y0241665D01*
G75*
G02*
X0349440Y0242158I0000492J0000000D01*
G01*
X0349440Y0242158D01*
G75*
G02*
X0349932Y0241665I0000000J-000492D01*
G01*
G37*
G36*
G01*
X0345601Y0241665D02*
X0345601Y0240681D01*
G75*
G02*
X0345109Y0240189I-000492J0000000D01*
G01*
X0345109Y0240189D01*
G75*
G02*
X0344617Y0240681I0000000J0000492D01*
G01*
X0344617Y0241665D01*
G75*
G02*
X0345109Y0242158I0000492J0000000D01*
G01*
X0345109Y0242158D01*
G75*
G02*
X0345601Y0241665I0000000J-000492D01*
G01*
G37*
G36*
G01*
X0341270Y0241665D02*
X0341270Y0240681D01*
G75*
G02*
X0340778Y0240189I-000492J0000000D01*
G01*
X0340778Y0240189D01*
G75*
G02*
X0340286Y0240681I0000000J0000492D01*
G01*
X0340286Y0241665D01*
G75*
G02*
X0340778Y0242158I0000492J0000000D01*
G01*
X0340778Y0242158D01*
G75*
G02*
X0341270Y0241665I0000000J-000492D01*
G01*
G37*
G36*
G01*
X0342258Y0296634D02*
X0342258Y0295650D01*
G75*
G02*
X0341766Y0295158I-000492J0000000D01*
G01*
X0341766Y0295158D01*
G75*
G02*
X0341274Y0295650I0000000J0000492D01*
G01*
X0341274Y0296634D01*
G75*
G02*
X0341766Y0297126I0000492J0000000D01*
G01*
X0341766Y0297126D01*
G75*
G02*
X0342258Y0296634I0000000J-000492D01*
G01*
G37*
G36*
G01*
X0344857Y0296634D02*
X0344857Y0295650D01*
G75*
G02*
X0344365Y0295158I-000492J0000000D01*
G01*
X0344365Y0295158D01*
G75*
G02*
X0343873Y0295650I0000000J0000492D01*
G01*
X0343873Y0296634D01*
G75*
G02*
X0344365Y0297126I0000492J0000000D01*
G01*
X0344365Y0297126D01*
G75*
G02*
X0344857Y0296634I0000000J-000492D01*
G01*
G37*
G36*
G01*
X0347455Y0296634D02*
X0347455Y0295650D01*
G75*
G02*
X0346963Y0295158I-000492J0000000D01*
G01*
X0346963Y0295158D01*
G75*
G02*
X0346471Y0295650I0000000J0000492D01*
G01*
X0346471Y0296634D01*
G75*
G02*
X0346963Y0297126I0000492J0000000D01*
G01*
X0346963Y0297126D01*
G75*
G02*
X0347455Y0296634I0000000J-000492D01*
G01*
G37*
G36*
G01*
X0350054Y0296634D02*
X0350054Y0295650D01*
G75*
G02*
X0349562Y0295158I-000492J0000000D01*
G01*
X0349562Y0295158D01*
G75*
G02*
X0349069Y0295650I0000000J0000492D01*
G01*
X0349069Y0296634D01*
G75*
G02*
X0349562Y0297126I0000492J0000000D01*
G01*
X0349562Y0297126D01*
G75*
G02*
X0350054Y0296634I0000000J-000492D01*
G01*
G37*
G36*
G01*
X0352652Y0296634D02*
X0352652Y0295650D01*
G75*
G02*
X0352160Y0295158I-000492J0000000D01*
G01*
X0352160Y0295158D01*
G75*
G02*
X0351668Y0295650I0000000J0000492D01*
G01*
X0351668Y0296634D01*
G75*
G02*
X0352160Y0297126I0000492J0000000D01*
G01*
X0352160Y0297126D01*
G75*
G02*
X0352652Y0296634I0000000J-000492D01*
G01*
G37*
G36*
G01*
X0355251Y0296634D02*
X0355251Y0295650D01*
G75*
G02*
X0354758Y0295158I-000492J0000000D01*
G01*
X0354758Y0295158D01*
G75*
G02*
X0354266Y0295650I0000000J0000492D01*
G01*
X0354266Y0296634D01*
G75*
G02*
X0354758Y0297126I0000492J0000000D01*
G01*
X0354758Y0297126D01*
G75*
G02*
X0355251Y0296634I0000000J-000492D01*
G01*
G37*
G36*
G01*
X0361554Y0296634D02*
X0361554Y0295650D01*
G75*
G02*
X0361062Y0295158I-000492J0000000D01*
G01*
X0361062Y0295158D01*
G75*
G02*
X0360569Y0295650I0000000J0000492D01*
G01*
X0360569Y0296634D01*
G75*
G02*
X0361062Y0297126I0000492J0000000D01*
G01*
X0361062Y0297126D01*
G75*
G02*
X0361554Y0296634I0000000J-000492D01*
G01*
G37*
G36*
G01*
X0364152Y0296634D02*
X0364152Y0295650D01*
G75*
G02*
X0363660Y0295158I-000492J0000000D01*
G01*
X0363660Y0295158D01*
G75*
G02*
X0363168Y0295650I0000000J0000492D01*
G01*
X0363168Y0296634D01*
G75*
G02*
X0363660Y0297126I0000492J0000000D01*
G01*
X0363660Y0297126D01*
G75*
G02*
X0364152Y0296634I0000000J-000492D01*
G01*
G37*
G36*
G01*
X0366751Y0296634D02*
X0366751Y0295650D01*
G75*
G02*
X0366258Y0295158I-000492J0000000D01*
G01*
X0366258Y0295158D01*
G75*
G02*
X0365766Y0295650I0000000J0000492D01*
G01*
X0365766Y0296634D01*
G75*
G02*
X0366258Y0297126I0000492J0000000D01*
G01*
X0366258Y0297126D01*
G75*
G02*
X0366751Y0296634I0000000J-000492D01*
G01*
G37*
G36*
G01*
X0371164Y0296634D02*
X0371164Y0295650D01*
G75*
G02*
X0370671Y0295158I-000492J0000000D01*
G01*
X0370671Y0295158D01*
G75*
G02*
X0370179Y0295650I0000000J0000492D01*
G01*
X0370179Y0296634D01*
G75*
G02*
X0370671Y0297126I0000492J0000000D01*
G01*
X0370671Y0297126D01*
G75*
G02*
X0371164Y0296634I0000000J-000492D01*
G01*
G37*
G36*
G01*
X0373762Y0296634D02*
X0373762Y0295650D01*
G75*
G02*
X0373270Y0295158I-000492J0000000D01*
G01*
X0373270Y0295158D01*
G75*
G02*
X0372778Y0295650I0000000J0000492D01*
G01*
X0372778Y0296634D01*
G75*
G02*
X0373270Y0297126I0000492J0000000D01*
G01*
X0373270Y0297126D01*
G75*
G02*
X0373762Y0296634I0000000J-000492D01*
G01*
G37*
G36*
G01*
X0376360Y0296634D02*
X0376360Y0295650D01*
G75*
G02*
X0375868Y0295158I-000492J0000000D01*
G01*
X0375868Y0295158D01*
G75*
G02*
X0375376Y0295650I0000000J0000492D01*
G01*
X0375376Y0296634D01*
G75*
G02*
X0375868Y0297126I0000492J0000000D01*
G01*
X0375868Y0297126D01*
G75*
G02*
X0376360Y0296634I0000000J-000492D01*
G01*
G37*
G36*
G01*
X0378959Y0296634D02*
X0378959Y0295650D01*
G75*
G02*
X0378467Y0295158I-000492J0000000D01*
G01*
X0378467Y0295158D01*
G75*
G02*
X0377975Y0295650I0000000J0000492D01*
G01*
X0377975Y0296634D01*
G75*
G02*
X0378467Y0297126I0000492J0000000D01*
G01*
X0378467Y0297126D01*
G75*
G02*
X0378959Y0296634I0000000J-000492D01*
G01*
G37*
G36*
G01*
X0392054Y0296634D02*
X0392054Y0295650D01*
G75*
G02*
X0391562Y0295158I-000492J0000000D01*
G01*
X0391562Y0295158D01*
G75*
G02*
X0391069Y0295650I0000000J0000492D01*
G01*
X0391069Y0296634D01*
G75*
G02*
X0391562Y0297126I0000492J0000000D01*
G01*
X0391562Y0297126D01*
G75*
G02*
X0392054Y0296634I0000000J-000492D01*
G01*
G37*
G36*
G01*
X0394652Y0296634D02*
X0394652Y0295650D01*
G75*
G02*
X0394160Y0295158I-000492J0000000D01*
G01*
X0394160Y0295158D01*
G75*
G02*
X0393668Y0295650I0000000J0000492D01*
G01*
X0393668Y0296634D01*
G75*
G02*
X0394160Y0297126I0000492J0000000D01*
G01*
X0394160Y0297126D01*
G75*
G02*
X0394652Y0296634I0000000J-000492D01*
G01*
G37*
G36*
G01*
X0397251Y0296634D02*
X0397251Y0295650D01*
G75*
G02*
X0396758Y0295158I-000492J0000000D01*
G01*
X0396758Y0295158D01*
G75*
G02*
X0396266Y0295650I0000000J0000492D01*
G01*
X0396266Y0296634D01*
G75*
G02*
X0396758Y0297126I0000492J0000000D01*
G01*
X0396758Y0297126D01*
G75*
G02*
X0397251Y0296634I0000000J-000492D01*
G01*
G37*
G36*
G01*
X0407668Y0296634D02*
X0407668Y0295650D01*
G75*
G02*
X0407176Y0295158I-000492J0000000D01*
G01*
X0407176Y0295158D01*
G75*
G02*
X0406684Y0295650I0000000J0000492D01*
G01*
X0406684Y0296634D01*
G75*
G02*
X0407176Y0297126I0000492J0000000D01*
G01*
X0407176Y0297126D01*
G75*
G02*
X0407668Y0296634I0000000J-000492D01*
G01*
G37*
G36*
G01*
X0410266Y0296634D02*
X0410266Y0295650D01*
G75*
G02*
X0409774Y0295158I-000492J0000000D01*
G01*
X0409774Y0295158D01*
G75*
G02*
X0409282Y0295650I0000000J0000492D01*
G01*
X0409282Y0296634D01*
G75*
G02*
X0409774Y0297126I0000492J0000000D01*
G01*
X0409774Y0297126D01*
G75*
G02*
X0410266Y0296634I0000000J-000492D01*
G01*
G37*
G36*
G01*
X0412865Y0296634D02*
X0412865Y0295650D01*
G75*
G02*
X0412373Y0295158I-000492J0000000D01*
G01*
X0412373Y0295158D01*
G75*
G02*
X0411880Y0295650I0000000J0000492D01*
G01*
X0411880Y0296634D01*
G75*
G02*
X0412373Y0297126I0000492J0000000D01*
G01*
X0412373Y0297126D01*
G75*
G02*
X0412865Y0296634I0000000J-000492D01*
G01*
G37*
G36*
G01*
X0415463Y0296634D02*
X0415463Y0295650D01*
G75*
G02*
X0414971Y0295158I-000492J0000000D01*
G01*
X0414971Y0295158D01*
G75*
G02*
X0414479Y0295650I0000000J0000492D01*
G01*
X0414479Y0296634D01*
G75*
G02*
X0414971Y0297126I0000492J0000000D01*
G01*
X0414971Y0297126D01*
G75*
G02*
X0415463Y0296634I0000000J-000492D01*
G01*
G37*
G36*
G01*
X0418062Y0296634D02*
X0418062Y0295650D01*
G75*
G02*
X0417569Y0295158I-000492J0000000D01*
G01*
X0417569Y0295158D01*
G75*
G02*
X0417077Y0295650I0000000J0000492D01*
G01*
X0417077Y0296634D01*
G75*
G02*
X0417569Y0297126I0000492J0000000D01*
G01*
X0417569Y0297126D01*
G75*
G02*
X0418062Y0296634I0000000J-000492D01*
G01*
G37*
G36*
G01*
X0420660Y0296634D02*
X0420660Y0295650D01*
G75*
G02*
X0420168Y0295158I-000492J0000000D01*
G01*
X0420168Y0295158D01*
G75*
G02*
X0419676Y0295650I0000000J0000492D01*
G01*
X0419676Y0296634D01*
G75*
G02*
X0420168Y0297126I0000492J0000000D01*
G01*
X0420168Y0297126D01*
G75*
G02*
X0420660Y0296634I0000000J-000492D01*
G01*
G37*
G36*
G01*
X0423258Y0296634D02*
X0423258Y0295650D01*
G75*
G02*
X0422766Y0295158I-000492J0000000D01*
G01*
X0422766Y0295158D01*
G75*
G02*
X0422274Y0295650I0000000J0000492D01*
G01*
X0422274Y0296634D01*
G75*
G02*
X0422766Y0297126I0000492J0000000D01*
G01*
X0422766Y0297126D01*
G75*
G02*
X0423258Y0296634I0000000J-000492D01*
G01*
G37*
G36*
G01*
X0425857Y0296634D02*
X0425857Y0295650D01*
G75*
G02*
X0425365Y0295158I-000492J0000000D01*
G01*
X0425365Y0295158D01*
G75*
G02*
X0424873Y0295650I0000000J0000492D01*
G01*
X0424873Y0296634D01*
G75*
G02*
X0425365Y0297126I0000492J0000000D01*
G01*
X0425365Y0297126D01*
G75*
G02*
X0425857Y0296634I0000000J-000492D01*
G01*
G37*
G36*
G01*
X0428455Y0296634D02*
X0428455Y0295650D01*
G75*
G02*
X0427963Y0295158I-000492J0000000D01*
G01*
X0427963Y0295158D01*
G75*
G02*
X0427471Y0295650I0000000J0000492D01*
G01*
X0427471Y0296634D01*
G75*
G02*
X0427963Y0297126I0000492J0000000D01*
G01*
X0427963Y0297126D01*
G75*
G02*
X0428455Y0296634I0000000J-000492D01*
G01*
G37*
G36*
G01*
X0431054Y0296634D02*
X0431054Y0295650D01*
G75*
G02*
X0430562Y0295158I-000492J0000000D01*
G01*
X0430562Y0295158D01*
G75*
G02*
X0430069Y0295650I0000000J0000492D01*
G01*
X0430069Y0296634D01*
G75*
G02*
X0430562Y0297126I0000492J0000000D01*
G01*
X0430562Y0297126D01*
G75*
G02*
X0431054Y0296634I0000000J-000492D01*
G01*
G37*
D80*
X0064729Y0495569D03*
X0064729Y0510569D03*
X0498130Y0500177D03*
X0498130Y0515177D03*
G36*
G01*
X0275360Y0103401D02*
X0276345Y0103401D01*
G75*
G02*
X0276837Y0102909I0000000J-000492D01*
G01*
X0276837Y0102909D01*
G75*
G02*
X0276345Y0102417I-000492J0000000D01*
G01*
X0275360Y0102417D01*
G75*
G02*
X0274868Y0102909I0000000J0000492D01*
G01*
X0274868Y0102909D01*
G75*
G02*
X0275360Y0103401I0000492J0000000D01*
G01*
G37*
G36*
G01*
X0276345Y0105015D02*
X0275360Y0105015D01*
G75*
G02*
X0274868Y0105507I0000000J0000492D01*
G01*
X0274868Y0105507D01*
G75*
G02*
X0275360Y0105999I0000492J0000000D01*
G01*
X0276345Y0105999D01*
G75*
G02*
X0276837Y0105507I0000000J-000492D01*
G01*
X0276837Y0105507D01*
G75*
G02*
X0276345Y0105015I-000492J0000000D01*
G01*
G37*
G36*
G01*
X0276345Y0107614D02*
X0275360Y0107614D01*
G75*
G02*
X0274868Y0108106I0000000J0000492D01*
G01*
X0274868Y0108106D01*
G75*
G02*
X0275360Y0108598I0000492J0000000D01*
G01*
X0276345Y0108598D01*
G75*
G02*
X0276837Y0108106I0000000J-000492D01*
G01*
X0276837Y0108106D01*
G75*
G02*
X0276345Y0107614I-000492J0000000D01*
G01*
G37*
G36*
G01*
X0276345Y0110212D02*
X0275360Y0110212D01*
G75*
G02*
X0274868Y0110704I0000000J0000492D01*
G01*
X0274868Y0110704D01*
G75*
G02*
X0275360Y0111196I0000492J0000000D01*
G01*
X0276345Y0111196D01*
G75*
G02*
X0276837Y0110704I0000000J-000492D01*
G01*
X0276837Y0110704D01*
G75*
G02*
X0276345Y0110212I-000492J0000000D01*
G01*
G37*
G36*
G01*
X0276345Y0112810D02*
X0275360Y0112810D01*
G75*
G02*
X0274868Y0113303I0000000J0000492D01*
G01*
X0274868Y0113303D01*
G75*
G02*
X0275360Y0113795I0000492J0000000D01*
G01*
X0276345Y0113795D01*
G75*
G02*
X0276837Y0113303I0000000J-000492D01*
G01*
X0276837Y0113303D01*
G75*
G02*
X0276345Y0112810I-000492J0000000D01*
G01*
G37*
G36*
G01*
X0276345Y0125803D02*
X0275360Y0125803D01*
G75*
G02*
X0274868Y0126295I0000000J0000492D01*
G01*
X0274868Y0126295D01*
G75*
G02*
X0275360Y0126787I0000492J0000000D01*
G01*
X0276345Y0126787D01*
G75*
G02*
X0276837Y0126295I0000000J-000492D01*
G01*
X0276837Y0126295D01*
G75*
G02*
X0276345Y0125803I-000492J0000000D01*
G01*
G37*
G36*
G01*
X0276345Y0128401D02*
X0275360Y0128401D01*
G75*
G02*
X0274868Y0128893I0000000J0000492D01*
G01*
X0274868Y0128893D01*
G75*
G02*
X0275360Y0129385I0000492J0000000D01*
G01*
X0276345Y0129385D01*
G75*
G02*
X0276837Y0128893I0000000J-000492D01*
G01*
X0276837Y0128893D01*
G75*
G02*
X0276345Y0128401I-000492J0000000D01*
G01*
G37*
G36*
G01*
X0276345Y0130999D02*
X0275360Y0130999D01*
G75*
G02*
X0274868Y0131492I0000000J0000492D01*
G01*
X0274868Y0131492D01*
G75*
G02*
X0275360Y0131984I0000492J0000000D01*
G01*
X0276345Y0131984D01*
G75*
G02*
X0276837Y0131492I0000000J-000492D01*
G01*
X0276837Y0131492D01*
G75*
G02*
X0276345Y0130999I-000492J0000000D01*
G01*
G37*
G36*
G01*
X0276345Y0133598D02*
X0275360Y0133598D01*
G75*
G02*
X0274868Y0134090I0000000J0000492D01*
G01*
X0274868Y0134090D01*
G75*
G02*
X0275360Y0134582I0000492J0000000D01*
G01*
X0276345Y0134582D01*
G75*
G02*
X0276837Y0134090I0000000J-000492D01*
G01*
X0276837Y0134090D01*
G75*
G02*
X0276345Y0133598I-000492J0000000D01*
G01*
G37*
G36*
G01*
X0276345Y0136196D02*
X0275360Y0136196D01*
G75*
G02*
X0274868Y0136688I0000000J0000492D01*
G01*
X0274868Y0136688D01*
G75*
G02*
X0275360Y0137181I0000492J0000000D01*
G01*
X0276345Y0137181D01*
G75*
G02*
X0276837Y0136688I0000000J-000492D01*
G01*
X0276837Y0136688D01*
G75*
G02*
X0276345Y0136196I-000492J0000000D01*
G01*
G37*
G36*
G01*
X0276345Y0138795D02*
X0275360Y0138795D01*
G75*
G02*
X0274868Y0139287I0000000J0000492D01*
G01*
X0274868Y0139287D01*
G75*
G02*
X0275360Y0139779I0000492J0000000D01*
G01*
X0276345Y0139779D01*
G75*
G02*
X0276837Y0139287I0000000J-000492D01*
G01*
X0276837Y0139287D01*
G75*
G02*
X0276345Y0138795I-000492J0000000D01*
G01*
G37*
G36*
G01*
X0276345Y0141393D02*
X0275360Y0141393D01*
G75*
G02*
X0274868Y0141885I0000000J0000492D01*
G01*
X0274868Y0141885D01*
G75*
G02*
X0275360Y0142377I0000492J0000000D01*
G01*
X0276345Y0142377D01*
G75*
G02*
X0276837Y0141885I0000000J-000492D01*
G01*
X0276837Y0141885D01*
G75*
G02*
X0276345Y0141393I-000492J0000000D01*
G01*
G37*
G36*
G01*
X0276345Y0143992D02*
X0275360Y0143992D01*
G75*
G02*
X0274868Y0144484I0000000J0000492D01*
G01*
X0274868Y0144484D01*
G75*
G02*
X0275360Y0144976I0000492J0000000D01*
G01*
X0276345Y0144976D01*
G75*
G02*
X0276837Y0144484I0000000J-000492D01*
G01*
X0276837Y0144484D01*
G75*
G02*
X0276345Y0143992I-000492J0000000D01*
G01*
G37*
G36*
G01*
X0276345Y0146590D02*
X0275360Y0146590D01*
G75*
G02*
X0274868Y0147082I0000000J0000492D01*
G01*
X0274868Y0147082D01*
G75*
G02*
X0275360Y0147574I0000492J0000000D01*
G01*
X0276345Y0147574D01*
G75*
G02*
X0276837Y0147082I0000000J-000492D01*
G01*
X0276837Y0147082D01*
G75*
G02*
X0276345Y0146590I-000492J0000000D01*
G01*
G37*
G36*
G01*
X0276345Y0149188D02*
X0275360Y0149188D01*
G75*
G02*
X0274868Y0149681I0000000J0000492D01*
G01*
X0274868Y0149681D01*
G75*
G02*
X0275360Y0150173I0000492J0000000D01*
G01*
X0276345Y0150173D01*
G75*
G02*
X0276837Y0149681I0000000J-000492D01*
G01*
X0276837Y0149681D01*
G75*
G02*
X0276345Y0149188I-000492J0000000D01*
G01*
G37*
G36*
G01*
X0276345Y0151787D02*
X0275360Y0151787D01*
G75*
G02*
X0274868Y0152279I0000000J0000492D01*
G01*
X0274868Y0152279D01*
G75*
G02*
X0275360Y0152771I0000492J0000000D01*
G01*
X0276345Y0152771D01*
G75*
G02*
X0276837Y0152279I0000000J-000492D01*
G01*
X0276837Y0152279D01*
G75*
G02*
X0276345Y0151787I-000492J0000000D01*
G01*
G37*
G36*
G01*
X0276345Y0154385D02*
X0275360Y0154385D01*
G75*
G02*
X0274868Y0154877I0000000J0000492D01*
G01*
X0274868Y0154877D01*
G75*
G02*
X0275360Y0155369I0000492J0000000D01*
G01*
X0276345Y0155369D01*
G75*
G02*
X0276837Y0154877I0000000J-000492D01*
G01*
X0276837Y0154877D01*
G75*
G02*
X0276345Y0154385I-000492J0000000D01*
G01*
G37*
G36*
G01*
X0276345Y0156984D02*
X0275360Y0156984D01*
G75*
G02*
X0274868Y0157476I0000000J0000492D01*
G01*
X0274868Y0157476D01*
G75*
G02*
X0275360Y0157968I0000492J0000000D01*
G01*
X0276345Y0157968D01*
G75*
G02*
X0276837Y0157476I0000000J-000492D01*
G01*
X0276837Y0157476D01*
G75*
G02*
X0276345Y0156984I-000492J0000000D01*
G01*
G37*
G36*
G01*
X0276345Y0159582D02*
X0275360Y0159582D01*
G75*
G02*
X0274868Y0160074I0000000J0000492D01*
G01*
X0274868Y0160074D01*
G75*
G02*
X0275360Y0160566I0000492J0000000D01*
G01*
X0276345Y0160566D01*
G75*
G02*
X0276837Y0160074I0000000J-000492D01*
G01*
X0276837Y0160074D01*
G75*
G02*
X0276345Y0159582I-000492J0000000D01*
G01*
G37*
G36*
G01*
X0276345Y0162181D02*
X0275360Y0162181D01*
G75*
G02*
X0274868Y0162673I0000000J0000492D01*
G01*
X0274868Y0162673D01*
G75*
G02*
X0275360Y0163165I0000492J0000000D01*
G01*
X0276345Y0163165D01*
G75*
G02*
X0276837Y0162673I0000000J-000492D01*
G01*
X0276837Y0162673D01*
G75*
G02*
X0276345Y0162181I-000492J0000000D01*
G01*
G37*
G36*
G01*
X0276345Y0164779D02*
X0275360Y0164779D01*
G75*
G02*
X0274868Y0165271I0000000J0000492D01*
G01*
X0274868Y0165271D01*
G75*
G02*
X0275360Y0165763I0000492J0000000D01*
G01*
X0276345Y0165763D01*
G75*
G02*
X0276837Y0165271I0000000J-000492D01*
G01*
X0276837Y0165271D01*
G75*
G02*
X0276345Y0164779I-000492J0000000D01*
G01*
G37*
G36*
G01*
X0276345Y0167377D02*
X0275360Y0167377D01*
G75*
G02*
X0274868Y0167869I0000000J0000492D01*
G01*
X0274868Y0167869D01*
G75*
G02*
X0275360Y0168362I0000492J0000000D01*
G01*
X0276345Y0168362D01*
G75*
G02*
X0276837Y0167869I0000000J-000492D01*
G01*
X0276837Y0167869D01*
G75*
G02*
X0276345Y0167377I-000492J0000000D01*
G01*
G37*
G36*
G01*
X0276345Y0169976D02*
X0275360Y0169976D01*
G75*
G02*
X0274868Y0170468I0000000J0000492D01*
G01*
X0274868Y0170468D01*
G75*
G02*
X0275360Y0170960I0000492J0000000D01*
G01*
X0276345Y0170960D01*
G75*
G02*
X0276837Y0170468I0000000J-000492D01*
G01*
X0276837Y0170468D01*
G75*
G02*
X0276345Y0169976I-000492J0000000D01*
G01*
G37*
G36*
G01*
X0276345Y0172574D02*
X0275360Y0172574D01*
G75*
G02*
X0274868Y0173066I0000000J0000492D01*
G01*
X0274868Y0173066D01*
G75*
G02*
X0275360Y0173558I0000492J0000000D01*
G01*
X0276345Y0173558D01*
G75*
G02*
X0276837Y0173066I0000000J-000492D01*
G01*
X0276837Y0173066D01*
G75*
G02*
X0276345Y0172574I-000492J0000000D01*
G01*
G37*
G36*
G01*
X0276345Y0175173D02*
X0275360Y0175173D01*
G75*
G02*
X0274868Y0175665I0000000J0000492D01*
G01*
X0274868Y0175665D01*
G75*
G02*
X0275360Y0176157I0000492J0000000D01*
G01*
X0276345Y0176157D01*
G75*
G02*
X0276837Y0175665I0000000J-000492D01*
G01*
X0276837Y0175665D01*
G75*
G02*
X0276345Y0175173I-000492J0000000D01*
G01*
G37*
G36*
G01*
X0276345Y0177771D02*
X0275360Y0177771D01*
G75*
G02*
X0274868Y0178263I0000000J0000492D01*
G01*
X0274868Y0178263D01*
G75*
G02*
X0275360Y0178755I0000492J0000000D01*
G01*
X0276345Y0178755D01*
G75*
G02*
X0276837Y0178263I0000000J-000492D01*
G01*
X0276837Y0178263D01*
G75*
G02*
X0276345Y0177771I-000492J0000000D01*
G01*
G37*
G36*
G01*
X0276345Y0180369D02*
X0275360Y0180369D01*
G75*
G02*
X0274868Y0180862I0000000J0000492D01*
G01*
X0274868Y0180862D01*
G75*
G02*
X0275360Y0181354I0000492J0000000D01*
G01*
X0276345Y0181354D01*
G75*
G02*
X0276837Y0180862I0000000J-000492D01*
G01*
X0276837Y0180862D01*
G75*
G02*
X0276345Y0180369I-000492J0000000D01*
G01*
G37*
G36*
G01*
X0276345Y0182968D02*
X0275360Y0182968D01*
G75*
G02*
X0274868Y0183460I0000000J0000492D01*
G01*
X0274868Y0183460D01*
G75*
G02*
X0275360Y0183952I0000492J0000000D01*
G01*
X0276345Y0183952D01*
G75*
G02*
X0276837Y0183460I0000000J-000492D01*
G01*
X0276837Y0183460D01*
G75*
G02*
X0276345Y0182968I-000492J0000000D01*
G01*
G37*
G36*
G01*
X0276345Y0185566D02*
X0275360Y0185566D01*
G75*
G02*
X0274868Y0186058I0000000J0000492D01*
G01*
X0274868Y0186058D01*
G75*
G02*
X0275360Y0186551I0000492J0000000D01*
G01*
X0276345Y0186551D01*
G75*
G02*
X0276837Y0186058I0000000J-000492D01*
G01*
X0276837Y0186058D01*
G75*
G02*
X0276345Y0185566I-000492J0000000D01*
G01*
G37*
G36*
G01*
X0276345Y0188165D02*
X0275360Y0188165D01*
G75*
G02*
X0274868Y0188657I0000000J0000492D01*
G01*
X0274868Y0188657D01*
G75*
G02*
X0275360Y0189149I0000492J0000000D01*
G01*
X0276345Y0189149D01*
G75*
G02*
X0276837Y0188657I0000000J-000492D01*
G01*
X0276837Y0188657D01*
G75*
G02*
X0276345Y0188165I-000492J0000000D01*
G01*
G37*
G36*
G01*
X0276345Y0190763D02*
X0275360Y0190763D01*
G75*
G02*
X0274868Y0191255I0000000J0000492D01*
G01*
X0274868Y0191255D01*
G75*
G02*
X0275360Y0191747I0000492J0000000D01*
G01*
X0276345Y0191747D01*
G75*
G02*
X0276837Y0191255I0000000J-000492D01*
G01*
X0276837Y0191255D01*
G75*
G02*
X0276345Y0190763I-000492J0000000D01*
G01*
G37*
G36*
G01*
X0276345Y0193362D02*
X0275360Y0193362D01*
G75*
G02*
X0274868Y0193854I0000000J0000492D01*
G01*
X0274868Y0193854D01*
G75*
G02*
X0275360Y0194346I0000492J0000000D01*
G01*
X0276345Y0194346D01*
G75*
G02*
X0276837Y0193854I0000000J-000492D01*
G01*
X0276837Y0193854D01*
G75*
G02*
X0276345Y0193362I-000492J0000000D01*
G01*
G37*
G36*
G01*
X0276345Y0195960D02*
X0275360Y0195960D01*
G75*
G02*
X0274868Y0196452I0000000J0000492D01*
G01*
X0274868Y0196452D01*
G75*
G02*
X0275360Y0196944I0000492J0000000D01*
G01*
X0276345Y0196944D01*
G75*
G02*
X0276837Y0196452I0000000J-000492D01*
G01*
X0276837Y0196452D01*
G75*
G02*
X0276345Y0195960I-000492J0000000D01*
G01*
G37*
G36*
G01*
X0276345Y0198558D02*
X0275360Y0198558D01*
G75*
G02*
X0274868Y0199051I0000000J0000492D01*
G01*
X0274868Y0199051D01*
G75*
G02*
X0275360Y0199543I0000492J0000000D01*
G01*
X0276345Y0199543D01*
G75*
G02*
X0276837Y0199051I0000000J-000492D01*
G01*
X0276837Y0199051D01*
G75*
G02*
X0276345Y0198558I-000492J0000000D01*
G01*
G37*
G36*
G01*
X0409010Y0086169D02*
X0409010Y0087153D01*
G75*
G02*
X0409502Y0087645I0000492J0000000D01*
G01*
X0409502Y0087645D01*
G75*
G02*
X0409994Y0087153I0000000J-000492D01*
G01*
X0409994Y0086169D01*
G75*
G02*
X0409502Y0085677I-000492J0000000D01*
G01*
X0409502Y0085677D01*
G75*
G02*
X0409010Y0086169I0000000J0000492D01*
G01*
G37*
G36*
G01*
X0404797Y0087153D02*
X0404797Y0086169D01*
G75*
G02*
X0404305Y0085677I-000492J0000000D01*
G01*
X0404305Y0085677D01*
G75*
G02*
X0403813Y0086169I0000000J0000492D01*
G01*
X0403813Y0087153D01*
G75*
G02*
X0404305Y0087645I0000492J0000000D01*
G01*
X0404305Y0087645D01*
G75*
G02*
X0404797Y0087153I0000000J-000492D01*
G01*
G37*
G36*
G01*
X0399601Y0087153D02*
X0399601Y0086169D01*
G75*
G02*
X0399108Y0085677I-000492J0000000D01*
G01*
X0399108Y0085677D01*
G75*
G02*
X0398616Y0086169I0000000J0000492D01*
G01*
X0398616Y0087153D01*
G75*
G02*
X0399108Y0087645I0000492J0000000D01*
G01*
X0399108Y0087645D01*
G75*
G02*
X0399601Y0087153I0000000J-000492D01*
G01*
G37*
G36*
G01*
X0396608Y0087153D02*
X0396608Y0086169D01*
G75*
G02*
X0396116Y0085677I-000492J0000000D01*
G01*
X0396116Y0085677D01*
G75*
G02*
X0395624Y0086169I0000000J0000492D01*
G01*
X0395624Y0087153D01*
G75*
G02*
X0396116Y0087645I0000492J0000000D01*
G01*
X0396116Y0087645D01*
G75*
G02*
X0396608Y0087153I0000000J-000492D01*
G01*
G37*
G36*
G01*
X0393990Y0087153D02*
X0393990Y0086169D01*
G75*
G02*
X0393498Y0085677I-000492J0000000D01*
G01*
X0393498Y0085677D01*
G75*
G02*
X0393006Y0086169I0000000J0000492D01*
G01*
X0393006Y0087153D01*
G75*
G02*
X0393498Y0087645I0000492J0000000D01*
G01*
X0393498Y0087645D01*
G75*
G02*
X0393990Y0087153I0000000J-000492D01*
G01*
G37*
G36*
G01*
X0391372Y0087153D02*
X0391372Y0086169D01*
G75*
G02*
X0390880Y0085677I-000492J0000000D01*
G01*
X0390880Y0085677D01*
G75*
G02*
X0390388Y0086169I0000000J0000492D01*
G01*
X0390388Y0087153D01*
G75*
G02*
X0390880Y0087645I0000492J0000000D01*
G01*
X0390880Y0087645D01*
G75*
G02*
X0391372Y0087153I0000000J-000492D01*
G01*
G37*
G36*
G01*
X0388754Y0087153D02*
X0388754Y0086169D01*
G75*
G02*
X0388262Y0085677I-000492J0000000D01*
G01*
X0388262Y0085677D01*
G75*
G02*
X0387770Y0086169I0000000J0000492D01*
G01*
X0387770Y0087153D01*
G75*
G02*
X0388262Y0087645I0000492J0000000D01*
G01*
X0388262Y0087645D01*
G75*
G02*
X0388754Y0087153I0000000J-000492D01*
G01*
G37*
G36*
G01*
X0385703Y0087153D02*
X0385703Y0086169D01*
G75*
G02*
X0385211Y0085677I-000492J0000000D01*
G01*
X0385211Y0085677D01*
G75*
G02*
X0384719Y0086169I0000000J0000492D01*
G01*
X0384719Y0087153D01*
G75*
G02*
X0385211Y0087645I0000492J0000000D01*
G01*
X0385211Y0087645D01*
G75*
G02*
X0385703Y0087153I0000000J-000492D01*
G01*
G37*
G36*
G01*
X0381372Y0087153D02*
X0381372Y0086169D01*
G75*
G02*
X0380880Y0085677I-000492J0000000D01*
G01*
X0380880Y0085677D01*
G75*
G02*
X0380388Y0086169I0000000J0000492D01*
G01*
X0380388Y0087153D01*
G75*
G02*
X0380880Y0087645I0000492J0000000D01*
G01*
X0380880Y0087645D01*
G75*
G02*
X0381372Y0087153I0000000J-000492D01*
G01*
G37*
G36*
G01*
X0377042Y0087153D02*
X0377042Y0086169D01*
G75*
G02*
X0376549Y0085677I-000492J0000000D01*
G01*
X0376549Y0085677D01*
G75*
G02*
X0376057Y0086169I0000000J0000492D01*
G01*
X0376057Y0087153D01*
G75*
G02*
X0376549Y0087645I0000492J0000000D01*
G01*
X0376549Y0087645D01*
G75*
G02*
X0377042Y0087153I0000000J-000492D01*
G01*
G37*
G36*
G01*
X0372711Y0087153D02*
X0372711Y0086169D01*
G75*
G02*
X0372219Y0085677I-000492J0000000D01*
G01*
X0372219Y0085677D01*
G75*
G02*
X0371727Y0086169I0000000J0000492D01*
G01*
X0371727Y0087153D01*
G75*
G02*
X0372219Y0087645I0000492J0000000D01*
G01*
X0372219Y0087645D01*
G75*
G02*
X0372711Y0087153I0000000J-000492D01*
G01*
G37*
G36*
G01*
X0368380Y0087153D02*
X0368380Y0086169D01*
G75*
G02*
X0367888Y0085677I-000492J0000000D01*
G01*
X0367888Y0085677D01*
G75*
G02*
X0367396Y0086169I0000000J0000492D01*
G01*
X0367396Y0087153D01*
G75*
G02*
X0367888Y0087645I0000492J0000000D01*
G01*
X0367888Y0087645D01*
G75*
G02*
X0368380Y0087153I0000000J-000492D01*
G01*
G37*
G36*
G01*
X0364049Y0087153D02*
X0364049Y0086169D01*
G75*
G02*
X0363557Y0085677I-000492J0000000D01*
G01*
X0363557Y0085677D01*
G75*
G02*
X0363065Y0086169I0000000J0000492D01*
G01*
X0363065Y0087153D01*
G75*
G02*
X0363557Y0087645I0000492J0000000D01*
G01*
X0363557Y0087645D01*
G75*
G02*
X0364049Y0087153I0000000J-000492D01*
G01*
G37*
G36*
G01*
X0359719Y0087153D02*
X0359719Y0086169D01*
G75*
G02*
X0359227Y0085677I-000492J0000000D01*
G01*
X0359227Y0085677D01*
G75*
G02*
X0358734Y0086169I0000000J0000492D01*
G01*
X0358734Y0087153D01*
G75*
G02*
X0359227Y0087645I0000492J0000000D01*
G01*
X0359227Y0087645D01*
G75*
G02*
X0359719Y0087153I0000000J-000492D01*
G01*
G37*
G36*
G01*
X0355388Y0087153D02*
X0355388Y0086169D01*
G75*
G02*
X0354896Y0085677I-000492J0000000D01*
G01*
X0354896Y0085677D01*
G75*
G02*
X0354404Y0086169I0000000J0000492D01*
G01*
X0354404Y0087153D01*
G75*
G02*
X0354896Y0087645I0000492J0000000D01*
G01*
X0354896Y0087645D01*
G75*
G02*
X0355388Y0087153I0000000J-000492D01*
G01*
G37*
G36*
G01*
X0351057Y0087153D02*
X0351057Y0086169D01*
G75*
G02*
X0350565Y0085677I-000492J0000000D01*
G01*
X0350565Y0085677D01*
G75*
G02*
X0350073Y0086169I0000000J0000492D01*
G01*
X0350073Y0087153D01*
G75*
G02*
X0350565Y0087645I0000492J0000000D01*
G01*
X0350565Y0087645D01*
G75*
G02*
X0351057Y0087153I0000000J-000492D01*
G01*
G37*
G36*
G01*
X0346727Y0087153D02*
X0346727Y0086169D01*
G75*
G02*
X0346235Y0085677I-000492J0000000D01*
G01*
X0346235Y0085677D01*
G75*
G02*
X0345742Y0086169I0000000J0000492D01*
G01*
X0345742Y0087153D01*
G75*
G02*
X0346235Y0087645I0000492J0000000D01*
G01*
X0346235Y0087645D01*
G75*
G02*
X0346727Y0087153I0000000J-000492D01*
G01*
G37*
G36*
G01*
X0342396Y0087153D02*
X0342396Y0086169D01*
G75*
G02*
X0341904Y0085677I-000492J0000000D01*
G01*
X0341904Y0085677D01*
G75*
G02*
X0341412Y0086169I0000000J0000492D01*
G01*
X0341412Y0087153D01*
G75*
G02*
X0341904Y0087645I0000492J0000000D01*
G01*
X0341904Y0087645D01*
G75*
G02*
X0342396Y0087153I0000000J-000492D01*
G01*
G37*
G36*
G01*
X0338065Y0087153D02*
X0338065Y0086169D01*
G75*
G02*
X0337573Y0085677I-000492J0000000D01*
G01*
X0337573Y0085677D01*
G75*
G02*
X0337081Y0086169I0000000J0000492D01*
G01*
X0337081Y0087153D01*
G75*
G02*
X0337573Y0087645I0000492J0000000D01*
G01*
X0337573Y0087645D01*
G75*
G02*
X0338065Y0087153I0000000J-000492D01*
G01*
G37*
G36*
G01*
X0333735Y0087153D02*
X0333735Y0086169D01*
G75*
G02*
X0333242Y0085677I-000492J0000000D01*
G01*
X0333242Y0085677D01*
G75*
G02*
X0332750Y0086169I0000000J0000492D01*
G01*
X0332750Y0087153D01*
G75*
G02*
X0333242Y0087645I0000492J0000000D01*
G01*
X0333242Y0087645D01*
G75*
G02*
X0333735Y0087153I0000000J-000492D01*
G01*
G37*
G36*
G01*
X0329404Y0087153D02*
X0329404Y0086169D01*
G75*
G02*
X0328912Y0085677I-000492J0000000D01*
G01*
X0328912Y0085677D01*
G75*
G02*
X0328420Y0086169I0000000J0000492D01*
G01*
X0328420Y0087153D01*
G75*
G02*
X0328912Y0087645I0000492J0000000D01*
G01*
X0328912Y0087645D01*
G75*
G02*
X0329404Y0087153I0000000J-000492D01*
G01*
G37*
G36*
G01*
X0325073Y0087153D02*
X0325073Y0086169D01*
G75*
G02*
X0324581Y0085677I-000492J0000000D01*
G01*
X0324581Y0085677D01*
G75*
G02*
X0324089Y0086169I0000000J0000492D01*
G01*
X0324089Y0087153D01*
G75*
G02*
X0324581Y0087645I0000492J0000000D01*
G01*
X0324581Y0087645D01*
G75*
G02*
X0325073Y0087153I0000000J-000492D01*
G01*
G37*
G36*
G01*
X0320742Y0087153D02*
X0320742Y0086169D01*
G75*
G02*
X0320250Y0085677I-000492J0000000D01*
G01*
X0320250Y0085677D01*
G75*
G02*
X0319758Y0086169I0000000J0000492D01*
G01*
X0319758Y0087153D01*
G75*
G02*
X0320250Y0087645I0000492J0000000D01*
G01*
X0320250Y0087645D01*
G75*
G02*
X0320742Y0087153I0000000J-000492D01*
G01*
G37*
G36*
G01*
X0316412Y0087153D02*
X0316412Y0086169D01*
G75*
G02*
X0315920Y0085677I-000492J0000000D01*
G01*
X0315920Y0085677D01*
G75*
G02*
X0315427Y0086169I0000000J0000492D01*
G01*
X0315427Y0087153D01*
G75*
G02*
X0315920Y0087645I0000492J0000000D01*
G01*
X0315920Y0087645D01*
G75*
G02*
X0316412Y0087153I0000000J-000492D01*
G01*
G37*
G36*
G01*
X0312081Y0087153D02*
X0312081Y0086169D01*
G75*
G02*
X0311589Y0085677I-000492J0000000D01*
G01*
X0311589Y0085677D01*
G75*
G02*
X0311097Y0086169I0000000J0000492D01*
G01*
X0311097Y0087153D01*
G75*
G02*
X0311589Y0087645I0000492J0000000D01*
G01*
X0311589Y0087645D01*
G75*
G02*
X0312081Y0087153I0000000J-000492D01*
G01*
G37*
G36*
G01*
X0307750Y0087153D02*
X0307750Y0086169D01*
G75*
G02*
X0307258Y0085677I-000492J0000000D01*
G01*
X0307258Y0085677D01*
G75*
G02*
X0306766Y0086169I0000000J0000492D01*
G01*
X0306766Y0087153D01*
G75*
G02*
X0307258Y0087645I0000492J0000000D01*
G01*
X0307258Y0087645D01*
G75*
G02*
X0307750Y0087153I0000000J-000492D01*
G01*
G37*
G36*
G01*
X0303420Y0087153D02*
X0303420Y0086169D01*
G75*
G02*
X0302928Y0085677I-000492J0000000D01*
G01*
X0302928Y0085677D01*
G75*
G02*
X0302435Y0086169I0000000J0000492D01*
G01*
X0302435Y0087153D01*
G75*
G02*
X0302928Y0087645I0000492J0000000D01*
G01*
X0302928Y0087645D01*
G75*
G02*
X0303420Y0087153I0000000J-000492D01*
G01*
G37*
G36*
G01*
X0299089Y0087153D02*
X0299089Y0086169D01*
G75*
G02*
X0298597Y0085677I-000492J0000000D01*
G01*
X0298597Y0085677D01*
G75*
G02*
X0298105Y0086169I0000000J0000492D01*
G01*
X0298105Y0087153D01*
G75*
G02*
X0298597Y0087645I0000492J0000000D01*
G01*
X0298597Y0087645D01*
G75*
G02*
X0299089Y0087153I0000000J-000492D01*
G01*
G37*
G36*
G01*
X0294758Y0087153D02*
X0294758Y0086169D01*
G75*
G02*
X0294266Y0085677I-000492J0000000D01*
G01*
X0294266Y0085677D01*
G75*
G02*
X0293774Y0086169I0000000J0000492D01*
G01*
X0293774Y0087153D01*
G75*
G02*
X0294266Y0087645I0000492J0000000D01*
G01*
X0294266Y0087645D01*
G75*
G02*
X0294758Y0087153I0000000J-000492D01*
G01*
G37*
G36*
G01*
X0290428Y0087153D02*
X0290428Y0086169D01*
G75*
G02*
X0289935Y0085677I-000492J0000000D01*
G01*
X0289935Y0085677D01*
G75*
G02*
X0289443Y0086169I0000000J0000492D01*
G01*
X0289443Y0087153D01*
G75*
G02*
X0289935Y0087645I0000492J0000000D01*
G01*
X0289935Y0087645D01*
G75*
G02*
X0290428Y0087153I0000000J-000492D01*
G01*
G37*
G36*
G01*
X0286097Y0087153D02*
X0286097Y0086169D01*
G75*
G02*
X0285605Y0085677I-000492J0000000D01*
G01*
X0285605Y0085677D01*
G75*
G02*
X0285113Y0086169I0000000J0000492D01*
G01*
X0285113Y0087153D01*
G75*
G02*
X0285605Y0087645I0000492J0000000D01*
G01*
X0285605Y0087645D01*
G75*
G02*
X0286097Y0087153I0000000J-000492D01*
G01*
G37*
G36*
G01*
X0281766Y0087153D02*
X0281766Y0086169D01*
G75*
G02*
X0281274Y0085677I-000492J0000000D01*
G01*
X0281274Y0085677D01*
G75*
G02*
X0280782Y0086169I0000000J0000492D01*
G01*
X0280782Y0087153D01*
G75*
G02*
X0281274Y0087645I0000492J0000000D01*
G01*
X0281274Y0087645D01*
G75*
G02*
X0281766Y0087153I0000000J-000492D01*
G01*
G37*
G36*
G01*
X0309325Y0228606D02*
X0309325Y0227621D01*
G75*
G02*
X0308833Y0227129I-000492J0000000D01*
G01*
X0308833Y0227129D01*
G75*
G02*
X0308341Y0227621I0000000J0000492D01*
G01*
X0308341Y0228606D01*
G75*
G02*
X0308833Y0229098I0000492J0000000D01*
G01*
X0308833Y0229098D01*
G75*
G02*
X0309325Y0228606I0000000J-000492D01*
G01*
G37*
G36*
G01*
X0313538Y0227621D02*
X0313538Y0228606D01*
G75*
G02*
X0314030Y0229098I0000492J0000000D01*
G01*
X0314030Y0229098D01*
G75*
G02*
X0314522Y0228606I0000000J-000492D01*
G01*
X0314522Y0227621D01*
G75*
G02*
X0314030Y0227129I-000492J0000000D01*
G01*
X0314030Y0227129D01*
G75*
G02*
X0313538Y0227621I0000000J0000492D01*
G01*
G37*
G36*
G01*
X0318734Y0227621D02*
X0318734Y0228606D01*
G75*
G02*
X0319227Y0229098I0000492J0000000D01*
G01*
X0319227Y0229098D01*
G75*
G02*
X0319719Y0228606I0000000J-000492D01*
G01*
X0319719Y0227621D01*
G75*
G02*
X0319227Y0227129I-000492J0000000D01*
G01*
X0319227Y0227129D01*
G75*
G02*
X0318734Y0227621I0000000J0000492D01*
G01*
G37*
G36*
G01*
X0323065Y0227621D02*
X0323065Y0228606D01*
G75*
G02*
X0323557Y0229098I0000492J0000000D01*
G01*
X0323557Y0229098D01*
G75*
G02*
X0324049Y0228606I0000000J-000492D01*
G01*
X0324049Y0227621D01*
G75*
G02*
X0323557Y0227129I-000492J0000000D01*
G01*
X0323557Y0227129D01*
G75*
G02*
X0323065Y0227621I0000000J0000492D01*
G01*
G37*
G36*
G01*
X0327396Y0227621D02*
X0327396Y0228606D01*
G75*
G02*
X0327888Y0229098I0000492J0000000D01*
G01*
X0327888Y0229098D01*
G75*
G02*
X0328380Y0228606I0000000J-000492D01*
G01*
X0328380Y0227621D01*
G75*
G02*
X0327888Y0227129I-000492J0000000D01*
G01*
X0327888Y0227129D01*
G75*
G02*
X0327396Y0227621I0000000J0000492D01*
G01*
G37*
G36*
G01*
X0331727Y0227621D02*
X0331727Y0228606D01*
G75*
G02*
X0332219Y0229098I0000492J0000000D01*
G01*
X0332219Y0229098D01*
G75*
G02*
X0332711Y0228606I0000000J-000492D01*
G01*
X0332711Y0227621D01*
G75*
G02*
X0332219Y0227129I-000492J0000000D01*
G01*
X0332219Y0227129D01*
G75*
G02*
X0331727Y0227621I0000000J0000492D01*
G01*
G37*
G36*
G01*
X0336057Y0227621D02*
X0336057Y0228606D01*
G75*
G02*
X0336549Y0229098I0000492J0000000D01*
G01*
X0336549Y0229098D01*
G75*
G02*
X0337041Y0228606I0000000J-000492D01*
G01*
X0337041Y0227621D01*
G75*
G02*
X0336549Y0227129I-000492J0000000D01*
G01*
X0336549Y0227129D01*
G75*
G02*
X0336057Y0227621I0000000J0000492D01*
G01*
G37*
G36*
G01*
X0340388Y0227621D02*
X0340388Y0228606D01*
G75*
G02*
X0340880Y0229098I0000492J0000000D01*
G01*
X0340880Y0229098D01*
G75*
G02*
X0341372Y0228606I0000000J-000492D01*
G01*
X0341372Y0227621D01*
G75*
G02*
X0340880Y0227129I-000492J0000000D01*
G01*
X0340880Y0227129D01*
G75*
G02*
X0340388Y0227621I0000000J0000492D01*
G01*
G37*
G36*
G01*
X0344719Y0227621D02*
X0344719Y0228606D01*
G75*
G02*
X0345211Y0229098I0000492J0000000D01*
G01*
X0345211Y0229098D01*
G75*
G02*
X0345703Y0228606I0000000J-000492D01*
G01*
X0345703Y0227621D01*
G75*
G02*
X0345211Y0227129I-000492J0000000D01*
G01*
X0345211Y0227129D01*
G75*
G02*
X0344719Y0227621I0000000J0000492D01*
G01*
G37*
G36*
G01*
X0349049Y0227621D02*
X0349049Y0228606D01*
G75*
G02*
X0349541Y0229098I0000492J0000000D01*
G01*
X0349541Y0229098D01*
G75*
G02*
X0350034Y0228606I0000000J-000492D01*
G01*
X0350034Y0227621D01*
G75*
G02*
X0349541Y0227129I-000492J0000000D01*
G01*
X0349541Y0227129D01*
G75*
G02*
X0349049Y0227621I0000000J0000492D01*
G01*
G37*
G36*
G01*
X0353380Y0227621D02*
X0353380Y0228606D01*
G75*
G02*
X0353872Y0229098I0000492J0000000D01*
G01*
X0353872Y0229098D01*
G75*
G02*
X0354364Y0228606I0000000J-000492D01*
G01*
X0354364Y0227621D01*
G75*
G02*
X0353872Y0227129I-000492J0000000D01*
G01*
X0353872Y0227129D01*
G75*
G02*
X0353380Y0227621I0000000J0000492D01*
G01*
G37*
G36*
G01*
X0357711Y0227621D02*
X0357711Y0228606D01*
G75*
G02*
X0358203Y0229098I0000492J0000000D01*
G01*
X0358203Y0229098D01*
G75*
G02*
X0358695Y0228606I0000000J-000492D01*
G01*
X0358695Y0227621D01*
G75*
G02*
X0358203Y0227129I-000492J0000000D01*
G01*
X0358203Y0227129D01*
G75*
G02*
X0357711Y0227621I0000000J0000492D01*
G01*
G37*
G36*
G01*
X0362041Y0227621D02*
X0362041Y0228606D01*
G75*
G02*
X0362534Y0229098I0000492J0000000D01*
G01*
X0362534Y0229098D01*
G75*
G02*
X0363026Y0228606I0000000J-000492D01*
G01*
X0363026Y0227621D01*
G75*
G02*
X0362534Y0227129I-000492J0000000D01*
G01*
X0362534Y0227129D01*
G75*
G02*
X0362041Y0227621I0000000J0000492D01*
G01*
G37*
G36*
G01*
X0366372Y0227621D02*
X0366372Y0228606D01*
G75*
G02*
X0366864Y0229098I0000492J0000000D01*
G01*
X0366864Y0229098D01*
G75*
G02*
X0367356Y0228606I0000000J-000492D01*
G01*
X0367356Y0227621D01*
G75*
G02*
X0366864Y0227129I-000492J0000000D01*
G01*
X0366864Y0227129D01*
G75*
G02*
X0366372Y0227621I0000000J0000492D01*
G01*
G37*
G36*
G01*
X0370703Y0227621D02*
X0370703Y0228606D01*
G75*
G02*
X0371195Y0229098I0000492J0000000D01*
G01*
X0371195Y0229098D01*
G75*
G02*
X0371687Y0228606I0000000J-000492D01*
G01*
X0371687Y0227621D01*
G75*
G02*
X0371195Y0227129I-000492J0000000D01*
G01*
X0371195Y0227129D01*
G75*
G02*
X0370703Y0227621I0000000J0000492D01*
G01*
G37*
G36*
G01*
X0375034Y0227621D02*
X0375034Y0228606D01*
G75*
G02*
X0375526Y0229098I0000492J0000000D01*
G01*
X0375526Y0229098D01*
G75*
G02*
X0376018Y0228606I0000000J-000492D01*
G01*
X0376018Y0227621D01*
G75*
G02*
X0375526Y0227129I-000492J0000000D01*
G01*
X0375526Y0227129D01*
G75*
G02*
X0375034Y0227621I0000000J0000492D01*
G01*
G37*
G36*
G01*
X0379364Y0227621D02*
X0379364Y0228606D01*
G75*
G02*
X0379856Y0229098I0000492J0000000D01*
G01*
X0379856Y0229098D01*
G75*
G02*
X0380348Y0228606I0000000J-000492D01*
G01*
X0380348Y0227621D01*
G75*
G02*
X0379856Y0227129I-000492J0000000D01*
G01*
X0379856Y0227129D01*
G75*
G02*
X0379364Y0227621I0000000J0000492D01*
G01*
G37*
G36*
G01*
X0383695Y0227621D02*
X0383695Y0228606D01*
G75*
G02*
X0384187Y0229098I0000492J0000000D01*
G01*
X0384187Y0229098D01*
G75*
G02*
X0384679Y0228606I0000000J-000492D01*
G01*
X0384679Y0227621D01*
G75*
G02*
X0384187Y0227129I-000492J0000000D01*
G01*
X0384187Y0227129D01*
G75*
G02*
X0383695Y0227621I0000000J0000492D01*
G01*
G37*
G36*
G01*
X0388026Y0227621D02*
X0388026Y0228606D01*
G75*
G02*
X0388518Y0229098I0000492J0000000D01*
G01*
X0388518Y0229098D01*
G75*
G02*
X0389010Y0228606I0000000J-000492D01*
G01*
X0389010Y0227621D01*
G75*
G02*
X0388518Y0227129I-000492J0000000D01*
G01*
X0388518Y0227129D01*
G75*
G02*
X0388026Y0227621I0000000J0000492D01*
G01*
G37*
G36*
G01*
X0392356Y0227621D02*
X0392356Y0228606D01*
G75*
G02*
X0392848Y0229098I0000492J0000000D01*
G01*
X0392848Y0229098D01*
G75*
G02*
X0393341Y0228606I0000000J-000492D01*
G01*
X0393341Y0227621D01*
G75*
G02*
X0392848Y0227129I-000492J0000000D01*
G01*
X0392848Y0227129D01*
G75*
G02*
X0392356Y0227621I0000000J0000492D01*
G01*
G37*
G36*
G01*
X0396687Y0227621D02*
X0396687Y0228606D01*
G75*
G02*
X0397179Y0229098I0000492J0000000D01*
G01*
X0397179Y0229098D01*
G75*
G02*
X0397671Y0228606I0000000J-000492D01*
G01*
X0397671Y0227621D01*
G75*
G02*
X0397179Y0227129I-000492J0000000D01*
G01*
X0397179Y0227129D01*
G75*
G02*
X0396687Y0227621I0000000J0000492D01*
G01*
G37*
G36*
G01*
X0401018Y0227621D02*
X0401018Y0228606D01*
G75*
G02*
X0401510Y0229098I0000492J0000000D01*
G01*
X0401510Y0229098D01*
G75*
G02*
X0402002Y0228606I0000000J-000492D01*
G01*
X0402002Y0227621D01*
G75*
G02*
X0401510Y0227129I-000492J0000000D01*
G01*
X0401510Y0227129D01*
G75*
G02*
X0401018Y0227621I0000000J0000492D01*
G01*
G37*
G36*
G01*
X0405348Y0227621D02*
X0405348Y0228606D01*
G75*
G02*
X0405841Y0229098I0000492J0000000D01*
G01*
X0405841Y0229098D01*
G75*
G02*
X0406333Y0228606I0000000J-000492D01*
G01*
X0406333Y0227621D01*
G75*
G02*
X0405841Y0227129I-000492J0000000D01*
G01*
X0405841Y0227129D01*
G75*
G02*
X0405348Y0227621I0000000J0000492D01*
G01*
G37*
G36*
G01*
X0409679Y0227621D02*
X0409679Y0228606D01*
G75*
G02*
X0410171Y0229098I0000492J0000000D01*
G01*
X0410171Y0229098D01*
G75*
G02*
X0410663Y0228606I0000000J-000492D01*
G01*
X0410663Y0227621D01*
G75*
G02*
X0410171Y0227129I-000492J0000000D01*
G01*
X0410171Y0227129D01*
G75*
G02*
X0409679Y0227621I0000000J0000492D01*
G01*
G37*
G36*
G01*
X0414010Y0227621D02*
X0414010Y0228606D01*
G75*
G02*
X0414502Y0229098I0000492J0000000D01*
G01*
X0414502Y0229098D01*
G75*
G02*
X0414994Y0228606I0000000J-000492D01*
G01*
X0414994Y0227621D01*
G75*
G02*
X0414502Y0227129I-000492J0000000D01*
G01*
X0414502Y0227129D01*
G75*
G02*
X0414010Y0227621I0000000J0000492D01*
G01*
G37*
G36*
G01*
X0418341Y0227621D02*
X0418341Y0228606D01*
G75*
G02*
X0418833Y0229098I0000492J0000000D01*
G01*
X0418833Y0229098D01*
G75*
G02*
X0419325Y0228606I0000000J-000492D01*
G01*
X0419325Y0227621D01*
G75*
G02*
X0418833Y0227129I-000492J0000000D01*
G01*
X0418833Y0227129D01*
G75*
G02*
X0418341Y0227621I0000000J0000492D01*
G01*
G37*
G36*
G01*
X0422671Y0227621D02*
X0422671Y0228606D01*
G75*
G02*
X0423163Y0229098I0000492J0000000D01*
G01*
X0423163Y0229098D01*
G75*
G02*
X0423655Y0228606I0000000J-000492D01*
G01*
X0423655Y0227621D01*
G75*
G02*
X0423163Y0227129I-000492J0000000D01*
G01*
X0423163Y0227129D01*
G75*
G02*
X0422671Y0227621I0000000J0000492D01*
G01*
G37*
G36*
G01*
X0427002Y0227621D02*
X0427002Y0228606D01*
G75*
G02*
X0427494Y0229098I0000492J0000000D01*
G01*
X0427494Y0229098D01*
G75*
G02*
X0427986Y0228606I0000000J-000492D01*
G01*
X0427986Y0227621D01*
G75*
G02*
X0427494Y0227129I-000492J0000000D01*
G01*
X0427494Y0227129D01*
G75*
G02*
X0427002Y0227621I0000000J0000492D01*
G01*
G37*
G36*
G01*
X0431333Y0227621D02*
X0431333Y0228606D01*
G75*
G02*
X0431825Y0229098I0000492J0000000D01*
G01*
X0431825Y0229098D01*
G75*
G02*
X0432317Y0228606I0000000J-000492D01*
G01*
X0432317Y0227621D01*
G75*
G02*
X0431825Y0227129I-000492J0000000D01*
G01*
X0431825Y0227129D01*
G75*
G02*
X0431333Y0227621I0000000J0000492D01*
G01*
G37*
G36*
G01*
X0435663Y0227621D02*
X0435663Y0228606D01*
G75*
G02*
X0436155Y0229098I0000492J0000000D01*
G01*
X0436155Y0229098D01*
G75*
G02*
X0436648Y0228606I0000000J-000492D01*
G01*
X0436648Y0227621D01*
G75*
G02*
X0436155Y0227129I-000492J0000000D01*
G01*
X0436155Y0227129D01*
G75*
G02*
X0435663Y0227621I0000000J0000492D01*
G01*
G37*
G36*
G01*
X0439994Y0227621D02*
X0439994Y0228606D01*
G75*
G02*
X0440486Y0229098I0000492J0000000D01*
G01*
X0440486Y0229098D01*
G75*
G02*
X0440978Y0228606I0000000J-000492D01*
G01*
X0440978Y0227621D01*
G75*
G02*
X0440486Y0227129I-000492J0000000D01*
G01*
X0440486Y0227129D01*
G75*
G02*
X0439994Y0227621I0000000J0000492D01*
G01*
G37*
G36*
G01*
X0444325Y0227621D02*
X0444325Y0228606D01*
G75*
G02*
X0444817Y0229098I0000492J0000000D01*
G01*
X0444817Y0229098D01*
G75*
G02*
X0445309Y0228606I0000000J-000492D01*
G01*
X0445309Y0227621D01*
G75*
G02*
X0444817Y0227129I-000492J0000000D01*
G01*
X0444817Y0227129D01*
G75*
G02*
X0444325Y0227621I0000000J0000492D01*
G01*
G37*
G36*
G01*
X0448655Y0227621D02*
X0448655Y0228606D01*
G75*
G02*
X0449148Y0229098I0000492J0000000D01*
G01*
X0449148Y0229098D01*
G75*
G02*
X0449640Y0228606I0000000J-000492D01*
G01*
X0449640Y0227621D01*
G75*
G02*
X0449148Y0227129I-000492J0000000D01*
G01*
X0449148Y0227129D01*
G75*
G02*
X0448655Y0227621I0000000J0000492D01*
G01*
G37*
G36*
G01*
X0454601Y0110271D02*
X0455585Y0110271D01*
G75*
G02*
X0456077Y0109779I0000000J-000492D01*
G01*
X0456077Y0109779D01*
G75*
G02*
X0455585Y0109287I-000492J0000000D01*
G01*
X0454601Y0109287D01*
G75*
G02*
X0454108Y0109779I0000000J0000492D01*
G01*
X0454108Y0109779D01*
G75*
G02*
X0454601Y0110271I0000492J0000000D01*
G01*
G37*
G36*
G01*
X0454601Y0107673D02*
X0455585Y0107673D01*
G75*
G02*
X0456077Y0107180I0000000J-000492D01*
G01*
X0456077Y0107180D01*
G75*
G02*
X0455585Y0106688I-000492J0000000D01*
G01*
X0454601Y0106688D01*
G75*
G02*
X0454108Y0107180I0000000J0000492D01*
G01*
X0454108Y0107180D01*
G75*
G02*
X0454601Y0107673I0000492J0000000D01*
G01*
G37*
G36*
G01*
X0454601Y0105074D02*
X0455585Y0105074D01*
G75*
G02*
X0456077Y0104582I0000000J-000492D01*
G01*
X0456077Y0104582D01*
G75*
G02*
X0455585Y0104090I-000492J0000000D01*
G01*
X0454601Y0104090D01*
G75*
G02*
X0454108Y0104582I0000000J0000492D01*
G01*
X0454108Y0104582D01*
G75*
G02*
X0454601Y0105074I0000492J0000000D01*
G01*
G37*
G36*
G01*
X0454601Y0102476D02*
X0455585Y0102476D01*
G75*
G02*
X0456077Y0101984I0000000J-000492D01*
G01*
X0456077Y0101984D01*
G75*
G02*
X0455585Y0101491I-000492J0000000D01*
G01*
X0454601Y0101491D01*
G75*
G02*
X0454108Y0101984I0000000J0000492D01*
G01*
X0454108Y0101984D01*
G75*
G02*
X0454601Y0102476I0000492J0000000D01*
G01*
G37*
G36*
G01*
X0454601Y0099877D02*
X0455585Y0099877D01*
G75*
G02*
X0456077Y0099385I0000000J-000492D01*
G01*
X0456077Y0099385D01*
G75*
G02*
X0455585Y0098893I-000492J0000000D01*
G01*
X0454601Y0098893D01*
G75*
G02*
X0454108Y0099385I0000000J0000492D01*
G01*
X0454108Y0099385D01*
G75*
G02*
X0454601Y0099877I0000492J0000000D01*
G01*
G37*
G36*
G01*
X0454601Y0097279D02*
X0455585Y0097279D01*
G75*
G02*
X0456077Y0096787I0000000J-000492D01*
G01*
X0456077Y0096787D01*
G75*
G02*
X0455585Y0096295I-000492J0000000D01*
G01*
X0454601Y0096295D01*
G75*
G02*
X0454108Y0096787I0000000J0000492D01*
G01*
X0454108Y0096787D01*
G75*
G02*
X0454601Y0097279I0000492J0000000D01*
G01*
G37*
G36*
G01*
X0454601Y0094680D02*
X0455585Y0094680D01*
G75*
G02*
X0456077Y0094188I0000000J-000492D01*
G01*
X0456077Y0094188D01*
G75*
G02*
X0455585Y0093696I-000492J0000000D01*
G01*
X0454601Y0093696D01*
G75*
G02*
X0454108Y0094188I0000000J0000492D01*
G01*
X0454108Y0094188D01*
G75*
G02*
X0454601Y0094680I0000492J0000000D01*
G01*
G37*
G36*
G01*
X0454601Y0092082D02*
X0455585Y0092082D01*
G75*
G02*
X0456077Y0091590I0000000J-000492D01*
G01*
X0456077Y0091590D01*
G75*
G02*
X0455585Y0091098I-000492J0000000D01*
G01*
X0454601Y0091098D01*
G75*
G02*
X0454108Y0091590I0000000J0000492D01*
G01*
X0454108Y0091590D01*
G75*
G02*
X0454601Y0092082I0000492J0000000D01*
G01*
G37*
G36*
G01*
X0454601Y0089484D02*
X0455585Y0089484D01*
G75*
G02*
X0456077Y0088991I0000000J-000492D01*
G01*
X0456077Y0088991D01*
G75*
G02*
X0455585Y0088499I-000492J0000000D01*
G01*
X0454601Y0088499D01*
G75*
G02*
X0454108Y0088991I0000000J0000492D01*
G01*
X0454108Y0088991D01*
G75*
G02*
X0454601Y0089484I0000492J0000000D01*
G01*
G37*
G36*
G01*
X0454601Y0086885D02*
X0455585Y0086885D01*
G75*
G02*
X0456077Y0086393I0000000J-000492D01*
G01*
X0456077Y0086393D01*
G75*
G02*
X0455585Y0085901I-000492J0000000D01*
G01*
X0454601Y0085901D01*
G75*
G02*
X0454108Y0086393I0000000J0000492D01*
G01*
X0454108Y0086393D01*
G75*
G02*
X0454601Y0086885I0000492J0000000D01*
G01*
G37*
X0136719Y0503249D03*
X0136719Y0518249D03*
D195*
X0137507Y0526399D03*
D80*
X0511417Y0474783D03*
X0511417Y0489783D03*
D253*
X0586614Y0605906D03*
D195*
X0464180Y0151064D03*
D253*
X0586614Y0020079D03*
D195*
X0371266Y0526301D03*
G36*
G01*
X0537268Y0341703D02*
X0537268Y0341703D01*
G75*
G02*
X0543949Y0341703I0003341J-003341D01*
G01*
X0545619Y0340033D01*
G75*
G02*
X0545619Y0333352I-003341J-003341D01*
G01*
X0545619Y0333352D01*
G75*
G02*
X0538938Y0333352I-003341J0003341D01*
G01*
X0537268Y0335022D01*
G75*
G02*
X0537268Y0341703I0003341J0003341D01*
G01*
G37*
G36*
G01*
X0544748Y0350365D02*
X0544748Y0350365D01*
G75*
G02*
X0551429Y0350365I0003341J-003341D01*
G01*
X0553100Y0348694D01*
G75*
G02*
X0553100Y0342013I-003341J-003341D01*
G01*
X0553100Y0342013D01*
G75*
G02*
X0546418Y0342013I-003341J0003341D01*
G01*
X0544748Y0343683D01*
G75*
G02*
X0544748Y0350365I0003341J0003341D01*
G01*
G37*
G36*
G01*
X0569158Y0350365D02*
X0569158Y0350365D01*
G75*
G02*
X0575839Y0350365I0003341J-003341D01*
G01*
X0577509Y0348694D01*
G75*
G02*
X0577509Y0342013I-003341J-003341D01*
G01*
X0577509Y0342013D01*
G75*
G02*
X0570828Y0342013I-003341J0003341D01*
G01*
X0569158Y0343683D01*
G75*
G02*
X0569158Y0350365I0003341J0003341D01*
G01*
G37*
G36*
G01*
X0559315Y0341703D02*
X0559315Y0341703D01*
G75*
G02*
X0565996Y0341703I0003341J-003341D01*
G01*
X0567667Y0340033D01*
G75*
G02*
X0567667Y0333352I-003341J-003341D01*
G01*
X0567667Y0333352D01*
G75*
G02*
X0560985Y0333352I-003341J0003341D01*
G01*
X0559315Y0335022D01*
G75*
G02*
X0559315Y0341703I0003341J0003341D01*
G01*
G37*
G36*
G01*
X0522701Y0350365D02*
X0522701Y0350365D01*
G75*
G02*
X0529382Y0350365I0003341J-003341D01*
G01*
X0531053Y0348694D01*
G75*
G02*
X0531053Y0342013I-003341J-003341D01*
G01*
X0531053Y0342013D01*
G75*
G02*
X0524371Y0342013I-003341J0003341D01*
G01*
X0522701Y0343683D01*
G75*
G02*
X0522701Y0350365I0003341J0003341D01*
G01*
G37*
X0049567Y0177549D03*
X0049567Y0187549D03*
X0049567Y0197549D03*
X0049567Y0207549D03*
X0049567Y0217549D03*
X0059567Y0177549D03*
X0059567Y0187549D03*
X0059567Y0197549D03*
X0059567Y0207549D03*
X0059567Y0217549D03*
X0069567Y0177549D03*
X0069567Y0187549D03*
X0069567Y0197549D03*
X0069567Y0207549D03*
X0069567Y0217549D03*
X0188589Y0311045D03*
D133*
X0058515Y0471984D03*
X0063732Y0439602D03*
X0084332Y0439671D03*
X0086271Y0447083D03*
X0090700Y0418146D03*
D195*
X0079567Y0127549D03*
X0079567Y0137549D03*
X0079567Y0147549D03*
X0079567Y0157549D03*
X0079567Y0167549D03*
X0089567Y0127549D03*
X0089567Y0137549D03*
X0089567Y0147549D03*
X0089567Y0157549D03*
X0089567Y0167549D03*
X0099567Y0127549D03*
X0099567Y0137549D03*
X0099567Y0147549D03*
X0099567Y0157549D03*
X0099567Y0167549D03*
D253*
X0586420Y0283071D03*
D80*
X0432665Y0501462D03*
X0432665Y0516462D03*
X0083169Y0521260D03*
X0102461Y0521260D03*
X0083366Y0530709D03*
X0102657Y0530709D03*
D195*
X0019567Y0127549D03*
X0019567Y0137549D03*
X0019567Y0147549D03*
X0019567Y0157549D03*
X0019567Y0167549D03*
X0029567Y0127549D03*
X0029567Y0137549D03*
X0029567Y0147549D03*
X0029567Y0157549D03*
X0029567Y0167549D03*
X0039567Y0127549D03*
X0039567Y0137549D03*
X0039567Y0147549D03*
X0039567Y0157549D03*
X0039567Y0167549D03*
D80*
X0154027Y0503360D03*
X0154027Y0518360D03*
X0099178Y0495195D03*
X0099178Y0510195D03*
D195*
X0128353Y0310961D03*
D80*
X0163279Y0503348D03*
X0163279Y0518348D03*
X0081855Y0495372D03*
X0081855Y0510372D03*
D253*
X0019685Y0605906D03*
D80*
X0180510Y0503249D03*
X0180510Y0518249D03*
X0528790Y0474785D03*
X0528790Y0489785D03*
D195*
X0272448Y0265375D03*
D80*
X0529731Y0500555D03*
X0529731Y0515555D03*
D195*
X0261424Y0276399D03*
X0261424Y0254352D03*
D205*
X0079134Y0399606D03*
G36*
G01*
X0114173Y0394291D02*
X0101575Y0394291D01*
G75*
G02*
X0100591Y0395276I0000000J0000984D01*
G01*
X0100591Y0403937D01*
G75*
G02*
X0101575Y0404921I0000984J0000000D01*
G01*
X0114173Y0404921D01*
G75*
G02*
X0115157Y0403937I0000000J-000984D01*
G01*
X0115157Y0395276D01*
G75*
G02*
X0114173Y0394291I-000984J0000000D01*
G01*
G37*
D164*
X0129528Y0399606D03*
D80*
X0423333Y0516281D03*
X0423333Y0501281D03*
D133*
X0319129Y0246970D03*
X0316739Y0275612D03*
X0320085Y0275612D03*
X0323432Y0275612D03*
X0326778Y0275612D03*
X0314332Y0281317D03*
X0326778Y0242541D03*
X0321266Y0242541D03*
X0317034Y0242541D03*
X0311522Y0242541D03*
D195*
X0483169Y0507776D03*
D198*
X0483559Y0035391D03*
D265*
X0483559Y0025391D03*
X0473559Y0035391D03*
X0473559Y0025391D03*
X0463559Y0035391D03*
X0463559Y0025391D03*
X0453559Y0035391D03*
X0453559Y0025391D03*
X0443559Y0035391D03*
X0443559Y0025391D03*
X0433559Y0035391D03*
X0433559Y0025391D03*
X0423559Y0035391D03*
X0423559Y0025391D03*
X0413559Y0035391D03*
X0413559Y0025391D03*
X0403559Y0035391D03*
X0403559Y0025391D03*
X0393559Y0035391D03*
X0393559Y0025391D03*
X0383559Y0035391D03*
X0383559Y0025391D03*
X0373559Y0035391D03*
X0373559Y0025391D03*
D80*
X0073292Y0495569D03*
X0073292Y0510569D03*
X0409849Y0501379D03*
X0409849Y0516379D03*
D253*
X0019685Y0283071D03*
D195*
X0058077Y0487423D03*
D80*
X0145168Y0503262D03*
X0145168Y0518262D03*
D195*
X0418707Y0328072D03*
X0430713Y0349627D03*
D80*
X0465558Y0500789D03*
X0465558Y0515789D03*
D195*
X0147152Y0490572D03*
X0464180Y0162226D03*
D133*
X0472977Y0091918D03*
X0465753Y0093591D03*
X0473823Y0095756D03*
X0472977Y0099201D03*
X0472682Y0102548D03*
X0465753Y0103827D03*
X0470910Y0108945D03*
X0465753Y0111504D03*
X0489079Y0083256D03*
X0473036Y0084437D03*
D80*
X0520177Y0489685D03*
X0520177Y0474685D03*
D195*
X0345971Y0327285D03*
D80*
X0482585Y0474608D03*
X0482585Y0489608D03*
D133*
X0058415Y0376772D03*
X0058415Y0277953D03*
X0058415Y0229672D03*
X0058415Y0333858D03*
X0073376Y0235138D03*
D195*
X0131207Y0490474D03*
G36*
G01*
X0505026Y0425021D02*
X0510341Y0425021D01*
G75*
G02*
X0511326Y0424037I0000000J-000984D01*
G01*
X0511326Y0419312D01*
G75*
G02*
X0510341Y0418328I-000984J0000000D01*
G01*
X0505026Y0418328D01*
G75*
G02*
X0504042Y0419312I0000000J0000984D01*
G01*
X0504042Y0424037D01*
G75*
G02*
X0505026Y0425021I0000984J0000000D01*
G01*
G37*
D280*
X0507684Y0411832D03*
X0507684Y0401990D03*
X0507684Y0392147D03*
X0507684Y0382304D03*
D80*
X0053785Y0521394D03*
X0073077Y0521394D03*
D196*
X0030715Y0476399D03*
X0456447Y0297579D02*
G01*
G75*
D393*
X0335778Y0293334D02*
D03*
X0335778Y0272547D02*
D03*
X0335778Y0275145D02*
D03*
X0335778Y0277744D02*
D03*
X0335778Y0280342D02*
D03*
D392*
X0436053Y0241173D02*
D03*
X0440384Y0241173D02*
D03*
X0444715Y0241173D02*
D03*
X0449045Y0241173D02*
D03*
X0341766Y0296142D02*
D03*
X0344364Y0296142D02*
D03*
X0346963Y0296142D02*
D03*
X0349561Y0296142D02*
D03*
X0352160Y0296142D02*
D03*
X0354758Y0296142D02*
D03*
X0361061Y0296142D02*
D03*
X0363660Y0296142D02*
D03*
X0366258Y0296142D02*
D03*
X0370671Y0296142D02*
D03*
X0373269Y0296142D02*
D03*
X0375868Y0296142D02*
D03*
X0378466Y0296142D02*
D03*
X0391561Y0296142D02*
D03*
X0394160Y0296142D02*
D03*
X0396758Y0296142D02*
D03*
X0407175Y0296142D02*
D03*
X0409774Y0296142D02*
D03*
X0412372Y0296142D02*
D03*
X0414971Y0296142D02*
D03*
X0417569Y0296142D02*
D03*
X0420167Y0296142D02*
D03*
X0422766Y0296142D02*
D03*
X0425364Y0296142D02*
D03*
X0427963Y0296142D02*
D03*
X0430561Y0296142D02*
D03*
X0431723Y0241173D02*
D03*
X0427392Y0241173D02*
D03*
X0423061Y0241173D02*
D03*
X0418731Y0241173D02*
D03*
X0414400Y0241173D02*
D03*
X0410069Y0241173D02*
D03*
X0405738Y0241173D02*
D03*
X0401408Y0241173D02*
D03*
X0397077Y0241173D02*
D03*
X0392746Y0241173D02*
D03*
X0388416Y0241173D02*
D03*
X0384085Y0241173D02*
D03*
X0379754Y0241173D02*
D03*
X0375423Y0241173D02*
D03*
X0371093Y0241173D02*
D03*
X0366762Y0241173D02*
D03*
X0362431Y0241173D02*
D03*
X0358101Y0241173D02*
D03*
X0353770Y0241173D02*
D03*
X0349439Y0241173D02*
D03*
X0345109Y0241173D02*
D03*
X0340778Y0241173D02*
D03*
X0495674Y0132764D02*
G01*
G75*
D299*
X0489375Y0083256D02*
D03*
X0473331Y0084437D02*
D03*
X0466048Y0111504D02*
D03*
X0471205Y0108945D02*
D03*
X0472977Y0102547D02*
D03*
X0466048Y0103827D02*
D03*
X0473272Y0099201D02*
D03*
X0474119Y0095756D02*
D03*
X0466048Y0093591D02*
D03*
X0473272Y0091918D02*
D03*
X0456963Y0230173D02*
G01*
G75*
D303*
X0283538Y0115252D02*
D03*
X0279538Y0135252D02*
D03*
X0287538Y0135252D02*
D03*
D392*
X0390880Y0086661D02*
D03*
X0396116Y0086661D02*
D03*
X0294266Y0086661D02*
D03*
X0289936Y0086661D02*
D03*
X0285605Y0086661D02*
D03*
X0431825Y0228114D02*
D03*
X0436156Y0228114D02*
D03*
X0440486Y0228114D02*
D03*
X0444817Y0228114D02*
D03*
X0323558Y0228114D02*
D03*
X0319227Y0228114D02*
D03*
X0314030Y0228114D02*
D03*
X0308833Y0228114D02*
D03*
X0327888Y0228114D02*
D03*
X0332219Y0228114D02*
D03*
X0336550Y0228114D02*
D03*
X0340880Y0228114D02*
D03*
X0345211Y0228114D02*
D03*
X0349542Y0228114D02*
D03*
X0353872Y0228114D02*
D03*
X0358203Y0228114D02*
D03*
X0362534Y0228114D02*
D03*
X0366864Y0228114D02*
D03*
X0371195Y0228114D02*
D03*
X0375526Y0228114D02*
D03*
X0379857Y0228114D02*
D03*
X0384187Y0228114D02*
D03*
X0388518Y0228114D02*
D03*
X0392849Y0228114D02*
D03*
X0397179Y0228114D02*
D03*
X0401510Y0228114D02*
D03*
X0405841Y0228114D02*
D03*
X0410172Y0228114D02*
D03*
X0414502Y0228114D02*
D03*
X0418833Y0228114D02*
D03*
X0393498Y0086661D02*
D03*
X0399109Y0086661D02*
D03*
X0404305Y0086661D02*
D03*
X0409502Y0086661D02*
D03*
X0388262Y0086661D02*
D03*
X0385211Y0086661D02*
D03*
X0380880Y0086661D02*
D03*
X0376550Y0086661D02*
D03*
X0372219Y0086661D02*
D03*
X0367888Y0086661D02*
D03*
X0363558Y0086661D02*
D03*
X0359227Y0086661D02*
D03*
X0354896Y0086661D02*
D03*
X0350565Y0086661D02*
D03*
X0346235Y0086661D02*
D03*
X0341904Y0086661D02*
D03*
X0337573Y0086661D02*
D03*
X0333243Y0086661D02*
D03*
X0328912Y0086661D02*
D03*
X0324581Y0086661D02*
D03*
X0320250Y0086661D02*
D03*
X0315920Y0086661D02*
D03*
X0311589Y0086661D02*
D03*
X0307258Y0086661D02*
D03*
X0302928Y0086661D02*
D03*
X0298597Y0086661D02*
D03*
X0423164Y0228114D02*
D03*
X0427494Y0228114D02*
D03*
X0449148Y0228114D02*
D03*
X0281274Y0086661D02*
D03*
D484*
X0275853Y0180862D02*
D03*
X0275853Y0183460D02*
D03*
X0275853Y0186059D02*
D03*
X0275853Y0188657D02*
D03*
X0275853Y0191256D02*
D03*
X0275853Y0193854D02*
D03*
X0275853Y0196453D02*
D03*
X0275853Y0199051D02*
D03*
X0275853Y0110705D02*
D03*
X0275853Y0108106D02*
D03*
X0275853Y0105508D02*
D03*
X0275853Y0102909D02*
D03*
X0275853Y0113303D02*
D03*
X0275853Y0126295D02*
D03*
X0275853Y0128894D02*
D03*
X0275853Y0131492D02*
D03*
X0275853Y0134090D02*
D03*
X0275853Y0136689D02*
D03*
X0275853Y0139287D02*
D03*
X0275853Y0141886D02*
D03*
X0275853Y0144484D02*
D03*
X0275853Y0147082D02*
D03*
X0275853Y0149681D02*
D03*
X0275853Y0152279D02*
D03*
X0275853Y0154878D02*
D03*
X0275853Y0157476D02*
D03*
X0275853Y0160075D02*
D03*
X0275853Y0162673D02*
D03*
X0275853Y0165271D02*
D03*
X0275853Y0167870D02*
D03*
X0275853Y0170468D02*
D03*
X0275853Y0173067D02*
D03*
X0275853Y0175665D02*
D03*
X0275853Y0178264D02*
D03*
X0455093Y0091590D02*
D03*
X0455093Y0094189D02*
D03*
X0455093Y0096787D02*
D03*
X0455093Y0099386D02*
D03*
X0455093Y0101984D02*
D03*
X0455093Y0104582D02*
D03*
X0455093Y0107181D02*
D03*
X0455093Y0109779D02*
D03*
X0455093Y0086393D02*
D03*
X0455093Y0088992D02*
D03*
X0283636Y0016614D02*
G01*
G75*
D299*
X0297120Y0070059D02*
D03*
X0324581Y0048110D02*
D03*
X0341904Y0048110D02*
D03*
X0333144Y0048110D02*
D03*
X0303321Y0050748D02*
D03*
X0319955Y0048110D02*
D03*
X0353337Y0050784D02*
D03*
X0227230Y0286050D02*
G01*
G75*
D139*
X0119744Y0282846D02*
D03*
X0124688Y0282846D02*
D03*
D206*
X0225374Y0242886D02*
D03*
X0225374Y0246331D02*
D03*
X0225374Y0250563D02*
D03*
X0225374Y0262866D02*
D03*
X0225374Y0271823D02*
D03*
D93*
X0226161Y0124874D02*
D03*
X0226161Y0126606D02*
D03*
X0226161Y0128338D02*
D03*
X0226161Y0130071D02*
D03*
X0226161Y0131803D02*
D03*
X0226161Y0133535D02*
D03*
X0226161Y0135268D02*
D03*
X0226161Y0148673D02*
D03*
X0226161Y0151272D02*
D03*
X0226161Y0153870D02*
D03*
X0226161Y0156469D02*
D03*
X0226161Y0160898D02*
D03*
X0226161Y0162630D02*
D03*
X0226161Y0164362D02*
D03*
X0226161Y0166094D02*
D03*
X0226161Y0167827D02*
D03*
X0226161Y0169559D02*
D03*
X0226161Y0171291D02*
D03*
X0226161Y0173024D02*
D03*
X0226161Y0181665D02*
D03*
X0226161Y0184799D02*
D03*
X0226161Y0187948D02*
D03*
X0226161Y0191098D02*
D03*
X0226161Y0200642D02*
D03*
X0226161Y0198043D02*
D03*
X0226161Y0193870D02*
D03*
D137*
X0225747Y0216606D02*
D03*
X0225747Y0239638D02*
D03*
X0225747Y0280464D02*
D03*
X0225747Y0277728D02*
D03*
X0225747Y0275050D02*
D03*
X0225747Y0266684D02*
D03*
X0225747Y0257846D02*
D03*
X0225747Y0255287D02*
D03*
D225*
X0222204Y0284126D02*
D03*
X0217578Y0284126D02*
D03*
X0212263Y0284126D02*
D03*
X0207637Y0284126D02*
D03*
X0179291Y0284126D02*
D03*
D237*
X0150059Y0283338D02*
D03*
D31*
X0175452Y0284520D02*
D03*
X0182715Y0284520D02*
D03*
X0189113Y0284520D02*
D03*
X0203622Y0284520D02*
D03*
X0200825Y0284520D02*
D03*
X0197282Y0284520D02*
D03*
X0185590Y0284520D02*
D03*
X0330026Y0241556D02*
G01*
G75*
D299*
X0319128Y0246969D02*
D03*
X0326778Y0275611D02*
D03*
X0323432Y0275611D02*
D03*
X0316739Y0275611D02*
D03*
X0320085Y0275611D02*
D03*
X0314332Y0281316D02*
D03*
X0311522Y0242540D02*
D03*
X0317034Y0242540D02*
D03*
X0321266Y0242540D02*
D03*
X0326778Y0242540D02*
D03*
X0225705Y0040135D02*
G01*
G75*
D71*
X0198362Y0087792D02*
D03*
X0208362Y0087792D02*
D03*
X0198362Y0077792D02*
D03*
X0208362Y0077792D02*
D03*
X0198362Y0067792D02*
D03*
X0208362Y0067792D02*
D03*
X0198362Y0057792D02*
D03*
X0208362Y0057792D02*
D03*
X0198362Y0047792D02*
D03*
D255*
X0208362Y0047792D02*
D03*
D588*
X0224130Y0086296D02*
D03*
X0224130Y0081966D02*
D03*
X0224130Y0077635D02*
D03*
X0224130Y0073304D02*
D03*
X0224130Y0068974D02*
D03*
X0224130Y0064643D02*
D03*
X0228677Y0411712D02*
G01*
G75*
D299*
X0253086Y0380511D02*
D03*
X0239110Y0380216D02*
D03*
X0234090Y0381397D02*
D03*
X0236157Y0384842D02*
D03*
X0422880Y0354011D02*
G01*
G75*
X0118358Y0414701D02*
G01*
G75*
D299*
X0084332Y0439672D02*
D03*
X0058516Y0471985D02*
D03*
X0086271Y0447083D02*
D03*
X0090701Y0418146D02*
D03*
X0063732Y0439603D02*
D03*
X0085581Y0227165D02*
G01*
G75*
D299*
X0058416Y0333858D02*
D03*
X0058416Y0376771D02*
D03*
X0073376Y0235137D02*
D03*
X0058416Y0277952D02*
D03*
X0058416Y0229672D02*
D03*
X0318406Y0367126D02*
%LPD*%
G01*
D639*
X0266831Y0507835D03*
D640*
X0266831Y0497835D03*
X0266831Y0487835D03*
D360*
X0307579Y0371299D03*
X0311579Y0391299D03*
X0303579Y0391299D03*
X0436982Y0078065D02*
G01*
G75*
D299*
X0405781Y0053656D02*
D03*
X0405486Y0067632D02*
D03*
X0406667Y0072652D02*
D03*
X0410112Y0070585D02*
D03*
M02*
