G75*
G70*
%OFA0B0*%
%FSLAX25Y25*%
%IPPOS*%
%LPD*%
%AMOC8*
5,1,8,0,0,1.08239X$1,22.5*
%
%ADD10C,0.01969*%
%ADD148C,0.00472*%
%ADD188C,0.00880*%
%ADD202C,0.00787*%
%ADD252C,0.01000*%
%ADD26C,0.01181*%
%ADD279C,0.01575*%
%ADD326C,0.00500*%
%ADD339C,0.00591*%
%ADD344C,0.00984*%
%ADD47C,0.01476*%
%ADD50C,0.01378*%
%ADD86C,0.00390*%
X0000000Y0000000D02*
%LPD*%
G01*
D47*
X0119664Y0416092D02*
X0117695Y0416092D01*
X0116851Y0412999D02*
X0119664Y0412999D01*
X0119664Y0418905D01*
X0116851Y0418905D01*
X0115164Y0418905D02*
X0111790Y0418905D01*
X0113477Y0412999D02*
X0113477Y0418905D01*
X0107853Y0416092D02*
X0107009Y0415811D01*
X0106728Y0415530D01*
X0106446Y0414968D01*
X0106446Y0414124D01*
X0106728Y0413562D01*
X0107009Y0413280D01*
X0107571Y0412999D01*
X0109821Y0412999D01*
X0109821Y0418905D01*
X0107853Y0418905D01*
X0107290Y0418623D01*
X0107009Y0418342D01*
X0106728Y0417780D01*
X0106728Y0417217D01*
X0107009Y0416655D01*
X0107290Y0416374D01*
X0107853Y0416092D01*
X0109821Y0416092D01*
D344*
X0240375Y0425879D02*
X0235876Y0425879D01*
X0238125Y0423629D02*
X0238125Y0428128D01*
X0230251Y0429535D02*
X0233063Y0429535D01*
X0233345Y0426722D01*
X0233063Y0427004D01*
X0232501Y0427285D01*
X0231095Y0427285D01*
X0230532Y0427004D01*
X0230251Y0426722D01*
X0229970Y0426160D01*
X0229970Y0424754D01*
X0230251Y0424191D01*
X0230532Y0423910D01*
X0231095Y0423629D01*
X0232501Y0423629D01*
X0233063Y0423910D01*
X0233345Y0424191D01*
X0228283Y0429535D02*
X0226314Y0423629D01*
X0224346Y0429535D01*
X0236101Y0489293D02*
X0236663Y0489574D01*
X0237507Y0489574D01*
X0238350Y0489293D01*
X0238913Y0488730D01*
X0239194Y0488168D01*
X0239475Y0487043D01*
X0239475Y0486199D01*
X0239194Y0485074D01*
X0238913Y0484512D01*
X0238350Y0483950D01*
X0237507Y0483668D01*
X0236944Y0483668D01*
X0236101Y0483950D01*
X0235819Y0484231D01*
X0235819Y0486199D01*
X0236944Y0486199D01*
X0233288Y0483668D02*
X0233288Y0489574D01*
X0229914Y0483668D01*
X0229914Y0489574D01*
X0227102Y0483668D02*
X0227102Y0489574D01*
X0225696Y0489574D01*
X0224852Y0489293D01*
X0224290Y0488730D01*
X0224008Y0488168D01*
X0223727Y0487043D01*
X0223727Y0486199D01*
X0224008Y0485074D01*
X0224290Y0484512D01*
X0224852Y0483950D01*
X0225696Y0483668D01*
X0227102Y0483668D01*
X0244326Y0439672D02*
X0240951Y0439672D01*
X0242639Y0433767D02*
X0242639Y0439672D01*
X0238983Y0433767D02*
X0238983Y0439672D01*
X0236733Y0439672D01*
X0236171Y0439391D01*
X0235890Y0439110D01*
X0235608Y0438547D01*
X0235608Y0437704D01*
X0235890Y0437141D01*
X0236171Y0436860D01*
X0236733Y0436579D01*
X0238983Y0436579D01*
X0233359Y0434048D02*
X0232515Y0433767D01*
X0231109Y0433767D01*
X0230547Y0434048D01*
X0230265Y0434329D01*
X0229984Y0434892D01*
X0229984Y0435454D01*
X0230265Y0436017D01*
X0230547Y0436298D01*
X0231109Y0436579D01*
X0232234Y0436860D01*
X0232796Y0437141D01*
X0233077Y0437423D01*
X0233359Y0437985D01*
X0233359Y0438547D01*
X0233077Y0439110D01*
X0232796Y0439391D01*
X0232234Y0439672D01*
X0230828Y0439672D01*
X0229984Y0439391D01*
X0224360Y0433767D02*
X0227734Y0433767D01*
X0226047Y0433767D02*
X0226047Y0439672D01*
X0226610Y0438829D01*
X0227172Y0438266D01*
X0227734Y0437985D01*
X0244284Y0453649D02*
X0244284Y0459554D01*
X0242034Y0459554D01*
X0241472Y0459273D01*
X0241191Y0458992D01*
X0240909Y0458429D01*
X0240909Y0457586D01*
X0241191Y0457023D01*
X0241472Y0456742D01*
X0242034Y0456461D01*
X0244284Y0456461D01*
X0238378Y0453649D02*
X0238378Y0459554D01*
X0236129Y0459554D01*
X0235566Y0459273D01*
X0235285Y0458992D01*
X0235004Y0458429D01*
X0235004Y0457586D01*
X0235285Y0457023D01*
X0235566Y0456742D01*
X0236129Y0456461D01*
X0238378Y0456461D01*
X0232754Y0453930D02*
X0231910Y0453649D01*
X0230504Y0453649D01*
X0229942Y0453930D01*
X0229661Y0454211D01*
X0229380Y0454774D01*
X0229380Y0455336D01*
X0229661Y0455898D01*
X0229942Y0456180D01*
X0230504Y0456461D01*
X0231629Y0456742D01*
X0232192Y0457023D01*
X0232473Y0457304D01*
X0232754Y0457867D01*
X0232754Y0458429D01*
X0232473Y0458992D01*
X0232192Y0459273D01*
X0231629Y0459554D01*
X0230223Y0459554D01*
X0229380Y0459273D01*
X0223755Y0453649D02*
X0227130Y0453649D01*
X0225442Y0453649D02*
X0225442Y0459554D01*
X0226005Y0458711D01*
X0226567Y0458148D01*
X0227130Y0457867D01*
X0244720Y0449023D02*
X0241345Y0449023D01*
X0243032Y0443117D02*
X0243032Y0449023D01*
X0239377Y0443117D02*
X0239377Y0449023D01*
X0237127Y0449023D01*
X0236565Y0448741D01*
X0236283Y0448460D01*
X0236002Y0447898D01*
X0236002Y0447054D01*
X0236283Y0446492D01*
X0236565Y0446211D01*
X0237127Y0445929D01*
X0239377Y0445929D01*
X0233752Y0443398D02*
X0232909Y0443117D01*
X0231503Y0443117D01*
X0230940Y0443398D01*
X0230659Y0443680D01*
X0230378Y0444242D01*
X0230378Y0444804D01*
X0230659Y0445367D01*
X0230940Y0445648D01*
X0231503Y0445929D01*
X0232628Y0446211D01*
X0233190Y0446492D01*
X0233471Y0446773D01*
X0233752Y0447335D01*
X0233752Y0447898D01*
X0233471Y0448460D01*
X0233190Y0448741D01*
X0232628Y0449023D01*
X0231221Y0449023D01*
X0230378Y0448741D01*
X0228128Y0448460D02*
X0227847Y0448741D01*
X0227284Y0449023D01*
X0225878Y0449023D01*
X0225316Y0448741D01*
X0225035Y0448460D01*
X0224754Y0447898D01*
X0224754Y0447335D01*
X0225035Y0446492D01*
X0228409Y0443117D01*
X0224754Y0443117D01*
X0236494Y0480139D02*
X0237057Y0480420D01*
X0237900Y0480420D01*
X0238744Y0480139D01*
X0239306Y0479577D01*
X0239588Y0479014D01*
X0239869Y0477889D01*
X0239869Y0477046D01*
X0239588Y0475921D01*
X0239306Y0475358D01*
X0238744Y0474796D01*
X0237900Y0474515D01*
X0237338Y0474515D01*
X0236494Y0474796D01*
X0236213Y0475077D01*
X0236213Y0477046D01*
X0237338Y0477046D01*
X0233682Y0474515D02*
X0233682Y0480420D01*
X0230308Y0474515D01*
X0230308Y0480420D01*
X0227495Y0474515D02*
X0227495Y0480420D01*
X0226089Y0480420D01*
X0225246Y0480139D01*
X0224683Y0479577D01*
X0224402Y0479014D01*
X0224121Y0477889D01*
X0224121Y0477046D01*
X0224402Y0475921D01*
X0224683Y0475358D01*
X0225246Y0474796D01*
X0226089Y0474515D01*
X0227495Y0474515D01*
X0240375Y0416233D02*
X0235876Y0416233D01*
X0238125Y0413983D02*
X0238125Y0418483D01*
X0230251Y0419889D02*
X0233063Y0419889D01*
X0233345Y0417077D01*
X0233063Y0417358D01*
X0232501Y0417639D01*
X0231095Y0417639D01*
X0230532Y0417358D01*
X0230251Y0417077D01*
X0229970Y0416514D01*
X0229970Y0415108D01*
X0230251Y0414546D01*
X0230532Y0414265D01*
X0231095Y0413983D01*
X0232501Y0413983D01*
X0233063Y0414265D01*
X0233345Y0414546D01*
X0228283Y0419889D02*
X0226314Y0413983D01*
X0224346Y0419889D01*
X0245268Y0464082D02*
X0245268Y0469987D01*
X0243018Y0469987D01*
X0242456Y0469706D01*
X0242175Y0469425D01*
X0241894Y0468862D01*
X0241894Y0468019D01*
X0242175Y0467456D01*
X0242456Y0467175D01*
X0243018Y0466894D01*
X0245268Y0466894D01*
X0239363Y0464082D02*
X0239363Y0469987D01*
X0237113Y0469987D01*
X0236550Y0469706D01*
X0236269Y0469425D01*
X0235988Y0468862D01*
X0235988Y0468019D01*
X0236269Y0467456D01*
X0236550Y0467175D01*
X0237113Y0466894D01*
X0239363Y0466894D01*
X0233738Y0464363D02*
X0232895Y0464082D01*
X0231489Y0464082D01*
X0230926Y0464363D01*
X0230645Y0464644D01*
X0230364Y0465207D01*
X0230364Y0465769D01*
X0230645Y0466331D01*
X0230926Y0466613D01*
X0231489Y0466894D01*
X0232613Y0467175D01*
X0233176Y0467456D01*
X0233457Y0467738D01*
X0233738Y0468300D01*
X0233738Y0468862D01*
X0233457Y0469425D01*
X0233176Y0469706D01*
X0232613Y0469987D01*
X0231207Y0469987D01*
X0230364Y0469706D01*
X0228114Y0469425D02*
X0227833Y0469706D01*
X0227270Y0469987D01*
X0225864Y0469987D01*
X0225302Y0469706D01*
X0225021Y0469425D01*
X0224739Y0468862D01*
X0224739Y0468300D01*
X0225021Y0467456D01*
X0228395Y0464082D01*
X0224739Y0464082D01*
D47*
X0207656Y0466289D02*
X0205687Y0466289D01*
X0204844Y0463196D02*
X0207656Y0463196D01*
X0207656Y0469101D01*
X0204844Y0469101D01*
X0203156Y0469101D02*
X0199782Y0469101D01*
X0201469Y0463196D02*
X0201469Y0469101D01*
X0195845Y0466289D02*
X0195001Y0466008D01*
X0194720Y0465727D01*
X0194439Y0465164D01*
X0194439Y0464321D01*
X0194720Y0463758D01*
X0195001Y0463477D01*
X0195563Y0463196D01*
X0197813Y0463196D01*
X0197813Y0469101D01*
X0195845Y0469101D01*
X0195282Y0468820D01*
X0195001Y0468539D01*
X0194720Y0467977D01*
X0194720Y0467414D01*
X0195001Y0466852D01*
X0195282Y0466571D01*
X0195845Y0466289D01*
X0197813Y0466289D01*
D344*
X0236516Y0592028D02*
X0236516Y0555020D01*
X0234154Y0552657D02*
X0234154Y0547933D01*
X0273130Y0522736D02*
X0273130Y0592028D01*
X0234154Y0547933D02*
X0236122Y0545965D01*
X0236516Y0555020D02*
X0234154Y0552657D01*
X0236122Y0545965D02*
X0236122Y0523130D01*
X0273130Y0592028D02*
X0236516Y0592028D01*
D188*
X0090339Y0533251D02*
X0092624Y0533251D01*
X0091481Y0533251D02*
X0091481Y0537251D01*
X0091862Y0536679D01*
X0092243Y0536298D01*
X0092624Y0536108D01*
X0088624Y0535346D02*
X0087291Y0535346D01*
X0086720Y0533251D02*
X0088624Y0533251D01*
X0088624Y0537251D01*
X0086720Y0537251D01*
X0494534Y0568627D02*
X0492058Y0568627D01*
X0493391Y0567104D01*
X0492820Y0567104D01*
X0492439Y0566913D01*
X0492248Y0566723D01*
X0492058Y0566342D01*
X0492058Y0565389D01*
X0492248Y0565008D01*
X0492439Y0564818D01*
X0492820Y0564627D01*
X0493963Y0564627D01*
X0494344Y0564818D01*
X0494534Y0565008D01*
X0488058Y0564627D02*
X0489391Y0566532D01*
X0490344Y0564627D02*
X0490344Y0568627D01*
X0488820Y0568627D01*
X0488439Y0568437D01*
X0488248Y0568247D01*
X0488058Y0567866D01*
X0488058Y0567294D01*
X0488248Y0566913D01*
X0488439Y0566723D01*
X0488820Y0566532D01*
X0490344Y0566532D01*
D50*
X0265668Y0588859D02*
X0263794Y0580985D01*
X0262294Y0586609D01*
X0260794Y0580985D01*
X0258919Y0588859D01*
X0253295Y0585110D02*
X0252170Y0584735D01*
X0251795Y0584360D01*
X0251420Y0583610D01*
X0251420Y0582485D01*
X0251795Y0581735D01*
X0252170Y0581360D01*
X0252920Y0580985D01*
X0255920Y0580985D01*
X0255920Y0588859D01*
X0253295Y0588859D01*
X0252545Y0588484D01*
X0252170Y0588109D01*
X0251795Y0587359D01*
X0251795Y0586609D01*
X0252170Y0585860D01*
X0252545Y0585485D01*
X0253295Y0585110D01*
X0255920Y0585110D01*
X0246546Y0588859D02*
X0245046Y0588859D01*
X0244296Y0588484D01*
X0243546Y0587734D01*
X0243171Y0586235D01*
X0243171Y0583610D01*
X0243546Y0582110D01*
X0244296Y0581360D01*
X0245046Y0580985D01*
X0246546Y0580985D01*
X0247296Y0581360D01*
X0248046Y0582110D01*
X0248421Y0583610D01*
X0248421Y0586235D01*
X0248046Y0587734D01*
X0247296Y0588484D01*
X0246546Y0588859D01*
D188*
X0246840Y0577486D02*
X0245507Y0573486D01*
X0244174Y0577486D01*
X0243031Y0573676D02*
X0242460Y0573486D01*
X0241507Y0573486D01*
X0241126Y0573676D01*
X0240936Y0573867D01*
X0240745Y0574248D01*
X0240745Y0574629D01*
X0240936Y0575010D01*
X0241126Y0575200D01*
X0241507Y0575391D01*
X0242269Y0575581D01*
X0242650Y0575771D01*
X0242840Y0575962D01*
X0243031Y0576343D01*
X0243031Y0576724D01*
X0242840Y0577105D01*
X0242650Y0577295D01*
X0242269Y0577486D01*
X0241317Y0577486D01*
X0240745Y0577295D01*
X0422577Y0573450D02*
X0422768Y0573069D01*
X0422768Y0572497D01*
X0422577Y0571926D01*
X0422197Y0571545D01*
X0421816Y0571355D01*
X0421054Y0571164D01*
X0420482Y0571164D01*
X0419720Y0571355D01*
X0419339Y0571545D01*
X0418958Y0571926D01*
X0418768Y0572497D01*
X0418768Y0572878D01*
X0418958Y0573450D01*
X0419149Y0573640D01*
X0420482Y0573640D01*
X0420482Y0572878D01*
X0418768Y0575355D02*
X0422768Y0575355D01*
X0418768Y0577640D01*
X0422768Y0577640D01*
X0418768Y0579545D02*
X0422768Y0579545D01*
X0422768Y0580497D01*
X0422577Y0581069D01*
X0422197Y0581450D01*
X0421816Y0581640D01*
X0421054Y0581831D01*
X0420482Y0581831D01*
X0419720Y0581640D01*
X0419339Y0581450D01*
X0418958Y0581069D01*
X0418768Y0580497D01*
X0418768Y0579545D01*
X0232389Y0566999D02*
X0232389Y0564332D01*
X0233342Y0568523D02*
X0234294Y0565666D01*
X0231818Y0565666D01*
X0228961Y0566427D02*
X0230294Y0566427D01*
X0230294Y0564332D02*
X0230294Y0568332D01*
X0228389Y0568332D01*
X0482129Y0536127D02*
X0479653Y0536127D01*
X0480987Y0534604D01*
X0480415Y0534604D01*
X0480034Y0534413D01*
X0479844Y0534223D01*
X0479653Y0533842D01*
X0479653Y0532889D01*
X0479844Y0532508D01*
X0480034Y0532318D01*
X0480415Y0532127D01*
X0481558Y0532127D01*
X0481939Y0532318D01*
X0482129Y0532508D01*
X0477177Y0536127D02*
X0476415Y0536127D01*
X0476034Y0535937D01*
X0475653Y0535556D01*
X0475463Y0534794D01*
X0475463Y0533461D01*
X0475653Y0532699D01*
X0476034Y0532318D01*
X0476415Y0532127D01*
X0477177Y0532127D01*
X0477558Y0532318D01*
X0477939Y0532699D01*
X0478129Y0533461D01*
X0478129Y0534794D01*
X0477939Y0535556D01*
X0477558Y0535937D01*
X0477177Y0536127D01*
X0149338Y0532324D02*
X0151624Y0532324D01*
X0150481Y0532324D02*
X0150481Y0536324D01*
X0150862Y0535753D01*
X0151243Y0535372D01*
X0151624Y0535181D01*
X0146862Y0536324D02*
X0146100Y0536324D01*
X0145719Y0536134D01*
X0145338Y0535753D01*
X0145148Y0534991D01*
X0145148Y0533658D01*
X0145338Y0532896D01*
X0145719Y0532515D01*
X0146100Y0532324D01*
X0146862Y0532324D01*
X0147243Y0532515D01*
X0147624Y0532896D01*
X0147814Y0533658D01*
X0147814Y0534991D01*
X0147624Y0535753D01*
X0147243Y0536134D01*
X0146862Y0536324D01*
X0348063Y0516002D02*
X0348063Y0518287D01*
X0344063Y0517145D02*
X0348063Y0517145D01*
X0345206Y0519430D02*
X0345206Y0521335D01*
X0344063Y0519049D02*
X0348063Y0520383D01*
X0344063Y0521716D01*
X0344444Y0525335D02*
X0344254Y0525145D01*
X0344063Y0524573D01*
X0344063Y0524192D01*
X0344254Y0523621D01*
X0344635Y0523240D01*
X0345016Y0523049D01*
X0345778Y0522859D01*
X0346349Y0522859D01*
X0347111Y0523049D01*
X0347492Y0523240D01*
X0347873Y0523621D01*
X0348063Y0524192D01*
X0348063Y0524573D01*
X0347873Y0525145D01*
X0347682Y0525335D01*
X0344063Y0527049D02*
X0348063Y0527049D01*
X0346158Y0527049D02*
X0346158Y0529335D01*
X0344063Y0529335D02*
X0348063Y0529335D01*
X0126362Y0564824D02*
X0128648Y0564824D01*
X0127505Y0564824D02*
X0127505Y0568824D01*
X0127886Y0568253D01*
X0128267Y0567872D01*
X0128648Y0567681D01*
X0122743Y0564824D02*
X0124648Y0564824D01*
X0124648Y0568824D01*
X0446558Y0568627D02*
X0444082Y0568627D01*
X0445415Y0567104D01*
X0444844Y0567104D01*
X0444463Y0566913D01*
X0444272Y0566723D01*
X0444082Y0566342D01*
X0444082Y0565389D01*
X0444272Y0565008D01*
X0444463Y0564818D01*
X0444844Y0564627D01*
X0445987Y0564627D01*
X0446367Y0564818D01*
X0446558Y0565008D01*
X0441225Y0568627D02*
X0441225Y0565770D01*
X0441415Y0565199D01*
X0441796Y0564818D01*
X0442367Y0564627D01*
X0442748Y0564627D01*
X0314215Y0526053D02*
X0314405Y0525863D01*
X0314976Y0525672D01*
X0315357Y0525672D01*
X0315929Y0525863D01*
X0316310Y0526244D01*
X0316500Y0526625D01*
X0316691Y0527386D01*
X0316691Y0527958D01*
X0316500Y0528720D01*
X0316310Y0529101D01*
X0315929Y0529482D01*
X0315357Y0529672D01*
X0314976Y0529672D01*
X0314405Y0529482D01*
X0314215Y0529291D01*
X0310595Y0525672D02*
X0312500Y0525672D01*
X0312500Y0529672D01*
X0309834Y0529672D02*
X0307548Y0529672D01*
X0308691Y0525672D02*
X0308691Y0529672D01*
X0494629Y0536127D02*
X0492153Y0536127D01*
X0493487Y0534604D01*
X0492915Y0534604D01*
X0492534Y0534413D01*
X0492344Y0534223D01*
X0492153Y0533842D01*
X0492153Y0532889D01*
X0492344Y0532508D01*
X0492534Y0532318D01*
X0492915Y0532127D01*
X0494058Y0532127D01*
X0494439Y0532318D01*
X0494629Y0532508D01*
X0487772Y0531747D02*
X0488153Y0531937D01*
X0488534Y0532318D01*
X0489106Y0532889D01*
X0489487Y0533080D01*
X0489867Y0533080D01*
X0489677Y0532127D02*
X0490058Y0532318D01*
X0490439Y0532699D01*
X0490629Y0533461D01*
X0490629Y0534794D01*
X0490439Y0535556D01*
X0490058Y0535937D01*
X0489677Y0536127D01*
X0488915Y0536127D01*
X0488534Y0535937D01*
X0488153Y0535556D01*
X0487963Y0534794D01*
X0487963Y0533461D01*
X0488153Y0532699D01*
X0488534Y0532318D01*
X0488915Y0532127D01*
X0489677Y0532127D01*
X0160824Y0572517D02*
X0160824Y0573850D01*
X0158729Y0574421D02*
X0158729Y0572517D01*
X0162729Y0572517D01*
X0162729Y0574421D01*
X0159110Y0578421D02*
X0158919Y0578231D01*
X0158729Y0577659D01*
X0158729Y0577278D01*
X0158919Y0576707D01*
X0159300Y0576326D01*
X0159681Y0576136D01*
X0160443Y0575945D01*
X0161014Y0575945D01*
X0161776Y0576136D01*
X0162157Y0576326D01*
X0162538Y0576707D01*
X0162729Y0577278D01*
X0162729Y0577659D01*
X0162538Y0578231D01*
X0162348Y0578421D01*
X0160824Y0581469D02*
X0160824Y0580136D01*
X0158729Y0580136D02*
X0162729Y0580136D01*
X0162729Y0582040D01*
X0079243Y0564824D02*
X0081529Y0564824D01*
X0080386Y0564824D02*
X0080386Y0568824D01*
X0080767Y0568253D01*
X0081148Y0567872D01*
X0081529Y0567681D01*
X0077529Y0564824D02*
X0077529Y0568824D01*
X0076576Y0568824D01*
X0076005Y0568634D01*
X0075624Y0568253D01*
X0075433Y0567872D01*
X0075243Y0567110D01*
X0075243Y0566539D01*
X0075433Y0565777D01*
X0075624Y0565396D01*
X0076005Y0565015D01*
X0076576Y0564824D01*
X0077529Y0564824D01*
X0334602Y0575143D02*
X0334411Y0574952D01*
X0334221Y0574381D01*
X0334221Y0574000D01*
X0334411Y0573428D01*
X0334792Y0573047D01*
X0335173Y0572857D01*
X0335935Y0572666D01*
X0336506Y0572666D01*
X0337268Y0572857D01*
X0337649Y0573047D01*
X0338030Y0573428D01*
X0338221Y0574000D01*
X0338221Y0574381D01*
X0338030Y0574952D01*
X0337840Y0575143D01*
X0334221Y0579143D02*
X0336125Y0577809D01*
X0334221Y0576857D02*
X0338221Y0576857D01*
X0338221Y0578381D01*
X0338030Y0578762D01*
X0337840Y0578952D01*
X0337459Y0579143D01*
X0336887Y0579143D01*
X0336506Y0578952D01*
X0336316Y0578762D01*
X0336125Y0578381D01*
X0336125Y0576857D01*
X0335364Y0580666D02*
X0335364Y0582571D01*
X0334221Y0580285D02*
X0338221Y0581619D01*
X0334221Y0582952D01*
X0334221Y0584285D02*
X0338221Y0584285D01*
X0334221Y0586571D01*
X0338221Y0586571D01*
X0334221Y0588476D02*
X0338221Y0588476D01*
X0334221Y0590762D02*
X0336506Y0589047D01*
X0338221Y0590762D02*
X0335935Y0588476D01*
X0220980Y0529967D02*
X0218695Y0529967D01*
X0219838Y0525967D02*
X0219838Y0529967D01*
X0216790Y0529967D02*
X0217171Y0529777D01*
X0217361Y0529396D01*
X0217171Y0529015D01*
X0216790Y0528825D01*
X0216409Y0529015D01*
X0216218Y0529396D01*
X0216409Y0529777D01*
X0216790Y0529967D01*
X0397034Y0568627D02*
X0394558Y0568627D01*
X0395891Y0567104D01*
X0395320Y0567104D01*
X0394939Y0566913D01*
X0394748Y0566723D01*
X0394558Y0566342D01*
X0394558Y0565389D01*
X0394748Y0565008D01*
X0394939Y0564818D01*
X0395320Y0564627D01*
X0396463Y0564627D01*
X0396844Y0564818D01*
X0397034Y0565008D01*
X0391510Y0566723D02*
X0390939Y0566532D01*
X0390748Y0566342D01*
X0390558Y0565961D01*
X0390558Y0565389D01*
X0390748Y0565008D01*
X0390939Y0564818D01*
X0391320Y0564627D01*
X0392844Y0564627D01*
X0392844Y0568627D01*
X0391510Y0568627D01*
X0391129Y0568437D01*
X0390939Y0568247D01*
X0390748Y0567866D01*
X0390748Y0567485D01*
X0390939Y0567104D01*
X0391129Y0566913D01*
X0391510Y0566723D01*
X0392844Y0566723D01*
X0267675Y0534499D02*
X0267675Y0531832D01*
X0268627Y0536023D02*
X0269580Y0533166D01*
X0267104Y0533166D01*
X0265580Y0531832D02*
X0265580Y0535832D01*
X0263294Y0531832D02*
X0265008Y0534118D01*
X0263294Y0535832D02*
X0265580Y0533546D01*
D339*
X0248137Y0529600D02*
X0247218Y0526451D01*
X0246299Y0529600D01*
X0245512Y0526601D02*
X0245118Y0526451D01*
X0244462Y0526451D01*
X0244200Y0526601D01*
X0244068Y0526750D01*
X0243937Y0527050D01*
X0243937Y0527350D01*
X0244068Y0527650D01*
X0244200Y0527800D01*
X0244462Y0527950D01*
X0244987Y0528100D01*
X0245249Y0528250D01*
X0245381Y0528400D01*
X0245512Y0528700D01*
X0245512Y0529000D01*
X0245381Y0529300D01*
X0245249Y0529450D01*
X0244987Y0529600D01*
X0244331Y0529600D01*
X0243937Y0529450D01*
X0240787Y0529750D02*
X0243150Y0525701D01*
X0239869Y0526451D02*
X0239869Y0529600D01*
X0238556Y0526451D02*
X0238556Y0529600D01*
X0237507Y0529600D01*
X0237244Y0529450D01*
X0237113Y0529300D01*
X0236982Y0529000D01*
X0236982Y0528550D01*
X0237113Y0528250D01*
X0237244Y0528100D01*
X0237507Y0527950D01*
X0238556Y0527950D01*
D188*
X0403546Y0527907D02*
X0403927Y0528097D01*
X0404499Y0528097D01*
X0405070Y0527907D01*
X0405451Y0527526D01*
X0405642Y0527145D01*
X0405832Y0526383D01*
X0405832Y0525812D01*
X0405642Y0525050D01*
X0405451Y0524669D01*
X0405070Y0524288D01*
X0404499Y0524097D01*
X0404118Y0524097D01*
X0403546Y0524288D01*
X0403356Y0524478D01*
X0403356Y0525812D01*
X0404118Y0525812D01*
X0401642Y0524097D02*
X0401642Y0528097D01*
X0399356Y0524097D01*
X0399356Y0528097D01*
X0397451Y0524097D02*
X0397451Y0528097D01*
X0396499Y0528097D01*
X0395927Y0527907D01*
X0395546Y0527526D01*
X0395356Y0527145D01*
X0395165Y0526383D01*
X0395165Y0525812D01*
X0395356Y0525050D01*
X0395546Y0524669D01*
X0395927Y0524288D01*
X0396499Y0524097D01*
X0397451Y0524097D01*
X0430874Y0570660D02*
X0434874Y0570660D01*
X0434684Y0574660D02*
X0434874Y0574279D01*
X0434874Y0573707D01*
X0434684Y0573136D01*
X0434303Y0572755D01*
X0433922Y0572564D01*
X0433160Y0572374D01*
X0432589Y0572374D01*
X0431827Y0572564D01*
X0431446Y0572755D01*
X0431065Y0573136D01*
X0430874Y0573707D01*
X0430874Y0574088D01*
X0431065Y0574660D01*
X0431255Y0574850D01*
X0432589Y0574850D01*
X0432589Y0574088D01*
X0430874Y0576564D02*
X0434874Y0576564D01*
X0430874Y0578850D01*
X0434874Y0578850D01*
X0434493Y0580564D02*
X0434684Y0580755D01*
X0434874Y0581136D01*
X0434874Y0582088D01*
X0434684Y0582469D01*
X0434493Y0582660D01*
X0434112Y0582850D01*
X0433731Y0582850D01*
X0433160Y0582660D01*
X0430874Y0580374D01*
X0430874Y0582850D01*
X0434874Y0584183D02*
X0434874Y0586660D01*
X0433350Y0585326D01*
X0433350Y0585898D01*
X0433160Y0586279D01*
X0432969Y0586469D01*
X0432589Y0586660D01*
X0431636Y0586660D01*
X0431255Y0586469D01*
X0431065Y0586279D01*
X0430874Y0585898D01*
X0430874Y0584755D01*
X0431065Y0584374D01*
X0431255Y0584183D01*
X0207582Y0529777D02*
X0207963Y0529967D01*
X0208534Y0529967D01*
X0209106Y0529777D01*
X0209487Y0529396D01*
X0209677Y0529015D01*
X0209868Y0528253D01*
X0209868Y0527682D01*
X0209677Y0526920D01*
X0209487Y0526539D01*
X0209106Y0526158D01*
X0208534Y0525967D01*
X0208153Y0525967D01*
X0207582Y0526158D01*
X0207391Y0526348D01*
X0207391Y0527682D01*
X0208153Y0527682D01*
X0205677Y0525967D02*
X0205677Y0529967D01*
X0203391Y0525967D01*
X0203391Y0529967D01*
X0201487Y0525967D02*
X0201487Y0529967D01*
X0200534Y0529967D01*
X0199963Y0529777D01*
X0199582Y0529396D01*
X0199391Y0529015D01*
X0199201Y0528253D01*
X0199201Y0527682D01*
X0199391Y0526920D01*
X0199582Y0526539D01*
X0199963Y0526158D01*
X0200534Y0525967D01*
X0201487Y0525967D01*
X0506939Y0536127D02*
X0504463Y0536127D01*
X0505796Y0534604D01*
X0505225Y0534604D01*
X0504844Y0534413D01*
X0504653Y0534223D01*
X0504463Y0533842D01*
X0504463Y0532889D01*
X0504653Y0532508D01*
X0504844Y0532318D01*
X0505225Y0532127D01*
X0506367Y0532127D01*
X0506748Y0532318D01*
X0506939Y0532508D01*
X0502939Y0532318D02*
X0502367Y0532127D01*
X0501415Y0532127D01*
X0501034Y0532318D01*
X0500844Y0532508D01*
X0500653Y0532889D01*
X0500653Y0533270D01*
X0500844Y0533651D01*
X0501034Y0533842D01*
X0501415Y0534032D01*
X0502177Y0534223D01*
X0502558Y0534413D01*
X0502748Y0534604D01*
X0502939Y0534985D01*
X0502939Y0535366D01*
X0502748Y0535747D01*
X0502558Y0535937D01*
X0502177Y0536127D01*
X0501225Y0536127D01*
X0500653Y0535937D01*
X0532320Y0536127D02*
X0529844Y0536127D01*
X0531177Y0534604D01*
X0530606Y0534604D01*
X0530225Y0534413D01*
X0530034Y0534223D01*
X0529844Y0533842D01*
X0529844Y0532889D01*
X0530034Y0532508D01*
X0530225Y0532318D01*
X0530606Y0532127D01*
X0531748Y0532127D01*
X0532129Y0532318D01*
X0532320Y0532508D01*
X0528510Y0536127D02*
X0527558Y0532127D01*
X0526796Y0534985D01*
X0526034Y0532127D01*
X0525082Y0536127D01*
X0459534Y0536127D02*
X0457058Y0536127D01*
X0458391Y0534604D01*
X0457820Y0534604D01*
X0457439Y0534413D01*
X0457248Y0534223D01*
X0457058Y0533842D01*
X0457058Y0532889D01*
X0457248Y0532508D01*
X0457439Y0532318D01*
X0457820Y0532127D01*
X0458963Y0532127D01*
X0459344Y0532318D01*
X0459534Y0532508D01*
X0455344Y0532127D02*
X0455344Y0536127D01*
X0453058Y0532127D02*
X0454772Y0534413D01*
X0453058Y0536127D02*
X0455344Y0533842D01*
X0327785Y0568443D02*
X0327595Y0568634D01*
X0327214Y0568824D01*
X0326262Y0568824D01*
X0325881Y0568634D01*
X0325690Y0568443D01*
X0325500Y0568062D01*
X0325500Y0567681D01*
X0325690Y0567110D01*
X0327976Y0564824D01*
X0325500Y0564824D01*
X0323785Y0564824D02*
X0323785Y0568824D01*
X0323785Y0566920D02*
X0321500Y0566920D01*
X0321500Y0564824D02*
X0321500Y0568824D01*
X0550362Y0535836D02*
X0554362Y0535836D01*
X0550362Y0537741D02*
X0554362Y0537741D01*
X0550362Y0540026D01*
X0554362Y0540026D01*
X0554362Y0543074D02*
X0551505Y0543074D01*
X0550934Y0542883D01*
X0550553Y0542502D01*
X0550362Y0541931D01*
X0550362Y0541550D01*
X0554362Y0544598D02*
X0554362Y0547074D01*
X0552839Y0545741D01*
X0552839Y0546312D01*
X0552648Y0546693D01*
X0552458Y0546883D01*
X0552077Y0547074D01*
X0551124Y0547074D01*
X0550743Y0546883D01*
X0550553Y0546693D01*
X0550362Y0546312D01*
X0550362Y0545169D01*
X0550553Y0544788D01*
X0550743Y0544598D01*
X0436010Y0535950D02*
X0433534Y0535950D01*
X0434868Y0534427D01*
X0434296Y0534427D01*
X0433915Y0534236D01*
X0433725Y0534046D01*
X0433534Y0533665D01*
X0433534Y0532712D01*
X0433725Y0532331D01*
X0433915Y0532141D01*
X0434296Y0531950D01*
X0435439Y0531950D01*
X0435820Y0532141D01*
X0436010Y0532331D01*
X0429725Y0535760D02*
X0430106Y0535950D01*
X0430677Y0535950D01*
X0431249Y0535760D01*
X0431630Y0535379D01*
X0431820Y0534998D01*
X0432010Y0534236D01*
X0432010Y0533665D01*
X0431820Y0532903D01*
X0431630Y0532522D01*
X0431249Y0532141D01*
X0430677Y0531950D01*
X0430296Y0531950D01*
X0429725Y0532141D01*
X0429534Y0532331D01*
X0429534Y0533665D01*
X0430296Y0533665D01*
X0231217Y0571215D02*
X0231217Y0574263D01*
X0229693Y0572739D02*
X0232741Y0572739D01*
X0233693Y0578072D02*
X0233693Y0576167D01*
X0231788Y0575977D01*
X0231979Y0576167D01*
X0232169Y0576548D01*
X0232169Y0577501D01*
X0231979Y0577882D01*
X0231788Y0578072D01*
X0231407Y0578263D01*
X0230455Y0578263D01*
X0230074Y0578072D01*
X0229884Y0577882D01*
X0229693Y0577501D01*
X0229693Y0576548D01*
X0229884Y0576167D01*
X0230074Y0575977D01*
X0233693Y0579406D02*
X0229693Y0580739D01*
X0233693Y0582072D01*
X0230836Y0583215D02*
X0230836Y0585120D01*
X0229693Y0582834D02*
X0233693Y0584167D01*
X0229693Y0585501D01*
X0173767Y0564824D02*
X0176052Y0564824D01*
X0174910Y0564824D02*
X0174910Y0568824D01*
X0175291Y0568253D01*
X0175672Y0567872D01*
X0176052Y0567681D01*
X0172624Y0568824D02*
X0170338Y0568824D01*
X0171481Y0564824D02*
X0171481Y0568824D01*
X0471336Y0536127D02*
X0468859Y0536127D01*
X0470193Y0534604D01*
X0469621Y0534604D01*
X0469240Y0534413D01*
X0469050Y0534223D01*
X0468859Y0533842D01*
X0468859Y0532889D01*
X0469050Y0532508D01*
X0469240Y0532318D01*
X0469621Y0532127D01*
X0470764Y0532127D01*
X0471145Y0532318D01*
X0471336Y0532508D01*
X0467145Y0532127D02*
X0467145Y0536127D01*
X0465812Y0533270D01*
X0464478Y0536127D01*
X0464478Y0532127D01*
D10*
X0024585Y0313257D02*
X0036396Y0313257D01*
X0030772Y0313257D02*
X0030772Y0317756D01*
X0024585Y0317756D02*
X0036396Y0317756D01*
X0025147Y0324505D02*
X0024585Y0323756D01*
X0024585Y0322256D01*
X0025147Y0321506D01*
X0026272Y0321131D01*
X0030772Y0321131D01*
X0031896Y0321506D01*
X0032459Y0322256D01*
X0032459Y0323756D01*
X0031896Y0324505D01*
X0030772Y0324880D01*
X0029647Y0324880D01*
X0028522Y0321131D01*
X0024585Y0329380D02*
X0025147Y0328630D01*
X0026272Y0328255D01*
X0036396Y0328255D01*
X0024585Y0333504D02*
X0025147Y0332754D01*
X0026272Y0332379D01*
X0036396Y0332379D01*
X0025147Y0339504D02*
X0024585Y0338754D01*
X0024585Y0337254D01*
X0025147Y0336504D01*
X0026272Y0336129D01*
X0030772Y0336129D01*
X0031896Y0336504D01*
X0032459Y0337254D01*
X0032459Y0338754D01*
X0031896Y0339504D01*
X0030772Y0339879D01*
X0029647Y0339879D01*
X0028522Y0336129D01*
X0032459Y0343253D02*
X0024585Y0343253D01*
X0031334Y0343253D02*
X0031896Y0343628D01*
X0032459Y0344378D01*
X0032459Y0345503D01*
X0031896Y0346253D01*
X0030772Y0346628D01*
X0024585Y0346628D01*
X0024585Y0350377D02*
X0036396Y0350377D01*
X0024585Y0354877D01*
X0036396Y0354877D01*
X0030772Y0361251D02*
X0030209Y0362376D01*
X0029647Y0362751D01*
X0028522Y0363126D01*
X0026835Y0363126D01*
X0025710Y0362751D01*
X0025147Y0362376D01*
X0024585Y0361626D01*
X0024585Y0358626D01*
X0036396Y0358626D01*
X0036396Y0361251D01*
X0035833Y0362001D01*
X0035271Y0362376D01*
X0034146Y0362751D01*
X0033021Y0362751D01*
X0031896Y0362376D01*
X0031334Y0362001D01*
X0030772Y0361251D01*
X0030772Y0358626D01*
X0024585Y0370625D02*
X0024585Y0366125D01*
X0024585Y0368375D02*
X0036396Y0368375D01*
X0034709Y0367625D01*
X0033584Y0366875D01*
X0033021Y0366125D01*
D188*
X0309811Y0572279D02*
X0313811Y0572279D01*
X0309811Y0574565D02*
X0312097Y0572850D01*
X0313811Y0574565D02*
X0311526Y0572279D01*
X0309811Y0576279D02*
X0313811Y0576279D01*
X0309811Y0578565D01*
X0313811Y0578565D01*
X0313811Y0581231D02*
X0313811Y0581993D01*
X0313621Y0582374D01*
X0313240Y0582755D01*
X0312478Y0582946D01*
X0311145Y0582946D01*
X0310383Y0582755D01*
X0310002Y0582374D01*
X0309811Y0581993D01*
X0309811Y0581231D01*
X0310002Y0580850D01*
X0310383Y0580469D01*
X0311145Y0580279D01*
X0312478Y0580279D01*
X0313240Y0580469D01*
X0313621Y0580850D01*
X0313811Y0581231D01*
X0310192Y0586946D02*
X0310002Y0586755D01*
X0309811Y0586184D01*
X0309811Y0585803D01*
X0310002Y0585231D01*
X0310383Y0584850D01*
X0310764Y0584660D01*
X0311526Y0584469D01*
X0312097Y0584469D01*
X0312859Y0584660D01*
X0313240Y0584850D01*
X0313621Y0585231D01*
X0313811Y0585803D01*
X0313811Y0586184D01*
X0313621Y0586755D01*
X0313430Y0586946D01*
X0309811Y0588660D02*
X0313811Y0588660D01*
X0309811Y0590946D02*
X0312097Y0589231D01*
X0313811Y0590946D02*
X0311526Y0588660D01*
X0245175Y0534499D02*
X0245175Y0531832D01*
X0246127Y0536023D02*
X0247080Y0533166D01*
X0244604Y0533166D01*
X0240985Y0535642D02*
X0241366Y0535832D01*
X0241937Y0535832D01*
X0242508Y0535642D01*
X0242889Y0535261D01*
X0243080Y0534880D01*
X0243270Y0534118D01*
X0243270Y0533546D01*
X0243080Y0532785D01*
X0242889Y0532404D01*
X0242508Y0532023D01*
X0241937Y0531832D01*
X0241556Y0531832D01*
X0240985Y0532023D01*
X0240794Y0532213D01*
X0240794Y0533546D01*
X0241556Y0533546D01*
X0445987Y0536127D02*
X0443510Y0536127D01*
X0444844Y0534604D01*
X0444272Y0534604D01*
X0443891Y0534413D01*
X0443701Y0534223D01*
X0443510Y0533842D01*
X0443510Y0532889D01*
X0443701Y0532508D01*
X0443891Y0532318D01*
X0444272Y0532127D01*
X0445415Y0532127D01*
X0445796Y0532318D01*
X0445987Y0532508D01*
X0441796Y0532127D02*
X0441796Y0536127D01*
X0219380Y0572883D02*
X0219190Y0573455D01*
X0218999Y0573645D01*
X0218618Y0573836D01*
X0218047Y0573836D01*
X0217666Y0573645D01*
X0217475Y0573455D01*
X0217285Y0573074D01*
X0217285Y0571550D01*
X0221285Y0571550D01*
X0221285Y0572883D01*
X0221094Y0573264D01*
X0220904Y0573455D01*
X0220523Y0573645D01*
X0220142Y0573645D01*
X0219761Y0573455D01*
X0219571Y0573264D01*
X0219380Y0572883D01*
X0219380Y0571550D01*
X0221285Y0576312D02*
X0221285Y0577074D01*
X0221094Y0577455D01*
X0220714Y0577836D01*
X0219952Y0578026D01*
X0218618Y0578026D01*
X0217856Y0577836D01*
X0217475Y0577455D01*
X0217285Y0577074D01*
X0217285Y0576312D01*
X0217475Y0575931D01*
X0217856Y0575550D01*
X0218618Y0575359D01*
X0219952Y0575359D01*
X0220714Y0575550D01*
X0221094Y0575931D01*
X0221285Y0576312D01*
X0221285Y0580502D02*
X0221285Y0581264D01*
X0221094Y0581645D01*
X0220714Y0582026D01*
X0219952Y0582217D01*
X0218618Y0582217D01*
X0217856Y0582026D01*
X0217475Y0581645D01*
X0217285Y0581264D01*
X0217285Y0580502D01*
X0217475Y0580121D01*
X0217856Y0579740D01*
X0218618Y0579550D01*
X0219952Y0579550D01*
X0220714Y0579740D01*
X0221094Y0580121D01*
X0221285Y0580502D01*
X0217475Y0583740D02*
X0217285Y0584312D01*
X0217285Y0585264D01*
X0217475Y0585645D01*
X0217666Y0585836D01*
X0218047Y0586026D01*
X0218428Y0586026D01*
X0218809Y0585836D01*
X0218999Y0585645D01*
X0219190Y0585264D01*
X0219380Y0584502D01*
X0219571Y0584121D01*
X0219761Y0583931D01*
X0220142Y0583740D01*
X0220523Y0583740D01*
X0220904Y0583931D01*
X0221094Y0584121D01*
X0221285Y0584502D01*
X0221285Y0585455D01*
X0221094Y0586026D01*
X0221285Y0587169D02*
X0221285Y0589455D01*
X0217285Y0588312D02*
X0221285Y0588312D01*
D202*
X0259048Y0027216D02*
X0256236Y0027216D01*
X0259610Y0025529D02*
X0257642Y0031434D01*
X0255673Y0025529D01*
X0252861Y0025529D02*
X0253423Y0025810D01*
X0253705Y0026372D01*
X0253705Y0031434D01*
X0251174Y0029466D02*
X0250049Y0025529D01*
X0248924Y0028341D01*
X0247799Y0025529D01*
X0246674Y0029466D01*
X0241894Y0025529D02*
X0241894Y0028622D01*
X0242175Y0029184D01*
X0242737Y0029466D01*
X0243862Y0029466D01*
X0244424Y0029184D01*
X0241894Y0025810D02*
X0242456Y0025529D01*
X0243862Y0025529D01*
X0244424Y0025810D01*
X0244706Y0026372D01*
X0244706Y0026935D01*
X0244424Y0027497D01*
X0243862Y0027778D01*
X0242456Y0027778D01*
X0241894Y0028060D01*
X0239644Y0029466D02*
X0238238Y0025529D01*
X0236832Y0029466D02*
X0238238Y0025529D01*
X0238800Y0024123D01*
X0239081Y0023841D01*
X0239644Y0023560D01*
X0234863Y0025810D02*
X0234301Y0025529D01*
X0233176Y0025529D01*
X0232613Y0025810D01*
X0232332Y0026372D01*
X0232332Y0026653D01*
X0232613Y0027216D01*
X0233176Y0027497D01*
X0234020Y0027497D01*
X0234582Y0027778D01*
X0234863Y0028341D01*
X0234863Y0028622D01*
X0234582Y0029184D01*
X0234020Y0029466D01*
X0233176Y0029466D01*
X0232613Y0029184D01*
X0224458Y0025529D02*
X0225021Y0025810D01*
X0225302Y0026372D01*
X0225302Y0031434D01*
X0221365Y0025529D02*
X0221927Y0025810D01*
X0222209Y0026091D01*
X0222490Y0026653D01*
X0222490Y0028341D01*
X0222209Y0028903D01*
X0221927Y0029184D01*
X0221365Y0029466D01*
X0220521Y0029466D01*
X0219959Y0029184D01*
X0219678Y0028903D01*
X0219396Y0028341D01*
X0219396Y0026653D01*
X0219678Y0026091D01*
X0219959Y0025810D01*
X0220521Y0025529D01*
X0221365Y0025529D01*
X0216022Y0025529D02*
X0216584Y0025810D01*
X0216865Y0026091D01*
X0217147Y0026653D01*
X0217147Y0028341D01*
X0216865Y0028903D01*
X0216584Y0029184D01*
X0216022Y0029466D01*
X0215178Y0029466D01*
X0214616Y0029184D01*
X0214335Y0028903D01*
X0214053Y0028341D01*
X0214053Y0026653D01*
X0214335Y0026091D01*
X0214616Y0025810D01*
X0215178Y0025529D01*
X0216022Y0025529D01*
X0211522Y0025529D02*
X0211522Y0031434D01*
X0210960Y0027778D02*
X0209273Y0025529D01*
X0209273Y0029466D02*
X0211522Y0027216D01*
X0206742Y0025529D02*
X0206742Y0029466D01*
X0206742Y0031434D02*
X0207023Y0031153D01*
X0206742Y0030872D01*
X0206460Y0031153D01*
X0206742Y0031434D01*
X0206742Y0030872D01*
X0203930Y0029466D02*
X0203930Y0025529D01*
X0203930Y0028903D02*
X0203648Y0029184D01*
X0203086Y0029466D01*
X0202242Y0029466D01*
X0201680Y0029184D01*
X0201399Y0028622D01*
X0201399Y0025529D01*
X0196056Y0029466D02*
X0196056Y0024685D01*
X0196337Y0024123D01*
X0196618Y0023841D01*
X0197180Y0023560D01*
X0198024Y0023560D01*
X0198586Y0023841D01*
X0196056Y0025810D02*
X0196618Y0025529D01*
X0197743Y0025529D01*
X0198305Y0025810D01*
X0198586Y0026091D01*
X0198868Y0026653D01*
X0198868Y0028341D01*
X0198586Y0028903D01*
X0198305Y0029184D01*
X0197743Y0029466D01*
X0196618Y0029466D01*
X0196056Y0029184D01*
X0189588Y0029466D02*
X0187338Y0029466D01*
X0188744Y0025529D02*
X0188744Y0030590D01*
X0188463Y0031153D01*
X0187900Y0031434D01*
X0187338Y0031434D01*
X0184526Y0025529D02*
X0185088Y0025810D01*
X0185369Y0026091D01*
X0185651Y0026653D01*
X0185651Y0028341D01*
X0185369Y0028903D01*
X0185088Y0029184D01*
X0184526Y0029466D01*
X0183682Y0029466D01*
X0183120Y0029184D01*
X0182838Y0028903D01*
X0182557Y0028341D01*
X0182557Y0026653D01*
X0182838Y0026091D01*
X0183120Y0025810D01*
X0183682Y0025529D01*
X0184526Y0025529D01*
X0180026Y0025529D02*
X0180026Y0029466D01*
X0180026Y0028341D02*
X0179745Y0028903D01*
X0179464Y0029184D01*
X0178901Y0029466D01*
X0178339Y0029466D01*
X0168496Y0026091D02*
X0168778Y0025810D01*
X0169621Y0025529D01*
X0170184Y0025529D01*
X0171027Y0025810D01*
X0171590Y0026372D01*
X0171871Y0026935D01*
X0172152Y0028060D01*
X0172152Y0028903D01*
X0171871Y0030028D01*
X0171590Y0030590D01*
X0171027Y0031153D01*
X0170184Y0031434D01*
X0169621Y0031434D01*
X0168778Y0031153D01*
X0168496Y0030872D01*
X0161747Y0031715D02*
X0166809Y0024123D01*
X0156404Y0026091D02*
X0156685Y0025810D01*
X0157529Y0025529D01*
X0158092Y0025529D01*
X0158935Y0025810D01*
X0159498Y0026372D01*
X0159779Y0026935D01*
X0160060Y0028060D01*
X0160060Y0028903D01*
X0159779Y0030028D01*
X0159498Y0030590D01*
X0158935Y0031153D01*
X0158092Y0031434D01*
X0157529Y0031434D01*
X0156685Y0031153D01*
X0156404Y0030872D01*
X0153873Y0027778D02*
X0149374Y0027778D01*
X0151624Y0025529D02*
X0151624Y0030028D01*
X0146562Y0027778D02*
X0142062Y0027778D01*
X0144312Y0025529D02*
X0144312Y0030028D01*
X0135032Y0031715D02*
X0140094Y0024123D01*
X0133063Y0025529D02*
X0133063Y0031434D01*
X0130814Y0031434D01*
X0130251Y0031153D01*
X0129970Y0030872D01*
X0129689Y0030309D01*
X0129689Y0029466D01*
X0129970Y0028903D01*
X0130251Y0028622D01*
X0130814Y0028341D01*
X0133063Y0028341D01*
X0127158Y0025529D02*
X0127158Y0031434D01*
X0127158Y0028622D02*
X0123783Y0028622D01*
X0123783Y0025529D02*
X0123783Y0031434D01*
X0120971Y0025529D02*
X0120971Y0031434D01*
X0118721Y0031434D01*
X0118159Y0031153D01*
X0117878Y0030872D01*
X0117597Y0030309D01*
X0117597Y0029466D01*
X0117878Y0028903D01*
X0118159Y0028622D01*
X0118721Y0028341D01*
X0120971Y0028341D01*
X0110847Y0031715D02*
X0115909Y0024123D01*
X0107192Y0031434D02*
X0107192Y0027216D01*
X0107473Y0026372D01*
X0108035Y0025810D01*
X0108879Y0025529D01*
X0109441Y0025529D01*
X0101849Y0025529D02*
X0101849Y0028622D01*
X0102130Y0029184D01*
X0102692Y0029466D01*
X0103817Y0029466D01*
X0104380Y0029184D01*
X0101849Y0025810D02*
X0102411Y0025529D01*
X0103817Y0025529D01*
X0104380Y0025810D01*
X0104661Y0026372D01*
X0104661Y0026935D01*
X0104380Y0027497D01*
X0103817Y0027778D01*
X0102411Y0027778D01*
X0101849Y0028060D01*
X0099599Y0029466D02*
X0098193Y0025529D01*
X0096787Y0029466D01*
X0092006Y0025529D02*
X0092006Y0028622D01*
X0092287Y0029184D01*
X0092850Y0029466D01*
X0093975Y0029466D01*
X0094537Y0029184D01*
X0092006Y0025810D02*
X0092568Y0025529D01*
X0093975Y0025529D01*
X0094537Y0025810D01*
X0094818Y0026372D01*
X0094818Y0026935D01*
X0094537Y0027497D01*
X0093975Y0027778D01*
X0092568Y0027778D01*
X0092006Y0028060D01*
X0082164Y0025529D02*
X0082164Y0031434D01*
X0082164Y0025810D02*
X0082726Y0025529D01*
X0083851Y0025529D01*
X0084413Y0025810D01*
X0084694Y0026091D01*
X0084976Y0026653D01*
X0084976Y0028341D01*
X0084694Y0028903D01*
X0084413Y0029184D01*
X0083851Y0029466D01*
X0082726Y0029466D01*
X0082164Y0029184D01*
X0077102Y0025810D02*
X0077664Y0025529D01*
X0078789Y0025529D01*
X0079351Y0025810D01*
X0079633Y0026372D01*
X0079633Y0028622D01*
X0079351Y0029184D01*
X0078789Y0029466D01*
X0077664Y0029466D01*
X0077102Y0029184D01*
X0076820Y0028622D01*
X0076820Y0028060D01*
X0079633Y0027497D01*
X0074852Y0029466D02*
X0073446Y0025529D01*
X0072040Y0029466D01*
X0067540Y0025810D02*
X0068103Y0025529D01*
X0069228Y0025529D01*
X0069790Y0025810D01*
X0070071Y0026372D01*
X0070071Y0028622D01*
X0069790Y0029184D01*
X0069228Y0029466D01*
X0068103Y0029466D01*
X0067540Y0029184D01*
X0067259Y0028622D01*
X0067259Y0028060D01*
X0070071Y0027497D01*
X0063885Y0025529D02*
X0064447Y0025810D01*
X0064728Y0026372D01*
X0064728Y0031434D01*
X0060791Y0025529D02*
X0061354Y0025810D01*
X0061635Y0026091D01*
X0061916Y0026653D01*
X0061916Y0028341D01*
X0061635Y0028903D01*
X0061354Y0029184D01*
X0060791Y0029466D01*
X0059948Y0029466D01*
X0059385Y0029184D01*
X0059104Y0028903D01*
X0058823Y0028341D01*
X0058823Y0026653D01*
X0059104Y0026091D01*
X0059385Y0025810D01*
X0059948Y0025529D01*
X0060791Y0025529D01*
X0056292Y0029466D02*
X0056292Y0023560D01*
X0056292Y0029184D02*
X0055729Y0029466D01*
X0054604Y0029466D01*
X0054042Y0029184D01*
X0053761Y0028903D01*
X0053480Y0028341D01*
X0053480Y0026653D01*
X0053761Y0026091D01*
X0054042Y0025810D01*
X0054604Y0025529D01*
X0055729Y0025529D01*
X0056292Y0025810D01*
X0048699Y0025810D02*
X0049261Y0025529D01*
X0050386Y0025529D01*
X0050949Y0025810D01*
X0051230Y0026372D01*
X0051230Y0028622D01*
X0050949Y0029184D01*
X0050386Y0029466D01*
X0049261Y0029466D01*
X0048699Y0029184D01*
X0048418Y0028622D01*
X0048418Y0028060D01*
X0051230Y0027497D01*
X0045887Y0025529D02*
X0045887Y0029466D01*
X0045887Y0028341D02*
X0045606Y0028903D01*
X0045324Y0029184D01*
X0044762Y0029466D01*
X0044200Y0029466D01*
X0042512Y0025810D02*
X0041950Y0025529D01*
X0040825Y0025529D01*
X0040263Y0025810D01*
X0039981Y0026372D01*
X0039981Y0026653D01*
X0040263Y0027216D01*
X0040825Y0027497D01*
X0041669Y0027497D01*
X0042231Y0027778D01*
X0042512Y0028341D01*
X0042512Y0028622D01*
X0042231Y0029184D01*
X0041669Y0029466D01*
X0040825Y0029466D01*
X0040263Y0029184D01*
X0215319Y0016021D02*
X0215319Y0021926D01*
X0212788Y0016021D02*
X0212788Y0019114D01*
X0213069Y0019677D01*
X0213631Y0019958D01*
X0214475Y0019958D01*
X0215038Y0019677D01*
X0215319Y0019395D01*
X0210819Y0019958D02*
X0208570Y0019958D01*
X0209976Y0021926D02*
X0209976Y0016864D01*
X0209694Y0016302D01*
X0209132Y0016021D01*
X0208570Y0016021D01*
X0207445Y0019958D02*
X0205195Y0019958D01*
X0206601Y0021926D02*
X0206601Y0016864D01*
X0206320Y0016302D01*
X0205757Y0016021D01*
X0205195Y0016021D01*
X0203227Y0019958D02*
X0203227Y0014052D01*
X0203227Y0019677D02*
X0202664Y0019958D01*
X0201539Y0019958D01*
X0200977Y0019677D01*
X0200696Y0019395D01*
X0200414Y0018833D01*
X0200414Y0017146D01*
X0200696Y0016583D01*
X0200977Y0016302D01*
X0201539Y0016021D01*
X0202664Y0016021D01*
X0203227Y0016302D01*
X0198165Y0016302D02*
X0197602Y0016021D01*
X0196477Y0016021D01*
X0195915Y0016302D01*
X0195634Y0016864D01*
X0195634Y0017146D01*
X0195915Y0017708D01*
X0196477Y0017989D01*
X0197321Y0017989D01*
X0197883Y0018270D01*
X0198165Y0018833D01*
X0198165Y0019114D01*
X0197883Y0019677D01*
X0197321Y0019958D01*
X0196477Y0019958D01*
X0195915Y0019677D01*
X0193103Y0016583D02*
X0192822Y0016302D01*
X0193103Y0016021D01*
X0193384Y0016302D01*
X0193103Y0016583D01*
X0193103Y0016021D01*
X0193103Y0019677D02*
X0192822Y0019395D01*
X0193103Y0019114D01*
X0193384Y0019395D01*
X0193103Y0019677D01*
X0193103Y0019114D01*
X0186072Y0022207D02*
X0191134Y0014615D01*
X0179886Y0022207D02*
X0184948Y0014615D01*
X0177917Y0016021D02*
X0177917Y0019958D01*
X0177917Y0018833D02*
X0177636Y0019395D01*
X0177355Y0019677D01*
X0176792Y0019958D01*
X0176230Y0019958D01*
X0171730Y0019958D02*
X0171730Y0016021D01*
X0174261Y0019958D02*
X0174261Y0016864D01*
X0173980Y0016302D01*
X0173418Y0016021D01*
X0172574Y0016021D01*
X0172012Y0016302D01*
X0171730Y0016583D01*
X0169200Y0016302D02*
X0168637Y0016021D01*
X0167512Y0016021D01*
X0166950Y0016302D01*
X0166669Y0016864D01*
X0166669Y0017146D01*
X0166950Y0017708D01*
X0167512Y0017989D01*
X0168356Y0017989D01*
X0168918Y0018270D01*
X0169200Y0018833D01*
X0169200Y0019114D01*
X0168918Y0019677D01*
X0168356Y0019958D01*
X0167512Y0019958D01*
X0166950Y0019677D01*
X0161888Y0016302D02*
X0162450Y0016021D01*
X0163575Y0016021D01*
X0164138Y0016302D01*
X0164419Y0016864D01*
X0164419Y0019114D01*
X0164138Y0019677D01*
X0163575Y0019958D01*
X0162450Y0019958D01*
X0161888Y0019677D01*
X0161607Y0019114D01*
X0161607Y0018552D01*
X0164419Y0017989D01*
X0159919Y0019958D02*
X0157670Y0019958D01*
X0159076Y0016021D02*
X0159076Y0021083D01*
X0158795Y0021645D01*
X0158232Y0021926D01*
X0157670Y0021926D01*
X0155701Y0016021D02*
X0155701Y0019958D01*
X0155701Y0021926D02*
X0155982Y0021645D01*
X0155701Y0021364D01*
X0155420Y0021645D01*
X0155701Y0021926D01*
X0155701Y0021364D01*
X0152889Y0016583D02*
X0152608Y0016302D01*
X0152889Y0016021D01*
X0153170Y0016302D01*
X0152889Y0016583D01*
X0152889Y0016021D01*
X0147546Y0016302D02*
X0148108Y0016021D01*
X0149233Y0016021D01*
X0149796Y0016302D01*
X0150077Y0016583D01*
X0150358Y0017146D01*
X0150358Y0018833D01*
X0150077Y0019395D01*
X0149796Y0019677D01*
X0149233Y0019958D01*
X0148108Y0019958D01*
X0147546Y0019677D01*
X0144171Y0016021D02*
X0144734Y0016302D01*
X0145015Y0016583D01*
X0145296Y0017146D01*
X0145296Y0018833D01*
X0145015Y0019395D01*
X0144734Y0019677D01*
X0144171Y0019958D01*
X0143328Y0019958D01*
X0142765Y0019677D01*
X0142484Y0019395D01*
X0142203Y0018833D01*
X0142203Y0017146D01*
X0142484Y0016583D01*
X0142765Y0016302D01*
X0143328Y0016021D01*
X0144171Y0016021D01*
X0139672Y0016021D02*
X0139672Y0019958D01*
X0139672Y0019395D02*
X0139391Y0019677D01*
X0138828Y0019958D01*
X0137985Y0019958D01*
X0137422Y0019677D01*
X0137141Y0019114D01*
X0137141Y0016021D01*
X0137141Y0019114D02*
X0136860Y0019677D01*
X0136297Y0019958D01*
X0135454Y0019958D01*
X0134891Y0019677D01*
X0134610Y0019114D01*
X0134610Y0016021D01*
X0127580Y0022207D02*
X0132642Y0014615D01*
X0125892Y0016302D02*
X0125330Y0016021D01*
X0124205Y0016021D01*
X0123643Y0016302D01*
X0123362Y0016864D01*
X0123362Y0017146D01*
X0123643Y0017708D01*
X0124205Y0017989D01*
X0125049Y0017989D01*
X0125611Y0018270D01*
X0125892Y0018833D01*
X0125892Y0019114D01*
X0125611Y0019677D01*
X0125049Y0019958D01*
X0124205Y0019958D01*
X0123643Y0019677D01*
X0116612Y0022207D02*
X0121674Y0014615D01*
X0114644Y0016021D02*
X0114644Y0019958D01*
X0114644Y0019395D02*
X0114363Y0019677D01*
X0113800Y0019958D01*
X0112957Y0019958D01*
X0112394Y0019677D01*
X0112113Y0019114D01*
X0112113Y0016021D01*
X0112113Y0019114D02*
X0111832Y0019677D01*
X0111269Y0019958D01*
X0110426Y0019958D01*
X0109863Y0019677D01*
X0109582Y0019114D01*
X0109582Y0016021D01*
X0106770Y0016021D02*
X0106770Y0019958D01*
X0106770Y0021926D02*
X0107051Y0021645D01*
X0106770Y0021364D01*
X0106489Y0021645D01*
X0106770Y0021926D01*
X0106770Y0021364D01*
X0104239Y0016302D02*
X0103676Y0016021D01*
X0102552Y0016021D01*
X0101989Y0016302D01*
X0101708Y0016864D01*
X0101708Y0017146D01*
X0101989Y0017708D01*
X0102552Y0017989D01*
X0103395Y0017989D01*
X0103958Y0018270D01*
X0104239Y0018833D01*
X0104239Y0019114D01*
X0103958Y0019677D01*
X0103395Y0019958D01*
X0102552Y0019958D01*
X0101989Y0019677D01*
X0099458Y0016302D02*
X0098896Y0016021D01*
X0097771Y0016021D01*
X0097209Y0016302D01*
X0096927Y0016864D01*
X0096927Y0017146D01*
X0097209Y0017708D01*
X0097771Y0017989D01*
X0098615Y0017989D01*
X0099177Y0018270D01*
X0099458Y0018833D01*
X0099458Y0019114D01*
X0099177Y0019677D01*
X0098615Y0019958D01*
X0097771Y0019958D01*
X0097209Y0019677D01*
X0094396Y0016021D02*
X0094396Y0019958D01*
X0094396Y0021926D02*
X0094678Y0021645D01*
X0094396Y0021364D01*
X0094115Y0021645D01*
X0094396Y0021926D01*
X0094396Y0021364D01*
X0090741Y0016021D02*
X0091303Y0016302D01*
X0091584Y0016583D01*
X0091865Y0017146D01*
X0091865Y0018833D01*
X0091584Y0019395D01*
X0091303Y0019677D01*
X0090741Y0019958D01*
X0089897Y0019958D01*
X0089335Y0019677D01*
X0089053Y0019395D01*
X0088772Y0018833D01*
X0088772Y0017146D01*
X0089053Y0016583D01*
X0089335Y0016302D01*
X0089897Y0016021D01*
X0090741Y0016021D01*
X0086241Y0019958D02*
X0086241Y0016021D01*
X0086241Y0019395D02*
X0085960Y0019677D01*
X0085398Y0019958D01*
X0084554Y0019958D01*
X0083991Y0019677D01*
X0083710Y0019114D01*
X0083710Y0016021D01*
D188*
X0440785Y0524983D02*
X0440785Y0528983D01*
X0436785Y0528793D02*
X0437166Y0528983D01*
X0437738Y0528983D01*
X0438309Y0528793D01*
X0438690Y0528412D01*
X0438881Y0528031D01*
X0439071Y0527269D01*
X0439071Y0526697D01*
X0438881Y0525936D01*
X0438690Y0525555D01*
X0438309Y0525174D01*
X0437738Y0524983D01*
X0437357Y0524983D01*
X0436785Y0525174D01*
X0436595Y0525364D01*
X0436595Y0526697D01*
X0437357Y0526697D01*
X0434881Y0524983D02*
X0434881Y0528983D01*
X0432595Y0524983D01*
X0432595Y0528983D01*
X0428595Y0524983D02*
X0430881Y0524983D01*
X0429738Y0524983D02*
X0429738Y0528983D01*
X0430119Y0528412D01*
X0430500Y0528031D01*
X0430881Y0527840D01*
X0425166Y0527650D02*
X0425166Y0524983D01*
X0426119Y0529174D02*
X0427071Y0526316D01*
X0424595Y0526316D01*
X0550559Y0557785D02*
X0554559Y0557785D01*
X0550559Y0559689D02*
X0554559Y0559689D01*
X0550559Y0561975D01*
X0554559Y0561975D01*
X0554559Y0565023D02*
X0551702Y0565023D01*
X0551131Y0564832D01*
X0550750Y0564451D01*
X0550559Y0563880D01*
X0550559Y0563499D01*
X0553226Y0568642D02*
X0550559Y0568642D01*
X0554750Y0567689D02*
X0551893Y0566737D01*
X0551893Y0569213D01*
X0220175Y0534499D02*
X0220175Y0531832D01*
X0221127Y0536023D02*
X0222080Y0533166D01*
X0219604Y0533166D01*
X0215794Y0532213D02*
X0215985Y0532023D01*
X0216556Y0531832D01*
X0216937Y0531832D01*
X0217508Y0532023D01*
X0217889Y0532404D01*
X0218080Y0532785D01*
X0218270Y0533546D01*
X0218270Y0534118D01*
X0218080Y0534880D01*
X0217889Y0535261D01*
X0217508Y0535642D01*
X0216937Y0535832D01*
X0216556Y0535832D01*
X0215985Y0535642D01*
X0215794Y0535451D01*
X0362976Y0535943D02*
X0362785Y0536134D01*
X0362404Y0536324D01*
X0361452Y0536324D01*
X0361071Y0536134D01*
X0360881Y0535943D01*
X0360690Y0535562D01*
X0360690Y0535181D01*
X0360881Y0534610D01*
X0363166Y0532324D01*
X0360690Y0532324D01*
X0358976Y0532324D02*
X0358976Y0536324D01*
X0357642Y0533467D01*
X0356309Y0536324D01*
X0356309Y0532324D01*
X0113767Y0564824D02*
X0116052Y0564824D01*
X0114910Y0564824D02*
X0114910Y0568824D01*
X0115291Y0568253D01*
X0115672Y0567872D01*
X0116052Y0567681D01*
X0110910Y0568824D02*
X0110910Y0565967D01*
X0111100Y0565396D01*
X0111481Y0565015D01*
X0112052Y0564824D01*
X0112433Y0564824D01*
X0517650Y0572869D02*
X0517650Y0573631D01*
X0517459Y0574012D01*
X0517078Y0574393D01*
X0516317Y0574583D01*
X0514983Y0574583D01*
X0514221Y0574393D01*
X0513840Y0574012D01*
X0513650Y0573631D01*
X0513650Y0572869D01*
X0513840Y0572488D01*
X0514221Y0572107D01*
X0514983Y0571917D01*
X0516317Y0571917D01*
X0517078Y0572107D01*
X0517459Y0572488D01*
X0517650Y0572869D01*
X0517269Y0576107D02*
X0517459Y0576298D01*
X0517650Y0576679D01*
X0517650Y0577631D01*
X0517459Y0578012D01*
X0517269Y0578203D01*
X0516888Y0578393D01*
X0516507Y0578393D01*
X0515936Y0578203D01*
X0513650Y0575917D01*
X0513650Y0578393D01*
X0513650Y0580107D02*
X0517650Y0580107D01*
X0515745Y0580107D02*
X0515745Y0582393D01*
X0513650Y0582393D02*
X0517650Y0582393D01*
X0517269Y0584107D02*
X0517459Y0584298D01*
X0517650Y0584679D01*
X0517650Y0585631D01*
X0517459Y0586012D01*
X0517269Y0586203D01*
X0516888Y0586393D01*
X0516507Y0586393D01*
X0515936Y0586203D01*
X0513650Y0583917D01*
X0513650Y0586393D01*
X0220175Y0566999D02*
X0220175Y0564332D01*
X0221127Y0568523D02*
X0222080Y0565666D01*
X0219604Y0565666D01*
X0218080Y0564332D02*
X0218080Y0568332D01*
X0217127Y0568332D01*
X0216556Y0568142D01*
X0216175Y0567761D01*
X0215985Y0567380D01*
X0215794Y0566618D01*
X0215794Y0566046D01*
X0215985Y0565285D01*
X0216175Y0564904D01*
X0216556Y0564523D01*
X0217127Y0564332D01*
X0218080Y0564332D01*
X0232485Y0534499D02*
X0232485Y0531832D01*
X0233437Y0536023D02*
X0234389Y0533166D01*
X0231913Y0533166D01*
X0230389Y0533927D02*
X0229056Y0533927D01*
X0228485Y0531832D02*
X0230389Y0531832D01*
X0230389Y0535832D01*
X0228485Y0535832D01*
X0436106Y0568627D02*
X0433630Y0568627D01*
X0434963Y0567104D01*
X0434391Y0567104D01*
X0434010Y0566913D01*
X0433820Y0566723D01*
X0433630Y0566342D01*
X0433630Y0565389D01*
X0433820Y0565008D01*
X0434010Y0564818D01*
X0434391Y0564627D01*
X0435534Y0564627D01*
X0435915Y0564818D01*
X0436106Y0565008D01*
X0431915Y0564627D02*
X0431915Y0568627D01*
X0431915Y0566723D02*
X0429630Y0566723D01*
X0429630Y0564627D02*
X0429630Y0568627D01*
X0184338Y0532324D02*
X0186624Y0532324D01*
X0185481Y0532324D02*
X0185481Y0536324D01*
X0185862Y0535753D01*
X0186243Y0535372D01*
X0186624Y0535181D01*
X0182624Y0536324D02*
X0182624Y0533086D01*
X0182433Y0532705D01*
X0182243Y0532515D01*
X0181862Y0532324D01*
X0181100Y0532324D01*
X0180719Y0532515D01*
X0180529Y0532705D01*
X0180338Y0533086D01*
X0180338Y0536324D01*
X0245270Y0566999D02*
X0245270Y0564332D01*
X0246223Y0568523D02*
X0247175Y0565666D01*
X0244699Y0565666D01*
X0243175Y0564332D02*
X0243175Y0568332D01*
X0243175Y0566427D02*
X0240889Y0566427D01*
X0240889Y0564332D02*
X0240889Y0568332D01*
X0314904Y0568443D02*
X0314714Y0568634D01*
X0314333Y0568824D01*
X0313381Y0568824D01*
X0313000Y0568634D01*
X0312809Y0568443D01*
X0312619Y0568062D01*
X0312619Y0567681D01*
X0312809Y0567110D01*
X0315095Y0564824D01*
X0312619Y0564824D01*
X0309571Y0566920D02*
X0310904Y0566920D01*
X0310904Y0564824D02*
X0310904Y0568824D01*
X0309000Y0568824D01*
X0492945Y0517256D02*
X0488945Y0518589D01*
X0492945Y0519922D01*
X0488945Y0521256D02*
X0492945Y0521256D01*
X0489326Y0525446D02*
X0489136Y0525256D01*
X0488945Y0524684D01*
X0488945Y0524303D01*
X0489136Y0523732D01*
X0489517Y0523351D01*
X0489898Y0523161D01*
X0490659Y0522970D01*
X0491231Y0522970D01*
X0491993Y0523161D01*
X0492374Y0523351D01*
X0492755Y0523732D01*
X0492945Y0524303D01*
X0492945Y0524684D01*
X0492755Y0525256D01*
X0492564Y0525446D01*
X0489136Y0526970D02*
X0488945Y0527541D01*
X0488945Y0528494D01*
X0489136Y0528875D01*
X0489326Y0529065D01*
X0489707Y0529256D01*
X0490088Y0529256D01*
X0490469Y0529065D01*
X0490659Y0528875D01*
X0490850Y0528494D01*
X0491040Y0527732D01*
X0491231Y0527351D01*
X0491421Y0527161D01*
X0491802Y0526970D01*
X0492183Y0526970D01*
X0492564Y0527161D01*
X0492755Y0527351D01*
X0492945Y0527732D01*
X0492945Y0528684D01*
X0492755Y0529256D01*
X0412034Y0536127D02*
X0409558Y0536127D01*
X0410891Y0534604D01*
X0410320Y0534604D01*
X0409939Y0534413D01*
X0409748Y0534223D01*
X0409558Y0533842D01*
X0409558Y0532889D01*
X0409748Y0532508D01*
X0409939Y0532318D01*
X0410320Y0532127D01*
X0411463Y0532127D01*
X0411844Y0532318D01*
X0412034Y0532508D01*
X0405558Y0532508D02*
X0405748Y0532318D01*
X0406320Y0532127D01*
X0406701Y0532127D01*
X0407272Y0532318D01*
X0407653Y0532699D01*
X0407844Y0533080D01*
X0408034Y0533842D01*
X0408034Y0534413D01*
X0407844Y0535175D01*
X0407653Y0535556D01*
X0407272Y0535937D01*
X0406701Y0536127D01*
X0406320Y0536127D01*
X0405748Y0535937D01*
X0405558Y0535747D01*
X0304378Y0527012D02*
X0302473Y0527012D01*
X0304759Y0525869D02*
X0303426Y0529869D01*
X0302092Y0525869D01*
X0299426Y0527964D02*
X0300759Y0527964D01*
X0300759Y0525869D02*
X0300759Y0529869D01*
X0298854Y0529869D01*
X0295045Y0525869D02*
X0296378Y0527774D01*
X0297330Y0525869D02*
X0297330Y0529869D01*
X0295807Y0529869D01*
X0295426Y0529679D01*
X0295235Y0529488D01*
X0295045Y0529107D01*
X0295045Y0528536D01*
X0295235Y0528155D01*
X0295426Y0527964D01*
X0295807Y0527774D01*
X0297330Y0527774D01*
X0349809Y0568443D02*
X0349619Y0568634D01*
X0349238Y0568824D01*
X0348285Y0568824D01*
X0347904Y0568634D01*
X0347714Y0568443D01*
X0347523Y0568062D01*
X0347523Y0567681D01*
X0347714Y0567110D01*
X0350000Y0564824D01*
X0347523Y0564824D01*
X0343904Y0564824D02*
X0345809Y0564824D01*
X0345809Y0568824D01*
X0327559Y0535984D02*
X0327368Y0536175D01*
X0326987Y0536365D01*
X0326035Y0536365D01*
X0325654Y0536175D01*
X0325464Y0535984D01*
X0325273Y0535603D01*
X0325273Y0535222D01*
X0325464Y0534651D01*
X0327749Y0532365D01*
X0325273Y0532365D01*
X0321464Y0536175D02*
X0321845Y0536365D01*
X0322416Y0536365D01*
X0322987Y0536175D01*
X0323368Y0535794D01*
X0323559Y0535413D01*
X0323749Y0534651D01*
X0323749Y0534079D01*
X0323559Y0533317D01*
X0323368Y0532936D01*
X0322987Y0532556D01*
X0322416Y0532365D01*
X0322035Y0532365D01*
X0321464Y0532556D01*
X0321273Y0532746D01*
X0321273Y0534079D01*
X0322035Y0534079D01*
X0205671Y0571982D02*
X0209671Y0571982D01*
X0209671Y0572934D01*
X0209480Y0573506D01*
X0209099Y0573887D01*
X0208718Y0574077D01*
X0207957Y0574268D01*
X0207385Y0574268D01*
X0206623Y0574077D01*
X0206242Y0573887D01*
X0205861Y0573506D01*
X0205671Y0572934D01*
X0205671Y0571982D01*
X0205671Y0575982D02*
X0209671Y0575982D01*
X0209480Y0579982D02*
X0209671Y0579601D01*
X0209671Y0579029D01*
X0209480Y0578458D01*
X0209099Y0578077D01*
X0208718Y0577887D01*
X0207957Y0577696D01*
X0207385Y0577696D01*
X0206623Y0577887D01*
X0206242Y0578077D01*
X0205861Y0578458D01*
X0205671Y0579029D01*
X0205671Y0579410D01*
X0205861Y0579982D01*
X0206052Y0580172D01*
X0207385Y0580172D01*
X0207385Y0579410D01*
X0205671Y0581887D02*
X0209671Y0581887D01*
X0209671Y0583220D02*
X0209671Y0585506D01*
X0205671Y0584363D02*
X0209671Y0584363D01*
X0206814Y0586648D02*
X0206814Y0588553D01*
X0205671Y0586268D02*
X0209671Y0587601D01*
X0205671Y0588934D01*
X0205671Y0592172D02*
X0205671Y0590268D01*
X0209671Y0590268D01*
X0527429Y0571859D02*
X0531429Y0571859D01*
X0527429Y0573764D02*
X0531429Y0573764D01*
X0527429Y0576050D01*
X0531429Y0576050D01*
X0531429Y0579098D02*
X0528572Y0579098D01*
X0528001Y0578907D01*
X0527620Y0578526D01*
X0527429Y0577955D01*
X0527429Y0577574D01*
X0531048Y0580812D02*
X0531239Y0581002D01*
X0531429Y0581383D01*
X0531429Y0582336D01*
X0531239Y0582717D01*
X0531048Y0582907D01*
X0530667Y0583098D01*
X0530287Y0583098D01*
X0529715Y0582907D01*
X0527429Y0580621D01*
X0527429Y0583098D01*
X0136838Y0564824D02*
X0139124Y0564824D01*
X0137981Y0564824D02*
X0137981Y0568824D01*
X0138362Y0568253D01*
X0138743Y0567872D01*
X0139124Y0567681D01*
X0135124Y0564824D02*
X0135124Y0568824D01*
X0132838Y0564824D01*
X0132838Y0568824D01*
X0406957Y0571450D02*
X0410957Y0571450D01*
X0408100Y0572783D01*
X0410957Y0574116D01*
X0406957Y0574116D01*
X0408100Y0575831D02*
X0408100Y0577736D01*
X0406957Y0575450D02*
X0410957Y0576783D01*
X0406957Y0578116D01*
X0406957Y0579450D02*
X0410957Y0579450D01*
X0410957Y0580974D01*
X0410766Y0581355D01*
X0410576Y0581545D01*
X0410195Y0581736D01*
X0409624Y0581736D01*
X0409243Y0581545D01*
X0409052Y0581355D01*
X0408862Y0580974D01*
X0408862Y0579450D01*
X0207675Y0566999D02*
X0207675Y0564332D01*
X0208627Y0568523D02*
X0209580Y0565666D01*
X0207104Y0565666D01*
X0204247Y0566427D02*
X0203675Y0566237D01*
X0203485Y0566046D01*
X0203294Y0565666D01*
X0203294Y0565094D01*
X0203485Y0564713D01*
X0203675Y0564523D01*
X0204056Y0564332D01*
X0205580Y0564332D01*
X0205580Y0568332D01*
X0204247Y0568332D01*
X0203866Y0568142D01*
X0203675Y0567951D01*
X0203485Y0567570D01*
X0203485Y0567189D01*
X0203675Y0566808D01*
X0203866Y0566618D01*
X0204247Y0566427D01*
X0205580Y0566427D01*
X0503442Y0572707D02*
X0503251Y0573279D01*
X0503061Y0573469D01*
X0502680Y0573660D01*
X0502109Y0573660D01*
X0501728Y0573469D01*
X0501537Y0573279D01*
X0501347Y0572898D01*
X0501347Y0571374D01*
X0505347Y0571374D01*
X0505347Y0572707D01*
X0505156Y0573088D01*
X0504966Y0573279D01*
X0504585Y0573469D01*
X0504204Y0573469D01*
X0503823Y0573279D01*
X0503632Y0573088D01*
X0503442Y0572707D01*
X0503442Y0571374D01*
X0505347Y0576136D02*
X0505347Y0576898D01*
X0505156Y0577279D01*
X0504775Y0577660D01*
X0504013Y0577850D01*
X0502680Y0577850D01*
X0501918Y0577660D01*
X0501537Y0577279D01*
X0501347Y0576898D01*
X0501347Y0576136D01*
X0501537Y0575755D01*
X0501918Y0575374D01*
X0502680Y0575184D01*
X0504013Y0575184D01*
X0504775Y0575374D01*
X0505156Y0575755D01*
X0505347Y0576136D01*
X0505347Y0580326D02*
X0505347Y0581088D01*
X0505156Y0581469D01*
X0504775Y0581850D01*
X0504013Y0582041D01*
X0502680Y0582041D01*
X0501918Y0581850D01*
X0501537Y0581469D01*
X0501347Y0581088D01*
X0501347Y0580326D01*
X0501537Y0579945D01*
X0501918Y0579565D01*
X0502680Y0579374D01*
X0504013Y0579374D01*
X0504775Y0579565D01*
X0505156Y0579945D01*
X0505347Y0580326D01*
X0501537Y0583565D02*
X0501347Y0584136D01*
X0501347Y0585088D01*
X0501537Y0585469D01*
X0501728Y0585660D01*
X0502109Y0585850D01*
X0502490Y0585850D01*
X0502871Y0585660D01*
X0503061Y0585469D01*
X0503251Y0585088D01*
X0503442Y0584326D01*
X0503632Y0583945D01*
X0503823Y0583755D01*
X0504204Y0583565D01*
X0504585Y0583565D01*
X0504966Y0583755D01*
X0505156Y0583945D01*
X0505347Y0584326D01*
X0505347Y0585279D01*
X0505156Y0585850D01*
X0505347Y0586993D02*
X0505347Y0589279D01*
X0501347Y0588136D02*
X0505347Y0588136D01*
X0270948Y0526460D02*
X0270948Y0530460D01*
X0270948Y0528555D02*
X0268663Y0528555D01*
X0268663Y0526460D02*
X0268663Y0530460D01*
X0266758Y0527983D02*
X0263710Y0527983D01*
X0054552Y0557365D02*
X0056838Y0557365D01*
X0055695Y0557365D02*
X0055695Y0561365D01*
X0056076Y0560794D01*
X0056457Y0560413D01*
X0056838Y0560222D01*
X0053028Y0560984D02*
X0052838Y0561175D01*
X0052457Y0561365D01*
X0051505Y0561365D01*
X0051124Y0561175D01*
X0050933Y0560984D01*
X0050743Y0560603D01*
X0050743Y0560222D01*
X0050933Y0559651D01*
X0053219Y0557365D01*
X0050743Y0557365D01*
X0049981Y0556984D02*
X0046933Y0556984D01*
X0043695Y0557365D02*
X0045028Y0559270D01*
X0045981Y0557365D02*
X0045981Y0561365D01*
X0044457Y0561365D01*
X0044076Y0561175D01*
X0043886Y0560984D01*
X0043695Y0560603D01*
X0043695Y0560032D01*
X0043886Y0559651D01*
X0044076Y0559460D01*
X0044457Y0559270D01*
X0045981Y0559270D01*
X0042171Y0558508D02*
X0040266Y0558508D01*
X0042552Y0557365D02*
X0041219Y0561365D01*
X0039886Y0557365D01*
X0038933Y0561365D02*
X0037981Y0557365D01*
X0037219Y0560222D01*
X0036457Y0557365D01*
X0035505Y0561365D01*
X0161743Y0564824D02*
X0164029Y0564824D01*
X0162886Y0564824D02*
X0162886Y0568824D01*
X0163267Y0568253D01*
X0163648Y0567872D01*
X0164029Y0567681D01*
X0157743Y0564824D02*
X0159076Y0566729D01*
X0160029Y0564824D02*
X0160029Y0568824D01*
X0158505Y0568824D01*
X0158124Y0568634D01*
X0157933Y0568443D01*
X0157743Y0568062D01*
X0157743Y0567491D01*
X0157933Y0567110D01*
X0158124Y0566920D01*
X0158505Y0566729D01*
X0160029Y0566729D01*
X0174148Y0532324D02*
X0176433Y0532324D01*
X0175291Y0532324D02*
X0175291Y0536324D01*
X0175672Y0535753D01*
X0176052Y0535372D01*
X0176433Y0535181D01*
X0172624Y0532515D02*
X0172052Y0532324D01*
X0171100Y0532324D01*
X0170719Y0532515D01*
X0170529Y0532705D01*
X0170338Y0533086D01*
X0170338Y0533467D01*
X0170529Y0533848D01*
X0170719Y0534039D01*
X0171100Y0534229D01*
X0171862Y0534420D01*
X0172243Y0534610D01*
X0172433Y0534801D01*
X0172624Y0535181D01*
X0172624Y0535562D01*
X0172433Y0535943D01*
X0172243Y0536134D01*
X0171862Y0536324D01*
X0170910Y0536324D01*
X0170338Y0536134D01*
X0161838Y0532324D02*
X0164124Y0532324D01*
X0162981Y0532324D02*
X0162981Y0536324D01*
X0163362Y0535753D01*
X0163743Y0535372D01*
X0164124Y0535181D01*
X0157457Y0531943D02*
X0157838Y0532134D01*
X0158219Y0532515D01*
X0158791Y0533086D01*
X0159172Y0533277D01*
X0159552Y0533277D01*
X0159362Y0532324D02*
X0159743Y0532515D01*
X0160124Y0532896D01*
X0160314Y0533658D01*
X0160314Y0534991D01*
X0160124Y0535753D01*
X0159743Y0536134D01*
X0159362Y0536324D01*
X0158600Y0536324D01*
X0158219Y0536134D01*
X0157838Y0535753D01*
X0157648Y0534991D01*
X0157648Y0533658D01*
X0157838Y0532896D01*
X0158219Y0532515D01*
X0158600Y0532324D01*
X0159362Y0532324D01*
X0269466Y0573781D02*
X0269466Y0577781D01*
X0269466Y0575876D02*
X0267180Y0575876D01*
X0267180Y0573781D02*
X0267180Y0577781D01*
X0265275Y0575305D02*
X0262227Y0575305D01*
X0263751Y0573781D02*
X0263751Y0576829D01*
X0290190Y0568443D02*
X0290000Y0568634D01*
X0289619Y0568824D01*
X0288666Y0568824D01*
X0288285Y0568634D01*
X0288095Y0568443D01*
X0287904Y0568062D01*
X0287904Y0567681D01*
X0288095Y0567110D01*
X0290381Y0564824D01*
X0287904Y0564824D01*
X0284857Y0566920D02*
X0284285Y0566729D01*
X0284095Y0566539D01*
X0283904Y0566158D01*
X0283904Y0565586D01*
X0284095Y0565205D01*
X0284285Y0565015D01*
X0284666Y0564824D01*
X0286190Y0564824D01*
X0286190Y0568824D01*
X0284857Y0568824D01*
X0284476Y0568634D01*
X0284285Y0568443D01*
X0284095Y0568062D01*
X0284095Y0567681D01*
X0284285Y0567301D01*
X0284476Y0567110D01*
X0284857Y0566920D01*
X0286190Y0566920D01*
X0321708Y0574720D02*
X0321517Y0574529D01*
X0321327Y0573958D01*
X0321327Y0573577D01*
X0321517Y0573005D01*
X0321898Y0572625D01*
X0322279Y0572434D01*
X0323041Y0572244D01*
X0323613Y0572244D01*
X0324375Y0572434D01*
X0324756Y0572625D01*
X0325137Y0573005D01*
X0325327Y0573577D01*
X0325327Y0573958D01*
X0325137Y0574529D01*
X0324946Y0574720D01*
X0322470Y0576244D02*
X0322470Y0578148D01*
X0321327Y0575863D02*
X0325327Y0577196D01*
X0321327Y0578529D01*
X0321327Y0579863D02*
X0325327Y0579863D01*
X0322470Y0581196D01*
X0325327Y0582529D01*
X0321327Y0582529D01*
X0518783Y0535950D02*
X0516307Y0535950D01*
X0517640Y0534427D01*
X0517069Y0534427D01*
X0516688Y0534236D01*
X0516497Y0534046D01*
X0516307Y0533665D01*
X0516307Y0532712D01*
X0516497Y0532331D01*
X0516688Y0532141D01*
X0517069Y0531950D01*
X0518211Y0531950D01*
X0518592Y0532141D01*
X0518783Y0532331D01*
X0514592Y0535950D02*
X0514592Y0532712D01*
X0514402Y0532331D01*
X0514211Y0532141D01*
X0513831Y0531950D01*
X0513069Y0531950D01*
X0512688Y0532141D01*
X0512497Y0532331D01*
X0512307Y0532712D01*
X0512307Y0535950D01*
X0257199Y0566999D02*
X0257199Y0564332D01*
X0258151Y0568523D02*
X0259104Y0565666D01*
X0256627Y0565666D01*
X0253961Y0568332D02*
X0253961Y0565475D01*
X0254151Y0564904D01*
X0254532Y0564523D01*
X0255104Y0564332D01*
X0255485Y0564332D01*
X0090335Y0564824D02*
X0092621Y0564824D01*
X0091478Y0564824D02*
X0091478Y0568824D01*
X0091859Y0568253D01*
X0092240Y0567872D01*
X0092621Y0567681D01*
X0087288Y0566920D02*
X0088621Y0566920D01*
X0088621Y0564824D02*
X0088621Y0568824D01*
X0086716Y0568824D01*
X0527233Y0520186D02*
X0531233Y0520186D01*
X0527233Y0522091D02*
X0531233Y0522091D01*
X0527233Y0524377D01*
X0531233Y0524377D01*
X0531233Y0527424D02*
X0528375Y0527424D01*
X0527804Y0527234D01*
X0527423Y0526853D01*
X0527233Y0526281D01*
X0527233Y0525900D01*
X0527233Y0531424D02*
X0527233Y0529139D01*
X0527233Y0530281D02*
X0531233Y0530281D01*
X0530661Y0529900D01*
X0530280Y0529520D01*
X0530090Y0529139D01*
X0183957Y0564824D02*
X0186243Y0564824D01*
X0185100Y0564824D02*
X0185100Y0568824D01*
X0185481Y0568253D01*
X0185862Y0567872D01*
X0186243Y0567681D01*
X0182814Y0568824D02*
X0181481Y0564824D01*
X0180148Y0568824D01*
X0234696Y0529869D02*
X0233363Y0525869D01*
X0232029Y0529869D01*
X0231268Y0529869D02*
X0229934Y0525869D01*
X0228601Y0529869D01*
X0227839Y0529869D02*
X0225553Y0529869D01*
X0226696Y0525869D02*
X0226696Y0529869D01*
X0375285Y0535943D02*
X0375095Y0536134D01*
X0374714Y0536324D01*
X0373762Y0536324D01*
X0373381Y0536134D01*
X0373190Y0535943D01*
X0373000Y0535562D01*
X0373000Y0535181D01*
X0373190Y0534610D01*
X0375476Y0532324D01*
X0373000Y0532324D01*
X0370523Y0536324D02*
X0369762Y0536324D01*
X0369381Y0536134D01*
X0369000Y0535753D01*
X0368809Y0534991D01*
X0368809Y0533658D01*
X0369000Y0532896D01*
X0369381Y0532515D01*
X0369762Y0532324D01*
X0370523Y0532324D01*
X0370904Y0532515D01*
X0371285Y0532896D01*
X0371476Y0533658D01*
X0371476Y0534991D01*
X0371285Y0535753D01*
X0370904Y0536134D01*
X0370523Y0536324D01*
X0362785Y0568443D02*
X0362595Y0568634D01*
X0362214Y0568824D01*
X0361262Y0568824D01*
X0360881Y0568634D01*
X0360690Y0568443D01*
X0360500Y0568062D01*
X0360500Y0567681D01*
X0360690Y0567110D01*
X0362976Y0564824D01*
X0360500Y0564824D01*
X0358785Y0564824D02*
X0358785Y0568824D01*
X0356500Y0564824D01*
X0356500Y0568824D01*
X0257413Y0573781D02*
X0257413Y0577781D01*
X0255509Y0573781D02*
X0255509Y0577781D01*
X0253985Y0577781D01*
X0253604Y0577591D01*
X0253413Y0577400D01*
X0253223Y0577019D01*
X0253223Y0576448D01*
X0253413Y0576067D01*
X0253604Y0575876D01*
X0253985Y0575686D01*
X0255509Y0575686D01*
X0459153Y0568627D02*
X0456677Y0568627D01*
X0458010Y0567104D01*
X0457439Y0567104D01*
X0457058Y0566913D01*
X0456867Y0566723D01*
X0456677Y0566342D01*
X0456677Y0565389D01*
X0456867Y0565008D01*
X0457058Y0564818D01*
X0457439Y0564627D01*
X0458582Y0564627D01*
X0458963Y0564818D01*
X0459153Y0565008D01*
X0453058Y0564627D02*
X0454963Y0564627D01*
X0454963Y0568627D01*
X0301705Y0572733D02*
X0297705Y0574066D01*
X0301705Y0575399D01*
X0297895Y0576542D02*
X0297705Y0577113D01*
X0297705Y0578066D01*
X0297895Y0578447D01*
X0298086Y0578637D01*
X0298467Y0578828D01*
X0298848Y0578828D01*
X0299229Y0578637D01*
X0299419Y0578447D01*
X0299610Y0578066D01*
X0299800Y0577304D01*
X0299991Y0576923D01*
X0300181Y0576733D01*
X0300562Y0576542D01*
X0300943Y0576542D01*
X0301324Y0576733D01*
X0301514Y0576923D01*
X0301705Y0577304D01*
X0301705Y0578256D01*
X0301514Y0578828D01*
X0297895Y0580352D02*
X0297705Y0580923D01*
X0297705Y0581875D01*
X0297895Y0582256D01*
X0298086Y0582447D01*
X0298467Y0582637D01*
X0298848Y0582637D01*
X0299229Y0582447D01*
X0299419Y0582256D01*
X0299610Y0581875D01*
X0299800Y0581113D01*
X0299991Y0580733D01*
X0300181Y0580542D01*
X0300562Y0580352D01*
X0300943Y0580352D01*
X0301324Y0580542D01*
X0301514Y0580733D01*
X0301705Y0581113D01*
X0301705Y0582066D01*
X0301514Y0582637D01*
X0339714Y0568443D02*
X0339523Y0568634D01*
X0339142Y0568824D01*
X0338190Y0568824D01*
X0337809Y0568634D01*
X0337619Y0568443D01*
X0337428Y0568062D01*
X0337428Y0567681D01*
X0337619Y0567110D01*
X0339904Y0564824D01*
X0337428Y0564824D01*
X0334571Y0568824D02*
X0334571Y0565967D01*
X0334762Y0565396D01*
X0335142Y0565015D01*
X0335714Y0564824D01*
X0336095Y0564824D01*
X0350190Y0535943D02*
X0350000Y0536134D01*
X0349619Y0536324D01*
X0348666Y0536324D01*
X0348285Y0536134D01*
X0348095Y0535943D01*
X0347904Y0535562D01*
X0347904Y0535181D01*
X0348095Y0534610D01*
X0350381Y0532324D01*
X0347904Y0532324D01*
X0346190Y0532324D02*
X0346190Y0536324D01*
X0343904Y0532324D02*
X0345619Y0534610D01*
X0343904Y0536324D02*
X0346190Y0534039D01*
X0546748Y0536127D02*
X0544272Y0536127D01*
X0545606Y0534604D01*
X0545034Y0534604D01*
X0544653Y0534413D01*
X0544463Y0534223D01*
X0544272Y0533842D01*
X0544272Y0532889D01*
X0544463Y0532508D01*
X0544653Y0532318D01*
X0545034Y0532127D01*
X0546177Y0532127D01*
X0546558Y0532318D01*
X0546748Y0532508D01*
X0541796Y0534032D02*
X0541796Y0532127D01*
X0543129Y0536127D02*
X0541796Y0534032D01*
X0540463Y0536127D01*
X0076061Y0532660D02*
X0078346Y0532660D01*
X0077203Y0532660D02*
X0077203Y0536660D01*
X0077584Y0536089D01*
X0077965Y0535708D01*
X0078346Y0535517D01*
X0072061Y0533041D02*
X0072251Y0532851D01*
X0072823Y0532660D01*
X0073203Y0532660D01*
X0073775Y0532851D01*
X0074156Y0533232D01*
X0074346Y0533613D01*
X0074537Y0534375D01*
X0074537Y0534946D01*
X0074346Y0535708D01*
X0074156Y0536089D01*
X0073775Y0536470D01*
X0073203Y0536660D01*
X0072823Y0536660D01*
X0072251Y0536470D01*
X0072061Y0536279D01*
X0302690Y0535943D02*
X0302500Y0536134D01*
X0302119Y0536324D01*
X0301166Y0536324D01*
X0300785Y0536134D01*
X0300595Y0535943D01*
X0300404Y0535562D01*
X0300404Y0535181D01*
X0300595Y0534610D01*
X0302881Y0532324D01*
X0300404Y0532324D01*
X0296404Y0532705D02*
X0296595Y0532515D01*
X0297166Y0532324D01*
X0297547Y0532324D01*
X0298119Y0532515D01*
X0298500Y0532896D01*
X0298690Y0533277D01*
X0298881Y0534039D01*
X0298881Y0534610D01*
X0298690Y0535372D01*
X0298500Y0535753D01*
X0298119Y0536134D01*
X0297547Y0536324D01*
X0297166Y0536324D01*
X0296595Y0536134D01*
X0296404Y0535943D01*
X0256627Y0534499D02*
X0256627Y0531832D01*
X0257580Y0536023D02*
X0258532Y0533166D01*
X0256056Y0533166D01*
X0254532Y0531832D02*
X0254532Y0535832D01*
X0126743Y0532324D02*
X0129029Y0532324D01*
X0127886Y0532324D02*
X0127886Y0536324D01*
X0128267Y0535753D01*
X0128648Y0535372D01*
X0129029Y0535181D01*
X0125029Y0532324D02*
X0125029Y0536324D01*
X0122743Y0532324D02*
X0124457Y0534610D01*
X0122743Y0536324D02*
X0125029Y0534039D01*
X0471145Y0568627D02*
X0468669Y0568627D01*
X0470002Y0567104D01*
X0469431Y0567104D01*
X0469050Y0566913D01*
X0468859Y0566723D01*
X0468669Y0566342D01*
X0468669Y0565389D01*
X0468859Y0565008D01*
X0469050Y0564818D01*
X0469431Y0564627D01*
X0470574Y0564627D01*
X0470955Y0564818D01*
X0471145Y0565008D01*
X0466955Y0564627D02*
X0466955Y0568627D01*
X0464669Y0564627D01*
X0464669Y0568627D01*
X0063957Y0532324D02*
X0066243Y0532324D01*
X0065100Y0532324D02*
X0065100Y0536324D01*
X0065481Y0535753D01*
X0065862Y0535372D01*
X0066243Y0535181D01*
X0062433Y0533467D02*
X0060529Y0533467D01*
X0062814Y0532324D02*
X0061481Y0536324D01*
X0060148Y0532324D01*
X0464929Y0520085D02*
X0468929Y0520085D01*
X0464929Y0521989D02*
X0468929Y0521989D01*
X0468929Y0522942D01*
X0468739Y0523513D01*
X0468358Y0523894D01*
X0467977Y0524085D01*
X0467215Y0524275D01*
X0466644Y0524275D01*
X0465882Y0524085D01*
X0465501Y0523894D01*
X0465120Y0523513D01*
X0464929Y0522942D01*
X0464929Y0521989D01*
X0464929Y0527894D02*
X0464929Y0525989D01*
X0468929Y0525989D01*
X0467025Y0529227D02*
X0467025Y0530561D01*
X0464929Y0531132D02*
X0464929Y0529227D01*
X0468929Y0529227D01*
X0468929Y0531132D01*
D279*
X0036715Y0468131D02*
X0037464Y0468506D01*
X0038589Y0468506D01*
X0039714Y0468131D01*
X0040464Y0467381D01*
X0040839Y0466631D01*
X0041214Y0465132D01*
X0041214Y0464007D01*
X0040839Y0462507D01*
X0040464Y0461757D01*
X0039714Y0461007D01*
X0038589Y0460632D01*
X0037839Y0460632D01*
X0036715Y0461007D01*
X0036340Y0461382D01*
X0036340Y0464007D01*
X0037839Y0464007D01*
X0032965Y0460632D02*
X0032965Y0468506D01*
X0028466Y0460632D01*
X0028466Y0468506D01*
X0024716Y0460632D02*
X0024716Y0468506D01*
X0022841Y0468506D01*
X0021716Y0468131D01*
X0020966Y0467381D01*
X0020592Y0466631D01*
X0020217Y0465132D01*
X0020217Y0464007D01*
X0020592Y0462507D01*
X0020966Y0461757D01*
X0021716Y0461007D01*
X0022841Y0460632D01*
X0024716Y0460632D01*
D188*
X0113104Y0532956D02*
X0115389Y0532956D01*
X0114246Y0532956D02*
X0114246Y0536956D01*
X0114627Y0536384D01*
X0115008Y0536003D01*
X0115389Y0535813D01*
X0111389Y0532956D02*
X0111389Y0536956D01*
X0289904Y0535943D02*
X0289714Y0536134D01*
X0289333Y0536324D01*
X0288381Y0536324D01*
X0288000Y0536134D01*
X0287809Y0535943D01*
X0287619Y0535562D01*
X0287619Y0535181D01*
X0287809Y0534610D01*
X0290095Y0532324D01*
X0287619Y0532324D01*
X0286095Y0533467D02*
X0284190Y0533467D01*
X0286476Y0532324D02*
X0285142Y0536324D01*
X0283809Y0532324D01*
X0482034Y0568627D02*
X0479558Y0568627D01*
X0480891Y0567104D01*
X0480320Y0567104D01*
X0479939Y0566913D01*
X0479748Y0566723D01*
X0479558Y0566342D01*
X0479558Y0565389D01*
X0479748Y0565008D01*
X0479939Y0564818D01*
X0480320Y0564627D01*
X0481463Y0564627D01*
X0481844Y0564818D01*
X0482034Y0565008D01*
X0477844Y0564627D02*
X0477844Y0568627D01*
X0476320Y0568627D01*
X0475939Y0568437D01*
X0475748Y0568247D01*
X0475558Y0567866D01*
X0475558Y0567294D01*
X0475748Y0566913D01*
X0475939Y0566723D01*
X0476320Y0566532D01*
X0477844Y0566532D01*
X0412034Y0568627D02*
X0409558Y0568627D01*
X0410891Y0567104D01*
X0410320Y0567104D01*
X0409939Y0566913D01*
X0409748Y0566723D01*
X0409558Y0566342D01*
X0409558Y0565389D01*
X0409748Y0565008D01*
X0409939Y0564818D01*
X0410320Y0564627D01*
X0411463Y0564627D01*
X0411844Y0564818D01*
X0412034Y0565008D01*
X0407844Y0564627D02*
X0407844Y0568627D01*
X0406891Y0568627D01*
X0406320Y0568437D01*
X0405939Y0568056D01*
X0405748Y0567675D01*
X0405558Y0566913D01*
X0405558Y0566342D01*
X0405748Y0565580D01*
X0405939Y0565199D01*
X0406320Y0564818D01*
X0406891Y0564627D01*
X0407844Y0564627D01*
D344*
X0003531Y0312882D02*
X0011405Y0312882D01*
X0003531Y0316256D02*
X0007656Y0316256D01*
X0008406Y0315882D01*
X0008781Y0315132D01*
X0008781Y0314007D01*
X0008406Y0313257D01*
X0008031Y0312882D01*
X0008781Y0318881D02*
X0008781Y0321881D01*
X0011405Y0320006D02*
X0004656Y0320006D01*
X0003906Y0320381D01*
X0003531Y0321131D01*
X0003531Y0321881D01*
X0008781Y0323381D02*
X0008781Y0326380D01*
X0011405Y0324505D02*
X0004656Y0324505D01*
X0003906Y0324880D01*
X0003531Y0325630D01*
X0003531Y0326380D01*
X0008781Y0329005D02*
X0000907Y0329005D01*
X0008406Y0329005D02*
X0008781Y0329755D01*
X0008781Y0331255D01*
X0008406Y0332005D01*
X0008031Y0332379D01*
X0007281Y0332754D01*
X0005031Y0332754D01*
X0004281Y0332379D01*
X0003906Y0332005D01*
X0003531Y0331255D01*
X0003531Y0329755D01*
X0003906Y0329005D01*
X0004281Y0336129D02*
X0003906Y0336504D01*
X0003531Y0336129D01*
X0003906Y0335754D01*
X0004281Y0336129D01*
X0003531Y0336129D01*
X0008406Y0336129D02*
X0008031Y0336504D01*
X0007656Y0336129D01*
X0008031Y0335754D01*
X0008406Y0336129D01*
X0007656Y0336129D01*
X0011780Y0345503D02*
X0001656Y0338754D01*
X0011780Y0353752D02*
X0001656Y0347003D01*
X0003531Y0356376D02*
X0008781Y0356376D01*
X0007281Y0356376D02*
X0008031Y0356751D01*
X0008406Y0357126D01*
X0008781Y0357876D01*
X0008781Y0358626D01*
X0008781Y0364625D02*
X0003531Y0364625D01*
X0008781Y0361251D02*
X0004656Y0361251D01*
X0003906Y0361626D01*
X0003531Y0362376D01*
X0003531Y0363501D01*
X0003906Y0364250D01*
X0004281Y0364625D01*
X0003906Y0368000D02*
X0003531Y0368750D01*
X0003531Y0370250D01*
X0003906Y0371000D01*
X0004656Y0371375D01*
X0005031Y0371375D01*
X0005781Y0371000D01*
X0006156Y0370250D01*
X0006156Y0369125D01*
X0006531Y0368375D01*
X0007281Y0368000D01*
X0007656Y0368000D01*
X0008406Y0368375D01*
X0008781Y0369125D01*
X0008781Y0370250D01*
X0008406Y0371000D01*
X0003906Y0377749D02*
X0003531Y0376999D01*
X0003531Y0375499D01*
X0003906Y0374749D01*
X0004656Y0374374D01*
X0007656Y0374374D01*
X0008406Y0374749D01*
X0008781Y0375499D01*
X0008781Y0376999D01*
X0008406Y0377749D01*
X0007656Y0378124D01*
X0006906Y0378124D01*
X0006156Y0374374D01*
X0008781Y0380373D02*
X0008781Y0383373D01*
X0003531Y0381498D02*
X0010280Y0381498D01*
X0011030Y0381873D01*
X0011405Y0382623D01*
X0011405Y0383373D01*
X0003531Y0385998D02*
X0008781Y0385998D01*
X0011405Y0385998D02*
X0011030Y0385623D01*
X0010655Y0385998D01*
X0011030Y0386373D01*
X0011405Y0385998D01*
X0010655Y0385998D01*
X0004281Y0389747D02*
X0003906Y0390122D01*
X0003531Y0389747D01*
X0003906Y0389372D01*
X0004281Y0389747D01*
X0003531Y0389747D01*
X0003906Y0396871D02*
X0003531Y0396122D01*
X0003531Y0394622D01*
X0003906Y0393872D01*
X0004281Y0393497D01*
X0005031Y0393122D01*
X0007281Y0393122D01*
X0008031Y0393497D01*
X0008406Y0393872D01*
X0008781Y0394622D01*
X0008781Y0396122D01*
X0008406Y0396871D01*
X0003531Y0401371D02*
X0003906Y0400621D01*
X0004281Y0400246D01*
X0005031Y0399871D01*
X0007281Y0399871D01*
X0008031Y0400246D01*
X0008406Y0400621D01*
X0008781Y0401371D01*
X0008781Y0402496D01*
X0008406Y0403246D01*
X0008031Y0403621D01*
X0007281Y0403996D01*
X0005031Y0403996D01*
X0004281Y0403621D01*
X0003906Y0403246D01*
X0003531Y0402496D01*
X0003531Y0401371D01*
X0003531Y0407370D02*
X0008781Y0407370D01*
X0008031Y0407370D02*
X0008406Y0407745D01*
X0008781Y0408495D01*
X0008781Y0409620D01*
X0008406Y0410370D01*
X0007656Y0410745D01*
X0003531Y0410745D01*
X0007656Y0410745D02*
X0008406Y0411120D01*
X0008781Y0411870D01*
X0008781Y0412994D01*
X0008406Y0413744D01*
X0007656Y0414119D01*
X0003531Y0414119D01*
X0011780Y0423493D02*
X0001656Y0416744D01*
X0003906Y0425743D02*
X0003531Y0426493D01*
X0003531Y0427993D01*
X0003906Y0428742D01*
X0004656Y0429117D01*
X0005031Y0429117D01*
X0005781Y0428742D01*
X0006156Y0427993D01*
X0006156Y0426868D01*
X0006531Y0426118D01*
X0007281Y0425743D01*
X0007656Y0425743D01*
X0008406Y0426118D01*
X0008781Y0426868D01*
X0008781Y0427993D01*
X0008406Y0428742D01*
X0011780Y0438116D02*
X0001656Y0431367D01*
X0003531Y0440741D02*
X0011405Y0440741D01*
X0003531Y0444116D02*
X0007656Y0444116D01*
X0008406Y0443741D01*
X0008781Y0442991D01*
X0008781Y0441866D01*
X0008406Y0441116D01*
X0008031Y0440741D01*
X0003906Y0450865D02*
X0003531Y0450115D01*
X0003531Y0448615D01*
X0003906Y0447865D01*
X0004656Y0447490D01*
X0007656Y0447490D01*
X0008406Y0447865D01*
X0008781Y0448615D01*
X0008781Y0450115D01*
X0008406Y0450865D01*
X0007656Y0451240D01*
X0006906Y0451240D01*
X0006156Y0447490D01*
X0003531Y0455739D02*
X0003906Y0454989D01*
X0004656Y0454614D01*
X0011405Y0454614D01*
X0003531Y0459864D02*
X0003906Y0459114D01*
X0004656Y0458739D01*
X0011405Y0458739D01*
X0003906Y0465863D02*
X0003531Y0465113D01*
X0003531Y0463613D01*
X0003906Y0462863D01*
X0004656Y0462488D01*
X0007656Y0462488D01*
X0008406Y0462863D01*
X0008781Y0463613D01*
X0008781Y0465113D01*
X0008406Y0465863D01*
X0007656Y0466238D01*
X0006906Y0466238D01*
X0006156Y0462488D01*
X0008781Y0469612D02*
X0003531Y0469612D01*
X0008031Y0469612D02*
X0008406Y0469987D01*
X0008781Y0470737D01*
X0008781Y0471862D01*
X0008406Y0472612D01*
X0007656Y0472987D01*
X0003531Y0472987D01*
X0003531Y0476736D02*
X0011405Y0476736D01*
X0003531Y0481236D01*
X0011405Y0481236D01*
X0007656Y0487610D02*
X0007281Y0488735D01*
X0006906Y0489110D01*
X0006156Y0489485D01*
X0005031Y0489485D01*
X0004281Y0489110D01*
X0003906Y0488735D01*
X0003531Y0487985D01*
X0003531Y0484985D01*
X0011405Y0484985D01*
X0011405Y0487610D01*
X0011030Y0488360D01*
X0010655Y0488735D01*
X0009905Y0489110D01*
X0009155Y0489110D01*
X0008406Y0488735D01*
X0008031Y0488360D01*
X0007656Y0487610D01*
X0007656Y0484985D01*
X0003531Y0496984D02*
X0003531Y0492484D01*
X0003531Y0494734D02*
X0011405Y0494734D01*
X0010280Y0493984D01*
X0009530Y0493234D01*
X0009155Y0492484D01*
D188*
X0375190Y0568443D02*
X0375000Y0568634D01*
X0374619Y0568824D01*
X0373666Y0568824D01*
X0373285Y0568634D01*
X0373095Y0568443D01*
X0372904Y0568062D01*
X0372904Y0567681D01*
X0373095Y0567110D01*
X0375381Y0564824D01*
X0372904Y0564824D01*
X0371190Y0564824D02*
X0371190Y0568824D01*
X0369666Y0568824D01*
X0369285Y0568634D01*
X0369095Y0568443D01*
X0368904Y0568062D01*
X0368904Y0567491D01*
X0369095Y0567110D01*
X0369285Y0566920D01*
X0369666Y0566729D01*
X0371190Y0566729D01*
X0345146Y0572424D02*
X0349146Y0572424D01*
X0346289Y0573758D01*
X0349146Y0575091D01*
X0345146Y0575091D01*
X0346289Y0576805D02*
X0346289Y0578710D01*
X0345146Y0576424D02*
X0349146Y0577758D01*
X0345146Y0579091D01*
X0347241Y0581758D02*
X0347241Y0580424D01*
X0345146Y0580424D02*
X0349146Y0580424D01*
X0349146Y0582329D01*
X0422079Y0520859D02*
X0422079Y0523145D01*
X0418079Y0522002D02*
X0422079Y0522002D01*
X0418079Y0524478D02*
X0422079Y0524478D01*
X0422079Y0526002D01*
X0421889Y0526383D01*
X0421698Y0526574D01*
X0421317Y0526764D01*
X0420746Y0526764D01*
X0420365Y0526574D01*
X0420174Y0526383D01*
X0419984Y0526002D01*
X0419984Y0524478D01*
X0418269Y0528288D02*
X0418079Y0528859D01*
X0418079Y0529812D01*
X0418269Y0530193D01*
X0418460Y0530383D01*
X0418841Y0530574D01*
X0419222Y0530574D01*
X0419603Y0530383D01*
X0419793Y0530193D01*
X0419984Y0529812D01*
X0420174Y0529050D01*
X0420365Y0528669D01*
X0420555Y0528478D01*
X0420936Y0528288D01*
X0421317Y0528288D01*
X0421698Y0528478D01*
X0421889Y0528669D01*
X0422079Y0529050D01*
X0422079Y0530002D01*
X0421889Y0530574D01*
X0149243Y0564824D02*
X0151529Y0564824D01*
X0150386Y0564824D02*
X0150386Y0568824D01*
X0150767Y0568253D01*
X0151148Y0567872D01*
X0151529Y0567681D01*
X0147529Y0564824D02*
X0147529Y0568824D01*
X0146005Y0568824D01*
X0145624Y0568634D01*
X0145433Y0568443D01*
X0145243Y0568062D01*
X0145243Y0567491D01*
X0145433Y0567110D01*
X0145624Y0566920D01*
X0146005Y0566729D01*
X0147529Y0566729D01*
X0111570Y0574819D02*
X0111380Y0574628D01*
X0111189Y0574057D01*
X0111189Y0573676D01*
X0111380Y0573104D01*
X0111761Y0572723D01*
X0112142Y0572533D01*
X0112904Y0572342D01*
X0113475Y0572342D01*
X0114237Y0572533D01*
X0114618Y0572723D01*
X0114999Y0573104D01*
X0115189Y0573676D01*
X0115189Y0574057D01*
X0114999Y0574628D01*
X0114808Y0574819D01*
X0112332Y0576342D02*
X0112332Y0578247D01*
X0111189Y0575961D02*
X0115189Y0577295D01*
X0111189Y0578628D01*
X0111189Y0579961D02*
X0115189Y0579961D01*
X0111189Y0582247D01*
X0115189Y0582247D01*
X0110808Y0583200D02*
X0110808Y0586247D01*
X0111189Y0589104D02*
X0111189Y0587200D01*
X0115189Y0587200D01*
X0137029Y0532324D02*
X0139314Y0532324D01*
X0138172Y0532324D02*
X0138172Y0536324D01*
X0138552Y0535753D01*
X0138933Y0535372D01*
X0139314Y0535181D01*
X0135314Y0532324D02*
X0135314Y0536324D01*
X0133981Y0533467D01*
X0132648Y0536324D01*
X0132648Y0532324D01*
X0339142Y0535943D02*
X0338952Y0536134D01*
X0338571Y0536324D01*
X0337619Y0536324D01*
X0337238Y0536134D01*
X0337047Y0535943D01*
X0336857Y0535562D01*
X0336857Y0535181D01*
X0337047Y0534610D01*
X0339333Y0532324D01*
X0336857Y0532324D01*
X0335142Y0532324D02*
X0335142Y0536324D01*
X0396748Y0536127D02*
X0394272Y0536127D01*
X0395606Y0534604D01*
X0395034Y0534604D01*
X0394653Y0534413D01*
X0394463Y0534223D01*
X0394272Y0533842D01*
X0394272Y0532889D01*
X0394463Y0532508D01*
X0394653Y0532318D01*
X0395034Y0532127D01*
X0396177Y0532127D01*
X0396558Y0532318D01*
X0396748Y0532508D01*
X0392748Y0533270D02*
X0390844Y0533270D01*
X0393129Y0532127D02*
X0391796Y0536127D01*
X0390463Y0532127D01*
X0181465Y0572565D02*
X0185465Y0572565D01*
X0181465Y0574851D01*
X0185465Y0574851D01*
X0183560Y0576756D02*
X0183560Y0578089D01*
X0181465Y0578660D02*
X0181465Y0576756D01*
X0185465Y0576756D01*
X0185465Y0578660D01*
X0185465Y0580375D02*
X0182227Y0580375D01*
X0181846Y0580565D01*
X0181655Y0580756D01*
X0181465Y0581137D01*
X0181465Y0581898D01*
X0181655Y0582279D01*
X0181846Y0582470D01*
X0182227Y0582660D01*
X0185465Y0582660D01*
X0185465Y0583994D02*
X0185465Y0586279D01*
X0181465Y0585137D02*
X0185465Y0585137D01*
X0181465Y0589898D02*
X0183370Y0588565D01*
X0181465Y0587613D02*
X0185465Y0587613D01*
X0185465Y0589137D01*
X0185274Y0589517D01*
X0185084Y0589708D01*
X0184703Y0589898D01*
X0184131Y0589898D01*
X0183751Y0589708D01*
X0183560Y0589517D01*
X0183370Y0589137D01*
X0183370Y0587613D01*
X0182608Y0591422D02*
X0182608Y0593327D01*
X0181465Y0591041D02*
X0185465Y0592375D01*
X0181465Y0593708D01*
X0181465Y0596946D02*
X0181465Y0595041D01*
X0185465Y0595041D01*
X0546939Y0568627D02*
X0544463Y0568627D01*
X0545796Y0567104D01*
X0545225Y0567104D01*
X0544844Y0566913D01*
X0544653Y0566723D01*
X0544463Y0566342D01*
X0544463Y0565389D01*
X0544653Y0565008D01*
X0544844Y0564818D01*
X0545225Y0564627D01*
X0546367Y0564627D01*
X0546748Y0564818D01*
X0546939Y0565008D01*
X0543129Y0568627D02*
X0540463Y0568627D01*
X0543129Y0564627D01*
X0540463Y0564627D01*
X0315000Y0535943D02*
X0314809Y0536134D01*
X0314428Y0536324D01*
X0313476Y0536324D01*
X0313095Y0536134D01*
X0312904Y0535943D01*
X0312714Y0535562D01*
X0312714Y0535181D01*
X0312904Y0534610D01*
X0315190Y0532324D01*
X0312714Y0532324D01*
X0311000Y0534420D02*
X0309666Y0534420D01*
X0309095Y0532324D02*
X0311000Y0532324D01*
X0311000Y0536324D01*
X0309095Y0536324D01*
X0506558Y0568627D02*
X0504082Y0568627D01*
X0505415Y0567104D01*
X0504844Y0567104D01*
X0504463Y0566913D01*
X0504272Y0566723D01*
X0504082Y0566342D01*
X0504082Y0565389D01*
X0504272Y0565008D01*
X0504463Y0564818D01*
X0504844Y0564627D01*
X0505987Y0564627D01*
X0506367Y0564818D01*
X0506558Y0565008D01*
X0502939Y0568627D02*
X0500653Y0568627D01*
X0501796Y0564627D02*
X0501796Y0568627D01*
X0207389Y0534499D02*
X0207389Y0531832D01*
X0208342Y0536023D02*
X0209294Y0533166D01*
X0206818Y0533166D01*
X0205485Y0532975D02*
X0203580Y0532975D01*
X0205866Y0531832D02*
X0204532Y0535832D01*
X0203199Y0531832D01*
X0424344Y0536127D02*
X0421867Y0536127D01*
X0423201Y0534604D01*
X0422629Y0534604D01*
X0422248Y0534413D01*
X0422058Y0534223D01*
X0421867Y0533842D01*
X0421867Y0532889D01*
X0422058Y0532508D01*
X0422248Y0532318D01*
X0422629Y0532127D01*
X0423772Y0532127D01*
X0424153Y0532318D01*
X0424344Y0532508D01*
X0420153Y0534223D02*
X0418820Y0534223D01*
X0418248Y0532127D02*
X0420153Y0532127D01*
X0420153Y0536127D01*
X0418248Y0536127D01*
X0396593Y0572958D02*
X0396784Y0572577D01*
X0396784Y0572005D01*
X0396593Y0571434D01*
X0396212Y0571053D01*
X0395831Y0570862D01*
X0395069Y0570672D01*
X0394498Y0570672D01*
X0393736Y0570862D01*
X0393355Y0571053D01*
X0392974Y0571434D01*
X0392784Y0572005D01*
X0392784Y0572386D01*
X0392974Y0572958D01*
X0393165Y0573148D01*
X0394498Y0573148D01*
X0394498Y0572386D01*
X0392784Y0574862D02*
X0396784Y0574862D01*
X0392784Y0577148D01*
X0396784Y0577148D01*
X0392784Y0579053D02*
X0396784Y0579053D01*
X0396784Y0580005D01*
X0396593Y0580577D01*
X0396212Y0580958D01*
X0395831Y0581148D01*
X0395069Y0581339D01*
X0394498Y0581339D01*
X0393736Y0581148D01*
X0393355Y0580958D01*
X0392974Y0580577D01*
X0392784Y0580005D01*
X0392784Y0579053D01*
X0480171Y0571834D02*
X0480171Y0575834D01*
X0478648Y0575834D01*
X0478267Y0575643D01*
X0478076Y0575453D01*
X0477886Y0575072D01*
X0477886Y0574500D01*
X0478076Y0574119D01*
X0478267Y0573929D01*
X0478648Y0573738D01*
X0480171Y0573738D01*
X0476171Y0575834D02*
X0476171Y0572595D01*
X0475981Y0572215D01*
X0475790Y0572024D01*
X0475410Y0571834D01*
X0474648Y0571834D01*
X0474267Y0572024D01*
X0474076Y0572215D01*
X0473886Y0572595D01*
X0473886Y0575834D01*
X0471981Y0571834D02*
X0471981Y0575834D01*
X0470648Y0572976D01*
X0469314Y0575834D01*
X0469314Y0571834D01*
X0467410Y0571834D02*
X0467410Y0575834D01*
X0465886Y0575834D01*
X0465505Y0575643D01*
X0465314Y0575453D01*
X0465124Y0575072D01*
X0465124Y0574500D01*
X0465314Y0574119D01*
X0465505Y0573929D01*
X0465886Y0573738D01*
X0467410Y0573738D01*
X0531939Y0568627D02*
X0529463Y0568627D01*
X0530796Y0567104D01*
X0530225Y0567104D01*
X0529844Y0566913D01*
X0529653Y0566723D01*
X0529463Y0566342D01*
X0529463Y0565389D01*
X0529653Y0565008D01*
X0529844Y0564818D01*
X0530225Y0564627D01*
X0531367Y0564627D01*
X0531748Y0564818D01*
X0531939Y0565008D01*
X0528129Y0568627D02*
X0525463Y0564627D01*
X0525463Y0568627D02*
X0528129Y0564627D01*
X0101838Y0564824D02*
X0104124Y0564824D01*
X0102981Y0564824D02*
X0102981Y0568824D01*
X0103362Y0568253D01*
X0103743Y0567872D01*
X0104124Y0567681D01*
X0100124Y0564824D02*
X0100124Y0568824D01*
X0100124Y0566920D02*
X0097838Y0566920D01*
X0097838Y0564824D02*
X0097838Y0568824D01*
X0424248Y0568627D02*
X0421772Y0568627D01*
X0423106Y0567104D01*
X0422534Y0567104D01*
X0422153Y0566913D01*
X0421963Y0566723D01*
X0421772Y0566342D01*
X0421772Y0565389D01*
X0421963Y0565008D01*
X0422153Y0564818D01*
X0422534Y0564627D01*
X0423677Y0564627D01*
X0424058Y0564818D01*
X0424248Y0565008D01*
X0418725Y0566723D02*
X0420058Y0566723D01*
X0420058Y0564627D02*
X0420058Y0568627D01*
X0418153Y0568627D01*
X0285500Y0573850D02*
X0289500Y0573850D01*
X0286643Y0575564D02*
X0286643Y0577469D01*
X0285500Y0575183D02*
X0289500Y0576517D01*
X0285500Y0577850D01*
X0289500Y0578612D02*
X0289500Y0580897D01*
X0285500Y0579755D02*
X0289500Y0579755D01*
X0519189Y0568627D02*
X0516713Y0568627D01*
X0518046Y0567104D01*
X0517475Y0567104D01*
X0517094Y0566913D01*
X0516904Y0566723D01*
X0516713Y0566342D01*
X0516713Y0565389D01*
X0516904Y0565008D01*
X0517094Y0564818D01*
X0517475Y0564627D01*
X0518618Y0564627D01*
X0518999Y0564818D01*
X0519189Y0565008D01*
X0515570Y0568627D02*
X0514237Y0564627D01*
X0512904Y0568627D01*
X0302690Y0568443D02*
X0302500Y0568634D01*
X0302119Y0568824D01*
X0301166Y0568824D01*
X0300785Y0568634D01*
X0300595Y0568443D01*
X0300404Y0568062D01*
X0300404Y0567681D01*
X0300595Y0567110D01*
X0302881Y0564824D01*
X0300404Y0564824D01*
X0298690Y0564824D02*
X0298690Y0568824D01*
X0297738Y0568824D01*
X0297166Y0568634D01*
X0296785Y0568253D01*
X0296595Y0567872D01*
X0296404Y0567110D01*
X0296404Y0566539D01*
X0296595Y0565777D01*
X0296785Y0565396D01*
X0297166Y0565015D01*
X0297738Y0564824D01*
X0298690Y0564824D01*
X0335941Y0515999D02*
X0335941Y0519046D01*
X0334418Y0517522D02*
X0337465Y0517522D01*
X0338418Y0522856D02*
X0338418Y0520951D01*
X0336513Y0520760D01*
X0336703Y0520951D01*
X0336894Y0521332D01*
X0336894Y0522284D01*
X0336703Y0522665D01*
X0336513Y0522856D01*
X0336132Y0523046D01*
X0335179Y0523046D01*
X0334799Y0522856D01*
X0334608Y0522665D01*
X0334418Y0522284D01*
X0334418Y0521332D01*
X0334608Y0520951D01*
X0334799Y0520760D01*
X0338418Y0524189D02*
X0334418Y0525522D01*
X0338418Y0526856D01*
X0335560Y0527999D02*
X0335560Y0529903D01*
X0334418Y0527618D02*
X0338418Y0528951D01*
X0334418Y0530284D01*
X0072437Y0527825D02*
X0072628Y0527634D01*
X0073199Y0527444D01*
X0073580Y0527444D01*
X0074152Y0527634D01*
X0074532Y0528015D01*
X0074723Y0528396D01*
X0074913Y0529158D01*
X0074913Y0529730D01*
X0074723Y0530491D01*
X0074532Y0530872D01*
X0074152Y0531253D01*
X0073580Y0531444D01*
X0073199Y0531444D01*
X0072628Y0531253D01*
X0072437Y0531063D01*
X0070913Y0528587D02*
X0069009Y0528587D01*
X0071294Y0527444D02*
X0069961Y0531444D01*
X0068628Y0527444D01*
X0067294Y0527444D02*
X0067294Y0531444D01*
X0065009Y0527444D01*
X0065009Y0531444D01*
X0064056Y0527063D02*
X0061009Y0527063D01*
X0060056Y0527444D02*
X0060056Y0531444D01*
X0060056Y0529539D02*
X0057771Y0529539D01*
X0057771Y0527444D02*
X0057771Y0531444D01*
X0267294Y0566999D02*
X0267294Y0564332D01*
X0268247Y0568523D02*
X0269199Y0565666D01*
X0266723Y0565666D01*
X0263294Y0564332D02*
X0265199Y0564332D01*
X0265199Y0568332D01*
D26*
X0013767Y0313013D02*
X0019017Y0313013D01*
X0017517Y0313013D02*
X0018267Y0313388D01*
X0018642Y0313763D01*
X0019017Y0314513D01*
X0019017Y0315263D01*
X0014142Y0320887D02*
X0013767Y0320137D01*
X0013767Y0318637D01*
X0014142Y0317888D01*
X0014892Y0317513D01*
X0017892Y0317513D01*
X0018642Y0317888D01*
X0019017Y0318637D01*
X0019017Y0320137D01*
X0018642Y0320887D01*
X0017892Y0321262D01*
X0017142Y0321262D01*
X0016392Y0317513D01*
X0019017Y0323887D02*
X0013767Y0325762D01*
X0019017Y0327636D01*
X0014517Y0330636D02*
X0014142Y0331011D01*
X0013767Y0330636D01*
X0014142Y0330261D01*
X0014517Y0330636D01*
X0013767Y0330636D01*
X0017892Y0343009D02*
X0017517Y0344134D01*
X0017142Y0344509D01*
X0016392Y0344884D01*
X0015267Y0344884D01*
X0014517Y0344509D01*
X0014142Y0344134D01*
X0013767Y0343384D01*
X0013767Y0340385D01*
X0021641Y0340385D01*
X0021641Y0343009D01*
X0021266Y0343759D01*
X0020892Y0344134D01*
X0020142Y0344509D01*
X0019392Y0344509D01*
X0018642Y0344134D01*
X0018267Y0343759D01*
X0017892Y0343009D01*
X0017892Y0340385D01*
D188*
X0064243Y0564824D02*
X0066529Y0564824D01*
X0065386Y0564824D02*
X0065386Y0568824D01*
X0065767Y0568253D01*
X0066148Y0567872D01*
X0066529Y0567681D01*
X0061195Y0566920D02*
X0060624Y0566729D01*
X0060433Y0566539D01*
X0060243Y0566158D01*
X0060243Y0565586D01*
X0060433Y0565205D01*
X0060624Y0565015D01*
X0061005Y0564824D01*
X0062529Y0564824D01*
X0062529Y0568824D01*
X0061195Y0568824D01*
X0060814Y0568634D01*
X0060624Y0568443D01*
X0060433Y0568062D01*
X0060433Y0567681D01*
X0060624Y0567301D01*
X0060814Y0567110D01*
X0061195Y0566920D01*
X0062529Y0566920D01*
X0054876Y0539156D02*
X0057161Y0539156D01*
X0056019Y0539156D02*
X0056019Y0543156D01*
X0056400Y0542585D01*
X0056781Y0542204D01*
X0057161Y0542014D01*
X0053352Y0542775D02*
X0053161Y0542966D01*
X0052781Y0543156D01*
X0051828Y0543156D01*
X0051447Y0542966D01*
X0051257Y0542775D01*
X0051066Y0542394D01*
X0051066Y0542014D01*
X0051257Y0541442D01*
X0053542Y0539156D01*
X0051066Y0539156D01*
X0050304Y0538775D02*
X0047257Y0538775D01*
X0046304Y0539156D02*
X0046304Y0543156D01*
X0044781Y0543156D01*
X0044400Y0542966D01*
X0044209Y0542775D01*
X0044019Y0542394D01*
X0044019Y0541823D01*
X0044209Y0541442D01*
X0044400Y0541252D01*
X0044781Y0541061D01*
X0046304Y0541061D01*
X0042304Y0541252D02*
X0040971Y0541252D01*
X0040400Y0539156D02*
X0042304Y0539156D01*
X0042304Y0543156D01*
X0040400Y0543156D01*
X0036400Y0539156D02*
X0037733Y0541061D01*
X0038685Y0539156D02*
X0038685Y0543156D01*
X0037161Y0543156D01*
X0036781Y0542966D01*
X0036590Y0542775D01*
X0036400Y0542394D01*
X0036400Y0541823D01*
X0036590Y0541442D01*
X0036781Y0541252D01*
X0037161Y0541061D01*
X0038685Y0541061D01*
X0034685Y0539156D02*
X0034685Y0543156D01*
X0033352Y0540299D01*
X0032019Y0543156D01*
X0032019Y0539156D01*
X0098009Y0533349D02*
X0100295Y0533349D01*
X0099152Y0533349D02*
X0099152Y0537349D01*
X0099533Y0536778D01*
X0099914Y0536397D01*
X0100295Y0536206D01*
X0094200Y0537159D02*
X0094581Y0537349D01*
X0095152Y0537349D01*
X0095724Y0537159D01*
X0096105Y0536778D01*
X0096295Y0536397D01*
X0096486Y0535635D01*
X0096486Y0535064D01*
X0096295Y0534302D01*
X0096105Y0533921D01*
X0095724Y0533540D01*
X0095152Y0533349D01*
X0094771Y0533349D01*
X0094200Y0533540D01*
X0094009Y0533730D01*
X0094009Y0535064D01*
X0094771Y0535064D01*
D339*
X0259455Y0526352D02*
X0260374Y0527852D01*
X0261030Y0526352D02*
X0261030Y0529502D01*
X0259980Y0529502D01*
X0259718Y0529352D01*
X0259587Y0529202D01*
X0259455Y0528902D01*
X0259455Y0528452D01*
X0259587Y0528152D01*
X0259718Y0528002D01*
X0259980Y0527852D01*
X0261030Y0527852D01*
X0258668Y0529502D02*
X0257093Y0529502D01*
X0257881Y0526352D02*
X0257881Y0529502D01*
X0256175Y0526352D02*
X0256175Y0528452D01*
X0256175Y0527852D02*
X0256043Y0528152D01*
X0255912Y0528302D01*
X0255650Y0528452D01*
X0255387Y0528452D01*
X0254469Y0526352D02*
X0254469Y0528452D01*
X0254469Y0529502D02*
X0254600Y0529352D01*
X0254469Y0529202D01*
X0254337Y0529352D01*
X0254469Y0529502D01*
X0254469Y0529202D01*
X0253156Y0526352D02*
X0253156Y0528452D01*
X0253156Y0528152D02*
X0253025Y0528302D01*
X0252763Y0528452D01*
X0252369Y0528452D01*
X0252106Y0528302D01*
X0251975Y0528002D01*
X0251975Y0526352D01*
X0251975Y0528002D02*
X0251844Y0528302D01*
X0251581Y0528452D01*
X0251188Y0528452D01*
X0250925Y0528302D01*
X0250794Y0528002D01*
X0250794Y0526352D01*
D326*
X0502272Y0467147D02*
X0503272Y0468575D01*
X0503986Y0467147D02*
X0503986Y0470147D01*
X0502843Y0470147D01*
X0502557Y0470004D01*
X0502415Y0469861D01*
X0502272Y0469575D01*
X0502272Y0469147D01*
X0502415Y0468861D01*
X0502557Y0468718D01*
X0502843Y0468575D01*
X0503986Y0468575D01*
X0500557Y0468861D02*
X0500843Y0469004D01*
X0500986Y0469147D01*
X0501129Y0469433D01*
X0501129Y0469575D01*
X0500986Y0469861D01*
X0500843Y0470004D01*
X0500557Y0470147D01*
X0499986Y0470147D01*
X0499700Y0470004D01*
X0499557Y0469861D01*
X0499415Y0469575D01*
X0499415Y0469433D01*
X0499557Y0469147D01*
X0499700Y0469004D01*
X0499986Y0468861D01*
X0500557Y0468861D01*
X0500843Y0468718D01*
X0500986Y0468575D01*
X0501129Y0468290D01*
X0501129Y0467718D01*
X0500986Y0467433D01*
X0500843Y0467290D01*
X0500557Y0467147D01*
X0499986Y0467147D01*
X0499700Y0467290D01*
X0499557Y0467433D01*
X0499415Y0467718D01*
X0499415Y0468290D01*
X0499557Y0468575D01*
X0499700Y0468718D01*
X0499986Y0468861D01*
X0191001Y0495613D02*
X0192001Y0497041D01*
X0192715Y0495613D02*
X0192715Y0498613D01*
X0191573Y0498613D01*
X0191287Y0498470D01*
X0191144Y0498327D01*
X0191001Y0498041D01*
X0191001Y0497613D01*
X0191144Y0497327D01*
X0191287Y0497184D01*
X0191573Y0497041D01*
X0192715Y0497041D01*
X0190001Y0498613D02*
X0188144Y0498613D01*
X0189144Y0497470D01*
X0188715Y0497470D01*
X0188430Y0497327D01*
X0188287Y0497184D01*
X0188144Y0496898D01*
X0188144Y0496184D01*
X0188287Y0495898D01*
X0188430Y0495756D01*
X0188715Y0495613D01*
X0189573Y0495613D01*
X0189858Y0495756D01*
X0190001Y0495898D01*
X0187001Y0498327D02*
X0186858Y0498470D01*
X0186573Y0498613D01*
X0185858Y0498613D01*
X0185573Y0498470D01*
X0185430Y0498327D01*
X0185287Y0498041D01*
X0185287Y0497756D01*
X0185430Y0497327D01*
X0187144Y0495613D01*
X0185287Y0495613D01*
D339*
X0248191Y0148456D02*
X0248191Y0152393D01*
X0246691Y0152393D01*
X0246316Y0152206D01*
X0246129Y0152018D01*
X0245941Y0151643D01*
X0245941Y0151081D01*
X0246129Y0150706D01*
X0246316Y0150518D01*
X0246691Y0150331D01*
X0248191Y0150331D01*
X0242379Y0152393D02*
X0244254Y0152393D01*
X0244441Y0150518D01*
X0244254Y0150706D01*
X0243879Y0150893D01*
X0242942Y0150893D01*
X0242567Y0150706D01*
X0242379Y0150518D01*
X0242192Y0150143D01*
X0242192Y0149206D01*
X0242379Y0148831D01*
X0242567Y0148644D01*
X0242942Y0148456D01*
X0243879Y0148456D01*
X0244254Y0148644D01*
X0244441Y0148831D01*
X0248191Y0177992D02*
X0248191Y0181929D01*
X0246691Y0181929D01*
X0246316Y0181742D01*
X0246129Y0181554D01*
X0245941Y0181179D01*
X0245941Y0180617D01*
X0246129Y0180242D01*
X0246316Y0180054D01*
X0246691Y0179867D01*
X0248191Y0179867D01*
X0242567Y0181929D02*
X0243316Y0181929D01*
X0243691Y0181742D01*
X0243879Y0181554D01*
X0244254Y0180992D01*
X0244441Y0180242D01*
X0244441Y0178742D01*
X0244254Y0178367D01*
X0244066Y0178180D01*
X0243691Y0177992D01*
X0242942Y0177992D01*
X0242567Y0178180D01*
X0242379Y0178367D01*
X0242192Y0178742D01*
X0242192Y0179679D01*
X0242379Y0180054D01*
X0242567Y0180242D01*
X0242942Y0180429D01*
X0243691Y0180429D01*
X0244066Y0180242D01*
X0244254Y0180054D01*
X0244441Y0179679D01*
X0162268Y0480228D02*
X0162268Y0484165D01*
X0160768Y0484165D01*
X0160393Y0483978D01*
X0160205Y0483790D01*
X0160018Y0483415D01*
X0160018Y0482853D01*
X0160205Y0482478D01*
X0160393Y0482290D01*
X0160768Y0482103D01*
X0162268Y0482103D01*
X0156643Y0482853D02*
X0156643Y0480228D01*
X0157581Y0484353D02*
X0158518Y0481541D01*
X0156081Y0481541D01*
X0154956Y0484165D02*
X0152331Y0484165D01*
X0154019Y0480228D01*
X0460004Y0493614D02*
X0460004Y0497551D01*
X0458504Y0497551D01*
X0458129Y0497364D01*
X0457942Y0497176D01*
X0457754Y0496801D01*
X0457754Y0496239D01*
X0457942Y0495864D01*
X0458129Y0495676D01*
X0458504Y0495489D01*
X0460004Y0495489D01*
X0454005Y0493614D02*
X0456254Y0493614D01*
X0455129Y0493614D02*
X0455129Y0497551D01*
X0455504Y0496989D01*
X0455879Y0496614D01*
X0456254Y0496426D01*
X0452130Y0493614D02*
X0451380Y0493614D01*
X0451005Y0493801D01*
X0450817Y0493989D01*
X0450442Y0494551D01*
X0450255Y0495301D01*
X0450255Y0496801D01*
X0450442Y0497176D01*
X0450630Y0497364D01*
X0451005Y0497551D01*
X0451755Y0497551D01*
X0452130Y0497364D01*
X0452317Y0497176D01*
X0452505Y0496801D01*
X0452505Y0495864D01*
X0452317Y0495489D01*
X0452130Y0495301D01*
X0451755Y0495114D01*
X0451005Y0495114D01*
X0450630Y0495301D01*
X0450442Y0495489D01*
X0450255Y0495864D01*
X0364335Y0504834D02*
X0364335Y0508771D01*
X0362835Y0508771D01*
X0362460Y0508584D01*
X0362272Y0508397D01*
X0362085Y0508022D01*
X0362085Y0507459D01*
X0362272Y0507084D01*
X0362460Y0506897D01*
X0362835Y0506709D01*
X0364335Y0506709D01*
X0358335Y0504834D02*
X0360585Y0504834D01*
X0359460Y0504834D02*
X0359460Y0508771D01*
X0359835Y0508209D01*
X0360210Y0507834D01*
X0360585Y0507647D01*
X0355898Y0508771D02*
X0355523Y0508771D01*
X0355148Y0508584D01*
X0354961Y0508397D01*
X0354773Y0508022D01*
X0354586Y0507272D01*
X0354586Y0506334D01*
X0354773Y0505584D01*
X0354961Y0505209D01*
X0355148Y0505022D01*
X0355523Y0504834D01*
X0355898Y0504834D01*
X0356273Y0505022D01*
X0356460Y0505209D01*
X0356648Y0505584D01*
X0356835Y0506334D01*
X0356835Y0507272D01*
X0356648Y0508022D01*
X0356460Y0508397D01*
X0356273Y0508584D01*
X0355898Y0508771D01*
D326*
X0221916Y0495514D02*
X0222916Y0496943D01*
X0223630Y0495514D02*
X0223630Y0498514D01*
X0222487Y0498514D01*
X0222201Y0498371D01*
X0222058Y0498228D01*
X0221916Y0497943D01*
X0221916Y0497514D01*
X0222058Y0497228D01*
X0222201Y0497086D01*
X0222487Y0496943D01*
X0223630Y0496943D01*
X0220773Y0498228D02*
X0220630Y0498371D01*
X0220344Y0498514D01*
X0219630Y0498514D01*
X0219344Y0498371D01*
X0219201Y0498228D01*
X0219058Y0497943D01*
X0219058Y0497657D01*
X0219201Y0497228D01*
X0220916Y0495514D01*
X0219058Y0495514D01*
X0216201Y0495514D02*
X0217916Y0495514D01*
X0217058Y0495514D02*
X0217058Y0498514D01*
X0217344Y0498086D01*
X0217630Y0497800D01*
X0217916Y0497657D01*
D339*
X0121716Y0318122D02*
X0121716Y0322059D01*
X0120217Y0322059D01*
X0119842Y0321871D01*
X0119654Y0321684D01*
X0119467Y0321309D01*
X0119467Y0320747D01*
X0119654Y0320372D01*
X0119842Y0320184D01*
X0120217Y0319997D01*
X0121716Y0319997D01*
X0115717Y0318122D02*
X0117967Y0318122D01*
X0116842Y0318122D02*
X0116842Y0322059D01*
X0117217Y0321496D01*
X0117592Y0321122D01*
X0117967Y0320934D01*
X0114217Y0321684D02*
X0114030Y0321871D01*
X0113655Y0322059D01*
X0112718Y0322059D01*
X0112343Y0321871D01*
X0112155Y0321684D01*
X0111968Y0321309D01*
X0111968Y0320934D01*
X0112155Y0320372D01*
X0114405Y0318122D01*
X0111968Y0318122D01*
D326*
X0125711Y0496203D02*
X0126711Y0497632D01*
X0127425Y0496203D02*
X0127425Y0499203D01*
X0126282Y0499203D01*
X0125997Y0499060D01*
X0125854Y0498918D01*
X0125711Y0498632D01*
X0125711Y0498203D01*
X0125854Y0497918D01*
X0125997Y0497775D01*
X0126282Y0497632D01*
X0127425Y0497632D01*
X0124711Y0499203D02*
X0122854Y0499203D01*
X0123854Y0498060D01*
X0123425Y0498060D01*
X0123140Y0497918D01*
X0122997Y0497775D01*
X0122854Y0497489D01*
X0122854Y0496775D01*
X0122997Y0496489D01*
X0123140Y0496346D01*
X0123425Y0496203D01*
X0124282Y0496203D01*
X0124568Y0496346D01*
X0124711Y0496489D01*
X0120282Y0499203D02*
X0120854Y0499203D01*
X0121140Y0499060D01*
X0121282Y0498918D01*
X0121568Y0498489D01*
X0121711Y0497918D01*
X0121711Y0496775D01*
X0121568Y0496489D01*
X0121425Y0496346D01*
X0121140Y0496203D01*
X0120568Y0496203D01*
X0120282Y0496346D01*
X0120140Y0496489D01*
X0119997Y0496775D01*
X0119997Y0497489D01*
X0120140Y0497775D01*
X0120282Y0497918D01*
X0120568Y0498060D01*
X0121140Y0498060D01*
X0121425Y0497918D01*
X0121568Y0497775D01*
X0121711Y0497489D01*
X0446620Y0493743D02*
X0447620Y0495171D01*
X0448335Y0493743D02*
X0448335Y0496743D01*
X0447192Y0496743D01*
X0446906Y0496600D01*
X0446763Y0496457D01*
X0446620Y0496171D01*
X0446620Y0495743D01*
X0446763Y0495457D01*
X0446906Y0495314D01*
X0447192Y0495171D01*
X0448335Y0495171D01*
X0444049Y0495743D02*
X0444049Y0493743D01*
X0444763Y0496885D02*
X0445477Y0494743D01*
X0443620Y0494743D01*
X0442049Y0495457D02*
X0442335Y0495600D01*
X0442477Y0495743D01*
X0442620Y0496028D01*
X0442620Y0496171D01*
X0442477Y0496457D01*
X0442335Y0496600D01*
X0442049Y0496743D01*
X0441477Y0496743D01*
X0441192Y0496600D01*
X0441049Y0496457D01*
X0440906Y0496171D01*
X0440906Y0496028D01*
X0441049Y0495743D01*
X0441192Y0495600D01*
X0441477Y0495457D01*
X0442049Y0495457D01*
X0442335Y0495314D01*
X0442477Y0495171D01*
X0442620Y0494885D01*
X0442620Y0494314D01*
X0442477Y0494028D01*
X0442335Y0493885D01*
X0442049Y0493743D01*
X0441477Y0493743D01*
X0441192Y0493885D01*
X0441049Y0494028D01*
X0440906Y0494314D01*
X0440906Y0494885D01*
X0441049Y0495171D01*
X0441192Y0495314D01*
X0441477Y0495457D01*
D339*
X0354051Y0530491D02*
X0350114Y0530491D01*
X0350114Y0528991D01*
X0350302Y0528616D01*
X0350489Y0528428D01*
X0350864Y0528241D01*
X0351427Y0528241D01*
X0351802Y0528428D01*
X0351989Y0528616D01*
X0352177Y0528991D01*
X0352177Y0530491D01*
X0354051Y0524491D02*
X0354051Y0526741D01*
X0354051Y0525616D02*
X0350114Y0525616D01*
X0350677Y0525991D01*
X0351052Y0526366D01*
X0351239Y0526741D01*
X0350114Y0520929D02*
X0350114Y0522804D01*
X0351989Y0522992D01*
X0351802Y0522804D01*
X0351614Y0522429D01*
X0351614Y0521492D01*
X0351802Y0521117D01*
X0351989Y0520929D01*
X0352364Y0520742D01*
X0353302Y0520742D01*
X0353676Y0520929D01*
X0353864Y0521117D01*
X0354051Y0521492D01*
X0354051Y0522429D01*
X0353864Y0522804D01*
X0353676Y0522992D01*
D326*
X0440789Y0484056D02*
X0439361Y0485056D01*
X0440789Y0485770D02*
X0437789Y0485770D01*
X0437789Y0484627D01*
X0437932Y0484342D01*
X0438075Y0484199D01*
X0438361Y0484056D01*
X0438789Y0484056D01*
X0439075Y0484199D01*
X0439218Y0484342D01*
X0439361Y0484627D01*
X0439361Y0485770D01*
X0438075Y0482913D02*
X0437932Y0482770D01*
X0437789Y0482484D01*
X0437789Y0481770D01*
X0437932Y0481484D01*
X0438075Y0481342D01*
X0438361Y0481199D01*
X0438646Y0481199D01*
X0439075Y0481342D01*
X0440789Y0483056D01*
X0440789Y0481199D01*
X0438789Y0478627D02*
X0440789Y0478627D01*
X0437646Y0479342D02*
X0439789Y0480056D01*
X0439789Y0478199D01*
X0174136Y0496203D02*
X0175136Y0497632D01*
X0175850Y0496203D02*
X0175850Y0499203D01*
X0174708Y0499203D01*
X0174422Y0499060D01*
X0174279Y0498918D01*
X0174136Y0498632D01*
X0174136Y0498203D01*
X0174279Y0497918D01*
X0174422Y0497775D01*
X0174708Y0497632D01*
X0175850Y0497632D01*
X0173136Y0499203D02*
X0171279Y0499203D01*
X0172279Y0498060D01*
X0171850Y0498060D01*
X0171565Y0497918D01*
X0171422Y0497775D01*
X0171279Y0497489D01*
X0171279Y0496775D01*
X0171422Y0496489D01*
X0171565Y0496346D01*
X0171850Y0496203D01*
X0172708Y0496203D01*
X0172993Y0496346D01*
X0173136Y0496489D01*
X0170279Y0499203D02*
X0168422Y0499203D01*
X0169422Y0498060D01*
X0168993Y0498060D01*
X0168708Y0497918D01*
X0168565Y0497775D01*
X0168422Y0497489D01*
X0168422Y0496775D01*
X0168565Y0496489D01*
X0168708Y0496346D01*
X0168993Y0496203D01*
X0169850Y0496203D01*
X0170136Y0496346D01*
X0170279Y0496489D01*
X0048509Y0504706D02*
X0047081Y0505706D01*
X0048509Y0506420D02*
X0045509Y0506420D01*
X0045509Y0505277D01*
X0045652Y0504991D01*
X0045795Y0504848D01*
X0046081Y0504706D01*
X0046509Y0504706D01*
X0046795Y0504848D01*
X0046938Y0504991D01*
X0047081Y0505277D01*
X0047081Y0506420D01*
X0046509Y0502134D02*
X0048509Y0502134D01*
X0045367Y0502848D02*
X0047509Y0503563D01*
X0047509Y0501706D01*
X0045795Y0500706D02*
X0045652Y0500563D01*
X0045509Y0500277D01*
X0045509Y0499563D01*
X0045652Y0499277D01*
X0045795Y0499134D01*
X0046081Y0498991D01*
X0046367Y0498991D01*
X0046795Y0499134D01*
X0048509Y0500848D01*
X0048509Y0498991D01*
D339*
X0160252Y0531081D02*
X0156315Y0531081D01*
X0156315Y0529581D01*
X0156503Y0529206D01*
X0156690Y0529019D01*
X0157065Y0528831D01*
X0157628Y0528831D01*
X0158002Y0529019D01*
X0158190Y0529206D01*
X0158377Y0529581D01*
X0158377Y0531081D01*
X0156315Y0525269D02*
X0156315Y0527144D01*
X0158190Y0527332D01*
X0158002Y0527144D01*
X0157815Y0526769D01*
X0157815Y0525832D01*
X0158002Y0525457D01*
X0158190Y0525269D01*
X0158565Y0525082D01*
X0159502Y0525082D01*
X0159877Y0525269D01*
X0160065Y0525457D01*
X0160252Y0525832D01*
X0160252Y0526769D01*
X0160065Y0527144D01*
X0159877Y0527332D01*
X0156315Y0521707D02*
X0156315Y0522457D01*
X0156503Y0522832D01*
X0156690Y0523020D01*
X0157253Y0523395D01*
X0158002Y0523582D01*
X0159502Y0523582D01*
X0159877Y0523395D01*
X0160065Y0523207D01*
X0160252Y0522832D01*
X0160252Y0522082D01*
X0160065Y0521707D01*
X0159877Y0521520D01*
X0159502Y0521332D01*
X0158565Y0521332D01*
X0158190Y0521520D01*
X0158002Y0521707D01*
X0157815Y0522082D01*
X0157815Y0522832D01*
X0158002Y0523207D01*
X0158190Y0523395D01*
X0158565Y0523582D01*
X0514601Y0496841D02*
X0514601Y0500778D01*
X0513102Y0500778D01*
X0512727Y0500591D01*
X0512539Y0500403D01*
X0512352Y0500028D01*
X0512352Y0499466D01*
X0512539Y0499091D01*
X0512727Y0498903D01*
X0513102Y0498716D01*
X0514601Y0498716D01*
X0508790Y0500778D02*
X0510664Y0500778D01*
X0510852Y0498903D01*
X0510664Y0499091D01*
X0510289Y0499278D01*
X0509352Y0499278D01*
X0508977Y0499091D01*
X0508790Y0498903D01*
X0508602Y0498528D01*
X0508602Y0497591D01*
X0508790Y0497216D01*
X0508977Y0497029D01*
X0509352Y0496841D01*
X0510289Y0496841D01*
X0510664Y0497029D01*
X0510852Y0497216D01*
X0507102Y0500403D02*
X0506915Y0500591D01*
X0506540Y0500778D01*
X0505603Y0500778D01*
X0505228Y0500591D01*
X0505040Y0500403D01*
X0504853Y0500028D01*
X0504853Y0499653D01*
X0505040Y0499091D01*
X0507290Y0496841D01*
X0504853Y0496841D01*
X0367831Y0332065D02*
X0363894Y0332065D01*
X0363894Y0330566D01*
X0364081Y0330191D01*
X0364269Y0330003D01*
X0364644Y0329816D01*
X0365206Y0329816D01*
X0365581Y0330003D01*
X0365769Y0330191D01*
X0365956Y0330566D01*
X0365956Y0332065D01*
X0365206Y0326441D02*
X0367831Y0326441D01*
X0363706Y0327379D02*
X0366519Y0328316D01*
X0366519Y0325879D01*
X0365206Y0322692D02*
X0367831Y0322692D01*
X0363706Y0323629D02*
X0366519Y0324566D01*
X0366519Y0322129D01*
X0133134Y0288988D02*
X0133134Y0292925D01*
X0131634Y0292925D01*
X0131259Y0292738D01*
X0131071Y0292550D01*
X0130884Y0292175D01*
X0130884Y0291613D01*
X0131071Y0291238D01*
X0131259Y0291050D01*
X0131634Y0290863D01*
X0133134Y0290863D01*
X0127134Y0288988D02*
X0129384Y0288988D01*
X0128259Y0288988D02*
X0128259Y0292925D01*
X0128634Y0292363D01*
X0129009Y0291988D01*
X0129384Y0291800D01*
X0125822Y0292925D02*
X0123385Y0292925D01*
X0124697Y0291425D01*
X0124135Y0291425D01*
X0123760Y0291238D01*
X0123572Y0291050D01*
X0123385Y0290675D01*
X0123385Y0289738D01*
X0123572Y0289363D01*
X0123760Y0289176D01*
X0124135Y0288988D01*
X0125260Y0288988D01*
X0125635Y0289176D01*
X0125822Y0289363D01*
X0480772Y0169303D02*
X0480772Y0173240D01*
X0479272Y0173240D01*
X0478897Y0173053D01*
X0478709Y0172865D01*
X0478522Y0172490D01*
X0478522Y0171928D01*
X0478709Y0171553D01*
X0478897Y0171365D01*
X0479272Y0171178D01*
X0480772Y0171178D01*
X0477022Y0172865D02*
X0476835Y0173053D01*
X0476460Y0173240D01*
X0475522Y0173240D01*
X0475147Y0173053D01*
X0474960Y0172865D01*
X0474772Y0172490D01*
X0474772Y0172115D01*
X0474960Y0171553D01*
X0477209Y0169303D01*
X0474772Y0169303D01*
X0472898Y0169303D02*
X0472148Y0169303D01*
X0471773Y0169490D01*
X0471585Y0169678D01*
X0471210Y0170240D01*
X0471023Y0170990D01*
X0471023Y0172490D01*
X0471210Y0172865D01*
X0471398Y0173053D01*
X0471773Y0173240D01*
X0472523Y0173240D01*
X0472898Y0173053D01*
X0473085Y0172865D01*
X0473272Y0172490D01*
X0473272Y0171553D01*
X0473085Y0171178D01*
X0472898Y0170990D01*
X0472523Y0170803D01*
X0471773Y0170803D01*
X0471398Y0170990D01*
X0471210Y0171178D01*
X0471023Y0171553D01*
D326*
X0212270Y0495613D02*
X0213270Y0497041D01*
X0213984Y0495613D02*
X0213984Y0498613D01*
X0212841Y0498613D01*
X0212556Y0498470D01*
X0212413Y0498327D01*
X0212270Y0498041D01*
X0212270Y0497613D01*
X0212413Y0497327D01*
X0212556Y0497184D01*
X0212841Y0497041D01*
X0213984Y0497041D01*
X0209698Y0497613D02*
X0209698Y0495613D01*
X0210413Y0498756D02*
X0211127Y0496613D01*
X0209270Y0496613D01*
X0208413Y0498613D02*
X0206556Y0498613D01*
X0207556Y0497470D01*
X0207127Y0497470D01*
X0206841Y0497327D01*
X0206698Y0497184D01*
X0206556Y0496898D01*
X0206556Y0496184D01*
X0206698Y0495898D01*
X0206841Y0495756D01*
X0207127Y0495613D01*
X0207984Y0495613D01*
X0208270Y0495756D01*
X0208413Y0495898D01*
D339*
X0480772Y0140425D02*
X0480772Y0144362D01*
X0479272Y0144362D01*
X0478897Y0144174D01*
X0478709Y0143987D01*
X0478522Y0143612D01*
X0478522Y0143049D01*
X0478709Y0142674D01*
X0478897Y0142487D01*
X0479272Y0142299D01*
X0480772Y0142299D01*
X0477209Y0144362D02*
X0474772Y0144362D01*
X0476085Y0142862D01*
X0475522Y0142862D01*
X0475147Y0142674D01*
X0474960Y0142487D01*
X0474772Y0142112D01*
X0474772Y0141174D01*
X0474960Y0140800D01*
X0475147Y0140612D01*
X0475522Y0140425D01*
X0476647Y0140425D01*
X0477022Y0140612D01*
X0477209Y0140800D01*
X0472335Y0144362D02*
X0471960Y0144362D01*
X0471585Y0144174D01*
X0471398Y0143987D01*
X0471210Y0143612D01*
X0471023Y0142862D01*
X0471023Y0141924D01*
X0471210Y0141174D01*
X0471398Y0140800D01*
X0471585Y0140612D01*
X0471960Y0140425D01*
X0472335Y0140425D01*
X0472710Y0140612D01*
X0472898Y0140800D01*
X0473085Y0141174D01*
X0473272Y0141924D01*
X0473272Y0142862D01*
X0473085Y0143612D01*
X0472898Y0143987D01*
X0472710Y0144174D01*
X0472335Y0144362D01*
X0259255Y0177984D02*
X0259255Y0181921D01*
X0257755Y0181921D01*
X0257380Y0181733D01*
X0257193Y0181546D01*
X0257005Y0181171D01*
X0257005Y0180608D01*
X0257193Y0180233D01*
X0257380Y0180046D01*
X0257755Y0179858D01*
X0259255Y0179858D01*
X0253631Y0180608D02*
X0253631Y0177984D01*
X0254568Y0182108D02*
X0255505Y0179296D01*
X0253068Y0179296D01*
X0492583Y0140425D02*
X0492583Y0144362D01*
X0491083Y0144362D01*
X0490708Y0144174D01*
X0490520Y0143987D01*
X0490333Y0143612D01*
X0490333Y0143049D01*
X0490520Y0142674D01*
X0490708Y0142487D01*
X0491083Y0142299D01*
X0492583Y0142299D01*
X0488833Y0143987D02*
X0488646Y0144174D01*
X0488271Y0144362D01*
X0487333Y0144362D01*
X0486958Y0144174D01*
X0486771Y0143987D01*
X0486583Y0143612D01*
X0486583Y0143237D01*
X0486771Y0142674D01*
X0489020Y0140425D01*
X0486583Y0140425D01*
X0483021Y0144362D02*
X0484896Y0144362D01*
X0485083Y0142487D01*
X0484896Y0142674D01*
X0484521Y0142862D01*
X0483584Y0142862D01*
X0483209Y0142674D01*
X0483021Y0142487D01*
X0482834Y0142112D01*
X0482834Y0141174D01*
X0483021Y0140800D01*
X0483209Y0140612D01*
X0483584Y0140425D01*
X0484521Y0140425D01*
X0484896Y0140612D01*
X0485083Y0140800D01*
D326*
X0523786Y0519727D02*
X0524786Y0521155D01*
X0525500Y0519727D02*
X0525500Y0522727D01*
X0524357Y0522727D01*
X0524071Y0522584D01*
X0523928Y0522441D01*
X0523786Y0522155D01*
X0523786Y0521727D01*
X0523928Y0521441D01*
X0524071Y0521298D01*
X0524357Y0521155D01*
X0525500Y0521155D01*
X0520928Y0519727D02*
X0522643Y0519727D01*
X0521786Y0519727D02*
X0521786Y0522727D01*
X0522071Y0522298D01*
X0522357Y0522013D01*
X0522643Y0521870D01*
X0519928Y0522727D02*
X0517928Y0522727D01*
X0519214Y0519727D01*
D339*
X0460988Y0523831D02*
X0460988Y0527768D01*
X0459488Y0527768D01*
X0459113Y0527580D01*
X0458926Y0527393D01*
X0458738Y0527018D01*
X0458738Y0526455D01*
X0458926Y0526080D01*
X0459113Y0525893D01*
X0459488Y0525705D01*
X0460988Y0525705D01*
X0455176Y0527768D02*
X0457051Y0527768D01*
X0457239Y0525893D01*
X0457051Y0526080D01*
X0456676Y0526268D01*
X0455739Y0526268D01*
X0455364Y0526080D01*
X0455176Y0525893D01*
X0454989Y0525518D01*
X0454989Y0524580D01*
X0455176Y0524206D01*
X0455364Y0524018D01*
X0455739Y0523831D01*
X0456676Y0523831D01*
X0457051Y0524018D01*
X0457239Y0524206D01*
X0451427Y0527768D02*
X0453302Y0527768D01*
X0453489Y0525893D01*
X0453302Y0526080D01*
X0452927Y0526268D01*
X0451989Y0526268D01*
X0451614Y0526080D01*
X0451427Y0525893D01*
X0451239Y0525518D01*
X0451239Y0524580D01*
X0451427Y0524206D01*
X0451614Y0524018D01*
X0451989Y0523831D01*
X0452927Y0523831D01*
X0453302Y0524018D01*
X0453489Y0524206D01*
X0283087Y0248109D02*
X0279150Y0248109D01*
X0279150Y0246609D01*
X0279337Y0246234D01*
X0279525Y0246047D01*
X0279900Y0245859D01*
X0280462Y0245859D01*
X0280837Y0246047D01*
X0281025Y0246234D01*
X0281212Y0246609D01*
X0281212Y0248109D01*
X0283087Y0242110D02*
X0283087Y0244359D01*
X0283087Y0243234D02*
X0279150Y0243234D01*
X0279712Y0243609D01*
X0280087Y0243984D01*
X0280275Y0244359D01*
X0279150Y0240797D02*
X0279150Y0238173D01*
X0283087Y0239860D01*
X0121716Y0288988D02*
X0121716Y0292925D01*
X0120217Y0292925D01*
X0119842Y0292738D01*
X0119654Y0292550D01*
X0119467Y0292175D01*
X0119467Y0291613D01*
X0119654Y0291238D01*
X0119842Y0291050D01*
X0120217Y0290863D01*
X0121716Y0290863D01*
X0115717Y0288988D02*
X0117967Y0288988D01*
X0116842Y0288988D02*
X0116842Y0292925D01*
X0117217Y0292363D01*
X0117592Y0291988D01*
X0117967Y0291800D01*
X0111968Y0288988D02*
X0114217Y0288988D01*
X0113092Y0288988D02*
X0113092Y0292925D01*
X0113467Y0292363D01*
X0113842Y0291988D01*
X0114217Y0291800D01*
X0116256Y0529900D02*
X0112319Y0529900D01*
X0112319Y0528400D01*
X0112507Y0528025D01*
X0112694Y0527838D01*
X0113069Y0527650D01*
X0113631Y0527650D01*
X0114006Y0527838D01*
X0114194Y0528025D01*
X0114381Y0528400D01*
X0114381Y0529900D01*
X0112319Y0524088D02*
X0112319Y0525963D01*
X0114194Y0526151D01*
X0114006Y0525963D01*
X0113819Y0525588D01*
X0113819Y0524651D01*
X0114006Y0524276D01*
X0114194Y0524088D01*
X0114569Y0523901D01*
X0115506Y0523901D01*
X0115881Y0524088D01*
X0116069Y0524276D01*
X0116256Y0524651D01*
X0116256Y0525588D01*
X0116069Y0525963D01*
X0115881Y0526151D01*
X0112319Y0521464D02*
X0112319Y0521089D01*
X0112507Y0520714D01*
X0112694Y0520526D01*
X0113069Y0520339D01*
X0113819Y0520151D01*
X0114756Y0520151D01*
X0115506Y0520339D01*
X0115881Y0520526D01*
X0116069Y0520714D01*
X0116256Y0521089D01*
X0116256Y0521464D01*
X0116069Y0521839D01*
X0115881Y0522026D01*
X0115506Y0522214D01*
X0114756Y0522401D01*
X0113819Y0522401D01*
X0113069Y0522214D01*
X0112694Y0522026D01*
X0112507Y0521839D01*
X0112319Y0521464D01*
D326*
X0092642Y0487637D02*
X0093642Y0489065D01*
X0094356Y0487637D02*
X0094356Y0490637D01*
X0093213Y0490637D01*
X0092928Y0490494D01*
X0092785Y0490351D01*
X0092642Y0490065D01*
X0092642Y0489637D01*
X0092785Y0489351D01*
X0092928Y0489208D01*
X0093213Y0489065D01*
X0094356Y0489065D01*
X0090071Y0489637D02*
X0090071Y0487637D01*
X0090785Y0490780D02*
X0091499Y0488637D01*
X0089642Y0488637D01*
X0087928Y0490637D02*
X0087642Y0490637D01*
X0087356Y0490494D01*
X0087213Y0490351D01*
X0087071Y0490065D01*
X0086928Y0489494D01*
X0086928Y0488780D01*
X0087071Y0488208D01*
X0087213Y0487922D01*
X0087356Y0487780D01*
X0087642Y0487637D01*
X0087928Y0487637D01*
X0088213Y0487780D01*
X0088356Y0487922D01*
X0088499Y0488208D01*
X0088642Y0488780D01*
X0088642Y0489494D01*
X0088499Y0490065D01*
X0088356Y0490351D01*
X0088213Y0490494D01*
X0087928Y0490637D01*
D339*
X0328212Y0290173D02*
X0328212Y0294110D01*
X0326713Y0294110D01*
X0326338Y0293922D01*
X0326150Y0293735D01*
X0325963Y0293360D01*
X0325963Y0292797D01*
X0326150Y0292422D01*
X0326338Y0292235D01*
X0326713Y0292047D01*
X0328212Y0292047D01*
X0324463Y0293735D02*
X0324275Y0293922D01*
X0323901Y0294110D01*
X0322963Y0294110D01*
X0322588Y0293922D01*
X0322401Y0293735D01*
X0322213Y0293360D01*
X0322213Y0292985D01*
X0322401Y0292422D01*
X0324650Y0290173D01*
X0322213Y0290173D01*
X0319963Y0292422D02*
X0320338Y0292610D01*
X0320526Y0292797D01*
X0320713Y0293172D01*
X0320713Y0293360D01*
X0320526Y0293735D01*
X0320338Y0293922D01*
X0319963Y0294110D01*
X0319214Y0294110D01*
X0318839Y0293922D01*
X0318651Y0293735D01*
X0318464Y0293360D01*
X0318464Y0293172D01*
X0318651Y0292797D01*
X0318839Y0292610D01*
X0319214Y0292422D01*
X0319963Y0292422D01*
X0320338Y0292235D01*
X0320526Y0292047D01*
X0320713Y0291672D01*
X0320713Y0290923D01*
X0320526Y0290548D01*
X0320338Y0290360D01*
X0319963Y0290173D01*
X0319214Y0290173D01*
X0318839Y0290360D01*
X0318651Y0290548D01*
X0318464Y0290923D01*
X0318464Y0291672D01*
X0318651Y0292047D01*
X0318839Y0292235D01*
X0319214Y0292422D01*
X0492583Y0169303D02*
X0492583Y0173240D01*
X0491083Y0173240D01*
X0490708Y0173053D01*
X0490520Y0172865D01*
X0490333Y0172490D01*
X0490333Y0171928D01*
X0490520Y0171553D01*
X0490708Y0171365D01*
X0491083Y0171178D01*
X0492583Y0171178D01*
X0488833Y0172865D02*
X0488646Y0173053D01*
X0488271Y0173240D01*
X0487333Y0173240D01*
X0486958Y0173053D01*
X0486771Y0172865D01*
X0486583Y0172490D01*
X0486583Y0172115D01*
X0486771Y0171553D01*
X0489020Y0169303D01*
X0486583Y0169303D01*
X0483209Y0171928D02*
X0483209Y0169303D01*
X0484146Y0173427D02*
X0485083Y0170615D01*
X0482646Y0170615D01*
X0373975Y0504933D02*
X0373975Y0508870D01*
X0372476Y0508870D01*
X0372101Y0508682D01*
X0371913Y0508495D01*
X0371726Y0508120D01*
X0371726Y0507558D01*
X0371913Y0507183D01*
X0372101Y0506995D01*
X0372476Y0506808D01*
X0373975Y0506808D01*
X0369476Y0507183D02*
X0369851Y0507370D01*
X0370038Y0507558D01*
X0370226Y0507933D01*
X0370226Y0508120D01*
X0370038Y0508495D01*
X0369851Y0508682D01*
X0369476Y0508870D01*
X0368726Y0508870D01*
X0368351Y0508682D01*
X0368164Y0508495D01*
X0367976Y0508120D01*
X0367976Y0507933D01*
X0368164Y0507558D01*
X0368351Y0507370D01*
X0368726Y0507183D01*
X0369476Y0507183D01*
X0369851Y0506995D01*
X0370038Y0506808D01*
X0370226Y0506433D01*
X0370226Y0505683D01*
X0370038Y0505308D01*
X0369851Y0505120D01*
X0369476Y0504933D01*
X0368726Y0504933D01*
X0368351Y0505120D01*
X0368164Y0505308D01*
X0367976Y0505683D01*
X0367976Y0506433D01*
X0368164Y0506808D01*
X0368351Y0506995D01*
X0368726Y0507183D01*
D326*
X0060813Y0504804D02*
X0059384Y0505804D01*
X0060813Y0506518D02*
X0057813Y0506518D01*
X0057813Y0505375D01*
X0057955Y0505090D01*
X0058098Y0504947D01*
X0058384Y0504804D01*
X0058813Y0504804D01*
X0059098Y0504947D01*
X0059241Y0505090D01*
X0059384Y0505375D01*
X0059384Y0506518D01*
X0057813Y0503804D02*
X0057813Y0501947D01*
X0058955Y0502947D01*
X0058955Y0502518D01*
X0059098Y0502233D01*
X0059241Y0502090D01*
X0059527Y0501947D01*
X0060241Y0501947D01*
X0060527Y0502090D01*
X0060670Y0502233D01*
X0060813Y0502518D01*
X0060813Y0503375D01*
X0060670Y0503661D01*
X0060527Y0503804D01*
X0059098Y0500233D02*
X0058955Y0500518D01*
X0058813Y0500661D01*
X0058527Y0500804D01*
X0058384Y0500804D01*
X0058098Y0500661D01*
X0057955Y0500518D01*
X0057813Y0500233D01*
X0057813Y0499661D01*
X0057955Y0499375D01*
X0058098Y0499233D01*
X0058384Y0499090D01*
X0058527Y0499090D01*
X0058813Y0499233D01*
X0058955Y0499375D01*
X0059098Y0499661D01*
X0059098Y0500233D01*
X0059241Y0500518D01*
X0059384Y0500661D01*
X0059670Y0500804D01*
X0060241Y0500804D01*
X0060527Y0500661D01*
X0060670Y0500518D01*
X0060813Y0500233D01*
X0060813Y0499661D01*
X0060670Y0499375D01*
X0060527Y0499233D01*
X0060241Y0499090D01*
X0059670Y0499090D01*
X0059384Y0499233D01*
X0059241Y0499375D01*
X0059098Y0499661D01*
X0494179Y0509430D02*
X0492750Y0510430D01*
X0494179Y0511144D02*
X0491179Y0511144D01*
X0491179Y0510001D01*
X0491322Y0509716D01*
X0491464Y0509573D01*
X0491750Y0509430D01*
X0492179Y0509430D01*
X0492464Y0509573D01*
X0492607Y0509716D01*
X0492750Y0510001D01*
X0492750Y0511144D01*
X0492179Y0506858D02*
X0494179Y0506858D01*
X0491036Y0507573D02*
X0493179Y0508287D01*
X0493179Y0506430D01*
X0492179Y0504001D02*
X0494179Y0504001D01*
X0491036Y0504716D02*
X0493179Y0505430D01*
X0493179Y0503573D01*
X0138648Y0495613D02*
X0139648Y0497041D01*
X0140362Y0495613D02*
X0140362Y0498613D01*
X0139219Y0498613D01*
X0138933Y0498470D01*
X0138791Y0498327D01*
X0138648Y0498041D01*
X0138648Y0497613D01*
X0138791Y0497327D01*
X0138933Y0497184D01*
X0139219Y0497041D01*
X0140362Y0497041D01*
X0137648Y0498613D02*
X0135791Y0498613D01*
X0136791Y0497470D01*
X0136362Y0497470D01*
X0136076Y0497327D01*
X0135933Y0497184D01*
X0135791Y0496898D01*
X0135791Y0496184D01*
X0135933Y0495898D01*
X0136076Y0495756D01*
X0136362Y0495613D01*
X0137219Y0495613D01*
X0137505Y0495756D01*
X0137648Y0495898D01*
X0133933Y0498613D02*
X0133648Y0498613D01*
X0133362Y0498470D01*
X0133219Y0498327D01*
X0133076Y0498041D01*
X0132933Y0497470D01*
X0132933Y0496756D01*
X0133076Y0496184D01*
X0133219Y0495898D01*
X0133362Y0495756D01*
X0133648Y0495613D01*
X0133933Y0495613D01*
X0134219Y0495756D01*
X0134362Y0495898D01*
X0134505Y0496184D01*
X0134648Y0496756D01*
X0134648Y0497470D01*
X0134505Y0498041D01*
X0134362Y0498327D01*
X0134219Y0498470D01*
X0133933Y0498613D01*
D339*
X0132201Y0530097D02*
X0128264Y0530097D01*
X0128264Y0528597D01*
X0128451Y0528222D01*
X0128639Y0528035D01*
X0129014Y0527847D01*
X0129576Y0527847D01*
X0129951Y0528035D01*
X0130139Y0528222D01*
X0130326Y0528597D01*
X0130326Y0530097D01*
X0129576Y0524473D02*
X0132201Y0524473D01*
X0128077Y0525410D02*
X0130889Y0526347D01*
X0130889Y0523910D01*
X0129951Y0521848D02*
X0129764Y0522223D01*
X0129576Y0522410D01*
X0129201Y0522598D01*
X0129014Y0522598D01*
X0128639Y0522410D01*
X0128451Y0522223D01*
X0128264Y0521848D01*
X0128264Y0521098D01*
X0128451Y0520723D01*
X0128639Y0520536D01*
X0129014Y0520348D01*
X0129201Y0520348D01*
X0129576Y0520536D01*
X0129764Y0520723D01*
X0129951Y0521098D01*
X0129951Y0521848D01*
X0130139Y0522223D01*
X0130326Y0522410D01*
X0130701Y0522598D01*
X0131451Y0522598D01*
X0131826Y0522410D01*
X0132014Y0522223D01*
X0132201Y0521848D01*
X0132201Y0521098D01*
X0132014Y0520723D01*
X0131826Y0520536D01*
X0131451Y0520348D01*
X0130701Y0520348D01*
X0130326Y0520536D01*
X0130139Y0520723D01*
X0129951Y0521098D01*
D326*
X0512368Y0467069D02*
X0513368Y0468498D01*
X0514083Y0467069D02*
X0514083Y0470069D01*
X0512940Y0470069D01*
X0512654Y0469927D01*
X0512511Y0469784D01*
X0512368Y0469498D01*
X0512368Y0469069D01*
X0512511Y0468784D01*
X0512654Y0468641D01*
X0512940Y0468498D01*
X0514083Y0468498D01*
X0511368Y0470069D02*
X0509511Y0470069D01*
X0510511Y0468927D01*
X0510083Y0468927D01*
X0509797Y0468784D01*
X0509654Y0468641D01*
X0509511Y0468355D01*
X0509511Y0467641D01*
X0509654Y0467355D01*
X0509797Y0467212D01*
X0510083Y0467069D01*
X0510940Y0467069D01*
X0511225Y0467212D01*
X0511368Y0467355D01*
X0506654Y0467069D02*
X0508368Y0467069D01*
X0507511Y0467069D02*
X0507511Y0470069D01*
X0507797Y0469641D01*
X0508083Y0469355D01*
X0508368Y0469212D01*
D339*
X0468960Y0140425D02*
X0468960Y0144362D01*
X0467461Y0144362D01*
X0467086Y0144174D01*
X0466898Y0143987D01*
X0466711Y0143612D01*
X0466711Y0143049D01*
X0466898Y0142674D01*
X0467086Y0142487D01*
X0467461Y0142299D01*
X0468960Y0142299D01*
X0465398Y0144362D02*
X0462961Y0144362D01*
X0464274Y0142862D01*
X0463711Y0142862D01*
X0463336Y0142674D01*
X0463149Y0142487D01*
X0462961Y0142112D01*
X0462961Y0141174D01*
X0463149Y0140800D01*
X0463336Y0140612D01*
X0463711Y0140425D01*
X0464836Y0140425D01*
X0465211Y0140612D01*
X0465398Y0140800D01*
X0461461Y0143987D02*
X0461274Y0144174D01*
X0460899Y0144362D01*
X0459962Y0144362D01*
X0459587Y0144174D01*
X0459399Y0143987D01*
X0459212Y0143612D01*
X0459212Y0143237D01*
X0459399Y0142674D01*
X0461649Y0140425D01*
X0459212Y0140425D01*
X0381118Y0528616D02*
X0377181Y0528616D01*
X0377181Y0527116D01*
X0377369Y0526741D01*
X0377556Y0526554D01*
X0377931Y0526366D01*
X0378494Y0526366D01*
X0378869Y0526554D01*
X0379056Y0526741D01*
X0379244Y0527116D01*
X0379244Y0528616D01*
X0381118Y0524491D02*
X0381118Y0523741D01*
X0380931Y0523367D01*
X0380743Y0523179D01*
X0380181Y0522804D01*
X0379431Y0522617D01*
X0377931Y0522617D01*
X0377556Y0522804D01*
X0377369Y0522992D01*
X0377181Y0523367D01*
X0377181Y0524116D01*
X0377369Y0524491D01*
X0377556Y0524679D01*
X0377931Y0524866D01*
X0378869Y0524866D01*
X0379244Y0524679D01*
X0379431Y0524491D01*
X0379619Y0524116D01*
X0379619Y0523367D01*
X0379431Y0522992D01*
X0379244Y0522804D01*
X0378869Y0522617D01*
X0193370Y0318122D02*
X0193370Y0322059D01*
X0191870Y0322059D01*
X0191495Y0321871D01*
X0191308Y0321684D01*
X0191120Y0321309D01*
X0191120Y0320747D01*
X0191308Y0320372D01*
X0191495Y0320184D01*
X0191870Y0319997D01*
X0193370Y0319997D01*
X0189620Y0321684D02*
X0189433Y0321871D01*
X0189058Y0322059D01*
X0188121Y0322059D01*
X0187746Y0321871D01*
X0187558Y0321684D01*
X0187371Y0321309D01*
X0187371Y0320934D01*
X0187558Y0320372D01*
X0189808Y0318122D01*
X0187371Y0318122D01*
X0186058Y0322059D02*
X0183621Y0322059D01*
X0184933Y0320559D01*
X0184371Y0320559D01*
X0183996Y0320372D01*
X0183809Y0320184D01*
X0183621Y0319809D01*
X0183621Y0318872D01*
X0183809Y0318497D01*
X0183996Y0318309D01*
X0184371Y0318122D01*
X0185496Y0318122D01*
X0185871Y0318309D01*
X0186058Y0318497D01*
D326*
X0434791Y0494219D02*
X0435791Y0495648D01*
X0436505Y0494219D02*
X0436505Y0497219D01*
X0435362Y0497219D01*
X0435077Y0497076D01*
X0434934Y0496934D01*
X0434791Y0496648D01*
X0434791Y0496219D01*
X0434934Y0495934D01*
X0435077Y0495791D01*
X0435362Y0495648D01*
X0436505Y0495648D01*
X0432219Y0496219D02*
X0432219Y0494219D01*
X0432934Y0497362D02*
X0433648Y0495219D01*
X0431791Y0495219D01*
X0430934Y0497219D02*
X0428934Y0497219D01*
X0430219Y0494219D01*
X0109570Y0521495D02*
X0110570Y0521495D01*
X0110570Y0519924D02*
X0110570Y0522924D01*
X0109141Y0522924D01*
X0106427Y0519924D02*
X0108141Y0519924D01*
X0107284Y0519924D02*
X0107284Y0522924D01*
X0107570Y0522495D01*
X0107855Y0522209D01*
X0108141Y0522067D01*
X0077155Y0529367D02*
X0077155Y0530367D01*
X0078726Y0530367D02*
X0075726Y0530367D01*
X0075726Y0528939D01*
X0075726Y0528082D02*
X0075726Y0526225D01*
X0076869Y0527225D01*
X0076869Y0526796D01*
X0077012Y0526510D01*
X0077155Y0526367D01*
X0077440Y0526225D01*
X0078155Y0526225D01*
X0078440Y0526367D01*
X0078583Y0526510D01*
X0078726Y0526796D01*
X0078726Y0527653D01*
X0078583Y0527939D01*
X0078440Y0528082D01*
X0155955Y0495724D02*
X0156955Y0497152D01*
X0157669Y0495724D02*
X0157669Y0498724D01*
X0156527Y0498724D01*
X0156241Y0498581D01*
X0156098Y0498438D01*
X0155955Y0498152D01*
X0155955Y0497724D01*
X0156098Y0497438D01*
X0156241Y0497295D01*
X0156527Y0497152D01*
X0157669Y0497152D01*
X0154955Y0498724D02*
X0153098Y0498724D01*
X0154098Y0497581D01*
X0153669Y0497581D01*
X0153384Y0497438D01*
X0153241Y0497295D01*
X0153098Y0497010D01*
X0153098Y0496295D01*
X0153241Y0496010D01*
X0153384Y0495867D01*
X0153669Y0495724D01*
X0154527Y0495724D01*
X0154812Y0495867D01*
X0154955Y0496010D01*
X0150527Y0497724D02*
X0150527Y0495724D01*
X0151241Y0498867D02*
X0151955Y0496724D01*
X0150098Y0496724D01*
X0101640Y0487640D02*
X0102640Y0489069D01*
X0103354Y0487640D02*
X0103354Y0490640D01*
X0102211Y0490640D01*
X0101926Y0490497D01*
X0101783Y0490355D01*
X0101640Y0490069D01*
X0101640Y0489640D01*
X0101783Y0489355D01*
X0101926Y0489212D01*
X0102211Y0489069D01*
X0103354Y0489069D01*
X0100640Y0490640D02*
X0098783Y0490640D01*
X0099783Y0489497D01*
X0099354Y0489497D01*
X0099068Y0489355D01*
X0098926Y0489212D01*
X0098783Y0488926D01*
X0098783Y0488212D01*
X0098926Y0487926D01*
X0099068Y0487783D01*
X0099354Y0487640D01*
X0100211Y0487640D01*
X0100497Y0487783D01*
X0100640Y0487926D01*
X0096068Y0490640D02*
X0097497Y0490640D01*
X0097640Y0489212D01*
X0097497Y0489355D01*
X0097211Y0489497D01*
X0096497Y0489497D01*
X0096211Y0489355D01*
X0096068Y0489212D01*
X0095926Y0488926D01*
X0095926Y0488212D01*
X0096068Y0487926D01*
X0096211Y0487783D01*
X0096497Y0487640D01*
X0097211Y0487640D01*
X0097497Y0487783D01*
X0097640Y0487926D01*
D339*
X0133134Y0318039D02*
X0133134Y0321976D01*
X0131634Y0321976D01*
X0131259Y0321788D01*
X0131071Y0321601D01*
X0130884Y0321226D01*
X0130884Y0320663D01*
X0131071Y0320288D01*
X0131259Y0320101D01*
X0131634Y0319914D01*
X0133134Y0319914D01*
X0127134Y0318039D02*
X0129384Y0318039D01*
X0128259Y0318039D02*
X0128259Y0321976D01*
X0128634Y0321413D01*
X0129009Y0321038D01*
X0129384Y0320851D01*
X0123760Y0320663D02*
X0123760Y0318039D01*
X0124697Y0322163D02*
X0125635Y0319351D01*
X0123197Y0319351D01*
D326*
X0165207Y0495711D02*
X0166207Y0497140D01*
X0166921Y0495711D02*
X0166921Y0498711D01*
X0165779Y0498711D01*
X0165493Y0498568D01*
X0165350Y0498425D01*
X0165207Y0498140D01*
X0165207Y0497711D01*
X0165350Y0497425D01*
X0165493Y0497283D01*
X0165779Y0497140D01*
X0166921Y0497140D01*
X0164064Y0498425D02*
X0163921Y0498568D01*
X0163636Y0498711D01*
X0162921Y0498711D01*
X0162636Y0498568D01*
X0162493Y0498425D01*
X0162350Y0498140D01*
X0162350Y0497854D01*
X0162493Y0497425D01*
X0164207Y0495711D01*
X0162350Y0495711D01*
X0161207Y0498425D02*
X0161064Y0498568D01*
X0160779Y0498711D01*
X0160064Y0498711D01*
X0159779Y0498568D01*
X0159636Y0498425D01*
X0159493Y0498140D01*
X0159493Y0497854D01*
X0159636Y0497425D01*
X0161350Y0495711D01*
X0159493Y0495711D01*
X0083628Y0487837D02*
X0084628Y0489266D01*
X0085342Y0487837D02*
X0085342Y0490837D01*
X0084200Y0490837D01*
X0083914Y0490694D01*
X0083771Y0490551D01*
X0083628Y0490266D01*
X0083628Y0489837D01*
X0083771Y0489551D01*
X0083914Y0489409D01*
X0084200Y0489266D01*
X0085342Y0489266D01*
X0082628Y0490837D02*
X0080771Y0490837D01*
X0081771Y0489694D01*
X0081342Y0489694D01*
X0081057Y0489551D01*
X0080914Y0489409D01*
X0080771Y0489123D01*
X0080771Y0488409D01*
X0080914Y0488123D01*
X0081057Y0487980D01*
X0081342Y0487837D01*
X0082200Y0487837D01*
X0082485Y0487980D01*
X0082628Y0488123D01*
X0079771Y0490837D02*
X0077771Y0490837D01*
X0079057Y0487837D01*
X0182438Y0495613D02*
X0183438Y0497041D01*
X0184152Y0495613D02*
X0184152Y0498613D01*
X0183010Y0498613D01*
X0182724Y0498470D01*
X0182581Y0498327D01*
X0182438Y0498041D01*
X0182438Y0497613D01*
X0182581Y0497327D01*
X0182724Y0497184D01*
X0183010Y0497041D01*
X0184152Y0497041D01*
X0181295Y0498327D02*
X0181152Y0498470D01*
X0180867Y0498613D01*
X0180152Y0498613D01*
X0179867Y0498470D01*
X0179724Y0498327D01*
X0179581Y0498041D01*
X0179581Y0497756D01*
X0179724Y0497327D01*
X0181438Y0495613D01*
X0179581Y0495613D01*
X0177867Y0497327D02*
X0178152Y0497470D01*
X0178295Y0497613D01*
X0178438Y0497898D01*
X0178438Y0498041D01*
X0178295Y0498327D01*
X0178152Y0498470D01*
X0177867Y0498613D01*
X0177295Y0498613D01*
X0177010Y0498470D01*
X0176867Y0498327D01*
X0176724Y0498041D01*
X0176724Y0497898D01*
X0176867Y0497613D01*
X0177010Y0497470D01*
X0177295Y0497327D01*
X0177867Y0497327D01*
X0178152Y0497184D01*
X0178295Y0497041D01*
X0178438Y0496756D01*
X0178438Y0496184D01*
X0178295Y0495898D01*
X0178152Y0495756D01*
X0177867Y0495613D01*
X0177295Y0495613D01*
X0177010Y0495756D01*
X0176867Y0495898D01*
X0176724Y0496184D01*
X0176724Y0496756D01*
X0176867Y0497041D01*
X0177010Y0497184D01*
X0177295Y0497327D01*
X0531167Y0467463D02*
X0532167Y0468892D01*
X0532882Y0467463D02*
X0532882Y0470463D01*
X0531739Y0470463D01*
X0531453Y0470320D01*
X0531310Y0470177D01*
X0531167Y0469892D01*
X0531167Y0469463D01*
X0531310Y0469177D01*
X0531453Y0469035D01*
X0531739Y0468892D01*
X0532882Y0468892D01*
X0530025Y0470177D02*
X0529882Y0470320D01*
X0529596Y0470463D01*
X0528882Y0470463D01*
X0528596Y0470320D01*
X0528453Y0470177D01*
X0528310Y0469892D01*
X0528310Y0469606D01*
X0528453Y0469177D01*
X0530167Y0467463D01*
X0528310Y0467463D01*
X0525739Y0470463D02*
X0526310Y0470463D01*
X0526596Y0470320D01*
X0526739Y0470177D01*
X0527025Y0469749D01*
X0527167Y0469177D01*
X0527167Y0468035D01*
X0527025Y0467749D01*
X0526882Y0467606D01*
X0526596Y0467463D01*
X0526025Y0467463D01*
X0525739Y0467606D01*
X0525596Y0467749D01*
X0525453Y0468035D01*
X0525453Y0468749D01*
X0525596Y0469035D01*
X0525739Y0469177D01*
X0526025Y0469320D01*
X0526596Y0469320D01*
X0526882Y0469177D01*
X0527025Y0469035D01*
X0527167Y0468749D01*
D339*
X0283087Y0270156D02*
X0279150Y0270156D01*
X0279150Y0268656D01*
X0279337Y0268281D01*
X0279525Y0268094D01*
X0279900Y0267906D01*
X0280462Y0267906D01*
X0280837Y0268094D01*
X0281025Y0268281D01*
X0281212Y0268656D01*
X0281212Y0270156D01*
X0279525Y0266406D02*
X0279337Y0266219D01*
X0279150Y0265844D01*
X0279150Y0264907D01*
X0279337Y0264532D01*
X0279525Y0264344D01*
X0279900Y0264157D01*
X0280275Y0264157D01*
X0280837Y0264344D01*
X0283087Y0266594D01*
X0283087Y0264157D01*
X0279525Y0262657D02*
X0279337Y0262469D01*
X0279150Y0262095D01*
X0279150Y0261157D01*
X0279337Y0260782D01*
X0279525Y0260595D01*
X0279900Y0260407D01*
X0280275Y0260407D01*
X0280837Y0260595D01*
X0283087Y0262844D01*
X0283087Y0260407D01*
D326*
X0532250Y0493743D02*
X0533250Y0495171D01*
X0533964Y0493743D02*
X0533964Y0496743D01*
X0532822Y0496743D01*
X0532536Y0496600D01*
X0532393Y0496457D01*
X0532250Y0496171D01*
X0532250Y0495743D01*
X0532393Y0495457D01*
X0532536Y0495314D01*
X0532822Y0495171D01*
X0533964Y0495171D01*
X0531107Y0496457D02*
X0530964Y0496600D01*
X0530679Y0496743D01*
X0529964Y0496743D01*
X0529679Y0496600D01*
X0529536Y0496457D01*
X0529393Y0496171D01*
X0529393Y0495885D01*
X0529536Y0495457D01*
X0531250Y0493743D01*
X0529393Y0493743D01*
X0526679Y0496743D02*
X0528107Y0496743D01*
X0528250Y0495314D01*
X0528107Y0495457D01*
X0527822Y0495600D01*
X0527107Y0495600D01*
X0526822Y0495457D01*
X0526679Y0495314D01*
X0526536Y0495028D01*
X0526536Y0494314D01*
X0526679Y0494028D01*
X0526822Y0493885D01*
X0527107Y0493743D01*
X0527822Y0493743D01*
X0528107Y0493885D01*
X0528250Y0494028D01*
D339*
X0254347Y0281180D02*
X0250410Y0281180D01*
X0250410Y0279680D01*
X0250597Y0279305D01*
X0250785Y0279117D01*
X0251160Y0278930D01*
X0251722Y0278930D01*
X0252097Y0279117D01*
X0252284Y0279305D01*
X0252472Y0279680D01*
X0252472Y0281180D01*
X0250785Y0277430D02*
X0250597Y0277243D01*
X0250410Y0276868D01*
X0250410Y0275930D01*
X0250597Y0275555D01*
X0250785Y0275368D01*
X0251160Y0275180D01*
X0251535Y0275180D01*
X0252097Y0275368D01*
X0254347Y0277618D01*
X0254347Y0275180D01*
X0250410Y0272743D02*
X0250410Y0272368D01*
X0250597Y0271993D01*
X0250785Y0271806D01*
X0251160Y0271618D01*
X0251910Y0271431D01*
X0252847Y0271431D01*
X0253597Y0271618D01*
X0253972Y0271806D01*
X0254159Y0271993D01*
X0254347Y0272368D01*
X0254347Y0272743D01*
X0254159Y0273118D01*
X0253972Y0273306D01*
X0253597Y0273493D01*
X0252847Y0273681D01*
X0251910Y0273681D01*
X0251160Y0273493D01*
X0250785Y0273306D01*
X0250597Y0273118D01*
X0250410Y0272743D01*
X0254347Y0259132D02*
X0250410Y0259132D01*
X0250410Y0257633D01*
X0250597Y0257258D01*
X0250785Y0257070D01*
X0251160Y0256883D01*
X0251722Y0256883D01*
X0252097Y0257070D01*
X0252284Y0257258D01*
X0252472Y0257633D01*
X0252472Y0259132D01*
X0254347Y0253133D02*
X0254347Y0255383D01*
X0254347Y0254258D02*
X0250410Y0254258D01*
X0250972Y0254633D01*
X0251347Y0255008D01*
X0251535Y0255383D01*
X0252097Y0250883D02*
X0251910Y0251258D01*
X0251722Y0251446D01*
X0251347Y0251633D01*
X0251160Y0251633D01*
X0250785Y0251446D01*
X0250597Y0251258D01*
X0250410Y0250883D01*
X0250410Y0250134D01*
X0250597Y0249759D01*
X0250785Y0249571D01*
X0251160Y0249384D01*
X0251347Y0249384D01*
X0251722Y0249571D01*
X0251910Y0249759D01*
X0252097Y0250134D01*
X0252097Y0250883D01*
X0252284Y0251258D01*
X0252472Y0251446D01*
X0252847Y0251633D01*
X0253597Y0251633D01*
X0253972Y0251446D01*
X0254159Y0251258D01*
X0254347Y0250883D01*
X0254347Y0250134D01*
X0254159Y0249759D01*
X0253972Y0249571D01*
X0253597Y0249384D01*
X0252847Y0249384D01*
X0252472Y0249571D01*
X0252284Y0249759D01*
X0252097Y0250134D01*
D326*
X0424278Y0494333D02*
X0425278Y0495762D01*
X0425992Y0494333D02*
X0425992Y0497333D01*
X0424849Y0497333D01*
X0424563Y0497190D01*
X0424421Y0497047D01*
X0424278Y0496762D01*
X0424278Y0496333D01*
X0424421Y0496047D01*
X0424563Y0495905D01*
X0424849Y0495762D01*
X0425992Y0495762D01*
X0423135Y0497047D02*
X0422992Y0497190D01*
X0422706Y0497333D01*
X0421992Y0497333D01*
X0421706Y0497190D01*
X0421563Y0497047D01*
X0421421Y0496762D01*
X0421421Y0496476D01*
X0421563Y0496047D01*
X0423278Y0494333D01*
X0421421Y0494333D01*
X0420421Y0497333D02*
X0418421Y0497333D01*
X0419706Y0494333D01*
D339*
X0487950Y0497136D02*
X0487950Y0501073D01*
X0486450Y0501073D01*
X0486075Y0500886D01*
X0485888Y0500698D01*
X0485700Y0500323D01*
X0485700Y0499761D01*
X0485888Y0499386D01*
X0486075Y0499199D01*
X0486450Y0499011D01*
X0487950Y0499011D01*
X0482138Y0501073D02*
X0484013Y0501073D01*
X0484200Y0499199D01*
X0484013Y0499386D01*
X0483638Y0499573D01*
X0482701Y0499573D01*
X0482326Y0499386D01*
X0482138Y0499199D01*
X0481951Y0498824D01*
X0481951Y0497886D01*
X0482138Y0497511D01*
X0482326Y0497324D01*
X0482701Y0497136D01*
X0483638Y0497136D01*
X0484013Y0497324D01*
X0484200Y0497511D01*
X0480638Y0501073D02*
X0478201Y0501073D01*
X0479513Y0499573D01*
X0478951Y0499573D01*
X0478576Y0499386D01*
X0478389Y0499199D01*
X0478201Y0498824D01*
X0478201Y0497886D01*
X0478389Y0497511D01*
X0478576Y0497324D01*
X0478951Y0497136D01*
X0480076Y0497136D01*
X0480451Y0497324D01*
X0480638Y0497511D01*
D326*
X0074573Y0487837D02*
X0075573Y0489266D01*
X0076287Y0487837D02*
X0076287Y0490837D01*
X0075144Y0490837D01*
X0074859Y0490694D01*
X0074716Y0490551D01*
X0074573Y0490266D01*
X0074573Y0489837D01*
X0074716Y0489551D01*
X0074859Y0489409D01*
X0075144Y0489266D01*
X0076287Y0489266D01*
X0073573Y0490837D02*
X0071716Y0490837D01*
X0072716Y0489694D01*
X0072287Y0489694D01*
X0072002Y0489551D01*
X0071859Y0489409D01*
X0071716Y0489123D01*
X0071716Y0488409D01*
X0071859Y0488123D01*
X0072002Y0487980D01*
X0072287Y0487837D01*
X0073144Y0487837D01*
X0073430Y0487980D01*
X0073573Y0488123D01*
X0070287Y0487837D02*
X0069716Y0487837D01*
X0069430Y0487980D01*
X0069287Y0488123D01*
X0069002Y0488551D01*
X0068859Y0489123D01*
X0068859Y0490266D01*
X0069002Y0490551D01*
X0069144Y0490694D01*
X0069430Y0490837D01*
X0070002Y0490837D01*
X0070287Y0490694D01*
X0070430Y0490551D01*
X0070573Y0490266D01*
X0070573Y0489551D01*
X0070430Y0489266D01*
X0070287Y0489123D01*
X0070002Y0488980D01*
X0069430Y0488980D01*
X0069144Y0489123D01*
X0069002Y0489266D01*
X0068859Y0489551D01*
X0411778Y0493743D02*
X0412778Y0495171D01*
X0413492Y0493743D02*
X0413492Y0496743D01*
X0412349Y0496743D01*
X0412063Y0496600D01*
X0411921Y0496457D01*
X0411778Y0496171D01*
X0411778Y0495743D01*
X0411921Y0495457D01*
X0412063Y0495314D01*
X0412349Y0495171D01*
X0413492Y0495171D01*
X0409206Y0495743D02*
X0409206Y0493743D01*
X0409921Y0496885D02*
X0410635Y0494743D01*
X0408778Y0494743D01*
X0407492Y0493743D02*
X0406921Y0493743D01*
X0406635Y0493885D01*
X0406492Y0494028D01*
X0406206Y0494457D01*
X0406063Y0495028D01*
X0406063Y0496171D01*
X0406206Y0496457D01*
X0406349Y0496600D01*
X0406635Y0496743D01*
X0407206Y0496743D01*
X0407492Y0496600D01*
X0407635Y0496457D01*
X0407778Y0496171D01*
X0407778Y0495457D01*
X0407635Y0495171D01*
X0407492Y0495028D01*
X0407206Y0494885D01*
X0406635Y0494885D01*
X0406349Y0495028D01*
X0406206Y0495171D01*
X0406063Y0495457D01*
D339*
X0051886Y0490132D02*
X0047949Y0490132D01*
X0047949Y0488632D01*
X0048137Y0488257D01*
X0048324Y0488069D01*
X0048699Y0487882D01*
X0049261Y0487882D01*
X0049636Y0488069D01*
X0049824Y0488257D01*
X0050011Y0488632D01*
X0050011Y0490132D01*
X0047949Y0486570D02*
X0047949Y0483945D01*
X0051886Y0485632D01*
D326*
X0147097Y0495898D02*
X0148097Y0497326D01*
X0148811Y0495898D02*
X0148811Y0498898D01*
X0147668Y0498898D01*
X0147383Y0498755D01*
X0147240Y0498612D01*
X0147097Y0498326D01*
X0147097Y0497898D01*
X0147240Y0497612D01*
X0147383Y0497469D01*
X0147668Y0497326D01*
X0148811Y0497326D01*
X0145954Y0498612D02*
X0145811Y0498755D01*
X0145525Y0498898D01*
X0144811Y0498898D01*
X0144525Y0498755D01*
X0144383Y0498612D01*
X0144240Y0498326D01*
X0144240Y0498040D01*
X0144383Y0497612D01*
X0146097Y0495898D01*
X0144240Y0495898D01*
X0142383Y0498898D02*
X0142097Y0498898D01*
X0141811Y0498755D01*
X0141668Y0498612D01*
X0141525Y0498326D01*
X0141383Y0497755D01*
X0141383Y0497040D01*
X0141525Y0496469D01*
X0141668Y0496183D01*
X0141811Y0496040D01*
X0142097Y0495898D01*
X0142383Y0495898D01*
X0142668Y0496040D01*
X0142811Y0496183D01*
X0142954Y0496469D01*
X0143097Y0497040D01*
X0143097Y0497755D01*
X0142954Y0498326D01*
X0142811Y0498612D01*
X0142668Y0498755D01*
X0142383Y0498898D01*
D339*
X0423488Y0334165D02*
X0423488Y0338102D01*
X0421988Y0338102D01*
X0421613Y0337915D01*
X0421426Y0337727D01*
X0421238Y0337352D01*
X0421238Y0336790D01*
X0421426Y0336415D01*
X0421613Y0336227D01*
X0421988Y0336040D01*
X0423488Y0336040D01*
X0419926Y0338102D02*
X0417489Y0338102D01*
X0418801Y0336602D01*
X0418239Y0336602D01*
X0417864Y0336415D01*
X0417676Y0336227D01*
X0417489Y0335852D01*
X0417489Y0334915D01*
X0417676Y0334540D01*
X0417864Y0334353D01*
X0418239Y0334165D01*
X0419364Y0334165D01*
X0419739Y0334353D01*
X0419926Y0334540D01*
X0415239Y0336415D02*
X0415614Y0336602D01*
X0415802Y0336790D01*
X0415989Y0337165D01*
X0415989Y0337352D01*
X0415802Y0337727D01*
X0415614Y0337915D01*
X0415239Y0338102D01*
X0414489Y0338102D01*
X0414114Y0337915D01*
X0413927Y0337727D01*
X0413739Y0337352D01*
X0413739Y0337165D01*
X0413927Y0336790D01*
X0414114Y0336602D01*
X0414489Y0336415D01*
X0415239Y0336415D01*
X0415614Y0336227D01*
X0415802Y0336040D01*
X0415989Y0335665D01*
X0415989Y0334915D01*
X0415802Y0334540D01*
X0415614Y0334353D01*
X0415239Y0334165D01*
X0414489Y0334165D01*
X0414114Y0334353D01*
X0413927Y0334540D01*
X0413739Y0334915D01*
X0413739Y0335665D01*
X0413927Y0336040D01*
X0414114Y0336227D01*
X0414489Y0336415D01*
X0443070Y0342728D02*
X0443070Y0346665D01*
X0441570Y0346665D01*
X0441195Y0346478D01*
X0441008Y0346290D01*
X0440820Y0345915D01*
X0440820Y0345353D01*
X0441008Y0344978D01*
X0441195Y0344790D01*
X0441570Y0344603D01*
X0443070Y0344603D01*
X0437071Y0342728D02*
X0439320Y0342728D01*
X0438196Y0342728D02*
X0438196Y0346665D01*
X0438571Y0346103D01*
X0438945Y0345728D01*
X0439320Y0345540D01*
D326*
X0467443Y0493565D02*
X0468443Y0494994D01*
X0469158Y0493565D02*
X0469158Y0496565D01*
X0468015Y0496565D01*
X0467729Y0496423D01*
X0467586Y0496280D01*
X0467443Y0495994D01*
X0467443Y0495565D01*
X0467586Y0495280D01*
X0467729Y0495137D01*
X0468015Y0494994D01*
X0469158Y0494994D01*
X0464872Y0495565D02*
X0464872Y0493565D01*
X0465586Y0496708D02*
X0466300Y0494565D01*
X0464443Y0494565D01*
X0462015Y0496565D02*
X0462586Y0496565D01*
X0462872Y0496423D01*
X0463015Y0496280D01*
X0463300Y0495851D01*
X0463443Y0495280D01*
X0463443Y0494137D01*
X0463300Y0493851D01*
X0463158Y0493708D01*
X0462872Y0493565D01*
X0462300Y0493565D01*
X0462015Y0493708D01*
X0461872Y0493851D01*
X0461729Y0494137D01*
X0461729Y0494851D01*
X0461872Y0495137D01*
X0462015Y0495280D01*
X0462300Y0495423D01*
X0462872Y0495423D01*
X0463158Y0495280D01*
X0463300Y0495137D01*
X0463443Y0494851D01*
D339*
X0149472Y0480425D02*
X0149472Y0484362D01*
X0147972Y0484362D01*
X0147598Y0484175D01*
X0147410Y0483987D01*
X0147223Y0483612D01*
X0147223Y0483050D01*
X0147410Y0482675D01*
X0147598Y0482487D01*
X0147972Y0482300D01*
X0149472Y0482300D01*
X0143848Y0483050D02*
X0143848Y0480425D01*
X0144785Y0484550D02*
X0145723Y0481737D01*
X0143286Y0481737D01*
X0141598Y0480425D02*
X0140848Y0480425D01*
X0140473Y0480613D01*
X0140286Y0480800D01*
X0139911Y0481362D01*
X0139724Y0482112D01*
X0139724Y0483612D01*
X0139911Y0483987D01*
X0140098Y0484175D01*
X0140473Y0484362D01*
X0141223Y0484362D01*
X0141598Y0484175D01*
X0141786Y0483987D01*
X0141973Y0483612D01*
X0141973Y0482675D01*
X0141786Y0482300D01*
X0141598Y0482112D01*
X0141223Y0481925D01*
X0140473Y0481925D01*
X0140098Y0482112D01*
X0139911Y0482300D01*
X0139724Y0482675D01*
X0468960Y0169303D02*
X0468960Y0173240D01*
X0467461Y0173240D01*
X0467086Y0173053D01*
X0466898Y0172865D01*
X0466711Y0172490D01*
X0466711Y0171928D01*
X0466898Y0171553D01*
X0467086Y0171365D01*
X0467461Y0171178D01*
X0468960Y0171178D01*
X0465398Y0173240D02*
X0462961Y0173240D01*
X0464274Y0171740D01*
X0463711Y0171740D01*
X0463336Y0171553D01*
X0463149Y0171365D01*
X0462961Y0170990D01*
X0462961Y0170053D01*
X0463149Y0169678D01*
X0463336Y0169490D01*
X0463711Y0169303D01*
X0464836Y0169303D01*
X0465211Y0169490D01*
X0465398Y0169678D01*
X0459212Y0169303D02*
X0461461Y0169303D01*
X0460337Y0169303D02*
X0460337Y0173240D01*
X0460712Y0172678D01*
X0461086Y0172303D01*
X0461461Y0172115D01*
D326*
X0521620Y0467463D02*
X0522620Y0468892D01*
X0523335Y0467463D02*
X0523335Y0470463D01*
X0522192Y0470463D01*
X0521906Y0470320D01*
X0521763Y0470177D01*
X0521620Y0469892D01*
X0521620Y0469463D01*
X0521763Y0469177D01*
X0521906Y0469035D01*
X0522192Y0468892D01*
X0523335Y0468892D01*
X0518763Y0467463D02*
X0520477Y0467463D01*
X0519620Y0467463D02*
X0519620Y0470463D01*
X0519906Y0470035D01*
X0520192Y0469749D01*
X0520477Y0469606D01*
X0517620Y0470177D02*
X0517477Y0470320D01*
X0517192Y0470463D01*
X0516477Y0470463D01*
X0516192Y0470320D01*
X0516049Y0470177D01*
X0515906Y0469892D01*
X0515906Y0469606D01*
X0516049Y0469177D01*
X0517763Y0467463D01*
X0515906Y0467463D01*
D339*
X0350752Y0334362D02*
X0350752Y0338299D01*
X0349252Y0338299D01*
X0348877Y0338112D01*
X0348690Y0337924D01*
X0348502Y0337549D01*
X0348502Y0336987D01*
X0348690Y0336612D01*
X0348877Y0336424D01*
X0349252Y0336237D01*
X0350752Y0336237D01*
X0345128Y0336987D02*
X0345128Y0334362D01*
X0346065Y0338487D02*
X0347002Y0335674D01*
X0344565Y0335674D01*
X0343440Y0338299D02*
X0341003Y0338299D01*
X0342315Y0336799D01*
X0341753Y0336799D01*
X0341378Y0336612D01*
X0341191Y0336424D01*
X0341003Y0336049D01*
X0341003Y0335112D01*
X0341191Y0334737D01*
X0341378Y0334550D01*
X0341753Y0334362D01*
X0342878Y0334362D01*
X0343253Y0334550D01*
X0343440Y0334737D01*
D326*
X0478332Y0483839D02*
X0476904Y0484839D01*
X0478332Y0485554D02*
X0475332Y0485554D01*
X0475332Y0484411D01*
X0475475Y0484125D01*
X0475618Y0483982D01*
X0475904Y0483839D01*
X0476332Y0483839D01*
X0476618Y0483982D01*
X0476761Y0484125D01*
X0476904Y0484411D01*
X0476904Y0485554D01*
X0478332Y0480982D02*
X0478332Y0482697D01*
X0478332Y0481839D02*
X0475332Y0481839D01*
X0475761Y0482125D01*
X0476047Y0482411D01*
X0476189Y0482697D01*
X0476618Y0479268D02*
X0476475Y0479554D01*
X0476332Y0479697D01*
X0476047Y0479839D01*
X0475904Y0479839D01*
X0475618Y0479697D01*
X0475475Y0479554D01*
X0475332Y0479268D01*
X0475332Y0478697D01*
X0475475Y0478411D01*
X0475618Y0478268D01*
X0475904Y0478125D01*
X0476047Y0478125D01*
X0476332Y0478268D01*
X0476475Y0478411D01*
X0476618Y0478697D01*
X0476618Y0479268D01*
X0476761Y0479554D01*
X0476904Y0479697D01*
X0477189Y0479839D01*
X0477761Y0479839D01*
X0478047Y0479697D01*
X0478189Y0479554D01*
X0478332Y0479268D01*
X0478332Y0478697D01*
X0478189Y0478411D01*
X0478047Y0478268D01*
X0477761Y0478125D01*
X0477189Y0478125D01*
X0476904Y0478268D01*
X0476761Y0478411D01*
X0476618Y0478697D01*
D339*
X0134905Y0480425D02*
X0134905Y0484362D01*
X0133406Y0484362D01*
X0133031Y0484175D01*
X0132843Y0483987D01*
X0132656Y0483612D01*
X0132656Y0483050D01*
X0132843Y0482675D01*
X0133031Y0482487D01*
X0133406Y0482300D01*
X0134905Y0482300D01*
X0129094Y0484362D02*
X0130968Y0484362D01*
X0131156Y0482487D01*
X0130968Y0482675D01*
X0130593Y0482862D01*
X0129656Y0482862D01*
X0129281Y0482675D01*
X0129094Y0482487D01*
X0128906Y0482112D01*
X0128906Y0481175D01*
X0129094Y0480800D01*
X0129281Y0480613D01*
X0129656Y0480425D01*
X0130593Y0480425D01*
X0130968Y0480613D01*
X0131156Y0480800D01*
X0125157Y0480425D02*
X0127406Y0480425D01*
X0126281Y0480425D02*
X0126281Y0484362D01*
X0126656Y0483800D01*
X0127031Y0483425D01*
X0127406Y0483237D01*
D326*
X0047469Y0522394D02*
X0047469Y0523394D01*
X0049040Y0523394D02*
X0046040Y0523394D01*
X0046040Y0521966D01*
X0046326Y0520966D02*
X0046183Y0520823D01*
X0046040Y0520537D01*
X0046040Y0519823D01*
X0046183Y0519537D01*
X0046326Y0519394D01*
X0046611Y0519252D01*
X0046897Y0519252D01*
X0047326Y0519394D01*
X0049040Y0521109D01*
X0049040Y0519252D01*
D202*
X0259350Y0521654D02*
X0318012Y0521654D01*
X0318012Y0521654D02*
X0318012Y0367520D01*
X0318012Y0367520D02*
X0259350Y0367520D01*
X0259350Y0367520D02*
X0259350Y0521654D01*
X0298400Y0017008D02*
X0355295Y0017008D01*
X0355295Y0017008D02*
X0355295Y0026891D01*
X0358242Y0026891D02*
X0358242Y0076358D01*
X0284030Y0067303D02*
X0284030Y0077146D01*
X0284030Y0067303D02*
X0296628Y0067303D01*
X0298400Y0017008D02*
X0298400Y0065532D01*
X0284030Y0077146D02*
X0357455Y0077146D01*
X0355295Y0026891D02*
X0358242Y0026891D01*
X0296628Y0067303D02*
X0298400Y0065532D01*
X0422486Y0353617D02*
X0350537Y0353617D01*
X0395911Y0339542D02*
X0393057Y0336688D01*
X0350537Y0353617D02*
X0350537Y0339542D01*
X0422486Y0353617D02*
X0422486Y0339542D01*
X0422486Y0339542D02*
X0395911Y0339542D01*
X0371010Y0336688D02*
X0368155Y0339542D01*
X0368155Y0339542D02*
X0350537Y0339542D01*
X0393057Y0336688D02*
X0371010Y0336688D01*
D86*
X0504921Y0484283D02*
X0504921Y0488283D01*
X0498622Y0488283D02*
X0498622Y0484283D01*
X0504921Y0476283D02*
X0504921Y0480283D01*
X0498622Y0480283D02*
X0498622Y0476283D01*
D148*
X0504928Y0476067D02*
G75*
G02*
X0498622Y0476083I-003156J-001283D01*
G01*
X0504935Y0488518D02*
G75*
G03*
X0498622Y0488484I-003163J0001265D01*
G01*
D86*
X0192222Y0504749D02*
X0192222Y0508749D01*
X0185923Y0516749D02*
X0185923Y0512749D01*
X0185923Y0508749D02*
X0185923Y0504749D01*
X0192222Y0512749D02*
X0192222Y0516749D01*
D148*
X0192229Y0504533D02*
G75*
G02*
X0185923Y0504549I-003156J-001283D01*
G01*
X0192236Y0516984D02*
G75*
G03*
X0185923Y0516950I-003163J0001265D01*
G01*
X0249318Y0146615D02*
X0250521Y0146615D01*
X0250521Y0146615D02*
X0250521Y0136143D01*
X0249362Y0136143D02*
X0250521Y0136143D01*
X0240049Y0136143D02*
X0240049Y0146615D01*
X0241208Y0146615D02*
X0240049Y0146615D01*
X0241252Y0136143D02*
X0240049Y0136143D01*
X0250521Y0176151D02*
X0250521Y0165679D01*
X0240049Y0165679D02*
X0240049Y0176151D01*
X0241252Y0165679D02*
X0240049Y0165679D01*
X0249362Y0165679D02*
X0250521Y0165679D01*
X0241208Y0176151D02*
X0240049Y0176151D01*
X0249318Y0176151D02*
X0250521Y0176151D01*
X0153946Y0485336D02*
X0152743Y0485336D01*
X0163215Y0495808D02*
X0163215Y0485336D01*
X0162012Y0495808D02*
X0163215Y0495808D01*
X0162056Y0485336D02*
X0163215Y0485336D01*
X0153902Y0495808D02*
X0152743Y0495808D01*
X0152743Y0485336D02*
X0152743Y0495808D01*
X0451266Y0498131D02*
X0451266Y0508604D01*
X0460580Y0498131D02*
X0461739Y0498131D01*
X0452426Y0508604D02*
X0451266Y0508604D01*
X0460536Y0508604D02*
X0461739Y0508604D01*
X0452470Y0498131D02*
X0451266Y0498131D01*
X0461739Y0508604D02*
X0461739Y0498131D01*
X0075567Y0221549D02*
X0103567Y0221549D01*
X0103567Y0221549D02*
X0103567Y0173549D01*
X0103567Y0173549D02*
X0075567Y0173549D01*
X0075567Y0173549D02*
X0075567Y0221549D01*
X0355816Y0509549D02*
X0354613Y0509549D01*
X0363882Y0520021D02*
X0365085Y0520021D01*
X0365085Y0520021D02*
X0365085Y0509549D01*
X0355772Y0520021D02*
X0354613Y0520021D01*
X0354613Y0509549D02*
X0354613Y0520021D01*
X0363926Y0509549D02*
X0365085Y0509549D01*
D86*
X0216837Y0516651D02*
X0216837Y0512651D01*
X0216837Y0508651D02*
X0216837Y0504651D01*
X0223137Y0512651D02*
X0223137Y0516651D01*
X0223137Y0504651D02*
X0223137Y0508651D01*
D148*
X0223150Y0516886D02*
G75*
G03*
X0216837Y0516852I-003163J0001265D01*
G01*
X0223143Y0504434D02*
G75*
G02*
X0216837Y0504450I-003156J-001283D01*
G01*
X0120969Y0316281D02*
X0122172Y0316281D01*
X0112903Y0305808D02*
X0111700Y0305808D01*
X0122172Y0316281D02*
X0122172Y0305808D01*
X0111700Y0305808D02*
X0111700Y0316281D01*
X0112859Y0316281D02*
X0111700Y0316281D01*
X0121013Y0305808D02*
X0122172Y0305808D01*
X0045567Y0171549D02*
X0073567Y0171549D01*
X0073567Y0171549D02*
X0073567Y0123549D01*
X0073567Y0123549D02*
X0045567Y0123549D01*
X0045567Y0123549D02*
X0045567Y0171549D01*
D202*
X0220236Y0117000D02*
X0118169Y0117000D01*
X0226437Y0123201D02*
X0220236Y0117000D01*
X0226971Y0284675D02*
X0226971Y0221175D01*
X0226437Y0220642D02*
X0226437Y0123201D01*
X0226971Y0284675D02*
X0226012Y0285634D01*
X0226012Y0285634D02*
X0117807Y0285634D01*
X0226971Y0221175D02*
X0226437Y0220642D01*
X0117807Y0285634D02*
X0116299Y0284126D01*
X0116299Y0284126D02*
X0116299Y0118870D01*
X0118169Y0117000D02*
X0116299Y0118870D01*
D86*
X0120479Y0508749D02*
X0120479Y0504749D01*
X0126778Y0504749D02*
X0126778Y0508749D01*
X0126778Y0512749D02*
X0126778Y0516749D01*
X0120479Y0516749D02*
X0120479Y0512749D01*
D148*
X0126792Y0516984D02*
G75*
G03*
X0120479Y0516950I-003163J0001265D01*
G01*
X0126785Y0504533D02*
G75*
G02*
X0120479Y0504549I-003156J-001283D01*
G01*
D86*
X0448333Y0509895D02*
X0448333Y0513895D01*
X0442034Y0513895D02*
X0442034Y0509895D01*
X0442034Y0505895D02*
X0442034Y0501895D01*
X0448333Y0501895D02*
X0448333Y0505895D01*
D148*
X0448347Y0514130D02*
G75*
G03*
X0442034Y0514096I-003163J0001265D01*
G01*
X0448340Y0501678D02*
G75*
G02*
X0442034Y0501694I-003156J-001283D01*
G01*
X0354613Y0521064D02*
X0354613Y0531537D01*
X0355816Y0521064D02*
X0354613Y0521064D01*
X0355772Y0531537D02*
X0354613Y0531537D01*
X0363926Y0521064D02*
X0365085Y0521064D01*
X0363882Y0531537D02*
X0365085Y0531537D01*
X0365085Y0531537D02*
X0365085Y0521064D01*
D86*
X0442231Y0480108D02*
X0442231Y0476108D01*
X0448530Y0476108D02*
X0448530Y0480108D01*
X0442231Y0488108D02*
X0442231Y0484108D01*
X0448530Y0484108D02*
X0448530Y0488108D01*
D148*
X0448544Y0488342D02*
G75*
G03*
X0442231Y0488308I-003163J0001265D01*
G01*
X0448537Y0475891D02*
G75*
G02*
X0442231Y0475907I-003156J-001283D01*
G01*
D86*
X0168904Y0516749D02*
X0168904Y0512749D01*
X0175203Y0504749D02*
X0175203Y0508749D01*
X0175203Y0512749D02*
X0175203Y0516749D01*
X0168904Y0508749D02*
X0168904Y0504749D01*
D148*
X0175210Y0504533D02*
G75*
G02*
X0168904Y0504549I-003156J-001283D01*
G01*
X0175217Y0516984D02*
G75*
G03*
X0168904Y0516950I-003163J0001265D01*
G01*
D86*
X0055871Y0504793D02*
X0055871Y0508793D01*
X0055871Y0496793D02*
X0055871Y0500793D01*
X0049572Y0500793D02*
X0049572Y0496793D01*
X0049572Y0508793D02*
X0049572Y0504793D01*
D148*
X0055885Y0509028D02*
G75*
G03*
X0049572Y0508994I-003163J0001265D01*
G01*
X0055877Y0496577D02*
G75*
G02*
X0049572Y0496592I-003156J-001283D01*
G01*
X0162065Y0531930D02*
X0160906Y0531930D01*
X0171378Y0531930D02*
X0171378Y0521458D01*
X0170219Y0521458D02*
X0171378Y0521458D01*
X0160906Y0521458D02*
X0160906Y0531930D01*
X0162109Y0521458D02*
X0160906Y0521458D01*
X0170175Y0531930D02*
X0171378Y0531930D01*
X0504585Y0502244D02*
X0504585Y0512717D01*
X0513854Y0512717D02*
X0515057Y0512717D01*
X0515057Y0512717D02*
X0515057Y0502244D01*
X0513898Y0502244D02*
X0515057Y0502244D01*
X0505788Y0502244D02*
X0504585Y0502244D01*
X0505744Y0512717D02*
X0504585Y0512717D01*
X0362428Y0322049D02*
X0351955Y0322049D01*
X0362428Y0331362D02*
X0362428Y0332521D01*
X0351955Y0331318D02*
X0351955Y0332521D01*
X0351955Y0323208D02*
X0351955Y0322049D01*
X0351955Y0332521D02*
X0362428Y0332521D01*
X0362428Y0323252D02*
X0362428Y0322049D01*
X0133589Y0304864D02*
X0133589Y0294391D01*
X0132430Y0294391D02*
X0133589Y0294391D01*
X0132386Y0304864D02*
X0133589Y0304864D01*
X0124276Y0304864D02*
X0123117Y0304864D01*
X0123117Y0294391D02*
X0123117Y0304864D01*
X0124320Y0294391D02*
X0123117Y0294391D01*
X0480024Y0167462D02*
X0481227Y0167462D01*
X0470755Y0156990D02*
X0470755Y0167462D01*
X0480068Y0156990D02*
X0481227Y0156990D01*
X0471914Y0167462D02*
X0470755Y0167462D01*
X0481227Y0167462D02*
X0481227Y0156990D01*
X0471958Y0156990D02*
X0470755Y0156990D01*
D86*
X0213491Y0504749D02*
X0213491Y0508749D01*
X0207192Y0508749D02*
X0207192Y0504749D01*
X0207192Y0516749D02*
X0207192Y0512749D01*
X0213491Y0512749D02*
X0213491Y0516749D01*
D148*
X0213505Y0516984D02*
G75*
G03*
X0207192Y0516950I-003163J0001265D01*
G01*
X0213497Y0504533D02*
G75*
G02*
X0207192Y0504549I-003156J-001283D01*
G01*
X0480068Y0145828D02*
X0481227Y0145828D01*
X0470755Y0145828D02*
X0470755Y0156300D01*
X0471914Y0156300D02*
X0470755Y0156300D01*
X0480024Y0156300D02*
X0481227Y0156300D01*
X0481227Y0156300D02*
X0481227Y0145828D01*
X0471958Y0145828D02*
X0470755Y0145828D01*
X0252316Y0165670D02*
X0251113Y0165670D01*
X0260382Y0176143D02*
X0261585Y0176143D01*
X0261585Y0176143D02*
X0261585Y0165670D01*
X0260426Y0165670D02*
X0261585Y0165670D01*
X0252272Y0176143D02*
X0251113Y0176143D01*
X0251113Y0165670D02*
X0251113Y0176143D01*
X0493038Y0156300D02*
X0493038Y0145828D01*
X0491879Y0145828D02*
X0493038Y0145828D01*
X0483725Y0156300D02*
X0482566Y0156300D01*
X0482566Y0145828D02*
X0482566Y0156300D01*
X0483769Y0145828D02*
X0482566Y0145828D01*
X0491835Y0156300D02*
X0493038Y0156300D01*
D202*
X0233599Y0411319D02*
X0232516Y0410236D01*
X0229071Y0410015D02*
X0229071Y0367322D01*
X0233599Y0411319D02*
X0256031Y0411319D01*
X0256031Y0411319D02*
X0256184Y0367322D01*
X0229268Y0410236D02*
X0229071Y0410015D01*
X0229268Y0410236D02*
X0232516Y0410236D01*
X0229047Y0367322D02*
X0256184Y0367322D01*
D86*
X0518018Y0506055D02*
X0518018Y0502055D01*
X0524318Y0510055D02*
X0524318Y0514055D01*
X0524318Y0502055D02*
X0524318Y0506055D01*
X0518018Y0514055D02*
X0518018Y0510055D01*
D148*
X0518005Y0501821D02*
G75*
G03*
X0524318Y0501854I0003163J-001265D01*
G01*
X0518012Y0514272D02*
G75*
G02*
X0524318Y0514256I0003156J0001283D01*
G01*
X0015567Y0221549D02*
X0043567Y0221549D01*
X0043567Y0221549D02*
X0043567Y0173549D01*
X0043567Y0173549D02*
X0015567Y0173549D01*
X0015567Y0173549D02*
X0015567Y0221549D01*
X0451562Y0512501D02*
X0451562Y0522974D01*
X0460831Y0522974D02*
X0462034Y0522974D01*
X0452721Y0522974D02*
X0451562Y0522974D01*
X0462034Y0522974D02*
X0462034Y0512501D01*
X0452765Y0512501D02*
X0451562Y0512501D01*
X0460875Y0512501D02*
X0462034Y0512501D01*
X0277684Y0238092D02*
X0267211Y0238092D01*
X0277684Y0247405D02*
X0277684Y0248564D01*
X0277684Y0239295D02*
X0277684Y0238092D01*
X0267211Y0239251D02*
X0267211Y0238092D01*
X0267211Y0248564D02*
X0277684Y0248564D01*
X0267211Y0247361D02*
X0267211Y0248564D01*
D202*
X0435506Y0077475D02*
X0435506Y0074227D01*
X0436589Y0073144D02*
X0436589Y0050712D01*
X0435506Y0077475D02*
X0435285Y0077671D01*
X0436589Y0050712D02*
X0392593Y0050559D01*
X0435285Y0077671D02*
X0392593Y0077671D01*
X0392593Y0077696D02*
X0392593Y0050559D01*
X0436589Y0073144D02*
X0435506Y0074227D01*
D148*
X0120969Y0304864D02*
X0122172Y0304864D01*
X0112903Y0294391D02*
X0111700Y0294391D01*
X0111700Y0294391D02*
X0111700Y0304864D01*
X0112859Y0304864D02*
X0111700Y0304864D01*
X0122172Y0304864D02*
X0122172Y0294391D01*
X0121013Y0294391D02*
X0122172Y0294391D01*
X0126328Y0521163D02*
X0127487Y0521163D01*
X0127487Y0531635D02*
X0127487Y0521163D01*
X0126284Y0531635D02*
X0127487Y0531635D01*
X0118218Y0521163D02*
X0117014Y0521163D01*
X0117014Y0521163D02*
X0117014Y0531635D01*
X0118174Y0531635D02*
X0117014Y0531635D01*
D86*
X0093863Y0504773D02*
X0093863Y0508773D01*
X0093863Y0496773D02*
X0093863Y0500773D01*
X0087564Y0500773D02*
X0087564Y0496773D01*
X0087564Y0508773D02*
X0087564Y0504773D01*
D148*
X0093877Y0509008D02*
G75*
G03*
X0087564Y0508974I-003163J0001265D01*
G01*
X0093870Y0496557D02*
G75*
G02*
X0087564Y0496573I-003156J-001283D01*
G01*
D202*
X0184366Y0111422D02*
X0184470Y0111526D01*
X0184366Y0046237D02*
X0184366Y0111422D01*
X0225315Y0046536D02*
X0225315Y0110898D01*
X0225315Y0110898D02*
X0224788Y0111426D01*
X0224788Y0111426D02*
X0184470Y0111526D01*
X0219307Y0040528D02*
X0190075Y0040528D01*
X0219307Y0040528D02*
X0225315Y0046536D01*
X0190075Y0040528D02*
X0184366Y0046237D01*
D148*
X0318459Y0295576D02*
X0317256Y0295576D01*
X0327729Y0306048D02*
X0327729Y0295576D01*
X0326525Y0306048D02*
X0327729Y0306048D01*
X0317256Y0295576D02*
X0317256Y0306048D01*
X0326569Y0295576D02*
X0327729Y0295576D01*
X0318415Y0306048D02*
X0317256Y0306048D01*
X0483725Y0167462D02*
X0482566Y0167462D01*
X0482566Y0156990D02*
X0482566Y0167462D01*
X0491835Y0167462D02*
X0493038Y0167462D01*
X0491879Y0156990D02*
X0493038Y0156990D01*
X0483769Y0156990D02*
X0482566Y0156990D01*
X0493038Y0167462D02*
X0493038Y0156990D01*
X0375343Y0509745D02*
X0376503Y0509745D01*
X0367233Y0509745D02*
X0366030Y0509745D01*
X0367190Y0520218D02*
X0366030Y0520218D01*
X0375299Y0520218D02*
X0376503Y0520218D01*
X0366030Y0509745D02*
X0366030Y0520218D01*
X0376503Y0520218D02*
X0376503Y0509745D01*
X0015567Y0121549D02*
X0043567Y0121549D01*
X0043567Y0121549D02*
X0043567Y0073549D01*
X0043567Y0073549D02*
X0015567Y0073549D01*
X0015567Y0073549D02*
X0015567Y0121549D01*
D202*
X0336762Y0240197D02*
X0334794Y0242165D01*
X0456054Y0291083D02*
X0449951Y0297185D01*
X0454479Y0240197D02*
X0336762Y0240197D01*
X0338436Y0297185D02*
X0334794Y0293543D01*
X0456054Y0241772D02*
X0454479Y0240197D01*
X0449951Y0297185D02*
X0338416Y0297185D01*
X0334794Y0293543D02*
X0334794Y0242165D01*
X0456054Y0291083D02*
X0456054Y0241772D01*
D86*
X0067879Y0497069D02*
X0067879Y0501069D01*
X0067879Y0505069D02*
X0067879Y0509069D01*
X0061580Y0501069D02*
X0061580Y0497069D01*
X0061580Y0509069D02*
X0061580Y0505069D01*
D148*
X0067885Y0496852D02*
G75*
G02*
X0061580Y0496868I-003156J-001283D01*
G01*
X0067893Y0509303D02*
G75*
G03*
X0061580Y0509269I-003163J0001265D01*
G01*
D86*
X0501280Y0509677D02*
X0501280Y0513677D01*
X0494980Y0505677D02*
X0494980Y0501677D01*
X0501280Y0501677D02*
X0501280Y0505677D01*
X0494980Y0513677D02*
X0494980Y0509677D01*
D148*
X0501286Y0501461D02*
G75*
G02*
X0494980Y0501476I-003156J-001283D01*
G01*
X0501293Y0513912D02*
G75*
G03*
X0494980Y0513878I-003163J0001265D01*
G01*
D202*
X0275073Y0086275D02*
X0274190Y0087158D01*
X0454649Y0083519D02*
X0283833Y0083519D01*
X0281077Y0086275D02*
X0275073Y0086275D01*
X0456569Y0085439D02*
X0454649Y0083519D01*
X0275538Y0229775D02*
X0274190Y0228427D01*
X0454329Y0229775D02*
X0275538Y0229775D01*
X0283833Y0083519D02*
X0281077Y0086275D01*
X0456569Y0227535D02*
X0454329Y0229775D01*
X0456569Y0085439D02*
X0456569Y0227535D01*
X0274190Y0087158D02*
X0274190Y0228427D01*
D86*
X0133570Y0508749D02*
X0133570Y0504749D01*
X0133570Y0516749D02*
X0133570Y0512749D01*
X0139869Y0504749D02*
X0139869Y0508749D01*
X0139869Y0512749D02*
X0139869Y0516749D01*
D148*
X0139883Y0516984D02*
G75*
G03*
X0133570Y0516950I-003163J0001265D01*
G01*
X0139875Y0504533D02*
G75*
G02*
X0133570Y0504549I-003156J-001283D01*
G01*
X0132270Y0521163D02*
X0132270Y0531635D01*
X0133430Y0531635D02*
X0132270Y0531635D01*
X0141584Y0521163D02*
X0142743Y0521163D01*
X0142743Y0531635D02*
X0142743Y0521163D01*
X0141540Y0531635D02*
X0142743Y0531635D01*
X0133474Y0521163D02*
X0132270Y0521163D01*
D86*
X0508268Y0480283D02*
X0508268Y0476283D01*
X0514567Y0476283D02*
X0514567Y0480283D01*
X0514567Y0484283D02*
X0514567Y0488283D01*
X0508268Y0488283D02*
X0508268Y0484283D01*
D148*
X0514573Y0476067D02*
G75*
G02*
X0508268Y0476083I-003156J-001283D01*
G01*
X0514581Y0488518D02*
G75*
G03*
X0508268Y0488484I-003163J0001265D01*
G01*
X0469416Y0156300D02*
X0469416Y0145828D01*
X0468213Y0156300D02*
X0469416Y0156300D01*
X0460103Y0156300D02*
X0458944Y0156300D01*
X0468257Y0145828D02*
X0469416Y0145828D01*
X0458944Y0145828D02*
X0458944Y0156300D01*
X0460147Y0145828D02*
X0458944Y0145828D01*
X0366030Y0522224D02*
X0366030Y0521064D01*
X0376503Y0530377D02*
X0376503Y0531537D01*
X0366030Y0530334D02*
X0366030Y0531537D01*
X0376503Y0522268D02*
X0376503Y0521064D01*
X0366030Y0531537D02*
X0376503Y0531537D01*
X0376503Y0521064D02*
X0366030Y0521064D01*
X0045567Y0221549D02*
X0073567Y0221549D01*
X0073567Y0221549D02*
X0073567Y0173549D01*
X0073567Y0173549D02*
X0045567Y0173549D01*
X0045567Y0173549D02*
X0045567Y0221549D01*
X0183353Y0305808D02*
X0183353Y0316281D01*
X0192666Y0305808D02*
X0193826Y0305808D01*
X0184512Y0316281D02*
X0183353Y0316281D01*
X0192622Y0316281D02*
X0193826Y0316281D01*
X0193826Y0316281D02*
X0193826Y0305808D01*
X0184556Y0305808D02*
X0183353Y0305808D01*
D202*
X0092964Y0415094D02*
X0056842Y0415094D01*
X0113732Y0438815D02*
X0096409Y0438815D01*
X0092964Y0415094D02*
X0093456Y0415587D01*
X0117964Y0478776D02*
X0056842Y0478776D01*
X0093456Y0435862D02*
X0096409Y0438815D01*
X0056842Y0415094D02*
X0056842Y0478776D01*
X0113732Y0438815D02*
X0117964Y0443047D01*
X0117964Y0443047D02*
X0117964Y0478776D01*
X0093456Y0415587D02*
X0093456Y0435862D01*
D148*
X0075567Y0171549D02*
X0103567Y0171549D01*
X0103567Y0171549D02*
X0103567Y0123549D01*
X0103567Y0123549D02*
X0075567Y0123549D01*
X0075567Y0123549D02*
X0075567Y0171549D01*
D86*
X0429516Y0514962D02*
X0429516Y0510962D01*
X0435815Y0510962D02*
X0435815Y0514962D01*
X0435815Y0502962D02*
X0435815Y0506962D01*
X0429516Y0506962D02*
X0429516Y0502962D01*
D148*
X0435829Y0515197D02*
G75*
G03*
X0429516Y0515163I-003163J0001265D01*
G01*
X0435822Y0502746D02*
G75*
G02*
X0429516Y0502761I-003156J-001283D01*
G01*
X0102264Y0517323D02*
X0083169Y0517323D01*
X0102264Y0525197D02*
X0083169Y0525197D01*
X0083169Y0517323D02*
G75*
G02*
X0083169Y0525197I0000000J0003937D01*
G01*
X0102461Y0525197D02*
G75*
G02*
X0102461Y0517323I0000000J-003937D01*
G01*
X0102461Y0534646D02*
X0083366Y0534646D01*
X0102461Y0526772D02*
X0083366Y0526772D01*
X0102657Y0534646D02*
G75*
G02*
X0102657Y0526772I0000000J-003937D01*
G01*
X0083366Y0526772D02*
G75*
G02*
X0083366Y0534646I0000000J0003937D01*
G01*
X0015567Y0171549D02*
X0043567Y0171549D01*
X0043567Y0171549D02*
X0043567Y0123549D01*
X0043567Y0123549D02*
X0015567Y0123549D01*
X0015567Y0123549D02*
X0015567Y0171549D01*
D86*
X0157176Y0512860D02*
X0157176Y0516860D01*
X0157176Y0504860D02*
X0157176Y0508860D01*
X0150877Y0508860D02*
X0150877Y0504860D01*
X0150877Y0516860D02*
X0150877Y0512860D01*
D148*
X0157190Y0517095D02*
G75*
G03*
X0150877Y0517061I-003163J0001265D01*
G01*
X0157183Y0504644D02*
G75*
G02*
X0150877Y0504660I-003156J-001283D01*
G01*
D86*
X0096028Y0500695D02*
X0096028Y0496695D01*
X0096028Y0508695D02*
X0096028Y0504695D01*
X0102328Y0496695D02*
X0102328Y0500695D01*
X0102328Y0504695D02*
X0102328Y0508695D01*
D148*
X0102341Y0508929D02*
G75*
G03*
X0096028Y0508895I-003163J0001265D01*
G01*
X0102334Y0496478D02*
G75*
G02*
X0096028Y0496494I-003156J-001283D01*
G01*
X0124276Y0316198D02*
X0123117Y0316198D01*
X0132430Y0305725D02*
X0133589Y0305725D01*
X0132386Y0316198D02*
X0133589Y0316198D01*
X0123117Y0305725D02*
X0123117Y0316198D01*
X0124320Y0305725D02*
X0123117Y0305725D01*
X0133589Y0316198D02*
X0133589Y0305725D01*
D86*
X0160129Y0508848D02*
X0160129Y0504848D01*
X0160129Y0516848D02*
X0160129Y0512848D01*
X0166428Y0512848D02*
X0166428Y0516848D01*
X0166428Y0504848D02*
X0166428Y0508848D01*
D148*
X0166435Y0504631D02*
G75*
G02*
X0160129Y0504647I-003156J-001283D01*
G01*
X0166442Y0517082D02*
G75*
G03*
X0160129Y0517049I-003163J0001265D01*
G01*
D86*
X0078706Y0508872D02*
X0078706Y0504872D01*
X0085005Y0504872D02*
X0085005Y0508872D01*
X0078706Y0500872D02*
X0078706Y0496872D01*
X0085005Y0496872D02*
X0085005Y0500872D01*
D148*
X0085011Y0496655D02*
G75*
G02*
X0078706Y0496671I-003156J-001283D01*
G01*
X0085019Y0509106D02*
G75*
G03*
X0078706Y0509073I-003163J0001265D01*
G01*
D86*
X0183659Y0504749D02*
X0183659Y0508749D01*
X0177360Y0516749D02*
X0177360Y0512749D01*
X0183659Y0512749D02*
X0183659Y0516749D01*
X0177360Y0508749D02*
X0177360Y0504749D01*
D148*
X0183666Y0504533D02*
G75*
G02*
X0177360Y0504549I-003156J-001283D01*
G01*
X0183673Y0516984D02*
G75*
G03*
X0177360Y0516950I-003163J0001265D01*
G01*
D86*
X0525640Y0480285D02*
X0525640Y0476285D01*
X0531940Y0484285D02*
X0531940Y0488285D01*
X0525640Y0488285D02*
X0525640Y0484285D01*
X0531940Y0476285D02*
X0531940Y0480285D01*
D148*
X0531946Y0476068D02*
G75*
G02*
X0525640Y0476084I-003156J-001283D01*
G01*
X0531953Y0488519D02*
G75*
G03*
X0525640Y0488486I-003163J0001265D01*
G01*
X0267211Y0270612D02*
X0277684Y0270612D01*
X0277684Y0261342D02*
X0277684Y0260139D01*
X0277684Y0260139D02*
X0267211Y0260139D01*
X0267211Y0269408D02*
X0267211Y0270612D01*
X0267211Y0261298D02*
X0267211Y0260139D01*
X0277684Y0269452D02*
X0277684Y0270612D01*
D86*
X0532881Y0502055D02*
X0532881Y0506055D01*
X0526581Y0514055D02*
X0526581Y0510055D01*
X0526581Y0506055D02*
X0526581Y0502055D01*
X0532881Y0510055D02*
X0532881Y0514055D01*
D148*
X0532894Y0514290D02*
G75*
G03*
X0526581Y0514256I-003163J0001265D01*
G01*
X0532887Y0501839D02*
G75*
G02*
X0526581Y0501854I-003156J-001283D01*
G01*
X0266660Y0271163D02*
X0256188Y0271163D01*
X0266660Y0272366D02*
X0266660Y0271163D01*
X0256188Y0272322D02*
X0256188Y0271163D01*
X0256188Y0280432D02*
X0256188Y0281635D01*
X0256188Y0281635D02*
X0266660Y0281635D01*
X0266660Y0280476D02*
X0266660Y0281635D01*
X0266660Y0250319D02*
X0266660Y0249116D01*
X0266660Y0258429D02*
X0266660Y0259588D01*
X0256188Y0259588D02*
X0266660Y0259588D01*
X0256188Y0250275D02*
X0256188Y0249116D01*
X0256188Y0258385D02*
X0256188Y0259588D01*
X0266660Y0249116D02*
X0256188Y0249116D01*
D86*
X0420184Y0514781D02*
X0420184Y0510781D01*
X0426483Y0510781D02*
X0426483Y0514781D01*
X0426483Y0502781D02*
X0426483Y0506781D01*
X0420184Y0506781D02*
X0420184Y0502781D01*
D148*
X0420177Y0514997D02*
G75*
G02*
X0426483Y0514982I0003156J0001283D01*
G01*
X0420170Y0502546D02*
G75*
G03*
X0426483Y0502580I0003163J-001265D01*
G01*
D202*
X0309849Y0241950D02*
X0309849Y0288210D01*
X0329534Y0241950D02*
X0310243Y0241950D01*
X0329534Y0241950D02*
X0329534Y0288210D01*
X0329534Y0288210D02*
X0310243Y0288210D01*
D148*
X0487246Y0502539D02*
X0488406Y0502539D01*
X0479092Y0513012D02*
X0477933Y0513012D01*
X0479136Y0502539D02*
X0477933Y0502539D01*
X0488406Y0513012D02*
X0488406Y0502539D01*
X0477933Y0502539D02*
X0477933Y0513012D01*
X0487202Y0513012D02*
X0488406Y0513012D01*
D86*
X0070143Y0501069D02*
X0070143Y0497069D01*
X0076442Y0505069D02*
X0076442Y0509069D01*
X0076442Y0497069D02*
X0076442Y0501069D01*
X0070143Y0509069D02*
X0070143Y0505069D01*
D148*
X0076456Y0509303D02*
G75*
G03*
X0070143Y0509269I-003163J0001265D01*
G01*
X0076448Y0496852D02*
G75*
G02*
X0070143Y0496868I-003156J-001283D01*
G01*
D86*
X0406700Y0514879D02*
X0406700Y0510879D01*
X0412999Y0510879D02*
X0412999Y0514879D01*
X0406700Y0506879D02*
X0406700Y0502879D01*
X0412999Y0502879D02*
X0412999Y0506879D01*
D148*
X0413012Y0515114D02*
G75*
G03*
X0406700Y0515080I-003163J0001265D01*
G01*
X0413005Y0502663D02*
G75*
G02*
X0406700Y0502679I-003156J-001283D01*
G01*
X0063314Y0492659D02*
X0063314Y0482186D01*
X0054001Y0492659D02*
X0052841Y0492659D01*
X0052841Y0482186D02*
X0052841Y0492659D01*
X0062110Y0492659D02*
X0063314Y0492659D01*
X0054045Y0482186D02*
X0052841Y0482186D01*
X0062154Y0482186D02*
X0063314Y0482186D01*
D86*
X0142019Y0516762D02*
X0142019Y0512762D01*
X0148318Y0512762D02*
X0148318Y0516762D01*
X0148318Y0504762D02*
X0148318Y0508762D01*
X0142019Y0508762D02*
X0142019Y0504762D01*
D148*
X0148324Y0504546D02*
G75*
G02*
X0142019Y0504561I-003156J-001283D01*
G01*
X0148332Y0516997D02*
G75*
G03*
X0142019Y0516963I-003163J0001265D01*
G01*
X0413471Y0322836D02*
X0413471Y0333308D01*
X0422740Y0333308D02*
X0423944Y0333308D01*
X0414630Y0333308D02*
X0413471Y0333308D01*
X0423944Y0333308D02*
X0423944Y0322836D01*
X0422784Y0322836D02*
X0423944Y0322836D01*
X0414674Y0322836D02*
X0413471Y0322836D01*
X0435949Y0354864D02*
X0435949Y0344391D01*
X0426680Y0344391D02*
X0425477Y0344391D01*
X0426636Y0354864D02*
X0425477Y0354864D01*
X0434746Y0354864D02*
X0435949Y0354864D01*
X0425477Y0344391D02*
X0425477Y0354864D01*
X0434790Y0344391D02*
X0435949Y0344391D01*
D86*
X0468707Y0510289D02*
X0468707Y0514289D01*
X0468707Y0502289D02*
X0468707Y0506289D01*
X0462408Y0514289D02*
X0462408Y0510289D01*
X0462408Y0506289D02*
X0462408Y0502289D01*
D148*
X0468714Y0502072D02*
G75*
G02*
X0462408Y0502088I-003156J-001283D01*
G01*
X0468721Y0514523D02*
G75*
G03*
X0462408Y0514490I-003163J0001265D01*
G01*
X0141916Y0485336D02*
X0141916Y0495808D01*
X0143075Y0495808D02*
X0141916Y0495808D01*
X0143119Y0485336D02*
X0141916Y0485336D01*
X0151229Y0485336D02*
X0152389Y0485336D01*
X0151185Y0495808D02*
X0152389Y0495808D01*
X0152389Y0495808D02*
X0152389Y0485336D01*
X0468213Y0167462D02*
X0469416Y0167462D01*
X0468257Y0156990D02*
X0469416Y0156990D01*
X0460103Y0167462D02*
X0458944Y0167462D01*
X0458944Y0156990D02*
X0458944Y0167462D01*
X0469416Y0167462D02*
X0469416Y0156990D01*
X0460147Y0156990D02*
X0458944Y0156990D01*
D202*
X0495575Y0131385D02*
X0494591Y0132369D01*
X0494152Y0078537D02*
X0471560Y0078537D01*
X0468607Y0083847D02*
X0464670Y0083847D01*
X0471560Y0080894D02*
X0471560Y0078537D01*
X0464670Y0131386D02*
X0464670Y0083847D01*
X0495575Y0131385D02*
X0495575Y0079961D01*
X0494591Y0132369D02*
X0465653Y0132369D01*
X0471560Y0080894D02*
X0468607Y0083847D01*
X0465653Y0132369D02*
X0464670Y0131386D01*
X0495575Y0079961D02*
X0494152Y0078537D01*
D86*
X0523327Y0476185D02*
X0523327Y0480185D01*
X0517028Y0488185D02*
X0517028Y0484185D01*
X0523327Y0484185D02*
X0523327Y0488185D01*
X0517028Y0480185D02*
X0517028Y0476185D01*
D148*
X0517021Y0488402D02*
G75*
G02*
X0523327Y0488386I0003156J0001283D01*
G01*
X0517014Y0475950D02*
G75*
G03*
X0523327Y0475984I0003163J-001265D01*
G01*
X0350004Y0332521D02*
X0351207Y0332521D01*
X0341894Y0332521D02*
X0340735Y0332521D01*
X0341938Y0322049D02*
X0340735Y0322049D01*
X0340735Y0322049D02*
X0340735Y0332521D01*
X0350048Y0322049D02*
X0351207Y0322049D01*
X0351207Y0332521D02*
X0351207Y0322049D01*
D86*
X0485735Y0484108D02*
X0485735Y0488108D01*
X0479436Y0488108D02*
X0479436Y0484108D01*
X0485735Y0476108D02*
X0485735Y0480108D01*
X0479436Y0480108D02*
X0479436Y0476108D01*
D148*
X0485749Y0488342D02*
G75*
G03*
X0479436Y0488308I-003163J0001265D01*
G01*
X0485741Y0475891D02*
G75*
G02*
X0479436Y0475907I-003156J-001283D01*
G01*
D202*
X0056644Y0227559D02*
X0056938Y0382776D01*
X0082825Y0378150D02*
X0082825Y0380217D01*
X0085187Y0227559D02*
X0085187Y0375787D01*
X0085187Y0227559D02*
X0056644Y0227559D01*
X0080266Y0382776D02*
X0056938Y0382776D01*
X0082825Y0380217D02*
X0080266Y0382776D01*
X0085187Y0375787D02*
X0082825Y0378150D01*
X0062648Y0348720D02*
X0062648Y0359055D01*
D148*
X0125971Y0485238D02*
X0125971Y0495710D01*
X0136444Y0495710D02*
X0136444Y0485238D01*
X0135240Y0495710D02*
X0136444Y0495710D01*
X0135284Y0485238D02*
X0136444Y0485238D01*
X0127130Y0495710D02*
X0125971Y0495710D01*
X0127174Y0485238D02*
X0125971Y0485238D01*
X0072880Y0517457D02*
X0053785Y0517457D01*
X0072880Y0525331D02*
X0053785Y0525331D01*
X0073077Y0525331D02*
G75*
G02*
X0073077Y0517457I0000000J-003937D01*
G01*
X0053785Y0517457D02*
G75*
G02*
X0053785Y0525331I0000000J0003937D01*
G01*
X0035440Y0476399D02*
G75*
G03*
X0035440Y0476399I-004724J0000000D01*
G01*
X0456447Y0297579D02*
G01*
G75*
D202*
X0454478Y0240197D02*
X0336762Y0240197D01*
X0334794Y0242166D01*
X0334794Y0293544D02*
X0334794Y0242166D01*
X0338435Y0297185D02*
X0334794Y0293544D01*
X0449951Y0297185D02*
X0338415Y0297185D01*
X0456053Y0291083D02*
X0449951Y0297185D01*
X0456053Y0291083D02*
X0456053Y0241772D01*
X0454478Y0240197D01*
D252*
X0451412Y0287130D02*
X0451412Y0285556D01*
X0451412Y0286343D01*
X0448263Y0286343D01*
X0448263Y0287130D01*
X0451412Y0283194D02*
X0448263Y0283194D01*
X0448263Y0280833D01*
X0449051Y0280046D01*
X0451412Y0280046D01*
X0452986Y0278472D02*
X0448263Y0278472D01*
X0448263Y0276110D01*
X0449051Y0275323D01*
X0450625Y0275323D01*
X0451412Y0276110D01*
X0451412Y0278472D01*
X0448263Y0273749D02*
X0450625Y0273749D01*
X0451412Y0272961D01*
X0451412Y0270600D01*
X0448263Y0270600D01*
X0447476Y0268239D02*
X0448263Y0268239D01*
X0448263Y0269026D01*
X0448263Y0267451D01*
X0448263Y0268239D01*
X0450625Y0268239D01*
X0451412Y0267451D01*
X0449051Y0265090D02*
X0449051Y0261941D01*
X0447476Y0260367D02*
X0446689Y0259580D01*
X0446689Y0258006D01*
X0447476Y0257219D01*
X0450625Y0257219D01*
X0451412Y0258006D01*
X0451412Y0259580D01*
X0450625Y0260367D01*
X0447476Y0260367D01*
X0451412Y0255644D02*
X0450625Y0255644D01*
X0450625Y0254857D01*
X0451412Y0254857D01*
X0451412Y0255644D01*
X0451412Y0251709D02*
X0451412Y0250134D01*
X0451412Y0250921D01*
X0446689Y0250921D01*
X0447476Y0251709D01*
X0495674Y0132764D02*
G01*
G75*
D202*
X0468902Y0083847D02*
X0464965Y0083847D01*
X0471855Y0080894D02*
X0471855Y0078537D01*
X0495674Y0079764D02*
X0494447Y0078537D01*
X0495674Y0131582D02*
X0494886Y0132369D01*
X0465948Y0132369D01*
X0464965Y0131386D01*
X0464965Y0083847D01*
X0471855Y0080894D02*
X0468902Y0083847D01*
X0494447Y0078537D02*
X0471855Y0078537D01*
D252*
X0492017Y0127335D02*
X0492017Y0125761D01*
X0492017Y0126548D01*
X0488868Y0126548D01*
X0488868Y0127335D01*
X0493591Y0121825D02*
X0493591Y0121038D01*
X0492804Y0120250D01*
X0488868Y0120250D01*
X0488868Y0122612D01*
X0489655Y0123399D01*
X0491230Y0123399D01*
X0492017Y0122612D01*
X0492017Y0120250D01*
X0492017Y0118676D02*
X0488868Y0118676D01*
X0488868Y0116315D01*
X0489655Y0115528D01*
X0492017Y0115528D01*
X0488081Y0113953D02*
X0487294Y0113166D01*
X0487294Y0111592D01*
X0488081Y0110805D01*
X0488868Y0110805D01*
X0489655Y0111592D01*
X0490443Y0110805D01*
X0491230Y0110805D01*
X0492017Y0111592D01*
X0492017Y0113166D01*
X0491230Y0113953D01*
X0490443Y0113953D01*
X0489655Y0113166D01*
X0488868Y0113953D01*
X0488081Y0113953D01*
X0489655Y0113166D02*
X0489655Y0111592D01*
X0489655Y0109230D02*
X0489655Y0106082D01*
X0488081Y0104508D02*
X0487294Y0103721D01*
X0487294Y0102146D01*
X0488081Y0101359D01*
X0491230Y0101359D01*
X0492017Y0102146D01*
X0492017Y0103721D01*
X0491230Y0104508D01*
X0488081Y0104508D01*
X0492017Y0099785D02*
X0491230Y0099785D01*
X0491230Y0098998D01*
X0492017Y0098998D01*
X0492017Y0099785D01*
X0492017Y0095849D02*
X0492017Y0094275D01*
X0492017Y0095062D01*
X0487294Y0095062D01*
X0488081Y0095849D01*
X0456963Y0230173D02*
G01*
G75*
D252*
X0450058Y0213031D02*
X0446909Y0213031D01*
X0446909Y0212244D01*
X0447696Y0211457D01*
X0450058Y0211457D01*
X0447696Y0211457D01*
X0446909Y0210670D01*
X0447696Y0209883D01*
X0450058Y0209883D01*
X0446909Y0205160D02*
X0446909Y0207521D01*
X0447696Y0208308D01*
X0449270Y0208308D01*
X0450058Y0207521D01*
X0450058Y0205160D01*
X0446909Y0203585D02*
X0449270Y0203585D01*
X0450058Y0202798D01*
X0450058Y0200437D01*
X0446909Y0200437D01*
X0450058Y0198863D02*
X0450058Y0197288D01*
X0450058Y0198075D01*
X0445335Y0198075D01*
X0446122Y0198863D01*
X0450058Y0192565D02*
X0445335Y0192565D01*
X0447696Y0194927D01*
X0447696Y0191778D01*
X0450058Y0187843D02*
X0445335Y0187843D01*
X0447696Y0190204D01*
X0447696Y0187055D01*
X0447696Y0185481D02*
X0447696Y0182333D01*
X0446122Y0180758D02*
X0445335Y0179971D01*
X0445335Y0178397D01*
X0446122Y0177610D01*
X0449270Y0177610D01*
X0450058Y0178397D01*
X0450058Y0179971D01*
X0449270Y0180758D01*
X0446122Y0180758D01*
X0450058Y0176035D02*
X0449270Y0176035D01*
X0449270Y0175248D01*
X0450058Y0175248D01*
X0450058Y0176035D01*
X0445335Y0168951D02*
X0445335Y0172100D01*
X0447696Y0172100D01*
X0446909Y0170525D01*
X0446909Y0169738D01*
X0447696Y0168951D01*
X0449270Y0168951D01*
X0450058Y0169738D01*
X0450058Y0171313D01*
X0449270Y0172100D01*
D202*
X0454649Y0083520D02*
X0283833Y0083520D01*
X0281077Y0086275D01*
X0275073Y0086275D01*
X0456569Y0227535D02*
X0454329Y0229775D01*
X0274190Y0087158D02*
X0274190Y0228427D01*
X0456569Y0085439D02*
X0456569Y0227535D01*
X0456569Y0085439D02*
X0454649Y0083520D01*
X0454329Y0229775D02*
X0275539Y0229775D01*
X0274190Y0228427D01*
X0275073Y0086275D02*
X0274190Y0087158D01*
X0283636Y0016614D02*
G01*
G75*
D202*
X0355295Y0017008D02*
X0355295Y0026891D01*
X0358242Y0026891D01*
X0284030Y0067303D02*
X0284030Y0077146D01*
X0284030Y0067303D02*
X0296628Y0067303D01*
X0298400Y0065531D01*
X0298400Y0017008D02*
X0298400Y0065531D01*
X0298400Y0017008D02*
X0355295Y0017008D01*
X0358242Y0026891D02*
X0358242Y0076358D01*
X0284030Y0077146D02*
X0357455Y0077146D01*
D252*
X0301762Y0022043D02*
X0301762Y0024405D01*
X0302549Y0025192D01*
X0303336Y0024405D01*
X0303336Y0022830D01*
X0304123Y0022043D01*
X0304911Y0022830D01*
X0304911Y0025192D01*
X0306485Y0029915D02*
X0301762Y0029915D01*
X0301762Y0027553D01*
X0302549Y0026766D01*
X0304123Y0026766D01*
X0304911Y0027553D01*
X0304911Y0029915D01*
X0304123Y0031489D02*
X0304123Y0034637D01*
X0305698Y0036212D02*
X0306485Y0036999D01*
X0306485Y0038573D01*
X0305698Y0039360D01*
X0302549Y0039360D01*
X0301762Y0038573D01*
X0301762Y0036999D01*
X0302549Y0036212D01*
X0305698Y0036212D01*
X0301762Y0040935D02*
X0302549Y0040935D01*
X0302549Y0041722D01*
X0301762Y0041722D01*
X0301762Y0040935D01*
X0301762Y0044870D02*
X0301762Y0046445D01*
X0301762Y0045657D01*
X0306485Y0045657D01*
X0305698Y0044870D01*
X0227230Y0286050D02*
G01*
G75*
D202*
X0226970Y0221175D02*
X0226437Y0220642D01*
X0226970Y0284675D02*
X0226970Y0221175D01*
X0226970Y0284675D02*
X0226011Y0285634D01*
X0117807Y0285634D01*
X0226437Y0220642D02*
X0226437Y0123201D01*
X0220236Y0117000D02*
X0118169Y0117000D01*
X0226437Y0123201D02*
X0220236Y0117000D01*
X0118169Y0117000D02*
X0116299Y0118870D01*
X0117807Y0285634D02*
X0116299Y0284126D01*
X0116299Y0118870D01*
D252*
X0220522Y0270385D02*
X0220522Y0268811D01*
X0219735Y0268023D01*
X0218160Y0268023D01*
X0217373Y0268811D01*
X0217373Y0270385D01*
X0218160Y0271172D01*
X0219735Y0271172D01*
X0220522Y0270385D01*
X0217373Y0266449D02*
X0219735Y0266449D01*
X0220522Y0265662D01*
X0220522Y0263301D01*
X0217373Y0263301D01*
X0216586Y0260939D02*
X0217373Y0260939D01*
X0217373Y0261726D01*
X0217373Y0260152D01*
X0217373Y0260939D01*
X0219735Y0260939D01*
X0220522Y0260152D01*
X0222096Y0257790D02*
X0217373Y0257790D01*
X0217373Y0255429D01*
X0218160Y0254642D01*
X0219735Y0254642D01*
X0220522Y0255429D01*
X0220522Y0257790D01*
X0217373Y0253068D02*
X0219735Y0253068D01*
X0220522Y0252280D01*
X0220522Y0249919D01*
X0217373Y0249919D01*
X0216586Y0247558D02*
X0217373Y0247558D01*
X0217373Y0248345D01*
X0217373Y0246771D01*
X0217373Y0247558D01*
X0219735Y0247558D01*
X0220522Y0246771D01*
X0218160Y0244409D02*
X0218160Y0241260D01*
X0216586Y0239686D02*
X0215799Y0238899D01*
X0215799Y0237325D01*
X0216586Y0236538D01*
X0219735Y0236538D01*
X0220522Y0237325D01*
X0220522Y0238899D01*
X0219735Y0239686D01*
X0216586Y0239686D01*
X0220522Y0234963D02*
X0219735Y0234963D01*
X0219735Y0234176D01*
X0220522Y0234176D01*
X0220522Y0234963D01*
X0216586Y0231027D02*
X0215799Y0230240D01*
X0215799Y0228666D01*
X0216586Y0227879D01*
X0217373Y0227879D01*
X0218160Y0228666D01*
X0218160Y0229453D01*
X0218160Y0228666D01*
X0218948Y0227879D01*
X0219735Y0227879D01*
X0220522Y0228666D01*
X0220522Y0230240D01*
X0219735Y0231027D01*
X0330026Y0241556D02*
G01*
G75*
D202*
X0329534Y0241950D02*
X0329534Y0288210D01*
X0310243Y0288210D01*
X0309849Y0241950D02*
X0309849Y0288210D01*
X0329534Y0241950D02*
X0310243Y0241950D01*
D252*
X0311213Y0276580D02*
X0314755Y0276580D01*
X0314755Y0278351D01*
X0314164Y0278942D01*
X0312984Y0278942D01*
X0312393Y0278351D01*
X0312393Y0276580D01*
X0314755Y0275400D02*
X0314755Y0274219D01*
X0314755Y0274809D01*
X0312393Y0274809D01*
X0312393Y0275400D01*
X0314755Y0272448D02*
X0312393Y0272448D01*
X0312393Y0270677D01*
X0312984Y0270086D01*
X0314755Y0270086D01*
X0315936Y0268906D02*
X0312393Y0268906D01*
X0312393Y0267135D01*
X0312984Y0266544D01*
X0314164Y0266544D01*
X0314755Y0267135D01*
X0314755Y0268906D01*
X0312393Y0265364D02*
X0314164Y0265364D01*
X0314755Y0264773D01*
X0314755Y0263002D01*
X0312393Y0263002D01*
X0311803Y0261231D02*
X0312393Y0261231D01*
X0312393Y0261821D01*
X0312393Y0260641D01*
X0312393Y0261231D01*
X0314164Y0261231D01*
X0314755Y0260641D01*
X0314755Y0257098D02*
X0311213Y0257098D01*
X0312984Y0258870D01*
X0312984Y0256508D01*
X0312984Y0255327D02*
X0312984Y0252966D01*
X0311803Y0251785D02*
X0311213Y0251195D01*
X0311213Y0250014D01*
X0311803Y0249424D01*
X0314164Y0249424D01*
X0314755Y0250014D01*
X0314755Y0251195D01*
X0314164Y0251785D01*
X0311803Y0251785D01*
X0314755Y0248243D02*
X0314164Y0248243D01*
X0314164Y0247653D01*
X0314755Y0247653D01*
X0314755Y0248243D01*
X0314755Y0245291D02*
X0314755Y0244111D01*
X0314755Y0244701D01*
X0311213Y0244701D01*
X0311803Y0245291D01*
X0225705Y0040135D02*
G01*
G75*
D202*
X0184366Y0046237D02*
X0184366Y0111422D01*
X0190075Y0040528D02*
X0184366Y0046237D01*
X0225315Y0046536D02*
X0225315Y0110898D01*
X0219307Y0040528D02*
X0190075Y0040528D01*
X0219307Y0040528D02*
X0225315Y0046536D01*
X0225315Y0110898D02*
X0224788Y0111426D01*
X0184366Y0111422D02*
X0184470Y0111526D01*
X0224788Y0111426D02*
X0184470Y0111526D01*
D252*
X0221359Y0099765D02*
X0221359Y0097404D01*
X0220571Y0096616D01*
X0219784Y0097404D01*
X0219784Y0098978D01*
X0218997Y0099765D01*
X0218210Y0098978D01*
X0218210Y0096616D01*
X0217423Y0094255D02*
X0218210Y0094255D01*
X0218210Y0095042D01*
X0218210Y0093468D01*
X0218210Y0094255D01*
X0220571Y0094255D01*
X0221359Y0093468D01*
X0221359Y0091106D02*
X0221359Y0089532D01*
X0221359Y0090319D01*
X0216636Y0090319D01*
X0216636Y0091106D01*
X0221359Y0087171D02*
X0221359Y0085596D01*
X0221359Y0086383D01*
X0218210Y0086383D01*
X0218210Y0087171D01*
X0221359Y0083235D02*
X0218210Y0083235D01*
X0218210Y0080873D01*
X0218997Y0080086D01*
X0221359Y0080086D01*
X0221359Y0078512D02*
X0216636Y0078512D01*
X0219784Y0078512D02*
X0218210Y0076150D01*
X0219784Y0078512D02*
X0221359Y0076150D01*
X0218997Y0073789D02*
X0218997Y0070640D01*
X0217423Y0069066D02*
X0216636Y0068279D01*
X0216636Y0066705D01*
X0217423Y0065918D01*
X0220571Y0065918D01*
X0221359Y0066705D01*
X0221359Y0068279D01*
X0220571Y0069066D01*
X0217423Y0069066D01*
X0221359Y0064343D02*
X0220571Y0064343D01*
X0220571Y0063556D01*
X0221359Y0063556D01*
X0221359Y0064343D01*
X0221359Y0060408D02*
X0221359Y0058833D01*
X0221359Y0059620D01*
X0216636Y0059620D01*
X0217423Y0060408D01*
X0228677Y0411712D02*
G01*
G75*
D202*
X0229268Y0410236D02*
X0229071Y0410014D01*
X0229268Y0410236D02*
X0232516Y0410236D01*
X0233598Y0411318D02*
X0232516Y0410236D01*
X0229046Y0367322D02*
X0256184Y0367322D01*
X0256031Y0411318D02*
X0256184Y0367322D01*
X0229071Y0410014D02*
X0229071Y0367322D01*
X0233598Y0411318D02*
X0256031Y0411318D01*
D252*
X0250837Y0377967D02*
X0250837Y0375605D01*
X0250050Y0374818D01*
X0248476Y0374818D01*
X0247689Y0375605D01*
X0247689Y0377967D01*
X0250837Y0380328D02*
X0250837Y0381903D01*
X0250050Y0382690D01*
X0247689Y0382690D01*
X0247689Y0380328D01*
X0248476Y0379541D01*
X0249263Y0380328D01*
X0249263Y0382690D01*
X0247689Y0384264D02*
X0250837Y0384264D01*
X0250837Y0386625D01*
X0250050Y0387413D01*
X0247689Y0387413D01*
X0250050Y0388987D02*
X0250050Y0392135D01*
X0251625Y0393710D02*
X0252412Y0394497D01*
X0252412Y0396071D01*
X0251625Y0396858D01*
X0248476Y0396858D01*
X0247689Y0396071D01*
X0247689Y0394497D01*
X0248476Y0393710D01*
X0251625Y0393710D01*
X0247689Y0398433D02*
X0248476Y0398433D01*
X0248476Y0399220D01*
X0247689Y0399220D01*
X0247689Y0398433D01*
X0247689Y0402368D02*
X0247689Y0403943D01*
X0247689Y0403156D01*
X0252412Y0403156D01*
X0251625Y0402368D01*
X0422880Y0354011D02*
G01*
G75*
D202*
X0368156Y0339542D02*
X0350538Y0339542D01*
X0371010Y0336688D02*
X0368156Y0339542D01*
X0422486Y0339542D02*
X0395911Y0339542D01*
X0393057Y0336688D01*
X0371010Y0336688D01*
X0350538Y0353617D02*
X0350538Y0339542D01*
X0422486Y0353617D02*
X0350538Y0353617D01*
X0422486Y0353617D02*
X0422486Y0339542D01*
D252*
X0361282Y0351633D02*
X0361282Y0346910D01*
X0361282Y0350059D02*
X0363643Y0348485D01*
X0361282Y0350059D02*
X0363643Y0351633D01*
X0366005Y0351633D02*
X0366005Y0348485D01*
X0368366Y0348485D01*
X0369153Y0349272D01*
X0369153Y0351633D01*
X0371514Y0351633D02*
X0373089Y0351633D01*
X0373876Y0350846D01*
X0373876Y0349272D01*
X0373089Y0348485D01*
X0371514Y0348485D01*
X0370727Y0349272D01*
X0370727Y0350846D01*
X0371514Y0351633D01*
X0378599Y0348485D02*
X0376237Y0348485D01*
X0375450Y0349272D01*
X0375450Y0350846D01*
X0376237Y0351633D01*
X0378599Y0351633D01*
X0380173Y0351633D02*
X0380173Y0346910D01*
X0380173Y0350059D02*
X0382535Y0348485D01*
X0380173Y0350059D02*
X0382535Y0351633D01*
X0384896Y0349272D02*
X0388045Y0349272D01*
X0389619Y0347697D02*
X0390406Y0346910D01*
X0391980Y0346910D01*
X0392767Y0347697D01*
X0392767Y0350846D01*
X0391980Y0351633D01*
X0390406Y0351633D01*
X0389619Y0350846D01*
X0389619Y0347697D01*
X0394342Y0351633D02*
X0394342Y0350846D01*
X0395129Y0350846D01*
X0395129Y0351633D01*
X0394342Y0351633D01*
X0398278Y0351633D02*
X0399852Y0351633D01*
X0399065Y0351633D01*
X0399065Y0346910D01*
X0398278Y0347697D01*
X0118358Y0414701D02*
G01*
G75*
D202*
X0113732Y0438815D02*
X0117964Y0443047D01*
X0113732Y0438815D02*
X0096409Y0438815D01*
X0092964Y0415095D02*
X0093457Y0415587D01*
X0093457Y0435863D01*
X0092964Y0415095D02*
X0056842Y0415095D01*
X0093457Y0435863D02*
X0096409Y0438815D01*
X0117964Y0443047D02*
X0117964Y0478776D01*
X0056842Y0415095D02*
X0056842Y0478776D01*
X0117964Y0478776D02*
X0056842Y0478776D01*
D252*
X0112830Y0470229D02*
X0112830Y0474951D01*
X0110469Y0474951D01*
X0109682Y0474164D01*
X0109682Y0472590D01*
X0110469Y0471803D01*
X0112830Y0471803D01*
X0107320Y0471803D02*
X0105746Y0471803D01*
X0104959Y0472590D01*
X0104959Y0474164D01*
X0105746Y0474951D01*
X0107320Y0474951D01*
X0108108Y0474164D01*
X0108108Y0472590D01*
X0107320Y0471803D01*
X0103385Y0474951D02*
X0103385Y0472590D01*
X0102597Y0471803D01*
X0101810Y0472590D01*
X0101023Y0471803D01*
X0100236Y0472590D01*
X0100236Y0474951D01*
X0096300Y0471803D02*
X0097875Y0471803D01*
X0098662Y0472590D01*
X0098662Y0474164D01*
X0097875Y0474951D01*
X0096300Y0474951D01*
X0095513Y0474164D01*
X0095513Y0473377D01*
X0098662Y0473377D01*
X0093939Y0474951D02*
X0093939Y0471803D01*
X0093939Y0473377D01*
X0093152Y0474164D01*
X0092365Y0474951D01*
X0091577Y0474951D01*
X0089216Y0471803D02*
X0087642Y0471803D01*
X0088429Y0471803D01*
X0088429Y0476526D01*
X0089216Y0475739D01*
X0082132Y0471803D02*
X0085280Y0471803D01*
X0082132Y0474951D01*
X0082132Y0475739D01*
X0082919Y0476526D01*
X0084493Y0476526D01*
X0085280Y0475739D01*
X0080557Y0474164D02*
X0077409Y0474164D01*
X0075834Y0475739D02*
X0075047Y0476526D01*
X0073473Y0476526D01*
X0072686Y0475739D01*
X0072686Y0472590D01*
X0073473Y0471803D01*
X0075047Y0471803D01*
X0075834Y0472590D01*
X0075834Y0475739D01*
X0071112Y0471803D02*
X0071112Y0472590D01*
X0070325Y0472590D01*
X0070325Y0471803D01*
X0071112Y0471803D01*
X0064027Y0471803D02*
X0067176Y0471803D01*
X0064027Y0474951D01*
X0064027Y0475739D01*
X0064814Y0476526D01*
X0066389Y0476526D01*
X0067176Y0475739D01*
X0085581Y0227165D02*
G01*
G75*
D202*
X0085187Y0227559D02*
X0085187Y0375787D01*
X0082825Y0378149D01*
X0082825Y0380216D01*
X0080266Y0382775D01*
X0062648Y0348720D02*
X0062648Y0359055D01*
X0056645Y0227559D02*
X0056938Y0382775D01*
X0085187Y0227559D02*
X0056645Y0227559D01*
X0080266Y0382775D02*
X0056938Y0382775D01*
D252*
X0082809Y0323311D02*
X0078086Y0323311D01*
X0078086Y0320949D01*
X0078874Y0320162D01*
X0080448Y0320162D01*
X0081235Y0320949D01*
X0081235Y0323311D01*
X0081235Y0317801D02*
X0081235Y0316226D01*
X0080448Y0315439D01*
X0078874Y0315439D01*
X0078086Y0316226D01*
X0078086Y0317801D01*
X0078874Y0318588D01*
X0080448Y0318588D01*
X0081235Y0317801D01*
X0078086Y0313865D02*
X0080448Y0313865D01*
X0081235Y0313078D01*
X0080448Y0312291D01*
X0081235Y0311503D01*
X0080448Y0310716D01*
X0078086Y0310716D01*
X0081235Y0306781D02*
X0081235Y0308355D01*
X0080448Y0309142D01*
X0078874Y0309142D01*
X0078086Y0308355D01*
X0078086Y0306781D01*
X0078874Y0305993D01*
X0079661Y0305993D01*
X0079661Y0309142D01*
X0078086Y0304419D02*
X0081235Y0304419D01*
X0079661Y0304419D01*
X0078874Y0303632D01*
X0078086Y0302845D01*
X0078086Y0302058D01*
X0076512Y0296548D02*
X0076512Y0299696D01*
X0078874Y0299696D01*
X0078086Y0298122D01*
X0078086Y0297335D01*
X0078874Y0296548D01*
X0080448Y0296548D01*
X0081235Y0297335D01*
X0081235Y0298909D01*
X0080448Y0299696D01*
X0078874Y0294973D02*
X0078874Y0291825D01*
X0077299Y0290251D02*
X0076512Y0289463D01*
X0076512Y0287889D01*
X0077299Y0287102D01*
X0080448Y0287102D01*
X0081235Y0287889D01*
X0081235Y0289463D01*
X0080448Y0290251D01*
X0077299Y0290251D01*
X0081235Y0285528D02*
X0080448Y0285528D01*
X0080448Y0284741D01*
X0081235Y0284741D01*
X0081235Y0285528D01*
X0081235Y0278443D02*
X0081235Y0281592D01*
X0078086Y0278443D01*
X0077299Y0278443D01*
X0076512Y0279230D01*
X0076512Y0280805D01*
X0077299Y0281592D01*
X0318406Y0367126D02*
%LPD*%
G01*
D339*
X0260738Y0393204D02*
X0264675Y0392267D01*
X0261863Y0391517D01*
X0264675Y0390767D01*
X0260738Y0389829D01*
X0262613Y0387017D02*
X0262800Y0386455D01*
X0262988Y0386267D01*
X0263363Y0386080D01*
X0263925Y0386080D01*
X0264300Y0386267D01*
X0264488Y0386455D01*
X0264675Y0386830D01*
X0264675Y0388330D01*
X0260738Y0388330D01*
X0260738Y0387017D01*
X0260926Y0386642D01*
X0261113Y0386455D01*
X0261488Y0386267D01*
X0261863Y0386267D01*
X0262238Y0386455D01*
X0262425Y0386642D01*
X0262613Y0387017D01*
X0262613Y0388330D01*
X0260738Y0383643D02*
X0260738Y0382893D01*
X0260926Y0382518D01*
X0261301Y0382143D01*
X0262051Y0381955D01*
X0263363Y0381955D01*
X0264113Y0382143D01*
X0264488Y0382518D01*
X0264675Y0382893D01*
X0264675Y0383643D01*
X0264488Y0384018D01*
X0264113Y0384393D01*
X0263363Y0384580D01*
X0262051Y0384580D01*
X0261301Y0384393D01*
X0260926Y0384018D01*
X0260738Y0383643D01*
X0260738Y0376519D02*
X0260738Y0376144D01*
X0260926Y0375769D01*
X0261113Y0375581D01*
X0261488Y0375394D01*
X0262238Y0375206D01*
X0263175Y0375206D01*
X0263925Y0375394D01*
X0264300Y0375581D01*
X0264488Y0375769D01*
X0264675Y0376144D01*
X0264675Y0376519D01*
X0264488Y0376894D01*
X0264300Y0377081D01*
X0263925Y0377268D01*
X0263175Y0377456D01*
X0262238Y0377456D01*
X0261488Y0377268D01*
X0261113Y0377081D01*
X0260926Y0376894D01*
X0260738Y0376519D01*
X0264300Y0373519D02*
X0264488Y0373331D01*
X0264675Y0373519D01*
X0264488Y0373706D01*
X0264300Y0373519D01*
X0264675Y0373519D01*
X0260738Y0372019D02*
X0260738Y0369582D01*
X0262238Y0370894D01*
X0262238Y0370332D01*
X0262425Y0369957D01*
X0262613Y0369769D01*
X0262988Y0369582D01*
X0263925Y0369582D01*
X0264300Y0369769D01*
X0264488Y0369957D01*
X0264675Y0370332D01*
X0264675Y0371457D01*
X0264488Y0371832D01*
X0264300Y0372019D01*
D202*
X0259351Y0521654D02*
X0259351Y0367520D01*
X0259351Y0367520D02*
X0318012Y0367520D01*
X0318012Y0367520D02*
X0318012Y0521654D01*
X0318012Y0521654D02*
X0259351Y0521654D01*
X0436982Y0078065D02*
G01*
G75*
D202*
X0435506Y0077474D02*
X0435284Y0077671D01*
X0435506Y0077474D02*
X0435506Y0074226D01*
X0436588Y0073144D02*
X0435506Y0074226D01*
X0392592Y0077696D02*
X0392592Y0050558D01*
X0436588Y0050711D02*
X0392592Y0050558D01*
X0435284Y0077671D02*
X0392592Y0077671D01*
X0436588Y0073144D02*
X0436588Y0050711D01*
D252*
X0403237Y0055905D02*
X0400875Y0055905D01*
X0400088Y0056692D01*
X0400088Y0058266D01*
X0400875Y0059053D01*
X0403237Y0059053D01*
X0405598Y0055905D02*
X0407173Y0055905D01*
X0407960Y0056692D01*
X0407960Y0059053D01*
X0405598Y0059053D01*
X0404811Y0058266D01*
X0405598Y0057479D01*
X0407960Y0057479D01*
X0409534Y0059053D02*
X0409534Y0055905D01*
X0411895Y0055905D01*
X0412683Y0056692D01*
X0412683Y0059053D01*
X0414257Y0056692D02*
X0417405Y0056692D01*
X0418980Y0055117D02*
X0419767Y0054330D01*
X0421341Y0054330D01*
X0422128Y0055117D01*
X0422128Y0058266D01*
X0421341Y0059053D01*
X0419767Y0059053D01*
X0418980Y0058266D01*
X0418980Y0055117D01*
X0423703Y0059053D02*
X0423703Y0058266D01*
X0424490Y0058266D01*
X0424490Y0059053D01*
X0423703Y0059053D01*
X0427638Y0059053D02*
X0429213Y0059053D01*
X0428426Y0059053D01*
X0428426Y0054330D01*
X0427638Y0055117D01*
M02*
