G75*
G70*
%OFA0B0*%
%FSLAX25Y25*%
%IPPOS*%
%LPD*%
%AMOC8*
5,1,8,0,0,1.08239X$1,22.5*
%
%AMM147*
21,1,0.039370,0.049210,-0.000000,0.000000,180.000000*
21,1,0.031500,0.057090,-0.000000,0.000000,180.000000*
1,1,0.007870,-0.015750,0.024610*
1,1,0.007870,0.015750,0.024610*
1,1,0.007870,0.015750,-0.024610*
1,1,0.007870,-0.015750,-0.024610*
%
%AMM150*
21,1,0.027560,0.030710,-0.000000,0.000000,180.000000*
21,1,0.022050,0.036220,-0.000000,0.000000,180.000000*
1,1,0.005510,-0.011020,0.015350*
1,1,0.005510,0.011020,0.015350*
1,1,0.005510,0.011020,-0.015350*
1,1,0.005510,-0.011020,-0.015350*
%
%AMM154*
21,1,0.033470,0.026770,-0.000000,0.000000,0.000000*
21,1,0.026770,0.033470,-0.000000,0.000000,0.000000*
1,1,0.006690,0.013390,-0.013390*
1,1,0.006690,-0.013390,-0.013390*
1,1,0.006690,-0.013390,0.013390*
1,1,0.006690,0.013390,0.013390*
%
%AMM157*
21,1,0.027560,0.030710,-0.000000,0.000000,90.000000*
21,1,0.022050,0.036220,-0.000000,0.000000,90.000000*
1,1,0.005510,0.015350,0.011020*
1,1,0.005510,0.015350,-0.011020*
1,1,0.005510,-0.015350,-0.011020*
1,1,0.005510,-0.015350,0.011020*
%
%AMM159*
21,1,0.033470,0.026770,-0.000000,0.000000,270.000000*
21,1,0.026770,0.033470,-0.000000,0.000000,270.000000*
1,1,0.006690,-0.013390,-0.013390*
1,1,0.006690,-0.013390,0.013390*
1,1,0.006690,0.013390,0.013390*
1,1,0.006690,0.013390,-0.013390*
%
%AMM176*
21,1,0.035430,0.050000,-0.000000,-0.000000,90.000000*
21,1,0.028350,0.057090,-0.000000,-0.000000,90.000000*
1,1,0.007090,0.025000,0.014170*
1,1,0.007090,0.025000,-0.014170*
1,1,0.007090,-0.025000,-0.014170*
1,1,0.007090,-0.025000,0.014170*
%
%AMM177*
21,1,0.086610,0.073230,-0.000000,-0.000000,90.000000*
21,1,0.069290,0.090550,-0.000000,-0.000000,90.000000*
1,1,0.017320,0.036610,0.034650*
1,1,0.017320,0.036610,-0.034650*
1,1,0.017320,-0.036610,-0.034650*
1,1,0.017320,-0.036610,0.034650*
%
%AMM178*
21,1,0.027560,0.030710,-0.000000,-0.000000,270.000000*
21,1,0.022050,0.036220,-0.000000,-0.000000,270.000000*
1,1,0.005510,-0.015350,-0.011020*
1,1,0.005510,-0.015350,0.011020*
1,1,0.005510,0.015350,0.011020*
1,1,0.005510,0.015350,-0.011020*
%
%AMM180*
21,1,0.025590,0.026380,-0.000000,-0.000000,180.000000*
21,1,0.020470,0.031500,-0.000000,-0.000000,180.000000*
1,1,0.005120,-0.010240,0.013190*
1,1,0.005120,0.010240,0.013190*
1,1,0.005120,0.010240,-0.013190*
1,1,0.005120,-0.010240,-0.013190*
%
%AMM181*
21,1,0.023620,0.030710,-0.000000,-0.000000,270.000000*
21,1,0.018900,0.035430,-0.000000,-0.000000,270.000000*
1,1,0.004720,-0.015350,-0.009450*
1,1,0.004720,-0.015350,0.009450*
1,1,0.004720,0.015350,0.009450*
1,1,0.004720,0.015350,-0.009450*
%
%AMM182*
21,1,0.033470,0.026770,-0.000000,-0.000000,90.000000*
21,1,0.026770,0.033470,-0.000000,-0.000000,90.000000*
1,1,0.006690,0.013390,0.013390*
1,1,0.006690,0.013390,-0.013390*
1,1,0.006690,-0.013390,-0.013390*
1,1,0.006690,-0.013390,0.013390*
%
%AMM183*
21,1,0.017720,0.027950,-0.000000,-0.000000,180.000000*
21,1,0.014170,0.031500,-0.000000,-0.000000,180.000000*
1,1,0.003540,-0.007090,0.013980*
1,1,0.003540,0.007090,0.013980*
1,1,0.003540,0.007090,-0.013980*
1,1,0.003540,-0.007090,-0.013980*
%
%AMM184*
21,1,0.039370,0.049210,-0.000000,-0.000000,270.000000*
21,1,0.031500,0.057090,-0.000000,-0.000000,270.000000*
1,1,0.007870,-0.024610,-0.015750*
1,1,0.007870,-0.024610,0.015750*
1,1,0.007870,0.024610,0.015750*
1,1,0.007870,0.024610,-0.015750*
%
%AMM185*
21,1,0.027560,0.030710,-0.000000,-0.000000,180.000000*
21,1,0.022050,0.036220,-0.000000,-0.000000,180.000000*
1,1,0.005510,-0.011020,0.015350*
1,1,0.005510,0.011020,0.015350*
1,1,0.005510,0.011020,-0.015350*
1,1,0.005510,-0.011020,-0.015350*
%
%AMM186*
21,1,0.039370,0.049210,-0.000000,-0.000000,0.000000*
21,1,0.031500,0.057090,-0.000000,-0.000000,0.000000*
1,1,0.007870,0.015750,-0.024610*
1,1,0.007870,-0.015750,-0.024610*
1,1,0.007870,-0.015750,0.024610*
1,1,0.007870,0.015750,0.024610*
%
%AMM188*
21,1,0.033470,0.026770,-0.000000,-0.000000,0.000000*
21,1,0.026770,0.033470,-0.000000,-0.000000,0.000000*
1,1,0.006690,0.013390,-0.013390*
1,1,0.006690,-0.013390,-0.013390*
1,1,0.006690,-0.013390,0.013390*
1,1,0.006690,0.013390,0.013390*
%
%AMM206*
21,1,0.033470,0.026770,-0.000000,-0.000000,180.000000*
21,1,0.026770,0.033470,-0.000000,-0.000000,180.000000*
1,1,0.006690,-0.013390,0.013390*
1,1,0.006690,0.013390,0.013390*
1,1,0.006690,0.013390,-0.013390*
1,1,0.006690,-0.013390,-0.013390*
%
%AMM207*
21,1,0.027560,0.030710,-0.000000,-0.000000,90.000000*
21,1,0.022050,0.036220,-0.000000,-0.000000,90.000000*
1,1,0.005510,0.015350,0.011020*
1,1,0.005510,0.015350,-0.011020*
1,1,0.005510,-0.015350,-0.011020*
1,1,0.005510,-0.015350,0.011020*
%
%AMM216*
21,1,0.027560,0.030710,-0.000000,0.000000,270.000000*
21,1,0.022050,0.036220,-0.000000,0.000000,270.000000*
1,1,0.005510,-0.015350,-0.011020*
1,1,0.005510,-0.015350,0.011020*
1,1,0.005510,0.015350,0.011020*
1,1,0.005510,0.015350,-0.011020*
%
%AMM259*
21,1,0.027560,0.030710,-0.000000,-0.000000,0.000000*
21,1,0.022050,0.036220,-0.000000,-0.000000,0.000000*
1,1,0.005510,0.011020,-0.015350*
1,1,0.005510,-0.011020,-0.015350*
1,1,0.005510,-0.011020,0.015350*
1,1,0.005510,0.011020,0.015350*
%
%AMM262*
21,1,0.035830,0.026770,-0.000000,-0.000000,90.000000*
21,1,0.029130,0.033470,-0.000000,-0.000000,90.000000*
1,1,0.006690,0.013390,0.014570*
1,1,0.006690,0.013390,-0.014570*
1,1,0.006690,-0.013390,-0.014570*
1,1,0.006690,-0.013390,0.014570*
%
%AMM263*
21,1,0.035430,0.030320,-0.000000,-0.000000,0.000000*
21,1,0.028350,0.037400,-0.000000,-0.000000,0.000000*
1,1,0.007090,0.014170,-0.015160*
1,1,0.007090,-0.014170,-0.015160*
1,1,0.007090,-0.014170,0.015160*
1,1,0.007090,0.014170,0.015160*
%
%AMM264*
21,1,0.023620,0.030710,-0.000000,-0.000000,0.000000*
21,1,0.018900,0.035430,-0.000000,-0.000000,0.000000*
1,1,0.004720,0.009450,-0.015350*
1,1,0.004720,-0.009450,-0.015350*
1,1,0.004720,-0.009450,0.015350*
1,1,0.004720,0.009450,0.015350*
%
%AMM265*
21,1,0.035430,0.030320,-0.000000,-0.000000,90.000000*
21,1,0.028350,0.037400,-0.000000,-0.000000,90.000000*
1,1,0.007090,0.015160,0.014170*
1,1,0.007090,0.015160,-0.014170*
1,1,0.007090,-0.015160,-0.014170*
1,1,0.007090,-0.015160,0.014170*
%
%AMM268*
21,1,0.039370,0.035430,-0.000000,-0.000000,90.000000*
21,1,0.031500,0.043310,-0.000000,-0.000000,90.000000*
1,1,0.007870,0.017720,0.015750*
1,1,0.007870,0.017720,-0.015750*
1,1,0.007870,-0.017720,-0.015750*
1,1,0.007870,-0.017720,0.015750*
%
%AMM269*
21,1,0.043310,0.075990,-0.000000,-0.000000,180.000000*
21,1,0.034650,0.084650,-0.000000,-0.000000,180.000000*
1,1,0.008660,-0.017320,0.037990*
1,1,0.008660,0.017320,0.037990*
1,1,0.008660,0.017320,-0.037990*
1,1,0.008660,-0.017320,-0.037990*
%
%AMM271*
21,1,0.027560,0.018900,-0.000000,-0.000000,0.000000*
21,1,0.022840,0.023620,-0.000000,-0.000000,0.000000*
1,1,0.004720,0.011420,-0.009450*
1,1,0.004720,-0.011420,-0.009450*
1,1,0.004720,-0.011420,0.009450*
1,1,0.004720,0.011420,0.009450*
%
%AMM272*
21,1,0.043310,0.075980,-0.000000,-0.000000,180.000000*
21,1,0.034650,0.084650,-0.000000,-0.000000,180.000000*
1,1,0.008660,-0.017320,0.037990*
1,1,0.008660,0.017320,0.037990*
1,1,0.008660,0.017320,-0.037990*
1,1,0.008660,-0.017320,-0.037990*
%
%AMM273*
21,1,0.137800,0.067720,-0.000000,-0.000000,180.000000*
21,1,0.120870,0.084650,-0.000000,-0.000000,180.000000*
1,1,0.016930,-0.060430,0.033860*
1,1,0.016930,0.060430,0.033860*
1,1,0.016930,0.060430,-0.033860*
1,1,0.016930,-0.060430,-0.033860*
%
%AMM274*
21,1,0.035830,0.026770,-0.000000,-0.000000,0.000000*
21,1,0.029130,0.033470,-0.000000,-0.000000,0.000000*
1,1,0.006690,0.014570,-0.013390*
1,1,0.006690,-0.014570,-0.013390*
1,1,0.006690,-0.014570,0.013390*
1,1,0.006690,0.014570,0.013390*
%
%AMM275*
21,1,0.027560,0.049610,-0.000000,-0.000000,90.000000*
21,1,0.022050,0.055120,-0.000000,-0.000000,90.000000*
1,1,0.005510,0.024800,0.011020*
1,1,0.005510,0.024800,-0.011020*
1,1,0.005510,-0.024800,-0.011020*
1,1,0.005510,-0.024800,0.011020*
%
%AMM276*
21,1,0.017720,0.027950,-0.000000,-0.000000,90.000000*
21,1,0.014170,0.031500,-0.000000,-0.000000,90.000000*
1,1,0.003540,0.013980,0.007090*
1,1,0.003540,0.013980,-0.007090*
1,1,0.003540,-0.013980,-0.007090*
1,1,0.003540,-0.013980,0.007090*
%
%AMM277*
21,1,0.025590,0.026380,-0.000000,-0.000000,90.000000*
21,1,0.020470,0.031500,-0.000000,-0.000000,90.000000*
1,1,0.005120,0.013190,0.010240*
1,1,0.005120,0.013190,-0.010240*
1,1,0.005120,-0.013190,-0.010240*
1,1,0.005120,-0.013190,0.010240*
%
%AMM298*
21,1,0.035830,0.026770,-0.000000,0.000000,180.000000*
21,1,0.029130,0.033470,-0.000000,0.000000,180.000000*
1,1,0.006690,-0.014570,0.013390*
1,1,0.006690,0.014570,0.013390*
1,1,0.006690,0.014570,-0.013390*
1,1,0.006690,-0.014570,-0.013390*
%
%AMM301*
21,1,0.035430,0.030320,-0.000000,0.000000,90.000000*
21,1,0.028350,0.037400,-0.000000,0.000000,90.000000*
1,1,0.007090,0.015160,0.014170*
1,1,0.007090,0.015160,-0.014170*
1,1,0.007090,-0.015160,-0.014170*
1,1,0.007090,-0.015160,0.014170*
%
%AMM303*
21,1,0.070870,0.036220,-0.000000,0.000000,90.000000*
21,1,0.061810,0.045280,-0.000000,0.000000,90.000000*
1,1,0.009060,0.018110,0.030910*
1,1,0.009060,0.018110,-0.030910*
1,1,0.009060,-0.018110,-0.030910*
1,1,0.009060,-0.018110,0.030910*
%
%AMM306*
21,1,0.017720,0.027950,-0.000000,0.000000,180.000000*
21,1,0.014170,0.031500,-0.000000,0.000000,180.000000*
1,1,0.003540,-0.007090,0.013980*
1,1,0.003540,0.007090,0.013980*
1,1,0.003540,0.007090,-0.013980*
1,1,0.003540,-0.007090,-0.013980*
%
%AMM307*
21,1,0.025590,0.026380,-0.000000,0.000000,180.000000*
21,1,0.020470,0.031500,-0.000000,0.000000,180.000000*
1,1,0.005120,-0.010240,0.013190*
1,1,0.005120,0.010240,0.013190*
1,1,0.005120,0.010240,-0.013190*
1,1,0.005120,-0.010240,-0.013190*
%
%AMM31*
21,1,0.027560,0.030710,0.000000,0.000000,270.000000*
21,1,0.022050,0.036220,0.000000,0.000000,270.000000*
1,1,0.005510,-0.015350,-0.011020*
1,1,0.005510,-0.015350,0.011020*
1,1,0.005510,0.015350,0.011020*
1,1,0.005510,0.015350,-0.011020*
%
%AMM318*
21,1,0.035830,0.026770,-0.000000,-0.000000,270.000000*
21,1,0.029130,0.033470,-0.000000,-0.000000,270.000000*
1,1,0.006690,-0.013390,-0.014570*
1,1,0.006690,-0.013390,0.014570*
1,1,0.006690,0.013390,0.014570*
1,1,0.006690,0.013390,-0.014570*
%
%AMM321*
21,1,0.035430,0.030320,-0.000000,-0.000000,180.000000*
21,1,0.028350,0.037400,-0.000000,-0.000000,180.000000*
1,1,0.007090,-0.014170,0.015160*
1,1,0.007090,0.014170,0.015160*
1,1,0.007090,0.014170,-0.015160*
1,1,0.007090,-0.014170,-0.015160*
%
%AMM322*
21,1,0.043310,0.075980,-0.000000,-0.000000,0.000000*
21,1,0.034650,0.084650,-0.000000,-0.000000,0.000000*
1,1,0.008660,0.017320,-0.037990*
1,1,0.008660,-0.017320,-0.037990*
1,1,0.008660,-0.017320,0.037990*
1,1,0.008660,0.017320,0.037990*
%
%AMM323*
21,1,0.070870,0.036220,-0.000000,-0.000000,180.000000*
21,1,0.061810,0.045280,-0.000000,-0.000000,180.000000*
1,1,0.009060,-0.030910,0.018110*
1,1,0.009060,0.030910,0.018110*
1,1,0.009060,0.030910,-0.018110*
1,1,0.009060,-0.030910,-0.018110*
%
%AMM324*
21,1,0.137800,0.067720,-0.000000,-0.000000,0.000000*
21,1,0.120870,0.084650,-0.000000,-0.000000,0.000000*
1,1,0.016930,0.060430,-0.033860*
1,1,0.016930,-0.060430,-0.033860*
1,1,0.016930,-0.060430,0.033860*
1,1,0.016930,0.060430,0.033860*
%
%AMM325*
21,1,0.043310,0.075990,-0.000000,-0.000000,0.000000*
21,1,0.034650,0.084650,-0.000000,-0.000000,0.000000*
1,1,0.008660,0.017320,-0.037990*
1,1,0.008660,-0.017320,-0.037990*
1,1,0.008660,-0.017320,0.037990*
1,1,0.008660,0.017320,0.037990*
%
%AMM326*
21,1,0.017720,0.027950,-0.000000,-0.000000,270.000000*
21,1,0.014170,0.031500,-0.000000,-0.000000,270.000000*
1,1,0.003540,-0.013980,-0.007090*
1,1,0.003540,-0.013980,0.007090*
1,1,0.003540,0.013980,0.007090*
1,1,0.003540,0.013980,-0.007090*
%
%AMM328*
21,1,0.025590,0.026380,-0.000000,-0.000000,270.000000*
21,1,0.020470,0.031500,-0.000000,-0.000000,270.000000*
1,1,0.005120,-0.013190,-0.010240*
1,1,0.005120,-0.013190,0.010240*
1,1,0.005120,0.013190,0.010240*
1,1,0.005120,0.013190,-0.010240*
%
%AMM337*
21,1,0.012600,0.028980,-0.000000,0.000000,0.000000*
21,1,0.010080,0.031500,-0.000000,0.000000,0.000000*
1,1,0.002520,0.005040,-0.014490*
1,1,0.002520,-0.005040,-0.014490*
1,1,0.002520,-0.005040,0.014490*
1,1,0.002520,0.005040,0.014490*
%
%AMM347*
21,1,0.035830,0.026770,-0.000000,0.000000,90.000000*
21,1,0.029130,0.033470,-0.000000,0.000000,90.000000*
1,1,0.006690,0.013390,0.014570*
1,1,0.006690,0.013390,-0.014570*
1,1,0.006690,-0.013390,-0.014570*
1,1,0.006690,-0.013390,0.014570*
%
%AMM351*
21,1,0.035430,0.030320,0.000000,-0.000000,90.000000*
21,1,0.028350,0.037400,0.000000,-0.000000,90.000000*
1,1,0.007090,0.015160,0.014170*
1,1,0.007090,0.015160,-0.014170*
1,1,0.007090,-0.015160,-0.014170*
1,1,0.007090,-0.015160,0.014170*
%
%AMM352*
21,1,0.033470,0.026770,0.000000,-0.000000,270.000000*
21,1,0.026770,0.033470,0.000000,-0.000000,270.000000*
1,1,0.006690,-0.013390,-0.013390*
1,1,0.006690,-0.013390,0.013390*
1,1,0.006690,0.013390,0.013390*
1,1,0.006690,0.013390,-0.013390*
%
%AMM353*
21,1,0.027560,0.030710,0.000000,-0.000000,90.000000*
21,1,0.022050,0.036220,0.000000,-0.000000,90.000000*
1,1,0.005510,0.015350,0.011020*
1,1,0.005510,0.015350,-0.011020*
1,1,0.005510,-0.015350,-0.011020*
1,1,0.005510,-0.015350,0.011020*
%
%AMM359*
21,1,0.021650,0.052760,-0.000000,-0.000000,90.000000*
21,1,0.017320,0.057090,-0.000000,-0.000000,90.000000*
1,1,0.004330,0.026380,0.008660*
1,1,0.004330,0.026380,-0.008660*
1,1,0.004330,-0.026380,-0.008660*
1,1,0.004330,-0.026380,0.008660*
%
%AMM361*
21,1,0.035430,0.030320,-0.000000,0.000000,180.000000*
21,1,0.028350,0.037400,-0.000000,0.000000,180.000000*
1,1,0.007090,-0.014170,0.015160*
1,1,0.007090,0.014170,0.015160*
1,1,0.007090,0.014170,-0.015160*
1,1,0.007090,-0.014170,-0.015160*
%
%AMM363*
21,1,0.021650,0.052760,-0.000000,0.000000,90.000000*
21,1,0.017320,0.057090,-0.000000,0.000000,90.000000*
1,1,0.004330,0.026380,0.008660*
1,1,0.004330,0.026380,-0.008660*
1,1,0.004330,-0.026380,-0.008660*
1,1,0.004330,-0.026380,0.008660*
%
%AMM364*
21,1,0.023620,0.018900,-0.000000,0.000000,0.000000*
21,1,0.018900,0.023620,-0.000000,0.000000,0.000000*
1,1,0.004720,0.009450,-0.009450*
1,1,0.004720,-0.009450,-0.009450*
1,1,0.004720,-0.009450,0.009450*
1,1,0.004720,0.009450,0.009450*
%
%AMM365*
21,1,0.094490,0.111020,-0.000000,0.000000,270.000000*
21,1,0.075590,0.129920,-0.000000,0.000000,270.000000*
1,1,0.018900,-0.055510,-0.037800*
1,1,0.018900,-0.055510,0.037800*
1,1,0.018900,0.055510,0.037800*
1,1,0.018900,0.055510,-0.037800*
%
%AMM366*
21,1,0.023620,0.018900,-0.000000,0.000000,270.000000*
21,1,0.018900,0.023620,-0.000000,0.000000,270.000000*
1,1,0.004720,-0.009450,-0.009450*
1,1,0.004720,-0.009450,0.009450*
1,1,0.004720,0.009450,0.009450*
1,1,0.004720,0.009450,-0.009450*
%
%AMM367*
21,1,0.033470,0.026770,-0.000000,0.000000,180.000000*
21,1,0.026770,0.033470,-0.000000,0.000000,180.000000*
1,1,0.006690,-0.013390,0.013390*
1,1,0.006690,0.013390,0.013390*
1,1,0.006690,0.013390,-0.013390*
1,1,0.006690,-0.013390,-0.013390*
%
%AMM374*
21,1,0.106300,0.050390,-0.000000,0.000000,90.000000*
21,1,0.093700,0.062990,-0.000000,0.000000,90.000000*
1,1,0.012600,0.025200,0.046850*
1,1,0.012600,0.025200,-0.046850*
1,1,0.012600,-0.025200,-0.046850*
1,1,0.012600,-0.025200,0.046850*
%
%AMM375*
21,1,0.074800,0.083460,-0.000000,0.000000,270.000000*
21,1,0.059840,0.098430,-0.000000,0.000000,270.000000*
1,1,0.014960,-0.041730,-0.029920*
1,1,0.014960,-0.041730,0.029920*
1,1,0.014960,0.041730,0.029920*
1,1,0.014960,0.041730,-0.029920*
%
%AMM376*
21,1,0.078740,0.053540,-0.000000,0.000000,270.000000*
21,1,0.065350,0.066930,-0.000000,0.000000,270.000000*
1,1,0.013390,-0.026770,-0.032680*
1,1,0.013390,-0.026770,0.032680*
1,1,0.013390,0.026770,0.032680*
1,1,0.013390,0.026770,-0.032680*
%
%AMM377*
21,1,0.122050,0.075590,-0.000000,0.000000,0.000000*
21,1,0.103150,0.094490,-0.000000,0.000000,0.000000*
1,1,0.018900,0.051580,-0.037800*
1,1,0.018900,-0.051580,-0.037800*
1,1,0.018900,-0.051580,0.037800*
1,1,0.018900,0.051580,0.037800*
%
%AMM378*
21,1,0.086610,0.073230,-0.000000,0.000000,180.000000*
21,1,0.069290,0.090550,-0.000000,0.000000,180.000000*
1,1,0.017320,-0.034650,0.036610*
1,1,0.017320,0.034650,0.036610*
1,1,0.017320,0.034650,-0.036610*
1,1,0.017320,-0.034650,-0.036610*
%
%AMM379*
21,1,0.070870,0.036220,-0.000000,0.000000,270.000000*
21,1,0.061810,0.045280,-0.000000,0.000000,270.000000*
1,1,0.009060,-0.018110,-0.030910*
1,1,0.009060,-0.018110,0.030910*
1,1,0.009060,0.018110,0.030910*
1,1,0.009060,0.018110,-0.030910*
%
%AMM78*
21,1,0.078740,0.045670,0.000000,0.000000,270.000000*
21,1,0.067320,0.057090,0.000000,0.000000,270.000000*
1,1,0.011420,-0.022840,-0.033660*
1,1,0.011420,-0.022840,0.033660*
1,1,0.011420,0.022840,0.033660*
1,1,0.011420,0.022840,-0.033660*
%
%AMM79*
21,1,0.059060,0.020470,0.000000,0.000000,270.000000*
21,1,0.053940,0.025590,0.000000,0.000000,270.000000*
1,1,0.005120,-0.010240,-0.026970*
1,1,0.005120,-0.010240,0.026970*
1,1,0.005120,0.010240,0.026970*
1,1,0.005120,0.010240,-0.026970*
%
%AMM80*
21,1,0.033470,0.026770,0.000000,0.000000,90.000000*
21,1,0.026770,0.033470,0.000000,0.000000,90.000000*
1,1,0.006690,0.013390,0.013390*
1,1,0.006690,0.013390,-0.013390*
1,1,0.006690,-0.013390,-0.013390*
1,1,0.006690,-0.013390,0.013390*
%
%ADD11O,0.05118X0.00866*%
%ADD112R,0.03150X0.03543*%
%ADD116O,0.00866X0.05118*%
%ADD133C,0.02362*%
%ADD140R,0.01476X0.01378*%
%ADD152M31*%
%ADD158R,0.45000X0.30000*%
%ADD162R,0.03543X0.03150*%
%ADD168R,0.10236X0.14173*%
%ADD182R,0.03150X0.08661*%
%ADD224M78*%
%ADD226O,0.00000X0.00000*%
%ADD250C,0.03150*%
%ADD269O,0.04961X0.00984*%
%ADD271R,0.06693X0.09449*%
%ADD283O,0.04331X0.01181*%
%ADD287M80*%
%ADD314O,0.02362X0.08661*%
%ADD328M79*%
%ADD329R,0.08000X0.20000*%
%ADD365M147*%
%ADD368M150*%
%ADD372M154*%
%ADD375M157*%
%ADD377M159*%
%ADD394M176*%
%ADD395M177*%
%ADD396M178*%
%ADD398M180*%
%ADD399M181*%
%ADD400M182*%
%ADD401M183*%
%ADD402M184*%
%ADD403M185*%
%ADD404M186*%
%ADD406M188*%
%ADD428M206*%
%ADD429M207*%
%ADD438M216*%
%ADD44R,0.05906X0.05118*%
%ADD487M259*%
%ADD490M262*%
%ADD491M263*%
%ADD492M264*%
%ADD493M265*%
%ADD496M268*%
%ADD497M269*%
%ADD499M271*%
%ADD500M272*%
%ADD501M273*%
%ADD502M274*%
%ADD503M275*%
%ADD504M276*%
%ADD505M277*%
%ADD532M298*%
%ADD539M301*%
%ADD541M303*%
%ADD544M306*%
%ADD545M307*%
%ADD561M318*%
%ADD564M321*%
%ADD565M322*%
%ADD566M323*%
%ADD567M324*%
%ADD568M325*%
%ADD569M326*%
%ADD571M328*%
%ADD580M337*%
%ADD589O,0.11221X0.04016*%
%ADD591M347*%
%ADD596M351*%
%ADD597M352*%
%ADD598M353*%
%ADD604M359*%
%ADD606M361*%
%ADD608M363*%
%ADD609M364*%
%ADD610M365*%
%ADD611M366*%
%ADD612M367*%
%ADD623M374*%
%ADD624M375*%
%ADD625O,0.01968X0.08661*%
%ADD626M376*%
%ADD627M377*%
%ADD628M378*%
%ADD629M379*%
%ADD641R,0.08661X0.04724*%
%ADD642R,0.01772X0.05709*%
%ADD643R,0.02559X0.04803*%
%ADD645R,0.12008X0.10827*%
%ADD74R,0.01378X0.01476*%
%ADD89O,0.08661X0.02362*%
%ADD92O,0.03937X0.01968*%
X0000000Y0000000D02*
%LPD*%
G01*
G36*
G01*
X0195282Y0481281D02*
X0195282Y0478210D01*
G75*
G02*
X0195007Y0477934I-000276J0000000D01*
G01*
X0192802Y0477934D01*
G75*
G02*
X0192526Y0478210I0000000J0000276D01*
G01*
X0192526Y0481281D01*
G75*
G02*
X0192802Y0481556I0000276J0000000D01*
G01*
X0195007Y0481556D01*
G75*
G02*
X0195282Y0481281I0000000J-000276D01*
G01*
G37*
G36*
G01*
X0201581Y0481281D02*
X0201581Y0478210D01*
G75*
G02*
X0201306Y0477934I-000276J0000000D01*
G01*
X0199101Y0477934D01*
G75*
G02*
X0198826Y0478210I0000000J0000276D01*
G01*
X0198826Y0481281D01*
G75*
G02*
X0199101Y0481556I0000276J0000000D01*
G01*
X0201306Y0481556D01*
G75*
G02*
X0201581Y0481281I0000000J-000276D01*
G01*
G37*
G36*
G01*
X0201739Y0485513D02*
X0201739Y0482836D01*
G75*
G02*
X0201404Y0482501I-000335J0000000D01*
G01*
X0198727Y0482501D01*
G75*
G02*
X0198392Y0482836I0000000J0000335D01*
G01*
X0198392Y0485513D01*
G75*
G02*
X0198727Y0485848I0000335J0000000D01*
G01*
X0201404Y0485848D01*
G75*
G02*
X0201739Y0485513I0000000J-000335D01*
G01*
G37*
G36*
G01*
X0195518Y0485513D02*
X0195518Y0482836D01*
G75*
G02*
X0195184Y0482501I-000335J0000000D01*
G01*
X0192507Y0482501D01*
G75*
G02*
X0192172Y0482836I0000000J0000335D01*
G01*
X0192172Y0485513D01*
G75*
G02*
X0192507Y0485848I0000335J0000000D01*
G01*
X0195184Y0485848D01*
G75*
G02*
X0195518Y0485513I0000000J-000335D01*
G01*
G37*
D226*
X0354207Y0023012D03*
X0323695Y0076358D03*
X0326727Y0017992D03*
G36*
G01*
X0504232Y0476575D02*
X0499311Y0476575D01*
G75*
G02*
X0498917Y0476969I0000000J0000394D01*
G01*
X0498917Y0480118D01*
G75*
G02*
X0499311Y0480512I0000394J0000000D01*
G01*
X0504232Y0480512D01*
G75*
G02*
X0504626Y0480118I0000000J-000394D01*
G01*
X0504626Y0476969D01*
G75*
G02*
X0504232Y0476575I-000394J0000000D01*
G01*
G37*
G36*
G01*
X0504232Y0484055D02*
X0499311Y0484055D01*
G75*
G02*
X0498917Y0484449I0000000J0000394D01*
G01*
X0498917Y0487599D01*
G75*
G02*
X0499311Y0487992I0000394J0000000D01*
G01*
X0504232Y0487992D01*
G75*
G02*
X0504626Y0487599I0000000J-000394D01*
G01*
X0504626Y0484449D01*
G75*
G02*
X0504232Y0484055I-000394J0000000D01*
G01*
G37*
G36*
G01*
X0191533Y0505041D02*
X0186612Y0505041D01*
G75*
G02*
X0186218Y0505434I0000000J0000394D01*
G01*
X0186218Y0508584D01*
G75*
G02*
X0186612Y0508978I0000394J0000000D01*
G01*
X0191533Y0508978D01*
G75*
G02*
X0191927Y0508584I0000000J-000394D01*
G01*
X0191927Y0505434D01*
G75*
G02*
X0191533Y0505041I-000394J0000000D01*
G01*
G37*
G36*
G01*
X0191533Y0512521D02*
X0186612Y0512521D01*
G75*
G02*
X0186218Y0512915I0000000J0000394D01*
G01*
X0186218Y0516064D01*
G75*
G02*
X0186612Y0516458I0000394J0000000D01*
G01*
X0191533Y0516458D01*
G75*
G02*
X0191927Y0516064I0000000J-000394D01*
G01*
X0191927Y0512915D01*
G75*
G02*
X0191533Y0512521I-000394J0000000D01*
G01*
G37*
G36*
G01*
X0097283Y0343159D02*
X0100354Y0343159D01*
G75*
G02*
X0100630Y0342884I0000000J-000276D01*
G01*
X0100630Y0340679D01*
G75*
G02*
X0100354Y0340404I-000276J0000000D01*
G01*
X0097283Y0340404D01*
G75*
G02*
X0097008Y0340679I0000000J0000276D01*
G01*
X0097008Y0342884D01*
G75*
G02*
X0097283Y0343159I0000276J0000000D01*
G01*
G37*
G36*
G01*
X0097283Y0336860D02*
X0100354Y0336860D01*
G75*
G02*
X0100630Y0336585I0000000J-000276D01*
G01*
X0100630Y0334380D01*
G75*
G02*
X0100354Y0334104I-000276J0000000D01*
G01*
X0097283Y0334104D01*
G75*
G02*
X0097008Y0334380I0000000J0000276D01*
G01*
X0097008Y0336585D01*
G75*
G02*
X0097283Y0336860I0000276J0000000D01*
G01*
G37*
G36*
G01*
X0445479Y0430671D02*
X0445479Y0433741D01*
G75*
G02*
X0445755Y0434017I0000276J0000000D01*
G01*
X0447959Y0434017D01*
G75*
G02*
X0448235Y0433741I0000000J-000276D01*
G01*
X0448235Y0430671D01*
G75*
G02*
X0447959Y0430395I-000276J0000000D01*
G01*
X0445755Y0430395D01*
G75*
G02*
X0445479Y0430671I0000000J0000276D01*
G01*
G37*
G36*
G01*
X0451778Y0430671D02*
X0451778Y0433741D01*
G75*
G02*
X0452054Y0434017I0000276J0000000D01*
G01*
X0454259Y0434017D01*
G75*
G02*
X0454534Y0433741I0000000J-000276D01*
G01*
X0454534Y0430671D01*
G75*
G02*
X0454259Y0430395I-000276J0000000D01*
G01*
X0452054Y0430395D01*
G75*
G02*
X0451778Y0430671I0000000J0000276D01*
G01*
G37*
G36*
G01*
X0242507Y0102226D02*
X0242507Y0104903D01*
G75*
G02*
X0242841Y0105238I0000335J0000000D01*
G01*
X0245518Y0105238D01*
G75*
G02*
X0245853Y0104903I0000000J-000335D01*
G01*
X0245853Y0102226D01*
G75*
G02*
X0245518Y0101891I-000335J0000000D01*
G01*
X0242841Y0101891D01*
G75*
G02*
X0242507Y0102226I0000000J0000335D01*
G01*
G37*
G36*
G01*
X0248727Y0102226D02*
X0248727Y0104903D01*
G75*
G02*
X0249062Y0105238I0000335J0000000D01*
G01*
X0251739Y0105238D01*
G75*
G02*
X0252074Y0104903I0000000J-000335D01*
G01*
X0252074Y0102226D01*
G75*
G02*
X0251739Y0101891I-000335J0000000D01*
G01*
X0249062Y0101891D01*
G75*
G02*
X0248727Y0102226I0000000J0000335D01*
G01*
G37*
G36*
G01*
X0173333Y0388545D02*
X0173333Y0391616D01*
G75*
G02*
X0173609Y0391891I0000276J0000000D01*
G01*
X0175814Y0391891D01*
G75*
G02*
X0176089Y0391616I0000000J-000276D01*
G01*
X0176089Y0388545D01*
G75*
G02*
X0175814Y0388269I-000276J0000000D01*
G01*
X0173609Y0388269D01*
G75*
G02*
X0173333Y0388545I0000000J0000276D01*
G01*
G37*
G36*
G01*
X0179633Y0388545D02*
X0179633Y0391616D01*
G75*
G02*
X0179908Y0391891I0000276J0000000D01*
G01*
X0182113Y0391891D01*
G75*
G02*
X0182389Y0391616I0000000J-000276D01*
G01*
X0182389Y0388545D01*
G75*
G02*
X0182113Y0388269I-000276J0000000D01*
G01*
X0179908Y0388269D01*
G75*
G02*
X0179633Y0388545I0000000J0000276D01*
G01*
G37*
G36*
G01*
X0222448Y0504942D02*
X0217526Y0504942D01*
G75*
G02*
X0217133Y0505336I0000000J0000394D01*
G01*
X0217133Y0508486D01*
G75*
G02*
X0217526Y0508879I0000394J0000000D01*
G01*
X0222448Y0508879D01*
G75*
G02*
X0222841Y0508486I0000000J-000394D01*
G01*
X0222841Y0505336D01*
G75*
G02*
X0222448Y0504942I-000394J0000000D01*
G01*
G37*
G36*
G01*
X0222448Y0512423D02*
X0217526Y0512423D01*
G75*
G02*
X0217133Y0512816I0000000J0000394D01*
G01*
X0217133Y0515966D01*
G75*
G02*
X0217526Y0516360I0000394J0000000D01*
G01*
X0222448Y0516360D01*
G75*
G02*
X0222841Y0515966I0000000J-000394D01*
G01*
X0222841Y0512816D01*
G75*
G02*
X0222448Y0512423I-000394J0000000D01*
G01*
G37*
X0225374Y0268983D03*
G36*
G01*
X0126089Y0505041D02*
X0121168Y0505041D01*
G75*
G02*
X0120774Y0505434I0000000J0000394D01*
G01*
X0120774Y0508584D01*
G75*
G02*
X0121168Y0508978I0000394J0000000D01*
G01*
X0126089Y0508978D01*
G75*
G02*
X0126483Y0508584I0000000J-000394D01*
G01*
X0126483Y0505434D01*
G75*
G02*
X0126089Y0505041I-000394J0000000D01*
G01*
G37*
G36*
G01*
X0126089Y0512521D02*
X0121168Y0512521D01*
G75*
G02*
X0120774Y0512915I0000000J0000394D01*
G01*
X0120774Y0516064D01*
G75*
G02*
X0121168Y0516458I0000394J0000000D01*
G01*
X0126089Y0516458D01*
G75*
G02*
X0126483Y0516064I0000000J-000394D01*
G01*
X0126483Y0512915D01*
G75*
G02*
X0126089Y0512521I-000394J0000000D01*
G01*
G37*
G36*
G01*
X0267347Y0025001D02*
X0267347Y0020119D01*
G75*
G02*
X0266835Y0019608I-000512J0000000D01*
G01*
X0262740Y0019608D01*
G75*
G02*
X0262228Y0020119I0000000J0000512D01*
G01*
X0262228Y0025001D01*
G75*
G02*
X0262740Y0025513I0000512J0000000D01*
G01*
X0266835Y0025513D01*
G75*
G02*
X0267347Y0025001I0000000J-000512D01*
G01*
G37*
G36*
G01*
X0274827Y0025001D02*
X0274827Y0020119D01*
G75*
G02*
X0274315Y0019608I-000512J0000000D01*
G01*
X0270221Y0019608D01*
G75*
G02*
X0269709Y0020119I0000000J0000512D01*
G01*
X0269709Y0025001D01*
G75*
G02*
X0270221Y0025513I0000512J0000000D01*
G01*
X0274315Y0025513D01*
G75*
G02*
X0274827Y0025001I0000000J-000512D01*
G01*
G37*
G36*
G01*
X0447644Y0502186D02*
X0442723Y0502186D01*
G75*
G02*
X0442329Y0502580I0000000J0000394D01*
G01*
X0442329Y0505730D01*
G75*
G02*
X0442723Y0506123I0000394J0000000D01*
G01*
X0447644Y0506123D01*
G75*
G02*
X0448038Y0505730I0000000J-000394D01*
G01*
X0448038Y0502580D01*
G75*
G02*
X0447644Y0502186I-000394J0000000D01*
G01*
G37*
G36*
G01*
X0447644Y0509667D02*
X0442723Y0509667D01*
G75*
G02*
X0442329Y0510060I0000000J0000394D01*
G01*
X0442329Y0513210D01*
G75*
G02*
X0442723Y0513604I0000394J0000000D01*
G01*
X0447644Y0513604D01*
G75*
G02*
X0448038Y0513210I0000000J-000394D01*
G01*
X0448038Y0510060D01*
G75*
G02*
X0447644Y0509667I-000394J0000000D01*
G01*
G37*
G36*
G01*
X0245716Y0312977D02*
X0245716Y0311087D01*
G75*
G02*
X0245480Y0310851I-000236J0000000D01*
G01*
X0243590Y0310851D01*
G75*
G02*
X0243354Y0311087I0000000J0000236D01*
G01*
X0243354Y0312977D01*
G75*
G02*
X0243590Y0313213I0000236J0000000D01*
G01*
X0245480Y0313213D01*
G75*
G02*
X0245716Y0312977I0000000J-000236D01*
G01*
G37*
G36*
G01*
X0245716Y0304315D02*
X0245716Y0302426D01*
G75*
G02*
X0245480Y0302189I-000236J0000000D01*
G01*
X0243590Y0302189D01*
G75*
G02*
X0243354Y0302426I0000000J0000236D01*
G01*
X0243354Y0304315D01*
G75*
G02*
X0243590Y0304552I0000236J0000000D01*
G01*
X0245480Y0304552D01*
G75*
G02*
X0245716Y0304315I0000000J-000236D01*
G01*
G37*
G36*
G01*
X0136969Y0474515D02*
X0139646Y0474515D01*
G75*
G02*
X0139981Y0474180I0000000J-000335D01*
G01*
X0139981Y0471503D01*
G75*
G02*
X0139646Y0471168I-000335J0000000D01*
G01*
X0136969Y0471168D01*
G75*
G02*
X0136635Y0471503I0000000J0000335D01*
G01*
X0136635Y0474180D01*
G75*
G02*
X0136969Y0474515I0000335J0000000D01*
G01*
G37*
G36*
G01*
X0136969Y0468294D02*
X0139646Y0468294D01*
G75*
G02*
X0139981Y0467960I0000000J-000335D01*
G01*
X0139981Y0465283D01*
G75*
G02*
X0139646Y0464948I-000335J0000000D01*
G01*
X0136969Y0464948D01*
G75*
G02*
X0136635Y0465283I0000000J0000335D01*
G01*
X0136635Y0467960D01*
G75*
G02*
X0136969Y0468294I0000335J0000000D01*
G01*
G37*
G36*
G01*
X0260676Y0090336D02*
X0263353Y0090336D01*
G75*
G02*
X0263688Y0090001I0000000J-000335D01*
G01*
X0263688Y0087324D01*
G75*
G02*
X0263353Y0086990I-000335J0000000D01*
G01*
X0260676Y0086990D01*
G75*
G02*
X0260341Y0087324I0000000J0000335D01*
G01*
X0260341Y0090001D01*
G75*
G02*
X0260676Y0090336I0000335J0000000D01*
G01*
G37*
G36*
G01*
X0260676Y0084116D02*
X0263353Y0084116D01*
G75*
G02*
X0263688Y0083781I0000000J-000335D01*
G01*
X0263688Y0081104D01*
G75*
G02*
X0263353Y0080769I-000335J0000000D01*
G01*
X0260676Y0080769D01*
G75*
G02*
X0260341Y0081104I0000000J0000335D01*
G01*
X0260341Y0083781D01*
G75*
G02*
X0260676Y0084116I0000335J0000000D01*
G01*
G37*
G36*
G01*
X0249140Y0083486D02*
X0256385Y0083486D01*
G75*
G02*
X0256700Y0083171I0000000J-000315D01*
G01*
X0256700Y0080651D01*
G75*
G02*
X0256385Y0080336I-000315J0000000D01*
G01*
X0249140Y0080336D01*
G75*
G02*
X0248826Y0080651I0000000J0000315D01*
G01*
X0248826Y0083171D01*
G75*
G02*
X0249140Y0083486I0000315J0000000D01*
G01*
G37*
G36*
G01*
X0249140Y0066950D02*
X0256385Y0066950D01*
G75*
G02*
X0256700Y0066635I0000000J-000315D01*
G01*
X0256700Y0064116D01*
G75*
G02*
X0256385Y0063801I-000315J0000000D01*
G01*
X0249140Y0063801D01*
G75*
G02*
X0248826Y0064116I0000000J0000315D01*
G01*
X0248826Y0066635D01*
G75*
G02*
X0249140Y0066950I0000315J0000000D01*
G01*
G37*
G36*
G01*
X0282724Y0313213D02*
X0286267Y0313213D01*
G75*
G02*
X0286661Y0312819I0000000J-000394D01*
G01*
X0286661Y0309670D01*
G75*
G02*
X0286267Y0309276I-000394J0000000D01*
G01*
X0282724Y0309276D01*
G75*
G02*
X0282330Y0309670I0000000J0000394D01*
G01*
X0282330Y0312819D01*
G75*
G02*
X0282724Y0313213I0000394J0000000D01*
G01*
G37*
G36*
G01*
X0282724Y0306520D02*
X0286267Y0306520D01*
G75*
G02*
X0286661Y0306126I0000000J-000394D01*
G01*
X0286661Y0302977D01*
G75*
G02*
X0286267Y0302583I-000394J0000000D01*
G01*
X0282724Y0302583D01*
G75*
G02*
X0282330Y0302977I0000000J0000394D01*
G01*
X0282330Y0306126D01*
G75*
G02*
X0282724Y0306520I0000394J0000000D01*
G01*
G37*
G36*
G01*
X0518924Y0332856D02*
X0518924Y0330179D01*
G75*
G02*
X0518589Y0329844I-000335J0000000D01*
G01*
X0515912Y0329844D01*
G75*
G02*
X0515577Y0330179I0000000J0000335D01*
G01*
X0515577Y0332856D01*
G75*
G02*
X0515912Y0333190I0000335J0000000D01*
G01*
X0518589Y0333190D01*
G75*
G02*
X0518924Y0332856I0000000J-000335D01*
G01*
G37*
G36*
G01*
X0512703Y0332856D02*
X0512703Y0330179D01*
G75*
G02*
X0512369Y0329844I-000335J0000000D01*
G01*
X0509692Y0329844D01*
G75*
G02*
X0509357Y0330179I0000000J0000335D01*
G01*
X0509357Y0332856D01*
G75*
G02*
X0509692Y0333190I0000335J0000000D01*
G01*
X0512369Y0333190D01*
G75*
G02*
X0512703Y0332856I0000000J-000335D01*
G01*
G37*
G36*
G01*
X0447841Y0476399D02*
X0442920Y0476399D01*
G75*
G02*
X0442526Y0476793I0000000J0000394D01*
G01*
X0442526Y0479942D01*
G75*
G02*
X0442920Y0480336I0000394J0000000D01*
G01*
X0447841Y0480336D01*
G75*
G02*
X0448235Y0479942I0000000J-000394D01*
G01*
X0448235Y0476793D01*
G75*
G02*
X0447841Y0476399I-000394J0000000D01*
G01*
G37*
G36*
G01*
X0447841Y0483879D02*
X0442920Y0483879D01*
G75*
G02*
X0442526Y0484273I0000000J0000394D01*
G01*
X0442526Y0487423D01*
G75*
G02*
X0442920Y0487816I0000394J0000000D01*
G01*
X0447841Y0487816D01*
G75*
G02*
X0448235Y0487423I0000000J-000394D01*
G01*
X0448235Y0484273D01*
G75*
G02*
X0447841Y0483879I-000394J0000000D01*
G01*
G37*
G36*
G01*
X0220459Y0303997D02*
X0220459Y0299982D01*
G75*
G02*
X0220105Y0299627I-000354J0000000D01*
G01*
X0217270Y0299627D01*
G75*
G02*
X0216916Y0299982I0000000J0000354D01*
G01*
X0216916Y0303997D01*
G75*
G02*
X0217270Y0304352I0000354J0000000D01*
G01*
X0220105Y0304352D01*
G75*
G02*
X0220459Y0303997I0000000J-000354D01*
G01*
G37*
G36*
G01*
X0207467Y0303997D02*
X0207467Y0299982D01*
G75*
G02*
X0207113Y0299627I-000354J0000000D01*
G01*
X0204278Y0299627D01*
G75*
G02*
X0203924Y0299982I0000000J0000354D01*
G01*
X0203924Y0303997D01*
G75*
G02*
X0204278Y0304352I0000354J0000000D01*
G01*
X0207113Y0304352D01*
G75*
G02*
X0207467Y0303997I0000000J-000354D01*
G01*
G37*
G36*
G01*
X0174514Y0505041D02*
X0169593Y0505041D01*
G75*
G02*
X0169200Y0505434I0000000J0000394D01*
G01*
X0169200Y0508584D01*
G75*
G02*
X0169593Y0508978I0000394J0000000D01*
G01*
X0174514Y0508978D01*
G75*
G02*
X0174908Y0508584I0000000J-000394D01*
G01*
X0174908Y0505434D01*
G75*
G02*
X0174514Y0505041I-000394J0000000D01*
G01*
G37*
G36*
G01*
X0174514Y0512521D02*
X0169593Y0512521D01*
G75*
G02*
X0169200Y0512915I0000000J0000394D01*
G01*
X0169200Y0516064D01*
G75*
G02*
X0169593Y0516458I0000394J0000000D01*
G01*
X0174514Y0516458D01*
G75*
G02*
X0174908Y0516064I0000000J-000394D01*
G01*
X0174908Y0512915D01*
G75*
G02*
X0174514Y0512521I-000394J0000000D01*
G01*
G37*
G36*
G01*
X0292124Y0312971D02*
X0292124Y0311081D01*
G75*
G02*
X0291887Y0310845I-000236J0000000D01*
G01*
X0289998Y0310845D01*
G75*
G02*
X0289761Y0311081I0000000J0000236D01*
G01*
X0289761Y0312971D01*
G75*
G02*
X0289998Y0313207I0000236J0000000D01*
G01*
X0291887Y0313207D01*
G75*
G02*
X0292124Y0312971I0000000J-000236D01*
G01*
G37*
G36*
G01*
X0292124Y0304309D02*
X0292124Y0302420D01*
G75*
G02*
X0291887Y0302183I-000236J0000000D01*
G01*
X0289998Y0302183D01*
G75*
G02*
X0289761Y0302420I0000000J0000236D01*
G01*
X0289761Y0304309D01*
G75*
G02*
X0289998Y0304546I0000236J0000000D01*
G01*
X0291887Y0304546D01*
G75*
G02*
X0292124Y0304309I0000000J-000236D01*
G01*
G37*
G36*
G01*
X0055182Y0497084D02*
X0050261Y0497084D01*
G75*
G02*
X0049867Y0497478I0000000J0000394D01*
G01*
X0049867Y0500628D01*
G75*
G02*
X0050261Y0501021I0000394J0000000D01*
G01*
X0055182Y0501021D01*
G75*
G02*
X0055576Y0500628I0000000J-000394D01*
G01*
X0055576Y0497478D01*
G75*
G02*
X0055182Y0497084I-000394J0000000D01*
G01*
G37*
G36*
G01*
X0055182Y0504565D02*
X0050261Y0504565D01*
G75*
G02*
X0049867Y0504959I0000000J0000394D01*
G01*
X0049867Y0508108D01*
G75*
G02*
X0050261Y0508502I0000394J0000000D01*
G01*
X0055182Y0508502D01*
G75*
G02*
X0055576Y0508108I0000000J-000394D01*
G01*
X0055576Y0504959D01*
G75*
G02*
X0055182Y0504565I-000394J0000000D01*
G01*
G37*
G36*
G01*
X0153501Y0363952D02*
X0153501Y0362062D01*
G75*
G02*
X0153264Y0361826I-000236J0000000D01*
G01*
X0151375Y0361826D01*
G75*
G02*
X0151138Y0362062I0000000J0000236D01*
G01*
X0151138Y0363952D01*
G75*
G02*
X0151375Y0364188I0000236J0000000D01*
G01*
X0153264Y0364188D01*
G75*
G02*
X0153501Y0363952I0000000J-000236D01*
G01*
G37*
G36*
G01*
X0153501Y0355291D02*
X0153501Y0353401D01*
G75*
G02*
X0153264Y0353165I-000236J0000000D01*
G01*
X0151375Y0353165D01*
G75*
G02*
X0151138Y0353401I0000000J0000236D01*
G01*
X0151138Y0355291D01*
G75*
G02*
X0151375Y0355527I0000236J0000000D01*
G01*
X0153264Y0355527D01*
G75*
G02*
X0153501Y0355291I0000000J-000236D01*
G01*
G37*
G36*
G01*
X0114154Y0355167D02*
X0109272Y0355167D01*
G75*
G02*
X0108760Y0355679I0000000J0000512D01*
G01*
X0108760Y0359774D01*
G75*
G02*
X0109272Y0360286I0000512J0000000D01*
G01*
X0114154Y0360286D01*
G75*
G02*
X0114665Y0359774I0000000J-000512D01*
G01*
X0114665Y0355679D01*
G75*
G02*
X0114154Y0355167I-000512J0000000D01*
G01*
G37*
G36*
G01*
X0114154Y0347687D02*
X0109272Y0347687D01*
G75*
G02*
X0108760Y0348199I0000000J0000512D01*
G01*
X0108760Y0352293D01*
G75*
G02*
X0109272Y0352805I0000512J0000000D01*
G01*
X0114154Y0352805D01*
G75*
G02*
X0114665Y0352293I0000000J-000512D01*
G01*
X0114665Y0348199D01*
G75*
G02*
X0114154Y0347687I-000512J0000000D01*
G01*
G37*
G36*
G01*
X0155617Y0396970D02*
X0159751Y0396970D01*
G75*
G02*
X0160144Y0396576I0000000J-000394D01*
G01*
X0160144Y0393427D01*
G75*
G02*
X0159751Y0393033I-000394J0000000D01*
G01*
X0155617Y0393033D01*
G75*
G02*
X0155223Y0393427I0000000J0000394D01*
G01*
X0155223Y0396576D01*
G75*
G02*
X0155617Y0396970I0000394J0000000D01*
G01*
G37*
G36*
G01*
X0155617Y0389096D02*
X0159751Y0389096D01*
G75*
G02*
X0160144Y0388702I0000000J-000394D01*
G01*
X0160144Y0385553D01*
G75*
G02*
X0159751Y0385159I-000394J0000000D01*
G01*
X0155617Y0385159D01*
G75*
G02*
X0155223Y0385553I0000000J0000394D01*
G01*
X0155223Y0388702D01*
G75*
G02*
X0155617Y0389096I0000394J0000000D01*
G01*
G37*
G36*
G01*
X0346503Y0517147D02*
X0349574Y0517147D01*
G75*
G02*
X0349849Y0516871I0000000J-000276D01*
G01*
X0349849Y0514667D01*
G75*
G02*
X0349574Y0514391I-000276J0000000D01*
G01*
X0346503Y0514391D01*
G75*
G02*
X0346227Y0514667I0000000J0000276D01*
G01*
X0346227Y0516871D01*
G75*
G02*
X0346503Y0517147I0000276J0000000D01*
G01*
G37*
G36*
G01*
X0346503Y0510848D02*
X0349574Y0510848D01*
G75*
G02*
X0349849Y0510572I0000000J-000276D01*
G01*
X0349849Y0508367D01*
G75*
G02*
X0349574Y0508092I-000276J0000000D01*
G01*
X0346503Y0508092D01*
G75*
G02*
X0346227Y0508367I0000000J0000276D01*
G01*
X0346227Y0510572D01*
G75*
G02*
X0346503Y0510848I0000276J0000000D01*
G01*
G37*
G36*
G01*
X0274063Y0328705D02*
X0274063Y0326067D01*
G75*
G02*
X0273807Y0325811I-000256J0000000D01*
G01*
X0271759Y0325811D01*
G75*
G02*
X0271504Y0326067I0000000J0000256D01*
G01*
X0271504Y0328705D01*
G75*
G02*
X0271759Y0328961I0000256J0000000D01*
G01*
X0273807Y0328961D01*
G75*
G02*
X0274063Y0328705I0000000J-000256D01*
G01*
G37*
G36*
G01*
X0270224Y0328784D02*
X0270224Y0325989D01*
G75*
G02*
X0270047Y0325811I-000177J0000000D01*
G01*
X0268629Y0325811D01*
G75*
G02*
X0268452Y0325989I0000000J0000177D01*
G01*
X0268452Y0328784D01*
G75*
G02*
X0268629Y0328961I0000177J0000000D01*
G01*
X0270047Y0328961D01*
G75*
G02*
X0270224Y0328784I0000000J-000177D01*
G01*
G37*
G36*
G01*
X0267074Y0328784D02*
X0267074Y0325989D01*
G75*
G02*
X0266897Y0325811I-000177J0000000D01*
G01*
X0265480Y0325811D01*
G75*
G02*
X0265303Y0325989I0000000J0000177D01*
G01*
X0265303Y0328784D01*
G75*
G02*
X0265480Y0328961I0000177J0000000D01*
G01*
X0266897Y0328961D01*
G75*
G02*
X0267074Y0328784I0000000J-000177D01*
G01*
G37*
G36*
G01*
X0264023Y0328705D02*
X0264023Y0326067D01*
G75*
G02*
X0263767Y0325811I-000256J0000000D01*
G01*
X0261720Y0325811D01*
G75*
G02*
X0261464Y0326067I0000000J0000256D01*
G01*
X0261464Y0328705D01*
G75*
G02*
X0261720Y0328961I0000256J0000000D01*
G01*
X0263767Y0328961D01*
G75*
G02*
X0264023Y0328705I0000000J-000256D01*
G01*
G37*
G36*
G01*
X0264023Y0321618D02*
X0264023Y0318981D01*
G75*
G02*
X0263767Y0318725I-000256J0000000D01*
G01*
X0261720Y0318725D01*
G75*
G02*
X0261464Y0318981I0000000J0000256D01*
G01*
X0261464Y0321618D01*
G75*
G02*
X0261720Y0321874I0000256J0000000D01*
G01*
X0263767Y0321874D01*
G75*
G02*
X0264023Y0321618I0000000J-000256D01*
G01*
G37*
G36*
G01*
X0267074Y0321697D02*
X0267074Y0318902D01*
G75*
G02*
X0266897Y0318725I-000177J0000000D01*
G01*
X0265480Y0318725D01*
G75*
G02*
X0265303Y0318902I0000000J0000177D01*
G01*
X0265303Y0321697D01*
G75*
G02*
X0265480Y0321874I0000177J0000000D01*
G01*
X0266897Y0321874D01*
G75*
G02*
X0267074Y0321697I0000000J-000177D01*
G01*
G37*
G36*
G01*
X0270224Y0321697D02*
X0270224Y0318902D01*
G75*
G02*
X0270047Y0318725I-000177J0000000D01*
G01*
X0268629Y0318725D01*
G75*
G02*
X0268452Y0318902I0000000J0000177D01*
G01*
X0268452Y0321697D01*
G75*
G02*
X0268629Y0321874I0000177J0000000D01*
G01*
X0270047Y0321874D01*
G75*
G02*
X0270224Y0321697I0000000J-000177D01*
G01*
G37*
G36*
G01*
X0274063Y0321618D02*
X0274063Y0318981D01*
G75*
G02*
X0273807Y0318725I-000256J0000000D01*
G01*
X0271759Y0318725D01*
G75*
G02*
X0271504Y0318981I0000000J0000256D01*
G01*
X0271504Y0321618D01*
G75*
G02*
X0271759Y0321874I0000256J0000000D01*
G01*
X0273807Y0321874D01*
G75*
G02*
X0274063Y0321618I0000000J-000256D01*
G01*
G37*
G36*
G01*
X0212802Y0505041D02*
X0207881Y0505041D01*
G75*
G02*
X0207487Y0505434I0000000J0000394D01*
G01*
X0207487Y0508584D01*
G75*
G02*
X0207881Y0508978I0000394J0000000D01*
G01*
X0212802Y0508978D01*
G75*
G02*
X0213196Y0508584I0000000J-000394D01*
G01*
X0213196Y0505434D01*
G75*
G02*
X0212802Y0505041I-000394J0000000D01*
G01*
G37*
G36*
G01*
X0212802Y0512521D02*
X0207881Y0512521D01*
G75*
G02*
X0207487Y0512915I0000000J0000394D01*
G01*
X0207487Y0516064D01*
G75*
G02*
X0207881Y0516458I0000394J0000000D01*
G01*
X0212802Y0516458D01*
G75*
G02*
X0213196Y0516064I0000000J-000394D01*
G01*
X0213196Y0512915D01*
G75*
G02*
X0212802Y0512521I-000394J0000000D01*
G01*
G37*
G36*
G01*
X0380561Y0396063D02*
X0382450Y0396063D01*
G75*
G02*
X0382687Y0395826I0000000J-000236D01*
G01*
X0382687Y0393937D01*
G75*
G02*
X0382450Y0393700I-000236J0000000D01*
G01*
X0380561Y0393700D01*
G75*
G02*
X0380324Y0393937I0000000J0000236D01*
G01*
X0380324Y0395826D01*
G75*
G02*
X0380561Y0396063I0000236J0000000D01*
G01*
G37*
G36*
G01*
X0389222Y0396063D02*
X0391112Y0396063D01*
G75*
G02*
X0391348Y0395826I0000000J-000236D01*
G01*
X0391348Y0393937D01*
G75*
G02*
X0391112Y0393700I-000236J0000000D01*
G01*
X0389222Y0393700D01*
G75*
G02*
X0388986Y0393937I0000000J0000236D01*
G01*
X0388986Y0395826D01*
G75*
G02*
X0389222Y0396063I0000236J0000000D01*
G01*
G37*
X0229760Y0386614D03*
G36*
G01*
X0518707Y0513764D02*
X0523629Y0513764D01*
G75*
G02*
X0524022Y0513370I0000000J-000394D01*
G01*
X0524022Y0510221D01*
G75*
G02*
X0523629Y0509827I-000394J0000000D01*
G01*
X0518707Y0509827D01*
G75*
G02*
X0518314Y0510221I0000000J0000394D01*
G01*
X0518314Y0513370D01*
G75*
G02*
X0518707Y0513764I0000394J0000000D01*
G01*
G37*
G36*
G01*
X0518707Y0506284D02*
X0523629Y0506284D01*
G75*
G02*
X0524022Y0505890I0000000J-000394D01*
G01*
X0524022Y0502740D01*
G75*
G02*
X0523629Y0502347I-000394J0000000D01*
G01*
X0518707Y0502347D01*
G75*
G02*
X0518314Y0502740I0000000J0000394D01*
G01*
X0518314Y0505890D01*
G75*
G02*
X0518707Y0506284I0000394J0000000D01*
G01*
G37*
X0411884Y0076982D03*
G36*
G01*
X0267152Y0083486D02*
X0274396Y0083486D01*
G75*
G02*
X0274711Y0083171I0000000J-000315D01*
G01*
X0274711Y0080651D01*
G75*
G02*
X0274396Y0080336I-000315J0000000D01*
G01*
X0267152Y0080336D01*
G75*
G02*
X0266837Y0080651I0000000J0000315D01*
G01*
X0266837Y0083171D01*
G75*
G02*
X0267152Y0083486I0000315J0000000D01*
G01*
G37*
G36*
G01*
X0267152Y0066950D02*
X0274396Y0066950D01*
G75*
G02*
X0274711Y0066635I0000000J-000315D01*
G01*
X0274711Y0064116D01*
G75*
G02*
X0274396Y0063801I-000315J0000000D01*
G01*
X0267152Y0063801D01*
G75*
G02*
X0266837Y0064116I0000000J0000315D01*
G01*
X0266837Y0066635D01*
G75*
G02*
X0267152Y0066950I0000315J0000000D01*
G01*
G37*
G36*
G01*
X0093174Y0497065D02*
X0088253Y0497065D01*
G75*
G02*
X0087859Y0497458I0000000J0000394D01*
G01*
X0087859Y0500608D01*
G75*
G02*
X0088253Y0501002I0000394J0000000D01*
G01*
X0093174Y0501002D01*
G75*
G02*
X0093568Y0500608I0000000J-000394D01*
G01*
X0093568Y0497458D01*
G75*
G02*
X0093174Y0497065I-000394J0000000D01*
G01*
G37*
G36*
G01*
X0093174Y0504545D02*
X0088253Y0504545D01*
G75*
G02*
X0087859Y0504939I0000000J0000394D01*
G01*
X0087859Y0508088D01*
G75*
G02*
X0088253Y0508482I0000394J0000000D01*
G01*
X0093174Y0508482D01*
G75*
G02*
X0093568Y0508088I0000000J-000394D01*
G01*
X0093568Y0504939D01*
G75*
G02*
X0093174Y0504545I-000394J0000000D01*
G01*
G37*
G36*
G01*
X0140558Y0363958D02*
X0140558Y0362068D01*
G75*
G02*
X0140322Y0361832I-000236J0000000D01*
G01*
X0138432Y0361832D01*
G75*
G02*
X0138196Y0362068I0000000J0000236D01*
G01*
X0138196Y0363958D01*
G75*
G02*
X0138432Y0364194I0000236J0000000D01*
G01*
X0140322Y0364194D01*
G75*
G02*
X0140558Y0363958I0000000J-000236D01*
G01*
G37*
G36*
G01*
X0140558Y0355297D02*
X0140558Y0353407D01*
G75*
G02*
X0140322Y0353171I-000236J0000000D01*
G01*
X0138432Y0353171D01*
G75*
G02*
X0138196Y0353407I0000000J0000236D01*
G01*
X0138196Y0355297D01*
G75*
G02*
X0138432Y0355533I0000236J0000000D01*
G01*
X0140322Y0355533D01*
G75*
G02*
X0140558Y0355297I0000000J-000236D01*
G01*
G37*
G36*
G01*
X0380324Y0407135D02*
X0380324Y0410679D01*
G75*
G02*
X0380718Y0411072I0000394J0000000D01*
G01*
X0383868Y0411072D01*
G75*
G02*
X0384261Y0410679I0000000J-000394D01*
G01*
X0384261Y0407135D01*
G75*
G02*
X0383868Y0406742I-000394J0000000D01*
G01*
X0380718Y0406742D01*
G75*
G02*
X0380324Y0407135I0000000J0000394D01*
G01*
G37*
G36*
G01*
X0387017Y0407135D02*
X0387017Y0410679D01*
G75*
G02*
X0387411Y0411072I0000394J0000000D01*
G01*
X0390561Y0411072D01*
G75*
G02*
X0390954Y0410679I0000000J-000394D01*
G01*
X0390954Y0407135D01*
G75*
G02*
X0390561Y0406742I-000394J0000000D01*
G01*
X0387411Y0406742D01*
G75*
G02*
X0387017Y0407135I0000000J0000394D01*
G01*
G37*
G36*
G01*
X0171674Y0476818D02*
X0175808Y0476818D01*
G75*
G02*
X0176202Y0476424I0000000J-000394D01*
G01*
X0176202Y0473275D01*
G75*
G02*
X0175808Y0472881I-000394J0000000D01*
G01*
X0171674Y0472881D01*
G75*
G02*
X0171280Y0473275I0000000J0000394D01*
G01*
X0171280Y0476424D01*
G75*
G02*
X0171674Y0476818I0000394J0000000D01*
G01*
G37*
G36*
G01*
X0171674Y0468944D02*
X0175808Y0468944D01*
G75*
G02*
X0176202Y0468550I0000000J-000394D01*
G01*
X0176202Y0465401D01*
G75*
G02*
X0175808Y0465007I-000394J0000000D01*
G01*
X0171674Y0465007D01*
G75*
G02*
X0171280Y0465401I0000000J0000394D01*
G01*
X0171280Y0468550D01*
G75*
G02*
X0171674Y0468944I0000394J0000000D01*
G01*
G37*
G36*
G01*
X0363651Y0411466D02*
X0366289Y0411466D01*
G75*
G02*
X0366545Y0411210I0000000J-000256D01*
G01*
X0366545Y0409163D01*
G75*
G02*
X0366289Y0408907I-000256J0000000D01*
G01*
X0363651Y0408907D01*
G75*
G02*
X0363395Y0409163I0000000J0000256D01*
G01*
X0363395Y0411210D01*
G75*
G02*
X0363651Y0411466I0000256J0000000D01*
G01*
G37*
G36*
G01*
X0363572Y0407628D02*
X0366368Y0407628D01*
G75*
G02*
X0366545Y0407450I0000000J-000177D01*
G01*
X0366545Y0406033D01*
G75*
G02*
X0366368Y0405856I-000177J0000000D01*
G01*
X0363572Y0405856D01*
G75*
G02*
X0363395Y0406033I0000000J0000177D01*
G01*
X0363395Y0407450D01*
G75*
G02*
X0363572Y0407628I0000177J0000000D01*
G01*
G37*
G36*
G01*
X0363572Y0404478D02*
X0366368Y0404478D01*
G75*
G02*
X0366545Y0404301I0000000J-000177D01*
G01*
X0366545Y0402883D01*
G75*
G02*
X0366368Y0402706I-000177J0000000D01*
G01*
X0363572Y0402706D01*
G75*
G02*
X0363395Y0402883I0000000J0000177D01*
G01*
X0363395Y0404301D01*
G75*
G02*
X0363572Y0404478I0000177J0000000D01*
G01*
G37*
G36*
G01*
X0363651Y0401427D02*
X0366289Y0401427D01*
G75*
G02*
X0366545Y0401171I0000000J-000256D01*
G01*
X0366545Y0399124D01*
G75*
G02*
X0366289Y0398868I-000256J0000000D01*
G01*
X0363651Y0398868D01*
G75*
G02*
X0363395Y0399124I0000000J0000256D01*
G01*
X0363395Y0401171D01*
G75*
G02*
X0363651Y0401427I0000256J0000000D01*
G01*
G37*
G36*
G01*
X0370738Y0401427D02*
X0373376Y0401427D01*
G75*
G02*
X0373631Y0401171I0000000J-000256D01*
G01*
X0373631Y0399124D01*
G75*
G02*
X0373376Y0398868I-000256J0000000D01*
G01*
X0370738Y0398868D01*
G75*
G02*
X0370482Y0399124I0000000J0000256D01*
G01*
X0370482Y0401171D01*
G75*
G02*
X0370738Y0401427I0000256J0000000D01*
G01*
G37*
G36*
G01*
X0370659Y0404478D02*
X0373454Y0404478D01*
G75*
G02*
X0373631Y0404301I0000000J-000177D01*
G01*
X0373631Y0402883D01*
G75*
G02*
X0373454Y0402706I-000177J0000000D01*
G01*
X0370659Y0402706D01*
G75*
G02*
X0370482Y0402883I0000000J0000177D01*
G01*
X0370482Y0404301D01*
G75*
G02*
X0370659Y0404478I0000177J0000000D01*
G01*
G37*
G36*
G01*
X0370659Y0407628D02*
X0373454Y0407628D01*
G75*
G02*
X0373631Y0407450I0000000J-000177D01*
G01*
X0373631Y0406033D01*
G75*
G02*
X0373454Y0405856I-000177J0000000D01*
G01*
X0370659Y0405856D01*
G75*
G02*
X0370482Y0406033I0000000J0000177D01*
G01*
X0370482Y0407450D01*
G75*
G02*
X0370659Y0407628I0000177J0000000D01*
G01*
G37*
G36*
G01*
X0370738Y0411466D02*
X0373376Y0411466D01*
G75*
G02*
X0373631Y0411210I0000000J-000256D01*
G01*
X0373631Y0409163D01*
G75*
G02*
X0373376Y0408907I-000256J0000000D01*
G01*
X0370738Y0408907D01*
G75*
G02*
X0370482Y0409163I0000000J0000256D01*
G01*
X0370482Y0411210D01*
G75*
G02*
X0370738Y0411466I0000256J0000000D01*
G01*
G37*
G36*
G01*
X0249259Y0313213D02*
X0252803Y0313213D01*
G75*
G02*
X0253196Y0312819I0000000J-000394D01*
G01*
X0253196Y0309670D01*
G75*
G02*
X0252803Y0309276I-000394J0000000D01*
G01*
X0249259Y0309276D01*
G75*
G02*
X0248866Y0309670I0000000J0000394D01*
G01*
X0248866Y0312819D01*
G75*
G02*
X0249259Y0313213I0000394J0000000D01*
G01*
G37*
G36*
G01*
X0249259Y0306520D02*
X0252803Y0306520D01*
G75*
G02*
X0253196Y0306126I0000000J-000394D01*
G01*
X0253196Y0302977D01*
G75*
G02*
X0252803Y0302583I-000394J0000000D01*
G01*
X0249259Y0302583D01*
G75*
G02*
X0248866Y0302977I0000000J0000394D01*
G01*
X0248866Y0306126D01*
G75*
G02*
X0249259Y0306520I0000394J0000000D01*
G01*
G37*
G36*
G01*
X0262252Y0313213D02*
X0265795Y0313213D01*
G75*
G02*
X0266189Y0312819I0000000J-000394D01*
G01*
X0266189Y0309670D01*
G75*
G02*
X0265795Y0309276I-000394J0000000D01*
G01*
X0262252Y0309276D01*
G75*
G02*
X0261858Y0309670I0000000J0000394D01*
G01*
X0261858Y0312819D01*
G75*
G02*
X0262252Y0313213I0000394J0000000D01*
G01*
G37*
G36*
G01*
X0262252Y0306520D02*
X0265795Y0306520D01*
G75*
G02*
X0266189Y0306126I0000000J-000394D01*
G01*
X0266189Y0302977D01*
G75*
G02*
X0265795Y0302583I-000394J0000000D01*
G01*
X0262252Y0302583D01*
G75*
G02*
X0261858Y0302977I0000000J0000394D01*
G01*
X0261858Y0306126D01*
G75*
G02*
X0262252Y0306520I0000394J0000000D01*
G01*
G37*
G36*
G01*
X0258708Y0312977D02*
X0258708Y0311087D01*
G75*
G02*
X0258472Y0310851I-000236J0000000D01*
G01*
X0256582Y0310851D01*
G75*
G02*
X0256346Y0311087I0000000J0000236D01*
G01*
X0256346Y0312977D01*
G75*
G02*
X0256582Y0313213I0000236J0000000D01*
G01*
X0258472Y0313213D01*
G75*
G02*
X0258708Y0312977I0000000J-000236D01*
G01*
G37*
G36*
G01*
X0258708Y0304315D02*
X0258708Y0302426D01*
G75*
G02*
X0258472Y0302189I-000236J0000000D01*
G01*
X0256582Y0302189D01*
G75*
G02*
X0256346Y0302426I0000000J0000236D01*
G01*
X0256346Y0304315D01*
G75*
G02*
X0256582Y0304552I0000236J0000000D01*
G01*
X0258472Y0304552D01*
G75*
G02*
X0258708Y0304315I0000000J-000236D01*
G01*
G37*
G36*
G01*
X0163997Y0465007D02*
X0159863Y0465007D01*
G75*
G02*
X0159469Y0465401I0000000J0000394D01*
G01*
X0159469Y0468550D01*
G75*
G02*
X0159863Y0468944I0000394J0000000D01*
G01*
X0163997Y0468944D01*
G75*
G02*
X0164391Y0468550I0000000J-000394D01*
G01*
X0164391Y0465401D01*
G75*
G02*
X0163997Y0465007I-000394J0000000D01*
G01*
G37*
G36*
G01*
X0163997Y0472881D02*
X0159863Y0472881D01*
G75*
G02*
X0159469Y0473275I0000000J0000394D01*
G01*
X0159469Y0476424D01*
G75*
G02*
X0159863Y0476818I0000394J0000000D01*
G01*
X0163997Y0476818D01*
G75*
G02*
X0164391Y0476424I0000000J-000394D01*
G01*
X0164391Y0473275D01*
G75*
G02*
X0163997Y0472881I-000394J0000000D01*
G01*
G37*
G36*
G01*
X0380561Y0416584D02*
X0382450Y0416584D01*
G75*
G02*
X0382687Y0416348I0000000J-000236D01*
G01*
X0382687Y0414458D01*
G75*
G02*
X0382450Y0414222I-000236J0000000D01*
G01*
X0380561Y0414222D01*
G75*
G02*
X0380324Y0414458I0000000J0000236D01*
G01*
X0380324Y0416348D01*
G75*
G02*
X0380561Y0416584I0000236J0000000D01*
G01*
G37*
G36*
G01*
X0389222Y0416584D02*
X0391112Y0416584D01*
G75*
G02*
X0391348Y0416348I0000000J-000236D01*
G01*
X0391348Y0414458D01*
G75*
G02*
X0391112Y0414222I-000236J0000000D01*
G01*
X0389222Y0414222D01*
G75*
G02*
X0388986Y0414458I0000000J0000236D01*
G01*
X0388986Y0416348D01*
G75*
G02*
X0389222Y0416584I0000236J0000000D01*
G01*
G37*
G36*
G01*
X0067190Y0497360D02*
X0062269Y0497360D01*
G75*
G02*
X0061875Y0497754I0000000J0000394D01*
G01*
X0061875Y0500903D01*
G75*
G02*
X0062269Y0501297I0000394J0000000D01*
G01*
X0067190Y0501297D01*
G75*
G02*
X0067584Y0500903I0000000J-000394D01*
G01*
X0067584Y0497754D01*
G75*
G02*
X0067190Y0497360I-000394J0000000D01*
G01*
G37*
G36*
G01*
X0067190Y0504840D02*
X0062269Y0504840D01*
G75*
G02*
X0061875Y0505234I0000000J0000394D01*
G01*
X0061875Y0508384D01*
G75*
G02*
X0062269Y0508777I0000394J0000000D01*
G01*
X0067190Y0508777D01*
G75*
G02*
X0067584Y0508384I0000000J-000394D01*
G01*
X0067584Y0505234D01*
G75*
G02*
X0067190Y0504840I-000394J0000000D01*
G01*
G37*
G36*
G01*
X0500591Y0501969D02*
X0495669Y0501969D01*
G75*
G02*
X0495276Y0502362I0000000J0000394D01*
G01*
X0495276Y0505512D01*
G75*
G02*
X0495669Y0505906I0000394J0000000D01*
G01*
X0500591Y0505906D01*
G75*
G02*
X0500984Y0505512I0000000J-000394D01*
G01*
X0500984Y0502362D01*
G75*
G02*
X0500591Y0501969I-000394J0000000D01*
G01*
G37*
G36*
G01*
X0500591Y0509449D02*
X0495669Y0509449D01*
G75*
G02*
X0495276Y0509843I0000000J0000394D01*
G01*
X0495276Y0512992D01*
G75*
G02*
X0495669Y0513386I0000394J0000000D01*
G01*
X0500591Y0513386D01*
G75*
G02*
X0500984Y0512992I0000000J-000394D01*
G01*
X0500984Y0509843D01*
G75*
G02*
X0500591Y0509449I-000394J0000000D01*
G01*
G37*
G36*
G01*
X0146280Y0465007D02*
X0142146Y0465007D01*
G75*
G02*
X0141753Y0465401I0000000J0000394D01*
G01*
X0141753Y0468550D01*
G75*
G02*
X0142146Y0468944I0000394J0000000D01*
G01*
X0146280Y0468944D01*
G75*
G02*
X0146674Y0468550I0000000J-000394D01*
G01*
X0146674Y0465401D01*
G75*
G02*
X0146280Y0465007I-000394J0000000D01*
G01*
G37*
G36*
G01*
X0146280Y0472881D02*
X0142146Y0472881D01*
G75*
G02*
X0141753Y0473275I0000000J0000394D01*
G01*
X0141753Y0476424D01*
G75*
G02*
X0142146Y0476818I0000394J0000000D01*
G01*
X0146280Y0476818D01*
G75*
G02*
X0146674Y0476424I0000000J-000394D01*
G01*
X0146674Y0473275D01*
G75*
G02*
X0146280Y0472881I-000394J0000000D01*
G01*
G37*
G36*
G01*
X0177369Y0364222D02*
X0180912Y0364222D01*
G75*
G02*
X0181306Y0363828I0000000J-000394D01*
G01*
X0181306Y0360679D01*
G75*
G02*
X0180912Y0360285I-000394J0000000D01*
G01*
X0177369Y0360285D01*
G75*
G02*
X0176975Y0360679I0000000J0000394D01*
G01*
X0176975Y0363828D01*
G75*
G02*
X0177369Y0364222I0000394J0000000D01*
G01*
G37*
G36*
G01*
X0177369Y0357529D02*
X0180912Y0357529D01*
G75*
G02*
X0181306Y0357135I0000000J-000394D01*
G01*
X0181306Y0353986D01*
G75*
G02*
X0180912Y0353592I-000394J0000000D01*
G01*
X0177369Y0353592D01*
G75*
G02*
X0176975Y0353986I0000000J0000394D01*
G01*
X0176975Y0357135D01*
G75*
G02*
X0177369Y0357529I0000394J0000000D01*
G01*
G37*
G36*
G01*
X0344101Y0301537D02*
X0344101Y0304608D01*
G75*
G02*
X0344377Y0304883I0000276J0000000D01*
G01*
X0346581Y0304883D01*
G75*
G02*
X0346857Y0304608I0000000J-000276D01*
G01*
X0346857Y0301537D01*
G75*
G02*
X0346581Y0301261I-000276J0000000D01*
G01*
X0344377Y0301261D01*
G75*
G02*
X0344101Y0301537I0000000J0000276D01*
G01*
G37*
G36*
G01*
X0350400Y0301537D02*
X0350400Y0304608D01*
G75*
G02*
X0350676Y0304883I0000276J0000000D01*
G01*
X0352881Y0304883D01*
G75*
G02*
X0353156Y0304608I0000000J-000276D01*
G01*
X0353156Y0301537D01*
G75*
G02*
X0352881Y0301261I-000276J0000000D01*
G01*
X0350676Y0301261D01*
G75*
G02*
X0350400Y0301537I0000000J0000276D01*
G01*
G37*
G36*
G01*
X0172054Y0391517D02*
X0172054Y0388446D01*
G75*
G02*
X0171778Y0388171I-000276J0000000D01*
G01*
X0169574Y0388171D01*
G75*
G02*
X0169298Y0388446I0000000J0000276D01*
G01*
X0169298Y0391517D01*
G75*
G02*
X0169574Y0391793I0000276J0000000D01*
G01*
X0171778Y0391793D01*
G75*
G02*
X0172054Y0391517I0000000J-000276D01*
G01*
G37*
G36*
G01*
X0165755Y0391517D02*
X0165755Y0388446D01*
G75*
G02*
X0165479Y0388171I-000276J0000000D01*
G01*
X0163274Y0388171D01*
G75*
G02*
X0162999Y0388446I0000000J0000276D01*
G01*
X0162999Y0391517D01*
G75*
G02*
X0163274Y0391793I0000276J0000000D01*
G01*
X0165479Y0391793D01*
G75*
G02*
X0165755Y0391517I0000000J-000276D01*
G01*
G37*
G36*
G01*
X0144101Y0364194D02*
X0147644Y0364194D01*
G75*
G02*
X0148038Y0363801I0000000J-000394D01*
G01*
X0148038Y0360651D01*
G75*
G02*
X0147644Y0360257I-000394J0000000D01*
G01*
X0144101Y0360257D01*
G75*
G02*
X0143707Y0360651I0000000J0000394D01*
G01*
X0143707Y0363801D01*
G75*
G02*
X0144101Y0364194I0000394J0000000D01*
G01*
G37*
G36*
G01*
X0144101Y0357501D02*
X0147644Y0357501D01*
G75*
G02*
X0148038Y0357108I0000000J-000394D01*
G01*
X0148038Y0353958D01*
G75*
G02*
X0147644Y0353564I-000394J0000000D01*
G01*
X0144101Y0353564D01*
G75*
G02*
X0143707Y0353958I0000000J0000394D01*
G01*
X0143707Y0357108D01*
G75*
G02*
X0144101Y0357501I0000394J0000000D01*
G01*
G37*
G36*
G01*
X0139180Y0505041D02*
X0134259Y0505041D01*
G75*
G02*
X0133865Y0505434I0000000J0000394D01*
G01*
X0133865Y0508584D01*
G75*
G02*
X0134259Y0508978I0000394J0000000D01*
G01*
X0139180Y0508978D01*
G75*
G02*
X0139574Y0508584I0000000J-000394D01*
G01*
X0139574Y0505434D01*
G75*
G02*
X0139180Y0505041I-000394J0000000D01*
G01*
G37*
G36*
G01*
X0139180Y0512521D02*
X0134259Y0512521D01*
G75*
G02*
X0133865Y0512915I0000000J0000394D01*
G01*
X0133865Y0516064D01*
G75*
G02*
X0134259Y0516458I0000394J0000000D01*
G01*
X0139180Y0516458D01*
G75*
G02*
X0139574Y0516064I0000000J-000394D01*
G01*
X0139574Y0512915D01*
G75*
G02*
X0139180Y0512521I-000394J0000000D01*
G01*
G37*
G36*
G01*
X0174022Y0363958D02*
X0174022Y0362068D01*
G75*
G02*
X0173786Y0361832I-000236J0000000D01*
G01*
X0171896Y0361832D01*
G75*
G02*
X0171660Y0362068I0000000J0000236D01*
G01*
X0171660Y0363958D01*
G75*
G02*
X0171896Y0364194I0000236J0000000D01*
G01*
X0173786Y0364194D01*
G75*
G02*
X0174022Y0363958I0000000J-000236D01*
G01*
G37*
G36*
G01*
X0174022Y0355297D02*
X0174022Y0353407D01*
G75*
G02*
X0173786Y0353171I-000236J0000000D01*
G01*
X0171896Y0353171D01*
G75*
G02*
X0171660Y0353407I0000000J0000236D01*
G01*
X0171660Y0355297D01*
G75*
G02*
X0171896Y0355533I0000236J0000000D01*
G01*
X0173786Y0355533D01*
G75*
G02*
X0174022Y0355297I0000000J-000236D01*
G01*
G37*
G36*
G01*
X0513878Y0476575D02*
X0508957Y0476575D01*
G75*
G02*
X0508563Y0476969I0000000J0000394D01*
G01*
X0508563Y0480118D01*
G75*
G02*
X0508957Y0480512I0000394J0000000D01*
G01*
X0513878Y0480512D01*
G75*
G02*
X0514272Y0480118I0000000J-000394D01*
G01*
X0514272Y0476969D01*
G75*
G02*
X0513878Y0476575I-000394J0000000D01*
G01*
G37*
G36*
G01*
X0513878Y0484055D02*
X0508957Y0484055D01*
G75*
G02*
X0508563Y0484449I0000000J0000394D01*
G01*
X0508563Y0487599D01*
G75*
G02*
X0508957Y0487992I0000394J0000000D01*
G01*
X0513878Y0487992D01*
G75*
G02*
X0514272Y0487599I0000000J-000394D01*
G01*
X0514272Y0484449D01*
G75*
G02*
X0513878Y0484055I-000394J0000000D01*
G01*
G37*
D140*
X0254190Y0109667D03*
X0254190Y0111635D03*
X0254190Y0113604D03*
X0254190Y0115572D03*
D74*
X0252172Y0115621D03*
X0250203Y0115621D03*
D140*
X0248186Y0115572D03*
X0248186Y0113604D03*
X0248186Y0111635D03*
X0248186Y0109667D03*
D74*
X0250203Y0109617D03*
X0252172Y0109617D03*
D168*
X0169495Y0046084D03*
X0054140Y0046084D03*
G36*
G01*
X0107323Y0343159D02*
X0110394Y0343159D01*
G75*
G02*
X0110669Y0342884I0000000J-000276D01*
G01*
X0110669Y0340679D01*
G75*
G02*
X0110394Y0340404I-000276J0000000D01*
G01*
X0107323Y0340404D01*
G75*
G02*
X0107047Y0340679I0000000J0000276D01*
G01*
X0107047Y0342884D01*
G75*
G02*
X0107323Y0343159I0000276J0000000D01*
G01*
G37*
G36*
G01*
X0107323Y0336860D02*
X0110394Y0336860D01*
G75*
G02*
X0110669Y0336585I0000000J-000276D01*
G01*
X0110669Y0334380D01*
G75*
G02*
X0110394Y0334104I-000276J0000000D01*
G01*
X0107323Y0334104D01*
G75*
G02*
X0107047Y0334380I0000000J0000276D01*
G01*
X0107047Y0336585D01*
G75*
G02*
X0107323Y0336860I0000276J0000000D01*
G01*
G37*
G36*
G01*
X0267034Y0041143D02*
X0267034Y0036261D01*
G75*
G02*
X0266522Y0035749I-000512J0000000D01*
G01*
X0262428Y0035749D01*
G75*
G02*
X0261916Y0036261I0000000J0000512D01*
G01*
X0261916Y0041143D01*
G75*
G02*
X0262428Y0041655I0000512J0000000D01*
G01*
X0266522Y0041655D01*
G75*
G02*
X0267034Y0041143I0000000J-000512D01*
G01*
G37*
G36*
G01*
X0274514Y0041143D02*
X0274514Y0036261D01*
G75*
G02*
X0274003Y0035749I-000512J0000000D01*
G01*
X0269908Y0035749D01*
G75*
G02*
X0269396Y0036261I0000000J0000512D01*
G01*
X0269396Y0041143D01*
G75*
G02*
X0269908Y0041655I0000512J0000000D01*
G01*
X0274003Y0041655D01*
G75*
G02*
X0274514Y0041143I0000000J-000512D01*
G01*
G37*
G36*
G01*
X0099546Y0354774D02*
X0094664Y0354774D01*
G75*
G02*
X0094153Y0355286I0000000J0000512D01*
G01*
X0094153Y0359380D01*
G75*
G02*
X0094664Y0359892I0000512J0000000D01*
G01*
X0099546Y0359892D01*
G75*
G02*
X0100058Y0359380I0000000J-000512D01*
G01*
X0100058Y0355286D01*
G75*
G02*
X0099546Y0354774I-000512J0000000D01*
G01*
G37*
G36*
G01*
X0099546Y0347293D02*
X0094664Y0347293D01*
G75*
G02*
X0094153Y0347805I0000000J0000512D01*
G01*
X0094153Y0351900D01*
G75*
G02*
X0094664Y0352411I0000512J0000000D01*
G01*
X0099546Y0352411D01*
G75*
G02*
X0100058Y0351900I0000000J-000512D01*
G01*
X0100058Y0347805D01*
G75*
G02*
X0099546Y0347293I-000512J0000000D01*
G01*
G37*
D226*
X0076232Y0476610D03*
X0097895Y0476275D03*
G36*
G01*
X0115307Y0441866D02*
X0115307Y0441866D01*
X0115307Y0441866D01*
X0115307Y0441866D01*
X0115307Y0441866D01*
G37*
X0103496Y0439898D03*
G36*
G01*
X0164574Y0364194D02*
X0168117Y0364194D01*
G75*
G02*
X0168511Y0363801I0000000J-000394D01*
G01*
X0168511Y0360651D01*
G75*
G02*
X0168117Y0360257I-000394J0000000D01*
G01*
X0164574Y0360257D01*
G75*
G02*
X0164180Y0360651I0000000J0000394D01*
G01*
X0164180Y0363801D01*
G75*
G02*
X0164574Y0364194I0000394J0000000D01*
G01*
G37*
G36*
G01*
X0164574Y0357501D02*
X0168117Y0357501D01*
G75*
G02*
X0168511Y0357108I0000000J-000394D01*
G01*
X0168511Y0353958D01*
G75*
G02*
X0168117Y0353564I-000394J0000000D01*
G01*
X0164574Y0353564D01*
G75*
G02*
X0164180Y0353958I0000000J0000394D01*
G01*
X0164180Y0357108D01*
G75*
G02*
X0164574Y0357501I0000394J0000000D01*
G01*
G37*
G36*
G01*
X0185440Y0386694D02*
X0185440Y0383623D01*
G75*
G02*
X0185164Y0383348I-000276J0000000D01*
G01*
X0182959Y0383348D01*
G75*
G02*
X0182684Y0383623I0000000J0000276D01*
G01*
X0182684Y0386694D01*
G75*
G02*
X0182959Y0386970I0000276J0000000D01*
G01*
X0185164Y0386970D01*
G75*
G02*
X0185440Y0386694I0000000J-000276D01*
G01*
G37*
G36*
G01*
X0179140Y0386694D02*
X0179140Y0383623D01*
G75*
G02*
X0178865Y0383348I-000276J0000000D01*
G01*
X0176660Y0383348D01*
G75*
G02*
X0176385Y0383623I0000000J0000276D01*
G01*
X0176385Y0386694D01*
G75*
G02*
X0176660Y0386970I0000276J0000000D01*
G01*
X0178865Y0386970D01*
G75*
G02*
X0179140Y0386694I0000000J-000276D01*
G01*
G37*
G36*
G01*
X0488704Y0191696D02*
X0485161Y0191696D01*
G75*
G02*
X0484767Y0192090I0000000J0000394D01*
G01*
X0484767Y0195240D01*
G75*
G02*
X0485161Y0195633I0000394J0000000D01*
G01*
X0488704Y0195633D01*
G75*
G02*
X0489098Y0195240I0000000J-000394D01*
G01*
X0489098Y0192090D01*
G75*
G02*
X0488704Y0191696I-000394J0000000D01*
G01*
G37*
G36*
G01*
X0488704Y0198389D02*
X0485161Y0198389D01*
G75*
G02*
X0484767Y0198783I0000000J0000394D01*
G01*
X0484767Y0201932D01*
G75*
G02*
X0485161Y0202326I0000394J0000000D01*
G01*
X0488704Y0202326D01*
G75*
G02*
X0489098Y0201932I0000000J-000394D01*
G01*
X0489098Y0198783D01*
G75*
G02*
X0488704Y0198389I-000394J0000000D01*
G01*
G37*
G36*
G01*
X0504554Y0336438D02*
X0505735Y0336438D01*
G75*
G02*
X0506326Y0335848I0000000J-000591D01*
G01*
X0506326Y0329352D01*
G75*
G02*
X0505735Y0328761I-000591J0000000D01*
G01*
X0504554Y0328761D01*
G75*
G02*
X0503963Y0329352I0000000J0000591D01*
G01*
X0503963Y0335848D01*
G75*
G02*
X0504554Y0336438I0000591J0000000D01*
G01*
G37*
G36*
G01*
X0499554Y0336438D02*
X0500735Y0336438D01*
G75*
G02*
X0501326Y0335848I0000000J-000591D01*
G01*
X0501326Y0329352D01*
G75*
G02*
X0500735Y0328761I-000591J0000000D01*
G01*
X0499554Y0328761D01*
G75*
G02*
X0498963Y0329352I0000000J0000591D01*
G01*
X0498963Y0335848D01*
G75*
G02*
X0499554Y0336438I0000591J0000000D01*
G01*
G37*
G36*
G01*
X0494554Y0336438D02*
X0495735Y0336438D01*
G75*
G02*
X0496326Y0335848I0000000J-000591D01*
G01*
X0496326Y0329352D01*
G75*
G02*
X0495735Y0328761I-000591J0000000D01*
G01*
X0494554Y0328761D01*
G75*
G02*
X0493963Y0329352I0000000J0000591D01*
G01*
X0493963Y0335848D01*
G75*
G02*
X0494554Y0336438I0000591J0000000D01*
G01*
G37*
G36*
G01*
X0489554Y0336438D02*
X0490735Y0336438D01*
G75*
G02*
X0491326Y0335848I0000000J-000591D01*
G01*
X0491326Y0329352D01*
G75*
G02*
X0490735Y0328761I-000591J0000000D01*
G01*
X0489554Y0328761D01*
G75*
G02*
X0488963Y0329352I0000000J0000591D01*
G01*
X0488963Y0335848D01*
G75*
G02*
X0489554Y0336438I0000591J0000000D01*
G01*
G37*
G36*
G01*
X0489554Y0316950D02*
X0490735Y0316950D01*
G75*
G02*
X0491326Y0316360I0000000J-000591D01*
G01*
X0491326Y0309864D01*
G75*
G02*
X0490735Y0309273I-000591J0000000D01*
G01*
X0489554Y0309273D01*
G75*
G02*
X0488963Y0309864I0000000J0000591D01*
G01*
X0488963Y0316360D01*
G75*
G02*
X0489554Y0316950I0000591J0000000D01*
G01*
G37*
G36*
G01*
X0494554Y0316950D02*
X0495735Y0316950D01*
G75*
G02*
X0496326Y0316360I0000000J-000591D01*
G01*
X0496326Y0309864D01*
G75*
G02*
X0495735Y0309273I-000591J0000000D01*
G01*
X0494554Y0309273D01*
G75*
G02*
X0493963Y0309864I0000000J0000591D01*
G01*
X0493963Y0316360D01*
G75*
G02*
X0494554Y0316950I0000591J0000000D01*
G01*
G37*
G36*
G01*
X0499554Y0316950D02*
X0500735Y0316950D01*
G75*
G02*
X0501326Y0316360I0000000J-000591D01*
G01*
X0501326Y0309864D01*
G75*
G02*
X0500735Y0309273I-000591J0000000D01*
G01*
X0499554Y0309273D01*
G75*
G02*
X0498963Y0309864I0000000J0000591D01*
G01*
X0498963Y0316360D01*
G75*
G02*
X0499554Y0316950I0000591J0000000D01*
G01*
G37*
G36*
G01*
X0504554Y0316950D02*
X0505735Y0316950D01*
G75*
G02*
X0506326Y0316360I0000000J-000591D01*
G01*
X0506326Y0309864D01*
G75*
G02*
X0505735Y0309273I-000591J0000000D01*
G01*
X0504554Y0309273D01*
G75*
G02*
X0503963Y0309864I0000000J0000591D01*
G01*
X0503963Y0316360D01*
G75*
G02*
X0504554Y0316950I0000591J0000000D01*
G01*
G37*
G36*
G01*
X0528747Y0045395D02*
X0528747Y0046182D01*
G75*
G02*
X0529140Y0046576I0000394J0000000D01*
G01*
X0530518Y0046576D01*
G75*
G02*
X0530912Y0046182I0000000J-000394D01*
G01*
X0530912Y0045395D01*
G75*
G02*
X0530518Y0045001I-000394J0000000D01*
G01*
X0529140Y0045001D01*
G75*
G02*
X0528747Y0045395I0000000J0000394D01*
G01*
G37*
G36*
G01*
X0528747Y0043033D02*
X0528747Y0043820D01*
G75*
G02*
X0529140Y0044214I0000394J0000000D01*
G01*
X0530518Y0044214D01*
G75*
G02*
X0530912Y0043820I0000000J-000394D01*
G01*
X0530912Y0043033D01*
G75*
G02*
X0530518Y0042639I-000394J0000000D01*
G01*
X0529140Y0042639D01*
G75*
G02*
X0528747Y0043033I0000000J0000394D01*
G01*
G37*
G36*
G01*
X0530322Y0040277D02*
X0530322Y0041655D01*
G75*
G02*
X0530715Y0042049I0000394J0000000D01*
G01*
X0531503Y0042049D01*
G75*
G02*
X0531896Y0041655I0000000J-000394D01*
G01*
X0531896Y0040277D01*
G75*
G02*
X0531503Y0039883I-000394J0000000D01*
G01*
X0530715Y0039883D01*
G75*
G02*
X0530322Y0040277I0000000J0000394D01*
G01*
G37*
G36*
G01*
X0532684Y0040277D02*
X0532684Y0041655D01*
G75*
G02*
X0533077Y0042049I0000394J0000000D01*
G01*
X0533865Y0042049D01*
G75*
G02*
X0534259Y0041655I0000000J-000394D01*
G01*
X0534259Y0040277D01*
G75*
G02*
X0533865Y0039883I-000394J0000000D01*
G01*
X0533077Y0039883D01*
G75*
G02*
X0532684Y0040277I0000000J0000394D01*
G01*
G37*
G36*
G01*
X0535046Y0040277D02*
X0535046Y0041655D01*
G75*
G02*
X0535440Y0042049I0000394J0000000D01*
G01*
X0536227Y0042049D01*
G75*
G02*
X0536621Y0041655I0000000J-000394D01*
G01*
X0536621Y0040277D01*
G75*
G02*
X0536227Y0039883I-000394J0000000D01*
G01*
X0535440Y0039883D01*
G75*
G02*
X0535046Y0040277I0000000J0000394D01*
G01*
G37*
G36*
G01*
X0536030Y0043033D02*
X0536030Y0043820D01*
G75*
G02*
X0536424Y0044214I0000394J0000000D01*
G01*
X0537802Y0044214D01*
G75*
G02*
X0538196Y0043820I0000000J-000394D01*
G01*
X0538196Y0043033D01*
G75*
G02*
X0537802Y0042639I-000394J0000000D01*
G01*
X0536424Y0042639D01*
G75*
G02*
X0536030Y0043033I0000000J0000394D01*
G01*
G37*
G36*
G01*
X0536030Y0045395D02*
X0536030Y0046182D01*
G75*
G02*
X0536424Y0046576I0000394J0000000D01*
G01*
X0537802Y0046576D01*
G75*
G02*
X0538196Y0046182I0000000J-000394D01*
G01*
X0538196Y0045395D01*
G75*
G02*
X0537802Y0045001I-000394J0000000D01*
G01*
X0536424Y0045001D01*
G75*
G02*
X0536030Y0045395I0000000J0000394D01*
G01*
G37*
G36*
G01*
X0535046Y0047560D02*
X0535046Y0048938D01*
G75*
G02*
X0535440Y0049332I0000394J0000000D01*
G01*
X0536227Y0049332D01*
G75*
G02*
X0536621Y0048938I0000000J-000394D01*
G01*
X0536621Y0047560D01*
G75*
G02*
X0536227Y0047167I-000394J0000000D01*
G01*
X0535440Y0047167D01*
G75*
G02*
X0535046Y0047560I0000000J0000394D01*
G01*
G37*
G36*
G01*
X0532684Y0047560D02*
X0532684Y0048938D01*
G75*
G02*
X0533077Y0049332I0000394J0000000D01*
G01*
X0533865Y0049332D01*
G75*
G02*
X0534259Y0048938I0000000J-000394D01*
G01*
X0534259Y0047560D01*
G75*
G02*
X0533865Y0047167I-000394J0000000D01*
G01*
X0533077Y0047167D01*
G75*
G02*
X0532684Y0047560I0000000J0000394D01*
G01*
G37*
G36*
G01*
X0530322Y0047560D02*
X0530322Y0048938D01*
G75*
G02*
X0530715Y0049332I0000394J0000000D01*
G01*
X0531503Y0049332D01*
G75*
G02*
X0531896Y0048938I0000000J-000394D01*
G01*
X0531896Y0047560D01*
G75*
G02*
X0531503Y0047167I-000394J0000000D01*
G01*
X0530715Y0047167D01*
G75*
G02*
X0530322Y0047560I0000000J0000394D01*
G01*
G37*
G36*
G01*
X0142034Y0385159D02*
X0137900Y0385159D01*
G75*
G02*
X0137507Y0385553I0000000J0000394D01*
G01*
X0137507Y0388702D01*
G75*
G02*
X0137900Y0389096I0000394J0000000D01*
G01*
X0142034Y0389096D01*
G75*
G02*
X0142428Y0388702I0000000J-000394D01*
G01*
X0142428Y0385553D01*
G75*
G02*
X0142034Y0385159I-000394J0000000D01*
G01*
G37*
G36*
G01*
X0142034Y0393033D02*
X0137900Y0393033D01*
G75*
G02*
X0137507Y0393427I0000000J0000394D01*
G01*
X0137507Y0396576D01*
G75*
G02*
X0137900Y0396970I0000394J0000000D01*
G01*
X0142034Y0396970D01*
G75*
G02*
X0142428Y0396576I0000000J-000394D01*
G01*
X0142428Y0393427D01*
G75*
G02*
X0142034Y0393033I-000394J0000000D01*
G01*
G37*
G36*
G01*
X0435126Y0503254D02*
X0430205Y0503254D01*
G75*
G02*
X0429811Y0503647I0000000J0000394D01*
G01*
X0429811Y0506797D01*
G75*
G02*
X0430205Y0507191I0000394J0000000D01*
G01*
X0435126Y0507191D01*
G75*
G02*
X0435520Y0506797I0000000J-000394D01*
G01*
X0435520Y0503647D01*
G75*
G02*
X0435126Y0503254I-000394J0000000D01*
G01*
G37*
G36*
G01*
X0435126Y0510734D02*
X0430205Y0510734D01*
G75*
G02*
X0429811Y0511128I0000000J0000394D01*
G01*
X0429811Y0514277D01*
G75*
G02*
X0430205Y0514671I0000394J0000000D01*
G01*
X0435126Y0514671D01*
G75*
G02*
X0435520Y0514277I0000000J-000394D01*
G01*
X0435520Y0511128D01*
G75*
G02*
X0435126Y0510734I-000394J0000000D01*
G01*
G37*
G36*
G01*
X0172507Y0396143D02*
X0172507Y0393466D01*
G75*
G02*
X0172172Y0393131I-000335J0000000D01*
G01*
X0169495Y0393131D01*
G75*
G02*
X0169160Y0393466I0000000J0000335D01*
G01*
X0169160Y0396143D01*
G75*
G02*
X0169495Y0396478I0000335J0000000D01*
G01*
X0172172Y0396478D01*
G75*
G02*
X0172507Y0396143I0000000J-000335D01*
G01*
G37*
G36*
G01*
X0166286Y0396143D02*
X0166286Y0393466D01*
G75*
G02*
X0165951Y0393131I-000335J0000000D01*
G01*
X0163274Y0393131D01*
G75*
G02*
X0162940Y0393466I0000000J0000335D01*
G01*
X0162940Y0396143D01*
G75*
G02*
X0163274Y0396478I0000335J0000000D01*
G01*
X0165951Y0396478D01*
G75*
G02*
X0166286Y0396143I0000000J-000335D01*
G01*
G37*
G36*
G01*
X0140000Y0462657D02*
X0142677Y0462657D01*
G75*
G02*
X0143012Y0462323I0000000J-000335D01*
G01*
X0143012Y0459646D01*
G75*
G02*
X0142677Y0459311I-000335J0000000D01*
G01*
X0140000Y0459311D01*
G75*
G02*
X0139665Y0459646I0000000J0000335D01*
G01*
X0139665Y0462323D01*
G75*
G02*
X0140000Y0462657I0000335J0000000D01*
G01*
G37*
G36*
G01*
X0140000Y0456437D02*
X0142677Y0456437D01*
G75*
G02*
X0143012Y0456102I0000000J-000335D01*
G01*
X0143012Y0453425D01*
G75*
G02*
X0142677Y0453091I-000335J0000000D01*
G01*
X0140000Y0453091D01*
G75*
G02*
X0139665Y0453425I0000000J0000335D01*
G01*
X0139665Y0456102D01*
G75*
G02*
X0140000Y0456437I0000335J0000000D01*
G01*
G37*
G36*
G01*
X0404931Y0410639D02*
X0404931Y0407569D01*
G75*
G02*
X0404655Y0407293I-000276J0000000D01*
G01*
X0402450Y0407293D01*
G75*
G02*
X0402175Y0407569I0000000J0000276D01*
G01*
X0402175Y0410639D01*
G75*
G02*
X0402450Y0410915I0000276J0000000D01*
G01*
X0404655Y0410915D01*
G75*
G02*
X0404931Y0410639I0000000J-000276D01*
G01*
G37*
G36*
G01*
X0398631Y0410639D02*
X0398631Y0407569D01*
G75*
G02*
X0398356Y0407293I-000276J0000000D01*
G01*
X0396151Y0407293D01*
G75*
G02*
X0395876Y0407569I0000000J0000276D01*
G01*
X0395876Y0410639D01*
G75*
G02*
X0396151Y0410915I0000276J0000000D01*
G01*
X0398356Y0410915D01*
G75*
G02*
X0398631Y0410639I0000000J-000276D01*
G01*
G37*
G36*
G01*
X0105413Y0359262D02*
X0105413Y0357372D01*
G75*
G02*
X0105177Y0357136I-000236J0000000D01*
G01*
X0103287Y0357136D01*
G75*
G02*
X0103051Y0357372I0000000J0000236D01*
G01*
X0103051Y0359262D01*
G75*
G02*
X0103287Y0359498I0000236J0000000D01*
G01*
X0105177Y0359498D01*
G75*
G02*
X0105413Y0359262I0000000J-000236D01*
G01*
G37*
G36*
G01*
X0105413Y0350600D02*
X0105413Y0348711D01*
G75*
G02*
X0105177Y0348474I-000236J0000000D01*
G01*
X0103287Y0348474D01*
G75*
G02*
X0103051Y0348711I0000000J0000236D01*
G01*
X0103051Y0350600D01*
G75*
G02*
X0103287Y0350837I0000236J0000000D01*
G01*
X0105177Y0350837D01*
G75*
G02*
X0105413Y0350600I0000000J-000236D01*
G01*
G37*
G36*
G01*
X0088661Y0527165D02*
X0085945Y0527165D01*
G75*
G02*
X0085039Y0528071I0000000J0000906D01*
G01*
X0085039Y0533346D01*
G75*
G02*
X0085945Y0534252I0000906J0000000D01*
G01*
X0088661Y0534252D01*
G75*
G02*
X0089567Y0533346I0000000J-000906D01*
G01*
X0089567Y0528071D01*
G75*
G02*
X0088661Y0527165I-000906J0000000D01*
G01*
G37*
G36*
G01*
X0100079Y0527165D02*
X0097362Y0527165D01*
G75*
G02*
X0096457Y0528071I0000000J0000906D01*
G01*
X0096457Y0533346D01*
G75*
G02*
X0097362Y0534252I0000906J0000000D01*
G01*
X0100079Y0534252D01*
G75*
G02*
X0100984Y0533346I0000000J-000906D01*
G01*
X0100984Y0528071D01*
G75*
G02*
X0100079Y0527165I-000906J0000000D01*
G01*
G37*
G36*
G01*
X0152186Y0465007D02*
X0148052Y0465007D01*
G75*
G02*
X0147658Y0465401I0000000J0000394D01*
G01*
X0147658Y0468550D01*
G75*
G02*
X0148052Y0468944I0000394J0000000D01*
G01*
X0152186Y0468944D01*
G75*
G02*
X0152580Y0468550I0000000J-000394D01*
G01*
X0152580Y0465401D01*
G75*
G02*
X0152186Y0465007I-000394J0000000D01*
G01*
G37*
G36*
G01*
X0152186Y0472881D02*
X0148052Y0472881D01*
G75*
G02*
X0147658Y0473275I0000000J0000394D01*
G01*
X0147658Y0476424D01*
G75*
G02*
X0148052Y0476818I0000394J0000000D01*
G01*
X0152186Y0476818D01*
G75*
G02*
X0152580Y0476424I0000000J-000394D01*
G01*
X0152580Y0473275D01*
G75*
G02*
X0152186Y0472881I-000394J0000000D01*
G01*
G37*
G36*
G01*
X0147940Y0385159D02*
X0143806Y0385159D01*
G75*
G02*
X0143412Y0385553I0000000J0000394D01*
G01*
X0143412Y0388702D01*
G75*
G02*
X0143806Y0389096I0000394J0000000D01*
G01*
X0147940Y0389096D01*
G75*
G02*
X0148333Y0388702I0000000J-000394D01*
G01*
X0148333Y0385553D01*
G75*
G02*
X0147940Y0385159I-000394J0000000D01*
G01*
G37*
G36*
G01*
X0147940Y0393033D02*
X0143806Y0393033D01*
G75*
G02*
X0143412Y0393427I0000000J0000394D01*
G01*
X0143412Y0396576D01*
G75*
G02*
X0143806Y0396970I0000394J0000000D01*
G01*
X0147940Y0396970D01*
G75*
G02*
X0148333Y0396576I0000000J-000394D01*
G01*
X0148333Y0393427D01*
G75*
G02*
X0147940Y0393033I-000394J0000000D01*
G01*
G37*
G36*
G01*
X0209455Y0376360D02*
X0209455Y0380375D01*
G75*
G02*
X0209810Y0380730I0000354J0000000D01*
G01*
X0212644Y0380730D01*
G75*
G02*
X0212999Y0380375I0000000J-000354D01*
G01*
X0212999Y0376360D01*
G75*
G02*
X0212644Y0376005I-000354J0000000D01*
G01*
X0209810Y0376005D01*
G75*
G02*
X0209455Y0376360I0000000J0000354D01*
G01*
G37*
G36*
G01*
X0222448Y0376360D02*
X0222448Y0380375D01*
G75*
G02*
X0222802Y0380730I0000354J0000000D01*
G01*
X0225637Y0380730D01*
G75*
G02*
X0225991Y0380375I0000000J-000354D01*
G01*
X0225991Y0376360D01*
G75*
G02*
X0225637Y0376005I-000354J0000000D01*
G01*
X0222802Y0376005D01*
G75*
G02*
X0222448Y0376360I0000000J0000354D01*
G01*
G37*
G36*
G01*
X0156487Y0505152D02*
X0151566Y0505152D01*
G75*
G02*
X0151172Y0505546I0000000J0000394D01*
G01*
X0151172Y0508695D01*
G75*
G02*
X0151566Y0509089I0000394J0000000D01*
G01*
X0156487Y0509089D01*
G75*
G02*
X0156881Y0508695I0000000J-000394D01*
G01*
X0156881Y0505546D01*
G75*
G02*
X0156487Y0505152I-000394J0000000D01*
G01*
G37*
G36*
G01*
X0156487Y0512632D02*
X0151566Y0512632D01*
G75*
G02*
X0151172Y0513026I0000000J0000394D01*
G01*
X0151172Y0516176D01*
G75*
G02*
X0151566Y0516569I0000394J0000000D01*
G01*
X0156487Y0516569D01*
G75*
G02*
X0156881Y0516176I0000000J-000394D01*
G01*
X0156881Y0513026D01*
G75*
G02*
X0156487Y0512632I-000394J0000000D01*
G01*
G37*
G36*
G01*
X0101639Y0496986D02*
X0096717Y0496986D01*
G75*
G02*
X0096324Y0497380I0000000J0000394D01*
G01*
X0096324Y0500529D01*
G75*
G02*
X0096717Y0500923I0000394J0000000D01*
G01*
X0101639Y0500923D01*
G75*
G02*
X0102032Y0500529I0000000J-000394D01*
G01*
X0102032Y0497380D01*
G75*
G02*
X0101639Y0496986I-000394J0000000D01*
G01*
G37*
G36*
G01*
X0101639Y0504466D02*
X0096717Y0504466D01*
G75*
G02*
X0096324Y0504860I0000000J0000394D01*
G01*
X0096324Y0508010D01*
G75*
G02*
X0096717Y0508403I0000394J0000000D01*
G01*
X0101639Y0508403D01*
G75*
G02*
X0102032Y0508010I0000000J-000394D01*
G01*
X0102032Y0504860D01*
G75*
G02*
X0101639Y0504466I-000394J0000000D01*
G01*
G37*
G36*
G01*
X0157093Y0364194D02*
X0160637Y0364194D01*
G75*
G02*
X0161030Y0363801I0000000J-000394D01*
G01*
X0161030Y0360651D01*
G75*
G02*
X0160637Y0360257I-000394J0000000D01*
G01*
X0157093Y0360257D01*
G75*
G02*
X0156700Y0360651I0000000J0000394D01*
G01*
X0156700Y0363801D01*
G75*
G02*
X0157093Y0364194I0000394J0000000D01*
G01*
G37*
G36*
G01*
X0157093Y0357501D02*
X0160637Y0357501D01*
G75*
G02*
X0161030Y0357108I0000000J-000394D01*
G01*
X0161030Y0353958D01*
G75*
G02*
X0160637Y0353564I-000394J0000000D01*
G01*
X0157093Y0353564D01*
G75*
G02*
X0156700Y0353958I0000000J0000394D01*
G01*
X0156700Y0357108D01*
G75*
G02*
X0157093Y0357501I0000394J0000000D01*
G01*
G37*
G36*
G01*
X0186621Y0363980D02*
X0186621Y0362090D01*
G75*
G02*
X0186385Y0361854I-000236J0000000D01*
G01*
X0184495Y0361854D01*
G75*
G02*
X0184259Y0362090I0000000J0000236D01*
G01*
X0184259Y0363980D01*
G75*
G02*
X0184495Y0364216I0000236J0000000D01*
G01*
X0186385Y0364216D01*
G75*
G02*
X0186621Y0363980I0000000J-000236D01*
G01*
G37*
G36*
G01*
X0186621Y0355319D02*
X0186621Y0353429D01*
G75*
G02*
X0186385Y0353193I-000236J0000000D01*
G01*
X0184495Y0353193D01*
G75*
G02*
X0184259Y0353429I0000000J0000236D01*
G01*
X0184259Y0355319D01*
G75*
G02*
X0184495Y0355555I0000236J0000000D01*
G01*
X0186385Y0355555D01*
G75*
G02*
X0186621Y0355319I0000000J-000236D01*
G01*
G37*
G36*
G01*
X0158721Y0380385D02*
X0156831Y0380385D01*
G75*
G02*
X0156595Y0380621I0000000J0000236D01*
G01*
X0156595Y0382511D01*
G75*
G02*
X0156831Y0382747I0000236J0000000D01*
G01*
X0158721Y0382747D01*
G75*
G02*
X0158957Y0382511I0000000J-000236D01*
G01*
X0158957Y0380621D01*
G75*
G02*
X0158721Y0380385I-000236J0000000D01*
G01*
G37*
G36*
G01*
X0150060Y0380385D02*
X0148170Y0380385D01*
G75*
G02*
X0147934Y0380621I0000000J0000236D01*
G01*
X0147934Y0382511D01*
G75*
G02*
X0148170Y0382747I0000236J0000000D01*
G01*
X0150060Y0382747D01*
G75*
G02*
X0150296Y0382511I0000000J-000236D01*
G01*
X0150296Y0380621D01*
G75*
G02*
X0150060Y0380385I-000236J0000000D01*
G01*
G37*
G36*
G01*
X0380324Y0399655D02*
X0380324Y0403198D01*
G75*
G02*
X0380718Y0403592I0000394J0000000D01*
G01*
X0383868Y0403592D01*
G75*
G02*
X0384261Y0403198I0000000J-000394D01*
G01*
X0384261Y0399655D01*
G75*
G02*
X0383868Y0399261I-000394J0000000D01*
G01*
X0380718Y0399261D01*
G75*
G02*
X0380324Y0399655I0000000J0000394D01*
G01*
G37*
G36*
G01*
X0387017Y0399655D02*
X0387017Y0403198D01*
G75*
G02*
X0387411Y0403592I0000394J0000000D01*
G01*
X0390561Y0403592D01*
G75*
G02*
X0390954Y0403198I0000000J-000394D01*
G01*
X0390954Y0399655D01*
G75*
G02*
X0390561Y0399261I-000394J0000000D01*
G01*
X0387411Y0399261D01*
G75*
G02*
X0387017Y0399655I0000000J0000394D01*
G01*
G37*
G36*
G01*
X0149711Y0396970D02*
X0153845Y0396970D01*
G75*
G02*
X0154239Y0396576I0000000J-000394D01*
G01*
X0154239Y0393427D01*
G75*
G02*
X0153845Y0393033I-000394J0000000D01*
G01*
X0149711Y0393033D01*
G75*
G02*
X0149318Y0393427I0000000J0000394D01*
G01*
X0149318Y0396576D01*
G75*
G02*
X0149711Y0396970I0000394J0000000D01*
G01*
G37*
G36*
G01*
X0149711Y0389096D02*
X0153845Y0389096D01*
G75*
G02*
X0154239Y0388702I0000000J-000394D01*
G01*
X0154239Y0385553D01*
G75*
G02*
X0153845Y0385159I-000394J0000000D01*
G01*
X0149711Y0385159D01*
G75*
G02*
X0149318Y0385553I0000000J0000394D01*
G01*
X0149318Y0388702D01*
G75*
G02*
X0149711Y0389096I0000394J0000000D01*
G01*
G37*
G36*
G01*
X0165739Y0505139D02*
X0160818Y0505139D01*
G75*
G02*
X0160424Y0505533I0000000J0000394D01*
G01*
X0160424Y0508682D01*
G75*
G02*
X0160818Y0509076I0000394J0000000D01*
G01*
X0165739Y0509076D01*
G75*
G02*
X0166133Y0508682I0000000J-000394D01*
G01*
X0166133Y0505533D01*
G75*
G02*
X0165739Y0505139I-000394J0000000D01*
G01*
G37*
G36*
G01*
X0165739Y0512620D02*
X0160818Y0512620D01*
G75*
G02*
X0160424Y0513013I0000000J0000394D01*
G01*
X0160424Y0516163D01*
G75*
G02*
X0160818Y0516557I0000394J0000000D01*
G01*
X0165739Y0516557D01*
G75*
G02*
X0166133Y0516163I0000000J-000394D01*
G01*
X0166133Y0513013D01*
G75*
G02*
X0165739Y0512620I-000394J0000000D01*
G01*
G37*
G36*
G01*
X0084316Y0497163D02*
X0079395Y0497163D01*
G75*
G02*
X0079001Y0497557I0000000J0000394D01*
G01*
X0079001Y0500706D01*
G75*
G02*
X0079395Y0501100I0000394J0000000D01*
G01*
X0084316Y0501100D01*
G75*
G02*
X0084710Y0500706I0000000J-000394D01*
G01*
X0084710Y0497557D01*
G75*
G02*
X0084316Y0497163I-000394J0000000D01*
G01*
G37*
G36*
G01*
X0084316Y0504644D02*
X0079395Y0504644D01*
G75*
G02*
X0079001Y0505037I0000000J0000394D01*
G01*
X0079001Y0508187D01*
G75*
G02*
X0079395Y0508581I0000394J0000000D01*
G01*
X0084316Y0508581D01*
G75*
G02*
X0084710Y0508187I0000000J-000394D01*
G01*
X0084710Y0505037D01*
G75*
G02*
X0084316Y0504644I-000394J0000000D01*
G01*
G37*
G36*
G01*
X0182970Y0505041D02*
X0178049Y0505041D01*
G75*
G02*
X0177655Y0505434I0000000J0000394D01*
G01*
X0177655Y0508584D01*
G75*
G02*
X0178049Y0508978I0000394J0000000D01*
G01*
X0182970Y0508978D01*
G75*
G02*
X0183364Y0508584I0000000J-000394D01*
G01*
X0183364Y0505434D01*
G75*
G02*
X0182970Y0505041I-000394J0000000D01*
G01*
G37*
G36*
G01*
X0182970Y0512521D02*
X0178049Y0512521D01*
G75*
G02*
X0177655Y0512915I0000000J0000394D01*
G01*
X0177655Y0516064D01*
G75*
G02*
X0178049Y0516458I0000394J0000000D01*
G01*
X0182970Y0516458D01*
G75*
G02*
X0183364Y0516064I0000000J-000394D01*
G01*
X0183364Y0512915D01*
G75*
G02*
X0182970Y0512521I-000394J0000000D01*
G01*
G37*
G36*
G01*
X0531251Y0476576D02*
X0526329Y0476576D01*
G75*
G02*
X0525936Y0476970I0000000J0000394D01*
G01*
X0525936Y0480119D01*
G75*
G02*
X0526329Y0480513I0000394J0000000D01*
G01*
X0531251Y0480513D01*
G75*
G02*
X0531644Y0480119I0000000J-000394D01*
G01*
X0531644Y0476970D01*
G75*
G02*
X0531251Y0476576I-000394J0000000D01*
G01*
G37*
G36*
G01*
X0531251Y0484057D02*
X0526329Y0484057D01*
G75*
G02*
X0525936Y0484450I0000000J0000394D01*
G01*
X0525936Y0487600D01*
G75*
G02*
X0526329Y0487994I0000394J0000000D01*
G01*
X0531251Y0487994D01*
G75*
G02*
X0531644Y0487600I0000000J-000394D01*
G01*
X0531644Y0484450D01*
G75*
G02*
X0531251Y0484057I-000394J0000000D01*
G01*
G37*
G36*
G01*
X0178402Y0023098D02*
X0178402Y0024988D01*
G75*
G02*
X0178639Y0025224I0000236J0000000D01*
G01*
X0180528Y0025224D01*
G75*
G02*
X0180765Y0024988I0000000J-000236D01*
G01*
X0180765Y0023098D01*
G75*
G02*
X0180528Y0022862I-000236J0000000D01*
G01*
X0178639Y0022862D01*
G75*
G02*
X0178402Y0023098I0000000J0000236D01*
G01*
G37*
G36*
G01*
X0178402Y0031759D02*
X0178402Y0033649D01*
G75*
G02*
X0178639Y0033885I0000236J0000000D01*
G01*
X0180528Y0033885D01*
G75*
G02*
X0180765Y0033649I0000000J-000236D01*
G01*
X0180765Y0031759D01*
G75*
G02*
X0180528Y0031523I-000236J0000000D01*
G01*
X0178639Y0031523D01*
G75*
G02*
X0178402Y0031759I0000000J0000236D01*
G01*
G37*
G36*
G01*
X0532192Y0502347D02*
X0527270Y0502347D01*
G75*
G02*
X0526877Y0502740I0000000J0000394D01*
G01*
X0526877Y0505890D01*
G75*
G02*
X0527270Y0506284I0000394J0000000D01*
G01*
X0532192Y0506284D01*
G75*
G02*
X0532585Y0505890I0000000J-000394D01*
G01*
X0532585Y0502740D01*
G75*
G02*
X0532192Y0502347I-000394J0000000D01*
G01*
G37*
G36*
G01*
X0532192Y0509827D02*
X0527270Y0509827D01*
G75*
G02*
X0526877Y0510221I0000000J0000394D01*
G01*
X0526877Y0513370D01*
G75*
G02*
X0527270Y0513764I0000394J0000000D01*
G01*
X0532192Y0513764D01*
G75*
G02*
X0532585Y0513370I0000000J-000394D01*
G01*
X0532585Y0510221D01*
G75*
G02*
X0532192Y0509827I-000394J0000000D01*
G01*
G37*
G36*
G01*
X0173432Y0393466D02*
X0173432Y0396143D01*
G75*
G02*
X0173766Y0396478I0000335J0000000D01*
G01*
X0176444Y0396478D01*
G75*
G02*
X0176778Y0396143I0000000J-000335D01*
G01*
X0176778Y0393466D01*
G75*
G02*
X0176444Y0393131I-000335J0000000D01*
G01*
X0173766Y0393131D01*
G75*
G02*
X0173432Y0393466I0000000J0000335D01*
G01*
G37*
G36*
G01*
X0179652Y0393466D02*
X0179652Y0396143D01*
G75*
G02*
X0179987Y0396478I0000335J0000000D01*
G01*
X0182664Y0396478D01*
G75*
G02*
X0182999Y0396143I0000000J-000335D01*
G01*
X0182999Y0393466D01*
G75*
G02*
X0182664Y0393131I-000335J0000000D01*
G01*
X0179987Y0393131D01*
G75*
G02*
X0179652Y0393466I0000000J0000335D01*
G01*
G37*
G36*
G01*
X0173392Y0383879D02*
X0171503Y0383879D01*
G75*
G02*
X0171266Y0384116I0000000J0000236D01*
G01*
X0171266Y0386005D01*
G75*
G02*
X0171503Y0386241I0000236J0000000D01*
G01*
X0173392Y0386241D01*
G75*
G02*
X0173629Y0386005I0000000J-000236D01*
G01*
X0173629Y0384116D01*
G75*
G02*
X0173392Y0383879I-000236J0000000D01*
G01*
G37*
G36*
G01*
X0164731Y0383879D02*
X0162841Y0383879D01*
G75*
G02*
X0162605Y0384116I0000000J0000236D01*
G01*
X0162605Y0386005D01*
G75*
G02*
X0162841Y0386241I0000236J0000000D01*
G01*
X0164731Y0386241D01*
G75*
G02*
X0164967Y0386005I0000000J-000236D01*
G01*
X0164967Y0384116D01*
G75*
G02*
X0164731Y0383879I-000236J0000000D01*
G01*
G37*
G36*
G01*
X0420873Y0514490D02*
X0425794Y0514490D01*
G75*
G02*
X0426188Y0514096I0000000J-000394D01*
G01*
X0426188Y0510946D01*
G75*
G02*
X0425794Y0510553I-000394J0000000D01*
G01*
X0420873Y0510553D01*
G75*
G02*
X0420479Y0510946I0000000J0000394D01*
G01*
X0420479Y0514096D01*
G75*
G02*
X0420873Y0514490I0000394J0000000D01*
G01*
G37*
G36*
G01*
X0420873Y0507009D02*
X0425794Y0507009D01*
G75*
G02*
X0426188Y0506615I0000000J-000394D01*
G01*
X0426188Y0503466D01*
G75*
G02*
X0425794Y0503072I-000394J0000000D01*
G01*
X0420873Y0503072D01*
G75*
G02*
X0420479Y0503466I0000000J0000394D01*
G01*
X0420479Y0506615D01*
G75*
G02*
X0420873Y0507009I0000394J0000000D01*
G01*
G37*
G36*
G01*
X0282389Y0037167D02*
X0282389Y0040238D01*
G75*
G02*
X0282664Y0040513I0000276J0000000D01*
G01*
X0284869Y0040513D01*
G75*
G02*
X0285144Y0040238I0000000J-000276D01*
G01*
X0285144Y0037167D01*
G75*
G02*
X0284869Y0036891I-000276J0000000D01*
G01*
X0282664Y0036891D01*
G75*
G02*
X0282389Y0037167I0000000J0000276D01*
G01*
G37*
G36*
G01*
X0288688Y0037167D02*
X0288688Y0040238D01*
G75*
G02*
X0288963Y0040513I0000276J0000000D01*
G01*
X0291168Y0040513D01*
G75*
G02*
X0291444Y0040238I0000000J-000276D01*
G01*
X0291444Y0037167D01*
G75*
G02*
X0291168Y0036891I-000276J0000000D01*
G01*
X0288963Y0036891D01*
G75*
G02*
X0288688Y0037167I0000000J0000276D01*
G01*
G37*
G36*
G01*
X0538609Y0057462D02*
X0538609Y0054785D01*
G75*
G02*
X0538274Y0054450I-000335J0000000D01*
G01*
X0535597Y0054450D01*
G75*
G02*
X0535263Y0054785I0000000J0000335D01*
G01*
X0535263Y0057462D01*
G75*
G02*
X0535597Y0057797I0000335J0000000D01*
G01*
X0538274Y0057797D01*
G75*
G02*
X0538609Y0057462I0000000J-000335D01*
G01*
G37*
G36*
G01*
X0532389Y0057462D02*
X0532389Y0054785D01*
G75*
G02*
X0532054Y0054450I-000335J0000000D01*
G01*
X0529377Y0054450D01*
G75*
G02*
X0529042Y0054785I0000000J0000335D01*
G01*
X0529042Y0057462D01*
G75*
G02*
X0529377Y0057797I0000335J0000000D01*
G01*
X0532054Y0057797D01*
G75*
G02*
X0532389Y0057462I0000000J-000335D01*
G01*
G37*
G36*
G01*
X0404931Y0403159D02*
X0404931Y0400088D01*
G75*
G02*
X0404655Y0399813I-000276J0000000D01*
G01*
X0402450Y0399813D01*
G75*
G02*
X0402175Y0400088I0000000J0000276D01*
G01*
X0402175Y0403159D01*
G75*
G02*
X0402450Y0403435I0000276J0000000D01*
G01*
X0404655Y0403435D01*
G75*
G02*
X0404931Y0403159I0000000J-000276D01*
G01*
G37*
G36*
G01*
X0398631Y0403159D02*
X0398631Y0400088D01*
G75*
G02*
X0398356Y0399813I-000276J0000000D01*
G01*
X0396151Y0399813D01*
G75*
G02*
X0395876Y0400088I0000000J0000276D01*
G01*
X0395876Y0403159D01*
G75*
G02*
X0396151Y0403435I0000276J0000000D01*
G01*
X0398356Y0403435D01*
G75*
G02*
X0398631Y0403159I0000000J-000276D01*
G01*
G37*
G36*
G01*
X0075753Y0497360D02*
X0070832Y0497360D01*
G75*
G02*
X0070438Y0497754I0000000J0000394D01*
G01*
X0070438Y0500903D01*
G75*
G02*
X0070832Y0501297I0000394J0000000D01*
G01*
X0075753Y0501297D01*
G75*
G02*
X0076147Y0500903I0000000J-000394D01*
G01*
X0076147Y0497754D01*
G75*
G02*
X0075753Y0497360I-000394J0000000D01*
G01*
G37*
G36*
G01*
X0075753Y0504840D02*
X0070832Y0504840D01*
G75*
G02*
X0070438Y0505234I0000000J0000394D01*
G01*
X0070438Y0508384D01*
G75*
G02*
X0070832Y0508777I0000394J0000000D01*
G01*
X0075753Y0508777D01*
G75*
G02*
X0076147Y0508384I0000000J-000394D01*
G01*
X0076147Y0505234D01*
G75*
G02*
X0075753Y0504840I-000394J0000000D01*
G01*
G37*
G36*
G01*
X0412310Y0503171D02*
X0407389Y0503171D01*
G75*
G02*
X0406995Y0503564I0000000J0000394D01*
G01*
X0406995Y0506714D01*
G75*
G02*
X0407389Y0507108I0000394J0000000D01*
G01*
X0412310Y0507108D01*
G75*
G02*
X0412703Y0506714I0000000J-000394D01*
G01*
X0412703Y0503564D01*
G75*
G02*
X0412310Y0503171I-000394J0000000D01*
G01*
G37*
G36*
G01*
X0412310Y0510651D02*
X0407389Y0510651D01*
G75*
G02*
X0406995Y0511045I0000000J0000394D01*
G01*
X0406995Y0514194D01*
G75*
G02*
X0407389Y0514588I0000394J0000000D01*
G01*
X0412310Y0514588D01*
G75*
G02*
X0412703Y0514194I0000000J-000394D01*
G01*
X0412703Y0511045D01*
G75*
G02*
X0412310Y0510651I-000394J0000000D01*
G01*
G37*
G36*
G01*
X0480830Y0191696D02*
X0477287Y0191696D01*
G75*
G02*
X0476893Y0192090I0000000J0000394D01*
G01*
X0476893Y0195240D01*
G75*
G02*
X0477287Y0195633I0000394J0000000D01*
G01*
X0480830Y0195633D01*
G75*
G02*
X0481224Y0195240I0000000J-000394D01*
G01*
X0481224Y0192090D01*
G75*
G02*
X0480830Y0191696I-000394J0000000D01*
G01*
G37*
G36*
G01*
X0480830Y0198389D02*
X0477287Y0198389D01*
G75*
G02*
X0476893Y0198783I0000000J0000394D01*
G01*
X0476893Y0201932D01*
G75*
G02*
X0477287Y0202326I0000394J0000000D01*
G01*
X0480830Y0202326D01*
G75*
G02*
X0481224Y0201932I0000000J-000394D01*
G01*
X0481224Y0198783D01*
G75*
G02*
X0480830Y0198389I-000394J0000000D01*
G01*
G37*
G36*
G01*
X0269732Y0313213D02*
X0273275Y0313213D01*
G75*
G02*
X0273669Y0312819I0000000J-000394D01*
G01*
X0273669Y0309670D01*
G75*
G02*
X0273275Y0309276I-000394J0000000D01*
G01*
X0269732Y0309276D01*
G75*
G02*
X0269338Y0309670I0000000J0000394D01*
G01*
X0269338Y0312819D01*
G75*
G02*
X0269732Y0313213I0000394J0000000D01*
G01*
G37*
G36*
G01*
X0269732Y0306520D02*
X0273275Y0306520D01*
G75*
G02*
X0273669Y0306126I0000000J-000394D01*
G01*
X0273669Y0302977D01*
G75*
G02*
X0273275Y0302583I-000394J0000000D01*
G01*
X0269732Y0302583D01*
G75*
G02*
X0269338Y0302977I0000000J0000394D01*
G01*
X0269338Y0306126D01*
G75*
G02*
X0269732Y0306520I0000394J0000000D01*
G01*
G37*
G36*
G01*
X0510085Y0318584D02*
X0512763Y0318584D01*
G75*
G02*
X0513097Y0318249I0000000J-000335D01*
G01*
X0513097Y0315572D01*
G75*
G02*
X0512763Y0315238I-000335J0000000D01*
G01*
X0510085Y0315238D01*
G75*
G02*
X0509751Y0315572I0000000J0000335D01*
G01*
X0509751Y0318249D01*
G75*
G02*
X0510085Y0318584I0000335J0000000D01*
G01*
G37*
G36*
G01*
X0510085Y0312364D02*
X0512763Y0312364D01*
G75*
G02*
X0513097Y0312029I0000000J-000335D01*
G01*
X0513097Y0309352D01*
G75*
G02*
X0512763Y0309017I-000335J0000000D01*
G01*
X0510085Y0309017D01*
G75*
G02*
X0509751Y0309352I0000000J0000335D01*
G01*
X0509751Y0312029D01*
G75*
G02*
X0510085Y0312364I0000335J0000000D01*
G01*
G37*
G36*
G01*
X0489491Y0217425D02*
X0489491Y0214787D01*
G75*
G02*
X0489236Y0214531I-000256J0000000D01*
G01*
X0487188Y0214531D01*
G75*
G02*
X0486932Y0214787I0000000J0000256D01*
G01*
X0486932Y0217425D01*
G75*
G02*
X0487188Y0217681I0000256J0000000D01*
G01*
X0489236Y0217681D01*
G75*
G02*
X0489491Y0217425I0000000J-000256D01*
G01*
G37*
G36*
G01*
X0485653Y0217503D02*
X0485653Y0214708D01*
G75*
G02*
X0485476Y0214531I-000177J0000000D01*
G01*
X0484058Y0214531D01*
G75*
G02*
X0483881Y0214708I0000000J0000177D01*
G01*
X0483881Y0217503D01*
G75*
G02*
X0484058Y0217681I0000177J0000000D01*
G01*
X0485476Y0217681D01*
G75*
G02*
X0485653Y0217503I0000000J-000177D01*
G01*
G37*
G36*
G01*
X0482503Y0217503D02*
X0482503Y0214708D01*
G75*
G02*
X0482326Y0214531I-000177J0000000D01*
G01*
X0480909Y0214531D01*
G75*
G02*
X0480732Y0214708I0000000J0000177D01*
G01*
X0480732Y0217503D01*
G75*
G02*
X0480909Y0217681I0000177J0000000D01*
G01*
X0482326Y0217681D01*
G75*
G02*
X0482503Y0217503I0000000J-000177D01*
G01*
G37*
G36*
G01*
X0479452Y0217425D02*
X0479452Y0214787D01*
G75*
G02*
X0479196Y0214531I-000256J0000000D01*
G01*
X0477149Y0214531D01*
G75*
G02*
X0476893Y0214787I0000000J0000256D01*
G01*
X0476893Y0217425D01*
G75*
G02*
X0477149Y0217681I0000256J0000000D01*
G01*
X0479196Y0217681D01*
G75*
G02*
X0479452Y0217425I0000000J-000256D01*
G01*
G37*
G36*
G01*
X0479452Y0210338D02*
X0479452Y0207700D01*
G75*
G02*
X0479196Y0207444I-000256J0000000D01*
G01*
X0477149Y0207444D01*
G75*
G02*
X0476893Y0207700I0000000J0000256D01*
G01*
X0476893Y0210338D01*
G75*
G02*
X0477149Y0210594I0000256J0000000D01*
G01*
X0479196Y0210594D01*
G75*
G02*
X0479452Y0210338I0000000J-000256D01*
G01*
G37*
G36*
G01*
X0482503Y0210417D02*
X0482503Y0207621D01*
G75*
G02*
X0482326Y0207444I-000177J0000000D01*
G01*
X0480909Y0207444D01*
G75*
G02*
X0480732Y0207621I0000000J0000177D01*
G01*
X0480732Y0210417D01*
G75*
G02*
X0480909Y0210594I0000177J0000000D01*
G01*
X0482326Y0210594D01*
G75*
G02*
X0482503Y0210417I0000000J-000177D01*
G01*
G37*
G36*
G01*
X0485653Y0210417D02*
X0485653Y0207621D01*
G75*
G02*
X0485476Y0207444I-000177J0000000D01*
G01*
X0484058Y0207444D01*
G75*
G02*
X0483881Y0207621I0000000J0000177D01*
G01*
X0483881Y0210417D01*
G75*
G02*
X0484058Y0210594I0000177J0000000D01*
G01*
X0485476Y0210594D01*
G75*
G02*
X0485653Y0210417I0000000J-000177D01*
G01*
G37*
G36*
G01*
X0489491Y0210338D02*
X0489491Y0207700D01*
G75*
G02*
X0489236Y0207444I-000256J0000000D01*
G01*
X0487188Y0207444D01*
G75*
G02*
X0486932Y0207700I0000000J0000256D01*
G01*
X0486932Y0210338D01*
G75*
G02*
X0487188Y0210594I0000256J0000000D01*
G01*
X0489236Y0210594D01*
G75*
G02*
X0489491Y0210338I0000000J-000256D01*
G01*
G37*
G36*
G01*
X0229495Y0272836D02*
X0233511Y0272836D01*
G75*
G02*
X0233865Y0272482I0000000J-000354D01*
G01*
X0233865Y0269647D01*
G75*
G02*
X0233511Y0269293I-000354J0000000D01*
G01*
X0229495Y0269293D01*
G75*
G02*
X0229140Y0269647I0000000J0000354D01*
G01*
X0229140Y0272482D01*
G75*
G02*
X0229495Y0272836I0000354J0000000D01*
G01*
G37*
G36*
G01*
X0229495Y0259844D02*
X0233511Y0259844D01*
G75*
G02*
X0233865Y0259490I0000000J-000354D01*
G01*
X0233865Y0256655D01*
G75*
G02*
X0233511Y0256301I-000354J0000000D01*
G01*
X0229495Y0256301D01*
G75*
G02*
X0229140Y0256655I0000000J0000354D01*
G01*
X0229140Y0259490D01*
G75*
G02*
X0229495Y0259844I0000354J0000000D01*
G01*
G37*
G36*
G01*
X0168806Y0377029D02*
X0168806Y0374391D01*
G75*
G02*
X0168550Y0374135I-000256J0000000D01*
G01*
X0166503Y0374135D01*
G75*
G02*
X0166247Y0374391I0000000J0000256D01*
G01*
X0166247Y0377029D01*
G75*
G02*
X0166503Y0377285I0000256J0000000D01*
G01*
X0168550Y0377285D01*
G75*
G02*
X0168806Y0377029I0000000J-000256D01*
G01*
G37*
G36*
G01*
X0164967Y0377108D02*
X0164967Y0374312D01*
G75*
G02*
X0164790Y0374135I-000177J0000000D01*
G01*
X0163373Y0374135D01*
G75*
G02*
X0163196Y0374312I0000000J0000177D01*
G01*
X0163196Y0377108D01*
G75*
G02*
X0163373Y0377285I0000177J0000000D01*
G01*
X0164790Y0377285D01*
G75*
G02*
X0164967Y0377108I0000000J-000177D01*
G01*
G37*
G36*
G01*
X0161818Y0377108D02*
X0161818Y0374312D01*
G75*
G02*
X0161640Y0374135I-000177J0000000D01*
G01*
X0160223Y0374135D01*
G75*
G02*
X0160046Y0374312I0000000J0000177D01*
G01*
X0160046Y0377108D01*
G75*
G02*
X0160223Y0377285I0000177J0000000D01*
G01*
X0161640Y0377285D01*
G75*
G02*
X0161818Y0377108I0000000J-000177D01*
G01*
G37*
G36*
G01*
X0158766Y0377029D02*
X0158766Y0374391D01*
G75*
G02*
X0158511Y0374135I-000256J0000000D01*
G01*
X0156463Y0374135D01*
G75*
G02*
X0156207Y0374391I0000000J0000256D01*
G01*
X0156207Y0377029D01*
G75*
G02*
X0156463Y0377285I0000256J0000000D01*
G01*
X0158511Y0377285D01*
G75*
G02*
X0158766Y0377029I0000000J-000256D01*
G01*
G37*
G36*
G01*
X0158766Y0369942D02*
X0158766Y0367304D01*
G75*
G02*
X0158511Y0367049I-000256J0000000D01*
G01*
X0156463Y0367049D01*
G75*
G02*
X0156207Y0367304I0000000J0000256D01*
G01*
X0156207Y0369942D01*
G75*
G02*
X0156463Y0370198I0000256J0000000D01*
G01*
X0158511Y0370198D01*
G75*
G02*
X0158766Y0369942I0000000J-000256D01*
G01*
G37*
G36*
G01*
X0161818Y0370021D02*
X0161818Y0367226D01*
G75*
G02*
X0161640Y0367049I-000177J0000000D01*
G01*
X0160223Y0367049D01*
G75*
G02*
X0160046Y0367226I0000000J0000177D01*
G01*
X0160046Y0370021D01*
G75*
G02*
X0160223Y0370198I0000177J0000000D01*
G01*
X0161640Y0370198D01*
G75*
G02*
X0161818Y0370021I0000000J-000177D01*
G01*
G37*
G36*
G01*
X0164967Y0370021D02*
X0164967Y0367226D01*
G75*
G02*
X0164790Y0367049I-000177J0000000D01*
G01*
X0163373Y0367049D01*
G75*
G02*
X0163196Y0367226I0000000J0000177D01*
G01*
X0163196Y0370021D01*
G75*
G02*
X0163373Y0370198I0000177J0000000D01*
G01*
X0164790Y0370198D01*
G75*
G02*
X0164967Y0370021I0000000J-000177D01*
G01*
G37*
G36*
G01*
X0168806Y0369942D02*
X0168806Y0367304D01*
G75*
G02*
X0168550Y0367049I-000256J0000000D01*
G01*
X0166503Y0367049D01*
G75*
G02*
X0166247Y0367304I0000000J0000256D01*
G01*
X0166247Y0369942D01*
G75*
G02*
X0166503Y0370198I0000256J0000000D01*
G01*
X0168550Y0370198D01*
G75*
G02*
X0168806Y0369942I0000000J-000256D01*
G01*
G37*
G36*
G01*
X0234889Y0308801D02*
X0230873Y0308801D01*
G75*
G02*
X0230518Y0309155I0000000J0000354D01*
G01*
X0230518Y0311990D01*
G75*
G02*
X0230873Y0312344I0000354J0000000D01*
G01*
X0234889Y0312344D01*
G75*
G02*
X0235243Y0311990I0000000J-000354D01*
G01*
X0235243Y0309155D01*
G75*
G02*
X0234889Y0308801I-000354J0000000D01*
G01*
G37*
G36*
G01*
X0234889Y0321793D02*
X0230873Y0321793D01*
G75*
G02*
X0230518Y0322147I0000000J0000354D01*
G01*
X0230518Y0324982D01*
G75*
G02*
X0230873Y0325336I0000354J0000000D01*
G01*
X0234889Y0325336D01*
G75*
G02*
X0235243Y0324982I0000000J-000354D01*
G01*
X0235243Y0322147D01*
G75*
G02*
X0234889Y0321793I-000354J0000000D01*
G01*
G37*
G36*
G01*
X0282701Y0021025D02*
X0282701Y0024096D01*
G75*
G02*
X0282977Y0024371I0000276J0000000D01*
G01*
X0285181Y0024371D01*
G75*
G02*
X0285457Y0024096I0000000J-000276D01*
G01*
X0285457Y0021025D01*
G75*
G02*
X0285181Y0020749I-000276J0000000D01*
G01*
X0282977Y0020749D01*
G75*
G02*
X0282701Y0021025I0000000J0000276D01*
G01*
G37*
G36*
G01*
X0289000Y0021025D02*
X0289000Y0024096D01*
G75*
G02*
X0289276Y0024371I0000276J0000000D01*
G01*
X0291480Y0024371D01*
G75*
G02*
X0291756Y0024096I0000000J-000276D01*
G01*
X0291756Y0021025D01*
G75*
G02*
X0291480Y0020749I-000276J0000000D01*
G01*
X0289276Y0020749D01*
G75*
G02*
X0289000Y0021025I0000000J0000276D01*
G01*
G37*
G36*
G01*
X0147629Y0505053D02*
X0142708Y0505053D01*
G75*
G02*
X0142314Y0505447I0000000J0000394D01*
G01*
X0142314Y0508597D01*
G75*
G02*
X0142708Y0508990I0000394J0000000D01*
G01*
X0147629Y0508990D01*
G75*
G02*
X0148023Y0508597I0000000J-000394D01*
G01*
X0148023Y0505447D01*
G75*
G02*
X0147629Y0505053I-000394J0000000D01*
G01*
G37*
G36*
G01*
X0147629Y0512534D02*
X0142708Y0512534D01*
G75*
G02*
X0142314Y0512927I0000000J0000394D01*
G01*
X0142314Y0516077D01*
G75*
G02*
X0142708Y0516471I0000394J0000000D01*
G01*
X0147629Y0516471D01*
G75*
G02*
X0148023Y0516077I0000000J-000394D01*
G01*
X0148023Y0512927D01*
G75*
G02*
X0147629Y0512534I-000394J0000000D01*
G01*
G37*
G36*
G01*
X0468018Y0502580D02*
X0463097Y0502580D01*
G75*
G02*
X0462703Y0502974I0000000J0000394D01*
G01*
X0462703Y0506123D01*
G75*
G02*
X0463097Y0506517I0000394J0000000D01*
G01*
X0468018Y0506517D01*
G75*
G02*
X0468412Y0506123I0000000J-000394D01*
G01*
X0468412Y0502974D01*
G75*
G02*
X0468018Y0502580I-000394J0000000D01*
G01*
G37*
G36*
G01*
X0468018Y0510060D02*
X0463097Y0510060D01*
G75*
G02*
X0462703Y0510454I0000000J0000394D01*
G01*
X0462703Y0513604D01*
G75*
G02*
X0463097Y0513997I0000394J0000000D01*
G01*
X0468018Y0513997D01*
G75*
G02*
X0468412Y0513604I0000000J-000394D01*
G01*
X0468412Y0510454D01*
G75*
G02*
X0468018Y0510060I-000394J0000000D01*
G01*
G37*
G36*
G01*
X0494734Y0177667D02*
X0497411Y0177667D01*
G75*
G02*
X0497746Y0177332I0000000J-000335D01*
G01*
X0497746Y0174655D01*
G75*
G02*
X0497411Y0174320I-000335J0000000D01*
G01*
X0494734Y0174320D01*
G75*
G02*
X0494399Y0174655I0000000J0000335D01*
G01*
X0494399Y0177332D01*
G75*
G02*
X0494734Y0177667I0000335J0000000D01*
G01*
G37*
G36*
G01*
X0494734Y0171446D02*
X0497411Y0171446D01*
G75*
G02*
X0497746Y0171112I0000000J-000335D01*
G01*
X0497746Y0168435D01*
G75*
G02*
X0497411Y0168100I-000335J0000000D01*
G01*
X0494734Y0168100D01*
G75*
G02*
X0494399Y0168435I0000000J0000335D01*
G01*
X0494399Y0171112D01*
G75*
G02*
X0494734Y0171446I0000335J0000000D01*
G01*
G37*
G36*
G01*
X0517717Y0487894D02*
X0522638Y0487894D01*
G75*
G02*
X0523031Y0487500I0000000J-000394D01*
G01*
X0523031Y0484350D01*
G75*
G02*
X0522638Y0483957I-000394J0000000D01*
G01*
X0517717Y0483957D01*
G75*
G02*
X0517323Y0484350I0000000J0000394D01*
G01*
X0517323Y0487500D01*
G75*
G02*
X0517717Y0487894I0000394J0000000D01*
G01*
G37*
G36*
G01*
X0517717Y0480413D02*
X0522638Y0480413D01*
G75*
G02*
X0523031Y0480020I0000000J-000394D01*
G01*
X0523031Y0476870D01*
G75*
G02*
X0522638Y0476476I-000394J0000000D01*
G01*
X0517717Y0476476D01*
G75*
G02*
X0517323Y0476870I0000000J0000394D01*
G01*
X0517323Y0480020D01*
G75*
G02*
X0517717Y0480413I0000394J0000000D01*
G01*
G37*
G36*
G01*
X0158091Y0465007D02*
X0153957Y0465007D01*
G75*
G02*
X0153564Y0465401I0000000J0000394D01*
G01*
X0153564Y0468550D01*
G75*
G02*
X0153957Y0468944I0000394J0000000D01*
G01*
X0158091Y0468944D01*
G75*
G02*
X0158485Y0468550I0000000J-000394D01*
G01*
X0158485Y0465401D01*
G75*
G02*
X0158091Y0465007I-000394J0000000D01*
G01*
G37*
G36*
G01*
X0158091Y0472881D02*
X0153957Y0472881D01*
G75*
G02*
X0153564Y0473275I0000000J0000394D01*
G01*
X0153564Y0476424D01*
G75*
G02*
X0153957Y0476818I0000394J0000000D01*
G01*
X0158091Y0476818D01*
G75*
G02*
X0158485Y0476424I0000000J-000394D01*
G01*
X0158485Y0473275D01*
G75*
G02*
X0158091Y0472881I-000394J0000000D01*
G01*
G37*
G36*
G01*
X0169902Y0465007D02*
X0165768Y0465007D01*
G75*
G02*
X0165375Y0465401I0000000J0000394D01*
G01*
X0165375Y0468550D01*
G75*
G02*
X0165768Y0468944I0000394J0000000D01*
G01*
X0169902Y0468944D01*
G75*
G02*
X0170296Y0468550I0000000J-000394D01*
G01*
X0170296Y0465401D01*
G75*
G02*
X0169902Y0465007I-000394J0000000D01*
G01*
G37*
G36*
G01*
X0169902Y0472881D02*
X0165768Y0472881D01*
G75*
G02*
X0165375Y0473275I0000000J0000394D01*
G01*
X0165375Y0476424D01*
G75*
G02*
X0165768Y0476818I0000394J0000000D01*
G01*
X0169902Y0476818D01*
G75*
G02*
X0170296Y0476424I0000000J-000394D01*
G01*
X0170296Y0473275D01*
G75*
G02*
X0169902Y0472881I-000394J0000000D01*
G01*
G37*
G36*
G01*
X0485046Y0476399D02*
X0480125Y0476399D01*
G75*
G02*
X0479731Y0476793I0000000J0000394D01*
G01*
X0479731Y0479942D01*
G75*
G02*
X0480125Y0480336I0000394J0000000D01*
G01*
X0485046Y0480336D01*
G75*
G02*
X0485440Y0479942I0000000J-000394D01*
G01*
X0485440Y0476793D01*
G75*
G02*
X0485046Y0476399I-000394J0000000D01*
G01*
G37*
G36*
G01*
X0485046Y0483879D02*
X0480125Y0483879D01*
G75*
G02*
X0479731Y0484273I0000000J0000394D01*
G01*
X0479731Y0487423D01*
G75*
G02*
X0480125Y0487816I0000394J0000000D01*
G01*
X0485046Y0487816D01*
G75*
G02*
X0485440Y0487423I0000000J-000394D01*
G01*
X0485440Y0484273D01*
G75*
G02*
X0485046Y0483879I-000394J0000000D01*
G01*
G37*
G36*
G01*
X0279131Y0312971D02*
X0279131Y0311081D01*
G75*
G02*
X0278895Y0310845I-000236J0000000D01*
G01*
X0277005Y0310845D01*
G75*
G02*
X0276769Y0311081I0000000J0000236D01*
G01*
X0276769Y0312971D01*
G75*
G02*
X0277005Y0313207I0000236J0000000D01*
G01*
X0278895Y0313207D01*
G75*
G02*
X0279131Y0312971I0000000J-000236D01*
G01*
G37*
G36*
G01*
X0279131Y0304309D02*
X0279131Y0302420D01*
G75*
G02*
X0278895Y0302183I-000236J0000000D01*
G01*
X0277005Y0302183D01*
G75*
G02*
X0276769Y0302420I0000000J0000236D01*
G01*
X0276769Y0304309D01*
G75*
G02*
X0277005Y0304546I0000236J0000000D01*
G01*
X0278895Y0304546D01*
G75*
G02*
X0279131Y0304309I0000000J-000236D01*
G01*
G37*
X0057529Y0287008D03*
X0070938Y0228445D03*
X0073081Y0380787D03*
X0065600Y0380787D03*
X0078820Y0235138D03*
D182*
X0149455Y0404155D03*
X0154455Y0404155D03*
X0159455Y0404155D03*
X0164455Y0404155D03*
X0169455Y0404155D03*
X0174455Y0404155D03*
X0179455Y0404155D03*
X0184455Y0404155D03*
X0189455Y0404155D03*
X0194455Y0404155D03*
X0194455Y0456123D03*
X0189455Y0456123D03*
X0184455Y0456123D03*
X0179455Y0456123D03*
X0174455Y0456123D03*
X0169455Y0456123D03*
X0164455Y0456123D03*
X0159455Y0456123D03*
X0154455Y0456123D03*
X0149455Y0456123D03*
D329*
X0143955Y0430139D03*
D158*
X0171955Y0430139D03*
D329*
X0199955Y0430139D03*
G36*
G01*
X0059080Y0517851D02*
X0056364Y0517851D01*
G75*
G02*
X0055458Y0518757I0000000J0000906D01*
G01*
X0055458Y0524032D01*
G75*
G02*
X0056364Y0524938I0000906J0000000D01*
G01*
X0059080Y0524938D01*
G75*
G02*
X0059986Y0524032I0000000J-000906D01*
G01*
X0059986Y0518757D01*
G75*
G02*
X0059080Y0517851I-000906J0000000D01*
G01*
G37*
G36*
G01*
X0070498Y0517851D02*
X0067781Y0517851D01*
G75*
G02*
X0066876Y0518757I0000000J0000906D01*
G01*
X0066876Y0524032D01*
G75*
G02*
X0067781Y0524938I0000906J0000000D01*
G01*
X0070498Y0524938D01*
G75*
G02*
X0071403Y0524032I0000000J-000906D01*
G01*
X0071403Y0518757D01*
G75*
G02*
X0070498Y0517851I-000906J0000000D01*
G01*
G37*
X0456447Y0297579D02*
G01*
G75*
D394*
X0438140Y0281044D02*
D03*
X0438140Y0288524D02*
D03*
D395*
X0447786Y0244921D02*
D03*
X0447786Y0262638D02*
D03*
D396*
X0356152Y0291280D02*
D03*
X0356152Y0284981D02*
D03*
D404*
X0439419Y0294036D02*
D03*
X0446900Y0294036D02*
D03*
D250*
X0443652Y0282225D02*
D03*
X0443652Y0288524D02*
D03*
D399*
X0341683Y0266575D02*
D03*
X0341683Y0262835D02*
D03*
X0341683Y0259095D02*
D03*
X0351132Y0259095D02*
D03*
X0351132Y0262835D02*
D03*
X0351132Y0266575D02*
D03*
X0418849Y0266575D02*
D03*
X0418849Y0262835D02*
D03*
X0418849Y0259095D02*
D03*
X0409400Y0259095D02*
D03*
X0409400Y0262835D02*
D03*
X0409400Y0266575D02*
D03*
X0426329Y0266575D02*
D03*
X0426329Y0262835D02*
D03*
X0426329Y0259095D02*
D03*
X0435778Y0259095D02*
D03*
X0435778Y0262835D02*
D03*
X0435778Y0266575D02*
D03*
X0401919Y0266575D02*
D03*
X0401919Y0262835D02*
D03*
X0401919Y0259095D02*
D03*
X0392471Y0259095D02*
D03*
X0392471Y0262835D02*
D03*
X0392471Y0266575D02*
D03*
X0375542Y0266575D02*
D03*
X0375542Y0262835D02*
D03*
X0375542Y0259095D02*
D03*
X0384990Y0259095D02*
D03*
X0384990Y0262835D02*
D03*
X0384990Y0266575D02*
D03*
X0368061Y0266575D02*
D03*
X0368061Y0262835D02*
D03*
X0368061Y0259095D02*
D03*
X0358612Y0259095D02*
D03*
X0358612Y0262835D02*
D03*
X0358612Y0266575D02*
D03*
D398*
X0341978Y0291969D02*
D03*
X0341978Y0284882D02*
D03*
X0352018Y0284882D02*
D03*
X0352018Y0291969D02*
D03*
X0417077Y0291969D02*
D03*
X0417077Y0284882D02*
D03*
X0407038Y0284882D02*
D03*
X0407038Y0291969D02*
D03*
X0421604Y0291969D02*
D03*
X0421604Y0284882D02*
D03*
X0431644Y0284882D02*
D03*
X0431644Y0291969D02*
D03*
X0402018Y0291969D02*
D03*
X0402018Y0284882D02*
D03*
X0391979Y0284882D02*
D03*
X0391979Y0291969D02*
D03*
X0375148Y0291969D02*
D03*
X0375148Y0284882D02*
D03*
X0385187Y0284882D02*
D03*
X0385187Y0291969D02*
D03*
X0370226Y0291969D02*
D03*
X0370226Y0284882D02*
D03*
X0360187Y0284882D02*
D03*
X0360187Y0291969D02*
D03*
X0407136Y0278189D02*
D03*
X0407136Y0271103D02*
D03*
X0417175Y0271103D02*
D03*
X0417175Y0278189D02*
D03*
X0433120Y0278189D02*
D03*
X0433120Y0271103D02*
D03*
X0423081Y0271103D02*
D03*
X0423081Y0278189D02*
D03*
X0391880Y0278189D02*
D03*
X0391880Y0271103D02*
D03*
X0401919Y0271103D02*
D03*
X0401919Y0278189D02*
D03*
X0385187Y0278189D02*
D03*
X0385187Y0271103D02*
D03*
X0375148Y0271103D02*
D03*
X0375148Y0278189D02*
D03*
X0359892Y0278189D02*
D03*
X0359892Y0271103D02*
D03*
X0369931Y0271103D02*
D03*
X0369931Y0278189D02*
D03*
X0352510Y0278091D02*
D03*
X0352510Y0271004D02*
D03*
X0342471Y0271004D02*
D03*
X0342471Y0278091D02*
D03*
D401*
X0348573Y0284882D02*
D03*
X0345423Y0284882D02*
D03*
X0345423Y0291969D02*
D03*
X0348573Y0291969D02*
D03*
X0413632Y0291969D02*
D03*
X0410482Y0291969D02*
D03*
X0410482Y0284882D02*
D03*
X0413632Y0284882D02*
D03*
X0428199Y0284882D02*
D03*
X0425049Y0284882D02*
D03*
X0425049Y0291969D02*
D03*
X0428199Y0291969D02*
D03*
X0398573Y0291969D02*
D03*
X0395423Y0291969D02*
D03*
X0395423Y0284882D02*
D03*
X0398573Y0284882D02*
D03*
X0381742Y0284882D02*
D03*
X0378593Y0284882D02*
D03*
X0378593Y0291969D02*
D03*
X0381742Y0291969D02*
D03*
X0366782Y0291969D02*
D03*
X0363632Y0291969D02*
D03*
X0363632Y0284882D02*
D03*
X0366782Y0284882D02*
D03*
X0413730Y0271103D02*
D03*
X0410581Y0271103D02*
D03*
X0410581Y0278189D02*
D03*
X0413730Y0278189D02*
D03*
X0429675Y0278189D02*
D03*
X0426526Y0278189D02*
D03*
X0426526Y0271103D02*
D03*
X0429675Y0271103D02*
D03*
X0398474Y0271103D02*
D03*
X0395325Y0271103D02*
D03*
X0395325Y0278189D02*
D03*
X0398474Y0278189D02*
D03*
X0381742Y0278189D02*
D03*
X0378593Y0278189D02*
D03*
X0378593Y0271103D02*
D03*
X0381742Y0271103D02*
D03*
X0366486Y0271103D02*
D03*
X0363337Y0271103D02*
D03*
X0363337Y0278189D02*
D03*
X0366486Y0278189D02*
D03*
X0349065Y0278091D02*
D03*
X0345916Y0278091D02*
D03*
X0345916Y0271004D02*
D03*
X0349065Y0271004D02*
D03*
D400*
X0337943Y0291831D02*
D03*
X0337943Y0285610D02*
D03*
X0372490Y0250394D02*
D03*
X0372490Y0244173D02*
D03*
X0376821Y0244173D02*
D03*
X0376821Y0250394D02*
D03*
X0381152Y0250394D02*
D03*
X0381152Y0244173D02*
D03*
X0385482Y0244173D02*
D03*
X0385482Y0250394D02*
D03*
X0368160Y0250394D02*
D03*
X0368160Y0244173D02*
D03*
X0363829Y0244173D02*
D03*
X0363829Y0250394D02*
D03*
X0359498Y0250394D02*
D03*
X0359498Y0244173D02*
D03*
X0355168Y0244173D02*
D03*
X0355168Y0250394D02*
D03*
X0402805Y0250394D02*
D03*
X0402805Y0244173D02*
D03*
X0398474Y0244173D02*
D03*
X0398474Y0250394D02*
D03*
X0394144Y0250394D02*
D03*
X0394144Y0244173D02*
D03*
X0389813Y0244173D02*
D03*
X0389813Y0250394D02*
D03*
X0437451Y0250394D02*
D03*
X0437451Y0244173D02*
D03*
X0433120Y0244173D02*
D03*
X0433120Y0250394D02*
D03*
X0428790Y0250394D02*
D03*
X0428790Y0244173D02*
D03*
X0424459Y0244173D02*
D03*
X0424459Y0250394D02*
D03*
X0420128Y0250394D02*
D03*
X0420128Y0244173D02*
D03*
X0415797Y0244173D02*
D03*
X0415797Y0250394D02*
D03*
X0411467Y0250394D02*
D03*
X0411467Y0244173D02*
D03*
X0407136Y0244173D02*
D03*
X0407136Y0250394D02*
D03*
X0337943Y0278445D02*
D03*
X0337943Y0272225D02*
D03*
X0350837Y0250394D02*
D03*
X0350837Y0244173D02*
D03*
X0346506Y0244173D02*
D03*
X0346506Y0250394D02*
D03*
X0342175Y0250394D02*
D03*
X0342175Y0244173D02*
D03*
X0337845Y0244173D02*
D03*
X0337845Y0250394D02*
D03*
D403*
X0453888Y0283307D02*
D03*
X0447589Y0283307D02*
D03*
X0447589Y0287835D02*
D03*
X0453888Y0287835D02*
D03*
X0446604Y0274351D02*
D03*
X0452904Y0274351D02*
D03*
X0446604Y0269725D02*
D03*
X0452904Y0269725D02*
D03*
D402*
X0441290Y0268839D02*
D03*
X0441290Y0276319D02*
D03*
D406*
X0453652Y0278780D02*
D03*
X0447431Y0278780D02*
D03*
X0495674Y0132764D02*
G01*
G75*
D269*
X0468626Y0114063D02*
D03*
X0468626Y0111504D02*
D03*
X0468626Y0108945D02*
D03*
X0468626Y0106386D02*
D03*
X0468626Y0103827D02*
D03*
X0468626Y0101268D02*
D03*
X0468626Y0098709D02*
D03*
X0468626Y0096150D02*
D03*
X0468626Y0093591D02*
D03*
X0468626Y0091032D02*
D03*
X0468626Y0088473D02*
D03*
X0468626Y0085914D02*
D03*
X0491619Y0114063D02*
D03*
X0491619Y0111504D02*
D03*
X0491619Y0108945D02*
D03*
X0491619Y0106386D02*
D03*
X0491619Y0103827D02*
D03*
X0491619Y0101268D02*
D03*
X0491619Y0098709D02*
D03*
X0491619Y0096150D02*
D03*
X0491619Y0093591D02*
D03*
X0491619Y0091032D02*
D03*
X0491619Y0088473D02*
D03*
X0491619Y0085914D02*
D03*
D428*
X0491599Y0081977D02*
D03*
X0485378Y0081977D02*
D03*
X0474847Y0081977D02*
D03*
X0481068Y0081977D02*
D03*
D403*
X0472839Y0119181D02*
D03*
X0466540Y0119181D02*
D03*
X0485831Y0119575D02*
D03*
X0479532Y0119575D02*
D03*
D429*
X0477756Y0130205D02*
D03*
X0477756Y0123906D02*
D03*
X0484079Y0123906D02*
D03*
X0484079Y0130205D02*
D03*
X0488705Y0130205D02*
D03*
X0488705Y0123906D02*
D03*
X0468528Y0124004D02*
D03*
X0468528Y0130303D02*
D03*
X0493331Y0123906D02*
D03*
X0493331Y0130205D02*
D03*
X0473134Y0123906D02*
D03*
X0473134Y0130205D02*
D03*
X0456963Y0230173D02*
G01*
G75*
D487*
X0346136Y0212850D02*
D03*
X0352436Y0212850D02*
D03*
X0374089Y0202909D02*
D03*
X0380388Y0202909D02*
D03*
X0291806Y0153205D02*
D03*
X0298105Y0153205D02*
D03*
X0338704Y0089516D02*
D03*
X0332404Y0089516D02*
D03*
X0285900Y0153401D02*
D03*
X0279601Y0153401D02*
D03*
X0283931Y0158913D02*
D03*
X0277632Y0158913D02*
D03*
X0418085Y0180468D02*
D03*
X0424384Y0180468D02*
D03*
X0278321Y0109996D02*
D03*
X0284620Y0109996D02*
D03*
D492*
X0296432Y0129189D02*
D03*
X0300172Y0129189D02*
D03*
X0303912Y0129189D02*
D03*
X0303912Y0119740D02*
D03*
X0300172Y0119740D02*
D03*
X0296432Y0119740D02*
D03*
D406*
X0369719Y0202319D02*
D03*
X0363498Y0202319D02*
D03*
X0294798Y0210094D02*
D03*
X0301018Y0210094D02*
D03*
X0297554Y0101433D02*
D03*
X0303774Y0101433D02*
D03*
X0288006Y0160291D02*
D03*
X0294227Y0160291D02*
D03*
X0388577Y0202319D02*
D03*
X0394798Y0202319D02*
D03*
X0321766Y0197988D02*
D03*
X0327987Y0197988D02*
D03*
X0408676Y0094740D02*
D03*
X0414896Y0094740D02*
D03*
X0292436Y0134996D02*
D03*
X0298656Y0134996D02*
D03*
X0399522Y0202417D02*
D03*
X0405743Y0202417D02*
D03*
X0346569Y0206748D02*
D03*
X0352790Y0206748D02*
D03*
X0399246Y0095134D02*
D03*
X0393026Y0095134D02*
D03*
X0365467Y0094346D02*
D03*
X0371687Y0094346D02*
D03*
X0347258Y0089917D02*
D03*
X0353479Y0089917D02*
D03*
X0343932Y0198086D02*
D03*
X0337711Y0198086D02*
D03*
X0425526Y0131650D02*
D03*
X0419306Y0131650D02*
D03*
X0418124Y0175941D02*
D03*
X0424345Y0175941D02*
D03*
D429*
X0303420Y0152417D02*
D03*
X0303420Y0146118D02*
D03*
X0309817Y0092279D02*
D03*
X0309817Y0098579D02*
D03*
X0316438Y0093559D02*
D03*
X0316438Y0087260D02*
D03*
X0286786Y0094937D02*
D03*
X0286786Y0088638D02*
D03*
X0277731Y0105764D02*
D03*
X0277731Y0099464D02*
D03*
X0277731Y0095626D02*
D03*
X0277731Y0089327D02*
D03*
X0282357Y0104189D02*
D03*
X0282357Y0097890D02*
D03*
X0418380Y0164130D02*
D03*
X0418380Y0170429D02*
D03*
D11*
X0402731Y0110882D02*
D03*
X0402731Y0112850D02*
D03*
X0402731Y0114819D02*
D03*
X0402731Y0116787D02*
D03*
X0402731Y0118756D02*
D03*
X0402731Y0120724D02*
D03*
X0402731Y0122693D02*
D03*
X0402731Y0124661D02*
D03*
X0402731Y0126630D02*
D03*
X0402731Y0128598D02*
D03*
X0402731Y0130567D02*
D03*
X0402731Y0132535D02*
D03*
X0402731Y0134504D02*
D03*
X0402731Y0136472D02*
D03*
X0402731Y0138441D02*
D03*
X0402731Y0140409D02*
D03*
X0402731Y0142378D02*
D03*
X0402731Y0144346D02*
D03*
X0402731Y0146315D02*
D03*
X0402731Y0148283D02*
D03*
X0402731Y0150252D02*
D03*
X0402731Y0152220D02*
D03*
X0402731Y0154189D02*
D03*
X0402731Y0156157D02*
D03*
X0402731Y0158126D02*
D03*
X0402731Y0160094D02*
D03*
X0402731Y0162063D02*
D03*
X0402731Y0164031D02*
D03*
X0402731Y0166000D02*
D03*
X0402731Y0167968D02*
D03*
X0402731Y0169937D02*
D03*
X0402731Y0171905D02*
D03*
X0402731Y0173874D02*
D03*
X0402731Y0175842D02*
D03*
X0402731Y0177811D02*
D03*
X0402731Y0179779D02*
D03*
X0319069Y0179779D02*
D03*
X0319069Y0177811D02*
D03*
X0319069Y0175842D02*
D03*
X0319069Y0173874D02*
D03*
X0319069Y0171905D02*
D03*
X0319069Y0169937D02*
D03*
X0319069Y0167968D02*
D03*
X0319069Y0166000D02*
D03*
X0319069Y0164031D02*
D03*
X0319069Y0162063D02*
D03*
X0319069Y0160094D02*
D03*
X0319069Y0158126D02*
D03*
X0319069Y0156157D02*
D03*
X0319069Y0154189D02*
D03*
X0319069Y0152220D02*
D03*
X0319069Y0150252D02*
D03*
X0319069Y0148283D02*
D03*
X0319069Y0146315D02*
D03*
X0319069Y0144346D02*
D03*
X0319069Y0142378D02*
D03*
X0319069Y0140409D02*
D03*
X0319069Y0138441D02*
D03*
X0319069Y0136472D02*
D03*
X0319069Y0134504D02*
D03*
X0319069Y0132535D02*
D03*
X0319069Y0130567D02*
D03*
X0319069Y0128598D02*
D03*
X0319069Y0126630D02*
D03*
X0319069Y0124661D02*
D03*
X0319069Y0122693D02*
D03*
X0319069Y0120724D02*
D03*
X0319069Y0118756D02*
D03*
X0319069Y0116787D02*
D03*
X0319069Y0114819D02*
D03*
X0319069Y0112850D02*
D03*
X0319069Y0110882D02*
D03*
D116*
X0395349Y0187161D02*
D03*
X0393380Y0187161D02*
D03*
X0391412Y0187161D02*
D03*
X0389443Y0187161D02*
D03*
X0387475Y0187161D02*
D03*
X0385506Y0187161D02*
D03*
X0383538Y0187161D02*
D03*
X0381569Y0187161D02*
D03*
X0379601Y0187161D02*
D03*
X0377632Y0187161D02*
D03*
X0375664Y0187161D02*
D03*
X0373695Y0187161D02*
D03*
X0371727Y0187161D02*
D03*
X0369758Y0187161D02*
D03*
X0367790Y0187161D02*
D03*
X0365821Y0187161D02*
D03*
X0363853Y0187161D02*
D03*
X0361884Y0187161D02*
D03*
X0359916Y0187161D02*
D03*
X0357947Y0187161D02*
D03*
X0355979Y0187161D02*
D03*
X0354010Y0187161D02*
D03*
X0352042Y0187161D02*
D03*
X0350073Y0187161D02*
D03*
X0348105Y0187161D02*
D03*
X0346136Y0187161D02*
D03*
X0344168Y0187161D02*
D03*
X0342199Y0187161D02*
D03*
X0340231Y0187161D02*
D03*
X0338262Y0187161D02*
D03*
X0336294Y0187161D02*
D03*
X0334325Y0187161D02*
D03*
X0332357Y0187161D02*
D03*
X0330388Y0187161D02*
D03*
X0328420Y0187161D02*
D03*
X0326451Y0187161D02*
D03*
X0326451Y0103500D02*
D03*
X0328420Y0103500D02*
D03*
X0330388Y0103500D02*
D03*
X0332357Y0103500D02*
D03*
X0334325Y0103500D02*
D03*
X0336294Y0103500D02*
D03*
X0338262Y0103500D02*
D03*
X0340231Y0103500D02*
D03*
X0342199Y0103500D02*
D03*
X0344168Y0103500D02*
D03*
X0346136Y0103500D02*
D03*
X0348105Y0103500D02*
D03*
X0350073Y0103500D02*
D03*
X0352042Y0103500D02*
D03*
X0354010Y0103500D02*
D03*
X0355979Y0103500D02*
D03*
X0357947Y0103500D02*
D03*
X0359916Y0103500D02*
D03*
X0361884Y0103500D02*
D03*
X0363853Y0103500D02*
D03*
X0365821Y0103500D02*
D03*
X0367790Y0103500D02*
D03*
X0369758Y0103500D02*
D03*
X0371727Y0103500D02*
D03*
X0373695Y0103500D02*
D03*
X0375664Y0103500D02*
D03*
X0377632Y0103500D02*
D03*
X0379601Y0103500D02*
D03*
X0381569Y0103500D02*
D03*
X0383538Y0103500D02*
D03*
X0385506Y0103500D02*
D03*
X0387475Y0103500D02*
D03*
X0389443Y0103500D02*
D03*
X0391412Y0103500D02*
D03*
X0393380Y0103500D02*
D03*
X0395349Y0103500D02*
D03*
D499*
X0384128Y0205960D02*
D03*
X0384128Y0202023D02*
D03*
D501*
X0289050Y0167181D02*
D03*
D500*
X0279994Y0191590D02*
D03*
X0298105Y0191590D02*
D03*
D497*
X0289050Y0191590D02*
D03*
D283*
X0305979Y0224858D02*
D03*
X0305979Y0222299D02*
D03*
X0305979Y0219740D02*
D03*
X0305979Y0217181D02*
D03*
X0305979Y0214622D02*
D03*
X0305979Y0212063D02*
D03*
X0305979Y0209504D02*
D03*
X0328420Y0224858D02*
D03*
X0328420Y0222299D02*
D03*
X0328420Y0219740D02*
D03*
X0328420Y0217181D02*
D03*
X0328420Y0214622D02*
D03*
X0328420Y0212063D02*
D03*
X0328420Y0209504D02*
D03*
X0429994Y0190508D02*
D03*
X0429994Y0187949D02*
D03*
X0429994Y0185390D02*
D03*
X0429994Y0182830D02*
D03*
X0429994Y0180271D02*
D03*
X0429994Y0177712D02*
D03*
X0429994Y0175153D02*
D03*
X0452436Y0190508D02*
D03*
X0452436Y0187949D02*
D03*
X0452436Y0185390D02*
D03*
X0452436Y0182830D02*
D03*
X0452436Y0180271D02*
D03*
X0452436Y0177712D02*
D03*
X0452436Y0175153D02*
D03*
X0430487Y0145527D02*
D03*
X0430487Y0142968D02*
D03*
X0430487Y0140409D02*
D03*
X0430487Y0137850D02*
D03*
X0430487Y0135291D02*
D03*
X0430487Y0132732D02*
D03*
X0430487Y0130173D02*
D03*
X0452928Y0145527D02*
D03*
X0452928Y0142968D02*
D03*
X0452928Y0140409D02*
D03*
X0452928Y0137850D02*
D03*
X0452928Y0135291D02*
D03*
X0452928Y0132732D02*
D03*
X0452928Y0130173D02*
D03*
X0424679Y0209504D02*
D03*
X0424679Y0212063D02*
D03*
X0424679Y0214622D02*
D03*
X0424679Y0217181D02*
D03*
X0424679Y0219740D02*
D03*
X0424679Y0222299D02*
D03*
X0424679Y0224858D02*
D03*
X0402239Y0209504D02*
D03*
X0402239Y0212063D02*
D03*
X0402239Y0214622D02*
D03*
X0402239Y0217181D02*
D03*
X0402239Y0219740D02*
D03*
X0402239Y0222299D02*
D03*
X0402239Y0224858D02*
D03*
X0380388Y0209504D02*
D03*
X0380388Y0212063D02*
D03*
X0380388Y0214622D02*
D03*
X0380388Y0217181D02*
D03*
X0380388Y0219740D02*
D03*
X0380388Y0222299D02*
D03*
X0380388Y0224858D02*
D03*
X0357947Y0209504D02*
D03*
X0357947Y0212063D02*
D03*
X0357947Y0214622D02*
D03*
X0357947Y0217181D02*
D03*
X0357947Y0219740D02*
D03*
X0357947Y0222299D02*
D03*
X0357947Y0224858D02*
D03*
X0430290Y0224858D02*
D03*
X0430290Y0222299D02*
D03*
X0430290Y0219740D02*
D03*
X0430290Y0217181D02*
D03*
X0430290Y0214622D02*
D03*
X0430290Y0212063D02*
D03*
X0430290Y0209504D02*
D03*
X0452731Y0224858D02*
D03*
X0452731Y0222299D02*
D03*
X0452731Y0219740D02*
D03*
X0452731Y0217181D02*
D03*
X0452731Y0214622D02*
D03*
X0452731Y0212063D02*
D03*
X0452731Y0209504D02*
D03*
D400*
X0291313Y0095685D02*
D03*
X0291313Y0089464D02*
D03*
X0277534Y0200685D02*
D03*
X0277534Y0206905D02*
D03*
X0307357Y0105705D02*
D03*
X0307357Y0111925D02*
D03*
X0419660Y0140350D02*
D03*
X0419660Y0146571D02*
D03*
X0300762Y0106787D02*
D03*
X0300762Y0113008D02*
D03*
X0334620Y0216433D02*
D03*
X0334620Y0222653D02*
D03*
X0300172Y0214956D02*
D03*
X0300172Y0221177D02*
D03*
X0295742Y0221177D02*
D03*
X0295742Y0214957D02*
D03*
X0444463Y0157693D02*
D03*
X0444463Y0151472D02*
D03*
X0424187Y0140350D02*
D03*
X0424187Y0146571D02*
D03*
X0419561Y0185035D02*
D03*
X0419561Y0191256D02*
D03*
X0298597Y0163992D02*
D03*
X0298597Y0157771D02*
D03*
X0424384Y0185134D02*
D03*
X0424384Y0191354D02*
D03*
X0437967Y0197535D02*
D03*
X0437967Y0203756D02*
D03*
X0451550Y0151571D02*
D03*
X0451550Y0157791D02*
D03*
X0309325Y0142909D02*
D03*
X0309325Y0149130D02*
D03*
X0302928Y0169011D02*
D03*
X0302928Y0162791D02*
D03*
X0423203Y0164268D02*
D03*
X0423203Y0170488D02*
D03*
X0418479Y0117437D02*
D03*
X0418479Y0111216D02*
D03*
D496*
X0278518Y0148480D02*
D03*
X0278518Y0141787D02*
D03*
X0292002Y0141689D02*
D03*
X0292002Y0148382D02*
D03*
X0284817Y0148480D02*
D03*
X0284817Y0141787D02*
D03*
X0297731Y0141492D02*
D03*
X0297731Y0148185D02*
D03*
D44*
X0283735Y0199366D02*
D03*
X0283735Y0206846D02*
D03*
D493*
X0305113Y0088834D02*
D03*
X0295861Y0092574D02*
D03*
D493*
X0305113Y0096315D02*
D03*
D271*
X0423794Y0155074D02*
D03*
X0438361Y0155074D02*
D03*
D398*
X0287967Y0222004D02*
D03*
X0287967Y0214917D02*
D03*
X0277928Y0214917D02*
D03*
X0277928Y0222004D02*
D03*
X0289345Y0205468D02*
D03*
X0289345Y0198382D02*
D03*
X0299384Y0198382D02*
D03*
X0299384Y0205468D02*
D03*
X0437573Y0171020D02*
D03*
X0437573Y0163933D02*
D03*
X0427534Y0163933D02*
D03*
X0427534Y0171020D02*
D03*
X0442790Y0171019D02*
D03*
X0442790Y0163933D02*
D03*
X0452829Y0163933D02*
D03*
X0452829Y0171019D02*
D03*
X0433636Y0204386D02*
D03*
X0433636Y0197299D02*
D03*
X0423597Y0197299D02*
D03*
X0423597Y0204386D02*
D03*
X0442298Y0204386D02*
D03*
X0442298Y0197299D02*
D03*
X0452337Y0197299D02*
D03*
X0452337Y0204386D02*
D03*
X0437376Y0125842D02*
D03*
X0437376Y0118756D02*
D03*
X0427337Y0118756D02*
D03*
X0427337Y0125842D02*
D03*
X0305191Y0205173D02*
D03*
X0305191Y0198086D02*
D03*
X0315231Y0198086D02*
D03*
X0315231Y0205173D02*
D03*
X0452731Y0125842D02*
D03*
X0452731Y0118756D02*
D03*
X0442691Y0118756D02*
D03*
X0442691Y0125842D02*
D03*
X0397810Y0206649D02*
D03*
X0397810Y0213736D02*
D03*
X0387770Y0213736D02*
D03*
X0387770Y0206649D02*
D03*
X0386589Y0224956D02*
D03*
X0386589Y0217870D02*
D03*
X0396628Y0217870D02*
D03*
X0396628Y0224956D02*
D03*
D401*
X0284522Y0222004D02*
D03*
X0281372Y0222004D02*
D03*
X0281372Y0214917D02*
D03*
X0284522Y0214917D02*
D03*
X0295939Y0198382D02*
D03*
X0292790Y0198382D02*
D03*
X0292790Y0205468D02*
D03*
X0295939Y0205468D02*
D03*
X0434128Y0171020D02*
D03*
X0430979Y0171020D02*
D03*
X0430979Y0163933D02*
D03*
X0434128Y0163933D02*
D03*
X0449384Y0163933D02*
D03*
X0446235Y0163933D02*
D03*
X0446235Y0171019D02*
D03*
X0449384Y0171019D02*
D03*
X0430191Y0204386D02*
D03*
X0427042Y0204386D02*
D03*
X0427042Y0197299D02*
D03*
X0430191Y0197299D02*
D03*
X0448892Y0197299D02*
D03*
X0445742Y0197299D02*
D03*
X0445742Y0204386D02*
D03*
X0448892Y0204386D02*
D03*
X0433931Y0125842D02*
D03*
X0430782Y0125842D02*
D03*
X0430782Y0118756D02*
D03*
X0433931Y0118756D02*
D03*
X0311786Y0198086D02*
D03*
X0308636Y0198086D02*
D03*
X0308636Y0205173D02*
D03*
X0311786Y0205173D02*
D03*
X0449286Y0125842D02*
D03*
X0446136Y0125842D02*
D03*
X0446136Y0118756D02*
D03*
X0449286Y0118756D02*
D03*
X0391215Y0213736D02*
D03*
X0394365Y0213736D02*
D03*
X0394365Y0206649D02*
D03*
X0391215Y0206649D02*
D03*
X0393183Y0217870D02*
D03*
X0390034Y0217870D02*
D03*
X0390034Y0224956D02*
D03*
X0393183Y0224956D02*
D03*
D490*
X0291806Y0100252D02*
D03*
X0291806Y0113244D02*
D03*
D491*
X0414345Y0205094D02*
D03*
X0410605Y0195842D02*
D03*
D491*
X0418085Y0195842D02*
D03*
D505*
X0351845Y0226925D02*
D03*
X0344758Y0226925D02*
D03*
X0344758Y0216886D02*
D03*
X0351845Y0216886D02*
D03*
X0341609Y0212063D02*
D03*
X0334522Y0212063D02*
D03*
X0334522Y0202023D02*
D03*
X0341609Y0202023D02*
D03*
X0428459Y0111296D02*
D03*
X0435546Y0111296D02*
D03*
X0435546Y0101256D02*
D03*
X0428459Y0101256D02*
D03*
X0444069Y0101531D02*
D03*
X0451156Y0101531D02*
D03*
X0451156Y0091492D02*
D03*
X0444069Y0091492D02*
D03*
D504*
X0344758Y0220330D02*
D03*
X0344758Y0223480D02*
D03*
X0351845Y0223480D02*
D03*
X0351845Y0220330D02*
D03*
X0334522Y0205468D02*
D03*
X0334522Y0208618D02*
D03*
X0341609Y0208618D02*
D03*
X0341609Y0205468D02*
D03*
X0428459Y0107851D02*
D03*
X0428459Y0104701D02*
D03*
X0435546Y0104701D02*
D03*
X0435546Y0107851D02*
D03*
X0444069Y0098086D02*
D03*
X0444069Y0094937D02*
D03*
X0451156Y0094937D02*
D03*
X0451156Y0098086D02*
D03*
D503*
X0420349Y0127417D02*
D03*
X0420349Y0121512D02*
D03*
D502*
X0414640Y0088342D02*
D03*
X0401648Y0088342D02*
D03*
X0283636Y0016614D02*
G01*
G75*
D224*
X0301254Y0064645D02*
D03*
X0301254Y0031968D02*
D03*
X0355388Y0031968D02*
D03*
X0355388Y0064645D02*
D03*
D328*
X0346018Y0054409D02*
D03*
X0341687Y0054409D02*
D03*
X0337356Y0054409D02*
D03*
X0333026Y0054409D02*
D03*
X0328695Y0054409D02*
D03*
X0324364Y0054409D02*
D03*
X0320034Y0054409D02*
D03*
X0315703Y0054409D02*
D03*
D287*
X0295349Y0069212D02*
D03*
X0295349Y0075433D02*
D03*
X0290723Y0069212D02*
D03*
X0290723Y0075433D02*
D03*
D152*
X0286195Y0075472D02*
D03*
X0286195Y0069173D02*
D03*
X0227230Y0286050D02*
G01*
G75*
D428*
X0174533Y0199633D02*
D03*
X0168313Y0199633D02*
D03*
D400*
X0119553Y0127133D02*
D03*
X0119553Y0133353D02*
D03*
X0119454Y0137664D02*
D03*
X0119454Y0143885D02*
D03*
D404*
X0133628Y0121483D02*
D03*
X0141108Y0121483D02*
D03*
X0121226Y0121483D02*
D03*
X0128707Y0121483D02*
D03*
D396*
X0135301Y0167349D02*
D03*
X0135301Y0161050D02*
D03*
X0130675Y0167349D02*
D03*
X0130675Y0161050D02*
D03*
X0150262Y0250125D02*
D03*
X0150262Y0243826D02*
D03*
X0163549Y0252979D02*
D03*
X0163549Y0259278D02*
D03*
X0120045Y0167841D02*
D03*
X0120045Y0161542D02*
D03*
X0119750Y0147959D02*
D03*
X0119750Y0154259D02*
D03*
X0125065Y0167841D02*
D03*
X0125065Y0161542D02*
D03*
D493*
X0164454Y0241956D02*
D03*
X0155202Y0245696D02*
D03*
X0159139Y0266267D02*
D03*
X0168391Y0262526D02*
D03*
D493*
X0164454Y0249436D02*
D03*
X0168391Y0270007D02*
D03*
D564*
X0158135Y0260577D02*
D03*
X0154395Y0251326D02*
D03*
X0156462Y0158766D02*
D03*
X0160203Y0168018D02*
D03*
X0199573Y0273373D02*
D03*
X0203313Y0282625D02*
D03*
X0217289Y0282625D02*
D03*
X0213549Y0273373D02*
D03*
X0189730Y0282625D02*
D03*
X0185990Y0273373D02*
D03*
X0177230Y0249888D02*
D03*
X0173490Y0240636D02*
D03*
X0210202Y0254672D02*
D03*
X0206462Y0245420D02*
D03*
D564*
X0150655Y0260577D02*
D03*
X0163943Y0158766D02*
D03*
X0207053Y0273373D02*
D03*
X0221029Y0273373D02*
D03*
X0193470Y0273373D02*
D03*
X0169750Y0249888D02*
D03*
X0213943Y0245420D02*
D03*
D566*
X0150065Y0270105D02*
D03*
X0150065Y0281523D02*
D03*
D565*
X0148490Y0175263D02*
D03*
X0166600Y0175263D02*
D03*
X0148490Y0233530D02*
D03*
X0166600Y0233530D02*
D03*
X0139238Y0233530D02*
D03*
X0121128Y0233530D02*
D03*
X0139238Y0175263D02*
D03*
X0121128Y0175263D02*
D03*
X0175852Y0175263D02*
D03*
X0193962Y0175263D02*
D03*
X0221324Y0175263D02*
D03*
X0203214Y0175263D02*
D03*
X0194356Y0233530D02*
D03*
X0176246Y0233530D02*
D03*
X0204002Y0233530D02*
D03*
X0222112Y0233530D02*
D03*
D568*
X0157545Y0175263D02*
D03*
X0157545Y0233530D02*
D03*
X0130183Y0233530D02*
D03*
X0130183Y0175263D02*
D03*
X0184907Y0175263D02*
D03*
X0212269Y0175263D02*
D03*
X0185301Y0233530D02*
D03*
X0213057Y0233530D02*
D03*
D567*
X0157545Y0199672D02*
D03*
X0157545Y0209121D02*
D03*
X0130183Y0209121D02*
D03*
X0130183Y0199672D02*
D03*
X0184907Y0199672D02*
D03*
X0212269Y0199672D02*
D03*
X0185301Y0209121D02*
D03*
X0213057Y0209121D02*
D03*
D571*
X0195636Y0209022D02*
D03*
X0202722Y0209022D02*
D03*
X0202722Y0198983D02*
D03*
X0195636Y0198983D02*
D03*
X0216600Y0162467D02*
D03*
X0223687Y0162467D02*
D03*
X0223687Y0152428D02*
D03*
X0216600Y0152428D02*
D03*
X0139927Y0199475D02*
D03*
X0147014Y0199475D02*
D03*
X0147014Y0209515D02*
D03*
X0139927Y0209515D02*
D03*
D569*
X0195636Y0205578D02*
D03*
X0195636Y0202428D02*
D03*
X0202722Y0202428D02*
D03*
X0202722Y0205578D02*
D03*
X0216600Y0159022D02*
D03*
X0216600Y0155873D02*
D03*
X0223687Y0155873D02*
D03*
X0223687Y0159022D02*
D03*
X0147014Y0206070D02*
D03*
X0147014Y0202920D02*
D03*
X0139927Y0202920D02*
D03*
X0139927Y0206070D02*
D03*
D314*
X0221797Y0142389D02*
D03*
X0216797Y0142389D02*
D03*
X0211797Y0142389D02*
D03*
X0206797Y0142389D02*
D03*
X0201797Y0142389D02*
D03*
X0196797Y0142389D02*
D03*
X0191797Y0142389D02*
D03*
X0186797Y0142389D02*
D03*
X0221797Y0123491D02*
D03*
X0216797Y0123491D02*
D03*
X0211797Y0123491D02*
D03*
X0206797Y0123491D02*
D03*
X0201797Y0123491D02*
D03*
X0196797Y0123491D02*
D03*
X0191797Y0123491D02*
D03*
X0186797Y0123491D02*
D03*
X0145360Y0123294D02*
D03*
X0150360Y0123294D02*
D03*
X0155360Y0123294D02*
D03*
X0160360Y0123294D02*
D03*
X0165360Y0123294D02*
D03*
X0170360Y0123294D02*
D03*
X0175360Y0123294D02*
D03*
X0180360Y0123294D02*
D03*
X0145360Y0142192D02*
D03*
X0150360Y0142192D02*
D03*
X0155360Y0142192D02*
D03*
X0160360Y0142192D02*
D03*
X0165360Y0142192D02*
D03*
X0170360Y0142192D02*
D03*
X0175360Y0142192D02*
D03*
X0180360Y0142192D02*
D03*
X0139455Y0148589D02*
D03*
X0134455Y0148589D02*
D03*
X0129454Y0148589D02*
D03*
X0124454Y0148589D02*
D03*
X0139455Y0129692D02*
D03*
X0134455Y0129692D02*
D03*
X0129454Y0129692D02*
D03*
X0124454Y0129692D02*
D03*
D89*
X0141206Y0267369D02*
D03*
X0141206Y0272369D02*
D03*
X0141206Y0277369D02*
D03*
X0141206Y0282369D02*
D03*
X0122308Y0267369D02*
D03*
X0122308Y0272369D02*
D03*
X0122308Y0277369D02*
D03*
X0122308Y0282369D02*
D03*
X0124080Y0260518D02*
D03*
X0124080Y0255519D02*
D03*
X0124080Y0250519D02*
D03*
X0124080Y0245518D02*
D03*
X0142978Y0260518D02*
D03*
X0142978Y0255519D02*
D03*
X0142978Y0250519D02*
D03*
X0142978Y0245518D02*
D03*
D402*
X0222309Y0260991D02*
D03*
X0222309Y0268471D02*
D03*
X0215419Y0268471D02*
D03*
X0215419Y0260991D02*
D03*
X0208529Y0260991D02*
D03*
X0208529Y0268471D02*
D03*
X0201639Y0268471D02*
D03*
X0201639Y0260991D02*
D03*
X0194750Y0260991D02*
D03*
X0194750Y0268471D02*
D03*
X0187860Y0268471D02*
D03*
X0187860Y0260991D02*
D03*
X0180970Y0260991D02*
D03*
X0180970Y0268471D02*
D03*
X0174080Y0268471D02*
D03*
X0174080Y0260991D02*
D03*
X0161580Y0282743D02*
D03*
X0161580Y0275263D02*
D03*
X0168765Y0275164D02*
D03*
X0168765Y0282645D02*
D03*
D561*
X0183824Y0254692D02*
D03*
X0183824Y0241700D02*
D03*
X0221029Y0242093D02*
D03*
X0221029Y0255085D02*
D03*
X0199868Y0254692D02*
D03*
X0199868Y0241700D02*
D03*
X0191699Y0241700D02*
D03*
X0191699Y0254692D02*
D03*
D487*
X0174277Y0275066D02*
D03*
X0180576Y0275066D02*
D03*
X0180675Y0280676D02*
D03*
X0174376Y0280676D02*
D03*
X0176738Y0254101D02*
D03*
X0170439Y0254101D02*
D03*
X0140813Y0155932D02*
D03*
X0134514Y0155932D02*
D03*
X0205872Y0240715D02*
D03*
X0212171Y0240715D02*
D03*
X0330026Y0241556D02*
G01*
G75*
D580*
X0321463Y0244115D02*
D03*
X0324022Y0244115D02*
D03*
X0326581Y0244115D02*
D03*
X0321463Y0251595D02*
D03*
X0324022Y0251595D02*
D03*
X0326581Y0251595D02*
D03*
X0316837Y0251595D02*
D03*
X0314278Y0251595D02*
D03*
X0311719Y0251595D02*
D03*
X0316837Y0244115D02*
D03*
X0314278Y0244115D02*
D03*
X0311719Y0244115D02*
D03*
D377*
X0312703Y0264351D02*
D03*
X0312703Y0258131D02*
D03*
X0312802Y0274883D02*
D03*
X0312802Y0268662D02*
D03*
D372*
X0321994Y0256517D02*
D03*
X0328215Y0256517D02*
D03*
X0326345Y0260847D02*
D03*
X0320124Y0260847D02*
D03*
D545*
X0316739Y0273544D02*
D03*
X0316739Y0266458D02*
D03*
X0326778Y0266458D02*
D03*
X0326778Y0273544D02*
D03*
X0316739Y0284765D02*
D03*
X0316739Y0277678D02*
D03*
X0326778Y0277678D02*
D03*
X0326778Y0284765D02*
D03*
D544*
X0323333Y0266458D02*
D03*
X0320184Y0266458D02*
D03*
X0320184Y0273544D02*
D03*
X0323333Y0273544D02*
D03*
X0323333Y0277678D02*
D03*
X0320184Y0277678D02*
D03*
X0320184Y0284765D02*
D03*
X0323333Y0284765D02*
D03*
X0225705Y0040135D02*
G01*
G75*
D589*
X0215075Y0087792D02*
D03*
X0191650Y0087792D02*
D03*
X0215075Y0077792D02*
D03*
X0191650Y0077792D02*
D03*
X0215075Y0067792D02*
D03*
X0191650Y0067792D02*
D03*
X0215075Y0057792D02*
D03*
X0191650Y0057792D02*
D03*
X0215075Y0047792D02*
D03*
X0191650Y0047792D02*
D03*
D377*
X0201985Y0097851D02*
D03*
X0201985Y0104072D02*
D03*
X0213992Y0100410D02*
D03*
X0213992Y0106631D02*
D03*
D591*
X0207988Y0108048D02*
D03*
X0207988Y0095056D02*
D03*
D375*
X0218618Y0106572D02*
D03*
X0218618Y0100273D02*
D03*
D539*
X0188126Y0100568D02*
D03*
X0197378Y0096828D02*
D03*
D539*
X0197378Y0104308D02*
D03*
D372*
X0219169Y0095942D02*
D03*
X0212949Y0095942D02*
D03*
X0228677Y0411712D02*
G01*
G75*
D596*
X0241689Y0400295D02*
D03*
X0232437Y0404035D02*
D03*
D596*
X0241689Y0407775D02*
D03*
D314*
X0253303Y0392736D02*
D03*
X0248303Y0392736D02*
D03*
X0243303Y0392736D02*
D03*
X0238303Y0392736D02*
D03*
X0253303Y0373838D02*
D03*
X0248303Y0373838D02*
D03*
X0243303Y0373838D02*
D03*
X0238303Y0373838D02*
D03*
D597*
X0233008Y0377027D02*
D03*
X0233008Y0370807D02*
D03*
X0233008Y0385373D02*
D03*
X0233008Y0391594D02*
D03*
D598*
X0246590Y0407185D02*
D03*
X0246590Y0400885D02*
D03*
D133*
X0230547Y0396555D02*
D03*
X0422880Y0354011D02*
G01*
G75*
D400*
X0375537Y0345684D02*
D03*
X0375537Y0351905D02*
D03*
X0370222Y0350035D02*
D03*
X0370222Y0343814D02*
D03*
X0380065Y0351905D02*
D03*
X0380065Y0345684D02*
D03*
X0419927Y0344897D02*
D03*
X0419927Y0351117D02*
D03*
X0389022Y0351609D02*
D03*
X0389022Y0345389D02*
D03*
D604*
X0356246Y0343480D02*
D03*
X0356246Y0350960D02*
D03*
X0364711Y0350960D02*
D03*
X0364711Y0347220D02*
D03*
X0399612Y0342987D02*
D03*
X0399612Y0350468D02*
D03*
X0408077Y0350468D02*
D03*
X0408077Y0346728D02*
D03*
D604*
X0364711Y0343480D02*
D03*
X0408077Y0342987D02*
D03*
D487*
X0371994Y0340920D02*
D03*
X0378293Y0340920D02*
D03*
X0382033Y0340133D02*
D03*
X0388333Y0340133D02*
D03*
D429*
X0384494Y0344267D02*
D03*
X0384494Y0350566D02*
D03*
X0413825Y0344267D02*
D03*
X0413825Y0350566D02*
D03*
X0393943Y0344267D02*
D03*
X0393943Y0350566D02*
D03*
X0118358Y0414701D02*
G01*
G75*
D541*
X0062551Y0428284D02*
D03*
X0073968Y0428284D02*
D03*
X0062453Y0420213D02*
D03*
X0073870Y0420213D02*
D03*
X0060878Y0457024D02*
D03*
X0072295Y0457024D02*
D03*
D377*
X0082925Y0450095D02*
D03*
X0082925Y0443874D02*
D03*
D606*
X0089913Y0465902D02*
D03*
X0086173Y0456650D02*
D03*
D606*
X0082433Y0465902D02*
D03*
D608*
X0068909Y0442358D02*
D03*
X0068909Y0449839D02*
D03*
X0077374Y0449839D02*
D03*
X0077374Y0446099D02*
D03*
D608*
X0077374Y0442358D02*
D03*
D610*
X0105267Y0472181D02*
D03*
X0105267Y0444819D02*
D03*
D609*
X0090208Y0430646D02*
D03*
X0090208Y0421984D02*
D03*
X0080169Y0422280D02*
D03*
X0080169Y0430941D02*
D03*
D591*
X0060878Y0463323D02*
D03*
X0060878Y0476315D02*
D03*
D611*
X0076232Y0474740D02*
D03*
X0067571Y0474740D02*
D03*
X0077915Y0466069D02*
D03*
X0069254Y0466069D02*
D03*
D375*
X0090012Y0434288D02*
D03*
X0090012Y0440587D02*
D03*
X0085189Y0434386D02*
D03*
X0085189Y0428087D02*
D03*
X0090208Y0444622D02*
D03*
X0090208Y0450921D02*
D03*
D612*
X0086862Y0418343D02*
D03*
X0080642Y0418343D02*
D03*
D532*
X0060189Y0435862D02*
D03*
X0073181Y0435862D02*
D03*
X0085581Y0227165D02*
G01*
G75*
D365*
X0067175Y0246752D02*
D03*
X0059695Y0246752D02*
D03*
X0067372Y0278149D02*
D03*
X0059892Y0278149D02*
D03*
D623*
X0067471Y0376082D02*
D03*
X0078494Y0376082D02*
D03*
D624*
X0073475Y0254429D02*
D03*
X0073475Y0270571D02*
D03*
D438*
X0061565Y0379921D02*
D03*
X0061565Y0373622D02*
D03*
X0060975Y0329035D02*
D03*
X0060975Y0335334D02*
D03*
X0061565Y0290354D02*
D03*
X0061565Y0284055D02*
D03*
D377*
X0060679Y0369055D02*
D03*
X0060679Y0362834D02*
D03*
X0066093Y0283996D02*
D03*
X0066093Y0290216D02*
D03*
X0081152Y0337834D02*
D03*
X0081152Y0344055D02*
D03*
D372*
X0062294Y0294586D02*
D03*
X0068514Y0294586D02*
D03*
D625*
X0065187Y0307480D02*
D03*
X0070187Y0307480D02*
D03*
X0075187Y0307480D02*
D03*
X0080187Y0307480D02*
D03*
X0065187Y0330118D02*
D03*
X0070187Y0330118D02*
D03*
X0075187Y0330118D02*
D03*
X0080187Y0330118D02*
D03*
D627*
X0072687Y0318799D02*
D03*
D626*
X0076034Y0296949D02*
D03*
X0076034Y0281200D02*
D03*
D629*
X0065798Y0358169D02*
D03*
X0077215Y0358169D02*
D03*
X0059695Y0341240D02*
D03*
X0071112Y0341240D02*
D03*
X0077116Y0350000D02*
D03*
X0065699Y0350000D02*
D03*
X0077313Y0366240D02*
D03*
X0065896Y0366240D02*
D03*
D628*
X0062156Y0235236D02*
D03*
X0079872Y0235236D02*
D03*
D368*
X0062254Y0299015D02*
D03*
X0068553Y0299015D02*
D03*
D92*
X0059695Y0235236D02*
D03*
X0318406Y0367126D02*
%LPD*%
G01*
G36*
G01*
X0282107Y0435719D02*
X0282107Y0434360D01*
G75*
G02*
X0281526Y0433780I-000581J0000000D01*
G01*
X0280365Y0433780D01*
G75*
G02*
X0279784Y0434360I0000000J0000581D01*
G01*
X0279784Y0435719D01*
G75*
G02*
X0280365Y0436299I0000581J0000000D01*
G01*
X0281526Y0436299D01*
G75*
G02*
X0282107Y0435719I0000000J-000581D01*
G01*
G37*
G36*
G01*
X0278288Y0435719D02*
X0278288Y0434360D01*
G75*
G02*
X0277707Y0433780I-000581J0000000D01*
G01*
X0276546Y0433780D01*
G75*
G02*
X0275965Y0434360I0000000J0000581D01*
G01*
X0275965Y0435719D01*
G75*
G02*
X0276546Y0436299I0000581J0000000D01*
G01*
X0277707Y0436299D01*
G75*
G02*
X0278288Y0435719I0000000J-000581D01*
G01*
G37*
G36*
G01*
X0306764Y0470541D02*
X0308123Y0470541D01*
G75*
G02*
X0308703Y0469961I0000000J-000581D01*
G01*
X0308703Y0468799D01*
G75*
G02*
X0308123Y0468219I-000581J0000000D01*
G01*
X0306764Y0468219D01*
G75*
G02*
X0306184Y0468799I0000000J0000581D01*
G01*
X0306184Y0469961D01*
G75*
G02*
X0306764Y0470541I0000581J0000000D01*
G01*
G37*
G36*
G01*
X0306764Y0466722D02*
X0308123Y0466722D01*
G75*
G02*
X0308703Y0466142I0000000J-000581D01*
G01*
X0308703Y0464980D01*
G75*
G02*
X0308123Y0464400I-000581J0000000D01*
G01*
X0306764Y0464400D01*
G75*
G02*
X0306184Y0464980I0000000J0000581D01*
G01*
X0306184Y0466142D01*
G75*
G02*
X0306764Y0466722I0000581J0000000D01*
G01*
G37*
G36*
G01*
X0281873Y0473150D02*
X0280514Y0473150D01*
G75*
G02*
X0279934Y0473730I0000000J0000581D01*
G01*
X0279934Y0474892D01*
G75*
G02*
X0280514Y0475472I0000581J0000000D01*
G01*
X0281873Y0475472D01*
G75*
G02*
X0282453Y0474892I0000000J-000581D01*
G01*
X0282453Y0473730D01*
G75*
G02*
X0281873Y0473150I-000581J0000000D01*
G01*
G37*
G36*
G01*
X0281873Y0476969D02*
X0280514Y0476969D01*
G75*
G02*
X0279934Y0477549I0000000J0000581D01*
G01*
X0279934Y0478711D01*
G75*
G02*
X0280514Y0479291I0000581J0000000D01*
G01*
X0281873Y0479291D01*
G75*
G02*
X0282453Y0478711I0000000J-000581D01*
G01*
X0282453Y0477549D01*
G75*
G02*
X0281873Y0476969I-000581J0000000D01*
G01*
G37*
G36*
G01*
X0298254Y0373126D02*
X0296896Y0373126D01*
G75*
G02*
X0296315Y0373707I0000000J0000581D01*
G01*
X0296315Y0374868D01*
G75*
G02*
X0296896Y0375449I0000581J0000000D01*
G01*
X0298254Y0375449D01*
G75*
G02*
X0298835Y0374868I0000000J-000581D01*
G01*
X0298835Y0373707D01*
G75*
G02*
X0298254Y0373126I-000581J0000000D01*
G01*
G37*
G36*
G01*
X0298254Y0376945D02*
X0296896Y0376945D01*
G75*
G02*
X0296315Y0377526I0000000J0000581D01*
G01*
X0296315Y0378687D01*
G75*
G02*
X0296896Y0379268I0000581J0000000D01*
G01*
X0298254Y0379268D01*
G75*
G02*
X0298835Y0378687I0000000J-000581D01*
G01*
X0298835Y0377526D01*
G75*
G02*
X0298254Y0376945I-000581J0000000D01*
G01*
G37*
G36*
G01*
X0284252Y0386688D02*
X0284252Y0388706D01*
G75*
G02*
X0285114Y0389567I0000861J0000000D01*
G01*
X0286836Y0389567D01*
G75*
G02*
X0287697Y0388706I0000000J-000861D01*
G01*
X0287697Y0386688D01*
G75*
G02*
X0286836Y0385827I-000861J0000000D01*
G01*
X0285114Y0385827D01*
G75*
G02*
X0284252Y0386688I0000000J0000861D01*
G01*
G37*
G36*
G01*
X0290453Y0386688D02*
X0290453Y0388706D01*
G75*
G02*
X0291314Y0389567I0000861J0000000D01*
G01*
X0293037Y0389567D01*
G75*
G02*
X0293898Y0388706I0000000J-000861D01*
G01*
X0293898Y0386688D01*
G75*
G02*
X0293037Y0385827I-000861J0000000D01*
G01*
X0291314Y0385827D01*
G75*
G02*
X0290453Y0386688I0000000J0000861D01*
G01*
G37*
G36*
G01*
X0281202Y0457398D02*
X0279185Y0457398D01*
G75*
G02*
X0278323Y0458259I0000000J0000861D01*
G01*
X0278323Y0459981D01*
G75*
G02*
X0279185Y0460843I0000861J0000000D01*
G01*
X0281202Y0460843D01*
G75*
G02*
X0282063Y0459981I0000000J-000861D01*
G01*
X0282063Y0458259D01*
G75*
G02*
X0281202Y0457398I-000861J0000000D01*
G01*
G37*
G36*
G01*
X0281202Y0463598D02*
X0279185Y0463598D01*
G75*
G02*
X0278323Y0464460I0000000J0000861D01*
G01*
X0278323Y0466182D01*
G75*
G02*
X0279185Y0467043I0000861J0000000D01*
G01*
X0281202Y0467043D01*
G75*
G02*
X0282063Y0466182I0000000J-000861D01*
G01*
X0282063Y0464460D01*
G75*
G02*
X0281202Y0463598I-000861J0000000D01*
G01*
G37*
G36*
G01*
X0306764Y0462791D02*
X0308123Y0462791D01*
G75*
G02*
X0308703Y0462211I0000000J-000581D01*
G01*
X0308703Y0461049D01*
G75*
G02*
X0308123Y0460469I-000581J0000000D01*
G01*
X0306764Y0460469D01*
G75*
G02*
X0306184Y0461049I0000000J0000581D01*
G01*
X0306184Y0462211D01*
G75*
G02*
X0306764Y0462791I0000581J0000000D01*
G01*
G37*
G36*
G01*
X0306764Y0458972D02*
X0308123Y0458972D01*
G75*
G02*
X0308703Y0458392I0000000J-000581D01*
G01*
X0308703Y0457230D01*
G75*
G02*
X0308123Y0456650I-000581J0000000D01*
G01*
X0306764Y0456650D01*
G75*
G02*
X0306184Y0457230I0000000J0000581D01*
G01*
X0306184Y0458392D01*
G75*
G02*
X0306764Y0458972I0000581J0000000D01*
G01*
G37*
G36*
G01*
X0290264Y0474900D02*
X0290264Y0473541D01*
G75*
G02*
X0289684Y0472961I-000581J0000000D01*
G01*
X0288522Y0472961D01*
G75*
G02*
X0287941Y0473541I0000000J0000581D01*
G01*
X0287941Y0474900D01*
G75*
G02*
X0288522Y0475480I0000581J0000000D01*
G01*
X0289684Y0475480D01*
G75*
G02*
X0290264Y0474900I0000000J-000581D01*
G01*
G37*
G36*
G01*
X0286445Y0474900D02*
X0286445Y0473541D01*
G75*
G02*
X0285865Y0472961I-000581J0000000D01*
G01*
X0284703Y0472961D01*
G75*
G02*
X0284123Y0473541I0000000J0000581D01*
G01*
X0284123Y0474900D01*
G75*
G02*
X0284703Y0475480I0000581J0000000D01*
G01*
X0285865Y0475480D01*
G75*
G02*
X0286445Y0474900I0000000J-000581D01*
G01*
G37*
G36*
G01*
X0268288Y0468612D02*
X0268288Y0469970D01*
G75*
G02*
X0268869Y0470551I0000581J0000000D01*
G01*
X0270030Y0470551D01*
G75*
G02*
X0270611Y0469970I0000000J-000581D01*
G01*
X0270611Y0468612D01*
G75*
G02*
X0270030Y0468032I-000581J0000000D01*
G01*
X0268869Y0468032D01*
G75*
G02*
X0268288Y0468612I0000000J0000581D01*
G01*
G37*
G36*
G01*
X0272107Y0468612D02*
X0272107Y0469970D01*
G75*
G02*
X0272687Y0470551I0000581J0000000D01*
G01*
X0273849Y0470551D01*
G75*
G02*
X0274430Y0469970I0000000J-000581D01*
G01*
X0274430Y0468612D01*
G75*
G02*
X0273849Y0468032I-000581J0000000D01*
G01*
X0272687Y0468032D01*
G75*
G02*
X0272107Y0468612I0000000J0000581D01*
G01*
G37*
G36*
G01*
X0264951Y0464055D02*
X0263593Y0464055D01*
G75*
G02*
X0263012Y0464636I0000000J0000581D01*
G01*
X0263012Y0465797D01*
G75*
G02*
X0263593Y0466378I0000581J0000000D01*
G01*
X0264951Y0466378D01*
G75*
G02*
X0265532Y0465797I0000000J-000581D01*
G01*
X0265532Y0464636D01*
G75*
G02*
X0264951Y0464055I-000581J0000000D01*
G01*
G37*
G36*
G01*
X0264951Y0467874D02*
X0263593Y0467874D01*
G75*
G02*
X0263012Y0468455I0000000J0000581D01*
G01*
X0263012Y0469616D01*
G75*
G02*
X0263593Y0470197I0000581J0000000D01*
G01*
X0264951Y0470197D01*
G75*
G02*
X0265532Y0469616I0000000J-000581D01*
G01*
X0265532Y0468455D01*
G75*
G02*
X0264951Y0467874I-000581J0000000D01*
G01*
G37*
G36*
G01*
X0263770Y0439252D02*
X0262412Y0439252D01*
G75*
G02*
X0261831Y0439833I0000000J0000581D01*
G01*
X0261831Y0440994D01*
G75*
G02*
X0262412Y0441575I0000581J0000000D01*
G01*
X0263770Y0441575D01*
G75*
G02*
X0264351Y0440994I0000000J-000581D01*
G01*
X0264351Y0439833D01*
G75*
G02*
X0263770Y0439252I-000581J0000000D01*
G01*
G37*
G36*
G01*
X0263770Y0443071D02*
X0262412Y0443071D01*
G75*
G02*
X0261831Y0443652I0000000J0000581D01*
G01*
X0261831Y0444813D01*
G75*
G02*
X0262412Y0445394I0000581J0000000D01*
G01*
X0263770Y0445394D01*
G75*
G02*
X0264351Y0444813I0000000J-000581D01*
G01*
X0264351Y0443652D01*
G75*
G02*
X0263770Y0443071I-000581J0000000D01*
G01*
G37*
G36*
G01*
X0306764Y0455041D02*
X0308123Y0455041D01*
G75*
G02*
X0308703Y0454461I0000000J-000581D01*
G01*
X0308703Y0453299D01*
G75*
G02*
X0308123Y0452719I-000581J0000000D01*
G01*
X0306764Y0452719D01*
G75*
G02*
X0306184Y0453299I0000000J0000581D01*
G01*
X0306184Y0454461D01*
G75*
G02*
X0306764Y0455041I0000581J0000000D01*
G01*
G37*
G36*
G01*
X0306764Y0451222D02*
X0308123Y0451222D01*
G75*
G02*
X0308703Y0450642I0000000J-000581D01*
G01*
X0308703Y0449480D01*
G75*
G02*
X0308123Y0448900I-000581J0000000D01*
G01*
X0306764Y0448900D01*
G75*
G02*
X0306184Y0449480I0000000J0000581D01*
G01*
X0306184Y0450642D01*
G75*
G02*
X0306764Y0451222I0000581J0000000D01*
G01*
G37*
G36*
G01*
X0306764Y0447291D02*
X0308123Y0447291D01*
G75*
G02*
X0308703Y0446711I0000000J-000581D01*
G01*
X0308703Y0445549D01*
G75*
G02*
X0308123Y0444969I-000581J0000000D01*
G01*
X0306764Y0444969D01*
G75*
G02*
X0306184Y0445549I0000000J0000581D01*
G01*
X0306184Y0446711D01*
G75*
G02*
X0306764Y0447291I0000581J0000000D01*
G01*
G37*
G36*
G01*
X0306764Y0443472D02*
X0308123Y0443472D01*
G75*
G02*
X0308703Y0442892I0000000J-000581D01*
G01*
X0308703Y0441730D01*
G75*
G02*
X0308123Y0441150I-000581J0000000D01*
G01*
X0306764Y0441150D01*
G75*
G02*
X0306184Y0441730I0000000J0000581D01*
G01*
X0306184Y0442892D01*
G75*
G02*
X0306764Y0443472I0000581J0000000D01*
G01*
G37*
G36*
G01*
X0282264Y0470900D02*
X0282264Y0469541D01*
G75*
G02*
X0281684Y0468961I-000581J0000000D01*
G01*
X0280522Y0468961D01*
G75*
G02*
X0279941Y0469541I0000000J0000581D01*
G01*
X0279941Y0470900D01*
G75*
G02*
X0280522Y0471480I0000581J0000000D01*
G01*
X0281684Y0471480D01*
G75*
G02*
X0282264Y0470900I0000000J-000581D01*
G01*
G37*
G36*
G01*
X0278445Y0470900D02*
X0278445Y0469541D01*
G75*
G02*
X0277865Y0468961I-000581J0000000D01*
G01*
X0276703Y0468961D01*
G75*
G02*
X0276123Y0469541I0000000J0000581D01*
G01*
X0276123Y0470900D01*
G75*
G02*
X0276703Y0471480I0000581J0000000D01*
G01*
X0277865Y0471480D01*
G75*
G02*
X0278445Y0470900I0000000J-000581D01*
G01*
G37*
D112*
X0292215Y0381134D03*
X0284735Y0381134D03*
X0288475Y0373260D03*
D642*
X0286516Y0444606D03*
X0289075Y0444606D03*
X0291634Y0444606D03*
X0294193Y0444606D03*
X0296752Y0444606D03*
X0299312Y0444606D03*
X0301871Y0444606D03*
X0301871Y0467835D03*
X0299312Y0467835D03*
X0296752Y0467835D03*
X0294193Y0467835D03*
X0291634Y0467835D03*
X0289075Y0467835D03*
X0286516Y0467835D03*
G36*
G01*
X0290264Y0478900D02*
X0290264Y0477541D01*
G75*
G02*
X0289684Y0476961I-000581J0000000D01*
G01*
X0288522Y0476961D01*
G75*
G02*
X0287941Y0477541I0000000J0000581D01*
G01*
X0287941Y0478900D01*
G75*
G02*
X0288522Y0479480I0000581J0000000D01*
G01*
X0289684Y0479480D01*
G75*
G02*
X0290264Y0478900I0000000J-000581D01*
G01*
G37*
G36*
G01*
X0286445Y0478900D02*
X0286445Y0477541D01*
G75*
G02*
X0285865Y0476961I-000581J0000000D01*
G01*
X0284703Y0476961D01*
G75*
G02*
X0284123Y0477541I0000000J0000581D01*
G01*
X0284123Y0478900D01*
G75*
G02*
X0284703Y0479480I0000581J0000000D01*
G01*
X0285865Y0479480D01*
G75*
G02*
X0286445Y0478900I0000000J-000581D01*
G01*
G37*
G36*
G01*
X0267510Y0431772D02*
X0266152Y0431772D01*
G75*
G02*
X0265571Y0432352I0000000J0000581D01*
G01*
X0265571Y0433514D01*
G75*
G02*
X0266152Y0434095I0000581J0000000D01*
G01*
X0267510Y0434095D01*
G75*
G02*
X0268091Y0433514I0000000J-000581D01*
G01*
X0268091Y0432352D01*
G75*
G02*
X0267510Y0431772I-000581J0000000D01*
G01*
G37*
G36*
G01*
X0267510Y0435591D02*
X0266152Y0435591D01*
G75*
G02*
X0265571Y0436171I0000000J0000581D01*
G01*
X0265571Y0437333D01*
G75*
G02*
X0266152Y0437913I0000581J0000000D01*
G01*
X0267510Y0437913D01*
G75*
G02*
X0268091Y0437333I0000000J-000581D01*
G01*
X0268091Y0436171D01*
G75*
G02*
X0267510Y0435591I-000581J0000000D01*
G01*
G37*
G36*
G01*
X0262412Y0437913D02*
X0263770Y0437913D01*
G75*
G02*
X0264351Y0437333I0000000J-000581D01*
G01*
X0264351Y0436171D01*
G75*
G02*
X0263770Y0435591I-000581J0000000D01*
G01*
X0262412Y0435591D01*
G75*
G02*
X0261831Y0436171I0000000J0000581D01*
G01*
X0261831Y0437333D01*
G75*
G02*
X0262412Y0437913I0000581J0000000D01*
G01*
G37*
G36*
G01*
X0262412Y0434095D02*
X0263770Y0434095D01*
G75*
G02*
X0264351Y0433514I0000000J-000581D01*
G01*
X0264351Y0432352D01*
G75*
G02*
X0263770Y0431772I-000581J0000000D01*
G01*
X0262412Y0431772D01*
G75*
G02*
X0261831Y0432352I0000000J0000581D01*
G01*
X0261831Y0433514D01*
G75*
G02*
X0262412Y0434095I0000581J0000000D01*
G01*
G37*
G36*
G01*
X0283445Y0434360D02*
X0283445Y0435719D01*
G75*
G02*
X0284026Y0436299I0000581J0000000D01*
G01*
X0285187Y0436299D01*
G75*
G02*
X0285768Y0435719I0000000J-000581D01*
G01*
X0285768Y0434360D01*
G75*
G02*
X0285187Y0433780I-000581J0000000D01*
G01*
X0284026Y0433780D01*
G75*
G02*
X0283445Y0434360I0000000J0000581D01*
G01*
G37*
G36*
G01*
X0287264Y0434360D02*
X0287264Y0435719D01*
G75*
G02*
X0287845Y0436299I0000581J0000000D01*
G01*
X0289006Y0436299D01*
G75*
G02*
X0289587Y0435719I0000000J-000581D01*
G01*
X0289587Y0434360D01*
G75*
G02*
X0289006Y0433780I-000581J0000000D01*
G01*
X0287845Y0433780D01*
G75*
G02*
X0287264Y0434360I0000000J0000581D01*
G01*
G37*
G36*
G01*
X0273249Y0480797D02*
X0273249Y0479439D01*
G75*
G02*
X0272668Y0478858I-000581J0000000D01*
G01*
X0271506Y0478858D01*
G75*
G02*
X0270926Y0479439I0000000J0000581D01*
G01*
X0270926Y0480797D01*
G75*
G02*
X0271506Y0481378I0000581J0000000D01*
G01*
X0272668Y0481378D01*
G75*
G02*
X0273249Y0480797I0000000J-000581D01*
G01*
G37*
G36*
G01*
X0269430Y0480797D02*
X0269430Y0479439D01*
G75*
G02*
X0268849Y0478858I-000581J0000000D01*
G01*
X0267687Y0478858D01*
G75*
G02*
X0267107Y0479439I0000000J0000581D01*
G01*
X0267107Y0480797D01*
G75*
G02*
X0267687Y0481378I0000581J0000000D01*
G01*
X0268849Y0481378D01*
G75*
G02*
X0269430Y0480797I0000000J-000581D01*
G01*
G37*
G36*
G01*
X0263770Y0406240D02*
X0262412Y0406240D01*
G75*
G02*
X0261831Y0406821I0000000J0000581D01*
G01*
X0261831Y0407982D01*
G75*
G02*
X0262412Y0408563I0000581J0000000D01*
G01*
X0263770Y0408563D01*
G75*
G02*
X0264351Y0407982I0000000J-000581D01*
G01*
X0264351Y0406821D01*
G75*
G02*
X0263770Y0406240I-000581J0000000D01*
G01*
G37*
G36*
G01*
X0263770Y0410059D02*
X0262412Y0410059D01*
G75*
G02*
X0261831Y0410640I0000000J0000581D01*
G01*
X0261831Y0411801D01*
G75*
G02*
X0262412Y0412382I0000581J0000000D01*
G01*
X0263770Y0412382D01*
G75*
G02*
X0264351Y0411801I0000000J-000581D01*
G01*
X0264351Y0410640D01*
G75*
G02*
X0263770Y0410059I-000581J0000000D01*
G01*
G37*
G36*
G01*
X0299587Y0429636D02*
X0299587Y0430994D01*
G75*
G02*
X0300168Y0431575I0000581J0000000D01*
G01*
X0301329Y0431575D01*
G75*
G02*
X0301910Y0430994I0000000J-000581D01*
G01*
X0301910Y0429636D01*
G75*
G02*
X0301329Y0429055I-000581J0000000D01*
G01*
X0300168Y0429055D01*
G75*
G02*
X0299587Y0429636I0000000J0000581D01*
G01*
G37*
G36*
G01*
X0303406Y0429636D02*
X0303406Y0430994D01*
G75*
G02*
X0303987Y0431575I0000581J0000000D01*
G01*
X0305148Y0431575D01*
G75*
G02*
X0305729Y0430994I0000000J-000581D01*
G01*
X0305729Y0429636D01*
G75*
G02*
X0305148Y0429055I-000581J0000000D01*
G01*
X0303987Y0429055D01*
G75*
G02*
X0303406Y0429636I0000000J0000581D01*
G01*
G37*
G36*
G01*
X0270493Y0395167D02*
X0270493Y0393809D01*
G75*
G02*
X0269912Y0393228I-000581J0000000D01*
G01*
X0268750Y0393228D01*
G75*
G02*
X0268170Y0393809I0000000J0000581D01*
G01*
X0268170Y0395167D01*
G75*
G02*
X0268750Y0395748I0000581J0000000D01*
G01*
X0269912Y0395748D01*
G75*
G02*
X0270493Y0395167I0000000J-000581D01*
G01*
G37*
G36*
G01*
X0266674Y0395167D02*
X0266674Y0393809D01*
G75*
G02*
X0266093Y0393228I-000581J0000000D01*
G01*
X0264932Y0393228D01*
G75*
G02*
X0264351Y0393809I0000000J0000581D01*
G01*
X0264351Y0395167D01*
G75*
G02*
X0264932Y0395748I0000581J0000000D01*
G01*
X0266093Y0395748D01*
G75*
G02*
X0266674Y0395167I0000000J-000581D01*
G01*
G37*
D641*
X0277461Y0486890D03*
X0277461Y0504843D03*
D645*
X0308859Y0489862D03*
X0308859Y0501870D03*
X0295670Y0489862D03*
X0295670Y0501870D03*
G36*
G01*
X0311408Y0473642D02*
X0310050Y0473642D01*
G75*
G02*
X0309469Y0474222I0000000J0000581D01*
G01*
X0309469Y0475384D01*
G75*
G02*
X0310050Y0475965I0000581J0000000D01*
G01*
X0311408Y0475965D01*
G75*
G02*
X0311989Y0475384I0000000J-000581D01*
G01*
X0311989Y0474222D01*
G75*
G02*
X0311408Y0473642I-000581J0000000D01*
G01*
G37*
G36*
G01*
X0311408Y0477461D02*
X0310050Y0477461D01*
G75*
G02*
X0309469Y0478041I0000000J0000581D01*
G01*
X0309469Y0479203D01*
G75*
G02*
X0310050Y0479783I0000581J0000000D01*
G01*
X0311408Y0479783D01*
G75*
G02*
X0311989Y0479203I0000000J-000581D01*
G01*
X0311989Y0478041D01*
G75*
G02*
X0311408Y0477461I-000581J0000000D01*
G01*
G37*
G36*
G01*
X0305729Y0435522D02*
X0305729Y0434163D01*
G75*
G02*
X0305148Y0433583I-000581J0000000D01*
G01*
X0303987Y0433583D01*
G75*
G02*
X0303406Y0434163I0000000J0000581D01*
G01*
X0303406Y0435522D01*
G75*
G02*
X0303987Y0436102I0000581J0000000D01*
G01*
X0305148Y0436102D01*
G75*
G02*
X0305729Y0435522I0000000J-000581D01*
G01*
G37*
G36*
G01*
X0301910Y0435522D02*
X0301910Y0434163D01*
G75*
G02*
X0301329Y0433583I-000581J0000000D01*
G01*
X0300168Y0433583D01*
G75*
G02*
X0299587Y0434163I0000000J0000581D01*
G01*
X0299587Y0435522D01*
G75*
G02*
X0300168Y0436102I0000581J0000000D01*
G01*
X0301329Y0436102D01*
G75*
G02*
X0301910Y0435522I0000000J-000581D01*
G01*
G37*
G36*
G01*
X0265148Y0471870D02*
X0263790Y0471870D01*
G75*
G02*
X0263209Y0472451I0000000J0000581D01*
G01*
X0263209Y0473612D01*
G75*
G02*
X0263790Y0474193I0000581J0000000D01*
G01*
X0265148Y0474193D01*
G75*
G02*
X0265729Y0473612I0000000J-000581D01*
G01*
X0265729Y0472451D01*
G75*
G02*
X0265148Y0471870I-000581J0000000D01*
G01*
G37*
G36*
G01*
X0265148Y0475689D02*
X0263790Y0475689D01*
G75*
G02*
X0263209Y0476270I0000000J0000581D01*
G01*
X0263209Y0477431D01*
G75*
G02*
X0263790Y0478012I0000581J0000000D01*
G01*
X0265148Y0478012D01*
G75*
G02*
X0265729Y0477431I0000000J-000581D01*
G01*
X0265729Y0476270D01*
G75*
G02*
X0265148Y0475689I-000581J0000000D01*
G01*
G37*
G36*
G01*
X0298623Y0438041D02*
X0298623Y0439400D01*
G75*
G02*
X0299203Y0439980I0000581J0000000D01*
G01*
X0300365Y0439980D01*
G75*
G02*
X0300945Y0439400I0000000J-000581D01*
G01*
X0300945Y0438041D01*
G75*
G02*
X0300365Y0437461I-000581J0000000D01*
G01*
X0299203Y0437461D01*
G75*
G02*
X0298623Y0438041I0000000J0000581D01*
G01*
G37*
G36*
G01*
X0302441Y0438041D02*
X0302441Y0439400D01*
G75*
G02*
X0303022Y0439980I0000581J0000000D01*
G01*
X0304184Y0439980D01*
G75*
G02*
X0304764Y0439400I0000000J-000581D01*
G01*
X0304764Y0438041D01*
G75*
G02*
X0304184Y0437461I-000581J0000000D01*
G01*
X0303022Y0437461D01*
G75*
G02*
X0302441Y0438041I0000000J0000581D01*
G01*
G37*
G36*
G01*
X0298219Y0383937D02*
X0296861Y0383937D01*
G75*
G02*
X0296280Y0384518I0000000J0000581D01*
G01*
X0296280Y0385679D01*
G75*
G02*
X0296861Y0386260I0000581J0000000D01*
G01*
X0298219Y0386260D01*
G75*
G02*
X0298800Y0385679I0000000J-000581D01*
G01*
X0298800Y0384518D01*
G75*
G02*
X0298219Y0383937I-000581J0000000D01*
G01*
G37*
G36*
G01*
X0298219Y0387756D02*
X0296861Y0387756D01*
G75*
G02*
X0296280Y0388337I0000000J0000581D01*
G01*
X0296280Y0389498D01*
G75*
G02*
X0296861Y0390079I0000581J0000000D01*
G01*
X0298219Y0390079D01*
G75*
G02*
X0298800Y0389498I0000000J-000581D01*
G01*
X0298800Y0388337D01*
G75*
G02*
X0298219Y0387756I-000581J0000000D01*
G01*
G37*
G36*
G01*
X0308185Y0423043D02*
X0310202Y0423043D01*
G75*
G02*
X0311063Y0422182I0000000J-000861D01*
G01*
X0311063Y0420460D01*
G75*
G02*
X0310202Y0419598I-000861J0000000D01*
G01*
X0308185Y0419598D01*
G75*
G02*
X0307323Y0420460I0000000J0000861D01*
G01*
X0307323Y0422182D01*
G75*
G02*
X0308185Y0423043I0000861J0000000D01*
G01*
G37*
G36*
G01*
X0308185Y0416843D02*
X0310202Y0416843D01*
G75*
G02*
X0311063Y0415981I0000000J-000861D01*
G01*
X0311063Y0414259D01*
G75*
G02*
X0310202Y0413398I-000861J0000000D01*
G01*
X0308185Y0413398D01*
G75*
G02*
X0307323Y0414259I0000000J0000861D01*
G01*
X0307323Y0415981D01*
G75*
G02*
X0308185Y0416843I0000861J0000000D01*
G01*
G37*
G36*
G01*
X0308514Y0431291D02*
X0309873Y0431291D01*
G75*
G02*
X0310453Y0430711I0000000J-000581D01*
G01*
X0310453Y0429549D01*
G75*
G02*
X0309873Y0428969I-000581J0000000D01*
G01*
X0308514Y0428969D01*
G75*
G02*
X0307934Y0429549I0000000J0000581D01*
G01*
X0307934Y0430711D01*
G75*
G02*
X0308514Y0431291I0000581J0000000D01*
G01*
G37*
G36*
G01*
X0308514Y0427472D02*
X0309873Y0427472D01*
G75*
G02*
X0310453Y0426892I0000000J-000581D01*
G01*
X0310453Y0425730D01*
G75*
G02*
X0309873Y0425150I-000581J0000000D01*
G01*
X0308514Y0425150D01*
G75*
G02*
X0307934Y0425730I0000000J0000581D01*
G01*
X0307934Y0426892D01*
G75*
G02*
X0308514Y0427472I0000581J0000000D01*
G01*
G37*
G36*
G01*
X0280514Y0443791D02*
X0281873Y0443791D01*
G75*
G02*
X0282453Y0443211I0000000J-000581D01*
G01*
X0282453Y0442049D01*
G75*
G02*
X0281873Y0441469I-000581J0000000D01*
G01*
X0280514Y0441469D01*
G75*
G02*
X0279934Y0442049I0000000J0000581D01*
G01*
X0279934Y0443211D01*
G75*
G02*
X0280514Y0443791I0000581J0000000D01*
G01*
G37*
G36*
G01*
X0280514Y0439972D02*
X0281873Y0439972D01*
G75*
G02*
X0282453Y0439392I0000000J-000581D01*
G01*
X0282453Y0438230D01*
G75*
G02*
X0281873Y0437650I-000581J0000000D01*
G01*
X0280514Y0437650D01*
G75*
G02*
X0279934Y0438230I0000000J0000581D01*
G01*
X0279934Y0439392D01*
G75*
G02*
X0280514Y0439972I0000581J0000000D01*
G01*
G37*
G36*
G01*
X0276123Y0449541D02*
X0276123Y0450900D01*
G75*
G02*
X0276703Y0451480I0000581J0000000D01*
G01*
X0277865Y0451480D01*
G75*
G02*
X0278445Y0450900I0000000J-000581D01*
G01*
X0278445Y0449541D01*
G75*
G02*
X0277865Y0448961I-000581J0000000D01*
G01*
X0276703Y0448961D01*
G75*
G02*
X0276123Y0449541I0000000J0000581D01*
G01*
G37*
G36*
G01*
X0279941Y0449541D02*
X0279941Y0450900D01*
G75*
G02*
X0280522Y0451480I0000581J0000000D01*
G01*
X0281684Y0451480D01*
G75*
G02*
X0282264Y0450900I0000000J-000581D01*
G01*
X0282264Y0449541D01*
G75*
G02*
X0281684Y0448961I-000581J0000000D01*
G01*
X0280522Y0448961D01*
G75*
G02*
X0279941Y0449541I0000000J0000581D01*
G01*
G37*
G36*
G01*
X0276123Y0445778D02*
X0276123Y0447136D01*
G75*
G02*
X0276703Y0447717I0000581J0000000D01*
G01*
X0277865Y0447717D01*
G75*
G02*
X0278445Y0447136I0000000J-000581D01*
G01*
X0278445Y0445778D01*
G75*
G02*
X0277865Y0445197I-000581J0000000D01*
G01*
X0276703Y0445197D01*
G75*
G02*
X0276123Y0445778I0000000J0000581D01*
G01*
G37*
G36*
G01*
X0279941Y0445778D02*
X0279941Y0447136D01*
G75*
G02*
X0280522Y0447717I0000581J0000000D01*
G01*
X0281684Y0447717D01*
G75*
G02*
X0282264Y0447136I0000000J-000581D01*
G01*
X0282264Y0445778D01*
G75*
G02*
X0281684Y0445197I-000581J0000000D01*
G01*
X0280522Y0445197D01*
G75*
G02*
X0279941Y0445778I0000000J0000581D01*
G01*
G37*
G36*
G01*
X0276514Y0443791D02*
X0277873Y0443791D01*
G75*
G02*
X0278453Y0443211I0000000J-000581D01*
G01*
X0278453Y0442049D01*
G75*
G02*
X0277873Y0441469I-000581J0000000D01*
G01*
X0276514Y0441469D01*
G75*
G02*
X0275934Y0442049I0000000J0000581D01*
G01*
X0275934Y0443211D01*
G75*
G02*
X0276514Y0443791I0000581J0000000D01*
G01*
G37*
G36*
G01*
X0276514Y0439972D02*
X0277873Y0439972D01*
G75*
G02*
X0278453Y0439392I0000000J-000581D01*
G01*
X0278453Y0438230D01*
G75*
G02*
X0277873Y0437650I-000581J0000000D01*
G01*
X0276514Y0437650D01*
G75*
G02*
X0275934Y0438230I0000000J0000581D01*
G01*
X0275934Y0439392D01*
G75*
G02*
X0276514Y0439972I0000581J0000000D01*
G01*
G37*
D643*
X0271949Y0459882D03*
X0268209Y0459882D03*
X0264469Y0459882D03*
X0264469Y0449567D03*
X0271949Y0449567D03*
G36*
G01*
X0276123Y0453541D02*
X0276123Y0454900D01*
G75*
G02*
X0276703Y0455480I0000581J0000000D01*
G01*
X0277865Y0455480D01*
G75*
G02*
X0278445Y0454900I0000000J-000581D01*
G01*
X0278445Y0453541D01*
G75*
G02*
X0277865Y0452961I-000581J0000000D01*
G01*
X0276703Y0452961D01*
G75*
G02*
X0276123Y0453541I0000000J0000581D01*
G01*
G37*
G36*
G01*
X0279941Y0453541D02*
X0279941Y0454900D01*
G75*
G02*
X0280522Y0455480I0000581J0000000D01*
G01*
X0281684Y0455480D01*
G75*
G02*
X0282264Y0454900I0000000J-000581D01*
G01*
X0282264Y0453541D01*
G75*
G02*
X0281684Y0452961I-000581J0000000D01*
G01*
X0280522Y0452961D01*
G75*
G02*
X0279941Y0453541I0000000J0000581D01*
G01*
G37*
G36*
G01*
X0269075Y0464675D02*
X0269075Y0466033D01*
G75*
G02*
X0269656Y0466614I0000581J0000000D01*
G01*
X0270817Y0466614D01*
G75*
G02*
X0271398Y0466033I0000000J-000581D01*
G01*
X0271398Y0464675D01*
G75*
G02*
X0270817Y0464095I-000581J0000000D01*
G01*
X0269656Y0464095D01*
G75*
G02*
X0269075Y0464675I0000000J0000581D01*
G01*
G37*
G36*
G01*
X0272894Y0464675D02*
X0272894Y0466033D01*
G75*
G02*
X0273475Y0466614I0000581J0000000D01*
G01*
X0274636Y0466614D01*
G75*
G02*
X0275217Y0466033I0000000J-000581D01*
G01*
X0275217Y0464675D01*
G75*
G02*
X0274636Y0464095I-000581J0000000D01*
G01*
X0273475Y0464095D01*
G75*
G02*
X0272894Y0464675I0000000J0000581D01*
G01*
G37*
G36*
G01*
X0291623Y0478041D02*
X0291623Y0479400D01*
G75*
G02*
X0292203Y0479980I0000581J0000000D01*
G01*
X0293365Y0479980D01*
G75*
G02*
X0293945Y0479400I0000000J-000581D01*
G01*
X0293945Y0478041D01*
G75*
G02*
X0293365Y0477461I-000581J0000000D01*
G01*
X0292203Y0477461D01*
G75*
G02*
X0291623Y0478041I0000000J0000581D01*
G01*
G37*
G36*
G01*
X0295441Y0478041D02*
X0295441Y0479400D01*
G75*
G02*
X0296022Y0479980I0000581J0000000D01*
G01*
X0297184Y0479980D01*
G75*
G02*
X0297764Y0479400I0000000J-000581D01*
G01*
X0297764Y0478041D01*
G75*
G02*
X0297184Y0477461I-000581J0000000D01*
G01*
X0296022Y0477461D01*
G75*
G02*
X0295441Y0478041I0000000J0000581D01*
G01*
G37*
G36*
G01*
X0278016Y0476229D02*
X0278016Y0474212D01*
G75*
G02*
X0277155Y0473350I-000861J0000000D01*
G01*
X0275433Y0473350D01*
G75*
G02*
X0274571Y0474212I0000000J0000861D01*
G01*
X0274571Y0476229D01*
G75*
G02*
X0275433Y0477091I0000861J0000000D01*
G01*
X0277155Y0477091D01*
G75*
G02*
X0278016Y0476229I0000000J-000861D01*
G01*
G37*
G36*
G01*
X0271815Y0476229D02*
X0271815Y0474212D01*
G75*
G02*
X0270954Y0473350I-000861J0000000D01*
G01*
X0269232Y0473350D01*
G75*
G02*
X0268371Y0474212I0000000J0000861D01*
G01*
X0268371Y0476229D01*
G75*
G02*
X0269232Y0477091I0000861J0000000D01*
G01*
X0270954Y0477091D01*
G75*
G02*
X0271815Y0476229I0000000J-000861D01*
G01*
G37*
G36*
G01*
X0303140Y0473642D02*
X0301782Y0473642D01*
G75*
G02*
X0301201Y0474222I0000000J0000581D01*
G01*
X0301201Y0475384D01*
G75*
G02*
X0301782Y0475965I0000581J0000000D01*
G01*
X0303140Y0475965D01*
G75*
G02*
X0303721Y0475384I0000000J-000581D01*
G01*
X0303721Y0474222D01*
G75*
G02*
X0303140Y0473642I-000581J0000000D01*
G01*
G37*
G36*
G01*
X0303140Y0477461D02*
X0301782Y0477461D01*
G75*
G02*
X0301201Y0478041I0000000J0000581D01*
G01*
X0301201Y0479203D01*
G75*
G02*
X0301782Y0479783I0000581J0000000D01*
G01*
X0303140Y0479783D01*
G75*
G02*
X0303721Y0479203I0000000J-000581D01*
G01*
X0303721Y0478041D01*
G75*
G02*
X0303140Y0477461I-000581J0000000D01*
G01*
G37*
G36*
G01*
X0305916Y0479783D02*
X0307274Y0479783D01*
G75*
G02*
X0307855Y0479203I0000000J-000581D01*
G01*
X0307855Y0478041D01*
G75*
G02*
X0307274Y0477461I-000581J0000000D01*
G01*
X0305916Y0477461D01*
G75*
G02*
X0305335Y0478041I0000000J0000581D01*
G01*
X0305335Y0479203D01*
G75*
G02*
X0305916Y0479783I0000581J0000000D01*
G01*
G37*
G36*
G01*
X0305916Y0475965D02*
X0307274Y0475965D01*
G75*
G02*
X0307855Y0475384I0000000J-000581D01*
G01*
X0307855Y0474222D01*
G75*
G02*
X0307274Y0473642I-000581J0000000D01*
G01*
X0305916Y0473642D01*
G75*
G02*
X0305335Y0474222I0000000J0000581D01*
G01*
X0305335Y0475384D01*
G75*
G02*
X0305916Y0475965I0000581J0000000D01*
G01*
G37*
G36*
G01*
X0310202Y0401398D02*
X0308185Y0401398D01*
G75*
G02*
X0307323Y0402259I0000000J0000861D01*
G01*
X0307323Y0403981D01*
G75*
G02*
X0308185Y0404843I0000861J0000000D01*
G01*
X0310202Y0404843D01*
G75*
G02*
X0311063Y0403981I0000000J-000861D01*
G01*
X0311063Y0402259D01*
G75*
G02*
X0310202Y0401398I-000861J0000000D01*
G01*
G37*
G36*
G01*
X0310202Y0407598D02*
X0308185Y0407598D01*
G75*
G02*
X0307323Y0408460I0000000J0000861D01*
G01*
X0307323Y0410182D01*
G75*
G02*
X0308185Y0411043I0000861J0000000D01*
G01*
X0310202Y0411043D01*
G75*
G02*
X0311063Y0410182I0000000J-000861D01*
G01*
X0311063Y0408460D01*
G75*
G02*
X0310202Y0407598I-000861J0000000D01*
G01*
G37*
G36*
G01*
X0314754Y0398169D02*
X0313396Y0398169D01*
G75*
G02*
X0312815Y0398750I0000000J0000581D01*
G01*
X0312815Y0399911D01*
G75*
G02*
X0313396Y0400492I0000581J0000000D01*
G01*
X0314754Y0400492D01*
G75*
G02*
X0315335Y0399911I0000000J-000581D01*
G01*
X0315335Y0398750D01*
G75*
G02*
X0314754Y0398169I-000581J0000000D01*
G01*
G37*
G36*
G01*
X0314754Y0401988D02*
X0313396Y0401988D01*
G75*
G02*
X0312815Y0402569I0000000J0000581D01*
G01*
X0312815Y0403730D01*
G75*
G02*
X0313396Y0404311I0000581J0000000D01*
G01*
X0314754Y0404311D01*
G75*
G02*
X0315335Y0403730I0000000J-000581D01*
G01*
X0315335Y0402569D01*
G75*
G02*
X0314754Y0401988I-000581J0000000D01*
G01*
G37*
G36*
G01*
X0272648Y0445394D02*
X0274006Y0445394D01*
G75*
G02*
X0274587Y0444813I0000000J-000581D01*
G01*
X0274587Y0443652D01*
G75*
G02*
X0274006Y0443071I-000581J0000000D01*
G01*
X0272648Y0443071D01*
G75*
G02*
X0272067Y0443652I0000000J0000581D01*
G01*
X0272067Y0444813D01*
G75*
G02*
X0272648Y0445394I0000581J0000000D01*
G01*
G37*
G36*
G01*
X0272648Y0441575D02*
X0274006Y0441575D01*
G75*
G02*
X0274587Y0440994I0000000J-000581D01*
G01*
X0274587Y0439833D01*
G75*
G02*
X0274006Y0439252I-000581J0000000D01*
G01*
X0272648Y0439252D01*
G75*
G02*
X0272067Y0439833I0000000J0000581D01*
G01*
X0272067Y0440994D01*
G75*
G02*
X0272648Y0441575I0000581J0000000D01*
G01*
G37*
G36*
G01*
X0296260Y0431988D02*
X0297245Y0431988D01*
G75*
G02*
X0297737Y0431496I0000000J-000492D01*
G01*
X0297737Y0426575D01*
G75*
G02*
X0297245Y0426083I-000492J0000000D01*
G01*
X0296260Y0426083D01*
G75*
G02*
X0295768Y0426575I0000000J0000492D01*
G01*
X0295768Y0431496D01*
G75*
G02*
X0296260Y0431988I0000492J0000000D01*
G01*
G37*
G36*
G01*
X0293111Y0431988D02*
X0294095Y0431988D01*
G75*
G02*
X0294587Y0431496I0000000J-000492D01*
G01*
X0294587Y0426575D01*
G75*
G02*
X0294095Y0426083I-000492J0000000D01*
G01*
X0293111Y0426083D01*
G75*
G02*
X0292619Y0426575I0000000J0000492D01*
G01*
X0292619Y0431496D01*
G75*
G02*
X0293111Y0431988I0000492J0000000D01*
G01*
G37*
G36*
G01*
X0289961Y0431988D02*
X0290945Y0431988D01*
G75*
G02*
X0291437Y0431496I0000000J-000492D01*
G01*
X0291437Y0426575D01*
G75*
G02*
X0290945Y0426083I-000492J0000000D01*
G01*
X0289961Y0426083D01*
G75*
G02*
X0289469Y0426575I0000000J0000492D01*
G01*
X0289469Y0431496D01*
G75*
G02*
X0289961Y0431988I0000492J0000000D01*
G01*
G37*
G36*
G01*
X0286812Y0431988D02*
X0287796Y0431988D01*
G75*
G02*
X0288288Y0431496I0000000J-000492D01*
G01*
X0288288Y0426575D01*
G75*
G02*
X0287796Y0426083I-000492J0000000D01*
G01*
X0286812Y0426083D01*
G75*
G02*
X0286319Y0426575I0000000J0000492D01*
G01*
X0286319Y0431496D01*
G75*
G02*
X0286812Y0431988I0000492J0000000D01*
G01*
G37*
G36*
G01*
X0283662Y0431988D02*
X0284646Y0431988D01*
G75*
G02*
X0285138Y0431496I0000000J-000492D01*
G01*
X0285138Y0426575D01*
G75*
G02*
X0284646Y0426083I-000492J0000000D01*
G01*
X0283662Y0426083D01*
G75*
G02*
X0283170Y0426575I0000000J0000492D01*
G01*
X0283170Y0431496D01*
G75*
G02*
X0283662Y0431988I0000492J0000000D01*
G01*
G37*
G36*
G01*
X0280512Y0431988D02*
X0281497Y0431988D01*
G75*
G02*
X0281989Y0431496I0000000J-000492D01*
G01*
X0281989Y0426575D01*
G75*
G02*
X0281497Y0426083I-000492J0000000D01*
G01*
X0280512Y0426083D01*
G75*
G02*
X0280020Y0426575I0000000J0000492D01*
G01*
X0280020Y0431496D01*
G75*
G02*
X0280512Y0431988I0000492J0000000D01*
G01*
G37*
G36*
G01*
X0277363Y0431988D02*
X0278347Y0431988D01*
G75*
G02*
X0278839Y0431496I0000000J-000492D01*
G01*
X0278839Y0426575D01*
G75*
G02*
X0278347Y0426083I-000492J0000000D01*
G01*
X0277363Y0426083D01*
G75*
G02*
X0276871Y0426575I0000000J0000492D01*
G01*
X0276871Y0431496D01*
G75*
G02*
X0277363Y0431988I0000492J0000000D01*
G01*
G37*
G36*
G01*
X0274213Y0431988D02*
X0275197Y0431988D01*
G75*
G02*
X0275689Y0431496I0000000J-000492D01*
G01*
X0275689Y0426575D01*
G75*
G02*
X0275197Y0426083I-000492J0000000D01*
G01*
X0274213Y0426083D01*
G75*
G02*
X0273721Y0426575I0000000J0000492D01*
G01*
X0273721Y0431496D01*
G75*
G02*
X0274213Y0431988I0000492J0000000D01*
G01*
G37*
G36*
G01*
X0266831Y0424606D02*
X0271752Y0424606D01*
G75*
G02*
X0272245Y0424114I0000000J-000492D01*
G01*
X0272245Y0423130D01*
G75*
G02*
X0271752Y0422638I-000492J0000000D01*
G01*
X0266831Y0422638D01*
G75*
G02*
X0266339Y0423130I0000000J0000492D01*
G01*
X0266339Y0424114D01*
G75*
G02*
X0266831Y0424606I0000492J0000000D01*
G01*
G37*
G36*
G01*
X0266831Y0421457D02*
X0271752Y0421457D01*
G75*
G02*
X0272245Y0420965I0000000J-000492D01*
G01*
X0272245Y0419980D01*
G75*
G02*
X0271752Y0419488I-000492J0000000D01*
G01*
X0266831Y0419488D01*
G75*
G02*
X0266339Y0419980I0000000J0000492D01*
G01*
X0266339Y0420965D01*
G75*
G02*
X0266831Y0421457I0000492J0000000D01*
G01*
G37*
G36*
G01*
X0266831Y0418307D02*
X0271752Y0418307D01*
G75*
G02*
X0272245Y0417815I0000000J-000492D01*
G01*
X0272245Y0416831D01*
G75*
G02*
X0271752Y0416339I-000492J0000000D01*
G01*
X0266831Y0416339D01*
G75*
G02*
X0266339Y0416831I0000000J0000492D01*
G01*
X0266339Y0417815D01*
G75*
G02*
X0266831Y0418307I0000492J0000000D01*
G01*
G37*
G36*
G01*
X0266831Y0415157D02*
X0271752Y0415157D01*
G75*
G02*
X0272245Y0414665I0000000J-000492D01*
G01*
X0272245Y0413681D01*
G75*
G02*
X0271752Y0413189I-000492J0000000D01*
G01*
X0266831Y0413189D01*
G75*
G02*
X0266339Y0413681I0000000J0000492D01*
G01*
X0266339Y0414665D01*
G75*
G02*
X0266831Y0415157I0000492J0000000D01*
G01*
G37*
G36*
G01*
X0266831Y0412008D02*
X0271752Y0412008D01*
G75*
G02*
X0272245Y0411516I0000000J-000492D01*
G01*
X0272245Y0410532D01*
G75*
G02*
X0271752Y0410039I-000492J0000000D01*
G01*
X0266831Y0410039D01*
G75*
G02*
X0266339Y0410532I0000000J0000492D01*
G01*
X0266339Y0411516D01*
G75*
G02*
X0266831Y0412008I0000492J0000000D01*
G01*
G37*
G36*
G01*
X0266831Y0408858D02*
X0271752Y0408858D01*
G75*
G02*
X0272245Y0408366I0000000J-000492D01*
G01*
X0272245Y0407382D01*
G75*
G02*
X0271752Y0406890I-000492J0000000D01*
G01*
X0266831Y0406890D01*
G75*
G02*
X0266339Y0407382I0000000J0000492D01*
G01*
X0266339Y0408366D01*
G75*
G02*
X0266831Y0408858I0000492J0000000D01*
G01*
G37*
G36*
G01*
X0266831Y0405709D02*
X0271752Y0405709D01*
G75*
G02*
X0272245Y0405217I0000000J-000492D01*
G01*
X0272245Y0404232D01*
G75*
G02*
X0271752Y0403740I-000492J0000000D01*
G01*
X0266831Y0403740D01*
G75*
G02*
X0266339Y0404232I0000000J0000492D01*
G01*
X0266339Y0405217D01*
G75*
G02*
X0266831Y0405709I0000492J0000000D01*
G01*
G37*
G36*
G01*
X0266831Y0402559D02*
X0271752Y0402559D01*
G75*
G02*
X0272245Y0402067I0000000J-000492D01*
G01*
X0272245Y0401083D01*
G75*
G02*
X0271752Y0400591I-000492J0000000D01*
G01*
X0266831Y0400591D01*
G75*
G02*
X0266339Y0401083I0000000J0000492D01*
G01*
X0266339Y0402067D01*
G75*
G02*
X0266831Y0402559I0000492J0000000D01*
G01*
G37*
G36*
G01*
X0274213Y0399114D02*
X0275197Y0399114D01*
G75*
G02*
X0275689Y0398622I0000000J-000492D01*
G01*
X0275689Y0393701D01*
G75*
G02*
X0275197Y0393209I-000492J0000000D01*
G01*
X0274213Y0393209D01*
G75*
G02*
X0273721Y0393701I0000000J0000492D01*
G01*
X0273721Y0398622D01*
G75*
G02*
X0274213Y0399114I0000492J0000000D01*
G01*
G37*
G36*
G01*
X0277363Y0399114D02*
X0278347Y0399114D01*
G75*
G02*
X0278839Y0398622I0000000J-000492D01*
G01*
X0278839Y0393701D01*
G75*
G02*
X0278347Y0393209I-000492J0000000D01*
G01*
X0277363Y0393209D01*
G75*
G02*
X0276871Y0393701I0000000J0000492D01*
G01*
X0276871Y0398622D01*
G75*
G02*
X0277363Y0399114I0000492J0000000D01*
G01*
G37*
G36*
G01*
X0280512Y0399114D02*
X0281497Y0399114D01*
G75*
G02*
X0281989Y0398622I0000000J-000492D01*
G01*
X0281989Y0393701D01*
G75*
G02*
X0281497Y0393209I-000492J0000000D01*
G01*
X0280512Y0393209D01*
G75*
G02*
X0280020Y0393701I0000000J0000492D01*
G01*
X0280020Y0398622D01*
G75*
G02*
X0280512Y0399114I0000492J0000000D01*
G01*
G37*
G36*
G01*
X0283662Y0399114D02*
X0284646Y0399114D01*
G75*
G02*
X0285138Y0398622I0000000J-000492D01*
G01*
X0285138Y0393701D01*
G75*
G02*
X0284646Y0393209I-000492J0000000D01*
G01*
X0283662Y0393209D01*
G75*
G02*
X0283170Y0393701I0000000J0000492D01*
G01*
X0283170Y0398622D01*
G75*
G02*
X0283662Y0399114I0000492J0000000D01*
G01*
G37*
G36*
G01*
X0286812Y0399114D02*
X0287796Y0399114D01*
G75*
G02*
X0288288Y0398622I0000000J-000492D01*
G01*
X0288288Y0393701D01*
G75*
G02*
X0287796Y0393209I-000492J0000000D01*
G01*
X0286812Y0393209D01*
G75*
G02*
X0286319Y0393701I0000000J0000492D01*
G01*
X0286319Y0398622D01*
G75*
G02*
X0286812Y0399114I0000492J0000000D01*
G01*
G37*
G36*
G01*
X0289961Y0399114D02*
X0290945Y0399114D01*
G75*
G02*
X0291437Y0398622I0000000J-000492D01*
G01*
X0291437Y0393701D01*
G75*
G02*
X0290945Y0393209I-000492J0000000D01*
G01*
X0289961Y0393209D01*
G75*
G02*
X0289469Y0393701I0000000J0000492D01*
G01*
X0289469Y0398622D01*
G75*
G02*
X0289961Y0399114I0000492J0000000D01*
G01*
G37*
G36*
G01*
X0293111Y0399114D02*
X0294095Y0399114D01*
G75*
G02*
X0294587Y0398622I0000000J-000492D01*
G01*
X0294587Y0393701D01*
G75*
G02*
X0294095Y0393209I-000492J0000000D01*
G01*
X0293111Y0393209D01*
G75*
G02*
X0292619Y0393701I0000000J0000492D01*
G01*
X0292619Y0398622D01*
G75*
G02*
X0293111Y0399114I0000492J0000000D01*
G01*
G37*
G36*
G01*
X0296260Y0399114D02*
X0297245Y0399114D01*
G75*
G02*
X0297737Y0398622I0000000J-000492D01*
G01*
X0297737Y0393701D01*
G75*
G02*
X0297245Y0393209I-000492J0000000D01*
G01*
X0296260Y0393209D01*
G75*
G02*
X0295768Y0393701I0000000J0000492D01*
G01*
X0295768Y0398622D01*
G75*
G02*
X0296260Y0399114I0000492J0000000D01*
G01*
G37*
G36*
G01*
X0299705Y0402559D02*
X0304626Y0402559D01*
G75*
G02*
X0305119Y0402067I0000000J-000492D01*
G01*
X0305119Y0401083D01*
G75*
G02*
X0304626Y0400591I-000492J0000000D01*
G01*
X0299705Y0400591D01*
G75*
G02*
X0299213Y0401083I0000000J0000492D01*
G01*
X0299213Y0402067D01*
G75*
G02*
X0299705Y0402559I0000492J0000000D01*
G01*
G37*
G36*
G01*
X0299705Y0405709D02*
X0304626Y0405709D01*
G75*
G02*
X0305119Y0405217I0000000J-000492D01*
G01*
X0305119Y0404232D01*
G75*
G02*
X0304626Y0403740I-000492J0000000D01*
G01*
X0299705Y0403740D01*
G75*
G02*
X0299213Y0404232I0000000J0000492D01*
G01*
X0299213Y0405217D01*
G75*
G02*
X0299705Y0405709I0000492J0000000D01*
G01*
G37*
G36*
G01*
X0299705Y0408858D02*
X0304626Y0408858D01*
G75*
G02*
X0305119Y0408366I0000000J-000492D01*
G01*
X0305119Y0407382D01*
G75*
G02*
X0304626Y0406890I-000492J0000000D01*
G01*
X0299705Y0406890D01*
G75*
G02*
X0299213Y0407382I0000000J0000492D01*
G01*
X0299213Y0408366D01*
G75*
G02*
X0299705Y0408858I0000492J0000000D01*
G01*
G37*
G36*
G01*
X0299705Y0412008D02*
X0304626Y0412008D01*
G75*
G02*
X0305119Y0411516I0000000J-000492D01*
G01*
X0305119Y0410532D01*
G75*
G02*
X0304626Y0410039I-000492J0000000D01*
G01*
X0299705Y0410039D01*
G75*
G02*
X0299213Y0410532I0000000J0000492D01*
G01*
X0299213Y0411516D01*
G75*
G02*
X0299705Y0412008I0000492J0000000D01*
G01*
G37*
G36*
G01*
X0299705Y0415157D02*
X0304626Y0415157D01*
G75*
G02*
X0305119Y0414665I0000000J-000492D01*
G01*
X0305119Y0413681D01*
G75*
G02*
X0304626Y0413189I-000492J0000000D01*
G01*
X0299705Y0413189D01*
G75*
G02*
X0299213Y0413681I0000000J0000492D01*
G01*
X0299213Y0414665D01*
G75*
G02*
X0299705Y0415157I0000492J0000000D01*
G01*
G37*
G36*
G01*
X0299705Y0418307D02*
X0304626Y0418307D01*
G75*
G02*
X0305119Y0417815I0000000J-000492D01*
G01*
X0305119Y0416831D01*
G75*
G02*
X0304626Y0416339I-000492J0000000D01*
G01*
X0299705Y0416339D01*
G75*
G02*
X0299213Y0416831I0000000J0000492D01*
G01*
X0299213Y0417815D01*
G75*
G02*
X0299705Y0418307I0000492J0000000D01*
G01*
G37*
G36*
G01*
X0299705Y0421457D02*
X0304626Y0421457D01*
G75*
G02*
X0305119Y0420965I0000000J-000492D01*
G01*
X0305119Y0419980D01*
G75*
G02*
X0304626Y0419488I-000492J0000000D01*
G01*
X0299705Y0419488D01*
G75*
G02*
X0299213Y0419980I0000000J0000492D01*
G01*
X0299213Y0420965D01*
G75*
G02*
X0299705Y0421457I0000492J0000000D01*
G01*
G37*
G36*
G01*
X0299705Y0424606D02*
X0304626Y0424606D01*
G75*
G02*
X0305119Y0424114I0000000J-000492D01*
G01*
X0305119Y0423130D01*
G75*
G02*
X0304626Y0422638I-000492J0000000D01*
G01*
X0299705Y0422638D01*
G75*
G02*
X0299213Y0423130I0000000J0000492D01*
G01*
X0299213Y0424114D01*
G75*
G02*
X0299705Y0424606I0000492J0000000D01*
G01*
G37*
G36*
G01*
X0271250Y0431772D02*
X0269892Y0431772D01*
G75*
G02*
X0269312Y0432352I0000000J0000581D01*
G01*
X0269312Y0433514D01*
G75*
G02*
X0269892Y0434095I0000581J0000000D01*
G01*
X0271250Y0434095D01*
G75*
G02*
X0271831Y0433514I0000000J-000581D01*
G01*
X0271831Y0432352D01*
G75*
G02*
X0271250Y0431772I-000581J0000000D01*
G01*
G37*
G36*
G01*
X0271250Y0435591D02*
X0269892Y0435591D01*
G75*
G02*
X0269312Y0436171I0000000J0000581D01*
G01*
X0269312Y0437333D01*
G75*
G02*
X0269892Y0437913I0000581J0000000D01*
G01*
X0271250Y0437913D01*
G75*
G02*
X0271831Y0437333I0000000J-000581D01*
G01*
X0271831Y0436171D01*
G75*
G02*
X0271250Y0435591I-000581J0000000D01*
G01*
G37*
G36*
G01*
X0268711Y0445394D02*
X0270069Y0445394D01*
G75*
G02*
X0270650Y0444813I0000000J-000581D01*
G01*
X0270650Y0443652D01*
G75*
G02*
X0270069Y0443071I-000581J0000000D01*
G01*
X0268711Y0443071D01*
G75*
G02*
X0268130Y0443652I0000000J0000581D01*
G01*
X0268130Y0444813D01*
G75*
G02*
X0268711Y0445394I0000581J0000000D01*
G01*
G37*
G36*
G01*
X0268711Y0441575D02*
X0270069Y0441575D01*
G75*
G02*
X0270650Y0440994I0000000J-000581D01*
G01*
X0270650Y0439833D01*
G75*
G02*
X0270069Y0439252I-000581J0000000D01*
G01*
X0268711Y0439252D01*
G75*
G02*
X0268130Y0439833I0000000J0000581D01*
G01*
X0268130Y0440994D01*
G75*
G02*
X0268711Y0441575I0000581J0000000D01*
G01*
G37*
G36*
G01*
X0293908Y0439882D02*
X0295266Y0439882D01*
G75*
G02*
X0295847Y0439301I0000000J-000581D01*
G01*
X0295847Y0438140D01*
G75*
G02*
X0295266Y0437559I-000581J0000000D01*
G01*
X0293908Y0437559D01*
G75*
G02*
X0293327Y0438140I0000000J0000581D01*
G01*
X0293327Y0439301D01*
G75*
G02*
X0293908Y0439882I0000581J0000000D01*
G01*
G37*
G36*
G01*
X0293908Y0436063D02*
X0295266Y0436063D01*
G75*
G02*
X0295847Y0435482I0000000J-000581D01*
G01*
X0295847Y0434321D01*
G75*
G02*
X0295266Y0433740I-000581J0000000D01*
G01*
X0293908Y0433740D01*
G75*
G02*
X0293327Y0434321I0000000J0000581D01*
G01*
X0293327Y0435482D01*
G75*
G02*
X0293908Y0436063I0000581J0000000D01*
G01*
G37*
G36*
G01*
X0275729Y0387087D02*
X0275729Y0388445D01*
G75*
G02*
X0276310Y0389026I0000581J0000000D01*
G01*
X0277471Y0389026D01*
G75*
G02*
X0278052Y0388445I0000000J-000581D01*
G01*
X0278052Y0387087D01*
G75*
G02*
X0277471Y0386506I-000581J0000000D01*
G01*
X0276310Y0386506D01*
G75*
G02*
X0275729Y0387087I0000000J0000581D01*
G01*
G37*
G36*
G01*
X0279548Y0387087D02*
X0279548Y0388445D01*
G75*
G02*
X0280129Y0389026I0000581J0000000D01*
G01*
X0281290Y0389026D01*
G75*
G02*
X0281871Y0388445I0000000J-000581D01*
G01*
X0281871Y0387087D01*
G75*
G02*
X0281290Y0386506I-000581J0000000D01*
G01*
X0280129Y0386506D01*
G75*
G02*
X0279548Y0387087I0000000J0000581D01*
G01*
G37*
G36*
G01*
X0302087Y0396368D02*
X0302087Y0397726D01*
G75*
G02*
X0302668Y0398307I0000581J0000000D01*
G01*
X0303829Y0398307D01*
G75*
G02*
X0304410Y0397726I0000000J-000581D01*
G01*
X0304410Y0396368D01*
G75*
G02*
X0303829Y0395787I-000581J0000000D01*
G01*
X0302668Y0395787D01*
G75*
G02*
X0302087Y0396368I0000000J0000581D01*
G01*
G37*
G36*
G01*
X0305906Y0396368D02*
X0305906Y0397726D01*
G75*
G02*
X0306487Y0398307I0000581J0000000D01*
G01*
X0307648Y0398307D01*
G75*
G02*
X0308229Y0397726I0000000J-000581D01*
G01*
X0308229Y0396368D01*
G75*
G02*
X0307648Y0395787I-000581J0000000D01*
G01*
X0306487Y0395787D01*
G75*
G02*
X0305906Y0396368I0000000J0000581D01*
G01*
G37*
G36*
G01*
X0279754Y0372626D02*
X0278396Y0372626D01*
G75*
G02*
X0277815Y0373207I0000000J0000581D01*
G01*
X0277815Y0374368D01*
G75*
G02*
X0278396Y0374949I0000581J0000000D01*
G01*
X0279754Y0374949D01*
G75*
G02*
X0280335Y0374368I0000000J-000581D01*
G01*
X0280335Y0373207D01*
G75*
G02*
X0279754Y0372626I-000581J0000000D01*
G01*
G37*
G36*
G01*
X0279754Y0376445D02*
X0278396Y0376445D01*
G75*
G02*
X0277815Y0377026I0000000J0000581D01*
G01*
X0277815Y0378187D01*
G75*
G02*
X0278396Y0378768I0000581J0000000D01*
G01*
X0279754Y0378768D01*
G75*
G02*
X0280335Y0378187I0000000J-000581D01*
G01*
X0280335Y0377026D01*
G75*
G02*
X0279754Y0376445I-000581J0000000D01*
G01*
G37*
D162*
X0274012Y0373957D03*
X0274012Y0381437D03*
X0266138Y0377697D03*
G36*
G01*
X0297764Y0475400D02*
X0297764Y0474041D01*
G75*
G02*
X0297184Y0473461I-000581J0000000D01*
G01*
X0296022Y0473461D01*
G75*
G02*
X0295441Y0474041I0000000J0000581D01*
G01*
X0295441Y0475400D01*
G75*
G02*
X0296022Y0475980I0000581J0000000D01*
G01*
X0297184Y0475980D01*
G75*
G02*
X0297764Y0475400I0000000J-000581D01*
G01*
G37*
G36*
G01*
X0293945Y0475400D02*
X0293945Y0474041D01*
G75*
G02*
X0293365Y0473461I-000581J0000000D01*
G01*
X0292203Y0473461D01*
G75*
G02*
X0291623Y0474041I0000000J0000581D01*
G01*
X0291623Y0475400D01*
G75*
G02*
X0292203Y0475980I0000581J0000000D01*
G01*
X0293365Y0475980D01*
G75*
G02*
X0293945Y0475400I0000000J-000581D01*
G01*
G37*
G36*
G01*
X0264095Y0387052D02*
X0264095Y0389070D01*
G75*
G02*
X0264956Y0389931I0000861J0000000D01*
G01*
X0266679Y0389931D01*
G75*
G02*
X0267540Y0389070I0000000J-000861D01*
G01*
X0267540Y0387052D01*
G75*
G02*
X0266679Y0386191I-000861J0000000D01*
G01*
X0264956Y0386191D01*
G75*
G02*
X0264095Y0387052I0000000J0000861D01*
G01*
G37*
G36*
G01*
X0270296Y0387052D02*
X0270296Y0389070D01*
G75*
G02*
X0271157Y0389931I0000861J0000000D01*
G01*
X0272880Y0389931D01*
G75*
G02*
X0273741Y0389070I0000000J-000861D01*
G01*
X0273741Y0387052D01*
G75*
G02*
X0272880Y0386191I-000861J0000000D01*
G01*
X0271157Y0386191D01*
G75*
G02*
X0270296Y0387052I0000000J0000861D01*
G01*
G37*
X0436982Y0078065D02*
G01*
G75*
D491*
X0425565Y0065053D02*
D03*
X0429305Y0074305D02*
D03*
D491*
X0433045Y0065053D02*
D03*
D89*
X0418006Y0053439D02*
D03*
X0418006Y0058439D02*
D03*
X0418006Y0063439D02*
D03*
X0418006Y0068439D02*
D03*
X0399108Y0053439D02*
D03*
X0399108Y0058439D02*
D03*
X0399108Y0063439D02*
D03*
X0399108Y0068439D02*
D03*
D428*
X0402297Y0073734D02*
D03*
X0396077Y0073734D02*
D03*
X0410643Y0073734D02*
D03*
X0416864Y0073734D02*
D03*
D487*
X0432455Y0060152D02*
D03*
X0426155Y0060152D02*
D03*
D133*
X0421825Y0076195D02*
D03*
M02*
