G04 #@! TF.GenerationSoftware,KiCad,Pcbnew,(5.99.0-10559-g8513ca974c)*
G04 #@! TF.CreationDate,2021-09-14T12:44:07+03:00*
G04 #@! TF.ProjectId,hellen64_NB1,68656c6c-656e-4363-945f-4e42312e6b69,b*
G04 #@! TF.SameCoordinates,PX141ef50PYa2cc1bc*
G04 #@! TF.FileFunction,AssemblyDrawing,Top*
%FSLAX46Y46*%
G04 Gerber Fmt 4.6, Leading zero omitted, Abs format (unit mm)*
G04 Created by KiCad (PCBNEW (5.99.0-10559-g8513ca974c)) date 2021-09-14 12:44:07*
%MOMM*%
%LPD*%
G01*
G04 APERTURE LIST*
%ADD10C,0.150000*%
%ADD11C,0.120000*%
%ADD12C,0.090000*%
%ADD13C,0.100000*%
%ADD14C,0.010000*%
G04 APERTURE END LIST*
D10*
G04 #@! TO.C,J27*
X96692156Y97552960D02*
X96692156Y96838674D01*
X96644537Y96695817D01*
X96549299Y96600579D01*
X96406441Y96552960D01*
X96311203Y96552960D01*
X97120727Y97457721D02*
X97168346Y97505340D01*
X97263584Y97552960D01*
X97501680Y97552960D01*
X97596918Y97505340D01*
X97644537Y97457721D01*
X97692156Y97362483D01*
X97692156Y97267245D01*
X97644537Y97124388D01*
X97073108Y96552960D01*
X97692156Y96552960D01*
X98025489Y97552960D02*
X98692156Y97552960D01*
X98263584Y96552960D01*
G04 #@! TO.C,J19*
X62910135Y4683661D02*
X62910135Y3969375D01*
X62862516Y3826518D01*
X62767278Y3731280D01*
X62624420Y3683661D01*
X62529182Y3683661D01*
X63910135Y3683661D02*
X63338706Y3683661D01*
X63624420Y3683661D02*
X63624420Y4683661D01*
X63529182Y4540803D01*
X63433944Y4445565D01*
X63338706Y4397946D01*
X64386325Y3683661D02*
X64576801Y3683661D01*
X64672039Y3731280D01*
X64719659Y3778899D01*
X64814897Y3921756D01*
X64862516Y4112232D01*
X64862516Y4493184D01*
X64814897Y4588422D01*
X64767278Y4636041D01*
X64672039Y4683661D01*
X64481563Y4683661D01*
X64386325Y4636041D01*
X64338706Y4588422D01*
X64291087Y4493184D01*
X64291087Y4255089D01*
X64338706Y4159851D01*
X64386325Y4112232D01*
X64481563Y4064613D01*
X64672039Y4064613D01*
X64767278Y4112232D01*
X64814897Y4159851D01*
X64862516Y4255089D01*
G04 #@! TO.C,D28*
X52682394Y74252960D02*
X52682394Y75252960D01*
X52920489Y75252960D01*
X53063346Y75205340D01*
X53158584Y75110102D01*
X53206203Y75014864D01*
X53253822Y74824388D01*
X53253822Y74681531D01*
X53206203Y74491055D01*
X53158584Y74395817D01*
X53063346Y74300579D01*
X52920489Y74252960D01*
X52682394Y74252960D01*
X53634775Y75157721D02*
X53682394Y75205340D01*
X53777632Y75252960D01*
X54015727Y75252960D01*
X54110965Y75205340D01*
X54158584Y75157721D01*
X54206203Y75062483D01*
X54206203Y74967245D01*
X54158584Y74824388D01*
X53587156Y74252960D01*
X54206203Y74252960D01*
X54777632Y74824388D02*
X54682394Y74872007D01*
X54634775Y74919626D01*
X54587156Y75014864D01*
X54587156Y75062483D01*
X54634775Y75157721D01*
X54682394Y75205340D01*
X54777632Y75252960D01*
X54968108Y75252960D01*
X55063346Y75205340D01*
X55110965Y75157721D01*
X55158584Y75062483D01*
X55158584Y75014864D01*
X55110965Y74919626D01*
X55063346Y74872007D01*
X54968108Y74824388D01*
X54777632Y74824388D01*
X54682394Y74776769D01*
X54634775Y74729150D01*
X54587156Y74633912D01*
X54587156Y74443436D01*
X54634775Y74348198D01*
X54682394Y74300579D01*
X54777632Y74252960D01*
X54968108Y74252960D01*
X55063346Y74300579D01*
X55110965Y74348198D01*
X55158584Y74443436D01*
X55158584Y74633912D01*
X55110965Y74729150D01*
X55063346Y74776769D01*
X54968108Y74824388D01*
G04 #@! TO.C,J20*
X62910135Y8556463D02*
X62910135Y7842177D01*
X62862516Y7699320D01*
X62767278Y7604082D01*
X62624420Y7556463D01*
X62529182Y7556463D01*
X63338706Y8461224D02*
X63386325Y8508843D01*
X63481563Y8556463D01*
X63719659Y8556463D01*
X63814897Y8508843D01*
X63862516Y8461224D01*
X63910135Y8365986D01*
X63910135Y8270748D01*
X63862516Y8127891D01*
X63291087Y7556463D01*
X63910135Y7556463D01*
X64529182Y8556463D02*
X64624420Y8556463D01*
X64719659Y8508843D01*
X64767278Y8461224D01*
X64814897Y8365986D01*
X64862516Y8175510D01*
X64862516Y7937415D01*
X64814897Y7746939D01*
X64767278Y7651701D01*
X64719659Y7604082D01*
X64624420Y7556463D01*
X64529182Y7556463D01*
X64433944Y7604082D01*
X64386325Y7651701D01*
X64338706Y7746939D01*
X64291087Y7937415D01*
X64291087Y8175510D01*
X64338706Y8365986D01*
X64386325Y8461224D01*
X64433944Y8508843D01*
X64529182Y8556463D01*
G04 #@! TO.C,J1*
X143268346Y115727960D02*
X143268346Y115013674D01*
X143220727Y114870817D01*
X143125489Y114775579D01*
X142982632Y114727960D01*
X142887394Y114727960D01*
X144268346Y114727960D02*
X143696918Y114727960D01*
X143982632Y114727960D02*
X143982632Y115727960D01*
X143887394Y115585102D01*
X143792156Y115489864D01*
X143696918Y115442245D01*
D11*
G04 #@! TO.C,J6*
X54518346Y112397007D02*
X55018346Y112397007D01*
X55118346Y112363674D01*
X55185013Y112297007D01*
X55218346Y112197007D01*
X55218346Y112130340D01*
X54518346Y113030340D02*
X54518346Y112897007D01*
X54551680Y112830340D01*
X54585013Y112797007D01*
X54685013Y112730340D01*
X54818346Y112697007D01*
X55085013Y112697007D01*
X55151680Y112730340D01*
X55185013Y112763674D01*
X55218346Y112830340D01*
X55218346Y112963674D01*
X55185013Y113030340D01*
X55151680Y113063674D01*
X55085013Y113097007D01*
X54918346Y113097007D01*
X54851680Y113063674D01*
X54818346Y113030340D01*
X54785013Y112963674D01*
X54785013Y112830340D01*
X54818346Y112763674D01*
X54851680Y112730340D01*
X54918346Y112697007D01*
D10*
G04 #@! TO.C,J5*
X141743346Y102152960D02*
X141743346Y101438674D01*
X141695727Y101295817D01*
X141600489Y101200579D01*
X141457632Y101152960D01*
X141362394Y101152960D01*
X142695727Y102152960D02*
X142219537Y102152960D01*
X142171918Y101676769D01*
X142219537Y101724388D01*
X142314775Y101772007D01*
X142552870Y101772007D01*
X142648108Y101724388D01*
X142695727Y101676769D01*
X142743346Y101581531D01*
X142743346Y101343436D01*
X142695727Y101248198D01*
X142648108Y101200579D01*
X142552870Y101152960D01*
X142314775Y101152960D01*
X142219537Y101200579D01*
X142171918Y101248198D01*
G04 #@! TO.C,J13*
X4490476Y5647620D02*
X4490476Y4933334D01*
X4442857Y4790477D01*
X4347619Y4695239D01*
X4204761Y4647620D01*
X4109523Y4647620D01*
X5490476Y4647620D02*
X4919047Y4647620D01*
X5204761Y4647620D02*
X5204761Y5647620D01*
X5109523Y5504762D01*
X5014285Y5409524D01*
X4919047Y5361905D01*
X5823809Y5647620D02*
X6442857Y5647620D01*
X6109523Y5266667D01*
X6252380Y5266667D01*
X6347619Y5219048D01*
X6395238Y5171429D01*
X6442857Y5076191D01*
X6442857Y4838096D01*
X6395238Y4742858D01*
X6347619Y4695239D01*
X6252380Y4647620D01*
X5966666Y4647620D01*
X5871428Y4695239D01*
X5823809Y4742858D01*
G04 #@! TO.C,J22*
X65790476Y14547620D02*
X65790476Y13833334D01*
X65742857Y13690477D01*
X65647619Y13595239D01*
X65504761Y13547620D01*
X65409523Y13547620D01*
X66219047Y14452381D02*
X66266666Y14500000D01*
X66361904Y14547620D01*
X66600000Y14547620D01*
X66695238Y14500000D01*
X66742857Y14452381D01*
X66790476Y14357143D01*
X66790476Y14261905D01*
X66742857Y14119048D01*
X66171428Y13547620D01*
X66790476Y13547620D01*
X67171428Y14452381D02*
X67219047Y14500000D01*
X67314285Y14547620D01*
X67552380Y14547620D01*
X67647619Y14500000D01*
X67695238Y14452381D01*
X67742857Y14357143D01*
X67742857Y14261905D01*
X67695238Y14119048D01*
X67123809Y13547620D01*
X67742857Y13547620D01*
G04 #@! TO.C,BT1*
X27615965Y11776769D02*
X27758822Y11729150D01*
X27806441Y11681531D01*
X27854060Y11586293D01*
X27854060Y11443436D01*
X27806441Y11348198D01*
X27758822Y11300579D01*
X27663584Y11252960D01*
X27282632Y11252960D01*
X27282632Y12252960D01*
X27615965Y12252960D01*
X27711203Y12205340D01*
X27758822Y12157721D01*
X27806441Y12062483D01*
X27806441Y11967245D01*
X27758822Y11872007D01*
X27711203Y11824388D01*
X27615965Y11776769D01*
X27282632Y11776769D01*
X28139775Y12252960D02*
X28711203Y12252960D01*
X28425489Y11252960D02*
X28425489Y12252960D01*
X29568346Y11252960D02*
X28996918Y11252960D01*
X29282632Y11252960D02*
X29282632Y12252960D01*
X29187394Y12110102D01*
X29092156Y12014864D01*
X28996918Y11967245D01*
G04 #@! TO.C,J25*
X130702380Y87115477D02*
X131416666Y87115477D01*
X131559523Y87067858D01*
X131654761Y86972620D01*
X131702380Y86829762D01*
X131702380Y86734524D01*
X130797619Y87544048D02*
X130750000Y87591667D01*
X130702380Y87686905D01*
X130702380Y87925000D01*
X130750000Y88020239D01*
X130797619Y88067858D01*
X130892857Y88115477D01*
X130988095Y88115477D01*
X131130952Y88067858D01*
X131702380Y87496429D01*
X131702380Y88115477D01*
X130702380Y89020239D02*
X130702380Y88544048D01*
X131178571Y88496429D01*
X131130952Y88544048D01*
X131083333Y88639286D01*
X131083333Y88877381D01*
X131130952Y88972620D01*
X131178571Y89020239D01*
X131273809Y89067858D01*
X131511904Y89067858D01*
X131607142Y89020239D01*
X131654761Y88972620D01*
X131702380Y88877381D01*
X131702380Y88639286D01*
X131654761Y88544048D01*
X131607142Y88496429D01*
G04 #@! TO.C,U3*
X125865013Y81258674D02*
X126658346Y81258674D01*
X126751680Y81305340D01*
X126798346Y81352007D01*
X126845013Y81445340D01*
X126845013Y81632007D01*
X126798346Y81725340D01*
X126751680Y81772007D01*
X126658346Y81818674D01*
X125865013Y81818674D01*
X125865013Y82192007D02*
X125865013Y82798674D01*
X126238346Y82472007D01*
X126238346Y82612007D01*
X126285013Y82705340D01*
X126331680Y82752007D01*
X126425013Y82798674D01*
X126658346Y82798674D01*
X126751680Y82752007D01*
X126798346Y82705340D01*
X126845013Y82612007D01*
X126845013Y82332007D01*
X126798346Y82238674D01*
X126751680Y82192007D01*
D12*
G04 #@! TO.C,U4*
X135029299Y11669864D02*
X135029299Y11167960D01*
X135058822Y11108912D01*
X135088346Y11079388D01*
X135147394Y11049864D01*
X135265489Y11049864D01*
X135324537Y11079388D01*
X135354060Y11108912D01*
X135383584Y11167960D01*
X135383584Y11669864D01*
X135944537Y11463198D02*
X135944537Y11049864D01*
X135796918Y11699388D02*
X135649299Y11256531D01*
X136033108Y11256531D01*
D10*
G04 #@! TO.C,D31*
X54087394Y97652960D02*
X54087394Y98652960D01*
X54325489Y98652960D01*
X54468346Y98605340D01*
X54563584Y98510102D01*
X54611203Y98414864D01*
X54658822Y98224388D01*
X54658822Y98081531D01*
X54611203Y97891055D01*
X54563584Y97795817D01*
X54468346Y97700579D01*
X54325489Y97652960D01*
X54087394Y97652960D01*
X54992156Y98652960D02*
X55611203Y98652960D01*
X55277870Y98272007D01*
X55420727Y98272007D01*
X55515965Y98224388D01*
X55563584Y98176769D01*
X55611203Y98081531D01*
X55611203Y97843436D01*
X55563584Y97748198D01*
X55515965Y97700579D01*
X55420727Y97652960D01*
X55135013Y97652960D01*
X55039775Y97700579D01*
X54992156Y97748198D01*
X56563584Y97652960D02*
X55992156Y97652960D01*
X56277870Y97652960D02*
X56277870Y98652960D01*
X56182632Y98510102D01*
X56087394Y98414864D01*
X55992156Y98367245D01*
G04 #@! TO.C,J11*
X4490476Y154447620D02*
X4490476Y153733334D01*
X4442857Y153590477D01*
X4347619Y153495239D01*
X4204761Y153447620D01*
X4109523Y153447620D01*
X5490476Y153447620D02*
X4919047Y153447620D01*
X5204761Y153447620D02*
X5204761Y154447620D01*
X5109523Y154304762D01*
X5014285Y154209524D01*
X4919047Y154161905D01*
X6442857Y153447620D02*
X5871428Y153447620D01*
X6157142Y153447620D02*
X6157142Y154447620D01*
X6061904Y154304762D01*
X5966666Y154209524D01*
X5871428Y154161905D01*
D11*
G04 #@! TO.C,J3*
X13816666Y101266667D02*
X14316666Y101266667D01*
X14416666Y101233334D01*
X14483333Y101166667D01*
X14516666Y101066667D01*
X14516666Y101000000D01*
X13816666Y101533334D02*
X13816666Y101966667D01*
X14083333Y101733334D01*
X14083333Y101833334D01*
X14116666Y101900000D01*
X14150000Y101933334D01*
X14216666Y101966667D01*
X14383333Y101966667D01*
X14450000Y101933334D01*
X14483333Y101900000D01*
X14516666Y101833334D01*
X14516666Y101633334D01*
X14483333Y101566667D01*
X14450000Y101533334D01*
D10*
G04 #@! TO.C,J4*
X108520706Y8266840D02*
X108520706Y7552554D01*
X108473087Y7409697D01*
X108377849Y7314459D01*
X108234992Y7266840D01*
X108139754Y7266840D01*
X109425468Y7933506D02*
X109425468Y7266840D01*
X109187373Y8314459D02*
X108949278Y7600173D01*
X109568325Y7600173D01*
G04 #@! TO.C,J21*
X62917156Y12427960D02*
X62917156Y11713674D01*
X62869537Y11570817D01*
X62774299Y11475579D01*
X62631441Y11427960D01*
X62536203Y11427960D01*
X63345727Y12332721D02*
X63393346Y12380340D01*
X63488584Y12427960D01*
X63726680Y12427960D01*
X63821918Y12380340D01*
X63869537Y12332721D01*
X63917156Y12237483D01*
X63917156Y12142245D01*
X63869537Y11999388D01*
X63298108Y11427960D01*
X63917156Y11427960D01*
X64869537Y11427960D02*
X64298108Y11427960D01*
X64583822Y11427960D02*
X64583822Y12427960D01*
X64488584Y12285102D01*
X64393346Y12189864D01*
X64298108Y12142245D01*
G04 #@! TO.C,D25*
X61254060Y65986055D02*
X60254060Y65986055D01*
X60254060Y66224150D01*
X60301680Y66367007D01*
X60396918Y66462245D01*
X60492156Y66509864D01*
X60682632Y66557483D01*
X60825489Y66557483D01*
X61015965Y66509864D01*
X61111203Y66462245D01*
X61206441Y66367007D01*
X61254060Y66224150D01*
X61254060Y65986055D01*
X60349299Y66938436D02*
X60301680Y66986055D01*
X60254060Y67081293D01*
X60254060Y67319388D01*
X60301680Y67414626D01*
X60349299Y67462245D01*
X60444537Y67509864D01*
X60539775Y67509864D01*
X60682632Y67462245D01*
X61254060Y66890817D01*
X61254060Y67509864D01*
X60254060Y68414626D02*
X60254060Y67938436D01*
X60730251Y67890817D01*
X60682632Y67938436D01*
X60635013Y68033674D01*
X60635013Y68271769D01*
X60682632Y68367007D01*
X60730251Y68414626D01*
X60825489Y68462245D01*
X61063584Y68462245D01*
X61158822Y68414626D01*
X61206441Y68367007D01*
X61254060Y68271769D01*
X61254060Y68033674D01*
X61206441Y67938436D01*
X61158822Y67890817D01*
G04 #@! TO.C,D32*
X57604060Y79321055D02*
X56604060Y79321055D01*
X56604060Y79559150D01*
X56651680Y79702007D01*
X56746918Y79797245D01*
X56842156Y79844864D01*
X57032632Y79892483D01*
X57175489Y79892483D01*
X57365965Y79844864D01*
X57461203Y79797245D01*
X57556441Y79702007D01*
X57604060Y79559150D01*
X57604060Y79321055D01*
X56604060Y80225817D02*
X56604060Y80844864D01*
X56985013Y80511531D01*
X56985013Y80654388D01*
X57032632Y80749626D01*
X57080251Y80797245D01*
X57175489Y80844864D01*
X57413584Y80844864D01*
X57508822Y80797245D01*
X57556441Y80749626D01*
X57604060Y80654388D01*
X57604060Y80368674D01*
X57556441Y80273436D01*
X57508822Y80225817D01*
X56699299Y81225817D02*
X56651680Y81273436D01*
X56604060Y81368674D01*
X56604060Y81606769D01*
X56651680Y81702007D01*
X56699299Y81749626D01*
X56794537Y81797245D01*
X56889775Y81797245D01*
X57032632Y81749626D01*
X57604060Y81178198D01*
X57604060Y81797245D01*
G04 #@! TO.C,J2*
X130804060Y101772007D02*
X131518346Y101772007D01*
X131661203Y101724388D01*
X131756441Y101629150D01*
X131804060Y101486293D01*
X131804060Y101391055D01*
X130899299Y102200579D02*
X130851680Y102248198D01*
X130804060Y102343436D01*
X130804060Y102581531D01*
X130851680Y102676769D01*
X130899299Y102724388D01*
X130994537Y102772007D01*
X131089775Y102772007D01*
X131232632Y102724388D01*
X131804060Y102152960D01*
X131804060Y102772007D01*
D13*
G04 #@! TO.C,P5*
X61032380Y34640220D02*
X61032380Y36545220D01*
X61032380Y36545220D02*
X61667380Y37180220D01*
X63572380Y37180220D02*
X63572380Y34640220D01*
X61667380Y37180220D02*
X63572380Y37180220D01*
X63572380Y34640220D02*
X61032380Y34640220D01*
G04 #@! TO.C,P6*
X61667380Y44682400D02*
X63572380Y44682400D01*
X61032380Y42142400D02*
X61032380Y44047400D01*
X63572380Y44682400D02*
X63572380Y42142400D01*
X63572380Y42142400D02*
X61032380Y42142400D01*
X61032380Y44047400D02*
X61667380Y44682400D01*
G04 #@! TO.C,P47*
X41396680Y123335340D02*
X38856680Y123335340D01*
X41396680Y125875340D02*
X41396680Y123335340D01*
X38856680Y123335340D02*
X38856680Y125240340D01*
X38856680Y125240340D02*
X39491680Y125875340D01*
X39491680Y125875340D02*
X41396680Y125875340D01*
G04 #@! TO.C,J27*
X105121680Y95735340D02*
X89881680Y95735340D01*
X89881680Y95735340D02*
X89881680Y98275340D01*
X105121680Y97640340D02*
X105121680Y95735340D01*
X104486680Y98275340D02*
X105121680Y97640340D01*
X89881680Y98275340D02*
X104486680Y98275340D01*
G04 #@! TO.C,P19*
X114681680Y126585340D02*
X114681680Y128490340D01*
X117221680Y129125340D02*
X117221680Y126585340D01*
X117221680Y126585340D02*
X114681680Y126585340D01*
X114681680Y128490340D02*
X115316680Y129125340D01*
X115316680Y129125340D02*
X117221680Y129125340D01*
G04 #@! TO.C,P10*
X90131680Y129485340D02*
X90131680Y131390340D01*
X92671680Y129485340D02*
X90131680Y129485340D01*
X92671680Y132025340D02*
X92671680Y129485340D01*
X90131680Y131390340D02*
X90766680Y132025340D01*
X90766680Y132025340D02*
X92671680Y132025340D01*
G04 #@! TO.C,P12*
X30971680Y80275340D02*
X30971680Y77735340D01*
X30971680Y77735340D02*
X28431680Y77735340D01*
X29066680Y80275340D02*
X30971680Y80275340D01*
X28431680Y79640340D02*
X29066680Y80275340D01*
X28431680Y77735340D02*
X28431680Y79640340D01*
G04 #@! TO.C,P15*
X92036680Y132410340D02*
X90131680Y132410340D01*
X90131680Y134950340D02*
X92671680Y134950340D01*
X92671680Y134950340D02*
X92671680Y133045340D01*
X90131680Y132410340D02*
X90131680Y134950340D01*
X92671680Y133045340D02*
X92036680Y132410340D01*
G04 #@! TO.C,P56*
X43470000Y135050340D02*
X43470000Y133145340D01*
X40930000Y132510340D02*
X40930000Y135050340D01*
X42835000Y132510340D02*
X40930000Y132510340D01*
X43470000Y133145340D02*
X42835000Y132510340D01*
X40930000Y135050340D02*
X43470000Y135050340D01*
G04 #@! TO.C,P52*
X130129479Y127630000D02*
X128224479Y127630000D01*
X130764479Y128265000D02*
X130129479Y127630000D01*
X128224479Y127630000D02*
X128224479Y130170000D01*
X130764479Y130170000D02*
X130764479Y128265000D01*
X128224479Y130170000D02*
X130764479Y130170000D01*
G04 #@! TO.C,P44*
X89456680Y81860340D02*
X89456680Y84400340D01*
X91996680Y83765340D02*
X91996680Y81860340D01*
X91996680Y81860340D02*
X89456680Y81860340D01*
X89456680Y84400340D02*
X91361680Y84400340D01*
X91361680Y84400340D02*
X91996680Y83765340D01*
G04 #@! TO.C,P13*
X31331680Y77375340D02*
X33871680Y77375340D01*
X33871680Y75470340D02*
X33236680Y74835340D01*
X31331680Y74835340D02*
X31331680Y77375340D01*
X33871680Y77375340D02*
X33871680Y75470340D01*
X33236680Y74835340D02*
X31331680Y74835340D01*
G04 #@! TO.C,P29*
X119631680Y41840340D02*
X120266680Y42475340D01*
X122171680Y39935340D02*
X119631680Y39935340D01*
X120266680Y42475340D02*
X122171680Y42475340D01*
X119631680Y39935340D02*
X119631680Y41840340D01*
X122171680Y42475340D02*
X122171680Y39935340D01*
D10*
G04 #@! TO.C,J1*
X139901680Y113580340D02*
X139901680Y117080340D01*
X144401680Y117080340D02*
X139901680Y117080340D01*
X139901680Y113580340D02*
X147101680Y113580340D01*
X147101680Y117080340D02*
X147101680Y113580340D01*
X145801680Y117080340D02*
X145101680Y116380340D01*
X145101680Y116380340D02*
X144401680Y117080340D01*
X147101680Y117080340D02*
X145801680Y117080340D01*
D13*
G04 #@! TO.C,J6*
X56171680Y120250340D02*
X56171680Y105645340D01*
X53631680Y105010340D02*
X53631680Y120250340D01*
X53631680Y120250340D02*
X56171680Y120250340D01*
X55536680Y105010340D02*
X53631680Y105010340D01*
X56171680Y105645340D02*
X55536680Y105010340D01*
G04 #@! TO.C,P30*
X121536680Y37100220D02*
X119631680Y37100220D01*
X119631680Y39640220D02*
X122171680Y39640220D01*
X122171680Y37735220D02*
X121536680Y37100220D01*
X122171680Y39640220D02*
X122171680Y37735220D01*
X119631680Y37100220D02*
X119631680Y39640220D01*
G04 #@! TO.C,J5*
X134826680Y107655340D02*
X150326680Y107655340D01*
X150326680Y95555340D02*
X133826680Y95555340D01*
X150326680Y107655340D02*
X150326680Y95555340D01*
X133826680Y95555340D02*
X133826680Y106655340D01*
X133826680Y106655340D02*
X134826680Y107655340D01*
G04 #@! TO.C,P4*
X66382640Y44680220D02*
X66382640Y42140220D01*
X64477640Y44680220D02*
X66382640Y44680220D01*
X66382640Y42140220D02*
X63842640Y42140220D01*
X63842640Y44045220D02*
X64477640Y44680220D01*
X63842640Y42140220D02*
X63842640Y44045220D01*
G04 #@! TO.C,P25*
X122631680Y39640220D02*
X125171680Y39640220D01*
X122631680Y37100220D02*
X122631680Y39640220D01*
X124536680Y37100220D02*
X122631680Y37100220D01*
X125171680Y37735220D02*
X124536680Y37100220D01*
X125171680Y39640220D02*
X125171680Y37735220D01*
G04 #@! TO.C,P55*
X116661680Y130235340D02*
X114756680Y130235340D01*
X114756680Y132775340D02*
X117296680Y132775340D01*
X117296680Y132775340D02*
X117296680Y130870340D01*
X114756680Y130235340D02*
X114756680Y132775340D01*
X117296680Y130870340D02*
X116661680Y130235340D01*
G04 #@! TO.C,P17*
X70471680Y62440340D02*
X70471680Y60535340D01*
X67931680Y60535340D02*
X67931680Y63075340D01*
X67931680Y63075340D02*
X69836680Y63075340D01*
X69836680Y63075340D02*
X70471680Y62440340D01*
X70471680Y60535340D02*
X67931680Y60535340D01*
G04 #@! TO.C,P11*
X30971680Y77375340D02*
X30971680Y75470340D01*
X28431680Y74835340D02*
X28431680Y77375340D01*
X30336680Y74835340D02*
X28431680Y74835340D01*
X28431680Y77375340D02*
X30971680Y77375340D01*
X30971680Y75470340D02*
X30336680Y74835340D01*
G04 #@! TO.C,P50*
X32321680Y134975340D02*
X32321680Y132435340D01*
X30416680Y134975340D02*
X32321680Y134975340D01*
X32321680Y132435340D02*
X29781680Y132435340D01*
X29781680Y132435340D02*
X29781680Y134340340D01*
X29781680Y134340340D02*
X30416680Y134975340D01*
G04 #@! TO.C,P28*
X83183040Y75771220D02*
X82548040Y75136220D01*
X82548040Y75136220D02*
X80643040Y75136220D01*
X80643040Y75136220D02*
X80643040Y77676220D01*
X83183040Y77676220D02*
X83183040Y75771220D01*
X80643040Y77676220D02*
X83183040Y77676220D01*
G04 #@! TO.C,P24*
X125171680Y39935340D02*
X122631680Y39935340D01*
X122631680Y39935340D02*
X122631680Y41840340D01*
X125171680Y42475340D02*
X125171680Y39935340D01*
X122631680Y41840340D02*
X123266680Y42475340D01*
X123266680Y42475340D02*
X125171680Y42475340D01*
G04 #@! TO.C,P8*
X93666680Y132075340D02*
X95571680Y132075340D01*
X93031680Y131440340D02*
X93666680Y132075340D01*
X93031680Y129535340D02*
X93031680Y131440340D01*
X95571680Y132075340D02*
X95571680Y129535340D01*
X95571680Y129535340D02*
X93031680Y129535340D01*
G04 #@! TO.C,P48*
X33656680Y134975340D02*
X36196680Y134975340D01*
X35561680Y132435340D02*
X33656680Y132435340D01*
X33656680Y132435340D02*
X33656680Y134975340D01*
X36196680Y134975340D02*
X36196680Y133070340D01*
X36196680Y133070340D02*
X35561680Y132435340D01*
G04 #@! TO.C,P32*
X119171680Y39640220D02*
X119171680Y37735220D01*
X118536680Y37100220D02*
X116631680Y37100220D01*
X119171680Y37735220D02*
X118536680Y37100220D01*
X116631680Y39640220D02*
X119171680Y39640220D01*
X116631680Y37100220D02*
X116631680Y39640220D01*
G04 #@! TO.C,U1*
X62801680Y29605340D02*
X64801680Y29605340D01*
X64801680Y28105340D02*
X64301680Y27605340D01*
X64301680Y27605340D02*
X62801680Y27605340D01*
X62801680Y27605340D02*
X62801680Y29605340D01*
X64801680Y29605340D02*
X64801680Y28105340D01*
G04 #@! TO.C,BT1*
X42601680Y8205340D02*
X39401680Y8205340D01*
X17401680Y19705340D02*
X37801680Y19705340D01*
X17401680Y15205340D02*
X14201680Y15205340D01*
X17401680Y3705340D02*
X17401680Y8205340D01*
X17401680Y19705340D02*
X17401680Y15205340D01*
X39401680Y3705340D02*
X39401680Y8205340D01*
X39401680Y18105340D02*
X39401680Y15205340D01*
X14201680Y15205340D02*
X14201680Y8205340D01*
X39401680Y15205340D02*
X42601680Y15205340D01*
X42601680Y15205340D02*
X42601680Y8205340D01*
X17401680Y3705340D02*
X39401680Y3705340D01*
X14201680Y8205340D02*
X17401680Y8205340D01*
X37801680Y19705340D02*
X39401680Y18105340D01*
G04 #@! TO.C,P9*
X95571680Y132410340D02*
X93666680Y132410340D01*
X93666680Y132410340D02*
X93031680Y133045340D01*
X93031680Y133045340D02*
X93031680Y134950340D01*
X93031680Y134950340D02*
X95571680Y134950340D01*
X95571680Y134950340D02*
X95571680Y132410340D01*
G04 #@! TO.C,J25*
X146826680Y91731997D02*
X146826680Y89831997D01*
X132826680Y83531997D02*
X132826680Y91731997D01*
X146826680Y83831997D02*
X146826680Y83531997D01*
X150826680Y89831997D02*
X150826680Y83831997D01*
X150826680Y83831997D02*
X146826680Y83831997D01*
X146826680Y83531997D02*
X132826680Y83531997D01*
X132826680Y91731997D02*
X146826680Y91731997D01*
X146826680Y89831997D02*
X150826680Y89831997D01*
G04 #@! TO.C,P23*
X46631680Y79640340D02*
X47266680Y80275340D01*
X47266680Y80275340D02*
X49171680Y80275340D01*
X46631680Y77735340D02*
X46631680Y79640340D01*
X49171680Y77735340D02*
X46631680Y77735340D01*
X49171680Y80275340D02*
X49171680Y77735340D01*
G04 #@! TO.C,U3*
X127876680Y83955340D02*
X128851680Y82980340D01*
X128851680Y82980340D02*
X128851680Y80055340D01*
X123951680Y83955340D02*
X127876680Y83955340D01*
X128851680Y80055340D02*
X123951680Y80055340D01*
X123951680Y80055340D02*
X123951680Y83955340D01*
G04 #@! TO.C,U4*
X134251680Y10080340D02*
X134251680Y11955340D01*
X136751680Y10080340D02*
X134251680Y10080340D01*
X136751680Y12580340D02*
X136751680Y10080340D01*
X134876680Y12580340D02*
X136751680Y12580340D01*
X134251680Y11955340D02*
X134876680Y12580340D01*
G04 #@! TO.C,P14*
X31331680Y79619220D02*
X31966680Y80254220D01*
X33871680Y80254220D02*
X33871680Y77714220D01*
X33871680Y77714220D02*
X31331680Y77714220D01*
X31331680Y77714220D02*
X31331680Y79619220D01*
X31966680Y80254220D02*
X33871680Y80254220D01*
G04 #@! TO.C,P22*
X69836680Y68675340D02*
X70471680Y68040340D01*
X70471680Y68040340D02*
X70471680Y66135340D01*
X67931680Y68675340D02*
X69836680Y68675340D01*
X70471680Y66135340D02*
X67931680Y66135340D01*
X67931680Y66135340D02*
X67931680Y68675340D01*
G04 #@! TO.C,P20*
X65131680Y69570340D02*
X65131680Y71475340D01*
X65766680Y68935340D02*
X65131680Y69570340D01*
X65131680Y71475340D02*
X67671680Y71475340D01*
X67671680Y68935340D02*
X65766680Y68935340D01*
X67671680Y71475340D02*
X67671680Y68935340D01*
G04 #@! TO.C,P18*
X65766680Y63335340D02*
X65131680Y63970340D01*
X67671680Y65875340D02*
X67671680Y63335340D01*
X65131680Y65875340D02*
X67671680Y65875340D01*
X67671680Y63335340D02*
X65766680Y63335340D01*
X65131680Y63970340D02*
X65131680Y65875340D01*
G04 #@! TO.C,J3*
X26300000Y98800000D02*
X26300000Y104200000D01*
X13500000Y98800000D02*
X26300000Y98800000D01*
X24885786Y101500000D02*
X26300000Y102500000D01*
X26300000Y100500000D02*
X24885786Y101500000D01*
X26300000Y104200000D02*
X13500000Y104200000D01*
X13500000Y104200000D02*
X13500000Y98800000D01*
G04 #@! TO.C,P53*
X121455000Y127705000D02*
X121455000Y130245000D01*
X123360000Y127705000D02*
X121455000Y127705000D01*
X123995000Y130245000D02*
X123995000Y128340000D01*
X123995000Y128340000D02*
X123360000Y127705000D01*
X121455000Y130245000D02*
X123995000Y130245000D01*
G04 #@! TO.C,J4*
X93614040Y5179220D02*
X93614040Y10259220D01*
X122824040Y10259220D02*
X124094040Y8989220D01*
X124094040Y8989220D02*
X124094040Y5179220D01*
X93614040Y10259220D02*
X122824040Y10259220D01*
X124094040Y5179220D02*
X93614040Y5179220D01*
G04 #@! TO.C,P7*
X16021680Y125075340D02*
X16021680Y123170340D01*
X13481680Y125075340D02*
X16021680Y125075340D01*
X15386680Y122535340D02*
X13481680Y122535340D01*
X13481680Y122535340D02*
X13481680Y125075340D01*
X16021680Y123170340D02*
X15386680Y122535340D01*
G04 #@! TO.C,P38*
X105081680Y82060340D02*
X105081680Y83965340D01*
X107621680Y82060340D02*
X105081680Y82060340D01*
X107621680Y84600340D02*
X107621680Y82060340D01*
X105081680Y83965340D02*
X105716680Y84600340D01*
X105716680Y84600340D02*
X107621680Y84600340D01*
G04 #@! TO.C,P1*
X108131044Y90075340D02*
X110671044Y90075340D01*
X108131044Y87535340D02*
X108131044Y90075340D01*
X110671044Y88170340D02*
X110036044Y87535340D01*
X110671044Y90075340D02*
X110671044Y88170340D01*
X110036044Y87535340D02*
X108131044Y87535340D01*
G04 #@! TO.C,P49*
X38646680Y125875340D02*
X38646680Y123335340D01*
X36106680Y123335340D02*
X36106680Y125240340D01*
X36106680Y125240340D02*
X36741680Y125875340D01*
X38646680Y123335340D02*
X36106680Y123335340D01*
X36741680Y125875340D02*
X38646680Y125875340D01*
G04 #@! TO.C,P31*
X116631680Y41840340D02*
X117266680Y42475340D01*
X116631680Y39935340D02*
X116631680Y41840340D01*
X119171680Y42475340D02*
X119171680Y39935340D01*
X119171680Y39935340D02*
X116631680Y39935340D01*
X117266680Y42475340D02*
X119171680Y42475340D01*
G04 #@! TO.C,P43*
X87241680Y84400340D02*
X89146680Y84400340D01*
X86606680Y81860340D02*
X86606680Y83765340D01*
X86606680Y83765340D02*
X87241680Y84400340D01*
X89146680Y84400340D02*
X89146680Y81860340D01*
X89146680Y81860340D02*
X86606680Y81860340D01*
G04 #@! TO.C,P51*
X32056680Y125850340D02*
X34596680Y125850340D01*
X33961680Y123310340D02*
X32056680Y123310340D01*
X34596680Y123945340D02*
X33961680Y123310340D01*
X32056680Y123310340D02*
X32056680Y125850340D01*
X34596680Y125850340D02*
X34596680Y123945340D01*
D14*
G04 #@! TO.C,U5*
X46607590Y116575340D02*
X47096780Y116575340D01*
X47096780Y116575340D02*
X47096780Y115057430D01*
X47096780Y115057430D02*
X46607590Y115057430D01*
X46607590Y115057430D02*
X46607590Y116575340D01*
G36*
X47096780Y115057430D02*
G01*
X46607590Y115057430D01*
X46607590Y116575340D01*
X47096780Y116575340D01*
X47096780Y115057430D01*
G37*
X47096780Y115057430D02*
X46607590Y115057430D01*
X46607590Y116575340D01*
X47096780Y116575340D01*
X47096780Y115057430D01*
X38981350Y103455240D02*
X39476780Y103455240D01*
X39476780Y103455240D02*
X39476780Y101927170D01*
X39476780Y101927170D02*
X38981350Y101927170D01*
X38981350Y101927170D02*
X38981350Y103455240D01*
G36*
X39476780Y101927170D02*
G01*
X38981350Y101927170D01*
X38981350Y103455240D01*
X39476780Y103455240D01*
X39476780Y101927170D01*
G37*
X39476780Y101927170D02*
X38981350Y101927170D01*
X38981350Y103455240D01*
X39476780Y103455240D01*
X39476780Y101927170D01*
X45338350Y103455240D02*
X45826780Y103455240D01*
X45826780Y103455240D02*
X45826780Y101927540D01*
X45826780Y101927540D02*
X45338350Y101927540D01*
X45338350Y101927540D02*
X45338350Y103455240D01*
G36*
X45826780Y101927540D02*
G01*
X45338350Y101927540D01*
X45338350Y103455240D01*
X45826780Y103455240D01*
X45826780Y101927540D01*
G37*
X45826780Y101927540D02*
X45338350Y101927540D01*
X45338350Y103455240D01*
X45826780Y103455240D01*
X45826780Y101927540D01*
X37715060Y103455240D02*
X38206780Y103455240D01*
X38206780Y103455240D02*
X38206780Y101933470D01*
X38206780Y101933470D02*
X37715060Y101933470D01*
X37715060Y101933470D02*
X37715060Y103455240D01*
G36*
X38206780Y101933470D02*
G01*
X37715060Y101933470D01*
X37715060Y103455240D01*
X38206780Y103455240D01*
X38206780Y101933470D01*
G37*
X38206780Y101933470D02*
X37715060Y101933470D01*
X37715060Y103455240D01*
X38206780Y103455240D01*
X38206780Y101933470D01*
X47882400Y103455240D02*
X48366780Y103455240D01*
X48366780Y103455240D02*
X48366780Y101925190D01*
X48366780Y101925190D02*
X47882400Y101925190D01*
X47882400Y101925190D02*
X47882400Y103455240D01*
G36*
X48366780Y101925190D02*
G01*
X47882400Y101925190D01*
X47882400Y103455240D01*
X48366780Y103455240D01*
X48366780Y101925190D01*
G37*
X48366780Y101925190D02*
X47882400Y101925190D01*
X47882400Y103455240D01*
X48366780Y103455240D01*
X48366780Y101925190D01*
X46607680Y103455240D02*
X47096780Y103455240D01*
X47096780Y103455240D02*
X47096780Y101932600D01*
X47096780Y101932600D02*
X46607680Y101932600D01*
X46607680Y101932600D02*
X46607680Y103455240D01*
G36*
X47096780Y101932600D02*
G01*
X46607680Y101932600D01*
X46607680Y103455240D01*
X47096780Y103455240D01*
X47096780Y101932600D01*
G37*
X47096780Y101932600D02*
X46607680Y101932600D01*
X46607680Y103455240D01*
X47096780Y103455240D01*
X47096780Y101932600D01*
X37708020Y116575340D02*
X38206780Y116575340D01*
X38206780Y116575340D02*
X38206780Y115063770D01*
X38206780Y115063770D02*
X37708020Y115063770D01*
X37708020Y115063770D02*
X37708020Y116575340D01*
G36*
X38206780Y115063770D02*
G01*
X37708020Y115063770D01*
X37708020Y116575340D01*
X38206780Y116575340D01*
X38206780Y115063770D01*
G37*
X38206780Y115063770D02*
X37708020Y115063770D01*
X37708020Y116575340D01*
X38206780Y116575340D01*
X38206780Y115063770D01*
X42795093Y103455240D02*
X43286780Y103455240D01*
X43286780Y103455240D02*
X43286780Y101922970D01*
X43286780Y101922970D02*
X42795093Y101922970D01*
X42795093Y101922970D02*
X42795093Y103455240D01*
G36*
X43286780Y101922970D02*
G01*
X42795093Y101922970D01*
X42795093Y103455240D01*
X43286780Y103455240D01*
X43286780Y101922970D01*
G37*
X43286780Y101922970D02*
X42795093Y101922970D01*
X42795093Y103455240D01*
X43286780Y103455240D01*
X43286780Y101922970D01*
X45339530Y116575340D02*
X45826780Y116575340D01*
X45826780Y116575340D02*
X45826780Y115065730D01*
X45826780Y115065730D02*
X45339530Y115065730D01*
X45339530Y115065730D02*
X45339530Y116575340D01*
G36*
X45826780Y115065730D02*
G01*
X45339530Y115065730D01*
X45339530Y116575340D01*
X45826780Y116575340D01*
X45826780Y115065730D01*
G37*
X45826780Y115065730D02*
X45339530Y115065730D01*
X45339530Y116575340D01*
X45826780Y116575340D01*
X45826780Y115065730D01*
X41523230Y116575340D02*
X42016780Y116575340D01*
X42016780Y116575340D02*
X42016780Y115064480D01*
X42016780Y115064480D02*
X41523230Y115064480D01*
X41523230Y115064480D02*
X41523230Y116575340D01*
G36*
X42016780Y115064480D02*
G01*
X41523230Y115064480D01*
X41523230Y116575340D01*
X42016780Y116575340D01*
X42016780Y115064480D01*
G37*
X42016780Y115064480D02*
X41523230Y115064480D01*
X41523230Y116575340D01*
X42016780Y116575340D01*
X42016780Y115064480D01*
X38985810Y116575340D02*
X39476780Y116575340D01*
X39476780Y116575340D02*
X39476780Y115056390D01*
X39476780Y115056390D02*
X38985810Y115056390D01*
X38985810Y115056390D02*
X38985810Y116575340D01*
G36*
X39476780Y115056390D02*
G01*
X38985810Y115056390D01*
X38985810Y116575340D01*
X39476780Y116575340D01*
X39476780Y115056390D01*
G37*
X39476780Y115056390D02*
X38985810Y115056390D01*
X38985810Y116575340D01*
X39476780Y116575340D01*
X39476780Y115056390D01*
X44067221Y116575340D02*
X44556780Y116575340D01*
X44556780Y116575340D02*
X44556780Y115064980D01*
X44556780Y115064980D02*
X44067221Y115064980D01*
X44067221Y115064980D02*
X44067221Y116575340D01*
G36*
X44556780Y115064980D02*
G01*
X44067221Y115064980D01*
X44067221Y116575340D01*
X44556780Y116575340D01*
X44556780Y115064980D01*
G37*
X44556780Y115064980D02*
X44067221Y115064980D01*
X44067221Y116575340D01*
X44556780Y116575340D01*
X44556780Y115064980D01*
X41526110Y103455240D02*
X42016780Y103455240D01*
X42016780Y103455240D02*
X42016780Y101933740D01*
X42016780Y101933740D02*
X41526110Y101933740D01*
X41526110Y101933740D02*
X41526110Y103455240D01*
G36*
X42016780Y101933740D02*
G01*
X41526110Y101933740D01*
X41526110Y103455240D01*
X42016780Y103455240D01*
X42016780Y101933740D01*
G37*
X42016780Y101933740D02*
X41526110Y101933740D01*
X41526110Y103455240D01*
X42016780Y103455240D01*
X42016780Y101933740D01*
X49154560Y103455240D02*
X49636780Y103455240D01*
X49636780Y103455240D02*
X49636780Y101924670D01*
X49636780Y101924670D02*
X49154560Y101924670D01*
X49154560Y101924670D02*
X49154560Y103455240D01*
G36*
X49636780Y101924670D02*
G01*
X49154560Y101924670D01*
X49154560Y103455240D01*
X49636780Y103455240D01*
X49636780Y101924670D01*
G37*
X49636780Y101924670D02*
X49154560Y101924670D01*
X49154560Y103455240D01*
X49636780Y103455240D01*
X49636780Y101924670D01*
X42795990Y116575340D02*
X43286780Y116575340D01*
X43286780Y116575340D02*
X43286780Y115059330D01*
X43286780Y115059330D02*
X42795990Y115059330D01*
X42795990Y115059330D02*
X42795990Y116575340D01*
G36*
X43286780Y115059330D02*
G01*
X42795990Y115059330D01*
X42795990Y116575340D01*
X43286780Y116575340D01*
X43286780Y115059330D01*
G37*
X43286780Y115059330D02*
X42795990Y115059330D01*
X42795990Y116575340D01*
X43286780Y116575340D01*
X43286780Y115059330D01*
X49149860Y116575340D02*
X49636780Y116575340D01*
X49636780Y116575340D02*
X49636780Y115058920D01*
X49636780Y115058920D02*
X49149860Y115058920D01*
X49149860Y115058920D02*
X49149860Y116575340D01*
G36*
X49636780Y115058920D02*
G01*
X49149860Y115058920D01*
X49149860Y116575340D01*
X49636780Y116575340D01*
X49636780Y115058920D01*
G37*
X49636780Y115058920D02*
X49149860Y115058920D01*
X49149860Y116575340D01*
X49636780Y116575340D01*
X49636780Y115058920D01*
X44066634Y103455240D02*
X44556780Y103455240D01*
X44556780Y103455240D02*
X44556780Y101934330D01*
X44556780Y101934330D02*
X44066634Y101934330D01*
X44066634Y101934330D02*
X44066634Y103455240D01*
G36*
X44556780Y101934330D02*
G01*
X44066634Y101934330D01*
X44066634Y103455240D01*
X44556780Y103455240D01*
X44556780Y101934330D01*
G37*
X44556780Y101934330D02*
X44066634Y101934330D01*
X44066634Y103455240D01*
X44556780Y103455240D01*
X44556780Y101934330D01*
X40253650Y103455240D02*
X40746780Y103455240D01*
X40746780Y103455240D02*
X40746780Y101929080D01*
X40746780Y101929080D02*
X40253650Y101929080D01*
X40253650Y101929080D02*
X40253650Y103455240D01*
G36*
X40746780Y101929080D02*
G01*
X40253650Y101929080D01*
X40253650Y103455240D01*
X40746780Y103455240D01*
X40746780Y101929080D01*
G37*
X40746780Y101929080D02*
X40253650Y101929080D01*
X40253650Y103455240D01*
X40746780Y103455240D01*
X40746780Y101929080D01*
X47876580Y116575340D02*
X48366780Y116575340D01*
X48366780Y116575340D02*
X48366780Y115055440D01*
X48366780Y115055440D02*
X47876580Y115055440D01*
X47876580Y115055440D02*
X47876580Y116575340D01*
G36*
X48366780Y115055440D02*
G01*
X47876580Y115055440D01*
X47876580Y116575340D01*
X48366780Y116575340D01*
X48366780Y115055440D01*
G37*
X48366780Y115055440D02*
X47876580Y115055440D01*
X47876580Y116575340D01*
X48366780Y116575340D01*
X48366780Y115055440D01*
X40251510Y116575340D02*
X40746780Y116575340D01*
X40746780Y116575340D02*
X40746780Y115064040D01*
X40746780Y115064040D02*
X40251510Y115064040D01*
X40251510Y115064040D02*
X40251510Y116575340D01*
G36*
X40746780Y115064040D02*
G01*
X40251510Y115064040D01*
X40251510Y116575340D01*
X40746780Y116575340D01*
X40746780Y115064040D01*
G37*
X40746780Y115064040D02*
X40251510Y115064040D01*
X40251510Y116575340D01*
X40746780Y116575340D01*
X40746780Y115064040D01*
D13*
G04 #@! TO.C,J2*
X127858787Y107105340D02*
X127151680Y106605340D01*
X127151680Y109555340D02*
X127151680Y95655340D01*
X127151680Y107605340D02*
X127858787Y107105340D01*
X132051680Y94655340D02*
X132051680Y109555340D01*
X132051680Y109555340D02*
X127151680Y109555340D01*
X128151680Y94655340D02*
X132051680Y94655340D01*
X127151680Y95655340D02*
X128151680Y94655340D01*
G04 #@! TD*
M02*
