G04 #@! TF.GenerationSoftware,KiCad,Pcbnew,(6.0.1)*
G04 #@! TF.CreationDate,2022-03-17T22:49:27+02:00*
G04 #@! TF.ProjectId,hellen64_NB1,68656c6c-656e-4363-945f-4e42312e6b69,b*
G04 #@! TF.SameCoordinates,PX141ef50PYa2cc1bc*
G04 #@! TF.FileFunction,Legend,Bot*
G04 #@! TF.FilePolarity,Positive*
%FSLAX46Y46*%
G04 Gerber Fmt 4.6, Leading zero omitted, Abs format (unit mm)*
G04 Created by KiCad (PCBNEW (6.0.1)) date 2022-03-17 22:49:27*
%MOMM*%
%LPD*%
G01*
G04 APERTURE LIST*
%ADD10C,0.250000*%
%ADD11C,0.223520*%
%ADD12C,0.350000*%
%ADD13C,0.375000*%
%ADD14C,0.150000*%
%ADD15C,0.500000*%
%ADD16C,0.200000*%
%ADD17C,0.400000*%
%ADD18C,0.300000*%
%ADD19C,0.127000*%
%ADD20C,0.099060*%
%ADD21C,0.120000*%
G04 APERTURE END LIST*
D10*
X60075000Y150375000D02*
X60075000Y140975000D01*
X59475000Y140375000D02*
X59475000Y139175000D01*
X69375000Y132775000D02*
X69375000Y150375000D01*
X59475000Y139175000D02*
X59975000Y138675000D01*
X60075000Y140975000D02*
X59475000Y140375000D01*
X59975000Y138675000D02*
X59975000Y132875000D01*
X69375000Y150375000D02*
X60075000Y150375000D01*
D11*
X22946013Y135445721D02*
X23526584Y135445721D01*
X23236299Y135445721D02*
X23236299Y136461721D01*
X23333060Y136316579D01*
X23429822Y136219817D01*
X23526584Y136171436D01*
X22510584Y135977912D02*
X22171918Y135977912D01*
X22026775Y135445721D02*
X22510584Y135445721D01*
X22510584Y136461721D01*
X22026775Y136461721D01*
X125611666Y144431381D02*
X124982714Y144431381D01*
X125321380Y144044334D01*
X125176238Y144044334D01*
X125079476Y143995953D01*
X125031095Y143947572D01*
X124982714Y143850810D01*
X124982714Y143608905D01*
X125031095Y143512143D01*
X125079476Y143463762D01*
X125176238Y143415381D01*
X125466523Y143415381D01*
X125563285Y143463762D01*
X125611666Y143512143D01*
X123966714Y143415381D02*
X124305380Y143899191D01*
X124547285Y143415381D02*
X124547285Y144431381D01*
X124160238Y144431381D01*
X124063476Y144383000D01*
X124015095Y144334620D01*
X123966714Y144237858D01*
X123966714Y144092715D01*
X124015095Y143995953D01*
X124063476Y143947572D01*
X124160238Y143899191D01*
X124547285Y143899191D01*
D12*
X67479761Y149570239D02*
X67003571Y147570239D01*
X66622619Y148998810D01*
X66241666Y147570239D01*
X65765476Y149570239D01*
X64336904Y148617858D02*
X64051190Y148522620D01*
X63955952Y148427381D01*
X63860714Y148236905D01*
X63860714Y147951191D01*
X63955952Y147760715D01*
X64051190Y147665477D01*
X64241666Y147570239D01*
X65003571Y147570239D01*
X65003571Y149570239D01*
X64336904Y149570239D01*
X64146428Y149475000D01*
X64051190Y149379762D01*
X63955952Y149189286D01*
X63955952Y148998810D01*
X64051190Y148808334D01*
X64146428Y148713096D01*
X64336904Y148617858D01*
X65003571Y148617858D01*
X62622619Y149570239D02*
X62241666Y149570239D01*
X62051190Y149475000D01*
X61860714Y149284524D01*
X61765476Y148903572D01*
X61765476Y148236905D01*
X61860714Y147855953D01*
X62051190Y147665477D01*
X62241666Y147570239D01*
X62622619Y147570239D01*
X62813095Y147665477D01*
X63003571Y147855953D01*
X63098809Y148236905D01*
X63098809Y148903572D01*
X63003571Y149284524D01*
X62813095Y149475000D01*
X62622619Y149570239D01*
D11*
X62697476Y146681381D02*
X62358809Y145665381D01*
X62020142Y146681381D01*
X61729857Y145713762D02*
X61584714Y145665381D01*
X61342809Y145665381D01*
X61246047Y145713762D01*
X61197666Y145762143D01*
X61149285Y145858905D01*
X61149285Y145955667D01*
X61197666Y146052429D01*
X61246047Y146100810D01*
X61342809Y146149191D01*
X61536333Y146197572D01*
X61633095Y146245953D01*
X61681476Y146294334D01*
X61729857Y146391096D01*
X61729857Y146487858D01*
X61681476Y146584620D01*
X61633095Y146633000D01*
X61536333Y146681381D01*
X61294428Y146681381D01*
X61149285Y146633000D01*
X107334680Y145656245D02*
X107383060Y145559483D01*
X107383060Y145414340D01*
X107334680Y145269198D01*
X107237918Y145172436D01*
X107141156Y145124055D01*
X106947632Y145075674D01*
X106802489Y145075674D01*
X106608965Y145124055D01*
X106512203Y145172436D01*
X106415441Y145269198D01*
X106367060Y145414340D01*
X106367060Y145511102D01*
X106415441Y145656245D01*
X106463822Y145704626D01*
X106802489Y145704626D01*
X106802489Y145511102D01*
X106367060Y146140055D02*
X107383060Y146140055D01*
X106367060Y146720626D01*
X107383060Y146720626D01*
X106367060Y147204436D02*
X107383060Y147204436D01*
X107383060Y147446340D01*
X107334680Y147591483D01*
X107237918Y147688245D01*
X107141156Y147736626D01*
X106947632Y147785007D01*
X106802489Y147785007D01*
X106608965Y147736626D01*
X106512203Y147688245D01*
X106415441Y147591483D01*
X106367060Y147446340D01*
X106367060Y147204436D01*
X59026904Y144017715D02*
X59026904Y143340381D01*
X59268809Y144404762D02*
X59510714Y143679048D01*
X58881761Y143679048D01*
X58156047Y143872572D02*
X58494714Y143872572D01*
X58494714Y143340381D02*
X58494714Y144356381D01*
X58010904Y144356381D01*
X122460857Y136176381D02*
X121831904Y136176381D01*
X122170571Y135789334D01*
X122025428Y135789334D01*
X121928666Y135740953D01*
X121880285Y135692572D01*
X121831904Y135595810D01*
X121831904Y135353905D01*
X121880285Y135257143D01*
X121928666Y135208762D01*
X122025428Y135160381D01*
X122315714Y135160381D01*
X122412476Y135208762D01*
X122460857Y135257143D01*
X121202952Y136176381D02*
X121009428Y136176381D01*
X120912666Y136128000D01*
X120815904Y136031239D01*
X120767523Y135837715D01*
X120767523Y135499048D01*
X120815904Y135305524D01*
X120912666Y135208762D01*
X121009428Y135160381D01*
X121202952Y135160381D01*
X121299714Y135208762D01*
X121396476Y135305524D01*
X121444857Y135499048D01*
X121444857Y135837715D01*
X121396476Y136031239D01*
X121299714Y136128000D01*
X121202952Y136176381D01*
X37931904Y135210381D02*
X38512476Y135210381D01*
X38222190Y135210381D02*
X38222190Y136226381D01*
X38318952Y136081239D01*
X38415714Y135984477D01*
X38512476Y135936096D01*
X37302952Y136226381D02*
X37109428Y136226381D01*
X37012666Y136178000D01*
X36915904Y136081239D01*
X36867523Y135887715D01*
X36867523Y135549048D01*
X36915904Y135355524D01*
X37012666Y135258762D01*
X37109428Y135210381D01*
X37302952Y135210381D01*
X37399714Y135258762D01*
X37496476Y135355524D01*
X37544857Y135549048D01*
X37544857Y135887715D01*
X37496476Y136081239D01*
X37399714Y136178000D01*
X37302952Y136226381D01*
X88408060Y131064436D02*
X88408060Y131645007D01*
X87392060Y131354721D02*
X88408060Y131354721D01*
X87682346Y131935293D02*
X87682346Y132419102D01*
X87392060Y131838531D02*
X88408060Y132177198D01*
X87392060Y132515864D01*
X87488822Y133435102D02*
X87440441Y133386721D01*
X87392060Y133241579D01*
X87392060Y133144817D01*
X87440441Y132999674D01*
X87537203Y132902912D01*
X87633965Y132854531D01*
X87827489Y132806150D01*
X87972632Y132806150D01*
X88166156Y132854531D01*
X88262918Y132902912D01*
X88359680Y132999674D01*
X88408060Y133144817D01*
X88408060Y133241579D01*
X88359680Y133386721D01*
X88311299Y133435102D01*
X87392060Y133870531D02*
X88408060Y133870531D01*
X87924251Y133870531D02*
X87924251Y134451102D01*
X87392060Y134451102D02*
X88408060Y134451102D01*
X32095952Y143465381D02*
X32676523Y143465381D01*
X32386238Y143465381D02*
X32386238Y144481381D01*
X32483000Y144336239D01*
X32579761Y144239477D01*
X32676523Y144191096D01*
X31176714Y143465381D02*
X31660523Y143465381D01*
X31660523Y144481381D01*
X113425714Y144431381D02*
X112796761Y144431381D01*
X113135428Y144044334D01*
X112990285Y144044334D01*
X112893523Y143995953D01*
X112845142Y143947572D01*
X112796761Y143850810D01*
X112796761Y143608905D01*
X112845142Y143512143D01*
X112893523Y143463762D01*
X112990285Y143415381D01*
X113280571Y143415381D01*
X113377333Y143463762D01*
X113425714Y143512143D01*
X112071047Y144431381D02*
X112071047Y143705667D01*
X112119428Y143560524D01*
X112216190Y143463762D01*
X112361333Y143415381D01*
X112458095Y143415381D01*
X79810489Y133617483D02*
X79858870Y133569102D01*
X80004013Y133520721D01*
X80100775Y133520721D01*
X80245918Y133569102D01*
X80342680Y133665864D01*
X80391060Y133762626D01*
X80439441Y133956150D01*
X80439441Y134101293D01*
X80391060Y134294817D01*
X80342680Y134391579D01*
X80245918Y134488340D01*
X80100775Y134536721D01*
X80004013Y134536721D01*
X79858870Y134488340D01*
X79810489Y134439960D01*
X78891251Y133520721D02*
X79375060Y133520721D01*
X79375060Y134536721D01*
X78697727Y134536721D02*
X78117156Y134536721D01*
X78407441Y133520721D02*
X78407441Y134536721D01*
X125635857Y136176381D02*
X125006904Y136176381D01*
X125345571Y135789334D01*
X125200428Y135789334D01*
X125103666Y135740953D01*
X125055285Y135692572D01*
X125006904Y135595810D01*
X125006904Y135353905D01*
X125055285Y135257143D01*
X125103666Y135208762D01*
X125200428Y135160381D01*
X125490714Y135160381D01*
X125587476Y135208762D01*
X125635857Y135257143D01*
X123894142Y135063620D02*
X123990904Y135112000D01*
X124087666Y135208762D01*
X124232809Y135353905D01*
X124329571Y135402286D01*
X124426333Y135402286D01*
X124377952Y135160381D02*
X124474714Y135208762D01*
X124571476Y135305524D01*
X124619857Y135499048D01*
X124619857Y135837715D01*
X124571476Y136031239D01*
X124474714Y136128000D01*
X124377952Y136176381D01*
X124184428Y136176381D01*
X124087666Y136128000D01*
X123990904Y136031239D01*
X123942523Y135837715D01*
X123942523Y135499048D01*
X123990904Y135305524D01*
X124087666Y135208762D01*
X124184428Y135160381D01*
X124377952Y135160381D01*
X40849251Y145419198D02*
X40849251Y145757864D01*
X40317060Y145903007D02*
X40317060Y145419198D01*
X41333060Y145419198D01*
X41333060Y145903007D01*
X40413822Y146919007D02*
X40365441Y146870626D01*
X40317060Y146725483D01*
X40317060Y146628721D01*
X40365441Y146483579D01*
X40462203Y146386817D01*
X40558965Y146338436D01*
X40752489Y146290055D01*
X40897632Y146290055D01*
X41091156Y146338436D01*
X41187918Y146386817D01*
X41284680Y146483579D01*
X41333060Y146628721D01*
X41333060Y146725483D01*
X41284680Y146870626D01*
X41236299Y146919007D01*
X40849251Y147693102D02*
X40849251Y147354436D01*
X40317060Y147354436D02*
X41333060Y147354436D01*
X41333060Y147838245D01*
X20127714Y143465381D02*
X20708285Y143465381D01*
X20418000Y143465381D02*
X20418000Y144481381D01*
X20514761Y144336239D01*
X20611523Y144239477D01*
X20708285Y144191096D01*
X19692285Y143465381D02*
X19692285Y144481381D01*
X19450380Y144481381D01*
X19305238Y144433000D01*
X19208476Y144336239D01*
X19160095Y144239477D01*
X19111714Y144045953D01*
X19111714Y143900810D01*
X19160095Y143707286D01*
X19208476Y143610524D01*
X19305238Y143513762D01*
X19450380Y143465381D01*
X19692285Y143465381D01*
X84988822Y146086198D02*
X84940441Y146037817D01*
X84892060Y145892674D01*
X84892060Y145795912D01*
X84940441Y145650769D01*
X85037203Y145554007D01*
X85133965Y145505626D01*
X85327489Y145457245D01*
X85472632Y145457245D01*
X85666156Y145505626D01*
X85762918Y145554007D01*
X85859680Y145650769D01*
X85908060Y145795912D01*
X85908060Y145892674D01*
X85859680Y146037817D01*
X85811299Y146086198D01*
X84892060Y147102198D02*
X85375870Y146763531D01*
X84892060Y146521626D02*
X85908060Y146521626D01*
X85908060Y146908674D01*
X85859680Y147005436D01*
X85811299Y147053817D01*
X85714537Y147102198D01*
X85569394Y147102198D01*
X85472632Y147053817D01*
X85424251Y147005436D01*
X85375870Y146908674D01*
X85375870Y146521626D01*
X85182346Y147489245D02*
X85182346Y147973055D01*
X84892060Y147392483D02*
X85908060Y147731150D01*
X84892060Y148069817D01*
X84892060Y148408483D02*
X85908060Y148408483D01*
X84892060Y148989055D01*
X85908060Y148989055D01*
X84892060Y149472864D02*
X85908060Y149472864D01*
X84892060Y150053436D02*
X85472632Y149618007D01*
X85908060Y150053436D02*
X85327489Y149472864D01*
D13*
X52744537Y118437483D02*
X52244537Y118437483D01*
X52030251Y117651769D02*
X52744537Y117651769D01*
X52744537Y119151769D01*
X52030251Y119151769D01*
X51601680Y119151769D02*
X50744537Y119151769D01*
X51173108Y117651769D02*
X51173108Y119151769D01*
X49744537Y118437483D02*
X49530251Y118366055D01*
X49458822Y118294626D01*
X49387394Y118151769D01*
X49387394Y117937483D01*
X49458822Y117794626D01*
X49530251Y117723198D01*
X49673108Y117651769D01*
X50244537Y117651769D01*
X50244537Y119151769D01*
X49744537Y119151769D01*
X49601680Y119080340D01*
X49530251Y119008912D01*
X49458822Y118866055D01*
X49458822Y118723198D01*
X49530251Y118580340D01*
X49601680Y118508912D01*
X49744537Y118437483D01*
X50244537Y118437483D01*
D10*
X61055251Y108173198D02*
X59912394Y108173198D01*
X60483822Y107601769D02*
X60483822Y108744626D01*
X58483822Y109101769D02*
X59198108Y109101769D01*
X59269537Y108387483D01*
X59198108Y108458912D01*
X59055251Y108530340D01*
X58698108Y108530340D01*
X58555251Y108458912D01*
X58483822Y108387483D01*
X58412394Y108244626D01*
X58412394Y107887483D01*
X58483822Y107744626D01*
X58555251Y107673198D01*
X58698108Y107601769D01*
X59055251Y107601769D01*
X59198108Y107673198D01*
X59269537Y107744626D01*
X57983822Y109101769D02*
X57483822Y107601769D01*
X56983822Y109101769D01*
D11*
X56129013Y134611721D02*
X55548441Y134611721D01*
X55838727Y133595721D02*
X55838727Y134611721D01*
X55064632Y134611721D02*
X55161394Y134563340D01*
X55209775Y134466579D01*
X55161394Y134369817D01*
X55064632Y134321436D01*
X54967870Y134369817D01*
X54919489Y134466579D01*
X54967870Y134563340D01*
X55064632Y134611721D01*
X100846666Y144431381D02*
X100217714Y144431381D01*
X100556380Y144044334D01*
X100411238Y144044334D01*
X100314476Y143995953D01*
X100266095Y143947572D01*
X100217714Y143850810D01*
X100217714Y143608905D01*
X100266095Y143512143D01*
X100314476Y143463762D01*
X100411238Y143415381D01*
X100701523Y143415381D01*
X100798285Y143463762D01*
X100846666Y143512143D01*
X99443619Y143947572D02*
X99298476Y143899191D01*
X99250095Y143850810D01*
X99201714Y143754048D01*
X99201714Y143608905D01*
X99250095Y143512143D01*
X99298476Y143463762D01*
X99395238Y143415381D01*
X99782285Y143415381D01*
X99782285Y144431381D01*
X99443619Y144431381D01*
X99346857Y144383000D01*
X99298476Y144334620D01*
X99250095Y144237858D01*
X99250095Y144141096D01*
X99298476Y144044334D01*
X99346857Y143995953D01*
X99443619Y143947572D01*
X99782285Y143947572D01*
X67989476Y135762715D02*
X67989476Y135085381D01*
X68231380Y136149762D02*
X68473285Y135424048D01*
X67844333Y135424048D01*
X67457285Y135085381D02*
X67457285Y136101381D01*
X66876714Y135085381D02*
X67312142Y135665953D01*
X66876714Y136101381D02*
X67457285Y135520810D01*
D14*
X63026680Y134518436D02*
X62793346Y133718436D01*
X62560013Y134518436D01*
X62360013Y133756531D02*
X62260013Y133718436D01*
X62093346Y133718436D01*
X62026680Y133756531D01*
X61993346Y133794626D01*
X61960013Y133870817D01*
X61960013Y133947007D01*
X61993346Y134023198D01*
X62026680Y134061293D01*
X62093346Y134099388D01*
X62226680Y134137483D01*
X62293346Y134175579D01*
X62326680Y134213674D01*
X62360013Y134289864D01*
X62360013Y134366055D01*
X62326680Y134442245D01*
X62293346Y134480340D01*
X62226680Y134518436D01*
X62060013Y134518436D01*
X61960013Y134480340D01*
X61160013Y134556531D02*
X61760013Y133527960D01*
X60926680Y133718436D02*
X60926680Y134518436D01*
X60593346Y133718436D02*
X60593346Y134518436D01*
X60326680Y134518436D01*
X60260013Y134480340D01*
X60226680Y134442245D01*
X60193346Y134366055D01*
X60193346Y134251769D01*
X60226680Y134175579D01*
X60260013Y134137483D01*
X60326680Y134099388D01*
X60593346Y134099388D01*
D11*
X102500775Y134088340D02*
X102597537Y134136721D01*
X102742680Y134136721D01*
X102887822Y134088340D01*
X102984584Y133991579D01*
X103032965Y133894817D01*
X103081346Y133701293D01*
X103081346Y133556150D01*
X103032965Y133362626D01*
X102984584Y133265864D01*
X102887822Y133169102D01*
X102742680Y133120721D01*
X102645918Y133120721D01*
X102500775Y133169102D01*
X102452394Y133217483D01*
X102452394Y133556150D01*
X102645918Y133556150D01*
X102016965Y133120721D02*
X102016965Y134136721D01*
X101436394Y133120721D01*
X101436394Y134136721D01*
X100952584Y133120721D02*
X100952584Y134136721D01*
X100710680Y134136721D01*
X100565537Y134088340D01*
X100468775Y133991579D01*
X100420394Y133894817D01*
X100372013Y133701293D01*
X100372013Y133556150D01*
X100420394Y133362626D01*
X100468775Y133265864D01*
X100565537Y133169102D01*
X100710680Y133120721D01*
X100952584Y133120721D01*
D10*
X62058822Y111676769D02*
X61201680Y111676769D01*
X61630251Y110176769D02*
X61630251Y111676769D01*
X60701680Y110176769D02*
X60701680Y111676769D01*
X60130251Y111676769D01*
X59987394Y111605340D01*
X59915965Y111533912D01*
X59844537Y111391055D01*
X59844537Y111176769D01*
X59915965Y111033912D01*
X59987394Y110962483D01*
X60130251Y110891055D01*
X60701680Y110891055D01*
X59273108Y110248198D02*
X59058822Y110176769D01*
X58701680Y110176769D01*
X58558822Y110248198D01*
X58487394Y110319626D01*
X58415965Y110462483D01*
X58415965Y110605340D01*
X58487394Y110748198D01*
X58558822Y110819626D01*
X58701680Y110891055D01*
X58987394Y110962483D01*
X59130251Y111033912D01*
X59201680Y111105340D01*
X59273108Y111248198D01*
X59273108Y111391055D01*
X59201680Y111533912D01*
X59130251Y111605340D01*
X58987394Y111676769D01*
X58630251Y111676769D01*
X58415965Y111605340D01*
X56987394Y110176769D02*
X57844537Y110176769D01*
X57415965Y110176769D02*
X57415965Y111676769D01*
X57558822Y111462483D01*
X57701680Y111319626D01*
X57844537Y111248198D01*
D11*
X109442060Y144947531D02*
X110458060Y144947531D01*
X110409680Y145963531D02*
X110458060Y145866769D01*
X110458060Y145721626D01*
X110409680Y145576483D01*
X110312918Y145479721D01*
X110216156Y145431340D01*
X110022632Y145382960D01*
X109877489Y145382960D01*
X109683965Y145431340D01*
X109587203Y145479721D01*
X109490441Y145576483D01*
X109442060Y145721626D01*
X109442060Y145818388D01*
X109490441Y145963531D01*
X109538822Y146011912D01*
X109877489Y146011912D01*
X109877489Y145818388D01*
X109442060Y146447340D02*
X110458060Y146447340D01*
X109442060Y147027912D01*
X110458060Y147027912D01*
X110361299Y147463340D02*
X110409680Y147511721D01*
X110458060Y147608483D01*
X110458060Y147850388D01*
X110409680Y147947150D01*
X110361299Y147995531D01*
X110264537Y148043912D01*
X110167775Y148043912D01*
X110022632Y147995531D01*
X109442060Y147414960D01*
X109442060Y148043912D01*
X110458060Y148382579D02*
X110458060Y149011531D01*
X110071013Y148672864D01*
X110071013Y148818007D01*
X110022632Y148914769D01*
X109974251Y148963150D01*
X109877489Y149011531D01*
X109635584Y149011531D01*
X109538822Y148963150D01*
X109490441Y148914769D01*
X109442060Y148818007D01*
X109442060Y148527721D01*
X109490441Y148430960D01*
X109538822Y148382579D01*
X52725775Y134563340D02*
X52822537Y134611721D01*
X52967680Y134611721D01*
X53112822Y134563340D01*
X53209584Y134466579D01*
X53257965Y134369817D01*
X53306346Y134176293D01*
X53306346Y134031150D01*
X53257965Y133837626D01*
X53209584Y133740864D01*
X53112822Y133644102D01*
X52967680Y133595721D01*
X52870918Y133595721D01*
X52725775Y133644102D01*
X52677394Y133692483D01*
X52677394Y134031150D01*
X52870918Y134031150D01*
X52241965Y133595721D02*
X52241965Y134611721D01*
X51661394Y133595721D01*
X51661394Y134611721D01*
X51177584Y133595721D02*
X51177584Y134611721D01*
X50935680Y134611721D01*
X50790537Y134563340D01*
X50693775Y134466579D01*
X50645394Y134369817D01*
X50597013Y134176293D01*
X50597013Y134031150D01*
X50645394Y133837626D01*
X50693775Y133740864D01*
X50790537Y133644102D01*
X50935680Y133595721D01*
X51177584Y133595721D01*
X128762476Y136176381D02*
X128133523Y136176381D01*
X128472190Y135789334D01*
X128327047Y135789334D01*
X128230285Y135740953D01*
X128181904Y135692572D01*
X128133523Y135595810D01*
X128133523Y135353905D01*
X128181904Y135257143D01*
X128230285Y135208762D01*
X128327047Y135160381D01*
X128617333Y135160381D01*
X128714095Y135208762D01*
X128762476Y135257143D01*
X127746476Y135208762D02*
X127601333Y135160381D01*
X127359428Y135160381D01*
X127262666Y135208762D01*
X127214285Y135257143D01*
X127165904Y135353905D01*
X127165904Y135450667D01*
X127214285Y135547429D01*
X127262666Y135595810D01*
X127359428Y135644191D01*
X127552952Y135692572D01*
X127649714Y135740953D01*
X127698095Y135789334D01*
X127746476Y135886096D01*
X127746476Y135982858D01*
X127698095Y136079620D01*
X127649714Y136128000D01*
X127552952Y136176381D01*
X127311047Y136176381D01*
X127165904Y136128000D01*
X135209238Y136176381D02*
X134580285Y136176381D01*
X134918952Y135789334D01*
X134773809Y135789334D01*
X134677047Y135740953D01*
X134628666Y135692572D01*
X134580285Y135595810D01*
X134580285Y135353905D01*
X134628666Y135257143D01*
X134677047Y135208762D01*
X134773809Y135160381D01*
X135064095Y135160381D01*
X135160857Y135208762D01*
X135209238Y135257143D01*
X134241619Y136176381D02*
X133999714Y135160381D01*
X133806190Y135886096D01*
X133612666Y135160381D01*
X133370761Y136176381D01*
X116721666Y136176381D02*
X116092714Y136176381D01*
X116431380Y135789334D01*
X116286238Y135789334D01*
X116189476Y135740953D01*
X116141095Y135692572D01*
X116092714Y135595810D01*
X116092714Y135353905D01*
X116141095Y135257143D01*
X116189476Y135208762D01*
X116286238Y135160381D01*
X116576523Y135160381D01*
X116673285Y135208762D01*
X116721666Y135257143D01*
X115657285Y135160381D02*
X115657285Y136176381D01*
X115076714Y135160381D02*
X115512142Y135740953D01*
X115076714Y136176381D02*
X115657285Y135595810D01*
X83257476Y144384620D02*
X83209095Y144433000D01*
X83112333Y144481381D01*
X82870428Y144481381D01*
X82773666Y144433000D01*
X82725285Y144384620D01*
X82676904Y144287858D01*
X82676904Y144191096D01*
X82725285Y144045953D01*
X83305857Y143465381D01*
X82676904Y143465381D01*
X82241476Y143465381D02*
X82241476Y144481381D01*
X82241476Y143997572D02*
X81660904Y143997572D01*
X81660904Y143465381D02*
X81660904Y144481381D01*
X139792060Y136102293D02*
X140808060Y136102293D01*
X139792060Y136586102D02*
X140808060Y136586102D01*
X139792060Y137166674D01*
X140808060Y137166674D01*
X140808060Y137940769D02*
X140082346Y137940769D01*
X139937203Y137892388D01*
X139840441Y137795626D01*
X139792060Y137650483D01*
X139792060Y137553721D01*
X140808060Y138327817D02*
X140808060Y138956769D01*
X140421013Y138618102D01*
X140421013Y138763245D01*
X140372632Y138860007D01*
X140324251Y138908388D01*
X140227489Y138956769D01*
X139985584Y138956769D01*
X139888822Y138908388D01*
X139840441Y138860007D01*
X139792060Y138763245D01*
X139792060Y138472960D01*
X139840441Y138376198D01*
X139888822Y138327817D01*
X110746666Y136131381D02*
X110117714Y136131381D01*
X110456380Y135744334D01*
X110311238Y135744334D01*
X110214476Y135695953D01*
X110166095Y135647572D01*
X110117714Y135550810D01*
X110117714Y135308905D01*
X110166095Y135212143D01*
X110214476Y135163762D01*
X110311238Y135115381D01*
X110601523Y135115381D01*
X110698285Y135163762D01*
X110746666Y135212143D01*
X109150095Y136083000D02*
X109246857Y136131381D01*
X109392000Y136131381D01*
X109537142Y136083000D01*
X109633904Y135986239D01*
X109682285Y135889477D01*
X109730666Y135695953D01*
X109730666Y135550810D01*
X109682285Y135357286D01*
X109633904Y135260524D01*
X109537142Y135163762D01*
X109392000Y135115381D01*
X109295238Y135115381D01*
X109150095Y135163762D01*
X109101714Y135212143D01*
X109101714Y135550810D01*
X109295238Y135550810D01*
X58729108Y145088626D02*
X58729108Y145862721D01*
X58342060Y145475674D02*
X59116156Y145475674D01*
X59358060Y146830340D02*
X59358060Y146346531D01*
X58874251Y146298150D01*
X58922632Y146346531D01*
X58971013Y146443293D01*
X58971013Y146685198D01*
X58922632Y146781960D01*
X58874251Y146830340D01*
X58777489Y146878721D01*
X58535584Y146878721D01*
X58438822Y146830340D01*
X58390441Y146781960D01*
X58342060Y146685198D01*
X58342060Y146443293D01*
X58390441Y146346531D01*
X58438822Y146298150D01*
X59358060Y147169007D02*
X58342060Y147507674D01*
X59358060Y147846340D01*
X58632346Y148136626D02*
X58632346Y148620436D01*
X58342060Y148039864D02*
X59358060Y148378531D01*
X58342060Y148717198D01*
X44136761Y143465381D02*
X44717333Y143465381D01*
X44427047Y143465381D02*
X44427047Y144481381D01*
X44523809Y144336239D01*
X44620571Y144239477D01*
X44717333Y144191096D01*
X43846476Y144481381D02*
X43265904Y144481381D01*
X43556190Y143465381D02*
X43556190Y144481381D01*
X119719238Y136176381D02*
X119090285Y136176381D01*
X119428952Y135789334D01*
X119283809Y135789334D01*
X119187047Y135740953D01*
X119138666Y135692572D01*
X119090285Y135595810D01*
X119090285Y135353905D01*
X119138666Y135257143D01*
X119187047Y135208762D01*
X119283809Y135160381D01*
X119574095Y135160381D01*
X119670857Y135208762D01*
X119719238Y135257143D01*
X118654857Y135160381D02*
X118654857Y136176381D01*
X118316190Y135450667D01*
X117977523Y136176381D01*
X117977523Y135160381D01*
D15*
X6244537Y79567245D02*
X9244537Y79567245D01*
X7815965Y79567245D02*
X7815965Y80710102D01*
X6244537Y80710102D02*
X9244537Y80710102D01*
X6387394Y82424388D02*
X6244537Y82233912D01*
X6244537Y81852960D01*
X6387394Y81662483D01*
X6673108Y81567245D01*
X7815965Y81567245D01*
X8101680Y81662483D01*
X8244537Y81852960D01*
X8244537Y82233912D01*
X8101680Y82424388D01*
X7815965Y82519626D01*
X7530251Y82519626D01*
X7244537Y81567245D01*
X6244537Y83662483D02*
X6387394Y83472007D01*
X6673108Y83376769D01*
X9244537Y83376769D01*
X6244537Y84710102D02*
X6387394Y84519626D01*
X6673108Y84424388D01*
X9244537Y84424388D01*
X6387394Y86233912D02*
X6244537Y86043436D01*
X6244537Y85662483D01*
X6387394Y85472007D01*
X6673108Y85376769D01*
X7815965Y85376769D01*
X8101680Y85472007D01*
X8244537Y85662483D01*
X8244537Y86043436D01*
X8101680Y86233912D01*
X7815965Y86329150D01*
X7530251Y86329150D01*
X7244537Y85376769D01*
X8244537Y87186293D02*
X6244537Y87186293D01*
X7958822Y87186293D02*
X8101680Y87281531D01*
X8244537Y87472007D01*
X8244537Y87757721D01*
X8101680Y87948198D01*
X7815965Y88043436D01*
X6244537Y88043436D01*
X6244537Y88995817D02*
X9244537Y88995817D01*
X6244537Y90138674D01*
X9244537Y90138674D01*
X7815965Y91757721D02*
X7673108Y92043436D01*
X7530251Y92138674D01*
X7244537Y92233912D01*
X6815965Y92233912D01*
X6530251Y92138674D01*
X6387394Y92043436D01*
X6244537Y91852960D01*
X6244537Y91091055D01*
X9244537Y91091055D01*
X9244537Y91757721D01*
X9101680Y91948198D01*
X8958822Y92043436D01*
X8673108Y92138674D01*
X8387394Y92138674D01*
X8101680Y92043436D01*
X7958822Y91948198D01*
X7815965Y91757721D01*
X7815965Y91091055D01*
X6244537Y94138674D02*
X6244537Y92995817D01*
X6244537Y93567245D02*
X9244537Y93567245D01*
X8815965Y93376769D01*
X8530251Y93186293D01*
X8387394Y92995817D01*
D11*
X78692060Y145358864D02*
X79708060Y145358864D01*
X78692060Y145939436D02*
X79272632Y145504007D01*
X79708060Y145939436D02*
X79127489Y145358864D01*
X78692060Y146374864D02*
X79708060Y146374864D01*
X78692060Y146955436D01*
X79708060Y146955436D01*
X79708060Y147632769D02*
X79708060Y147826293D01*
X79659680Y147923055D01*
X79562918Y148019817D01*
X79369394Y148068198D01*
X79030727Y148068198D01*
X78837203Y148019817D01*
X78740441Y147923055D01*
X78692060Y147826293D01*
X78692060Y147632769D01*
X78740441Y147536007D01*
X78837203Y147439245D01*
X79030727Y147390864D01*
X79369394Y147390864D01*
X79562918Y147439245D01*
X79659680Y147536007D01*
X79708060Y147632769D01*
X78788822Y149084198D02*
X78740441Y149035817D01*
X78692060Y148890674D01*
X78692060Y148793912D01*
X78740441Y148648769D01*
X78837203Y148552007D01*
X78933965Y148503626D01*
X79127489Y148455245D01*
X79272632Y148455245D01*
X79466156Y148503626D01*
X79562918Y148552007D01*
X79659680Y148648769D01*
X79708060Y148793912D01*
X79708060Y148890674D01*
X79659680Y149035817D01*
X79611299Y149084198D01*
X78692060Y149519626D02*
X79708060Y149519626D01*
X78692060Y150100198D02*
X79272632Y149664769D01*
X79708060Y150100198D02*
X79127489Y149519626D01*
X62274476Y135762715D02*
X62274476Y135085381D01*
X62516380Y136149762D02*
X62758285Y135424048D01*
X62129333Y135424048D01*
X61210095Y136053000D02*
X61306857Y136101381D01*
X61452000Y136101381D01*
X61597142Y136053000D01*
X61693904Y135956239D01*
X61742285Y135859477D01*
X61790666Y135665953D01*
X61790666Y135520810D01*
X61742285Y135327286D01*
X61693904Y135230524D01*
X61597142Y135133762D01*
X61452000Y135085381D01*
X61355238Y135085381D01*
X61210095Y135133762D01*
X61161714Y135182143D01*
X61161714Y135520810D01*
X61355238Y135520810D01*
X113280571Y136176381D02*
X112651619Y136176381D01*
X112990285Y135789334D01*
X112845142Y135789334D01*
X112748380Y135740953D01*
X112700000Y135692572D01*
X112651619Y135595810D01*
X112651619Y135353905D01*
X112700000Y135257143D01*
X112748380Y135208762D01*
X112845142Y135160381D01*
X113135428Y135160381D01*
X113232190Y135208762D01*
X113280571Y135257143D01*
X112216190Y135160381D02*
X112216190Y136176381D01*
X55722571Y145512334D02*
X55674190Y145657477D01*
X55625809Y145705858D01*
X55529047Y145754239D01*
X55383904Y145754239D01*
X55287142Y145705858D01*
X55238761Y145657477D01*
X55190380Y145560715D01*
X55190380Y145173667D01*
X56206380Y145173667D01*
X56206380Y145512334D01*
X56158000Y145609096D01*
X56109619Y145657477D01*
X56012857Y145705858D01*
X55916095Y145705858D01*
X55819333Y145657477D01*
X55770952Y145609096D01*
X55722571Y145512334D01*
X55722571Y145173667D01*
X56206380Y146383191D02*
X56206380Y146576715D01*
X56158000Y146673477D01*
X56061238Y146770239D01*
X55867714Y146818620D01*
X55529047Y146818620D01*
X55335523Y146770239D01*
X55238761Y146673477D01*
X55190380Y146576715D01*
X55190380Y146383191D01*
X55238761Y146286429D01*
X55335523Y146189667D01*
X55529047Y146141286D01*
X55867714Y146141286D01*
X56061238Y146189667D01*
X56158000Y146286429D01*
X56206380Y146383191D01*
X56206380Y147447572D02*
X56206380Y147641096D01*
X56158000Y147737858D01*
X56061238Y147834620D01*
X55867714Y147883000D01*
X55529047Y147883000D01*
X55335523Y147834620D01*
X55238761Y147737858D01*
X55190380Y147641096D01*
X55190380Y147447572D01*
X55238761Y147350810D01*
X55335523Y147254048D01*
X55529047Y147205667D01*
X55867714Y147205667D01*
X56061238Y147254048D01*
X56158000Y147350810D01*
X56206380Y147447572D01*
X55238761Y148270048D02*
X55190380Y148415191D01*
X55190380Y148657096D01*
X55238761Y148753858D01*
X55287142Y148802239D01*
X55383904Y148850620D01*
X55480666Y148850620D01*
X55577428Y148802239D01*
X55625809Y148753858D01*
X55674190Y148657096D01*
X55722571Y148463572D01*
X55770952Y148366810D01*
X55819333Y148318429D01*
X55916095Y148270048D01*
X56012857Y148270048D01*
X56109619Y148318429D01*
X56158000Y148366810D01*
X56206380Y148463572D01*
X56206380Y148705477D01*
X56158000Y148850620D01*
X56206380Y149140905D02*
X56206380Y149721477D01*
X55190380Y149431191D02*
X56206380Y149431191D01*
D16*
X65798108Y6912840D02*
X65083822Y6912840D01*
X65940965Y6484269D02*
X65440965Y7984269D01*
X64940965Y6484269D01*
X64226680Y6484269D02*
X64369537Y6555698D01*
X64440965Y6698555D01*
X64440965Y7984269D01*
X63798108Y7484269D02*
X63512394Y6484269D01*
X63226680Y7198555D01*
X62940965Y6484269D01*
X62655251Y7484269D01*
X61440965Y6484269D02*
X61440965Y7269983D01*
X61512394Y7412840D01*
X61655251Y7484269D01*
X61940965Y7484269D01*
X62083822Y7412840D01*
X61440965Y6555698D02*
X61583822Y6484269D01*
X61940965Y6484269D01*
X62083822Y6555698D01*
X62155251Y6698555D01*
X62155251Y6841412D01*
X62083822Y6984269D01*
X61940965Y7055698D01*
X61583822Y7055698D01*
X61440965Y7127126D01*
X60869537Y7484269D02*
X60512394Y6484269D01*
X60155251Y7484269D02*
X60512394Y6484269D01*
X60655251Y6127126D01*
X60726680Y6055698D01*
X60869537Y5984269D01*
X59655251Y6555698D02*
X59512394Y6484269D01*
X59226680Y6484269D01*
X59083822Y6555698D01*
X59012394Y6698555D01*
X59012394Y6769983D01*
X59083822Y6912840D01*
X59226680Y6984269D01*
X59440965Y6984269D01*
X59583822Y7055698D01*
X59655251Y7198555D01*
X59655251Y7269983D01*
X59583822Y7412840D01*
X59440965Y7484269D01*
X59226680Y7484269D01*
X59083822Y7412840D01*
X57012394Y6484269D02*
X57155251Y6555698D01*
X57226680Y6698555D01*
X57226680Y7984269D01*
X56226680Y6484269D02*
X56369537Y6555698D01*
X56440965Y6627126D01*
X56512394Y6769983D01*
X56512394Y7198555D01*
X56440965Y7341412D01*
X56369537Y7412840D01*
X56226680Y7484269D01*
X56012394Y7484269D01*
X55869537Y7412840D01*
X55798108Y7341412D01*
X55726680Y7198555D01*
X55726680Y6769983D01*
X55798108Y6627126D01*
X55869537Y6555698D01*
X56012394Y6484269D01*
X56226680Y6484269D01*
X54869537Y6484269D02*
X55012394Y6555698D01*
X55083822Y6627126D01*
X55155251Y6769983D01*
X55155251Y7198555D01*
X55083822Y7341412D01*
X55012394Y7412840D01*
X54869537Y7484269D01*
X54655251Y7484269D01*
X54512394Y7412840D01*
X54440965Y7341412D01*
X54369537Y7198555D01*
X54369537Y6769983D01*
X54440965Y6627126D01*
X54512394Y6555698D01*
X54655251Y6484269D01*
X54869537Y6484269D01*
X53726680Y6484269D02*
X53726680Y7984269D01*
X53583822Y7055698D02*
X53155251Y6484269D01*
X53155251Y7484269D02*
X53726680Y6912840D01*
X52512394Y6484269D02*
X52512394Y7484269D01*
X52512394Y7984269D02*
X52583822Y7912840D01*
X52512394Y7841412D01*
X52440965Y7912840D01*
X52512394Y7984269D01*
X52512394Y7841412D01*
X51798108Y7484269D02*
X51798108Y6484269D01*
X51798108Y7341412D02*
X51726680Y7412840D01*
X51583822Y7484269D01*
X51369537Y7484269D01*
X51226680Y7412840D01*
X51155251Y7269983D01*
X51155251Y6484269D01*
X49798108Y7484269D02*
X49798108Y6269983D01*
X49869537Y6127126D01*
X49940965Y6055698D01*
X50083822Y5984269D01*
X50298108Y5984269D01*
X50440965Y6055698D01*
X49798108Y6555698D02*
X49940965Y6484269D01*
X50226679Y6484269D01*
X50369537Y6555698D01*
X50440965Y6627126D01*
X50512394Y6769983D01*
X50512394Y7198555D01*
X50440965Y7341412D01*
X50369537Y7412840D01*
X50226679Y7484269D01*
X49940965Y7484269D01*
X49798108Y7412840D01*
X48155251Y7484269D02*
X47583822Y7484269D01*
X47940965Y6484269D02*
X47940965Y7769983D01*
X47869537Y7912840D01*
X47726679Y7984269D01*
X47583822Y7984269D01*
X46869537Y6484269D02*
X47012394Y6555698D01*
X47083822Y6627126D01*
X47155251Y6769983D01*
X47155251Y7198555D01*
X47083822Y7341412D01*
X47012394Y7412840D01*
X46869537Y7484269D01*
X46655251Y7484269D01*
X46512394Y7412840D01*
X46440965Y7341412D01*
X46369537Y7198555D01*
X46369537Y6769983D01*
X46440965Y6627126D01*
X46512394Y6555698D01*
X46655251Y6484269D01*
X46869537Y6484269D01*
X45726679Y6484269D02*
X45726679Y7484269D01*
X45726679Y7198555D02*
X45655251Y7341412D01*
X45583822Y7412840D01*
X45440965Y7484269D01*
X45298108Y7484269D01*
X42798108Y6627126D02*
X42869537Y6555698D01*
X43083822Y6484269D01*
X43226679Y6484269D01*
X43440965Y6555698D01*
X43583822Y6698555D01*
X43655251Y6841412D01*
X43726680Y7127126D01*
X43726680Y7341412D01*
X43655251Y7627126D01*
X43583822Y7769983D01*
X43440965Y7912840D01*
X43226679Y7984269D01*
X43083822Y7984269D01*
X42869537Y7912840D01*
X42798108Y7841412D01*
X41083822Y8055698D02*
X42369537Y6127126D01*
X39726680Y6627126D02*
X39798108Y6555698D01*
X40012394Y6484269D01*
X40155251Y6484269D01*
X40369537Y6555698D01*
X40512394Y6698555D01*
X40583822Y6841412D01*
X40655251Y7127126D01*
X40655251Y7341412D01*
X40583822Y7627126D01*
X40512394Y7769983D01*
X40369537Y7912840D01*
X40155251Y7984269D01*
X40012394Y7984269D01*
X39798108Y7912840D01*
X39726680Y7841412D01*
X39083822Y7055698D02*
X37940965Y7055698D01*
X38512394Y6484269D02*
X38512394Y7627126D01*
X37226679Y7055698D02*
X36083822Y7055698D01*
X36655251Y6484269D02*
X36655251Y7627126D01*
X34298108Y8055698D02*
X35583822Y6127126D01*
X33798108Y6484269D02*
X33798108Y7984269D01*
X33226679Y7984269D01*
X33083822Y7912840D01*
X33012394Y7841412D01*
X32940965Y7698555D01*
X32940965Y7484269D01*
X33012394Y7341412D01*
X33083822Y7269983D01*
X33226679Y7198555D01*
X33798108Y7198555D01*
X32298108Y6484269D02*
X32298108Y7984269D01*
X32298108Y7269983D02*
X31440965Y7269983D01*
X31440965Y6484269D02*
X31440965Y7984269D01*
X30726679Y6484269D02*
X30726679Y7984269D01*
X30155251Y7984269D01*
X30012394Y7912840D01*
X29940965Y7841412D01*
X29869537Y7698555D01*
X29869537Y7484269D01*
X29940965Y7341412D01*
X30012394Y7269983D01*
X30155251Y7198555D01*
X30726679Y7198555D01*
X28155251Y8055698D02*
X29440965Y6127126D01*
X27226679Y7984269D02*
X27226679Y6912840D01*
X27298108Y6698555D01*
X27440965Y6555698D01*
X27655251Y6484269D01*
X27798108Y6484269D01*
X25869537Y6484269D02*
X25869537Y7269983D01*
X25940965Y7412840D01*
X26083822Y7484269D01*
X26369537Y7484269D01*
X26512394Y7412840D01*
X25869537Y6555698D02*
X26012394Y6484269D01*
X26369537Y6484269D01*
X26512394Y6555698D01*
X26583822Y6698555D01*
X26583822Y6841412D01*
X26512394Y6984269D01*
X26369537Y7055698D01*
X26012394Y7055698D01*
X25869537Y7127126D01*
X25298108Y7484269D02*
X24940965Y6484269D01*
X24583822Y7484269D01*
X23369537Y6484269D02*
X23369537Y7269983D01*
X23440965Y7412840D01*
X23583822Y7484269D01*
X23869537Y7484269D01*
X24012394Y7412840D01*
X23369537Y6555698D02*
X23512394Y6484269D01*
X23869537Y6484269D01*
X24012394Y6555698D01*
X24083822Y6698555D01*
X24083822Y6841412D01*
X24012394Y6984269D01*
X23869537Y7055698D01*
X23512394Y7055698D01*
X23369537Y7127126D01*
X20869537Y6484269D02*
X20869537Y7984269D01*
X20869537Y6555698D02*
X21012394Y6484269D01*
X21298108Y6484269D01*
X21440965Y6555698D01*
X21512394Y6627126D01*
X21583822Y6769983D01*
X21583822Y7198555D01*
X21512394Y7341412D01*
X21440965Y7412840D01*
X21298108Y7484269D01*
X21012394Y7484269D01*
X20869537Y7412840D01*
X19583822Y6555698D02*
X19726680Y6484269D01*
X20012394Y6484269D01*
X20155251Y6555698D01*
X20226680Y6698555D01*
X20226680Y7269983D01*
X20155251Y7412840D01*
X20012394Y7484269D01*
X19726680Y7484269D01*
X19583822Y7412840D01*
X19512394Y7269983D01*
X19512394Y7127126D01*
X20226680Y6984269D01*
X19012394Y7484269D02*
X18655251Y6484269D01*
X18298108Y7484269D01*
X17155251Y6555698D02*
X17298108Y6484269D01*
X17583822Y6484269D01*
X17726680Y6555698D01*
X17798108Y6698555D01*
X17798108Y7269983D01*
X17726680Y7412840D01*
X17583822Y7484269D01*
X17298108Y7484269D01*
X17155251Y7412840D01*
X17083822Y7269983D01*
X17083822Y7127126D01*
X17798108Y6984269D01*
X16226680Y6484269D02*
X16369537Y6555698D01*
X16440965Y6698555D01*
X16440965Y7984269D01*
X15440965Y6484269D02*
X15583822Y6555698D01*
X15655251Y6627126D01*
X15726680Y6769983D01*
X15726680Y7198555D01*
X15655251Y7341412D01*
X15583822Y7412840D01*
X15440965Y7484269D01*
X15226680Y7484269D01*
X15083822Y7412840D01*
X15012394Y7341412D01*
X14940965Y7198555D01*
X14940965Y6769983D01*
X15012394Y6627126D01*
X15083822Y6555698D01*
X15226680Y6484269D01*
X15440965Y6484269D01*
X14298108Y7484269D02*
X14298108Y5984269D01*
X14298108Y7412840D02*
X14155251Y7484269D01*
X13869537Y7484269D01*
X13726680Y7412840D01*
X13655251Y7341412D01*
X13583822Y7198555D01*
X13583822Y6769983D01*
X13655251Y6627126D01*
X13726680Y6555698D01*
X13869537Y6484269D01*
X14155251Y6484269D01*
X14298108Y6555698D01*
X12369537Y6555698D02*
X12512394Y6484269D01*
X12798108Y6484269D01*
X12940965Y6555698D01*
X13012394Y6698555D01*
X13012394Y7269983D01*
X12940965Y7412840D01*
X12798108Y7484269D01*
X12512394Y7484269D01*
X12369537Y7412840D01*
X12298108Y7269983D01*
X12298108Y7127126D01*
X13012394Y6984269D01*
X11655251Y6484269D02*
X11655251Y7484269D01*
X11655251Y7198555D02*
X11583822Y7341412D01*
X11512394Y7412840D01*
X11369537Y7484269D01*
X11226679Y7484269D01*
X10798108Y6555698D02*
X10655251Y6484269D01*
X10369537Y6484269D01*
X10226679Y6555698D01*
X10155251Y6698555D01*
X10155251Y6769983D01*
X10226679Y6912840D01*
X10369537Y6984269D01*
X10583822Y6984269D01*
X10726679Y7055698D01*
X10798108Y7198555D01*
X10798108Y7269983D01*
X10726679Y7412840D01*
X10583822Y7484269D01*
X10369537Y7484269D01*
X10226679Y7412840D01*
X54690965Y4069269D02*
X54690965Y5569269D01*
X54048108Y4069269D02*
X54048108Y4854983D01*
X54119537Y4997840D01*
X54262394Y5069269D01*
X54476680Y5069269D01*
X54619537Y4997840D01*
X54690965Y4926412D01*
X53548108Y5069269D02*
X52976680Y5069269D01*
X53333822Y5569269D02*
X53333822Y4283555D01*
X53262394Y4140698D01*
X53119537Y4069269D01*
X52976680Y4069269D01*
X52690965Y5069269D02*
X52119537Y5069269D01*
X52476680Y5569269D02*
X52476680Y4283555D01*
X52405251Y4140698D01*
X52262394Y4069269D01*
X52119537Y4069269D01*
X51619537Y5069269D02*
X51619537Y3569269D01*
X51619537Y4997840D02*
X51476680Y5069269D01*
X51190965Y5069269D01*
X51048108Y4997840D01*
X50976680Y4926412D01*
X50905251Y4783555D01*
X50905251Y4354983D01*
X50976680Y4212126D01*
X51048108Y4140698D01*
X51190965Y4069269D01*
X51476680Y4069269D01*
X51619537Y4140698D01*
X50333822Y4140698D02*
X50190965Y4069269D01*
X49905251Y4069269D01*
X49762394Y4140698D01*
X49690965Y4283555D01*
X49690965Y4354983D01*
X49762394Y4497840D01*
X49905251Y4569269D01*
X50119537Y4569269D01*
X50262394Y4640698D01*
X50333822Y4783555D01*
X50333822Y4854983D01*
X50262394Y4997840D01*
X50119537Y5069269D01*
X49905251Y5069269D01*
X49762394Y4997840D01*
X49048108Y4212126D02*
X48976680Y4140698D01*
X49048108Y4069269D01*
X49119537Y4140698D01*
X49048108Y4212126D01*
X49048108Y4069269D01*
X49048108Y4997840D02*
X48976680Y4926412D01*
X49048108Y4854983D01*
X49119537Y4926412D01*
X49048108Y4997840D01*
X49048108Y4854983D01*
X47262394Y5640698D02*
X48548108Y3712126D01*
X45690965Y5640698D02*
X46976680Y3712126D01*
X45190965Y4069269D02*
X45190965Y5069269D01*
X45190965Y4783555D02*
X45119537Y4926412D01*
X45048108Y4997840D01*
X44905251Y5069269D01*
X44762394Y5069269D01*
X43619537Y5069269D02*
X43619537Y4069269D01*
X44262394Y5069269D02*
X44262394Y4283555D01*
X44190965Y4140698D01*
X44048108Y4069269D01*
X43833822Y4069269D01*
X43690965Y4140698D01*
X43619537Y4212126D01*
X42976680Y4140698D02*
X42833822Y4069269D01*
X42548108Y4069269D01*
X42405251Y4140698D01*
X42333822Y4283555D01*
X42333822Y4354983D01*
X42405251Y4497840D01*
X42548108Y4569269D01*
X42762394Y4569269D01*
X42905251Y4640698D01*
X42976680Y4783555D01*
X42976680Y4854983D01*
X42905251Y4997840D01*
X42762394Y5069269D01*
X42548108Y5069269D01*
X42405251Y4997840D01*
X41119537Y4140698D02*
X41262394Y4069269D01*
X41548108Y4069269D01*
X41690965Y4140698D01*
X41762394Y4283555D01*
X41762394Y4854983D01*
X41690965Y4997840D01*
X41548108Y5069269D01*
X41262394Y5069269D01*
X41119537Y4997840D01*
X41048108Y4854983D01*
X41048108Y4712126D01*
X41762394Y4569269D01*
X40619537Y5069269D02*
X40048108Y5069269D01*
X40405251Y4069269D02*
X40405251Y5354983D01*
X40333822Y5497840D01*
X40190965Y5569269D01*
X40048108Y5569269D01*
X39548108Y4069269D02*
X39548108Y5069269D01*
X39548108Y5569269D02*
X39619537Y5497840D01*
X39548108Y5426412D01*
X39476680Y5497840D01*
X39548108Y5569269D01*
X39548108Y5426412D01*
X38833822Y4212126D02*
X38762394Y4140698D01*
X38833822Y4069269D01*
X38905251Y4140698D01*
X38833822Y4212126D01*
X38833822Y4069269D01*
X37476680Y4140698D02*
X37619537Y4069269D01*
X37905251Y4069269D01*
X38048108Y4140698D01*
X38119537Y4212126D01*
X38190965Y4354983D01*
X38190965Y4783555D01*
X38119537Y4926412D01*
X38048108Y4997840D01*
X37905251Y5069269D01*
X37619537Y5069269D01*
X37476680Y4997840D01*
X36619537Y4069269D02*
X36762394Y4140698D01*
X36833822Y4212126D01*
X36905251Y4354983D01*
X36905251Y4783555D01*
X36833822Y4926412D01*
X36762394Y4997840D01*
X36619537Y5069269D01*
X36405251Y5069269D01*
X36262394Y4997840D01*
X36190965Y4926412D01*
X36119537Y4783555D01*
X36119537Y4354983D01*
X36190965Y4212126D01*
X36262394Y4140698D01*
X36405251Y4069269D01*
X36619537Y4069269D01*
X35476680Y4069269D02*
X35476680Y5069269D01*
X35476680Y4926412D02*
X35405251Y4997840D01*
X35262394Y5069269D01*
X35048108Y5069269D01*
X34905251Y4997840D01*
X34833822Y4854983D01*
X34833822Y4069269D01*
X34833822Y4854983D02*
X34762394Y4997840D01*
X34619537Y5069269D01*
X34405251Y5069269D01*
X34262394Y4997840D01*
X34190965Y4854983D01*
X34190965Y4069269D01*
X32405251Y5640698D02*
X33690965Y3712126D01*
X31976680Y4140698D02*
X31833822Y4069269D01*
X31548108Y4069269D01*
X31405251Y4140698D01*
X31333822Y4283555D01*
X31333822Y4354983D01*
X31405251Y4497840D01*
X31548108Y4569269D01*
X31762394Y4569269D01*
X31905251Y4640698D01*
X31976680Y4783555D01*
X31976680Y4854983D01*
X31905251Y4997840D01*
X31762394Y5069269D01*
X31548108Y5069269D01*
X31405251Y4997840D01*
X29619537Y5640698D02*
X30905251Y3712126D01*
X29119537Y4069269D02*
X29119537Y5069269D01*
X29119537Y4926412D02*
X29048108Y4997840D01*
X28905251Y5069269D01*
X28690965Y5069269D01*
X28548108Y4997840D01*
X28476680Y4854983D01*
X28476680Y4069269D01*
X28476680Y4854983D02*
X28405251Y4997840D01*
X28262394Y5069269D01*
X28048108Y5069269D01*
X27905251Y4997840D01*
X27833822Y4854983D01*
X27833822Y4069269D01*
X27119537Y4069269D02*
X27119537Y5069269D01*
X27119537Y5569269D02*
X27190965Y5497840D01*
X27119537Y5426412D01*
X27048108Y5497840D01*
X27119537Y5569269D01*
X27119537Y5426412D01*
X26476680Y4140698D02*
X26333822Y4069269D01*
X26048108Y4069269D01*
X25905251Y4140698D01*
X25833822Y4283555D01*
X25833822Y4354983D01*
X25905251Y4497840D01*
X26048108Y4569269D01*
X26262394Y4569269D01*
X26405251Y4640698D01*
X26476680Y4783555D01*
X26476680Y4854983D01*
X26405251Y4997840D01*
X26262394Y5069269D01*
X26048108Y5069269D01*
X25905251Y4997840D01*
X25262394Y4140698D02*
X25119537Y4069269D01*
X24833822Y4069269D01*
X24690965Y4140698D01*
X24619537Y4283555D01*
X24619537Y4354983D01*
X24690965Y4497840D01*
X24833822Y4569269D01*
X25048108Y4569269D01*
X25190965Y4640698D01*
X25262394Y4783555D01*
X25262394Y4854983D01*
X25190965Y4997840D01*
X25048108Y5069269D01*
X24833822Y5069269D01*
X24690965Y4997840D01*
X23976680Y4069269D02*
X23976680Y5069269D01*
X23976680Y5569269D02*
X24048108Y5497840D01*
X23976680Y5426412D01*
X23905251Y5497840D01*
X23976680Y5569269D01*
X23976680Y5426412D01*
X23048108Y4069269D02*
X23190965Y4140698D01*
X23262394Y4212126D01*
X23333822Y4354983D01*
X23333822Y4783555D01*
X23262394Y4926412D01*
X23190965Y4997840D01*
X23048108Y5069269D01*
X22833822Y5069269D01*
X22690965Y4997840D01*
X22619537Y4926412D01*
X22548108Y4783555D01*
X22548108Y4354983D01*
X22619537Y4212126D01*
X22690965Y4140698D01*
X22833822Y4069269D01*
X23048108Y4069269D01*
X21905251Y5069269D02*
X21905251Y4069269D01*
X21905251Y4926412D02*
X21833822Y4997840D01*
X21690965Y5069269D01*
X21476680Y5069269D01*
X21333822Y4997840D01*
X21262394Y4854983D01*
X21262394Y4069269D01*
D11*
X111959489Y133345721D02*
X111959489Y134361721D01*
X110943489Y134313340D02*
X111040251Y134361721D01*
X111185394Y134361721D01*
X111330537Y134313340D01*
X111427299Y134216579D01*
X111475680Y134119817D01*
X111524060Y133926293D01*
X111524060Y133781150D01*
X111475680Y133587626D01*
X111427299Y133490864D01*
X111330537Y133394102D01*
X111185394Y133345721D01*
X111088632Y133345721D01*
X110943489Y133394102D01*
X110895108Y133442483D01*
X110895108Y133781150D01*
X111088632Y133781150D01*
X110459680Y133345721D02*
X110459680Y134361721D01*
X109879108Y133345721D01*
X109879108Y134361721D01*
X108863108Y133345721D02*
X109443680Y133345721D01*
X109153394Y133345721D02*
X109153394Y134361721D01*
X109250156Y134216579D01*
X109346918Y134119817D01*
X109443680Y134071436D01*
X107992251Y134023055D02*
X107992251Y133345721D01*
X108234156Y134410102D02*
X108476060Y133684388D01*
X107847108Y133684388D01*
X139842060Y141677293D02*
X140858060Y141677293D01*
X139842060Y142161102D02*
X140858060Y142161102D01*
X139842060Y142741674D01*
X140858060Y142741674D01*
X140858060Y143515769D02*
X140132346Y143515769D01*
X139987203Y143467388D01*
X139890441Y143370626D01*
X139842060Y143225483D01*
X139842060Y143128721D01*
X140519394Y144435007D02*
X139842060Y144435007D01*
X140906441Y144193102D02*
X140180727Y143951198D01*
X140180727Y144580150D01*
D10*
X62048108Y115226769D02*
X62048108Y116726769D01*
X61476680Y116726769D01*
X61333822Y116655340D01*
X61262394Y116583912D01*
X61190965Y116441055D01*
X61190965Y116226769D01*
X61262394Y116083912D01*
X61333822Y116012483D01*
X61476680Y115941055D01*
X62048108Y115941055D01*
X60548108Y115226769D02*
X60548108Y116726769D01*
X59976680Y116726769D01*
X59833822Y116655340D01*
X59762394Y116583912D01*
X59690965Y116441055D01*
X59690965Y116226769D01*
X59762394Y116083912D01*
X59833822Y116012483D01*
X59976680Y115941055D01*
X60548108Y115941055D01*
X59119537Y115298198D02*
X58905251Y115226769D01*
X58548108Y115226769D01*
X58405251Y115298198D01*
X58333822Y115369626D01*
X58262394Y115512483D01*
X58262394Y115655340D01*
X58333822Y115798198D01*
X58405251Y115869626D01*
X58548108Y115941055D01*
X58833822Y116012483D01*
X58976680Y116083912D01*
X59048108Y116155340D01*
X59119537Y116298198D01*
X59119537Y116441055D01*
X59048108Y116583912D01*
X58976680Y116655340D01*
X58833822Y116726769D01*
X58476680Y116726769D01*
X58262394Y116655340D01*
X56833822Y115226769D02*
X57690965Y115226769D01*
X57262394Y115226769D02*
X57262394Y116726769D01*
X57405251Y116512483D01*
X57548108Y116369626D01*
X57690965Y116298198D01*
D11*
X55924476Y135762715D02*
X55924476Y135085381D01*
X56166380Y136149762D02*
X56408285Y135424048D01*
X55779333Y135424048D01*
X54811714Y135182143D02*
X54860095Y135133762D01*
X55005238Y135085381D01*
X55102000Y135085381D01*
X55247142Y135133762D01*
X55343904Y135230524D01*
X55392285Y135327286D01*
X55440666Y135520810D01*
X55440666Y135665953D01*
X55392285Y135859477D01*
X55343904Y135956239D01*
X55247142Y136053000D01*
X55102000Y136101381D01*
X55005238Y136101381D01*
X54860095Y136053000D01*
X54811714Y136004620D01*
X92195857Y136129620D02*
X92147476Y136178000D01*
X92050714Y136226381D01*
X91808809Y136226381D01*
X91712047Y136178000D01*
X91663666Y136129620D01*
X91615285Y136032858D01*
X91615285Y135936096D01*
X91663666Y135790953D01*
X92244238Y135210381D01*
X91615285Y135210381D01*
X91179857Y135210381D02*
X91179857Y136226381D01*
X90841190Y135500667D01*
X90502523Y136226381D01*
X90502523Y135210381D01*
X28896761Y143465381D02*
X29477333Y143465381D01*
X29187047Y143465381D02*
X29187047Y144481381D01*
X29283809Y144336239D01*
X29380571Y144239477D01*
X29477333Y144191096D01*
X28171047Y144481381D02*
X28171047Y143755667D01*
X28219428Y143610524D01*
X28316190Y143513762D01*
X28461333Y143465381D01*
X28558095Y143465381D01*
X131483060Y145508769D02*
X131483060Y145702293D01*
X131434680Y145799055D01*
X131337918Y145895817D01*
X131144394Y145944198D01*
X130805727Y145944198D01*
X130612203Y145895817D01*
X130515441Y145799055D01*
X130467060Y145702293D01*
X130467060Y145508769D01*
X130515441Y145412007D01*
X130612203Y145315245D01*
X130805727Y145266864D01*
X131144394Y145266864D01*
X131337918Y145315245D01*
X131434680Y145412007D01*
X131483060Y145508769D01*
X131386299Y146331245D02*
X131434680Y146379626D01*
X131483060Y146476388D01*
X131483060Y146718293D01*
X131434680Y146815055D01*
X131386299Y146863436D01*
X131289537Y146911817D01*
X131192775Y146911817D01*
X131047632Y146863436D01*
X130467060Y146282864D01*
X130467060Y146911817D01*
X130467060Y147347245D02*
X131483060Y147347245D01*
X130999251Y147347245D02*
X130999251Y147927817D01*
X130467060Y147927817D02*
X131483060Y147927817D01*
X131386299Y148363245D02*
X131434680Y148411626D01*
X131483060Y148508388D01*
X131483060Y148750293D01*
X131434680Y148847055D01*
X131386299Y148895436D01*
X131289537Y148943817D01*
X131192775Y148943817D01*
X131047632Y148895436D01*
X130467060Y148314864D01*
X130467060Y148943817D01*
D10*
X62298108Y117876769D02*
X62298108Y119376769D01*
X61726680Y119376769D01*
X61583822Y119305340D01*
X61512394Y119233912D01*
X61440965Y119091055D01*
X61440965Y118876769D01*
X61512394Y118733912D01*
X61583822Y118662483D01*
X61726680Y118591055D01*
X62298108Y118591055D01*
X60798108Y117876769D02*
X60798108Y119376769D01*
X60226680Y119376769D01*
X60083822Y119305340D01*
X60012394Y119233912D01*
X59940965Y119091055D01*
X59940965Y118876769D01*
X60012394Y118733912D01*
X60083822Y118662483D01*
X60226680Y118591055D01*
X60798108Y118591055D01*
X59369537Y117948198D02*
X59155251Y117876769D01*
X58798108Y117876769D01*
X58655251Y117948198D01*
X58583822Y118019626D01*
X58512394Y118162483D01*
X58512394Y118305340D01*
X58583822Y118448198D01*
X58655251Y118519626D01*
X58798108Y118591055D01*
X59083822Y118662483D01*
X59226680Y118733912D01*
X59298108Y118805340D01*
X59369537Y118948198D01*
X59369537Y119091055D01*
X59298108Y119233912D01*
X59226680Y119305340D01*
X59083822Y119376769D01*
X58726680Y119376769D01*
X58512394Y119305340D01*
X57940965Y119233912D02*
X57869537Y119305340D01*
X57726680Y119376769D01*
X57369537Y119376769D01*
X57226680Y119305340D01*
X57155251Y119233912D01*
X57083822Y119091055D01*
X57083822Y118948198D01*
X57155251Y118733912D01*
X58012394Y117876769D01*
X57083822Y117876769D01*
D11*
X55924476Y144017715D02*
X55924476Y143340381D01*
X56166380Y144404762D02*
X56408285Y143679048D01*
X55779333Y143679048D01*
X55392285Y143340381D02*
X55392285Y144356381D01*
X55150380Y144356381D01*
X55005238Y144308000D01*
X54908476Y144211239D01*
X54860095Y144114477D01*
X54811714Y143920953D01*
X54811714Y143775810D01*
X54860095Y143582286D01*
X54908476Y143485524D01*
X55005238Y143388762D01*
X55150380Y143340381D01*
X55392285Y143340381D01*
X59051095Y135762715D02*
X59051095Y135085381D01*
X59293000Y136149762D02*
X59534904Y135424048D01*
X58905952Y135424048D01*
X58518904Y135617572D02*
X58180238Y135617572D01*
X58035095Y135085381D02*
X58518904Y135085381D01*
X58518904Y136101381D01*
X58035095Y136101381D01*
X110770857Y144431381D02*
X110141904Y144431381D01*
X110480571Y144044334D01*
X110335428Y144044334D01*
X110238666Y143995953D01*
X110190285Y143947572D01*
X110141904Y143850810D01*
X110141904Y143608905D01*
X110190285Y143512143D01*
X110238666Y143463762D01*
X110335428Y143415381D01*
X110625714Y143415381D01*
X110722476Y143463762D01*
X110770857Y143512143D01*
X109706476Y143415381D02*
X109706476Y144431381D01*
X109706476Y143947572D02*
X109125904Y143947572D01*
X109125904Y143415381D02*
X109125904Y144431381D01*
X46821904Y135210381D02*
X47402476Y135210381D01*
X47112190Y135210381D02*
X47112190Y136226381D01*
X47208952Y136081239D01*
X47305714Y135984477D01*
X47402476Y135936096D01*
X46386476Y136226381D02*
X46386476Y135403905D01*
X46338095Y135307143D01*
X46289714Y135258762D01*
X46192952Y135210381D01*
X45999428Y135210381D01*
X45902666Y135258762D01*
X45854285Y135307143D01*
X45805904Y135403905D01*
X45805904Y136226381D01*
X62298666Y144017715D02*
X62298666Y143340381D01*
X62540571Y144404762D02*
X62782476Y143679048D01*
X62153523Y143679048D01*
X61766476Y143340381D02*
X61766476Y144356381D01*
X61766476Y143872572D02*
X61185904Y143872572D01*
X61185904Y143340381D02*
X61185904Y144356381D01*
X79985714Y144384620D02*
X79937333Y144433000D01*
X79840571Y144481381D01*
X79598666Y144481381D01*
X79501904Y144433000D01*
X79453523Y144384620D01*
X79405142Y144287858D01*
X79405142Y144191096D01*
X79453523Y144045953D01*
X80034095Y143465381D01*
X79405142Y143465381D01*
X78631047Y143997572D02*
X78969714Y143997572D01*
X78969714Y143465381D02*
X78969714Y144481381D01*
X78485904Y144481381D01*
X125208060Y131382960D02*
X124192060Y131721626D01*
X125208060Y132060293D01*
X124192060Y132398960D02*
X125208060Y132398960D01*
X124288822Y133463340D02*
X124240441Y133414960D01*
X124192060Y133269817D01*
X124192060Y133173055D01*
X124240441Y133027912D01*
X124337203Y132931150D01*
X124433965Y132882769D01*
X124627489Y132834388D01*
X124772632Y132834388D01*
X124966156Y132882769D01*
X125062918Y132931150D01*
X125159680Y133027912D01*
X125208060Y133173055D01*
X125208060Y133269817D01*
X125159680Y133414960D01*
X125111299Y133463340D01*
X124240441Y133850388D02*
X124192060Y133995531D01*
X124192060Y134237436D01*
X124240441Y134334198D01*
X124288822Y134382579D01*
X124385584Y134430960D01*
X124482346Y134430960D01*
X124579108Y134382579D01*
X124627489Y134334198D01*
X124675870Y134237436D01*
X124724251Y134043912D01*
X124772632Y133947150D01*
X124821013Y133898769D01*
X124917775Y133850388D01*
X125014537Y133850388D01*
X125111299Y133898769D01*
X125159680Y133947150D01*
X125208060Y134043912D01*
X125208060Y134285817D01*
X125159680Y134430960D01*
X104656666Y136176381D02*
X104027714Y136176381D01*
X104366380Y135789334D01*
X104221238Y135789334D01*
X104124476Y135740953D01*
X104076095Y135692572D01*
X104027714Y135595810D01*
X104027714Y135353905D01*
X104076095Y135257143D01*
X104124476Y135208762D01*
X104221238Y135160381D01*
X104511523Y135160381D01*
X104608285Y135208762D01*
X104656666Y135257143D01*
X103011714Y135257143D02*
X103060095Y135208762D01*
X103205238Y135160381D01*
X103302000Y135160381D01*
X103447142Y135208762D01*
X103543904Y135305524D01*
X103592285Y135402286D01*
X103640666Y135595810D01*
X103640666Y135740953D01*
X103592285Y135934477D01*
X103543904Y136031239D01*
X103447142Y136128000D01*
X103302000Y136176381D01*
X103205238Y136176381D01*
X103060095Y136128000D01*
X103011714Y136079620D01*
X77312013Y133861007D02*
X76828203Y133861007D01*
X77408775Y133570721D02*
X77070108Y134586721D01*
X76731441Y133570721D01*
X76054108Y134102912D02*
X76392775Y134102912D01*
X76392775Y133570721D02*
X76392775Y134586721D01*
X75908965Y134586721D01*
X74941346Y133570721D02*
X75280013Y134054531D01*
X75521918Y133570721D02*
X75521918Y134586721D01*
X75134870Y134586721D01*
X75038108Y134538340D01*
X74989727Y134489960D01*
X74941346Y134393198D01*
X74941346Y134248055D01*
X74989727Y134151293D01*
X75038108Y134102912D01*
X75134870Y134054531D01*
X75521918Y134054531D01*
X88851523Y144384620D02*
X88803142Y144433000D01*
X88706380Y144481381D01*
X88464476Y144481381D01*
X88367714Y144433000D01*
X88319333Y144384620D01*
X88270952Y144287858D01*
X88270952Y144191096D01*
X88319333Y144045953D01*
X88899904Y143465381D01*
X88270952Y143465381D01*
X87351714Y143465381D02*
X87835523Y143465381D01*
X87835523Y144481381D01*
X83199965Y136139960D02*
X83151584Y136188340D01*
X83054822Y136236721D01*
X82812918Y136236721D01*
X82716156Y136188340D01*
X82667775Y136139960D01*
X82619394Y136043198D01*
X82619394Y135946436D01*
X82667775Y135801293D01*
X83248346Y135220721D01*
X82619394Y135220721D01*
X81651775Y136188340D02*
X81748537Y136236721D01*
X81893680Y136236721D01*
X82038822Y136188340D01*
X82135584Y136091579D01*
X82183965Y135994817D01*
X82232346Y135801293D01*
X82232346Y135656150D01*
X82183965Y135462626D01*
X82135584Y135365864D01*
X82038822Y135269102D01*
X81893680Y135220721D01*
X81796918Y135220721D01*
X81651775Y135269102D01*
X81603394Y135317483D01*
X81603394Y135656150D01*
X81796918Y135656150D01*
X52240380Y145283381D02*
X53256380Y145283381D01*
X53256380Y145525286D01*
X53208000Y145670429D01*
X53111238Y145767191D01*
X53014476Y145815572D01*
X52820952Y145863953D01*
X52675809Y145863953D01*
X52482285Y145815572D01*
X52385523Y145767191D01*
X52288761Y145670429D01*
X52240380Y145525286D01*
X52240380Y145283381D01*
X52240380Y146299381D02*
X53256380Y146299381D01*
X53208000Y147315381D02*
X53256380Y147218620D01*
X53256380Y147073477D01*
X53208000Y146928334D01*
X53111238Y146831572D01*
X53014476Y146783191D01*
X52820952Y146734810D01*
X52675809Y146734810D01*
X52482285Y146783191D01*
X52385523Y146831572D01*
X52288761Y146928334D01*
X52240380Y147073477D01*
X52240380Y147170239D01*
X52288761Y147315381D01*
X52337142Y147363762D01*
X52675809Y147363762D01*
X52675809Y147170239D01*
X52240380Y147799191D02*
X53256380Y147799191D01*
X53256380Y148137858D02*
X53256380Y148718429D01*
X52240380Y148428143D02*
X53256380Y148428143D01*
X52530666Y149008715D02*
X52530666Y149492524D01*
X52240380Y148911953D02*
X53256380Y149250620D01*
X52240380Y149589286D01*
X52240380Y150411762D02*
X52240380Y149927953D01*
X53256380Y149927953D01*
X133967060Y145252293D02*
X134983060Y145252293D01*
X133967060Y145736102D02*
X134983060Y145736102D01*
X133967060Y146316674D01*
X134983060Y146316674D01*
X134983060Y147090769D02*
X134257346Y147090769D01*
X134112203Y147042388D01*
X134015441Y146945626D01*
X133967060Y146800483D01*
X133967060Y146703721D01*
X134886299Y147526198D02*
X134934680Y147574579D01*
X134983060Y147671340D01*
X134983060Y147913245D01*
X134934680Y148010007D01*
X134886299Y148058388D01*
X134789537Y148106769D01*
X134692775Y148106769D01*
X134547632Y148058388D01*
X133967060Y147477817D01*
X133967060Y148106769D01*
D10*
X60069537Y121955340D02*
X60212394Y122026769D01*
X60426680Y122026769D01*
X60640965Y121955340D01*
X60783822Y121812483D01*
X60855251Y121669626D01*
X60926680Y121383912D01*
X60926680Y121169626D01*
X60855251Y120883912D01*
X60783822Y120741055D01*
X60640965Y120598198D01*
X60426680Y120526769D01*
X60283822Y120526769D01*
X60069537Y120598198D01*
X59998108Y120669626D01*
X59998108Y121169626D01*
X60283822Y121169626D01*
X59355251Y120526769D02*
X59355251Y122026769D01*
X58498108Y120526769D01*
X58498108Y122026769D01*
X57783822Y120526769D02*
X57783822Y122026769D01*
X57426680Y122026769D01*
X57212394Y121955340D01*
X57069537Y121812483D01*
X56998108Y121669626D01*
X56926680Y121383912D01*
X56926680Y121169626D01*
X56998108Y120883912D01*
X57069537Y120741055D01*
X57212394Y120598198D01*
X57426680Y120526769D01*
X57783822Y120526769D01*
D11*
X34756904Y143465381D02*
X35337476Y143465381D01*
X35047190Y143465381D02*
X35047190Y144481381D01*
X35143952Y144336239D01*
X35240714Y144239477D01*
X35337476Y144191096D01*
X34321476Y143465381D02*
X34321476Y144481381D01*
X33740904Y143465381D01*
X33740904Y144481381D01*
X103367060Y145148245D02*
X104383060Y145148245D01*
X103657346Y145486912D01*
X104383060Y145825579D01*
X103367060Y145825579D01*
X103657346Y146261007D02*
X103657346Y146744817D01*
X103367060Y146164245D02*
X104383060Y146502912D01*
X103367060Y146841579D01*
X103367060Y147180245D02*
X104383060Y147180245D01*
X104383060Y147567293D01*
X104334680Y147664055D01*
X104286299Y147712436D01*
X104189537Y147760817D01*
X104044394Y147760817D01*
X103947632Y147712436D01*
X103899251Y147664055D01*
X103850870Y147567293D01*
X103850870Y147180245D01*
X52749476Y144017715D02*
X52749476Y143340381D01*
X52991380Y144404762D02*
X53233285Y143679048D01*
X52604333Y143679048D01*
X51878619Y143872572D02*
X51733476Y143824191D01*
X51685095Y143775810D01*
X51636714Y143679048D01*
X51636714Y143533905D01*
X51685095Y143437143D01*
X51733476Y143388762D01*
X51830238Y143340381D01*
X52217285Y143340381D01*
X52217285Y144356381D01*
X51878619Y144356381D01*
X51781857Y144308000D01*
X51733476Y144259620D01*
X51685095Y144162858D01*
X51685095Y144066096D01*
X51733476Y143969334D01*
X51781857Y143920953D01*
X51878619Y143872572D01*
X52217285Y143872572D01*
X127874251Y145467674D02*
X127825870Y145612817D01*
X127777489Y145661198D01*
X127680727Y145709579D01*
X127535584Y145709579D01*
X127438822Y145661198D01*
X127390441Y145612817D01*
X127342060Y145516055D01*
X127342060Y145129007D01*
X128358060Y145129007D01*
X128358060Y145467674D01*
X128309680Y145564436D01*
X128261299Y145612817D01*
X128164537Y145661198D01*
X128067775Y145661198D01*
X127971013Y145612817D01*
X127922632Y145564436D01*
X127874251Y145467674D01*
X127874251Y145129007D01*
X128358060Y146338531D02*
X128358060Y146532055D01*
X128309680Y146628817D01*
X128212918Y146725579D01*
X128019394Y146773960D01*
X127680727Y146773960D01*
X127487203Y146725579D01*
X127390441Y146628817D01*
X127342060Y146532055D01*
X127342060Y146338531D01*
X127390441Y146241769D01*
X127487203Y146145007D01*
X127680727Y146096626D01*
X128019394Y146096626D01*
X128212918Y146145007D01*
X128309680Y146241769D01*
X128358060Y146338531D01*
X128358060Y147402912D02*
X128358060Y147596436D01*
X128309680Y147693198D01*
X128212918Y147789960D01*
X128019394Y147838340D01*
X127680727Y147838340D01*
X127487203Y147789960D01*
X127390441Y147693198D01*
X127342060Y147596436D01*
X127342060Y147402912D01*
X127390441Y147306150D01*
X127487203Y147209388D01*
X127680727Y147161007D01*
X128019394Y147161007D01*
X128212918Y147209388D01*
X128309680Y147306150D01*
X128358060Y147402912D01*
X127390441Y148225388D02*
X127342060Y148370531D01*
X127342060Y148612436D01*
X127390441Y148709198D01*
X127438822Y148757579D01*
X127535584Y148805960D01*
X127632346Y148805960D01*
X127729108Y148757579D01*
X127777489Y148709198D01*
X127825870Y148612436D01*
X127874251Y148418912D01*
X127922632Y148322150D01*
X127971013Y148273769D01*
X128067775Y148225388D01*
X128164537Y148225388D01*
X128261299Y148273769D01*
X128309680Y148322150D01*
X128358060Y148418912D01*
X128358060Y148660817D01*
X128309680Y148805960D01*
X128358060Y149096245D02*
X128358060Y149676817D01*
X127342060Y149386531D02*
X128358060Y149386531D01*
X68820918Y133720721D02*
X68820918Y134736721D01*
X68820918Y134252912D02*
X68240346Y134252912D01*
X68240346Y133720721D02*
X68240346Y134736721D01*
X67756537Y134107769D02*
X66982441Y134107769D01*
X13856251Y141570721D02*
X14436822Y141570721D01*
X14146537Y141570721D02*
X14146537Y142586721D01*
X14243299Y142441579D01*
X14340060Y142344817D01*
X14436822Y142296436D01*
X13469203Y142489960D02*
X13420822Y142538340D01*
X13324060Y142586721D01*
X13082156Y142586721D01*
X12985394Y142538340D01*
X12937013Y142489960D01*
X12888632Y142393198D01*
X12888632Y142296436D01*
X12937013Y142151293D01*
X13517584Y141570721D01*
X12888632Y141570721D01*
X12695108Y141473960D02*
X11921013Y141473960D01*
X11098537Y141570721D02*
X11437203Y142054531D01*
X11679108Y141570721D02*
X11679108Y142586721D01*
X11292060Y142586721D01*
X11195299Y142538340D01*
X11146918Y142489960D01*
X11098537Y142393198D01*
X11098537Y142248055D01*
X11146918Y142151293D01*
X11195299Y142102912D01*
X11292060Y142054531D01*
X11679108Y142054531D01*
X10711489Y141861007D02*
X10227680Y141861007D01*
X10808251Y141570721D02*
X10469584Y142586721D01*
X10130918Y141570721D01*
X9889013Y142586721D02*
X9647108Y141570721D01*
X9453584Y142296436D01*
X9260060Y141570721D01*
X9018156Y142586721D01*
X41082714Y143465381D02*
X41663285Y143465381D01*
X41373000Y143465381D02*
X41373000Y144481381D01*
X41469761Y144336239D01*
X41566523Y144239477D01*
X41663285Y144191096D01*
X40066714Y143465381D02*
X40405380Y143949191D01*
X40647285Y143465381D02*
X40647285Y144481381D01*
X40260238Y144481381D01*
X40163476Y144433000D01*
X40115095Y144384620D01*
X40066714Y144287858D01*
X40066714Y144142715D01*
X40115095Y144045953D01*
X40163476Y143997572D01*
X40260238Y143949191D01*
X40647285Y143949191D01*
X44233523Y135210381D02*
X44814095Y135210381D01*
X44523809Y135210381D02*
X44523809Y136226381D01*
X44620571Y136081239D01*
X44717333Y135984477D01*
X44814095Y135936096D01*
X43846476Y135258762D02*
X43701333Y135210381D01*
X43459428Y135210381D01*
X43362666Y135258762D01*
X43314285Y135307143D01*
X43265904Y135403905D01*
X43265904Y135500667D01*
X43314285Y135597429D01*
X43362666Y135645810D01*
X43459428Y135694191D01*
X43652952Y135742572D01*
X43749714Y135790953D01*
X43798095Y135839334D01*
X43846476Y135936096D01*
X43846476Y136032858D01*
X43798095Y136129620D01*
X43749714Y136178000D01*
X43652952Y136226381D01*
X43411047Y136226381D01*
X43265904Y136178000D01*
X41106904Y135210381D02*
X41687476Y135210381D01*
X41397190Y135210381D02*
X41397190Y136226381D01*
X41493952Y136081239D01*
X41590714Y135984477D01*
X41687476Y135936096D01*
X39994142Y135113620D02*
X40090904Y135162000D01*
X40187666Y135258762D01*
X40332809Y135403905D01*
X40429571Y135452286D01*
X40526333Y135452286D01*
X40477952Y135210381D02*
X40574714Y135258762D01*
X40671476Y135355524D01*
X40719857Y135549048D01*
X40719857Y135887715D01*
X40671476Y136081239D01*
X40574714Y136178000D01*
X40477952Y136226381D01*
X40284428Y136226381D01*
X40187666Y136178000D01*
X40090904Y136081239D01*
X40042523Y135887715D01*
X40042523Y135549048D01*
X40090904Y135355524D01*
X40187666Y135258762D01*
X40284428Y135210381D01*
X40477952Y135210381D01*
X68444238Y145740381D02*
X68444238Y146756381D01*
X68444238Y146272572D02*
X67863666Y146272572D01*
X67863666Y145740381D02*
X67863666Y146756381D01*
X67379857Y146127429D02*
X66605761Y146127429D01*
X66992809Y145740381D02*
X66992809Y146514477D01*
X73708285Y144384620D02*
X73659904Y144433000D01*
X73563142Y144481381D01*
X73321238Y144481381D01*
X73224476Y144433000D01*
X73176095Y144384620D01*
X73127714Y144287858D01*
X73127714Y144191096D01*
X73176095Y144045953D01*
X73756666Y143465381D01*
X73127714Y143465381D01*
X72353619Y143997572D02*
X72208476Y143949191D01*
X72160095Y143900810D01*
X72111714Y143804048D01*
X72111714Y143658905D01*
X72160095Y143562143D01*
X72208476Y143513762D01*
X72305238Y143465381D01*
X72692285Y143465381D01*
X72692285Y144481381D01*
X72353619Y144481381D01*
X72256857Y144433000D01*
X72208476Y144384620D01*
X72160095Y144287858D01*
X72160095Y144191096D01*
X72208476Y144094334D01*
X72256857Y144045953D01*
X72353619Y143997572D01*
X72692285Y143997572D01*
D10*
X59969537Y124280340D02*
X60112394Y124351769D01*
X60326680Y124351769D01*
X60540965Y124280340D01*
X60683822Y124137483D01*
X60755251Y123994626D01*
X60826680Y123708912D01*
X60826680Y123494626D01*
X60755251Y123208912D01*
X60683822Y123066055D01*
X60540965Y122923198D01*
X60326680Y122851769D01*
X60183822Y122851769D01*
X59969537Y122923198D01*
X59898108Y122994626D01*
X59898108Y123494626D01*
X60183822Y123494626D01*
X59255251Y122851769D02*
X59255251Y124351769D01*
X58398108Y122851769D01*
X58398108Y124351769D01*
X57683822Y122851769D02*
X57683822Y124351769D01*
X57326680Y124351769D01*
X57112394Y124280340D01*
X56969537Y124137483D01*
X56898108Y123994626D01*
X56826680Y123708912D01*
X56826680Y123494626D01*
X56898108Y123208912D01*
X56969537Y123066055D01*
X57112394Y122923198D01*
X57326680Y122851769D01*
X57683822Y122851769D01*
D11*
X81713822Y145978817D02*
X81665441Y145930436D01*
X81617060Y145785293D01*
X81617060Y145688531D01*
X81665441Y145543388D01*
X81762203Y145446626D01*
X81858965Y145398245D01*
X82052489Y145349864D01*
X82197632Y145349864D01*
X82391156Y145398245D01*
X82487918Y145446626D01*
X82584680Y145543388D01*
X82633060Y145688531D01*
X82633060Y145785293D01*
X82584680Y145930436D01*
X82536299Y145978817D01*
X81907346Y146365864D02*
X81907346Y146849674D01*
X81617060Y146269102D02*
X82633060Y146607769D01*
X81617060Y146946436D01*
X81617060Y147285102D02*
X82633060Y147285102D01*
X81907346Y147623769D01*
X82633060Y147962436D01*
X81617060Y147962436D01*
X131770857Y136131381D02*
X131141904Y136131381D01*
X131480571Y135744334D01*
X131335428Y135744334D01*
X131238666Y135695953D01*
X131190285Y135647572D01*
X131141904Y135550810D01*
X131141904Y135308905D01*
X131190285Y135212143D01*
X131238666Y135163762D01*
X131335428Y135115381D01*
X131625714Y135115381D01*
X131722476Y135163762D01*
X131770857Y135212143D01*
X130706476Y136131381D02*
X130706476Y135308905D01*
X130658095Y135212143D01*
X130609714Y135163762D01*
X130512952Y135115381D01*
X130319428Y135115381D01*
X130222666Y135163762D01*
X130174285Y135212143D01*
X130125904Y135308905D01*
X130125904Y136131381D01*
X65328523Y144017715D02*
X65328523Y143340381D01*
X65570428Y144404762D02*
X65812333Y143679048D01*
X65183380Y143679048D01*
X64506047Y144356381D02*
X64506047Y143630667D01*
X64554428Y143485524D01*
X64651190Y143388762D01*
X64796333Y143340381D01*
X64893095Y143340381D01*
X22945142Y143465381D02*
X23525714Y143465381D01*
X23235428Y143465381D02*
X23235428Y144481381D01*
X23332190Y144336239D01*
X23428952Y144239477D01*
X23525714Y144191096D01*
X22171047Y143997572D02*
X22509714Y143997572D01*
X22509714Y143465381D02*
X22509714Y144481381D01*
X22025904Y144481381D01*
D10*
X61055251Y105723198D02*
X59912394Y105723198D01*
X60483822Y105151769D02*
X60483822Y106294626D01*
X58483822Y106651769D02*
X59198108Y106651769D01*
X59269537Y105937483D01*
X59198108Y106008912D01*
X59055251Y106080340D01*
X58698108Y106080340D01*
X58555251Y106008912D01*
X58483822Y105937483D01*
X58412394Y105794626D01*
X58412394Y105437483D01*
X58483822Y105294626D01*
X58555251Y105223198D01*
X58698108Y105151769D01*
X59055251Y105151769D01*
X59198108Y105223198D01*
X59269537Y105294626D01*
X57983822Y106651769D02*
X57483822Y105151769D01*
X56983822Y106651769D01*
D11*
X133917060Y132127293D02*
X134933060Y132127293D01*
X133917060Y132611102D02*
X134933060Y132611102D01*
X133917060Y133191674D01*
X134933060Y133191674D01*
X134933060Y133965769D02*
X134207346Y133965769D01*
X134062203Y133917388D01*
X133965441Y133820626D01*
X133917060Y133675483D01*
X133917060Y133578721D01*
X133917060Y134981769D02*
X133917060Y134401198D01*
X133917060Y134691483D02*
X134933060Y134691483D01*
X134787918Y134594721D01*
X134691156Y134497960D01*
X134642775Y134401198D01*
X46725142Y143465381D02*
X47305714Y143465381D01*
X47015428Y143465381D02*
X47015428Y144481381D01*
X47112190Y144336239D01*
X47208952Y144239477D01*
X47305714Y144191096D01*
X46434857Y144481381D02*
X46096190Y143465381D01*
X45757523Y144481381D01*
X59612822Y134586721D02*
X59274156Y133570721D01*
X58935489Y134586721D01*
X58741965Y134586721D02*
X58403299Y133570721D01*
X58064632Y134586721D01*
X57871108Y134586721D02*
X57290537Y134586721D01*
X57580822Y133570721D02*
X57580822Y134586721D01*
X95322476Y136129620D02*
X95274095Y136178000D01*
X95177333Y136226381D01*
X94935428Y136226381D01*
X94838666Y136178000D01*
X94790285Y136129620D01*
X94741904Y136032858D01*
X94741904Y135936096D01*
X94790285Y135790953D01*
X95370857Y135210381D01*
X94741904Y135210381D01*
X94112952Y136226381D02*
X93919428Y136226381D01*
X93822666Y136178000D01*
X93725904Y136081239D01*
X93677523Y135887715D01*
X93677523Y135549048D01*
X93725904Y135355524D01*
X93822666Y135258762D01*
X93919428Y135210381D01*
X94112952Y135210381D01*
X94209714Y135258762D01*
X94306476Y135355524D01*
X94354857Y135549048D01*
X94354857Y135887715D01*
X94306476Y136081239D01*
X94209714Y136178000D01*
X94112952Y136226381D01*
X92147476Y144384620D02*
X92099095Y144433000D01*
X92002333Y144481381D01*
X91760428Y144481381D01*
X91663666Y144433000D01*
X91615285Y144384620D01*
X91566904Y144287858D01*
X91566904Y144191096D01*
X91615285Y144045953D01*
X92195857Y143465381D01*
X91566904Y143465381D01*
X91131476Y143465381D02*
X91131476Y144481381D01*
X90550904Y143465381D01*
X90550904Y144481381D01*
X65383000Y145740381D02*
X65383000Y146756381D01*
X64899190Y145740381D02*
X64899190Y146756381D01*
X64512142Y146756381D01*
X64415380Y146708000D01*
X64367000Y146659620D01*
X64318619Y146562858D01*
X64318619Y146417715D01*
X64367000Y146320953D01*
X64415380Y146272572D01*
X64512142Y146224191D01*
X64899190Y146224191D01*
X116624904Y144431381D02*
X115995952Y144431381D01*
X116334619Y144044334D01*
X116189476Y144044334D01*
X116092714Y143995953D01*
X116044333Y143947572D01*
X115995952Y143850810D01*
X115995952Y143608905D01*
X116044333Y143512143D01*
X116092714Y143463762D01*
X116189476Y143415381D01*
X116479761Y143415381D01*
X116576523Y143463762D01*
X116624904Y143512143D01*
X115076714Y143415381D02*
X115560523Y143415381D01*
X115560523Y144431381D01*
X76633060Y145474055D02*
X75617060Y145812721D01*
X76633060Y146151388D01*
X75665441Y146441674D02*
X75617060Y146586817D01*
X75617060Y146828721D01*
X75665441Y146925483D01*
X75713822Y146973864D01*
X75810584Y147022245D01*
X75907346Y147022245D01*
X76004108Y146973864D01*
X76052489Y146925483D01*
X76100870Y146828721D01*
X76149251Y146635198D01*
X76197632Y146538436D01*
X76246013Y146490055D01*
X76342775Y146441674D01*
X76439537Y146441674D01*
X76536299Y146490055D01*
X76584680Y146538436D01*
X76633060Y146635198D01*
X76633060Y146877102D01*
X76584680Y147022245D01*
X75665441Y147409293D02*
X75617060Y147554436D01*
X75617060Y147796340D01*
X75665441Y147893102D01*
X75713822Y147941483D01*
X75810584Y147989864D01*
X75907346Y147989864D01*
X76004108Y147941483D01*
X76052489Y147893102D01*
X76100870Y147796340D01*
X76149251Y147602817D01*
X76197632Y147506055D01*
X76246013Y147457674D01*
X76342775Y147409293D01*
X76439537Y147409293D01*
X76536299Y147457674D01*
X76584680Y147506055D01*
X76633060Y147602817D01*
X76633060Y147844721D01*
X76584680Y147989864D01*
X86287333Y144384620D02*
X86238952Y144433000D01*
X86142190Y144481381D01*
X85900285Y144481381D01*
X85803523Y144433000D01*
X85755142Y144384620D01*
X85706761Y144287858D01*
X85706761Y144191096D01*
X85755142Y144045953D01*
X86335714Y143465381D01*
X85706761Y143465381D01*
X84981047Y144481381D02*
X84981047Y143755667D01*
X85029428Y143610524D01*
X85126190Y143513762D01*
X85271333Y143465381D01*
X85368095Y143465381D01*
X88948285Y136129620D02*
X88899904Y136178000D01*
X88803142Y136226381D01*
X88561238Y136226381D01*
X88464476Y136178000D01*
X88416095Y136129620D01*
X88367714Y136032858D01*
X88367714Y135936096D01*
X88416095Y135790953D01*
X88996666Y135210381D01*
X88367714Y135210381D01*
X87932285Y135210381D02*
X87932285Y136226381D01*
X87351714Y135210381D02*
X87787142Y135790953D01*
X87351714Y136226381D02*
X87932285Y135645810D01*
X138874095Y136176381D02*
X138245142Y136176381D01*
X138583809Y135789334D01*
X138438666Y135789334D01*
X138341904Y135740953D01*
X138293523Y135692572D01*
X138245142Y135595810D01*
X138245142Y135353905D01*
X138293523Y135257143D01*
X138341904Y135208762D01*
X138438666Y135160381D01*
X138728952Y135160381D01*
X138825714Y135208762D01*
X138874095Y135257143D01*
X137616190Y135644191D02*
X137616190Y135160381D01*
X137954857Y136176381D02*
X137616190Y135644191D01*
X137277523Y136176381D01*
X19319394Y135295721D02*
X19899965Y135295721D01*
X19609680Y135295721D02*
X19609680Y136311721D01*
X19706441Y136166579D01*
X19803203Y136069817D01*
X19899965Y136021436D01*
X18303394Y135392483D02*
X18351775Y135344102D01*
X18496918Y135295721D01*
X18593680Y135295721D01*
X18738822Y135344102D01*
X18835584Y135440864D01*
X18883965Y135537626D01*
X18932346Y135731150D01*
X18932346Y135876293D01*
X18883965Y136069817D01*
X18835584Y136166579D01*
X18738822Y136263340D01*
X18593680Y136311721D01*
X18496918Y136311721D01*
X18351775Y136263340D01*
X18303394Y136214960D01*
X76883285Y136129620D02*
X76834904Y136178000D01*
X76738142Y136226381D01*
X76496238Y136226381D01*
X76399476Y136178000D01*
X76351095Y136129620D01*
X76302714Y136032858D01*
X76302714Y135936096D01*
X76351095Y135790953D01*
X76931666Y135210381D01*
X76302714Y135210381D01*
X75286714Y135307143D02*
X75335095Y135258762D01*
X75480238Y135210381D01*
X75577000Y135210381D01*
X75722142Y135258762D01*
X75818904Y135355524D01*
X75867285Y135452286D01*
X75915666Y135645810D01*
X75915666Y135790953D01*
X75867285Y135984477D01*
X75818904Y136081239D01*
X75722142Y136178000D01*
X75577000Y136226381D01*
X75480238Y136226381D01*
X75335095Y136178000D01*
X75286714Y136129620D01*
X65183380Y135762715D02*
X65183380Y135085381D01*
X65425285Y136149762D02*
X65667190Y135424048D01*
X65038238Y135424048D01*
X64651190Y135085381D02*
X64651190Y136101381D01*
X32192714Y135210381D02*
X32773285Y135210381D01*
X32483000Y135210381D02*
X32483000Y136226381D01*
X32579761Y136081239D01*
X32676523Y135984477D01*
X32773285Y135936096D01*
X31757285Y135210381D02*
X31757285Y136226381D01*
X31176714Y135210381D02*
X31612142Y135790953D01*
X31176714Y136226381D02*
X31757285Y135645810D01*
X119670857Y144431381D02*
X119041904Y144431381D01*
X119380571Y144044334D01*
X119235428Y144044334D01*
X119138666Y143995953D01*
X119090285Y143947572D01*
X119041904Y143850810D01*
X119041904Y143608905D01*
X119090285Y143512143D01*
X119138666Y143463762D01*
X119235428Y143415381D01*
X119525714Y143415381D01*
X119622476Y143463762D01*
X119670857Y143512143D01*
X118606476Y143415381D02*
X118606476Y144431381D01*
X118025904Y143415381D01*
X118025904Y144431381D01*
X16245142Y135210381D02*
X16825714Y135210381D01*
X16535428Y135210381D02*
X16535428Y136226381D01*
X16632190Y136081239D01*
X16728952Y135984477D01*
X16825714Y135936096D01*
X15858095Y135500667D02*
X15374285Y135500667D01*
X15954857Y135210381D02*
X15616190Y136226381D01*
X15277523Y135210381D01*
D10*
X62158822Y114051769D02*
X61301680Y114051769D01*
X61730251Y112551769D02*
X61730251Y114051769D01*
X60801680Y112551769D02*
X60801680Y114051769D01*
X60230251Y114051769D01*
X60087394Y113980340D01*
X60015965Y113908912D01*
X59944537Y113766055D01*
X59944537Y113551769D01*
X60015965Y113408912D01*
X60087394Y113337483D01*
X60230251Y113266055D01*
X60801680Y113266055D01*
X59373108Y112623198D02*
X59158822Y112551769D01*
X58801680Y112551769D01*
X58658822Y112623198D01*
X58587394Y112694626D01*
X58515965Y112837483D01*
X58515965Y112980340D01*
X58587394Y113123198D01*
X58658822Y113194626D01*
X58801680Y113266055D01*
X59087394Y113337483D01*
X59230251Y113408912D01*
X59301680Y113480340D01*
X59373108Y113623198D01*
X59373108Y113766055D01*
X59301680Y113908912D01*
X59230251Y113980340D01*
X59087394Y114051769D01*
X58730251Y114051769D01*
X58515965Y113980340D01*
X57944537Y113908912D02*
X57873108Y113980340D01*
X57730251Y114051769D01*
X57373108Y114051769D01*
X57230251Y113980340D01*
X57158822Y113908912D01*
X57087394Y113766055D01*
X57087394Y113623198D01*
X57158822Y113408912D01*
X58015965Y112551769D01*
X57087394Y112551769D01*
D11*
X118092060Y132101483D02*
X119108060Y132101483D01*
X118092060Y132585293D02*
X119108060Y132585293D01*
X119108060Y132827198D01*
X119059680Y132972340D01*
X118962918Y133069102D01*
X118866156Y133117483D01*
X118672632Y133165864D01*
X118527489Y133165864D01*
X118333965Y133117483D01*
X118237203Y133069102D01*
X118140441Y132972340D01*
X118092060Y132827198D01*
X118092060Y132585293D01*
X118092060Y134085102D02*
X118092060Y133601293D01*
X119108060Y133601293D01*
X118624251Y134423769D02*
X118624251Y134762436D01*
X118092060Y134907579D02*
X118092060Y134423769D01*
X119108060Y134423769D01*
X119108060Y134907579D01*
D17*
X9325489Y118905340D02*
X9515965Y119000579D01*
X9801680Y119000579D01*
X10087394Y118905340D01*
X10277870Y118714864D01*
X10373108Y118524388D01*
X10468346Y118143436D01*
X10468346Y117857721D01*
X10373108Y117476769D01*
X10277870Y117286293D01*
X10087394Y117095817D01*
X9801680Y117000579D01*
X9611203Y117000579D01*
X9325489Y117095817D01*
X9230251Y117191055D01*
X9230251Y117857721D01*
X9611203Y117857721D01*
X8373108Y117000579D02*
X8373108Y119000579D01*
X7230251Y117000579D01*
X7230251Y119000579D01*
X6277870Y117000579D02*
X6277870Y119000579D01*
X5801680Y119000579D01*
X5515965Y118905340D01*
X5325489Y118714864D01*
X5230251Y118524388D01*
X5135013Y118143436D01*
X5135013Y117857721D01*
X5230251Y117476769D01*
X5325489Y117286293D01*
X5515965Y117095817D01*
X5801680Y117000579D01*
X6277870Y117000579D01*
D11*
X28728299Y135370721D02*
X29308870Y135370721D01*
X29018584Y135370721D02*
X29018584Y136386721D01*
X29115346Y136241579D01*
X29212108Y136144817D01*
X29308870Y136096436D01*
X28292870Y135370721D02*
X28292870Y136386721D01*
X73635714Y136129620D02*
X73587333Y136178000D01*
X73490571Y136226381D01*
X73248666Y136226381D01*
X73151904Y136178000D01*
X73103523Y136129620D01*
X73055142Y136032858D01*
X73055142Y135936096D01*
X73103523Y135790953D01*
X73684095Y135210381D01*
X73055142Y135210381D01*
X72668095Y135500667D02*
X72184285Y135500667D01*
X72764857Y135210381D02*
X72426190Y136226381D01*
X72087523Y135210381D01*
D13*
X30394537Y105687483D02*
X29894537Y105687483D01*
X29680251Y104901769D02*
X30394537Y104901769D01*
X30394537Y106401769D01*
X29680251Y106401769D01*
X29251680Y106401769D02*
X28394537Y106401769D01*
X28823108Y104901769D02*
X28823108Y106401769D01*
X27394537Y105687483D02*
X27180251Y105616055D01*
X27108822Y105544626D01*
X27037394Y105401769D01*
X27037394Y105187483D01*
X27108822Y105044626D01*
X27180251Y104973198D01*
X27323108Y104901769D01*
X27894537Y104901769D01*
X27894537Y106401769D01*
X27394537Y106401769D01*
X27251680Y106330340D01*
X27180251Y106258912D01*
X27108822Y106116055D01*
X27108822Y105973198D01*
X27180251Y105830340D01*
X27251680Y105758912D01*
X27394537Y105687483D01*
X27894537Y105687483D01*
D11*
X122436666Y144431381D02*
X121807714Y144431381D01*
X122146380Y144044334D01*
X122001238Y144044334D01*
X121904476Y143995953D01*
X121856095Y143947572D01*
X121807714Y143850810D01*
X121807714Y143608905D01*
X121856095Y143512143D01*
X121904476Y143463762D01*
X122001238Y143415381D01*
X122291523Y143415381D01*
X122388285Y143463762D01*
X122436666Y143512143D01*
X121372285Y143415381D02*
X121372285Y144431381D01*
X120985238Y144431381D01*
X120888476Y144383000D01*
X120840095Y144334620D01*
X120791714Y144237858D01*
X120791714Y144092715D01*
X120840095Y143995953D01*
X120888476Y143947572D01*
X120985238Y143899191D01*
X121372285Y143899191D01*
X104656666Y144431381D02*
X104027714Y144431381D01*
X104366380Y144044334D01*
X104221238Y144044334D01*
X104124476Y143995953D01*
X104076095Y143947572D01*
X104027714Y143850810D01*
X104027714Y143608905D01*
X104076095Y143512143D01*
X104124476Y143463762D01*
X104221238Y143415381D01*
X104511523Y143415381D01*
X104608285Y143463762D01*
X104656666Y143512143D01*
X103592285Y143415381D02*
X103592285Y144431381D01*
X103350380Y144431381D01*
X103205238Y144383000D01*
X103108476Y144286239D01*
X103060095Y144189477D01*
X103011714Y143995953D01*
X103011714Y143850810D01*
X103060095Y143657286D01*
X103108476Y143560524D01*
X103205238Y143463762D01*
X103350380Y143415381D01*
X103592285Y143415381D01*
D10*
X896918Y79472007D02*
X2896918Y79472007D01*
X896918Y80329150D02*
X1944537Y80329150D01*
X2135013Y80233912D01*
X2230251Y80043436D01*
X2230251Y79757721D01*
X2135013Y79567245D01*
X2039775Y79472007D01*
X2230251Y80995817D02*
X2230251Y81757721D01*
X2896918Y81281531D02*
X1182632Y81281531D01*
X992156Y81376769D01*
X896918Y81567245D01*
X896918Y81757721D01*
X2230251Y82138674D02*
X2230251Y82900579D01*
X2896918Y82424388D02*
X1182632Y82424388D01*
X992156Y82519626D01*
X896918Y82710102D01*
X896918Y82900579D01*
X2230251Y83567245D02*
X230251Y83567245D01*
X2135013Y83567245D02*
X2230251Y83757721D01*
X2230251Y84138674D01*
X2135013Y84329150D01*
X2039775Y84424388D01*
X1849299Y84519626D01*
X1277870Y84519626D01*
X1087394Y84424388D01*
X992156Y84329150D01*
X896918Y84138674D01*
X896918Y83757721D01*
X992156Y83567245D01*
X1087394Y85376769D02*
X992156Y85472007D01*
X896918Y85376769D01*
X992156Y85281531D01*
X1087394Y85376769D01*
X896918Y85376769D01*
X2135013Y85376769D02*
X2039775Y85472007D01*
X1944537Y85376769D01*
X2039775Y85281531D01*
X2135013Y85376769D01*
X1944537Y85376769D01*
X2992156Y87757721D02*
X420727Y86043436D01*
X2992156Y89852960D02*
X420727Y88138674D01*
X896918Y90519626D02*
X2230251Y90519626D01*
X1849299Y90519626D02*
X2039775Y90614864D01*
X2135013Y90710102D01*
X2230251Y90900579D01*
X2230251Y91091055D01*
X2230251Y92614864D02*
X896918Y92614864D01*
X2230251Y91757721D02*
X1182632Y91757721D01*
X992156Y91852960D01*
X896918Y92043436D01*
X896918Y92329150D01*
X992156Y92519626D01*
X1087394Y92614864D01*
X992156Y93472007D02*
X896918Y93662483D01*
X896918Y94043436D01*
X992156Y94233912D01*
X1182632Y94329150D01*
X1277870Y94329150D01*
X1468346Y94233912D01*
X1563584Y94043436D01*
X1563584Y93757721D01*
X1658822Y93567245D01*
X1849299Y93472007D01*
X1944537Y93472007D01*
X2135013Y93567245D01*
X2230251Y93757721D01*
X2230251Y94043436D01*
X2135013Y94233912D01*
X992156Y95948198D02*
X896918Y95757721D01*
X896918Y95376769D01*
X992156Y95186293D01*
X1182632Y95091055D01*
X1944537Y95091055D01*
X2135013Y95186293D01*
X2230251Y95376769D01*
X2230251Y95757721D01*
X2135013Y95948198D01*
X1944537Y96043436D01*
X1754060Y96043436D01*
X1563584Y95091055D01*
X2230251Y96614864D02*
X2230251Y97376769D01*
X896918Y96900579D02*
X2611203Y96900579D01*
X2801680Y96995817D01*
X2896918Y97186293D01*
X2896918Y97376769D01*
X896918Y98043436D02*
X2230251Y98043436D01*
X2896918Y98043436D02*
X2801680Y97948198D01*
X2706441Y98043436D01*
X2801680Y98138674D01*
X2896918Y98043436D01*
X2706441Y98043436D01*
X1087394Y98995817D02*
X992156Y99091055D01*
X896918Y98995817D01*
X992156Y98900579D01*
X1087394Y98995817D01*
X896918Y98995817D01*
X992156Y100805340D02*
X896918Y100614864D01*
X896918Y100233912D01*
X992156Y100043436D01*
X1087394Y99948198D01*
X1277870Y99852960D01*
X1849299Y99852960D01*
X2039775Y99948198D01*
X2135013Y100043436D01*
X2230251Y100233912D01*
X2230251Y100614864D01*
X2135013Y100805340D01*
X896918Y101948198D02*
X992156Y101757721D01*
X1087394Y101662483D01*
X1277870Y101567245D01*
X1849299Y101567245D01*
X2039775Y101662483D01*
X2135013Y101757721D01*
X2230251Y101948198D01*
X2230251Y102233912D01*
X2135013Y102424388D01*
X2039775Y102519626D01*
X1849299Y102614864D01*
X1277870Y102614864D01*
X1087394Y102519626D01*
X992156Y102424388D01*
X896918Y102233912D01*
X896918Y101948198D01*
X896918Y103472007D02*
X2230251Y103472007D01*
X2039775Y103472007D02*
X2135013Y103567245D01*
X2230251Y103757721D01*
X2230251Y104043436D01*
X2135013Y104233912D01*
X1944537Y104329150D01*
X896918Y104329150D01*
X1944537Y104329150D02*
X2135013Y104424388D01*
X2230251Y104614864D01*
X2230251Y104900579D01*
X2135013Y105091055D01*
X1944537Y105186293D01*
X896918Y105186293D01*
X2992156Y107567245D02*
X420727Y105852960D01*
X992156Y108138674D02*
X896918Y108329150D01*
X896918Y108710102D01*
X992156Y108900579D01*
X1182632Y108995817D01*
X1277870Y108995817D01*
X1468346Y108900579D01*
X1563584Y108710102D01*
X1563584Y108424388D01*
X1658822Y108233912D01*
X1849299Y108138674D01*
X1944537Y108138674D01*
X2135013Y108233912D01*
X2230251Y108424388D01*
X2230251Y108710102D01*
X2135013Y108900579D01*
X2992156Y111281531D02*
X420727Y109567245D01*
X896918Y111948198D02*
X2896918Y111948198D01*
X896918Y112805340D02*
X1944537Y112805340D01*
X2135013Y112710102D01*
X2230251Y112519626D01*
X2230251Y112233912D01*
X2135013Y112043436D01*
X2039775Y111948198D01*
X992156Y114519626D02*
X896918Y114329150D01*
X896918Y113948198D01*
X992156Y113757721D01*
X1182632Y113662483D01*
X1944537Y113662483D01*
X2135013Y113757721D01*
X2230251Y113948198D01*
X2230251Y114329150D01*
X2135013Y114519626D01*
X1944537Y114614864D01*
X1754060Y114614864D01*
X1563584Y113662483D01*
X896918Y115757721D02*
X992156Y115567245D01*
X1182632Y115472007D01*
X2896918Y115472007D01*
X896918Y116805340D02*
X992156Y116614864D01*
X1182632Y116519626D01*
X2896918Y116519626D01*
X992156Y118329150D02*
X896918Y118138674D01*
X896918Y117757721D01*
X992156Y117567245D01*
X1182632Y117472007D01*
X1944537Y117472007D01*
X2135013Y117567245D01*
X2230251Y117757721D01*
X2230251Y118138674D01*
X2135013Y118329150D01*
X1944537Y118424388D01*
X1754060Y118424388D01*
X1563584Y117472007D01*
X2230251Y119281531D02*
X896918Y119281531D01*
X2039775Y119281531D02*
X2135013Y119376769D01*
X2230251Y119567245D01*
X2230251Y119852960D01*
X2135013Y120043436D01*
X1944537Y120138674D01*
X896918Y120138674D01*
X896918Y121091055D02*
X2896918Y121091055D01*
X896918Y122233912D01*
X2896918Y122233912D01*
X1944537Y123852960D02*
X1849299Y124138674D01*
X1754060Y124233912D01*
X1563584Y124329150D01*
X1277870Y124329150D01*
X1087394Y124233912D01*
X992156Y124138674D01*
X896918Y123948198D01*
X896918Y123186293D01*
X2896918Y123186293D01*
X2896918Y123852960D01*
X2801680Y124043436D01*
X2706441Y124138674D01*
X2515965Y124233912D01*
X2325489Y124233912D01*
X2135013Y124138674D01*
X2039775Y124043436D01*
X1944537Y123852960D01*
X1944537Y123186293D01*
X896918Y126233912D02*
X896918Y125091055D01*
X896918Y125662483D02*
X2896918Y125662483D01*
X2611203Y125472007D01*
X2420727Y125281531D01*
X2325489Y125091055D01*
D11*
X95298285Y144384620D02*
X95249904Y144433000D01*
X95153142Y144481381D01*
X94911238Y144481381D01*
X94814476Y144433000D01*
X94766095Y144384620D01*
X94717714Y144287858D01*
X94717714Y144191096D01*
X94766095Y144045953D01*
X95346666Y143465381D01*
X94717714Y143465381D01*
X94282285Y143465381D02*
X94282285Y144481381D01*
X93895238Y144481381D01*
X93798476Y144433000D01*
X93750095Y144384620D01*
X93701714Y144287858D01*
X93701714Y144142715D01*
X93750095Y144045953D01*
X93798476Y143997572D01*
X93895238Y143949191D01*
X94282285Y143949191D01*
X87667060Y145395817D02*
X88683060Y145395817D01*
X87957346Y145734483D01*
X88683060Y146073150D01*
X87667060Y146073150D01*
X87957346Y146508579D02*
X87957346Y146992388D01*
X87667060Y146411817D02*
X88683060Y146750483D01*
X87667060Y147089150D01*
X88199251Y147766483D02*
X88199251Y147427817D01*
X87667060Y147427817D02*
X88683060Y147427817D01*
X88683060Y147911626D01*
X107208060Y132298245D02*
X107208060Y132878817D01*
X106192060Y132588531D02*
X107208060Y132588531D01*
X106192060Y133217483D02*
X107208060Y133217483D01*
X107208060Y133604531D01*
X107159680Y133701293D01*
X107111299Y133749674D01*
X107014537Y133798055D01*
X106869394Y133798055D01*
X106772632Y133749674D01*
X106724251Y133701293D01*
X106675870Y133604531D01*
X106675870Y133217483D01*
X106240441Y134185102D02*
X106192060Y134330245D01*
X106192060Y134572150D01*
X106240441Y134668912D01*
X106288822Y134717293D01*
X106385584Y134765674D01*
X106482346Y134765674D01*
X106579108Y134717293D01*
X106627489Y134668912D01*
X106675870Y134572150D01*
X106724251Y134378626D01*
X106772632Y134281864D01*
X106821013Y134233483D01*
X106917775Y134185102D01*
X107014537Y134185102D01*
X107111299Y134233483D01*
X107159680Y134281864D01*
X107208060Y134378626D01*
X107208060Y134620531D01*
X107159680Y134765674D01*
X37907714Y143465381D02*
X38488285Y143465381D01*
X38198000Y143465381D02*
X38198000Y144481381D01*
X38294761Y144336239D01*
X38391523Y144239477D01*
X38488285Y144191096D01*
X37472285Y143465381D02*
X37472285Y144481381D01*
X37085238Y144481381D01*
X36988476Y144433000D01*
X36940095Y144384620D01*
X36891714Y144287858D01*
X36891714Y144142715D01*
X36940095Y144045953D01*
X36988476Y143997572D01*
X37085238Y143949191D01*
X37472285Y143949191D01*
X28338822Y146003912D02*
X28290441Y145955531D01*
X28242060Y145810388D01*
X28242060Y145713626D01*
X28290441Y145568483D01*
X28387203Y145471721D01*
X28483965Y145423340D01*
X28677489Y145374960D01*
X28822632Y145374960D01*
X29016156Y145423340D01*
X29112918Y145471721D01*
X29209680Y145568483D01*
X29258060Y145713626D01*
X29258060Y145810388D01*
X29209680Y145955531D01*
X29161299Y146003912D01*
X28532346Y146390960D02*
X28532346Y146874769D01*
X28242060Y146294198D02*
X29258060Y146632864D01*
X28242060Y146971531D01*
X28242060Y147310198D02*
X29258060Y147310198D01*
X28242060Y147890769D01*
X29258060Y147890769D01*
X28145299Y148132674D02*
X28145299Y148906769D01*
X28242060Y149632483D02*
X28242060Y149148674D01*
X29258060Y149148674D01*
X34805285Y135210381D02*
X35385857Y135210381D01*
X35095571Y135210381D02*
X35095571Y136226381D01*
X35192333Y136081239D01*
X35289095Y135984477D01*
X35385857Y135936096D01*
X34369857Y135210381D02*
X34369857Y136226381D01*
X34031190Y135500667D01*
X33692523Y136226381D01*
X33692523Y135210381D01*
X86142190Y136129620D02*
X86093809Y136178000D01*
X85997047Y136226381D01*
X85755142Y136226381D01*
X85658380Y136178000D01*
X85610000Y136129620D01*
X85561619Y136032858D01*
X85561619Y135936096D01*
X85610000Y135790953D01*
X86190571Y135210381D01*
X85561619Y135210381D01*
X85126190Y135210381D02*
X85126190Y136226381D01*
X100774095Y136176381D02*
X100145142Y136176381D01*
X100483809Y135789334D01*
X100338666Y135789334D01*
X100241904Y135740953D01*
X100193523Y135692572D01*
X100145142Y135595810D01*
X100145142Y135353905D01*
X100193523Y135257143D01*
X100241904Y135208762D01*
X100338666Y135160381D01*
X100628952Y135160381D01*
X100725714Y135208762D01*
X100774095Y135257143D01*
X99758095Y135450667D02*
X99274285Y135450667D01*
X99854857Y135160381D02*
X99516190Y136176381D01*
X99177523Y135160381D01*
X46092060Y145431531D02*
X47108060Y145431531D01*
X46092060Y146012102D01*
X47108060Y146012102D01*
X46624251Y146495912D02*
X46624251Y146834579D01*
X46092060Y146979721D02*
X46092060Y146495912D01*
X47108060Y146495912D01*
X47108060Y146979721D01*
X47108060Y147415150D02*
X46285584Y147415150D01*
X46188822Y147463531D01*
X46140441Y147511912D01*
X46092060Y147608674D01*
X46092060Y147802198D01*
X46140441Y147898960D01*
X46188822Y147947340D01*
X46285584Y147995721D01*
X47108060Y147995721D01*
X47108060Y148334388D02*
X47108060Y148914960D01*
X46092060Y148624674D02*
X47108060Y148624674D01*
X46092060Y149834198D02*
X46575870Y149495531D01*
X46092060Y149253626D02*
X47108060Y149253626D01*
X47108060Y149640674D01*
X47059680Y149737436D01*
X47011299Y149785817D01*
X46914537Y149834198D01*
X46769394Y149834198D01*
X46672632Y149785817D01*
X46624251Y149737436D01*
X46575870Y149640674D01*
X46575870Y149253626D01*
X46382346Y150221245D02*
X46382346Y150705055D01*
X46092060Y150124483D02*
X47108060Y150463150D01*
X46092060Y150801817D01*
X46092060Y151624293D02*
X46092060Y151140483D01*
X47108060Y151140483D01*
X138922476Y144431381D02*
X138293523Y144431381D01*
X138632190Y144044334D01*
X138487047Y144044334D01*
X138390285Y143995953D01*
X138341904Y143947572D01*
X138293523Y143850810D01*
X138293523Y143608905D01*
X138341904Y143512143D01*
X138390285Y143463762D01*
X138487047Y143415381D01*
X138777333Y143415381D01*
X138874095Y143463762D01*
X138922476Y143512143D01*
X137954857Y144431381D02*
X137277523Y144431381D01*
X137954857Y143415381D01*
X137277523Y143415381D01*
X80009904Y136129620D02*
X79961523Y136178000D01*
X79864761Y136226381D01*
X79622857Y136226381D01*
X79526095Y136178000D01*
X79477714Y136129620D01*
X79429333Y136032858D01*
X79429333Y135936096D01*
X79477714Y135790953D01*
X80058285Y135210381D01*
X79429333Y135210381D01*
X78993904Y135742572D02*
X78655238Y135742572D01*
X78510095Y135210381D02*
X78993904Y135210381D01*
X78993904Y136226381D01*
X78510095Y136226381D01*
X128665714Y144431381D02*
X128036761Y144431381D01*
X128375428Y144044334D01*
X128230285Y144044334D01*
X128133523Y143995953D01*
X128085142Y143947572D01*
X128036761Y143850810D01*
X128036761Y143608905D01*
X128085142Y143512143D01*
X128133523Y143463762D01*
X128230285Y143415381D01*
X128520571Y143415381D01*
X128617333Y143463762D01*
X128665714Y143512143D01*
X127746476Y144431381D02*
X127165904Y144431381D01*
X127456190Y143415381D02*
X127456190Y144431381D01*
X52676904Y135762715D02*
X52676904Y135085381D01*
X52918809Y136149762D02*
X53160714Y135424048D01*
X52531761Y135424048D01*
X52193095Y135375667D02*
X51709285Y135375667D01*
X52289857Y135085381D02*
X51951190Y136101381D01*
X51612523Y135085381D01*
X107783285Y136176381D02*
X107154333Y136176381D01*
X107493000Y135789334D01*
X107347857Y135789334D01*
X107251095Y135740953D01*
X107202714Y135692572D01*
X107154333Y135595810D01*
X107154333Y135353905D01*
X107202714Y135257143D01*
X107251095Y135208762D01*
X107347857Y135160381D01*
X107638142Y135160381D01*
X107734904Y135208762D01*
X107783285Y135257143D01*
X106718904Y135692572D02*
X106380238Y135692572D01*
X106235095Y135160381D02*
X106718904Y135160381D01*
X106718904Y136176381D01*
X106235095Y136176381D01*
X100734680Y145531245D02*
X100783060Y145434483D01*
X100783060Y145289340D01*
X100734680Y145144198D01*
X100637918Y145047436D01*
X100541156Y144999055D01*
X100347632Y144950674D01*
X100202489Y144950674D01*
X100008965Y144999055D01*
X99912203Y145047436D01*
X99815441Y145144198D01*
X99767060Y145289340D01*
X99767060Y145386102D01*
X99815441Y145531245D01*
X99863822Y145579626D01*
X100202489Y145579626D01*
X100202489Y145386102D01*
X99767060Y146015055D02*
X100783060Y146015055D01*
X99767060Y146595626D01*
X100783060Y146595626D01*
X99767060Y147079436D02*
X100783060Y147079436D01*
X100783060Y147321340D01*
X100734680Y147466483D01*
X100637918Y147563245D01*
X100541156Y147611626D01*
X100347632Y147660007D01*
X100202489Y147660007D01*
X100008965Y147611626D01*
X99912203Y147563245D01*
X99815441Y147466483D01*
X99767060Y147321340D01*
X99767060Y147079436D01*
X121963537Y145245721D02*
X121963537Y146261721D01*
X121576489Y146261721D01*
X121479727Y146213340D01*
X121431346Y146164960D01*
X121382965Y146068198D01*
X121382965Y145923055D01*
X121431346Y145826293D01*
X121479727Y145777912D01*
X121576489Y145729531D01*
X121963537Y145729531D01*
X120947537Y146261721D02*
X120947537Y145439245D01*
X120899156Y145342483D01*
X120850775Y145294102D01*
X120754013Y145245721D01*
X120560489Y145245721D01*
X120463727Y145294102D01*
X120415346Y145342483D01*
X120366965Y145439245D01*
X120366965Y146261721D01*
X119883156Y145245721D02*
X119883156Y146261721D01*
X119544489Y145536007D01*
X119205822Y146261721D01*
X119205822Y145245721D01*
X118722013Y145245721D02*
X118722013Y146261721D01*
X118334965Y146261721D01*
X118238203Y146213340D01*
X118189822Y146164960D01*
X118141441Y146068198D01*
X118141441Y145923055D01*
X118189822Y145826293D01*
X118238203Y145777912D01*
X118334965Y145729531D01*
X118722013Y145729531D01*
X135112476Y144431381D02*
X134483523Y144431381D01*
X134822190Y144044334D01*
X134677047Y144044334D01*
X134580285Y143995953D01*
X134531904Y143947572D01*
X134483523Y143850810D01*
X134483523Y143608905D01*
X134531904Y143512143D01*
X134580285Y143463762D01*
X134677047Y143415381D01*
X134967333Y143415381D01*
X135064095Y143463762D01*
X135112476Y143512143D01*
X134144857Y144431381D02*
X133467523Y143415381D01*
X133467523Y144431381D02*
X134144857Y143415381D01*
X25866904Y143465381D02*
X26447476Y143465381D01*
X26157190Y143465381D02*
X26157190Y144481381D01*
X26253952Y144336239D01*
X26350714Y144239477D01*
X26447476Y144191096D01*
X25431476Y143465381D02*
X25431476Y144481381D01*
X25431476Y143997572D02*
X24850904Y143997572D01*
X24850904Y143465381D02*
X24850904Y144481381D01*
X107759095Y144431381D02*
X107130142Y144431381D01*
X107468809Y144044334D01*
X107323666Y144044334D01*
X107226904Y143995953D01*
X107178523Y143947572D01*
X107130142Y143850810D01*
X107130142Y143608905D01*
X107178523Y143512143D01*
X107226904Y143463762D01*
X107323666Y143415381D01*
X107613952Y143415381D01*
X107710714Y143463762D01*
X107759095Y143512143D01*
X106356047Y143947572D02*
X106694714Y143947572D01*
X106694714Y143415381D02*
X106694714Y144431381D01*
X106210904Y144431381D01*
X72517060Y145757864D02*
X73533060Y145757864D01*
X72807346Y146193293D02*
X72807346Y146677102D01*
X72517060Y146096531D02*
X73533060Y146435198D01*
X72517060Y146773864D01*
X73533060Y146967388D02*
X73533060Y147547960D01*
X72517060Y147257674D02*
X73533060Y147257674D01*
X131874095Y144431381D02*
X131245142Y144431381D01*
X131583809Y144044334D01*
X131438666Y144044334D01*
X131341904Y143995953D01*
X131293523Y143947572D01*
X131245142Y143850810D01*
X131245142Y143608905D01*
X131293523Y143512143D01*
X131341904Y143463762D01*
X131438666Y143415381D01*
X131728952Y143415381D01*
X131825714Y143463762D01*
X131874095Y143512143D01*
X130954857Y144431381D02*
X130616190Y143415381D01*
X130277523Y144431381D01*
X76883285Y144384620D02*
X76834904Y144433000D01*
X76738142Y144481381D01*
X76496238Y144481381D01*
X76399476Y144433000D01*
X76351095Y144384620D01*
X76302714Y144287858D01*
X76302714Y144191096D01*
X76351095Y144045953D01*
X76931666Y143465381D01*
X76302714Y143465381D01*
X75867285Y143465381D02*
X75867285Y144481381D01*
X75625380Y144481381D01*
X75480238Y144433000D01*
X75383476Y144336239D01*
X75335095Y144239477D01*
X75286714Y144045953D01*
X75286714Y143900810D01*
X75335095Y143707286D01*
X75383476Y143610524D01*
X75480238Y143513762D01*
X75625380Y143465381D01*
X75867285Y143465381D01*
X85329108Y131063626D02*
X85329108Y131837721D01*
X84942060Y131450674D02*
X85716156Y131450674D01*
X85958060Y132805340D02*
X85958060Y132321531D01*
X85474251Y132273150D01*
X85522632Y132321531D01*
X85571013Y132418293D01*
X85571013Y132660198D01*
X85522632Y132756960D01*
X85474251Y132805340D01*
X85377489Y132853721D01*
X85135584Y132853721D01*
X85038822Y132805340D01*
X84990441Y132756960D01*
X84942060Y132660198D01*
X84942060Y132418293D01*
X84990441Y132321531D01*
X85038822Y132273150D01*
X85958060Y133144007D02*
X84942060Y133482674D01*
X85958060Y133821340D01*
X85232346Y134111626D02*
X85232346Y134595436D01*
X84942060Y134014864D02*
X85958060Y134353531D01*
X84942060Y134692198D01*
X18399060Y134067483D02*
X18447441Y134019102D01*
X18592584Y133970721D01*
X18689346Y133970721D01*
X18834489Y134019102D01*
X18931251Y134115864D01*
X18979632Y134212626D01*
X19028013Y134406150D01*
X19028013Y134551293D01*
X18979632Y134744817D01*
X18931251Y134841579D01*
X18834489Y134938340D01*
X18689346Y134986721D01*
X18592584Y134986721D01*
X18447441Y134938340D01*
X18399060Y134889960D01*
X18012013Y134261007D02*
X17528203Y134261007D01*
X18108775Y133970721D02*
X17770108Y134986721D01*
X17431441Y133970721D01*
X17092775Y133970721D02*
X17092775Y134986721D01*
X16512203Y133970721D01*
X16512203Y134986721D01*
X16270299Y133873960D02*
X15496203Y133873960D01*
X15254299Y133970721D02*
X15254299Y134986721D01*
X15254299Y134502912D02*
X14673727Y134502912D01*
X14673727Y133970721D02*
X14673727Y134986721D01*
X67892714Y144017715D02*
X67892714Y143340381D01*
X68134619Y144404762D02*
X68376523Y143679048D01*
X67747571Y143679048D01*
X66876714Y143340381D02*
X67360523Y143340381D01*
X67360523Y144356381D01*
D18*
X3496918Y79505340D02*
X4830251Y79505340D01*
X4449299Y79505340D02*
X4639775Y79600579D01*
X4735013Y79695817D01*
X4830251Y79886293D01*
X4830251Y80076769D01*
X3592156Y81505340D02*
X3496918Y81314864D01*
X3496918Y80933912D01*
X3592156Y80743436D01*
X3782632Y80648198D01*
X4544537Y80648198D01*
X4735013Y80743436D01*
X4830251Y80933912D01*
X4830251Y81314864D01*
X4735013Y81505340D01*
X4544537Y81600579D01*
X4354060Y81600579D01*
X4163584Y80648198D01*
X4830251Y82267245D02*
X3496918Y82743436D01*
X4830251Y83219626D01*
X3687394Y83981531D02*
X3592156Y84076769D01*
X3496918Y83981531D01*
X3592156Y83886293D01*
X3687394Y83981531D01*
X3496918Y83981531D01*
X3687394Y87600579D02*
X3592156Y87505340D01*
X3496918Y87219626D01*
X3496918Y87029150D01*
X3592156Y86743436D01*
X3782632Y86552960D01*
X3973108Y86457721D01*
X4354060Y86362483D01*
X4639775Y86362483D01*
X5020727Y86457721D01*
X5211203Y86552960D01*
X5401680Y86743436D01*
X5496918Y87029150D01*
X5496918Y87219626D01*
X5401680Y87505340D01*
X5306441Y87600579D01*
D11*
X16317714Y143465381D02*
X16898285Y143465381D01*
X16608000Y143465381D02*
X16608000Y144481381D01*
X16704761Y144336239D01*
X16801523Y144239477D01*
X16898285Y144191096D01*
X15543619Y143997572D02*
X15398476Y143949191D01*
X15350095Y143900810D01*
X15301714Y143804048D01*
X15301714Y143658905D01*
X15350095Y143562143D01*
X15398476Y143513762D01*
X15495238Y143465381D01*
X15882285Y143465381D01*
X15882285Y144481381D01*
X15543619Y144481381D01*
X15446857Y144433000D01*
X15398476Y144384620D01*
X15350095Y144287858D01*
X15350095Y144191096D01*
X15398476Y144094334D01*
X15446857Y144045953D01*
X15543619Y143997572D01*
X15882285Y143997572D01*
X13938441Y136945721D02*
X14519013Y136945721D01*
X14228727Y136945721D02*
X14228727Y137961721D01*
X14325489Y137816579D01*
X14422251Y137719817D01*
X14519013Y137671436D01*
X13551394Y137864960D02*
X13503013Y137913340D01*
X13406251Y137961721D01*
X13164346Y137961721D01*
X13067584Y137913340D01*
X13019203Y137864960D01*
X12970822Y137768198D01*
X12970822Y137671436D01*
X13019203Y137526293D01*
X13599775Y136945721D01*
X12970822Y136945721D01*
X12777299Y136848960D02*
X12003203Y136848960D01*
X11761299Y136945721D02*
X11761299Y137961721D01*
X11374251Y137961721D01*
X11277489Y137913340D01*
X11229108Y137864960D01*
X11180727Y137768198D01*
X11180727Y137623055D01*
X11229108Y137526293D01*
X11277489Y137477912D01*
X11374251Y137429531D01*
X11761299Y137429531D01*
X10745299Y137477912D02*
X10406632Y137477912D01*
X10261489Y136945721D02*
X10745299Y136945721D01*
X10745299Y137961721D01*
X10261489Y137961721D01*
X9245489Y136945721D02*
X9584156Y137429531D01*
X9826060Y136945721D02*
X9826060Y137961721D01*
X9439013Y137961721D01*
X9342251Y137913340D01*
X9293870Y137864960D01*
X9245489Y137768198D01*
X9245489Y137623055D01*
X9293870Y137526293D01*
X9342251Y137477912D01*
X9439013Y137429531D01*
X9826060Y137429531D01*
X8810060Y136945721D02*
X8810060Y137961721D01*
X8471394Y137236007D01*
X8132727Y137961721D01*
X8132727Y136945721D01*
X24894394Y135470721D02*
X25474965Y135470721D01*
X25184680Y135470721D02*
X25184680Y136486721D01*
X25281441Y136341579D01*
X25378203Y136244817D01*
X25474965Y136196436D01*
X23926775Y136438340D02*
X24023537Y136486721D01*
X24168680Y136486721D01*
X24313822Y136438340D01*
X24410584Y136341579D01*
X24458965Y136244817D01*
X24507346Y136051293D01*
X24507346Y135906150D01*
X24458965Y135712626D01*
X24410584Y135615864D01*
X24313822Y135519102D01*
X24168680Y135470721D01*
X24071918Y135470721D01*
X23926775Y135519102D01*
X23878394Y135567483D01*
X23878394Y135906150D01*
X24071918Y135906150D01*
D14*
X65901680Y133693436D02*
X66135013Y134074388D01*
X66301680Y133693436D02*
X66301680Y134493436D01*
X66035013Y134493436D01*
X65968346Y134455340D01*
X65935013Y134417245D01*
X65901680Y134341055D01*
X65901680Y134226769D01*
X65935013Y134150579D01*
X65968346Y134112483D01*
X66035013Y134074388D01*
X66301680Y134074388D01*
X65701680Y134493436D02*
X65301680Y134493436D01*
X65501680Y133693436D02*
X65501680Y134493436D01*
X65068346Y133693436D02*
X65068346Y134226769D01*
X65068346Y134074388D02*
X65035013Y134150579D01*
X65001680Y134188674D01*
X64935013Y134226769D01*
X64868346Y134226769D01*
X64635013Y133693436D02*
X64635013Y134226769D01*
X64635013Y134493436D02*
X64668346Y134455340D01*
X64635013Y134417245D01*
X64601680Y134455340D01*
X64635013Y134493436D01*
X64635013Y134417245D01*
X64301680Y133693436D02*
X64301680Y134226769D01*
X64301680Y134150579D02*
X64268346Y134188674D01*
X64201680Y134226769D01*
X64101680Y134226769D01*
X64035013Y134188674D01*
X64001680Y134112483D01*
X64001680Y133693436D01*
X64001680Y134112483D02*
X63968346Y134188674D01*
X63901680Y134226769D01*
X63801680Y134226769D01*
X63735013Y134188674D01*
X63701680Y134112483D01*
X63701680Y133693436D01*
D19*
G04 #@! TO.C,R8*
X127577000Y118655286D02*
X127831000Y119018143D01*
X128012428Y118655286D02*
X128012428Y119417286D01*
X127722142Y119417286D01*
X127649571Y119381000D01*
X127613285Y119344715D01*
X127577000Y119272143D01*
X127577000Y119163286D01*
X127613285Y119090715D01*
X127649571Y119054429D01*
X127722142Y119018143D01*
X128012428Y119018143D01*
X127141571Y119090715D02*
X127214142Y119127000D01*
X127250428Y119163286D01*
X127286714Y119235858D01*
X127286714Y119272143D01*
X127250428Y119344715D01*
X127214142Y119381000D01*
X127141571Y119417286D01*
X126996428Y119417286D01*
X126923857Y119381000D01*
X126887571Y119344715D01*
X126851285Y119272143D01*
X126851285Y119235858D01*
X126887571Y119163286D01*
X126923857Y119127000D01*
X126996428Y119090715D01*
X127141571Y119090715D01*
X127214142Y119054429D01*
X127250428Y119018143D01*
X127286714Y118945572D01*
X127286714Y118800429D01*
X127250428Y118727858D01*
X127214142Y118691572D01*
X127141571Y118655286D01*
X126996428Y118655286D01*
X126923857Y118691572D01*
X126887571Y118727858D01*
X126851285Y118800429D01*
X126851285Y118945572D01*
X126887571Y119018143D01*
X126923857Y119054429D01*
X126996428Y119090715D01*
G04 #@! TO.C,R32*
X48514285Y125885626D02*
X48768285Y126248483D01*
X48949713Y125885626D02*
X48949713Y126647626D01*
X48659428Y126647626D01*
X48586856Y126611340D01*
X48550570Y126575055D01*
X48514285Y126502483D01*
X48514285Y126393626D01*
X48550570Y126321055D01*
X48586856Y126284769D01*
X48659428Y126248483D01*
X48949713Y126248483D01*
X48260285Y126647626D02*
X47788570Y126647626D01*
X48042570Y126357340D01*
X47933713Y126357340D01*
X47861142Y126321055D01*
X47824856Y126284769D01*
X47788570Y126212198D01*
X47788570Y126030769D01*
X47824856Y125958198D01*
X47861142Y125921912D01*
X47933713Y125885626D01*
X48151428Y125885626D01*
X48223999Y125921912D01*
X48260285Y125958198D01*
X47498285Y126575055D02*
X47461999Y126611340D01*
X47389428Y126647626D01*
X47207999Y126647626D01*
X47135428Y126611340D01*
X47099142Y126575055D01*
X47062856Y126502483D01*
X47062856Y126429912D01*
X47099142Y126321055D01*
X47534570Y125885626D01*
X47062856Y125885626D01*
D14*
G04 #@! TO.C,P5*
X63040475Y37707840D02*
X63040475Y38707840D01*
X62659522Y38707840D01*
X62564284Y38660220D01*
X62516665Y38612601D01*
X62469046Y38517363D01*
X62469046Y38374506D01*
X62516665Y38279268D01*
X62564284Y38231649D01*
X62659522Y38184030D01*
X63040475Y38184030D01*
X61564284Y38707840D02*
X62040475Y38707840D01*
X62088094Y38231649D01*
X62040475Y38279268D01*
X61945237Y38326887D01*
X61707141Y38326887D01*
X61611903Y38279268D01*
X61564284Y38231649D01*
X61516665Y38136411D01*
X61516665Y37898316D01*
X61564284Y37803078D01*
X61611903Y37755459D01*
X61707141Y37707840D01*
X61945237Y37707840D01*
X62040475Y37755459D01*
X62088094Y37803078D01*
G04 #@! TO.C,P6*
X63040475Y45210020D02*
X63040475Y46210020D01*
X62659522Y46210020D01*
X62564284Y46162400D01*
X62516665Y46114781D01*
X62469046Y46019543D01*
X62469046Y45876686D01*
X62516665Y45781448D01*
X62564284Y45733829D01*
X62659522Y45686210D01*
X63040475Y45686210D01*
X61611903Y46210020D02*
X61802380Y46210020D01*
X61897618Y46162400D01*
X61945237Y46114781D01*
X62040475Y45971924D01*
X62088094Y45781448D01*
X62088094Y45400496D01*
X62040475Y45305258D01*
X61992856Y45257639D01*
X61897618Y45210020D01*
X61707141Y45210020D01*
X61611903Y45257639D01*
X61564284Y45305258D01*
X61516665Y45400496D01*
X61516665Y45638591D01*
X61564284Y45733829D01*
X61611903Y45781448D01*
X61707141Y45829067D01*
X61897618Y45829067D01*
X61992856Y45781448D01*
X62040475Y45733829D01*
X62088094Y45638591D01*
G04 #@! TO.C,P47*
X41215965Y121977960D02*
X41215965Y122977960D01*
X40835013Y122977960D01*
X40739775Y122930340D01*
X40692156Y122882721D01*
X40644537Y122787483D01*
X40644537Y122644626D01*
X40692156Y122549388D01*
X40739775Y122501769D01*
X40835013Y122454150D01*
X41215965Y122454150D01*
X39787394Y122644626D02*
X39787394Y121977960D01*
X40025489Y123025579D02*
X40263584Y122311293D01*
X39644537Y122311293D01*
X39358822Y122977960D02*
X38692156Y122977960D01*
X39120727Y121977960D01*
G04 #@! TO.C,P19*
X116840965Y125377960D02*
X116840965Y126377960D01*
X116460013Y126377960D01*
X116364775Y126330340D01*
X116317156Y126282721D01*
X116269537Y126187483D01*
X116269537Y126044626D01*
X116317156Y125949388D01*
X116364775Y125901769D01*
X116460013Y125854150D01*
X116840965Y125854150D01*
X115317156Y125377960D02*
X115888584Y125377960D01*
X115602870Y125377960D02*
X115602870Y126377960D01*
X115698108Y126235102D01*
X115793346Y126139864D01*
X115888584Y126092245D01*
X114840965Y125377960D02*
X114650489Y125377960D01*
X114555251Y125425579D01*
X114507632Y125473198D01*
X114412394Y125616055D01*
X114364775Y125806531D01*
X114364775Y126187483D01*
X114412394Y126282721D01*
X114460013Y126330340D01*
X114555251Y126377960D01*
X114745727Y126377960D01*
X114840965Y126330340D01*
X114888584Y126282721D01*
X114936203Y126187483D01*
X114936203Y125949388D01*
X114888584Y125854150D01*
X114840965Y125806531D01*
X114745727Y125758912D01*
X114555251Y125758912D01*
X114460013Y125806531D01*
X114412394Y125854150D01*
X114364775Y125949388D01*
G04 #@! TO.C,P10*
X92540965Y128227960D02*
X92540965Y129227960D01*
X92160013Y129227960D01*
X92064775Y129180340D01*
X92017156Y129132721D01*
X91969537Y129037483D01*
X91969537Y128894626D01*
X92017156Y128799388D01*
X92064775Y128751769D01*
X92160013Y128704150D01*
X92540965Y128704150D01*
X91017156Y128227960D02*
X91588584Y128227960D01*
X91302870Y128227960D02*
X91302870Y129227960D01*
X91398108Y129085102D01*
X91493346Y128989864D01*
X91588584Y128942245D01*
X90398108Y129227960D02*
X90302870Y129227960D01*
X90207632Y129180340D01*
X90160013Y129132721D01*
X90112394Y129037483D01*
X90064775Y128847007D01*
X90064775Y128608912D01*
X90112394Y128418436D01*
X90160013Y128323198D01*
X90207632Y128275579D01*
X90302870Y128227960D01*
X90398108Y128227960D01*
X90493346Y128275579D01*
X90540965Y128323198D01*
X90588584Y128418436D01*
X90636203Y128608912D01*
X90636203Y128847007D01*
X90588584Y129037483D01*
X90540965Y129132721D01*
X90493346Y129180340D01*
X90398108Y129227960D01*
D19*
G04 #@! TO.C,R21*
X56366537Y125860605D02*
X56620537Y126223462D01*
X56801965Y125860605D02*
X56801965Y126622605D01*
X56511680Y126622605D01*
X56439108Y126586319D01*
X56402822Y126550034D01*
X56366537Y126477462D01*
X56366537Y126368605D01*
X56402822Y126296034D01*
X56439108Y126259748D01*
X56511680Y126223462D01*
X56801965Y126223462D01*
X56076251Y126550034D02*
X56039965Y126586319D01*
X55967394Y126622605D01*
X55785965Y126622605D01*
X55713394Y126586319D01*
X55677108Y126550034D01*
X55640822Y126477462D01*
X55640822Y126404891D01*
X55677108Y126296034D01*
X56112537Y125860605D01*
X55640822Y125860605D01*
X54915108Y125860605D02*
X55350537Y125860605D01*
X55132822Y125860605D02*
X55132822Y126622605D01*
X55205394Y126513748D01*
X55277965Y126441177D01*
X55350537Y126404891D01*
D14*
G04 #@! TO.C,P12*
X30915965Y80802960D02*
X30915965Y81802960D01*
X30535013Y81802960D01*
X30439775Y81755340D01*
X30392156Y81707721D01*
X30344537Y81612483D01*
X30344537Y81469626D01*
X30392156Y81374388D01*
X30439775Y81326769D01*
X30535013Y81279150D01*
X30915965Y81279150D01*
X29392156Y80802960D02*
X29963584Y80802960D01*
X29677870Y80802960D02*
X29677870Y81802960D01*
X29773108Y81660102D01*
X29868346Y81564864D01*
X29963584Y81517245D01*
X29011203Y81707721D02*
X28963584Y81755340D01*
X28868346Y81802960D01*
X28630251Y81802960D01*
X28535013Y81755340D01*
X28487394Y81707721D01*
X28439775Y81612483D01*
X28439775Y81517245D01*
X28487394Y81374388D01*
X29058822Y80802960D01*
X28439775Y80802960D01*
D19*
G04 #@! TO.C,R36*
X31930577Y126035626D02*
X32184577Y126398483D01*
X32366005Y126035626D02*
X32366005Y126797626D01*
X32075720Y126797626D01*
X32003148Y126761340D01*
X31966862Y126725055D01*
X31930577Y126652483D01*
X31930577Y126543626D01*
X31966862Y126471055D01*
X32003148Y126434769D01*
X32075720Y126398483D01*
X32366005Y126398483D01*
X31676577Y126797626D02*
X31204862Y126797626D01*
X31458862Y126507340D01*
X31350005Y126507340D01*
X31277434Y126471055D01*
X31241148Y126434769D01*
X31204862Y126362198D01*
X31204862Y126180769D01*
X31241148Y126108198D01*
X31277434Y126071912D01*
X31350005Y126035626D01*
X31567720Y126035626D01*
X31640291Y126071912D01*
X31676577Y126108198D01*
X30551720Y126797626D02*
X30696862Y126797626D01*
X30769434Y126761340D01*
X30805720Y126725055D01*
X30878291Y126616198D01*
X30914577Y126471055D01*
X30914577Y126180769D01*
X30878291Y126108198D01*
X30842005Y126071912D01*
X30769434Y126035626D01*
X30624291Y126035626D01*
X30551720Y126071912D01*
X30515434Y126108198D01*
X30479148Y126180769D01*
X30479148Y126362198D01*
X30515434Y126434769D01*
X30551720Y126471055D01*
X30624291Y126507340D01*
X30769434Y126507340D01*
X30842005Y126471055D01*
X30878291Y126434769D01*
X30914577Y126362198D01*
G04 #@! TO.C,R48*
X113441537Y125410626D02*
X113695537Y125773483D01*
X113876965Y125410626D02*
X113876965Y126172626D01*
X113586680Y126172626D01*
X113514108Y126136340D01*
X113477822Y126100055D01*
X113441537Y126027483D01*
X113441537Y125918626D01*
X113477822Y125846055D01*
X113514108Y125809769D01*
X113586680Y125773483D01*
X113876965Y125773483D01*
X112788394Y125918626D02*
X112788394Y125410626D01*
X112969822Y126208912D02*
X113151251Y125664626D01*
X112679537Y125664626D01*
X112280394Y125846055D02*
X112352965Y125882340D01*
X112389251Y125918626D01*
X112425537Y125991198D01*
X112425537Y126027483D01*
X112389251Y126100055D01*
X112352965Y126136340D01*
X112280394Y126172626D01*
X112135251Y126172626D01*
X112062680Y126136340D01*
X112026394Y126100055D01*
X111990108Y126027483D01*
X111990108Y125991198D01*
X112026394Y125918626D01*
X112062680Y125882340D01*
X112135251Y125846055D01*
X112280394Y125846055D01*
X112352965Y125809769D01*
X112389251Y125773483D01*
X112425537Y125700912D01*
X112425537Y125555769D01*
X112389251Y125483198D01*
X112352965Y125446912D01*
X112280394Y125410626D01*
X112135251Y125410626D01*
X112062680Y125446912D01*
X112026394Y125483198D01*
X111990108Y125555769D01*
X111990108Y125700912D01*
X112026394Y125773483D01*
X112062680Y125809769D01*
X112135251Y125846055D01*
D14*
G04 #@! TO.C,P15*
X89929060Y134744626D02*
X88929060Y134744626D01*
X88929060Y134363674D01*
X88976680Y134268436D01*
X89024299Y134220817D01*
X89119537Y134173198D01*
X89262394Y134173198D01*
X89357632Y134220817D01*
X89405251Y134268436D01*
X89452870Y134363674D01*
X89452870Y134744626D01*
X89929060Y133220817D02*
X89929060Y133792245D01*
X89929060Y133506531D02*
X88929060Y133506531D01*
X89071918Y133601769D01*
X89167156Y133697007D01*
X89214775Y133792245D01*
X88929060Y132316055D02*
X88929060Y132792245D01*
X89405251Y132839864D01*
X89357632Y132792245D01*
X89310013Y132697007D01*
X89310013Y132458912D01*
X89357632Y132363674D01*
X89405251Y132316055D01*
X89500489Y132268436D01*
X89738584Y132268436D01*
X89833822Y132316055D01*
X89881441Y132363674D01*
X89929060Y132458912D01*
X89929060Y132697007D01*
X89881441Y132792245D01*
X89833822Y132839864D01*
D19*
G04 #@! TO.C,R24*
X111960434Y122950197D02*
X111597577Y123204197D01*
X111960434Y123385625D02*
X111198434Y123385625D01*
X111198434Y123095339D01*
X111234720Y123022768D01*
X111271005Y122986482D01*
X111343577Y122950197D01*
X111452434Y122950197D01*
X111525005Y122986482D01*
X111561291Y123022768D01*
X111597577Y123095339D01*
X111597577Y123385625D01*
X111271005Y122659911D02*
X111234720Y122623625D01*
X111198434Y122551054D01*
X111198434Y122369625D01*
X111234720Y122297054D01*
X111271005Y122260768D01*
X111343577Y122224482D01*
X111416148Y122224482D01*
X111525005Y122260768D01*
X111960434Y122696197D01*
X111960434Y122224482D01*
X111452434Y121571339D02*
X111960434Y121571339D01*
X111162148Y121752768D02*
X111706434Y121934197D01*
X111706434Y121462482D01*
G04 #@! TO.C,R33*
X44230577Y126035626D02*
X44484577Y126398483D01*
X44666005Y126035626D02*
X44666005Y126797626D01*
X44375720Y126797626D01*
X44303148Y126761340D01*
X44266862Y126725055D01*
X44230577Y126652483D01*
X44230577Y126543626D01*
X44266862Y126471055D01*
X44303148Y126434769D01*
X44375720Y126398483D01*
X44666005Y126398483D01*
X43976577Y126797626D02*
X43504862Y126797626D01*
X43758862Y126507340D01*
X43650005Y126507340D01*
X43577434Y126471055D01*
X43541148Y126434769D01*
X43504862Y126362198D01*
X43504862Y126180769D01*
X43541148Y126108198D01*
X43577434Y126071912D01*
X43650005Y126035626D01*
X43867720Y126035626D01*
X43940291Y126071912D01*
X43976577Y126108198D01*
X43250862Y126797626D02*
X42779148Y126797626D01*
X43033148Y126507340D01*
X42924291Y126507340D01*
X42851720Y126471055D01*
X42815434Y126434769D01*
X42779148Y126362198D01*
X42779148Y126180769D01*
X42815434Y126108198D01*
X42851720Y126071912D01*
X42924291Y126035626D01*
X43142005Y126035626D01*
X43214577Y126071912D01*
X43250862Y126108198D01*
G04 #@! TO.C,R42*
X12321394Y128195198D02*
X11958537Y128449198D01*
X12321394Y128630626D02*
X11559394Y128630626D01*
X11559394Y128340340D01*
X11595680Y128267769D01*
X11631965Y128231483D01*
X11704537Y128195198D01*
X11813394Y128195198D01*
X11885965Y128231483D01*
X11922251Y128267769D01*
X11958537Y128340340D01*
X11958537Y128630626D01*
X11813394Y127542055D02*
X12321394Y127542055D01*
X11523108Y127723483D02*
X12067394Y127904912D01*
X12067394Y127433198D01*
X11631965Y127179198D02*
X11595680Y127142912D01*
X11559394Y127070340D01*
X11559394Y126888912D01*
X11595680Y126816340D01*
X11631965Y126780055D01*
X11704537Y126743769D01*
X11777108Y126743769D01*
X11885965Y126780055D01*
X12321394Y127215483D01*
X12321394Y126743769D01*
D14*
G04 #@! TO.C,P56*
X40704060Y134894626D02*
X39704060Y134894626D01*
X39704060Y134513674D01*
X39751680Y134418436D01*
X39799299Y134370817D01*
X39894537Y134323198D01*
X40037394Y134323198D01*
X40132632Y134370817D01*
X40180251Y134418436D01*
X40227870Y134513674D01*
X40227870Y134894626D01*
X39704060Y133418436D02*
X39704060Y133894626D01*
X40180251Y133942245D01*
X40132632Y133894626D01*
X40085013Y133799388D01*
X40085013Y133561293D01*
X40132632Y133466055D01*
X40180251Y133418436D01*
X40275489Y133370817D01*
X40513584Y133370817D01*
X40608822Y133418436D01*
X40656441Y133466055D01*
X40704060Y133561293D01*
X40704060Y133799388D01*
X40656441Y133894626D01*
X40608822Y133942245D01*
X39704060Y132513674D02*
X39704060Y132704150D01*
X39751680Y132799388D01*
X39799299Y132847007D01*
X39942156Y132942245D01*
X40132632Y132989864D01*
X40513584Y132989864D01*
X40608822Y132942245D01*
X40656441Y132894626D01*
X40704060Y132799388D01*
X40704060Y132608912D01*
X40656441Y132513674D01*
X40608822Y132466055D01*
X40513584Y132418436D01*
X40275489Y132418436D01*
X40180251Y132466055D01*
X40132632Y132513674D01*
X40085013Y132608912D01*
X40085013Y132799388D01*
X40132632Y132894626D01*
X40180251Y132942245D01*
X40275489Y132989864D01*
G04 #@! TO.C,P52*
X130708764Y126197620D02*
X130708764Y127197620D01*
X130327812Y127197620D01*
X130232574Y127150000D01*
X130184955Y127102381D01*
X130137336Y127007143D01*
X130137336Y126864286D01*
X130184955Y126769048D01*
X130232574Y126721429D01*
X130327812Y126673810D01*
X130708764Y126673810D01*
X129232574Y127197620D02*
X129708764Y127197620D01*
X129756383Y126721429D01*
X129708764Y126769048D01*
X129613526Y126816667D01*
X129375431Y126816667D01*
X129280193Y126769048D01*
X129232574Y126721429D01*
X129184955Y126626191D01*
X129184955Y126388096D01*
X129232574Y126292858D01*
X129280193Y126245239D01*
X129375431Y126197620D01*
X129613526Y126197620D01*
X129708764Y126245239D01*
X129756383Y126292858D01*
X128804002Y127102381D02*
X128756383Y127150000D01*
X128661145Y127197620D01*
X128423050Y127197620D01*
X128327812Y127150000D01*
X128280193Y127102381D01*
X128232574Y127007143D01*
X128232574Y126911905D01*
X128280193Y126769048D01*
X128851621Y126197620D01*
X128232574Y126197620D01*
G04 #@! TO.C,P44*
X93429060Y84344626D02*
X92429060Y84344626D01*
X92429060Y83963674D01*
X92476680Y83868436D01*
X92524299Y83820817D01*
X92619537Y83773198D01*
X92762394Y83773198D01*
X92857632Y83820817D01*
X92905251Y83868436D01*
X92952870Y83963674D01*
X92952870Y84344626D01*
X92762394Y82916055D02*
X93429060Y82916055D01*
X92381441Y83154150D02*
X93095727Y83392245D01*
X93095727Y82773198D01*
X92762394Y81963674D02*
X93429060Y81963674D01*
X92381441Y82201769D02*
X93095727Y82439864D01*
X93095727Y81820817D01*
G04 #@! TO.C,P13*
X33815965Y73402960D02*
X33815965Y74402960D01*
X33435013Y74402960D01*
X33339775Y74355340D01*
X33292156Y74307721D01*
X33244537Y74212483D01*
X33244537Y74069626D01*
X33292156Y73974388D01*
X33339775Y73926769D01*
X33435013Y73879150D01*
X33815965Y73879150D01*
X32292156Y73402960D02*
X32863584Y73402960D01*
X32577870Y73402960D02*
X32577870Y74402960D01*
X32673108Y74260102D01*
X32768346Y74164864D01*
X32863584Y74117245D01*
X31958822Y74402960D02*
X31339775Y74402960D01*
X31673108Y74022007D01*
X31530251Y74022007D01*
X31435013Y73974388D01*
X31387394Y73926769D01*
X31339775Y73831531D01*
X31339775Y73593436D01*
X31387394Y73498198D01*
X31435013Y73450579D01*
X31530251Y73402960D01*
X31815965Y73402960D01*
X31911203Y73450579D01*
X31958822Y73498198D01*
G04 #@! TO.C,P29*
X122115965Y43002960D02*
X122115965Y44002960D01*
X121735013Y44002960D01*
X121639775Y43955340D01*
X121592156Y43907721D01*
X121544537Y43812483D01*
X121544537Y43669626D01*
X121592156Y43574388D01*
X121639775Y43526769D01*
X121735013Y43479150D01*
X122115965Y43479150D01*
X121163584Y43907721D02*
X121115965Y43955340D01*
X121020727Y44002960D01*
X120782632Y44002960D01*
X120687394Y43955340D01*
X120639775Y43907721D01*
X120592156Y43812483D01*
X120592156Y43717245D01*
X120639775Y43574388D01*
X121211203Y43002960D01*
X120592156Y43002960D01*
X120115965Y43002960D02*
X119925489Y43002960D01*
X119830251Y43050579D01*
X119782632Y43098198D01*
X119687394Y43241055D01*
X119639775Y43431531D01*
X119639775Y43812483D01*
X119687394Y43907721D01*
X119735013Y43955340D01*
X119830251Y44002960D01*
X120020727Y44002960D01*
X120115965Y43955340D01*
X120163584Y43907721D01*
X120211203Y43812483D01*
X120211203Y43574388D01*
X120163584Y43479150D01*
X120115965Y43431531D01*
X120020727Y43383912D01*
X119830251Y43383912D01*
X119735013Y43431531D01*
X119687394Y43479150D01*
X119639775Y43574388D01*
D19*
G04 #@! TO.C,R43*
X53916537Y125885626D02*
X54170537Y126248483D01*
X54351965Y125885626D02*
X54351965Y126647626D01*
X54061680Y126647626D01*
X53989108Y126611340D01*
X53952822Y126575055D01*
X53916537Y126502483D01*
X53916537Y126393626D01*
X53952822Y126321055D01*
X53989108Y126284769D01*
X54061680Y126248483D01*
X54351965Y126248483D01*
X53263394Y126393626D02*
X53263394Y125885626D01*
X53444822Y126683912D02*
X53626251Y126139626D01*
X53154537Y126139626D01*
X52936822Y126647626D02*
X52465108Y126647626D01*
X52719108Y126357340D01*
X52610251Y126357340D01*
X52537680Y126321055D01*
X52501394Y126284769D01*
X52465108Y126212198D01*
X52465108Y126030769D01*
X52501394Y125958198D01*
X52537680Y125921912D01*
X52610251Y125885626D01*
X52827965Y125885626D01*
X52900537Y125921912D01*
X52936822Y125958198D01*
D14*
G04 #@! TO.C,P30*
X122115965Y35667840D02*
X122115965Y36667840D01*
X121735013Y36667840D01*
X121639775Y36620220D01*
X121592156Y36572601D01*
X121544537Y36477363D01*
X121544537Y36334506D01*
X121592156Y36239268D01*
X121639775Y36191649D01*
X121735013Y36144030D01*
X122115965Y36144030D01*
X121211203Y36667840D02*
X120592156Y36667840D01*
X120925489Y36286887D01*
X120782632Y36286887D01*
X120687394Y36239268D01*
X120639775Y36191649D01*
X120592156Y36096411D01*
X120592156Y35858316D01*
X120639775Y35763078D01*
X120687394Y35715459D01*
X120782632Y35667840D01*
X121068346Y35667840D01*
X121163584Y35715459D01*
X121211203Y35763078D01*
X119973108Y36667840D02*
X119877870Y36667840D01*
X119782632Y36620220D01*
X119735013Y36572601D01*
X119687394Y36477363D01*
X119639775Y36286887D01*
X119639775Y36048792D01*
X119687394Y35858316D01*
X119735013Y35763078D01*
X119782632Y35715459D01*
X119877870Y35667840D01*
X119973108Y35667840D01*
X120068346Y35715459D01*
X120115965Y35763078D01*
X120163584Y35858316D01*
X120211203Y36048792D01*
X120211203Y36286887D01*
X120163584Y36477363D01*
X120115965Y36572601D01*
X120068346Y36620220D01*
X119973108Y36667840D01*
G04 #@! TO.C,P4*
X65850735Y45207840D02*
X65850735Y46207840D01*
X65469782Y46207840D01*
X65374544Y46160220D01*
X65326925Y46112601D01*
X65279306Y46017363D01*
X65279306Y45874506D01*
X65326925Y45779268D01*
X65374544Y45731649D01*
X65469782Y45684030D01*
X65850735Y45684030D01*
X64422163Y45874506D02*
X64422163Y45207840D01*
X64660259Y46255459D02*
X64898354Y45541173D01*
X64279306Y45541173D01*
G04 #@! TO.C,P25*
X125115965Y35667840D02*
X125115965Y36667840D01*
X124735013Y36667840D01*
X124639775Y36620220D01*
X124592156Y36572601D01*
X124544537Y36477363D01*
X124544537Y36334506D01*
X124592156Y36239268D01*
X124639775Y36191649D01*
X124735013Y36144030D01*
X125115965Y36144030D01*
X124163584Y36572601D02*
X124115965Y36620220D01*
X124020727Y36667840D01*
X123782632Y36667840D01*
X123687394Y36620220D01*
X123639775Y36572601D01*
X123592156Y36477363D01*
X123592156Y36382125D01*
X123639775Y36239268D01*
X124211203Y35667840D01*
X123592156Y35667840D01*
X122687394Y36667840D02*
X123163584Y36667840D01*
X123211203Y36191649D01*
X123163584Y36239268D01*
X123068346Y36286887D01*
X122830251Y36286887D01*
X122735013Y36239268D01*
X122687394Y36191649D01*
X122639775Y36096411D01*
X122639775Y35858316D01*
X122687394Y35763078D01*
X122735013Y35715459D01*
X122830251Y35667840D01*
X123068346Y35667840D01*
X123163584Y35715459D01*
X123211203Y35763078D01*
D19*
G04 #@! TO.C,R17*
X133041537Y132010626D02*
X133295537Y132373483D01*
X133476965Y132010626D02*
X133476965Y132772626D01*
X133186680Y132772626D01*
X133114108Y132736340D01*
X133077822Y132700055D01*
X133041537Y132627483D01*
X133041537Y132518626D01*
X133077822Y132446055D01*
X133114108Y132409769D01*
X133186680Y132373483D01*
X133476965Y132373483D01*
X132315822Y132010626D02*
X132751251Y132010626D01*
X132533537Y132010626D02*
X132533537Y132772626D01*
X132606108Y132663769D01*
X132678680Y132591198D01*
X132751251Y132554912D01*
X132061822Y132772626D02*
X131553822Y132772626D01*
X131880394Y132010626D01*
D14*
G04 #@! TO.C,P55*
X117090965Y133052960D02*
X117090965Y134052960D01*
X116710013Y134052960D01*
X116614775Y134005340D01*
X116567156Y133957721D01*
X116519537Y133862483D01*
X116519537Y133719626D01*
X116567156Y133624388D01*
X116614775Y133576769D01*
X116710013Y133529150D01*
X117090965Y133529150D01*
X115614775Y134052960D02*
X116090965Y134052960D01*
X116138584Y133576769D01*
X116090965Y133624388D01*
X115995727Y133672007D01*
X115757632Y133672007D01*
X115662394Y133624388D01*
X115614775Y133576769D01*
X115567156Y133481531D01*
X115567156Y133243436D01*
X115614775Y133148198D01*
X115662394Y133100579D01*
X115757632Y133052960D01*
X115995727Y133052960D01*
X116090965Y133100579D01*
X116138584Y133148198D01*
X114662394Y134052960D02*
X115138584Y134052960D01*
X115186203Y133576769D01*
X115138584Y133624388D01*
X115043346Y133672007D01*
X114805251Y133672007D01*
X114710013Y133624388D01*
X114662394Y133576769D01*
X114614775Y133481531D01*
X114614775Y133243436D01*
X114662394Y133148198D01*
X114710013Y133100579D01*
X114805251Y133052960D01*
X115043346Y133052960D01*
X115138584Y133100579D01*
X115186203Y133148198D01*
G04 #@! TO.C,P17*
X71904060Y63019626D02*
X70904060Y63019626D01*
X70904060Y62638674D01*
X70951680Y62543436D01*
X70999299Y62495817D01*
X71094537Y62448198D01*
X71237394Y62448198D01*
X71332632Y62495817D01*
X71380251Y62543436D01*
X71427870Y62638674D01*
X71427870Y63019626D01*
X71904060Y61495817D02*
X71904060Y62067245D01*
X71904060Y61781531D02*
X70904060Y61781531D01*
X71046918Y61876769D01*
X71142156Y61972007D01*
X71189775Y62067245D01*
X70904060Y61162483D02*
X70904060Y60495817D01*
X71904060Y60924388D01*
G04 #@! TO.C,P11*
X30915965Y73402960D02*
X30915965Y74402960D01*
X30535013Y74402960D01*
X30439775Y74355340D01*
X30392156Y74307721D01*
X30344537Y74212483D01*
X30344537Y74069626D01*
X30392156Y73974388D01*
X30439775Y73926769D01*
X30535013Y73879150D01*
X30915965Y73879150D01*
X29392156Y73402960D02*
X29963584Y73402960D01*
X29677870Y73402960D02*
X29677870Y74402960D01*
X29773108Y74260102D01*
X29868346Y74164864D01*
X29963584Y74117245D01*
X28439775Y73402960D02*
X29011203Y73402960D01*
X28725489Y73402960D02*
X28725489Y74402960D01*
X28820727Y74260102D01*
X28915965Y74164864D01*
X29011203Y74117245D01*
G04 #@! TO.C,P50*
X29529060Y134594626D02*
X28529060Y134594626D01*
X28529060Y134213674D01*
X28576680Y134118436D01*
X28624299Y134070817D01*
X28719537Y134023198D01*
X28862394Y134023198D01*
X28957632Y134070817D01*
X29005251Y134118436D01*
X29052870Y134213674D01*
X29052870Y134594626D01*
X28529060Y133118436D02*
X28529060Y133594626D01*
X29005251Y133642245D01*
X28957632Y133594626D01*
X28910013Y133499388D01*
X28910013Y133261293D01*
X28957632Y133166055D01*
X29005251Y133118436D01*
X29100489Y133070817D01*
X29338584Y133070817D01*
X29433822Y133118436D01*
X29481441Y133166055D01*
X29529060Y133261293D01*
X29529060Y133499388D01*
X29481441Y133594626D01*
X29433822Y133642245D01*
X28529060Y132451769D02*
X28529060Y132356531D01*
X28576680Y132261293D01*
X28624299Y132213674D01*
X28719537Y132166055D01*
X28910013Y132118436D01*
X29148108Y132118436D01*
X29338584Y132166055D01*
X29433822Y132213674D01*
X29481441Y132261293D01*
X29529060Y132356531D01*
X29529060Y132451769D01*
X29481441Y132547007D01*
X29433822Y132594626D01*
X29338584Y132642245D01*
X29148108Y132689864D01*
X28910013Y132689864D01*
X28719537Y132642245D01*
X28624299Y132594626D01*
X28576680Y132547007D01*
X28529060Y132451769D01*
D19*
G04 #@! TO.C,R40*
X23531078Y123859724D02*
X23785078Y124222581D01*
X23966506Y123859724D02*
X23966506Y124621724D01*
X23676221Y124621724D01*
X23603649Y124585438D01*
X23567363Y124549153D01*
X23531078Y124476581D01*
X23531078Y124367724D01*
X23567363Y124295153D01*
X23603649Y124258867D01*
X23676221Y124222581D01*
X23966506Y124222581D01*
X22877935Y124367724D02*
X22877935Y123859724D01*
X23059363Y124658010D02*
X23240792Y124113724D01*
X22769078Y124113724D01*
X22333649Y124621724D02*
X22261078Y124621724D01*
X22188506Y124585438D01*
X22152221Y124549153D01*
X22115935Y124476581D01*
X22079649Y124331438D01*
X22079649Y124150010D01*
X22115935Y124004867D01*
X22152221Y123932296D01*
X22188506Y123896010D01*
X22261078Y123859724D01*
X22333649Y123859724D01*
X22406221Y123896010D01*
X22442506Y123932296D01*
X22478792Y124004867D01*
X22515078Y124150010D01*
X22515078Y124331438D01*
X22478792Y124476581D01*
X22442506Y124549153D01*
X22406221Y124585438D01*
X22333649Y124621724D01*
D14*
G04 #@! TO.C,P28*
X83365965Y73703840D02*
X83365965Y74703840D01*
X82985013Y74703840D01*
X82889775Y74656220D01*
X82842156Y74608601D01*
X82794537Y74513363D01*
X82794537Y74370506D01*
X82842156Y74275268D01*
X82889775Y74227649D01*
X82985013Y74180030D01*
X83365965Y74180030D01*
X82413584Y74608601D02*
X82365965Y74656220D01*
X82270727Y74703840D01*
X82032632Y74703840D01*
X81937394Y74656220D01*
X81889775Y74608601D01*
X81842156Y74513363D01*
X81842156Y74418125D01*
X81889775Y74275268D01*
X82461203Y73703840D01*
X81842156Y73703840D01*
X81270727Y74275268D02*
X81365965Y74322887D01*
X81413584Y74370506D01*
X81461203Y74465744D01*
X81461203Y74513363D01*
X81413584Y74608601D01*
X81365965Y74656220D01*
X81270727Y74703840D01*
X81080251Y74703840D01*
X80985013Y74656220D01*
X80937394Y74608601D01*
X80889775Y74513363D01*
X80889775Y74465744D01*
X80937394Y74370506D01*
X80985013Y74322887D01*
X81080251Y74275268D01*
X81270727Y74275268D01*
X81365965Y74227649D01*
X81413584Y74180030D01*
X81461203Y74084792D01*
X81461203Y73894316D01*
X81413584Y73799078D01*
X81365965Y73751459D01*
X81270727Y73703840D01*
X81080251Y73703840D01*
X80985013Y73751459D01*
X80937394Y73799078D01*
X80889775Y73894316D01*
X80889775Y74084792D01*
X80937394Y74180030D01*
X80985013Y74227649D01*
X81080251Y74275268D01*
G04 #@! TO.C,P24*
X125115965Y43002960D02*
X125115965Y44002960D01*
X124735013Y44002960D01*
X124639775Y43955340D01*
X124592156Y43907721D01*
X124544537Y43812483D01*
X124544537Y43669626D01*
X124592156Y43574388D01*
X124639775Y43526769D01*
X124735013Y43479150D01*
X125115965Y43479150D01*
X124163584Y43907721D02*
X124115965Y43955340D01*
X124020727Y44002960D01*
X123782632Y44002960D01*
X123687394Y43955340D01*
X123639775Y43907721D01*
X123592156Y43812483D01*
X123592156Y43717245D01*
X123639775Y43574388D01*
X124211203Y43002960D01*
X123592156Y43002960D01*
X122735013Y43669626D02*
X122735013Y43002960D01*
X122973108Y44050579D02*
X123211203Y43336293D01*
X122592156Y43336293D01*
G04 #@! TO.C,P8*
X94989775Y128252960D02*
X94989775Y129252960D01*
X94608822Y129252960D01*
X94513584Y129205340D01*
X94465965Y129157721D01*
X94418346Y129062483D01*
X94418346Y128919626D01*
X94465965Y128824388D01*
X94513584Y128776769D01*
X94608822Y128729150D01*
X94989775Y128729150D01*
X93846918Y128824388D02*
X93942156Y128872007D01*
X93989775Y128919626D01*
X94037394Y129014864D01*
X94037394Y129062483D01*
X93989775Y129157721D01*
X93942156Y129205340D01*
X93846918Y129252960D01*
X93656441Y129252960D01*
X93561203Y129205340D01*
X93513584Y129157721D01*
X93465965Y129062483D01*
X93465965Y129014864D01*
X93513584Y128919626D01*
X93561203Y128872007D01*
X93656441Y128824388D01*
X93846918Y128824388D01*
X93942156Y128776769D01*
X93989775Y128729150D01*
X94037394Y128633912D01*
X94037394Y128443436D01*
X93989775Y128348198D01*
X93942156Y128300579D01*
X93846918Y128252960D01*
X93656441Y128252960D01*
X93561203Y128300579D01*
X93513584Y128348198D01*
X93465965Y128443436D01*
X93465965Y128633912D01*
X93513584Y128729150D01*
X93561203Y128776769D01*
X93656441Y128824388D01*
D19*
G04 #@! TO.C,R38*
X15446394Y128220198D02*
X15083537Y128474198D01*
X15446394Y128655626D02*
X14684394Y128655626D01*
X14684394Y128365340D01*
X14720680Y128292769D01*
X14756965Y128256483D01*
X14829537Y128220198D01*
X14938394Y128220198D01*
X15010965Y128256483D01*
X15047251Y128292769D01*
X15083537Y128365340D01*
X15083537Y128655626D01*
X14684394Y127966198D02*
X14684394Y127494483D01*
X14974680Y127748483D01*
X14974680Y127639626D01*
X15010965Y127567055D01*
X15047251Y127530769D01*
X15119822Y127494483D01*
X15301251Y127494483D01*
X15373822Y127530769D01*
X15410108Y127567055D01*
X15446394Y127639626D01*
X15446394Y127857340D01*
X15410108Y127929912D01*
X15373822Y127966198D01*
X15010965Y127059055D02*
X14974680Y127131626D01*
X14938394Y127167912D01*
X14865822Y127204198D01*
X14829537Y127204198D01*
X14756965Y127167912D01*
X14720680Y127131626D01*
X14684394Y127059055D01*
X14684394Y126913912D01*
X14720680Y126841340D01*
X14756965Y126805055D01*
X14829537Y126768769D01*
X14865822Y126768769D01*
X14938394Y126805055D01*
X14974680Y126841340D01*
X15010965Y126913912D01*
X15010965Y127059055D01*
X15047251Y127131626D01*
X15083537Y127167912D01*
X15156108Y127204198D01*
X15301251Y127204198D01*
X15373822Y127167912D01*
X15410108Y127131626D01*
X15446394Y127059055D01*
X15446394Y126913912D01*
X15410108Y126841340D01*
X15373822Y126805055D01*
X15301251Y126768769D01*
X15156108Y126768769D01*
X15083537Y126805055D01*
X15047251Y126841340D01*
X15010965Y126913912D01*
G04 #@! TO.C,R44*
X125521394Y129395198D02*
X125158537Y129649198D01*
X125521394Y129830626D02*
X124759394Y129830626D01*
X124759394Y129540340D01*
X124795680Y129467769D01*
X124831965Y129431483D01*
X124904537Y129395198D01*
X125013394Y129395198D01*
X125085965Y129431483D01*
X125122251Y129467769D01*
X125158537Y129540340D01*
X125158537Y129830626D01*
X125013394Y128742055D02*
X125521394Y128742055D01*
X124723108Y128923483D02*
X125267394Y129104912D01*
X125267394Y128633198D01*
X125013394Y128016340D02*
X125521394Y128016340D01*
X124723108Y128197769D02*
X125267394Y128379198D01*
X125267394Y127907483D01*
G04 #@! TO.C,R30*
X35216537Y125885626D02*
X35470537Y126248483D01*
X35651965Y125885626D02*
X35651965Y126647626D01*
X35361680Y126647626D01*
X35289108Y126611340D01*
X35252822Y126575055D01*
X35216537Y126502483D01*
X35216537Y126393626D01*
X35252822Y126321055D01*
X35289108Y126284769D01*
X35361680Y126248483D01*
X35651965Y126248483D01*
X34962537Y126647626D02*
X34490822Y126647626D01*
X34744822Y126357340D01*
X34635965Y126357340D01*
X34563394Y126321055D01*
X34527108Y126284769D01*
X34490822Y126212198D01*
X34490822Y126030769D01*
X34527108Y125958198D01*
X34563394Y125921912D01*
X34635965Y125885626D01*
X34853680Y125885626D01*
X34926251Y125921912D01*
X34962537Y125958198D01*
X34019108Y126647626D02*
X33946537Y126647626D01*
X33873965Y126611340D01*
X33837680Y126575055D01*
X33801394Y126502483D01*
X33765108Y126357340D01*
X33765108Y126175912D01*
X33801394Y126030769D01*
X33837680Y125958198D01*
X33873965Y125921912D01*
X33946537Y125885626D01*
X34019108Y125885626D01*
X34091680Y125921912D01*
X34127965Y125958198D01*
X34164251Y126030769D01*
X34200537Y126175912D01*
X34200537Y126357340D01*
X34164251Y126502483D01*
X34127965Y126575055D01*
X34091680Y126611340D01*
X34019108Y126647626D01*
D14*
G04 #@! TO.C,P48*
X33579060Y134644626D02*
X32579060Y134644626D01*
X32579060Y134263674D01*
X32626680Y134168436D01*
X32674299Y134120817D01*
X32769537Y134073198D01*
X32912394Y134073198D01*
X33007632Y134120817D01*
X33055251Y134168436D01*
X33102870Y134263674D01*
X33102870Y134644626D01*
X32912394Y133216055D02*
X33579060Y133216055D01*
X32531441Y133454150D02*
X33245727Y133692245D01*
X33245727Y133073198D01*
X33007632Y132549388D02*
X32960013Y132644626D01*
X32912394Y132692245D01*
X32817156Y132739864D01*
X32769537Y132739864D01*
X32674299Y132692245D01*
X32626680Y132644626D01*
X32579060Y132549388D01*
X32579060Y132358912D01*
X32626680Y132263674D01*
X32674299Y132216055D01*
X32769537Y132168436D01*
X32817156Y132168436D01*
X32912394Y132216055D01*
X32960013Y132263674D01*
X33007632Y132358912D01*
X33007632Y132549388D01*
X33055251Y132644626D01*
X33102870Y132692245D01*
X33198108Y132739864D01*
X33388584Y132739864D01*
X33483822Y132692245D01*
X33531441Y132644626D01*
X33579060Y132549388D01*
X33579060Y132358912D01*
X33531441Y132263674D01*
X33483822Y132216055D01*
X33388584Y132168436D01*
X33198108Y132168436D01*
X33102870Y132216055D01*
X33055251Y132263674D01*
X33007632Y132358912D01*
D19*
G04 #@! TO.C,R31*
X130141537Y118635626D02*
X130395537Y118998483D01*
X130576965Y118635626D02*
X130576965Y119397626D01*
X130286680Y119397626D01*
X130214108Y119361340D01*
X130177822Y119325055D01*
X130141537Y119252483D01*
X130141537Y119143626D01*
X130177822Y119071055D01*
X130214108Y119034769D01*
X130286680Y118998483D01*
X130576965Y118998483D01*
X129887537Y119397626D02*
X129415822Y119397626D01*
X129669822Y119107340D01*
X129560965Y119107340D01*
X129488394Y119071055D01*
X129452108Y119034769D01*
X129415822Y118962198D01*
X129415822Y118780769D01*
X129452108Y118708198D01*
X129488394Y118671912D01*
X129560965Y118635626D01*
X129778680Y118635626D01*
X129851251Y118671912D01*
X129887537Y118708198D01*
X128690108Y118635626D02*
X129125537Y118635626D01*
X128907822Y118635626D02*
X128907822Y119397626D01*
X128980394Y119288769D01*
X129052965Y119216198D01*
X129125537Y119179912D01*
D14*
G04 #@! TO.C,P32*
X119115965Y35667840D02*
X119115965Y36667840D01*
X118735013Y36667840D01*
X118639775Y36620220D01*
X118592156Y36572601D01*
X118544537Y36477363D01*
X118544537Y36334506D01*
X118592156Y36239268D01*
X118639775Y36191649D01*
X118735013Y36144030D01*
X119115965Y36144030D01*
X118211203Y36667840D02*
X117592156Y36667840D01*
X117925489Y36286887D01*
X117782632Y36286887D01*
X117687394Y36239268D01*
X117639775Y36191649D01*
X117592156Y36096411D01*
X117592156Y35858316D01*
X117639775Y35763078D01*
X117687394Y35715459D01*
X117782632Y35667840D01*
X118068346Y35667840D01*
X118163584Y35715459D01*
X118211203Y35763078D01*
X117211203Y36572601D02*
X117163584Y36620220D01*
X117068346Y36667840D01*
X116830251Y36667840D01*
X116735013Y36620220D01*
X116687394Y36572601D01*
X116639775Y36477363D01*
X116639775Y36382125D01*
X116687394Y36239268D01*
X117258822Y35667840D01*
X116639775Y35667840D01*
G04 #@! TO.C,P9*
X96804060Y134268436D02*
X95804060Y134268436D01*
X95804060Y133887483D01*
X95851680Y133792245D01*
X95899299Y133744626D01*
X95994537Y133697007D01*
X96137394Y133697007D01*
X96232632Y133744626D01*
X96280251Y133792245D01*
X96327870Y133887483D01*
X96327870Y134268436D01*
X96804060Y133220817D02*
X96804060Y133030340D01*
X96756441Y132935102D01*
X96708822Y132887483D01*
X96565965Y132792245D01*
X96375489Y132744626D01*
X95994537Y132744626D01*
X95899299Y132792245D01*
X95851680Y132839864D01*
X95804060Y132935102D01*
X95804060Y133125579D01*
X95851680Y133220817D01*
X95899299Y133268436D01*
X95994537Y133316055D01*
X96232632Y133316055D01*
X96327870Y133268436D01*
X96375489Y133220817D01*
X96423108Y133125579D01*
X96423108Y132935102D01*
X96375489Y132839864D01*
X96327870Y132792245D01*
X96232632Y132744626D01*
G04 #@! TO.C,P23*
X49115965Y80802960D02*
X49115965Y81802960D01*
X48735013Y81802960D01*
X48639775Y81755340D01*
X48592156Y81707721D01*
X48544537Y81612483D01*
X48544537Y81469626D01*
X48592156Y81374388D01*
X48639775Y81326769D01*
X48735013Y81279150D01*
X49115965Y81279150D01*
X48163584Y81707721D02*
X48115965Y81755340D01*
X48020727Y81802960D01*
X47782632Y81802960D01*
X47687394Y81755340D01*
X47639775Y81707721D01*
X47592156Y81612483D01*
X47592156Y81517245D01*
X47639775Y81374388D01*
X48211203Y80802960D01*
X47592156Y80802960D01*
X47258822Y81802960D02*
X46639775Y81802960D01*
X46973108Y81422007D01*
X46830251Y81422007D01*
X46735013Y81374388D01*
X46687394Y81326769D01*
X46639775Y81231531D01*
X46639775Y80993436D01*
X46687394Y80898198D01*
X46735013Y80850579D01*
X46830251Y80802960D01*
X47115965Y80802960D01*
X47211203Y80850579D01*
X47258822Y80898198D01*
D19*
G04 #@! TO.C,R47*
X110436884Y125531691D02*
X110690884Y125894548D01*
X110872312Y125531691D02*
X110872312Y126293691D01*
X110582027Y126293691D01*
X110509455Y126257405D01*
X110473169Y126221120D01*
X110436884Y126148548D01*
X110436884Y126039691D01*
X110473169Y125967120D01*
X110509455Y125930834D01*
X110582027Y125894548D01*
X110872312Y125894548D01*
X109783741Y126039691D02*
X109783741Y125531691D01*
X109965169Y126329977D02*
X110146598Y125785691D01*
X109674884Y125785691D01*
X109457169Y126293691D02*
X108949169Y126293691D01*
X109275741Y125531691D01*
G04 #@! TO.C,F1*
X27830680Y132459769D02*
X28084680Y132459769D01*
X28084680Y132060626D02*
X28084680Y132822626D01*
X27721822Y132822626D01*
X27032394Y132060626D02*
X27467822Y132060626D01*
X27250108Y132060626D02*
X27250108Y132822626D01*
X27322680Y132713769D01*
X27395251Y132641198D01*
X27467822Y132604912D01*
G04 #@! TO.C,F3*
X19597251Y134459340D02*
X19597251Y134713340D01*
X19996394Y134713340D02*
X19234394Y134713340D01*
X19234394Y134350483D01*
X19234394Y134132769D02*
X19234394Y133661055D01*
X19524680Y133915055D01*
X19524680Y133806198D01*
X19560965Y133733626D01*
X19597251Y133697340D01*
X19669822Y133661055D01*
X19851251Y133661055D01*
X19923822Y133697340D01*
X19960108Y133733626D01*
X19996394Y133806198D01*
X19996394Y134023912D01*
X19960108Y134096483D01*
X19923822Y134132769D01*
G04 #@! TO.C,R34*
X39612605Y125913845D02*
X39866605Y126276702D01*
X40048033Y125913845D02*
X40048033Y126675845D01*
X39757748Y126675845D01*
X39685176Y126639559D01*
X39648890Y126603274D01*
X39612605Y126530702D01*
X39612605Y126421845D01*
X39648890Y126349274D01*
X39685176Y126312988D01*
X39757748Y126276702D01*
X40048033Y126276702D01*
X39358605Y126675845D02*
X38886890Y126675845D01*
X39140890Y126385559D01*
X39032033Y126385559D01*
X38959462Y126349274D01*
X38923176Y126312988D01*
X38886890Y126240417D01*
X38886890Y126058988D01*
X38923176Y125986417D01*
X38959462Y125950131D01*
X39032033Y125913845D01*
X39249748Y125913845D01*
X39322319Y125950131D01*
X39358605Y125986417D01*
X38233748Y126421845D02*
X38233748Y125913845D01*
X38415176Y126712131D02*
X38596605Y126167845D01*
X38124890Y126167845D01*
G04 #@! TO.C,R35*
X25816537Y123860626D02*
X26070537Y124223483D01*
X26251965Y123860626D02*
X26251965Y124622626D01*
X25961680Y124622626D01*
X25889108Y124586340D01*
X25852822Y124550055D01*
X25816537Y124477483D01*
X25816537Y124368626D01*
X25852822Y124296055D01*
X25889108Y124259769D01*
X25961680Y124223483D01*
X26251965Y124223483D01*
X25562537Y124622626D02*
X25090822Y124622626D01*
X25344822Y124332340D01*
X25235965Y124332340D01*
X25163394Y124296055D01*
X25127108Y124259769D01*
X25090822Y124187198D01*
X25090822Y124005769D01*
X25127108Y123933198D01*
X25163394Y123896912D01*
X25235965Y123860626D01*
X25453680Y123860626D01*
X25526251Y123896912D01*
X25562537Y123933198D01*
X24401394Y124622626D02*
X24764251Y124622626D01*
X24800537Y124259769D01*
X24764251Y124296055D01*
X24691680Y124332340D01*
X24510251Y124332340D01*
X24437680Y124296055D01*
X24401394Y124259769D01*
X24365108Y124187198D01*
X24365108Y124005769D01*
X24401394Y123933198D01*
X24437680Y123896912D01*
X24510251Y123860626D01*
X24691680Y123860626D01*
X24764251Y123896912D01*
X24800537Y123933198D01*
D14*
G04 #@! TO.C,P14*
X33815965Y80781840D02*
X33815965Y81781840D01*
X33435013Y81781840D01*
X33339775Y81734220D01*
X33292156Y81686601D01*
X33244537Y81591363D01*
X33244537Y81448506D01*
X33292156Y81353268D01*
X33339775Y81305649D01*
X33435013Y81258030D01*
X33815965Y81258030D01*
X32292156Y80781840D02*
X32863584Y80781840D01*
X32577870Y80781840D02*
X32577870Y81781840D01*
X32673108Y81638982D01*
X32768346Y81543744D01*
X32863584Y81496125D01*
X31435013Y81448506D02*
X31435013Y80781840D01*
X31673108Y81829459D02*
X31911203Y81115173D01*
X31292156Y81115173D01*
D19*
G04 #@! TO.C,R22*
X41962605Y125910626D02*
X42216605Y126273483D01*
X42398033Y125910626D02*
X42398033Y126672626D01*
X42107748Y126672626D01*
X42035176Y126636340D01*
X41998890Y126600055D01*
X41962605Y126527483D01*
X41962605Y126418626D01*
X41998890Y126346055D01*
X42035176Y126309769D01*
X42107748Y126273483D01*
X42398033Y126273483D01*
X41672319Y126600055D02*
X41636033Y126636340D01*
X41563462Y126672626D01*
X41382033Y126672626D01*
X41309462Y126636340D01*
X41273176Y126600055D01*
X41236890Y126527483D01*
X41236890Y126454912D01*
X41273176Y126346055D01*
X41708605Y125910626D01*
X41236890Y125910626D01*
X40946605Y126600055D02*
X40910319Y126636340D01*
X40837748Y126672626D01*
X40656319Y126672626D01*
X40583748Y126636340D01*
X40547462Y126600055D01*
X40511176Y126527483D01*
X40511176Y126454912D01*
X40547462Y126346055D01*
X40982890Y125910626D01*
X40511176Y125910626D01*
G04 #@! TO.C,R37*
X21241537Y123910626D02*
X21495537Y124273483D01*
X21676965Y123910626D02*
X21676965Y124672626D01*
X21386680Y124672626D01*
X21314108Y124636340D01*
X21277822Y124600055D01*
X21241537Y124527483D01*
X21241537Y124418626D01*
X21277822Y124346055D01*
X21314108Y124309769D01*
X21386680Y124273483D01*
X21676965Y124273483D01*
X20987537Y124672626D02*
X20515822Y124672626D01*
X20769822Y124382340D01*
X20660965Y124382340D01*
X20588394Y124346055D01*
X20552108Y124309769D01*
X20515822Y124237198D01*
X20515822Y124055769D01*
X20552108Y123983198D01*
X20588394Y123946912D01*
X20660965Y123910626D01*
X20878680Y123910626D01*
X20951251Y123946912D01*
X20987537Y123983198D01*
X20261822Y124672626D02*
X19753822Y124672626D01*
X20080394Y123910626D01*
G04 #@! TO.C,R28*
X46339285Y125885626D02*
X46593285Y126248483D01*
X46774713Y125885626D02*
X46774713Y126647626D01*
X46484428Y126647626D01*
X46411856Y126611340D01*
X46375570Y126575055D01*
X46339285Y126502483D01*
X46339285Y126393626D01*
X46375570Y126321055D01*
X46411856Y126284769D01*
X46484428Y126248483D01*
X46774713Y126248483D01*
X46048999Y126575055D02*
X46012713Y126611340D01*
X45940142Y126647626D01*
X45758713Y126647626D01*
X45686142Y126611340D01*
X45649856Y126575055D01*
X45613570Y126502483D01*
X45613570Y126429912D01*
X45649856Y126321055D01*
X46085285Y125885626D01*
X45613570Y125885626D01*
X45178142Y126321055D02*
X45250713Y126357340D01*
X45286999Y126393626D01*
X45323285Y126466198D01*
X45323285Y126502483D01*
X45286999Y126575055D01*
X45250713Y126611340D01*
X45178142Y126647626D01*
X45032999Y126647626D01*
X44960428Y126611340D01*
X44924142Y126575055D01*
X44887856Y126502483D01*
X44887856Y126466198D01*
X44924142Y126393626D01*
X44960428Y126357340D01*
X45032999Y126321055D01*
X45178142Y126321055D01*
X45250713Y126284769D01*
X45286999Y126248483D01*
X45323285Y126175912D01*
X45323285Y126030769D01*
X45286999Y125958198D01*
X45250713Y125921912D01*
X45178142Y125885626D01*
X45032999Y125885626D01*
X44960428Y125921912D01*
X44924142Y125958198D01*
X44887856Y126030769D01*
X44887856Y126175912D01*
X44924142Y126248483D01*
X44960428Y126284769D01*
X45032999Y126321055D01*
G04 #@! TO.C,R26*
X134916537Y118735626D02*
X135170537Y119098483D01*
X135351965Y118735626D02*
X135351965Y119497626D01*
X135061680Y119497626D01*
X134989108Y119461340D01*
X134952822Y119425055D01*
X134916537Y119352483D01*
X134916537Y119243626D01*
X134952822Y119171055D01*
X134989108Y119134769D01*
X135061680Y119098483D01*
X135351965Y119098483D01*
X134626251Y119425055D02*
X134589965Y119461340D01*
X134517394Y119497626D01*
X134335965Y119497626D01*
X134263394Y119461340D01*
X134227108Y119425055D01*
X134190822Y119352483D01*
X134190822Y119279912D01*
X134227108Y119171055D01*
X134662537Y118735626D01*
X134190822Y118735626D01*
X133537680Y119497626D02*
X133682822Y119497626D01*
X133755394Y119461340D01*
X133791680Y119425055D01*
X133864251Y119316198D01*
X133900537Y119171055D01*
X133900537Y118880769D01*
X133864251Y118808198D01*
X133827965Y118771912D01*
X133755394Y118735626D01*
X133610251Y118735626D01*
X133537680Y118771912D01*
X133501394Y118808198D01*
X133465108Y118880769D01*
X133465108Y119062198D01*
X133501394Y119134769D01*
X133537680Y119171055D01*
X133610251Y119207340D01*
X133755394Y119207340D01*
X133827965Y119171055D01*
X133864251Y119134769D01*
X133900537Y119062198D01*
D14*
G04 #@! TO.C,P22*
X71904060Y68619626D02*
X70904060Y68619626D01*
X70904060Y68238674D01*
X70951680Y68143436D01*
X70999299Y68095817D01*
X71094537Y68048198D01*
X71237394Y68048198D01*
X71332632Y68095817D01*
X71380251Y68143436D01*
X71427870Y68238674D01*
X71427870Y68619626D01*
X70999299Y67667245D02*
X70951680Y67619626D01*
X70904060Y67524388D01*
X70904060Y67286293D01*
X70951680Y67191055D01*
X70999299Y67143436D01*
X71094537Y67095817D01*
X71189775Y67095817D01*
X71332632Y67143436D01*
X71904060Y67714864D01*
X71904060Y67095817D01*
X70999299Y66714864D02*
X70951680Y66667245D01*
X70904060Y66572007D01*
X70904060Y66333912D01*
X70951680Y66238674D01*
X70999299Y66191055D01*
X71094537Y66143436D01*
X71189775Y66143436D01*
X71332632Y66191055D01*
X71904060Y66762483D01*
X71904060Y66143436D01*
D19*
G04 #@! TO.C,R25*
X135191537Y125410626D02*
X135445537Y125773483D01*
X135626965Y125410626D02*
X135626965Y126172626D01*
X135336680Y126172626D01*
X135264108Y126136340D01*
X135227822Y126100055D01*
X135191537Y126027483D01*
X135191537Y125918626D01*
X135227822Y125846055D01*
X135264108Y125809769D01*
X135336680Y125773483D01*
X135626965Y125773483D01*
X134901251Y126100055D02*
X134864965Y126136340D01*
X134792394Y126172626D01*
X134610965Y126172626D01*
X134538394Y126136340D01*
X134502108Y126100055D01*
X134465822Y126027483D01*
X134465822Y125954912D01*
X134502108Y125846055D01*
X134937537Y125410626D01*
X134465822Y125410626D01*
X133776394Y126172626D02*
X134139251Y126172626D01*
X134175537Y125809769D01*
X134139251Y125846055D01*
X134066680Y125882340D01*
X133885251Y125882340D01*
X133812680Y125846055D01*
X133776394Y125809769D01*
X133740108Y125737198D01*
X133740108Y125555769D01*
X133776394Y125483198D01*
X133812680Y125446912D01*
X133885251Y125410626D01*
X134066680Y125410626D01*
X134139251Y125446912D01*
X134175537Y125483198D01*
D14*
G04 #@! TO.C,P20*
X64604060Y71419626D02*
X63604060Y71419626D01*
X63604060Y71038674D01*
X63651680Y70943436D01*
X63699299Y70895817D01*
X63794537Y70848198D01*
X63937394Y70848198D01*
X64032632Y70895817D01*
X64080251Y70943436D01*
X64127870Y71038674D01*
X64127870Y71419626D01*
X63699299Y70467245D02*
X63651680Y70419626D01*
X63604060Y70324388D01*
X63604060Y70086293D01*
X63651680Y69991055D01*
X63699299Y69943436D01*
X63794537Y69895817D01*
X63889775Y69895817D01*
X64032632Y69943436D01*
X64604060Y70514864D01*
X64604060Y69895817D01*
X63604060Y69276769D02*
X63604060Y69181531D01*
X63651680Y69086293D01*
X63699299Y69038674D01*
X63794537Y68991055D01*
X63985013Y68943436D01*
X64223108Y68943436D01*
X64413584Y68991055D01*
X64508822Y69038674D01*
X64556441Y69086293D01*
X64604060Y69181531D01*
X64604060Y69276769D01*
X64556441Y69372007D01*
X64508822Y69419626D01*
X64413584Y69467245D01*
X64223108Y69514864D01*
X63985013Y69514864D01*
X63794537Y69467245D01*
X63699299Y69419626D01*
X63651680Y69372007D01*
X63604060Y69276769D01*
G04 #@! TO.C,P18*
X64604060Y65819626D02*
X63604060Y65819626D01*
X63604060Y65438674D01*
X63651680Y65343436D01*
X63699299Y65295817D01*
X63794537Y65248198D01*
X63937394Y65248198D01*
X64032632Y65295817D01*
X64080251Y65343436D01*
X64127870Y65438674D01*
X64127870Y65819626D01*
X64604060Y64295817D02*
X64604060Y64867245D01*
X64604060Y64581531D02*
X63604060Y64581531D01*
X63746918Y64676769D01*
X63842156Y64772007D01*
X63889775Y64867245D01*
X64032632Y63724388D02*
X63985013Y63819626D01*
X63937394Y63867245D01*
X63842156Y63914864D01*
X63794537Y63914864D01*
X63699299Y63867245D01*
X63651680Y63819626D01*
X63604060Y63724388D01*
X63604060Y63533912D01*
X63651680Y63438674D01*
X63699299Y63391055D01*
X63794537Y63343436D01*
X63842156Y63343436D01*
X63937394Y63391055D01*
X63985013Y63438674D01*
X64032632Y63533912D01*
X64032632Y63724388D01*
X64080251Y63819626D01*
X64127870Y63867245D01*
X64223108Y63914864D01*
X64413584Y63914864D01*
X64508822Y63867245D01*
X64556441Y63819626D01*
X64604060Y63724388D01*
X64604060Y63533912D01*
X64556441Y63438674D01*
X64508822Y63391055D01*
X64413584Y63343436D01*
X64223108Y63343436D01*
X64127870Y63391055D01*
X64080251Y63438674D01*
X64032632Y63533912D01*
D19*
G04 #@! TO.C,R27*
X107766537Y125560626D02*
X108020537Y125923483D01*
X108201965Y125560626D02*
X108201965Y126322626D01*
X107911680Y126322626D01*
X107839108Y126286340D01*
X107802822Y126250055D01*
X107766537Y126177483D01*
X107766537Y126068626D01*
X107802822Y125996055D01*
X107839108Y125959769D01*
X107911680Y125923483D01*
X108201965Y125923483D01*
X107476251Y126250055D02*
X107439965Y126286340D01*
X107367394Y126322626D01*
X107185965Y126322626D01*
X107113394Y126286340D01*
X107077108Y126250055D01*
X107040822Y126177483D01*
X107040822Y126104912D01*
X107077108Y125996055D01*
X107512537Y125560626D01*
X107040822Y125560626D01*
X106786822Y126322626D02*
X106278822Y126322626D01*
X106605394Y125560626D01*
D14*
G04 #@! TO.C,P53*
X123939285Y126272620D02*
X123939285Y127272620D01*
X123558333Y127272620D01*
X123463095Y127225000D01*
X123415476Y127177381D01*
X123367857Y127082143D01*
X123367857Y126939286D01*
X123415476Y126844048D01*
X123463095Y126796429D01*
X123558333Y126748810D01*
X123939285Y126748810D01*
X122463095Y127272620D02*
X122939285Y127272620D01*
X122986904Y126796429D01*
X122939285Y126844048D01*
X122844047Y126891667D01*
X122605952Y126891667D01*
X122510714Y126844048D01*
X122463095Y126796429D01*
X122415476Y126701191D01*
X122415476Y126463096D01*
X122463095Y126367858D01*
X122510714Y126320239D01*
X122605952Y126272620D01*
X122844047Y126272620D01*
X122939285Y126320239D01*
X122986904Y126367858D01*
X122082142Y127272620D02*
X121463095Y127272620D01*
X121796428Y126891667D01*
X121653571Y126891667D01*
X121558333Y126844048D01*
X121510714Y126796429D01*
X121463095Y126701191D01*
X121463095Y126463096D01*
X121510714Y126367858D01*
X121558333Y126320239D01*
X121653571Y126272620D01*
X121939285Y126272620D01*
X122034523Y126320239D01*
X122082142Y126367858D01*
D19*
G04 #@! TO.C,R39*
X18941537Y123910626D02*
X19195537Y124273483D01*
X19376965Y123910626D02*
X19376965Y124672626D01*
X19086680Y124672626D01*
X19014108Y124636340D01*
X18977822Y124600055D01*
X18941537Y124527483D01*
X18941537Y124418626D01*
X18977822Y124346055D01*
X19014108Y124309769D01*
X19086680Y124273483D01*
X19376965Y124273483D01*
X18687537Y124672626D02*
X18215822Y124672626D01*
X18469822Y124382340D01*
X18360965Y124382340D01*
X18288394Y124346055D01*
X18252108Y124309769D01*
X18215822Y124237198D01*
X18215822Y124055769D01*
X18252108Y123983198D01*
X18288394Y123946912D01*
X18360965Y123910626D01*
X18578680Y123910626D01*
X18651251Y123946912D01*
X18687537Y123983198D01*
X17852965Y123910626D02*
X17707822Y123910626D01*
X17635251Y123946912D01*
X17598965Y123983198D01*
X17526394Y124092055D01*
X17490108Y124237198D01*
X17490108Y124527483D01*
X17526394Y124600055D01*
X17562680Y124636340D01*
X17635251Y124672626D01*
X17780394Y124672626D01*
X17852965Y124636340D01*
X17889251Y124600055D01*
X17925537Y124527483D01*
X17925537Y124346055D01*
X17889251Y124273483D01*
X17852965Y124237198D01*
X17780394Y124200912D01*
X17635251Y124200912D01*
X17562680Y124237198D01*
X17526394Y124273483D01*
X17490108Y124346055D01*
G04 #@! TO.C,R49*
X104591537Y125410626D02*
X104845537Y125773483D01*
X105026965Y125410626D02*
X105026965Y126172626D01*
X104736680Y126172626D01*
X104664108Y126136340D01*
X104627822Y126100055D01*
X104591537Y126027483D01*
X104591537Y125918626D01*
X104627822Y125846055D01*
X104664108Y125809769D01*
X104736680Y125773483D01*
X105026965Y125773483D01*
X103938394Y125918626D02*
X103938394Y125410626D01*
X104119822Y126208912D02*
X104301251Y125664626D01*
X103829537Y125664626D01*
X103502965Y125410626D02*
X103357822Y125410626D01*
X103285251Y125446912D01*
X103248965Y125483198D01*
X103176394Y125592055D01*
X103140108Y125737198D01*
X103140108Y126027483D01*
X103176394Y126100055D01*
X103212680Y126136340D01*
X103285251Y126172626D01*
X103430394Y126172626D01*
X103502965Y126136340D01*
X103539251Y126100055D01*
X103575537Y126027483D01*
X103575537Y125846055D01*
X103539251Y125773483D01*
X103502965Y125737198D01*
X103430394Y125700912D01*
X103285251Y125700912D01*
X103212680Y125737198D01*
X103176394Y125773483D01*
X103140108Y125846055D01*
D14*
G04 #@! TO.C,P7*
X13179060Y124493436D02*
X12179060Y124493436D01*
X12179060Y124112483D01*
X12226680Y124017245D01*
X12274299Y123969626D01*
X12369537Y123922007D01*
X12512394Y123922007D01*
X12607632Y123969626D01*
X12655251Y124017245D01*
X12702870Y124112483D01*
X12702870Y124493436D01*
X12179060Y123588674D02*
X12179060Y122922007D01*
X13179060Y123350579D01*
D19*
G04 #@! TO.C,R20*
X37362605Y125957965D02*
X37616605Y126320822D01*
X37798033Y125957965D02*
X37798033Y126719965D01*
X37507748Y126719965D01*
X37435176Y126683679D01*
X37398890Y126647394D01*
X37362605Y126574822D01*
X37362605Y126465965D01*
X37398890Y126393394D01*
X37435176Y126357108D01*
X37507748Y126320822D01*
X37798033Y126320822D01*
X37072319Y126647394D02*
X37036033Y126683679D01*
X36963462Y126719965D01*
X36782033Y126719965D01*
X36709462Y126683679D01*
X36673176Y126647394D01*
X36636890Y126574822D01*
X36636890Y126502251D01*
X36673176Y126393394D01*
X37108605Y125957965D01*
X36636890Y125957965D01*
X36165176Y126719965D02*
X36092605Y126719965D01*
X36020033Y126683679D01*
X35983748Y126647394D01*
X35947462Y126574822D01*
X35911176Y126429679D01*
X35911176Y126248251D01*
X35947462Y126103108D01*
X35983748Y126030537D01*
X36020033Y125994251D01*
X36092605Y125957965D01*
X36165176Y125957965D01*
X36237748Y125994251D01*
X36274033Y126030537D01*
X36310319Y126103108D01*
X36346605Y126248251D01*
X36346605Y126429679D01*
X36310319Y126574822D01*
X36274033Y126647394D01*
X36237748Y126683679D01*
X36165176Y126719965D01*
D14*
G04 #@! TO.C,P38*
X107565965Y84877960D02*
X107565965Y85877960D01*
X107185013Y85877960D01*
X107089775Y85830340D01*
X107042156Y85782721D01*
X106994537Y85687483D01*
X106994537Y85544626D01*
X107042156Y85449388D01*
X107089775Y85401769D01*
X107185013Y85354150D01*
X107565965Y85354150D01*
X106661203Y85877960D02*
X106042156Y85877960D01*
X106375489Y85497007D01*
X106232632Y85497007D01*
X106137394Y85449388D01*
X106089775Y85401769D01*
X106042156Y85306531D01*
X106042156Y85068436D01*
X106089775Y84973198D01*
X106137394Y84925579D01*
X106232632Y84877960D01*
X106518346Y84877960D01*
X106613584Y84925579D01*
X106661203Y84973198D01*
X105470727Y85449388D02*
X105565965Y85497007D01*
X105613584Y85544626D01*
X105661203Y85639864D01*
X105661203Y85687483D01*
X105613584Y85782721D01*
X105565965Y85830340D01*
X105470727Y85877960D01*
X105280251Y85877960D01*
X105185013Y85830340D01*
X105137394Y85782721D01*
X105089775Y85687483D01*
X105089775Y85639864D01*
X105137394Y85544626D01*
X105185013Y85497007D01*
X105280251Y85449388D01*
X105470727Y85449388D01*
X105565965Y85401769D01*
X105613584Y85354150D01*
X105661203Y85258912D01*
X105661203Y85068436D01*
X105613584Y84973198D01*
X105565965Y84925579D01*
X105470727Y84877960D01*
X105280251Y84877960D01*
X105185013Y84925579D01*
X105137394Y84973198D01*
X105089775Y85068436D01*
X105089775Y85258912D01*
X105137394Y85354150D01*
X105185013Y85401769D01*
X105280251Y85449388D01*
G04 #@! TO.C,P1*
X112539775Y87052960D02*
X112539775Y88052960D01*
X112158822Y88052960D01*
X112063584Y88005340D01*
X112015965Y87957721D01*
X111968346Y87862483D01*
X111968346Y87719626D01*
X112015965Y87624388D01*
X112063584Y87576769D01*
X112158822Y87529150D01*
X112539775Y87529150D01*
X111015965Y87052960D02*
X111587394Y87052960D01*
X111301680Y87052960D02*
X111301680Y88052960D01*
X111396918Y87910102D01*
X111492156Y87814864D01*
X111587394Y87767245D01*
D19*
G04 #@! TO.C,R46*
X118730577Y125365626D02*
X118984577Y125728483D01*
X119166005Y125365626D02*
X119166005Y126127626D01*
X118875720Y126127626D01*
X118803148Y126091340D01*
X118766862Y126055055D01*
X118730577Y125982483D01*
X118730577Y125873626D01*
X118766862Y125801055D01*
X118803148Y125764769D01*
X118875720Y125728483D01*
X119166005Y125728483D01*
X118077434Y125873626D02*
X118077434Y125365626D01*
X118258862Y126163912D02*
X118440291Y125619626D01*
X117968577Y125619626D01*
X117351720Y126127626D02*
X117496862Y126127626D01*
X117569434Y126091340D01*
X117605720Y126055055D01*
X117678291Y125946198D01*
X117714577Y125801055D01*
X117714577Y125510769D01*
X117678291Y125438198D01*
X117642005Y125401912D01*
X117569434Y125365626D01*
X117424291Y125365626D01*
X117351720Y125401912D01*
X117315434Y125438198D01*
X117279148Y125510769D01*
X117279148Y125692198D01*
X117315434Y125764769D01*
X117351720Y125801055D01*
X117424291Y125837340D01*
X117569434Y125837340D01*
X117642005Y125801055D01*
X117678291Y125764769D01*
X117714577Y125692198D01*
D14*
G04 #@! TO.C,P49*
X37965965Y122027960D02*
X37965965Y123027960D01*
X37585013Y123027960D01*
X37489775Y122980340D01*
X37442156Y122932721D01*
X37394537Y122837483D01*
X37394537Y122694626D01*
X37442156Y122599388D01*
X37489775Y122551769D01*
X37585013Y122504150D01*
X37965965Y122504150D01*
X36537394Y122694626D02*
X36537394Y122027960D01*
X36775489Y123075579D02*
X37013584Y122361293D01*
X36394537Y122361293D01*
X35965965Y122027960D02*
X35775489Y122027960D01*
X35680251Y122075579D01*
X35632632Y122123198D01*
X35537394Y122266055D01*
X35489775Y122456531D01*
X35489775Y122837483D01*
X35537394Y122932721D01*
X35585013Y122980340D01*
X35680251Y123027960D01*
X35870727Y123027960D01*
X35965965Y122980340D01*
X36013584Y122932721D01*
X36061203Y122837483D01*
X36061203Y122599388D01*
X36013584Y122504150D01*
X35965965Y122456531D01*
X35870727Y122408912D01*
X35680251Y122408912D01*
X35585013Y122456531D01*
X35537394Y122504150D01*
X35489775Y122599388D01*
G04 #@! TO.C,P31*
X119115965Y43002960D02*
X119115965Y44002960D01*
X118735013Y44002960D01*
X118639775Y43955340D01*
X118592156Y43907721D01*
X118544537Y43812483D01*
X118544537Y43669626D01*
X118592156Y43574388D01*
X118639775Y43526769D01*
X118735013Y43479150D01*
X119115965Y43479150D01*
X118211203Y44002960D02*
X117592156Y44002960D01*
X117925489Y43622007D01*
X117782632Y43622007D01*
X117687394Y43574388D01*
X117639775Y43526769D01*
X117592156Y43431531D01*
X117592156Y43193436D01*
X117639775Y43098198D01*
X117687394Y43050579D01*
X117782632Y43002960D01*
X118068346Y43002960D01*
X118163584Y43050579D01*
X118211203Y43098198D01*
X116639775Y43002960D02*
X117211203Y43002960D01*
X116925489Y43002960D02*
X116925489Y44002960D01*
X117020727Y43860102D01*
X117115965Y43764864D01*
X117211203Y43717245D01*
D19*
G04 #@! TO.C,R12*
X132491537Y118735626D02*
X132745537Y119098483D01*
X132926965Y118735626D02*
X132926965Y119497626D01*
X132636680Y119497626D01*
X132564108Y119461340D01*
X132527822Y119425055D01*
X132491537Y119352483D01*
X132491537Y119243626D01*
X132527822Y119171055D01*
X132564108Y119134769D01*
X132636680Y119098483D01*
X132926965Y119098483D01*
X131765822Y118735626D02*
X132201251Y118735626D01*
X131983537Y118735626D02*
X131983537Y119497626D01*
X132056108Y119388769D01*
X132128680Y119316198D01*
X132201251Y119279912D01*
X131475537Y119425055D02*
X131439251Y119461340D01*
X131366680Y119497626D01*
X131185251Y119497626D01*
X131112680Y119461340D01*
X131076394Y119425055D01*
X131040108Y119352483D01*
X131040108Y119279912D01*
X131076394Y119171055D01*
X131511822Y118735626D01*
X131040108Y118735626D01*
D14*
G04 #@! TO.C,P43*
X89090965Y84927960D02*
X89090965Y85927960D01*
X88710013Y85927960D01*
X88614775Y85880340D01*
X88567156Y85832721D01*
X88519537Y85737483D01*
X88519537Y85594626D01*
X88567156Y85499388D01*
X88614775Y85451769D01*
X88710013Y85404150D01*
X89090965Y85404150D01*
X87662394Y85594626D02*
X87662394Y84927960D01*
X87900489Y85975579D02*
X88138584Y85261293D01*
X87519537Y85261293D01*
X87233822Y85927960D02*
X86614775Y85927960D01*
X86948108Y85547007D01*
X86805251Y85547007D01*
X86710013Y85499388D01*
X86662394Y85451769D01*
X86614775Y85356531D01*
X86614775Y85118436D01*
X86662394Y85023198D01*
X86710013Y84975579D01*
X86805251Y84927960D01*
X87090965Y84927960D01*
X87186203Y84975579D01*
X87233822Y85023198D01*
D19*
G04 #@! TO.C,R18*
X121496394Y122895198D02*
X121133537Y123149198D01*
X121496394Y123330626D02*
X120734394Y123330626D01*
X120734394Y123040340D01*
X120770680Y122967769D01*
X120806965Y122931483D01*
X120879537Y122895198D01*
X120988394Y122895198D01*
X121060965Y122931483D01*
X121097251Y122967769D01*
X121133537Y123040340D01*
X121133537Y123330626D01*
X121496394Y122169483D02*
X121496394Y122604912D01*
X121496394Y122387198D02*
X120734394Y122387198D01*
X120843251Y122459769D01*
X120915822Y122532340D01*
X120952108Y122604912D01*
X121060965Y121734055D02*
X121024680Y121806626D01*
X120988394Y121842912D01*
X120915822Y121879198D01*
X120879537Y121879198D01*
X120806965Y121842912D01*
X120770680Y121806626D01*
X120734394Y121734055D01*
X120734394Y121588912D01*
X120770680Y121516340D01*
X120806965Y121480055D01*
X120879537Y121443769D01*
X120915822Y121443769D01*
X120988394Y121480055D01*
X121024680Y121516340D01*
X121060965Y121588912D01*
X121060965Y121734055D01*
X121097251Y121806626D01*
X121133537Y121842912D01*
X121206108Y121879198D01*
X121351251Y121879198D01*
X121423822Y121842912D01*
X121460108Y121806626D01*
X121496394Y121734055D01*
X121496394Y121588912D01*
X121460108Y121516340D01*
X121423822Y121480055D01*
X121351251Y121443769D01*
X121206108Y121443769D01*
X121133537Y121480055D01*
X121097251Y121516340D01*
X121060965Y121588912D01*
D14*
G04 #@! TO.C,P51*
X34265965Y122027960D02*
X34265965Y123027960D01*
X33885013Y123027960D01*
X33789775Y122980340D01*
X33742156Y122932721D01*
X33694537Y122837483D01*
X33694537Y122694626D01*
X33742156Y122599388D01*
X33789775Y122551769D01*
X33885013Y122504150D01*
X34265965Y122504150D01*
X32789775Y123027960D02*
X33265965Y123027960D01*
X33313584Y122551769D01*
X33265965Y122599388D01*
X33170727Y122647007D01*
X32932632Y122647007D01*
X32837394Y122599388D01*
X32789775Y122551769D01*
X32742156Y122456531D01*
X32742156Y122218436D01*
X32789775Y122123198D01*
X32837394Y122075579D01*
X32932632Y122027960D01*
X33170727Y122027960D01*
X33265965Y122075579D01*
X33313584Y122123198D01*
X31789775Y122027960D02*
X32361203Y122027960D01*
X32075489Y122027960D02*
X32075489Y123027960D01*
X32170727Y122885102D01*
X32265965Y122789864D01*
X32361203Y122742245D01*
D19*
G04 #@! TO.C,F2*
X12057002Y132688193D02*
X12057002Y132942193D01*
X12456145Y132942193D02*
X11694145Y132942193D01*
X11694145Y132579336D01*
X11766716Y132325336D02*
X11730431Y132289051D01*
X11694145Y132216479D01*
X11694145Y132035051D01*
X11730431Y131962479D01*
X11766716Y131926193D01*
X11839288Y131889908D01*
X11911859Y131889908D01*
X12020716Y131926193D01*
X12456145Y132361622D01*
X12456145Y131889908D01*
D16*
G04 #@! TO.C,M4*
X75343537Y17095034D02*
X75793539Y16645032D01*
X90244897Y6830421D02*
X90993541Y6830421D01*
X72143541Y19595031D02*
X90793539Y19595031D01*
X75793539Y4320030D02*
X75793539Y16645032D01*
X72143541Y17095034D02*
X75343537Y17095034D01*
X72143541Y17095034D02*
X72143541Y19595031D01*
X90993541Y6830421D02*
X90993541Y19395029D01*
X90244897Y4320033D02*
X90244897Y6830421D01*
X75793539Y4320030D02*
X90244897Y4320030D01*
G04 #@! TO.C,M9*
X107311465Y89818744D02*
X89036465Y89818744D01*
X100561466Y86243745D02*
X99836466Y85518745D01*
X89036465Y89818744D02*
X89036465Y86243745D01*
X107311465Y89818744D02*
X107311465Y86243745D01*
X107311465Y86243745D02*
X100561466Y86243745D01*
X94236462Y85518745D02*
X93511462Y86243745D01*
X93511462Y86243745D02*
X89036465Y86243745D01*
X99836466Y85518745D02*
X94236462Y85518745D01*
D20*
G04 #@! TO.C,R8*
X128250000Y123008000D02*
X128250000Y124024000D01*
X126650000Y124024000D02*
X126650000Y123008000D01*
X128250000Y120976000D02*
X128250000Y121992000D01*
X126650000Y121992000D02*
X126650000Y120976000D01*
D21*
X126650000Y120925000D02*
G75*
G03*
X128251638Y120921000I800000J-330000D01*
G01*
X128253494Y124083602D02*
G75*
G03*
X126650000Y124075000I-803494J321398D01*
G01*
D20*
G04 #@! TO.C,R32*
X48824428Y128206340D02*
X48824428Y129222340D01*
X47224428Y131254340D02*
X47224428Y130238340D01*
X47224428Y129222340D02*
X47224428Y128206340D01*
X48824428Y130238340D02*
X48824428Y131254340D01*
D21*
X47224428Y128155340D02*
G75*
G03*
X48826066Y128151340I800000J-330000D01*
G01*
X48827922Y131313942D02*
G75*
G03*
X47224428Y131305340I-803494J321398D01*
G01*
G04 #@! TO.C,P5*
X63326753Y37240220D02*
X63632380Y37240220D01*
X63632380Y37240220D02*
X63632380Y34580220D01*
X63337918Y34580220D02*
X63632380Y34580220D01*
X60972380Y34580220D02*
X60972380Y37240220D01*
X61266842Y37240220D02*
X60972380Y37240220D01*
X61278007Y34580220D02*
X60972380Y34580220D01*
G04 #@! TO.C,P6*
X63632380Y44742400D02*
X63632380Y42082400D01*
X60972380Y42082400D02*
X60972380Y44742400D01*
X61278007Y42082400D02*
X60972380Y42082400D01*
X63337918Y42082400D02*
X63632380Y42082400D01*
X61266842Y44742400D02*
X60972380Y44742400D01*
X63326753Y44742400D02*
X63632380Y44742400D01*
G04 #@! TO.C,P47*
X39102307Y123275340D02*
X38796680Y123275340D01*
X41456680Y125935340D02*
X41456680Y123275340D01*
X41151053Y125935340D02*
X41456680Y125935340D01*
X41162218Y123275340D02*
X41456680Y123275340D01*
X39091142Y125935340D02*
X38796680Y125935340D01*
X38796680Y123275340D02*
X38796680Y125935340D01*
G04 #@! TO.C,P19*
X114621680Y126525340D02*
X114621680Y129185340D01*
X116987218Y126525340D02*
X117281680Y126525340D01*
X114916142Y129185340D02*
X114621680Y129185340D01*
X116976053Y129185340D02*
X117281680Y129185340D01*
X114927307Y126525340D02*
X114621680Y126525340D01*
X117281680Y129185340D02*
X117281680Y126525340D01*
G04 #@! TO.C,G4*
X19194000Y56273322D02*
X26306000Y56273322D01*
X26306000Y56273322D02*
X26306000Y44081322D01*
X26306000Y44081322D02*
X19194000Y44081322D01*
X19194000Y44081322D02*
X19194000Y56273322D01*
G04 #@! TO.C,P10*
X90377307Y129425340D02*
X90071680Y129425340D01*
X92426053Y132085340D02*
X92731680Y132085340D01*
X92731680Y132085340D02*
X92731680Y129425340D01*
X90366142Y132085340D02*
X90071680Y132085340D01*
X90071680Y129425340D02*
X90071680Y132085340D01*
X92437218Y129425340D02*
X92731680Y129425340D01*
D20*
G04 #@! TO.C,R21*
X55076680Y131229319D02*
X55076680Y130213319D01*
X55076680Y129197319D02*
X55076680Y128181319D01*
X56676680Y130213319D02*
X56676680Y131229319D01*
X56676680Y128181319D02*
X56676680Y129197319D01*
D21*
X56680174Y131288921D02*
G75*
G03*
X55076680Y131280319I-803494J321398D01*
G01*
X55076680Y128130319D02*
G75*
G03*
X56678318Y128126319I800000J-330000D01*
G01*
G04 #@! TO.C,P12*
X30726053Y80335340D02*
X31031680Y80335340D01*
X28677307Y77675340D02*
X28371680Y77675340D01*
X31031680Y80335340D02*
X31031680Y77675340D01*
X28371680Y77675340D02*
X28371680Y80335340D01*
X28666142Y80335340D02*
X28371680Y80335340D01*
X30737218Y77675340D02*
X31031680Y77675340D01*
G04 #@! TO.C,G12*
X11574000Y43573322D02*
X18686000Y43573322D01*
X18686000Y43573322D02*
X18686000Y31381322D01*
X18686000Y31381322D02*
X11574000Y31381322D01*
X11574000Y31381322D02*
X11574000Y43573322D01*
D16*
G04 #@! TO.C,M5*
X55939995Y29718005D02*
X30014995Y29718005D01*
X57514996Y31293005D02*
X55939995Y29718005D01*
X57650541Y72307460D02*
X57650541Y56178549D01*
X57514996Y56043004D02*
X57514996Y31293005D01*
X57650541Y72307460D02*
X57407026Y72550975D01*
X57407026Y72550975D02*
X29922966Y72550975D01*
X57650541Y56178549D02*
X57514996Y56043004D01*
X29922966Y72550975D02*
X29539995Y72168004D01*
X29539995Y72168004D02*
X29539995Y30193005D01*
X30014995Y29718005D02*
X29539995Y30193005D01*
D20*
G04 #@! TO.C,R36*
X30601680Y129222340D02*
X30601680Y128206340D01*
X32201680Y128206340D02*
X32201680Y129222340D01*
X32201680Y130238340D02*
X32201680Y131254340D01*
X30601680Y131254340D02*
X30601680Y130238340D01*
D21*
X32205174Y131313942D02*
G75*
G03*
X30601680Y131305340I-803494J321398D01*
G01*
X30601680Y128155340D02*
G75*
G03*
X32203318Y128151340I800000J-330000D01*
G01*
D20*
G04 #@! TO.C,R48*
X113876680Y129513319D02*
X113876680Y130529319D01*
X112276680Y130529319D02*
X112276680Y129513319D01*
X112276680Y128497319D02*
X112276680Y127481319D01*
X113876680Y127481319D02*
X113876680Y128497319D01*
D21*
X113880174Y130588921D02*
G75*
G03*
X112276680Y130580319I-803494J321398D01*
G01*
X112276680Y127430319D02*
G75*
G03*
X113878318Y127426319I800000J-330000D01*
G01*
G04 #@! TO.C,P15*
X90071680Y132350340D02*
X90071680Y135010340D01*
X90377307Y132350340D02*
X90071680Y132350340D01*
X90366142Y135010340D02*
X90071680Y135010340D01*
X92437218Y132350340D02*
X92731680Y132350340D01*
X92426053Y135010340D02*
X92731680Y135010340D01*
X92731680Y135010340D02*
X92731680Y132350340D01*
D20*
G04 #@! TO.C,R24*
X112326680Y121947340D02*
X112326680Y120931340D01*
X113926680Y120931340D02*
X113926680Y121947340D01*
X112326680Y123979340D02*
X112326680Y122963340D01*
X113926680Y122963340D02*
X113926680Y123979340D01*
D21*
X113930174Y124038942D02*
G75*
G03*
X112326680Y124030340I-803494J321398D01*
G01*
X112326680Y120880340D02*
G75*
G03*
X113928318Y120876340I800000J-330000D01*
G01*
D20*
G04 #@! TO.C,R33*
X42901680Y131254340D02*
X42901680Y130238340D01*
X44501680Y128206340D02*
X44501680Y129222340D01*
X44501680Y130238340D02*
X44501680Y131254340D01*
X42901680Y129222340D02*
X42901680Y128206340D01*
D21*
X42901680Y128155340D02*
G75*
G03*
X44503318Y128151340I800000J-330000D01*
G01*
X44505174Y131313942D02*
G75*
G03*
X42901680Y131305340I-803494J321398D01*
G01*
D20*
G04 #@! TO.C,R42*
X14191221Y128217438D02*
X14191221Y129233438D01*
X14191221Y126185438D02*
X14191221Y127201438D01*
X12591221Y127201438D02*
X12591221Y126185438D01*
X12591221Y129233438D02*
X12591221Y128217438D01*
D21*
X14194715Y129293040D02*
G75*
G03*
X12591221Y129284438I-803494J321398D01*
G01*
X12591221Y126134438D02*
G75*
G03*
X14192859Y126130438I800000J-330000D01*
G01*
G04 #@! TO.C,P56*
X41164462Y135110340D02*
X40870000Y135110340D01*
X43530000Y135110340D02*
X43530000Y132450340D01*
X43235538Y132450340D02*
X43530000Y132450340D01*
X40870000Y132450340D02*
X40870000Y135110340D01*
X41175627Y132450340D02*
X40870000Y132450340D01*
X43224373Y135110340D02*
X43530000Y135110340D01*
G04 #@! TO.C,P52*
X128164479Y127570000D02*
X128164479Y130230000D01*
X130518852Y130230000D02*
X130824479Y130230000D01*
X130824479Y130230000D02*
X130824479Y127570000D01*
X130530017Y127570000D02*
X130824479Y127570000D01*
X128470106Y127570000D02*
X128164479Y127570000D01*
X128458941Y130230000D02*
X128164479Y130230000D01*
G04 #@! TO.C,P44*
X92056680Y81800340D02*
X89396680Y81800340D01*
X92056680Y84165878D02*
X92056680Y84460340D01*
X89396680Y84154713D02*
X89396680Y84460340D01*
X89396680Y82094802D02*
X89396680Y81800340D01*
X89396680Y84460340D02*
X92056680Y84460340D01*
X92056680Y82105967D02*
X92056680Y81800340D01*
G04 #@! TO.C,P13*
X33931680Y77435340D02*
X33931680Y74775340D01*
X33637218Y74775340D02*
X33931680Y74775340D01*
X33626053Y77435340D02*
X33931680Y77435340D01*
X31566142Y77435340D02*
X31271680Y77435340D01*
X31271680Y74775340D02*
X31271680Y77435340D01*
X31577307Y74775340D02*
X31271680Y74775340D01*
G04 #@! TO.C,P29*
X121926053Y42535340D02*
X122231680Y42535340D01*
X119571680Y39875340D02*
X119571680Y42535340D01*
X121937218Y39875340D02*
X122231680Y39875340D01*
X119866142Y42535340D02*
X119571680Y42535340D01*
X122231680Y42535340D02*
X122231680Y39875340D01*
X119877307Y39875340D02*
X119571680Y39875340D01*
D20*
G04 #@! TO.C,R43*
X54226680Y128206340D02*
X54226680Y129222340D01*
X52626680Y129222340D02*
X52626680Y128206340D01*
X52626680Y131254340D02*
X52626680Y130238340D01*
X54226680Y130238340D02*
X54226680Y131254340D01*
D21*
X54230174Y131313942D02*
G75*
G03*
X52626680Y131305340I-803494J321398D01*
G01*
X52626680Y128155340D02*
G75*
G03*
X54228318Y128151340I800000J-330000D01*
G01*
G04 #@! TO.C,P30*
X121937218Y37040220D02*
X122231680Y37040220D01*
X119571680Y37040220D02*
X119571680Y39700220D01*
X119866142Y39700220D02*
X119571680Y39700220D01*
X121926053Y39700220D02*
X122231680Y39700220D01*
X122231680Y39700220D02*
X122231680Y37040220D01*
X119877307Y37040220D02*
X119571680Y37040220D01*
G04 #@! TO.C,P4*
X64088267Y42080220D02*
X63782640Y42080220D01*
X66137013Y44740220D02*
X66442640Y44740220D01*
X66442640Y44740220D02*
X66442640Y42080220D01*
X66148178Y42080220D02*
X66442640Y42080220D01*
X64077102Y44740220D02*
X63782640Y44740220D01*
X63782640Y42080220D02*
X63782640Y44740220D01*
G04 #@! TO.C,P25*
X125231680Y39700220D02*
X125231680Y37040220D01*
X124937218Y37040220D02*
X125231680Y37040220D01*
X122866142Y39700220D02*
X122571680Y39700220D01*
X122571680Y37040220D02*
X122571680Y39700220D01*
X122877307Y37040220D02*
X122571680Y37040220D01*
X124926053Y39700220D02*
X125231680Y39700220D01*
D16*
G04 #@! TO.C,M8*
X59334048Y104474902D02*
X59059042Y104199898D01*
X58184043Y104143696D02*
X58184043Y93299902D01*
X59334048Y104474902D02*
X65031870Y104474902D01*
X65031870Y104474902D02*
X65070717Y93299902D01*
X58234043Y104199898D02*
X58184043Y104143696D01*
X58234043Y104199898D02*
X59059042Y104199898D01*
X58177840Y93299902D02*
X65070717Y93299902D01*
D20*
G04 #@! TO.C,R17*
X131576680Y128538040D02*
X131576680Y127522040D01*
X133176680Y129554040D02*
X133176680Y130570040D01*
X133176680Y127522040D02*
X133176680Y128538040D01*
X131576680Y130570040D02*
X131576680Y129554040D01*
D21*
X131573186Y127462438D02*
G75*
G03*
X133176680Y127471040I803494J-321398D01*
G01*
X133176680Y130621040D02*
G75*
G03*
X131575042Y130625040I-800000J330000D01*
G01*
G04 #@! TO.C,G6*
X3954000Y56273322D02*
X11066000Y56273322D01*
X11066000Y56273322D02*
X11066000Y44081322D01*
X11066000Y44081322D02*
X3954000Y44081322D01*
X3954000Y44081322D02*
X3954000Y56273322D01*
G04 #@! TO.C,P55*
X114696680Y130175340D02*
X114696680Y132835340D01*
X117051053Y132835340D02*
X117356680Y132835340D01*
X114991142Y132835340D02*
X114696680Y132835340D01*
X117356680Y132835340D02*
X117356680Y130175340D01*
X115002307Y130175340D02*
X114696680Y130175340D01*
X117062218Y130175340D02*
X117356680Y130175340D01*
G04 #@! TO.C,P17*
X70531680Y60475340D02*
X67871680Y60475340D01*
X70531680Y62840878D02*
X70531680Y63135340D01*
X70531680Y60780967D02*
X70531680Y60475340D01*
X67871680Y60769802D02*
X67871680Y60475340D01*
X67871680Y63135340D02*
X70531680Y63135340D01*
X67871680Y62829713D02*
X67871680Y63135340D01*
D16*
G04 #@! TO.C,M13*
X110618537Y19678557D02*
X110618537Y18853558D01*
X110893541Y18578552D02*
X110893541Y12880730D01*
X110618537Y19678557D02*
X110562335Y19728557D01*
X110893541Y12880730D02*
X99718541Y12841883D01*
X110562335Y19728557D02*
X99718541Y19728557D01*
X99718541Y19734760D02*
X99718541Y12841883D01*
X110893541Y18578552D02*
X110618537Y18853558D01*
D21*
G04 #@! TO.C,P11*
X30726053Y77435340D02*
X31031680Y77435340D01*
X28677307Y74775340D02*
X28371680Y74775340D01*
X28371680Y74775340D02*
X28371680Y77435340D01*
X28666142Y77435340D02*
X28371680Y77435340D01*
X31031680Y77435340D02*
X31031680Y74775340D01*
X30737218Y74775340D02*
X31031680Y74775340D01*
G04 #@! TO.C,P50*
X32087218Y132375340D02*
X32381680Y132375340D01*
X32381680Y135035340D02*
X32381680Y132375340D01*
X32076053Y135035340D02*
X32381680Y135035340D01*
X30027307Y132375340D02*
X29721680Y132375340D01*
X29721680Y132375340D02*
X29721680Y135035340D01*
X30016142Y135035340D02*
X29721680Y135035340D01*
D20*
G04 #@! TO.C,R40*
X23841221Y128212438D02*
X23841221Y129228438D01*
X23841221Y126180438D02*
X23841221Y127196438D01*
X22241221Y127196438D02*
X22241221Y126180438D01*
X22241221Y129228438D02*
X22241221Y128212438D01*
D21*
X23844715Y129288040D02*
G75*
G03*
X22241221Y129279438I-803494J321398D01*
G01*
X22241221Y126129438D02*
G75*
G03*
X23842859Y126125438I800000J-330000D01*
G01*
D16*
G04 #@! TO.C,M7*
X46829043Y28301141D02*
X46855449Y28327547D01*
X46829045Y11744133D02*
X46829043Y28301141D01*
X57230094Y11820183D02*
X57230094Y28168083D01*
X57230094Y28168083D02*
X57096033Y28302144D01*
X57096033Y28302144D02*
X46855449Y28327547D01*
X55704044Y10294133D02*
X48279045Y10294133D01*
X55704044Y10294133D02*
X57230094Y11820183D01*
X48279045Y10294133D02*
X46829045Y11744133D01*
D21*
G04 #@! TO.C,P28*
X80888667Y75076220D02*
X80583040Y75076220D01*
X83243040Y77736220D02*
X83243040Y75076220D01*
X82937413Y77736220D02*
X83243040Y77736220D01*
X80583040Y75076220D02*
X80583040Y77736220D01*
X82948578Y75076220D02*
X83243040Y75076220D01*
X80877502Y77736220D02*
X80583040Y77736220D01*
G04 #@! TO.C,P24*
X122866142Y42535340D02*
X122571680Y42535340D01*
X122571680Y39875340D02*
X122571680Y42535340D01*
X124926053Y42535340D02*
X125231680Y42535340D01*
X124937218Y39875340D02*
X125231680Y39875340D01*
X122877307Y39875340D02*
X122571680Y39875340D01*
X125231680Y42535340D02*
X125231680Y39875340D01*
G04 #@! TO.C,P8*
X95337218Y129475340D02*
X95631680Y129475340D01*
X93277307Y129475340D02*
X92971680Y129475340D01*
X93266142Y132135340D02*
X92971680Y132135340D01*
X95326053Y132135340D02*
X95631680Y132135340D01*
X92971680Y129475340D02*
X92971680Y132135340D01*
X95631680Y132135340D02*
X95631680Y129475340D01*
G04 #@! TO.C,G9*
X3954000Y30873322D02*
X11066000Y30873322D01*
X11066000Y30873322D02*
X11066000Y18681322D01*
X11066000Y18681322D02*
X3954000Y18681322D01*
X3954000Y18681322D02*
X3954000Y30873322D01*
D16*
G04 #@! TO.C,M1*
X85537640Y61010021D02*
X85037640Y61510021D01*
X115837638Y73935024D02*
X114287638Y75485024D01*
X115437633Y61010018D02*
X85537640Y61010021D01*
X85962638Y75485024D02*
X85037640Y74560027D01*
X115837638Y61410023D02*
X115437633Y61010018D01*
X114287638Y75485024D02*
X85957640Y75485024D01*
X85037640Y74560027D02*
X85037640Y61510021D01*
X115837638Y73935024D02*
X115837638Y61410023D01*
D20*
G04 #@! TO.C,R38*
X17241221Y126255438D02*
X17241221Y127271438D01*
X17241221Y128287438D02*
X17241221Y129303438D01*
X15641221Y127271438D02*
X15641221Y126255438D01*
X15641221Y129303438D02*
X15641221Y128287438D01*
D21*
X15641221Y126204438D02*
G75*
G03*
X17242859Y126200438I800000J-330000D01*
G01*
X17244715Y129363040D02*
G75*
G03*
X15641221Y129354438I-803494J321398D01*
G01*
D20*
G04 #@! TO.C,R44*
X127325000Y129458000D02*
X127325000Y130474000D01*
X125725000Y128442000D02*
X125725000Y127426000D01*
X127325000Y127426000D02*
X127325000Y128442000D01*
X125725000Y130474000D02*
X125725000Y129458000D01*
D21*
X125725000Y127375000D02*
G75*
G03*
X127326638Y127371000I800000J-330000D01*
G01*
X127328494Y130533602D02*
G75*
G03*
X125725000Y130525000I-803494J321398D01*
G01*
D16*
G04 #@! TO.C,M3*
X69868539Y21913843D02*
X69644339Y22138043D01*
X115480907Y21213843D02*
X72093539Y21213843D01*
X71393541Y21913843D02*
X69868539Y21913843D01*
X115968544Y21701481D02*
X115480907Y21213843D01*
X69986766Y58362850D02*
X69644331Y58020415D01*
X115399452Y58362855D02*
X69986766Y58362850D01*
X72093539Y21213843D02*
X71393541Y21913843D01*
X115968541Y57793766D02*
X115399452Y58362855D01*
X115968544Y21701481D02*
X115968541Y57793766D01*
X69644339Y22138043D02*
X69644331Y58020415D01*
D20*
G04 #@! TO.C,R30*
X33926680Y129222340D02*
X33926680Y128206340D01*
X33926680Y131254340D02*
X33926680Y130238340D01*
X35526680Y128206340D02*
X35526680Y129222340D01*
X35526680Y130238340D02*
X35526680Y131254340D01*
D21*
X35530174Y131313942D02*
G75*
G03*
X33926680Y131305340I-803494J321398D01*
G01*
X33926680Y128155340D02*
G75*
G03*
X35528318Y128151340I800000J-330000D01*
G01*
G04 #@! TO.C,P48*
X33596680Y132375340D02*
X33596680Y135035340D01*
X33891142Y135035340D02*
X33596680Y135035340D01*
X35962218Y132375340D02*
X36256680Y132375340D01*
X36256680Y135035340D02*
X36256680Y132375340D01*
X35951053Y135035340D02*
X36256680Y135035340D01*
X33902307Y132375340D02*
X33596680Y132375340D01*
D20*
G04 #@! TO.C,R31*
X129100000Y121992001D02*
X129100000Y120976001D01*
X130700000Y120976001D02*
X130700000Y121992001D01*
X130700000Y123008001D02*
X130700000Y124024001D01*
X129100000Y124024001D02*
X129100000Y123008001D01*
D21*
X129100000Y120925001D02*
G75*
G03*
X130701638Y120921001I800000J-330000D01*
G01*
X130703494Y124083603D02*
G75*
G03*
X129100000Y124075001I-803494J321398D01*
G01*
G04 #@! TO.C,P32*
X119231680Y39700220D02*
X119231680Y37040220D01*
X118926053Y39700220D02*
X119231680Y39700220D01*
X116866142Y39700220D02*
X116571680Y39700220D01*
X118937218Y37040220D02*
X119231680Y37040220D01*
X116571680Y37040220D02*
X116571680Y39700220D01*
X116877307Y37040220D02*
X116571680Y37040220D01*
G04 #@! TO.C,P9*
X92971680Y132644802D02*
X92971680Y132350340D01*
X95631680Y134715878D02*
X95631680Y135010340D01*
X92971680Y134704713D02*
X92971680Y135010340D01*
X95631680Y132655967D02*
X95631680Y132350340D01*
X92971680Y135010340D02*
X95631680Y135010340D01*
X95631680Y132350340D02*
X92971680Y132350340D01*
G04 #@! TO.C,G11*
X11574000Y56273322D02*
X18686000Y56273322D01*
X18686000Y56273322D02*
X18686000Y44081322D01*
X18686000Y44081322D02*
X11574000Y44081322D01*
X11574000Y44081322D02*
X11574000Y56273322D01*
G04 #@! TO.C,P23*
X46571680Y77675340D02*
X46571680Y80335340D01*
X48937218Y77675340D02*
X49231680Y77675340D01*
X46866142Y80335340D02*
X46571680Y80335340D01*
X48926053Y80335340D02*
X49231680Y80335340D01*
X49231680Y80335340D02*
X49231680Y77675340D01*
X46877307Y77675340D02*
X46571680Y77675340D01*
D16*
G04 #@! TO.C,M10*
X23612891Y105433985D02*
X14437888Y105433985D01*
X28887890Y111458984D02*
X24487888Y111458984D01*
X23612891Y105433985D02*
X23737925Y105559019D01*
X29962889Y121608984D02*
X14437888Y121608984D01*
X23737925Y110709021D02*
X24487888Y111458984D01*
X14437888Y105433985D02*
X14437888Y121608984D01*
X28887890Y111458984D02*
X29962889Y112533983D01*
X29962889Y112533983D02*
X29962889Y121608984D01*
X23737925Y105559019D02*
X23737925Y110709021D01*
D21*
G04 #@! TO.C,G7*
X19194000Y43573322D02*
X26306000Y43573322D01*
X26306000Y43573322D02*
X26306000Y31381322D01*
X26306000Y31381322D02*
X19194000Y31381322D01*
X19194000Y31381322D02*
X19194000Y43573322D01*
D16*
G04 #@! TO.C,M12*
X65875000Y132500000D02*
X80775000Y132500000D01*
X80775000Y132500000D02*
X80775000Y93350000D01*
X80775000Y93350000D02*
X65875000Y93350000D01*
X65875000Y93350000D02*
X65875000Y132500000D01*
D20*
G04 #@! TO.C,R47*
X109097027Y130800405D02*
X109097027Y129784405D01*
X110697027Y129784405D02*
X110697027Y130800405D01*
X110697027Y127752405D02*
X110697027Y128768405D01*
X109097027Y128768405D02*
X109097027Y127752405D01*
D21*
X110700521Y130860007D02*
G75*
G03*
X109097027Y130851405I-803494J321398D01*
G01*
X109097027Y127701405D02*
G75*
G03*
X110698665Y127697405I800000J-330000D01*
G01*
G04 #@! TO.C,F1*
X25975000Y131400000D02*
X21125000Y131400000D01*
X25975000Y133400000D02*
X21125000Y133400000D01*
X21125000Y133400000D02*
G75*
G03*
X21125000Y131400000I0J-1000000D01*
G01*
X26025000Y131400000D02*
G75*
G03*
X26025000Y133400000I0J1000000D01*
G01*
G04 #@! TO.C,F3*
X26025000Y135800000D02*
X21175000Y135800000D01*
X26025000Y133800000D02*
X21175000Y133800000D01*
X26075000Y133800000D02*
G75*
G03*
X26075000Y135800000I0J1000000D01*
G01*
X21175000Y135800000D02*
G75*
G03*
X21175000Y133800000I0J-1000000D01*
G01*
G04 #@! TO.C,G5*
X3954000Y43573322D02*
X11066000Y43573322D01*
X11066000Y43573322D02*
X11066000Y31381322D01*
X11066000Y31381322D02*
X3954000Y31381322D01*
X3954000Y31381322D02*
X3954000Y43573322D01*
D20*
G04 #@! TO.C,R34*
X39922748Y130266559D02*
X39922748Y131282559D01*
X39922748Y128234559D02*
X39922748Y129250559D01*
X38322748Y129250559D02*
X38322748Y128234559D01*
X38322748Y131282559D02*
X38322748Y130266559D01*
D21*
X39926242Y131342161D02*
G75*
G03*
X38322748Y131333559I-803494J321398D01*
G01*
X38322748Y128183559D02*
G75*
G03*
X39924386Y128179559I800000J-330000D01*
G01*
D20*
G04 #@! TO.C,R35*
X24391221Y127176438D02*
X24391221Y126160438D01*
X24391221Y129208438D02*
X24391221Y128192438D01*
X25991221Y126160438D02*
X25991221Y127176438D01*
X25991221Y128192438D02*
X25991221Y129208438D01*
D21*
X25994715Y129268040D02*
G75*
G03*
X24391221Y129259438I-803494J321398D01*
G01*
X24391221Y126109438D02*
G75*
G03*
X25992859Y126105438I800000J-330000D01*
G01*
G04 #@! TO.C,P14*
X31566142Y80314220D02*
X31271680Y80314220D01*
X33637218Y77654220D02*
X33931680Y77654220D01*
X33626053Y80314220D02*
X33931680Y80314220D01*
X31271680Y77654220D02*
X31271680Y80314220D01*
X31577307Y77654220D02*
X31271680Y77654220D01*
X33931680Y80314220D02*
X33931680Y77654220D01*
D20*
G04 #@! TO.C,R22*
X40672748Y129247340D02*
X40672748Y128231340D01*
X40672748Y131279340D02*
X40672748Y130263340D01*
X42272748Y130263340D02*
X42272748Y131279340D01*
X42272748Y128231340D02*
X42272748Y129247340D01*
D21*
X40672748Y128180340D02*
G75*
G03*
X42274386Y128176340I800000J-330000D01*
G01*
X42276242Y131338942D02*
G75*
G03*
X40672748Y131330340I-803494J321398D01*
G01*
D20*
G04 #@! TO.C,R37*
X19991221Y129253438D02*
X19991221Y128237438D01*
X21591221Y128237438D02*
X21591221Y129253438D01*
X19991221Y127221438D02*
X19991221Y126205438D01*
X21591221Y126205438D02*
X21591221Y127221438D01*
D21*
X19991221Y126154438D02*
G75*
G03*
X21592859Y126150438I800000J-330000D01*
G01*
X21594715Y129313040D02*
G75*
G03*
X19991221Y129304438I-803494J321398D01*
G01*
D20*
G04 #@! TO.C,R28*
X46649428Y128206340D02*
X46649428Y129222340D01*
X45049428Y131254340D02*
X45049428Y130238340D01*
X46649428Y130238340D02*
X46649428Y131254340D01*
X45049428Y129222340D02*
X45049428Y128206340D01*
D21*
X45049428Y128155340D02*
G75*
G03*
X46651066Y128151340I800000J-330000D01*
G01*
X46652922Y131313942D02*
G75*
G03*
X45049428Y131305340I-803494J321398D01*
G01*
D20*
G04 #@! TO.C,R26*
X133512640Y121992340D02*
X133512640Y120976340D01*
X135112640Y123008340D02*
X135112640Y124024340D01*
X133512640Y124024340D02*
X133512640Y123008340D01*
X135112640Y120976340D02*
X135112640Y121992340D01*
D21*
X133512640Y120925340D02*
G75*
G03*
X135114278Y120921340I800000J-330000D01*
G01*
X135116134Y124083942D02*
G75*
G03*
X133512640Y124075340I-803494J321398D01*
G01*
G04 #@! TO.C,P22*
X67871680Y68735340D02*
X70531680Y68735340D01*
X70531680Y66380967D02*
X70531680Y66075340D01*
X70531680Y66075340D02*
X67871680Y66075340D01*
X67871680Y68429713D02*
X67871680Y68735340D01*
X67871680Y66369802D02*
X67871680Y66075340D01*
X70531680Y68440878D02*
X70531680Y68735340D01*
D20*
G04 #@! TO.C,R25*
X135351680Y127522040D02*
X135351680Y128538040D01*
X133751680Y130570040D02*
X133751680Y129554040D01*
X133751680Y128538040D02*
X133751680Y127522040D01*
X135351680Y129554040D02*
X135351680Y130570040D01*
D21*
X135355174Y130629642D02*
G75*
G03*
X133751680Y130621040I-803494J321398D01*
G01*
X133751680Y127471040D02*
G75*
G03*
X135353318Y127467040I800000J-330000D01*
G01*
G04 #@! TO.C,P20*
X67731680Y68875340D02*
X65071680Y68875340D01*
X67731680Y69180967D02*
X67731680Y68875340D01*
X65071680Y69169802D02*
X65071680Y68875340D01*
X65071680Y71229713D02*
X65071680Y71535340D01*
X65071680Y71535340D02*
X67731680Y71535340D01*
X67731680Y71240878D02*
X67731680Y71535340D01*
G04 #@! TO.C,P18*
X67731680Y63580967D02*
X67731680Y63275340D01*
X67731680Y65640878D02*
X67731680Y65935340D01*
X65071680Y65935340D02*
X67731680Y65935340D01*
X65071680Y63569802D02*
X65071680Y63275340D01*
X65071680Y65629713D02*
X65071680Y65935340D01*
X67731680Y63275340D02*
X65071680Y63275340D01*
D20*
G04 #@! TO.C,R27*
X106726680Y130754339D02*
X106726680Y129738339D01*
X108326680Y129738339D02*
X108326680Y130754339D01*
X108326680Y127706339D02*
X108326680Y128722339D01*
X106726680Y128722339D02*
X106726680Y127706339D01*
D21*
X108326680Y130805339D02*
G75*
G03*
X106725042Y130809339I-800000J330000D01*
G01*
X106723186Y127646737D02*
G75*
G03*
X108326680Y127655339I803494J-321398D01*
G01*
D16*
G04 #@! TO.C,M6*
X78701692Y61455340D02*
X78701692Y73205340D01*
X83701692Y61455340D02*
X78801692Y61455340D01*
X83701692Y61455340D02*
X83701692Y73205340D01*
X83701692Y73205340D02*
X78801692Y73205340D01*
D21*
G04 #@! TO.C,P53*
X123760538Y127645000D02*
X124055000Y127645000D01*
X121689462Y130305000D02*
X121395000Y130305000D01*
X121700627Y127645000D02*
X121395000Y127645000D01*
X124055000Y130305000D02*
X124055000Y127645000D01*
X121395000Y127645000D02*
X121395000Y130305000D01*
X123749373Y130305000D02*
X124055000Y130305000D01*
D20*
G04 #@! TO.C,R39*
X17816221Y127271438D02*
X17816221Y126255438D01*
X19416221Y128287438D02*
X19416221Y129303438D01*
X19416221Y126255438D02*
X19416221Y127271438D01*
X17816221Y129303438D02*
X17816221Y128287438D01*
D21*
X19419715Y129363040D02*
G75*
G03*
X17816221Y129354438I-803494J321398D01*
G01*
X17816221Y126204438D02*
G75*
G03*
X19417859Y126200438I800000J-330000D01*
G01*
D20*
G04 #@! TO.C,R49*
X103301680Y130779340D02*
X103301680Y129763340D01*
X104901680Y129763340D02*
X104901680Y130779340D01*
X103301680Y128747340D02*
X103301680Y127731340D01*
X104901680Y127731340D02*
X104901680Y128747340D01*
D21*
X104905174Y130838942D02*
G75*
G03*
X103301680Y130830340I-803494J321398D01*
G01*
X103301680Y127680340D02*
G75*
G03*
X104903318Y127676340I800000J-330000D01*
G01*
G04 #@! TO.C,P7*
X16081680Y125135340D02*
X16081680Y122475340D01*
X13716142Y125135340D02*
X13421680Y125135340D01*
X13421680Y122475340D02*
X13421680Y125135340D01*
X15776053Y125135340D02*
X16081680Y125135340D01*
X13727307Y122475340D02*
X13421680Y122475340D01*
X15787218Y122475340D02*
X16081680Y122475340D01*
D20*
G04 #@! TO.C,R20*
X36072748Y131257559D02*
X36072748Y130241559D01*
X37672748Y130241559D02*
X37672748Y131257559D01*
X37672748Y128209559D02*
X37672748Y129225559D01*
X36072748Y129225559D02*
X36072748Y128209559D01*
D21*
X36072748Y128158559D02*
G75*
G03*
X37674386Y128154559I800000J-330000D01*
G01*
X37676242Y131317161D02*
G75*
G03*
X36072748Y131308559I-803494J321398D01*
G01*
G04 #@! TO.C,P38*
X105021680Y82000340D02*
X105021680Y84660340D01*
X107376053Y84660340D02*
X107681680Y84660340D01*
X105316142Y84660340D02*
X105021680Y84660340D01*
X107681680Y84660340D02*
X107681680Y82000340D01*
X107387218Y82000340D02*
X107681680Y82000340D01*
X105327307Y82000340D02*
X105021680Y82000340D01*
G04 #@! TO.C,P1*
X110731044Y90135340D02*
X110731044Y87475340D01*
X108376671Y87475340D02*
X108071044Y87475340D01*
X108365506Y90135340D02*
X108071044Y90135340D01*
X110425417Y90135340D02*
X110731044Y90135340D01*
X108071044Y87475340D02*
X108071044Y90135340D01*
X110436582Y87475340D02*
X110731044Y87475340D01*
D20*
G04 #@! TO.C,R46*
X119051680Y129613340D02*
X119051680Y130629340D01*
X119051680Y127581340D02*
X119051680Y128597340D01*
X117451680Y130629340D02*
X117451680Y129613340D01*
X117451680Y128597340D02*
X117451680Y127581340D01*
D21*
X117451680Y127530340D02*
G75*
G03*
X119053318Y127526340I800000J-330000D01*
G01*
X119055174Y130688942D02*
G75*
G03*
X117451680Y130680340I-803494J321398D01*
G01*
G04 #@! TO.C,P49*
X36046680Y123275340D02*
X36046680Y125935340D01*
X36341142Y125935340D02*
X36046680Y125935340D01*
X36352307Y123275340D02*
X36046680Y123275340D01*
X38412218Y123275340D02*
X38706680Y123275340D01*
X38401053Y125935340D02*
X38706680Y125935340D01*
X38706680Y125935340D02*
X38706680Y123275340D01*
G04 #@! TO.C,P31*
X118926053Y42535340D02*
X119231680Y42535340D01*
X118937218Y39875340D02*
X119231680Y39875340D01*
X116866142Y42535340D02*
X116571680Y42535340D01*
X116571680Y39875340D02*
X116571680Y42535340D01*
X119231680Y42535340D02*
X119231680Y39875340D01*
X116877307Y39875340D02*
X116571680Y39875340D01*
D16*
G04 #@! TO.C,M2*
X125876150Y33371695D02*
X125626150Y33621694D01*
X125514502Y19948366D02*
X119776152Y19948366D01*
X119026151Y21297076D02*
X118026150Y21297076D01*
X119776152Y20547075D02*
X119776152Y19948366D01*
X118026150Y33372076D02*
X118026150Y21297076D01*
X125876150Y33371695D02*
X125876150Y20310014D01*
X125626150Y33621694D02*
X118275769Y33621694D01*
X119776152Y20547075D02*
X119026151Y21297076D01*
X118275769Y33621694D02*
X118026150Y33372076D01*
X125876150Y20310014D02*
X125514502Y19948366D01*
D20*
G04 #@! TO.C,R12*
X132925000Y120951000D02*
X132925000Y121967000D01*
X131325000Y123999000D02*
X131325000Y122983000D01*
X132925000Y122983000D02*
X132925000Y123999000D01*
X131325000Y121967000D02*
X131325000Y120951000D01*
D21*
X132925000Y124050000D02*
G75*
G03*
X131323362Y124054000I-800000J330000D01*
G01*
X131321506Y120891398D02*
G75*
G03*
X132925000Y120900000I803494J-321398D01*
G01*
G04 #@! TO.C,P43*
X88901053Y84460340D02*
X89206680Y84460340D01*
X86841142Y84460340D02*
X86546680Y84460340D01*
X86852307Y81800340D02*
X86546680Y81800340D01*
X86546680Y81800340D02*
X86546680Y84460340D01*
X88912218Y81800340D02*
X89206680Y81800340D01*
X89206680Y84460340D02*
X89206680Y81800340D01*
D20*
G04 #@! TO.C,R18*
X123376680Y122963340D02*
X123376680Y123979340D01*
X121776680Y123979340D02*
X121776680Y122963340D01*
X123376680Y120931340D02*
X123376680Y121947340D01*
X121776680Y121947340D02*
X121776680Y120931340D01*
D21*
X123380174Y124038942D02*
G75*
G03*
X121776680Y124030340I-803494J321398D01*
G01*
X121776680Y120880340D02*
G75*
G03*
X123378318Y120876340I800000J-330000D01*
G01*
D16*
G04 #@! TO.C,M11*
X14387680Y57800000D02*
X14462158Y97224998D01*
X21037499Y96050000D02*
X21037499Y96574992D01*
X21637500Y57800000D02*
X21637500Y95449998D01*
X21637500Y57800000D02*
X14387680Y57800000D01*
X20387493Y97224998D02*
X14462158Y97224998D01*
X21037499Y96574992D02*
X20387493Y97224998D01*
X21637500Y95449998D02*
X21037499Y96050000D01*
X15912495Y88575003D02*
X15912495Y91200004D01*
D21*
G04 #@! TO.C,P51*
X31996680Y123250340D02*
X31996680Y125910340D01*
X34656680Y125910340D02*
X34656680Y123250340D01*
X34351053Y125910340D02*
X34656680Y125910340D01*
X34362218Y123250340D02*
X34656680Y123250340D01*
X32291142Y125910340D02*
X31996680Y125910340D01*
X32302307Y123250340D02*
X31996680Y123250340D01*
G04 #@! TO.C,F2*
X18511431Y131434193D02*
X13661431Y131434193D01*
X18511431Y133434193D02*
X13661431Y133434193D01*
X18561431Y131434193D02*
G75*
G03*
X18561431Y133434193I0J1000000D01*
G01*
X13661431Y133434193D02*
G75*
G03*
X13661431Y131434193I0J-1000000D01*
G01*
G04 #@! TO.C,J24*
X9001680Y121005340D02*
G75*
G03*
X9001680Y121005340I-1200000J0D01*
G01*
G04 #@! TD*
M02*
