G04 #@! TF.GenerationSoftware,KiCad,Pcbnew,(5.99.0-10559-g8513ca974c)*
G04 #@! TF.CreationDate,2021-09-15T09:17:41+03:00*
G04 #@! TF.ProjectId,hellen64_NB1,68656c6c-656e-4363-945f-4e42312e6b69,b*
G04 #@! TF.SameCoordinates,PX141ef50PYa2cc1bc*
G04 #@! TF.FileFunction,Soldermask,Bot*
G04 #@! TF.FilePolarity,Negative*
%FSLAX46Y46*%
G04 Gerber Fmt 4.6, Leading zero omitted, Abs format (unit mm)*
G04 Created by KiCad (PCBNEW (5.99.0-10559-g8513ca974c)) date 2021-09-15 09:17:41*
%MOMM*%
%LPD*%
G01*
G04 APERTURE LIST*
%ADD10C,0.599999*%
%ADD11C,1.524000*%
%ADD12C,1.700000*%
%ADD13R,1.700000X1.700000*%
%ADD14O,1.700000X1.700000*%
%ADD15O,1.000001X1.500000*%
%ADD16O,11.400000X1.100000*%
%ADD17O,0.399999X0.599999*%
%ADD18O,0.599999X0.800001*%
%ADD19O,0.599999X0.399999*%
%ADD20O,0.800001X0.599999*%
%ADD21O,0.399999X0.200000*%
%ADD22C,3.500120*%
%ADD23C,1.800000*%
%ADD24R,1.100000X1.100000*%
%ADD25C,1.100000*%
%ADD26O,1.100000X2.400000*%
%ADD27C,3.500000*%
%ADD28C,3.302000*%
%ADD29C,7.000000*%
%ADD30C,3.000000*%
%ADD31O,3.700000X2.700000*%
%ADD32C,0.600000*%
%ADD33O,1.850000X1.700000*%
%ADD34C,2.000000*%
G04 APERTURE END LIST*
D10*
G04 #@! TO.C,M4*
X75468535Y17795040D03*
X77043549Y12890031D03*
X89747567Y12899094D03*
X81268539Y12220030D03*
X82443543Y12220030D03*
X84618537Y12220030D03*
X86843539Y12220030D03*
G04 #@! TD*
D11*
G04 #@! TO.C,R8*
X127450000Y120595000D03*
X127450000Y124405000D03*
G04 #@! TD*
G04 #@! TO.C,R32*
X48024428Y127825340D03*
X48024428Y131635340D03*
G04 #@! TD*
D12*
G04 #@! TO.C,P5*
X62302380Y35910220D03*
G04 #@! TD*
G04 #@! TO.C,P6*
X62302380Y43412400D03*
G04 #@! TD*
G04 #@! TO.C,P47*
X40126680Y124605340D03*
G04 #@! TD*
D13*
G04 #@! TO.C,J27*
X103851680Y97005340D03*
D14*
X101311680Y97005340D03*
X98771680Y97005340D03*
X96231680Y97005340D03*
X93691680Y97005340D03*
X91151680Y97005340D03*
G04 #@! TD*
D12*
G04 #@! TO.C,P19*
X115951680Y127855340D03*
G04 #@! TD*
G04 #@! TO.C,G4*
X20210000Y45097322D03*
X20210000Y47637322D03*
X20210000Y50177322D03*
X20210000Y52717322D03*
X20210000Y55257322D03*
X22750000Y45097322D03*
X22750000Y47637322D03*
X22750000Y50177322D03*
X22750000Y52717322D03*
X22750000Y55257322D03*
X25290000Y45097322D03*
X25290000Y47637322D03*
X25290000Y50177322D03*
X25290000Y52717322D03*
X25290000Y55257322D03*
G04 #@! TD*
G04 #@! TO.C,P10*
X91401680Y130755340D03*
G04 #@! TD*
D11*
G04 #@! TO.C,R21*
X55876680Y127800319D03*
X55876680Y131610319D03*
G04 #@! TD*
D12*
G04 #@! TO.C,P12*
X29701680Y79005340D03*
G04 #@! TD*
G04 #@! TO.C,G12*
X12590000Y32397322D03*
X12590000Y34937322D03*
X12590000Y37477322D03*
X12590000Y40017322D03*
X12590000Y42557322D03*
X15130000Y32397322D03*
X15130000Y34937322D03*
X15130000Y37477322D03*
X15130000Y40017322D03*
X15130000Y42557322D03*
X17670000Y32397322D03*
X17670000Y34937322D03*
X17670000Y37477322D03*
X17670000Y40017322D03*
X17670000Y42557322D03*
G04 #@! TD*
D15*
G04 #@! TO.C,M5*
X30414997Y71843006D03*
X31670862Y71843006D03*
D16*
X38114997Y71968007D03*
D17*
X44564989Y72268006D03*
D18*
X45540001Y72168001D03*
D17*
X46409758Y72268006D03*
X47139995Y72268006D03*
X48034758Y72268006D03*
X50109758Y72268006D03*
X51009754Y72268006D03*
X51719996Y72268006D03*
D18*
X52739997Y72168006D03*
X53914996Y72168006D03*
X55264995Y72168006D03*
X56439994Y72168006D03*
D19*
X57339995Y71237767D03*
X57339995Y70543008D03*
X57339995Y69862768D03*
D20*
X57244997Y69043006D03*
D19*
X57339995Y67737769D03*
D20*
X57244997Y66768004D03*
D19*
X57339995Y65493006D03*
X57339995Y64843004D03*
D20*
X57244997Y63643004D03*
X57244997Y62568000D03*
X57244997Y61692998D03*
D19*
X57339995Y60868006D03*
X57339995Y55018005D03*
D21*
X57444996Y50963035D03*
X57444996Y50303033D03*
X57444996Y49243005D03*
X57444996Y48538920D03*
X57444996Y47738881D03*
X57444996Y46938842D03*
X57444996Y46143006D03*
X57444996Y43948004D03*
X57444996Y43508005D03*
X57444996Y43068006D03*
X57444996Y42628004D03*
X57444996Y42188005D03*
X57444996Y41748006D03*
X57444996Y41308004D03*
X57444996Y40868005D03*
X57444996Y39743034D03*
X57444996Y39083036D03*
X57444996Y38423034D03*
X57444996Y37763036D03*
X57444996Y34358006D03*
X57444996Y33918007D03*
X57444996Y33478005D03*
X57444996Y33038006D03*
X57444996Y32598007D03*
X57444996Y32158005D03*
X57444996Y31718006D03*
G04 #@! TD*
D11*
G04 #@! TO.C,R36*
X31401680Y127825340D03*
X31401680Y131635340D03*
G04 #@! TD*
G04 #@! TO.C,R48*
X113076680Y127100319D03*
X113076680Y130910319D03*
G04 #@! TD*
D12*
G04 #@! TO.C,P15*
X91401680Y133680340D03*
G04 #@! TD*
D11*
G04 #@! TO.C,R24*
X113126680Y120550340D03*
X113126680Y124360340D03*
G04 #@! TD*
G04 #@! TO.C,R33*
X43701680Y127825340D03*
X43701680Y131635340D03*
G04 #@! TD*
G04 #@! TO.C,R42*
X13391221Y125804438D03*
X13391221Y129614438D03*
G04 #@! TD*
D22*
G04 #@! TO.C,P2*
X138640980Y147779760D03*
X15340980Y147779760D03*
X49790980Y147779760D03*
X97190980Y147779760D03*
D23*
X15990980Y137579120D03*
X19488560Y137579120D03*
X22589900Y137579120D03*
X25589640Y137579120D03*
X28589380Y137579120D03*
X31589120Y137579120D03*
X34588860Y137579120D03*
X37588600Y137579120D03*
X40588340Y137579120D03*
X43588080Y137579120D03*
X46689420Y137579120D03*
X15990980Y142080000D03*
X19488560Y142080000D03*
X22589900Y142080000D03*
X25589640Y142080000D03*
X28589380Y142080000D03*
X31589120Y142080000D03*
X34588860Y142080000D03*
X37588600Y142080000D03*
X40588340Y142080000D03*
X43588080Y142080000D03*
X46689420Y142080000D03*
X73340980Y137579120D03*
X76340720Y137579120D03*
X79340460Y137579120D03*
X82340200Y137579120D03*
X85342480Y137579120D03*
X88342220Y137579120D03*
X91341960Y137579120D03*
X94341700Y137579120D03*
X73340980Y142080000D03*
X76340720Y142080000D03*
X79340460Y142080000D03*
X82340200Y142080000D03*
X85342480Y142080000D03*
X88342220Y142080000D03*
X91341960Y142080000D03*
X94341700Y142080000D03*
X100287840Y137579120D03*
X103787960Y137579120D03*
X106891840Y137579120D03*
X109891580Y137579120D03*
X112891320Y137579120D03*
X115891060Y137579120D03*
X118890800Y137579120D03*
X121890540Y137579120D03*
X124890280Y137579120D03*
X127890020Y137579120D03*
X130991360Y137579120D03*
X134491480Y137579120D03*
X137991600Y137579120D03*
X100287840Y142080000D03*
X103787960Y142080000D03*
X106891840Y142080000D03*
X109891580Y142080000D03*
X112891320Y142080000D03*
X115891060Y142080000D03*
X118890800Y142080000D03*
X121890540Y142080000D03*
X124890280Y142080000D03*
X127890020Y142080000D03*
X130991360Y142080000D03*
X134491480Y142080000D03*
X137991600Y142080000D03*
X52640980Y137579120D03*
X55640720Y137579120D03*
X58640460Y137579120D03*
X61640200Y137579120D03*
X64642480Y137579120D03*
X67642220Y137579120D03*
X52640980Y142080000D03*
X55640720Y142080000D03*
X58640460Y142080000D03*
X61640200Y142080000D03*
X64642480Y142080000D03*
X67642220Y142080000D03*
G04 #@! TD*
D12*
G04 #@! TO.C,P56*
X42200000Y133780340D03*
G04 #@! TD*
G04 #@! TO.C,P52*
X129494479Y128900000D03*
G04 #@! TD*
G04 #@! TO.C,P44*
X90726680Y83130340D03*
G04 #@! TD*
G04 #@! TO.C,P13*
X32601680Y76105340D03*
G04 #@! TD*
G04 #@! TO.C,P29*
X120901680Y41205340D03*
G04 #@! TD*
D11*
G04 #@! TO.C,R43*
X53426680Y127825340D03*
X53426680Y131635340D03*
G04 #@! TD*
D24*
G04 #@! TO.C,J1*
X145101680Y116180340D03*
D25*
X144301680Y114430340D03*
X143501680Y116180340D03*
X142701680Y114430340D03*
X141901680Y116180340D03*
D26*
X147151680Y115305340D03*
X139851680Y115305340D03*
G04 #@! TD*
D13*
G04 #@! TO.C,J6*
X54901680Y106280340D03*
D14*
X54901680Y108820340D03*
X54901680Y111360340D03*
X54901680Y113900340D03*
X54901680Y116440340D03*
X54901680Y118980340D03*
G04 #@! TD*
D12*
G04 #@! TO.C,P30*
X120901680Y38370220D03*
G04 #@! TD*
D13*
G04 #@! TO.C,J5*
X135316680Y102855340D03*
D12*
X135316680Y100355340D03*
X137316680Y100355340D03*
X137316680Y102855340D03*
D27*
X140026680Y95585340D03*
X140026680Y107625340D03*
G04 #@! TD*
D12*
G04 #@! TO.C,P4*
X65112640Y43410220D03*
G04 #@! TD*
G04 #@! TO.C,P25*
X123901680Y38370220D03*
G04 #@! TD*
D10*
G04 #@! TO.C,M8*
X59459042Y96874902D03*
X59984042Y97749904D03*
X60734040Y96574900D03*
X64284041Y96649903D03*
G04 #@! TD*
D28*
G04 #@! TO.C,U2*
X140601680Y52290340D03*
X140601680Y29430340D03*
D11*
X127901680Y47210340D03*
X127901680Y44670340D03*
X127901680Y42130340D03*
X127901680Y39590340D03*
X127901680Y37050340D03*
X127901680Y34510340D03*
G04 #@! TD*
G04 #@! TO.C,R17*
X132376680Y130951040D03*
X132376680Y127141040D03*
G04 #@! TD*
D12*
G04 #@! TO.C,G6*
X4970000Y45097322D03*
X4970000Y47637322D03*
X4970000Y50177322D03*
X4970000Y52717322D03*
X4970000Y55257322D03*
X7510000Y45097322D03*
X7510000Y47637322D03*
X7510000Y50177322D03*
X7510000Y52717322D03*
X7510000Y55257322D03*
X10050000Y45097322D03*
X10050000Y47637322D03*
X10050000Y50177322D03*
X10050000Y52717322D03*
X10050000Y55257322D03*
G04 #@! TD*
G04 #@! TO.C,P55*
X116026680Y131505340D03*
G04 #@! TD*
G04 #@! TO.C,P17*
X69201680Y61805340D03*
G04 #@! TD*
D10*
G04 #@! TO.C,M13*
X103293541Y18453558D03*
X104168543Y17928558D03*
X102993539Y17178560D03*
X103068542Y13628559D03*
G04 #@! TD*
D12*
G04 #@! TO.C,P11*
X29701680Y76105340D03*
G04 #@! TD*
G04 #@! TO.C,P50*
X31051680Y133705340D03*
G04 #@! TD*
D11*
G04 #@! TO.C,R40*
X23041221Y125799438D03*
X23041221Y129609438D03*
G04 #@! TD*
D29*
G04 #@! TO.C,J13*
X5000000Y5100000D03*
G04 #@! TD*
G04 #@! TO.C,M7*
G36*
G01*
X56804044Y22044216D02*
X57054042Y22044216D01*
G75*
G02*
X57179042Y21919216I0J-125000D01*
G01*
X57179042Y21919216D01*
G75*
G02*
X57054042Y21794216I-125000J0D01*
G01*
X56804044Y21794216D01*
G75*
G02*
X56679044Y21919216I0J125000D01*
G01*
X56679044Y21919216D01*
G75*
G02*
X56804044Y22044216I125000J0D01*
G01*
G37*
G36*
G01*
X56804044Y20944218D02*
X57054042Y20944218D01*
G75*
G02*
X57179042Y20819218I0J-125000D01*
G01*
X57179042Y20819218D01*
G75*
G02*
X57054042Y20694218I-125000J0D01*
G01*
X56804044Y20694218D01*
G75*
G02*
X56679044Y20819218I0J125000D01*
G01*
X56679044Y20819218D01*
G75*
G02*
X56804044Y20944218I125000J0D01*
G01*
G37*
G36*
G01*
X56804044Y19844220D02*
X57054042Y19844220D01*
G75*
G02*
X57179042Y19719220I0J-125000D01*
G01*
X57179042Y19719220D01*
G75*
G02*
X57054042Y19594220I-125000J0D01*
G01*
X56804044Y19594220D01*
G75*
G02*
X56679044Y19719220I0J125000D01*
G01*
X56679044Y19719220D01*
G75*
G02*
X56804044Y19844220I125000J0D01*
G01*
G37*
G36*
G01*
X56804044Y18744222D02*
X57054042Y18744222D01*
G75*
G02*
X57179042Y18619222I0J-125000D01*
G01*
X57179042Y18619222D01*
G75*
G02*
X57054042Y18494222I-125000J0D01*
G01*
X56804044Y18494222D01*
G75*
G02*
X56679044Y18619222I0J125000D01*
G01*
X56679044Y18619222D01*
G75*
G02*
X56804044Y18744222I125000J0D01*
G01*
G37*
G36*
G01*
X56804044Y17644224D02*
X57054042Y17644224D01*
G75*
G02*
X57179042Y17519224I0J-125000D01*
G01*
X57179042Y17519224D01*
G75*
G02*
X57054042Y17394224I-125000J0D01*
G01*
X56804044Y17394224D01*
G75*
G02*
X56679044Y17519224I0J125000D01*
G01*
X56679044Y17519224D01*
G75*
G02*
X56804044Y17644224I125000J0D01*
G01*
G37*
G36*
G01*
X56804044Y16544227D02*
X57054042Y16544227D01*
G75*
G02*
X57179042Y16419227I0J-125000D01*
G01*
X57179042Y16419227D01*
G75*
G02*
X57054042Y16294227I-125000J0D01*
G01*
X56804044Y16294227D01*
G75*
G02*
X56679044Y16419227I0J125000D01*
G01*
X56679044Y16419227D01*
G75*
G02*
X56804044Y16544227I125000J0D01*
G01*
G37*
G04 #@! TD*
D12*
G04 #@! TO.C,P28*
X81913040Y76406220D03*
G04 #@! TD*
G04 #@! TO.C,P24*
X123901680Y41205340D03*
G04 #@! TD*
G04 #@! TO.C,P8*
X94301680Y130805340D03*
G04 #@! TD*
G04 #@! TO.C,G9*
X4970000Y19697322D03*
X4970000Y22237322D03*
X4970000Y24777322D03*
X4970000Y27317322D03*
X4970000Y29857322D03*
X7510000Y19697322D03*
X7510000Y22237322D03*
X7510000Y24777322D03*
X7510000Y27317322D03*
X7510000Y29857322D03*
X10050000Y19697322D03*
X10050000Y22237322D03*
X10050000Y24777322D03*
X10050000Y27317322D03*
X10050000Y29857322D03*
G04 #@! TD*
G04 #@! TO.C,M1*
G36*
G01*
X85162638Y69351817D02*
X85412638Y69351817D01*
G75*
G02*
X85537638Y69226817I0J-125000D01*
G01*
X85537638Y69226817D01*
G75*
G02*
X85412638Y69101817I-125000J0D01*
G01*
X85162638Y69101817D01*
G75*
G02*
X85037638Y69226817I0J125000D01*
G01*
X85037638Y69226817D01*
G75*
G02*
X85162638Y69351817I125000J0D01*
G01*
G37*
G36*
G01*
X85162638Y70011818D02*
X85412638Y70011818D01*
G75*
G02*
X85537638Y69886818I0J-125000D01*
G01*
X85537638Y69886818D01*
G75*
G02*
X85412638Y69761818I-125000J0D01*
G01*
X85162638Y69761818D01*
G75*
G02*
X85037638Y69886818I0J125000D01*
G01*
X85037638Y69886818D01*
G75*
G02*
X85162638Y70011818I125000J0D01*
G01*
G37*
G36*
G01*
X85162638Y70671819D02*
X85412638Y70671819D01*
G75*
G02*
X85537638Y70546819I0J-125000D01*
G01*
X85537638Y70546819D01*
G75*
G02*
X85412638Y70421819I-125000J0D01*
G01*
X85162638Y70421819D01*
G75*
G02*
X85037638Y70546819I0J125000D01*
G01*
X85037638Y70546819D01*
G75*
G02*
X85162638Y70671819I125000J0D01*
G01*
G37*
G36*
G01*
X85162638Y71331820D02*
X85412638Y71331820D01*
G75*
G02*
X85537638Y71206820I0J-125000D01*
G01*
X85537638Y71206820D01*
G75*
G02*
X85412638Y71081820I-125000J0D01*
G01*
X85162638Y71081820D01*
G75*
G02*
X85037638Y71206820I0J125000D01*
G01*
X85037638Y71206820D01*
G75*
G02*
X85162638Y71331820I125000J0D01*
G01*
G37*
G36*
G01*
X85162638Y74631827D02*
X85412638Y74631827D01*
G75*
G02*
X85537638Y74506827I0J-125000D01*
G01*
X85537638Y74506827D01*
G75*
G02*
X85412638Y74381827I-125000J0D01*
G01*
X85162638Y74381827D01*
G75*
G02*
X85037638Y74506827I0J125000D01*
G01*
X85037638Y74506827D01*
G75*
G02*
X85162638Y74631827I125000J0D01*
G01*
G37*
G36*
G01*
X113932640Y61133024D02*
X113932640Y61383024D01*
G75*
G02*
X114057640Y61508024I125000J0D01*
G01*
X114057640Y61508024D01*
G75*
G02*
X114182640Y61383024I0J-125000D01*
G01*
X114182640Y61133024D01*
G75*
G02*
X114057640Y61008024I-125000J0D01*
G01*
X114057640Y61008024D01*
G75*
G02*
X113932640Y61133024I0J125000D01*
G01*
G37*
G36*
G01*
X113082636Y61383024D02*
X113082636Y61133024D01*
G75*
G02*
X112957636Y61008024I-125000J0D01*
G01*
X112957636Y61008024D01*
G75*
G02*
X112832636Y61133024I0J125000D01*
G01*
X112832636Y61383024D01*
G75*
G02*
X112957636Y61508024I125000J0D01*
G01*
X112957636Y61508024D01*
G75*
G02*
X113082636Y61383024I0J-125000D01*
G01*
G37*
G36*
G01*
X111982635Y61383024D02*
X111982635Y61133024D01*
G75*
G02*
X111857635Y61008024I-125000J0D01*
G01*
X111857635Y61008024D01*
G75*
G02*
X111732635Y61133024I0J125000D01*
G01*
X111732635Y61383024D01*
G75*
G02*
X111857635Y61508024I125000J0D01*
G01*
X111857635Y61508024D01*
G75*
G02*
X111982635Y61383024I0J-125000D01*
G01*
G37*
G36*
G01*
X110882638Y61383024D02*
X110882638Y61133024D01*
G75*
G02*
X110757638Y61008024I-125000J0D01*
G01*
X110757638Y61008024D01*
G75*
G02*
X110632638Y61133024I0J125000D01*
G01*
X110632638Y61383024D01*
G75*
G02*
X110757638Y61508024I125000J0D01*
G01*
X110757638Y61508024D01*
G75*
G02*
X110882638Y61383024I0J-125000D01*
G01*
G37*
G36*
G01*
X109782640Y61383024D02*
X109782640Y61133024D01*
G75*
G02*
X109657640Y61008024I-125000J0D01*
G01*
X109657640Y61008024D01*
G75*
G02*
X109532640Y61133024I0J125000D01*
G01*
X109532640Y61383024D01*
G75*
G02*
X109657640Y61508024I125000J0D01*
G01*
X109657640Y61508024D01*
G75*
G02*
X109782640Y61383024I0J-125000D01*
G01*
G37*
G36*
G01*
X108682642Y61383024D02*
X108682642Y61133024D01*
G75*
G02*
X108557642Y61008024I-125000J0D01*
G01*
X108557642Y61008024D01*
G75*
G02*
X108432642Y61133024I0J125000D01*
G01*
X108432642Y61383024D01*
G75*
G02*
X108557642Y61508024I125000J0D01*
G01*
X108557642Y61508024D01*
G75*
G02*
X108682642Y61383024I0J-125000D01*
G01*
G37*
G36*
G01*
X107582644Y61383024D02*
X107582644Y61133024D01*
G75*
G02*
X107457644Y61008024I-125000J0D01*
G01*
X107457644Y61008024D01*
G75*
G02*
X107332644Y61133024I0J125000D01*
G01*
X107332644Y61383024D01*
G75*
G02*
X107457644Y61508024I125000J0D01*
G01*
X107457644Y61508024D01*
G75*
G02*
X107582644Y61383024I0J-125000D01*
G01*
G37*
G36*
G01*
X106482646Y61383024D02*
X106482646Y61133024D01*
G75*
G02*
X106357646Y61008024I-125000J0D01*
G01*
X106357646Y61008024D01*
G75*
G02*
X106232646Y61133024I0J125000D01*
G01*
X106232646Y61383024D01*
G75*
G02*
X106357646Y61508024I125000J0D01*
G01*
X106357646Y61508024D01*
G75*
G02*
X106482646Y61383024I0J-125000D01*
G01*
G37*
G36*
G01*
X105382649Y61383024D02*
X105382649Y61133024D01*
G75*
G02*
X105257649Y61008024I-125000J0D01*
G01*
X105257649Y61008024D01*
G75*
G02*
X105132649Y61133024I0J125000D01*
G01*
X105132649Y61383024D01*
G75*
G02*
X105257649Y61508024I125000J0D01*
G01*
X105257649Y61508024D01*
G75*
G02*
X105382649Y61383024I0J-125000D01*
G01*
G37*
G36*
G01*
X104282651Y61383024D02*
X104282651Y61133024D01*
G75*
G02*
X104157651Y61008024I-125000J0D01*
G01*
X104157651Y61008024D01*
G75*
G02*
X104032651Y61133024I0J125000D01*
G01*
X104032651Y61383024D01*
G75*
G02*
X104157651Y61508024I125000J0D01*
G01*
X104157651Y61508024D01*
G75*
G02*
X104282651Y61383024I0J-125000D01*
G01*
G37*
G36*
G01*
X103182653Y61383024D02*
X103182653Y61133024D01*
G75*
G02*
X103057653Y61008024I-125000J0D01*
G01*
X103057653Y61008024D01*
G75*
G02*
X102932653Y61133024I0J125000D01*
G01*
X102932653Y61383024D01*
G75*
G02*
X103057653Y61508024I125000J0D01*
G01*
X103057653Y61508024D01*
G75*
G02*
X103182653Y61383024I0J-125000D01*
G01*
G37*
G36*
G01*
X102082655Y61383024D02*
X102082655Y61133024D01*
G75*
G02*
X101957655Y61008024I-125000J0D01*
G01*
X101957655Y61008024D01*
G75*
G02*
X101832655Y61133024I0J125000D01*
G01*
X101832655Y61383024D01*
G75*
G02*
X101957655Y61508024I125000J0D01*
G01*
X101957655Y61508024D01*
G75*
G02*
X102082655Y61383024I0J-125000D01*
G01*
G37*
G36*
G01*
X100982657Y61383024D02*
X100982657Y61133024D01*
G75*
G02*
X100857657Y61008024I-125000J0D01*
G01*
X100857657Y61008024D01*
G75*
G02*
X100732657Y61133024I0J125000D01*
G01*
X100732657Y61383024D01*
G75*
G02*
X100857657Y61508024I125000J0D01*
G01*
X100857657Y61508024D01*
G75*
G02*
X100982657Y61383024I0J-125000D01*
G01*
G37*
G36*
G01*
X99882660Y61383024D02*
X99882660Y61133024D01*
G75*
G02*
X99757660Y61008024I-125000J0D01*
G01*
X99757660Y61008024D01*
G75*
G02*
X99632660Y61133024I0J125000D01*
G01*
X99632660Y61383024D01*
G75*
G02*
X99757660Y61508024I125000J0D01*
G01*
X99757660Y61508024D01*
G75*
G02*
X99882660Y61383024I0J-125000D01*
G01*
G37*
G36*
G01*
X98782662Y61383024D02*
X98782662Y61133024D01*
G75*
G02*
X98657662Y61008024I-125000J0D01*
G01*
X98657662Y61008024D01*
G75*
G02*
X98532662Y61133024I0J125000D01*
G01*
X98532662Y61383024D01*
G75*
G02*
X98657662Y61508024I125000J0D01*
G01*
X98657662Y61508024D01*
G75*
G02*
X98782662Y61383024I0J-125000D01*
G01*
G37*
G36*
G01*
X97682664Y61383024D02*
X97682664Y61133024D01*
G75*
G02*
X97557664Y61008024I-125000J0D01*
G01*
X97557664Y61008024D01*
G75*
G02*
X97432664Y61133024I0J125000D01*
G01*
X97432664Y61383024D01*
G75*
G02*
X97557664Y61508024I125000J0D01*
G01*
X97557664Y61508024D01*
G75*
G02*
X97682664Y61383024I0J-125000D01*
G01*
G37*
G36*
G01*
X96582666Y61383024D02*
X96582666Y61133024D01*
G75*
G02*
X96457666Y61008024I-125000J0D01*
G01*
X96457666Y61008024D01*
G75*
G02*
X96332666Y61133024I0J125000D01*
G01*
X96332666Y61383024D01*
G75*
G02*
X96457666Y61508024I125000J0D01*
G01*
X96457666Y61508024D01*
G75*
G02*
X96582666Y61383024I0J-125000D01*
G01*
G37*
G36*
G01*
X95482668Y61383024D02*
X95482668Y61133024D01*
G75*
G02*
X95357668Y61008024I-125000J0D01*
G01*
X95357668Y61008024D01*
G75*
G02*
X95232668Y61133024I0J125000D01*
G01*
X95232668Y61383024D01*
G75*
G02*
X95357668Y61508024I125000J0D01*
G01*
X95357668Y61508024D01*
G75*
G02*
X95482668Y61383024I0J-125000D01*
G01*
G37*
G36*
G01*
X94382671Y61383024D02*
X94382671Y61133024D01*
G75*
G02*
X94257671Y61008024I-125000J0D01*
G01*
X94257671Y61008024D01*
G75*
G02*
X94132671Y61133024I0J125000D01*
G01*
X94132671Y61383024D01*
G75*
G02*
X94257671Y61508024I125000J0D01*
G01*
X94257671Y61508024D01*
G75*
G02*
X94382671Y61383024I0J-125000D01*
G01*
G37*
G36*
G01*
X93282673Y61383024D02*
X93282673Y61133024D01*
G75*
G02*
X93157673Y61008024I-125000J0D01*
G01*
X93157673Y61008024D01*
G75*
G02*
X93032673Y61133024I0J125000D01*
G01*
X93032673Y61383024D01*
G75*
G02*
X93157673Y61508024I125000J0D01*
G01*
X93157673Y61508024D01*
G75*
G02*
X93282673Y61383024I0J-125000D01*
G01*
G37*
G36*
G01*
X92182675Y61383024D02*
X92182675Y61133024D01*
G75*
G02*
X92057675Y61008024I-125000J0D01*
G01*
X92057675Y61008024D01*
G75*
G02*
X91932675Y61133024I0J125000D01*
G01*
X91932675Y61383024D01*
G75*
G02*
X92057675Y61508024I125000J0D01*
G01*
X92057675Y61508024D01*
G75*
G02*
X92182675Y61383024I0J-125000D01*
G01*
G37*
G36*
G01*
X91082677Y61383024D02*
X91082677Y61133024D01*
G75*
G02*
X90957677Y61008024I-125000J0D01*
G01*
X90957677Y61008024D01*
G75*
G02*
X90832677Y61133024I0J125000D01*
G01*
X90832677Y61383024D01*
G75*
G02*
X90957677Y61508024I125000J0D01*
G01*
X90957677Y61508024D01*
G75*
G02*
X91082677Y61383024I0J-125000D01*
G01*
G37*
G36*
G01*
X89982679Y61383024D02*
X89982679Y61133024D01*
G75*
G02*
X89857679Y61008024I-125000J0D01*
G01*
X89857679Y61008024D01*
G75*
G02*
X89732679Y61133024I0J125000D01*
G01*
X89732679Y61383024D01*
G75*
G02*
X89857679Y61508024I125000J0D01*
G01*
X89857679Y61508024D01*
G75*
G02*
X89982679Y61383024I0J-125000D01*
G01*
G37*
G36*
G01*
X88882682Y61383024D02*
X88882682Y61133024D01*
G75*
G02*
X88757682Y61008024I-125000J0D01*
G01*
X88757682Y61008024D01*
G75*
G02*
X88632682Y61133024I0J125000D01*
G01*
X88632682Y61383024D01*
G75*
G02*
X88757682Y61508024I125000J0D01*
G01*
X88757682Y61508024D01*
G75*
G02*
X88882682Y61383024I0J-125000D01*
G01*
G37*
G36*
G01*
X87782684Y61383024D02*
X87782684Y61133024D01*
G75*
G02*
X87657684Y61008024I-125000J0D01*
G01*
X87657684Y61008024D01*
G75*
G02*
X87532684Y61133024I0J125000D01*
G01*
X87532684Y61383024D01*
G75*
G02*
X87657684Y61508024I125000J0D01*
G01*
X87657684Y61508024D01*
G75*
G02*
X87782684Y61383024I0J-125000D01*
G01*
G37*
G36*
G01*
X86682686Y61383024D02*
X86682686Y61133024D01*
G75*
G02*
X86557686Y61008024I-125000J0D01*
G01*
X86557686Y61008024D01*
G75*
G02*
X86432686Y61133024I0J125000D01*
G01*
X86432686Y61383024D01*
G75*
G02*
X86557686Y61508024I125000J0D01*
G01*
X86557686Y61508024D01*
G75*
G02*
X86682686Y61383024I0J-125000D01*
G01*
G37*
G36*
G01*
X86933630Y75345023D02*
X86933630Y75095023D01*
G75*
G02*
X86808630Y74970023I-125000J0D01*
G01*
X86808630Y74970023D01*
G75*
G02*
X86683630Y75095023I0J125000D01*
G01*
X86683630Y75345023D01*
G75*
G02*
X86808630Y75470023I125000J0D01*
G01*
X86808630Y75470023D01*
G75*
G02*
X86933630Y75345023I0J-125000D01*
G01*
G37*
G36*
G01*
X87593632Y75345023D02*
X87593632Y75095023D01*
G75*
G02*
X87468632Y74970023I-125000J0D01*
G01*
X87468632Y74970023D01*
G75*
G02*
X87343632Y75095023I0J125000D01*
G01*
X87343632Y75345023D01*
G75*
G02*
X87468632Y75470023I125000J0D01*
G01*
X87468632Y75470023D01*
G75*
G02*
X87593632Y75345023I0J-125000D01*
G01*
G37*
G36*
G01*
X88253633Y75345023D02*
X88253633Y75095023D01*
G75*
G02*
X88128633Y74970023I-125000J0D01*
G01*
X88128633Y74970023D01*
G75*
G02*
X88003633Y75095023I0J125000D01*
G01*
X88003633Y75345023D01*
G75*
G02*
X88128633Y75470023I125000J0D01*
G01*
X88128633Y75470023D01*
G75*
G02*
X88253633Y75345023I0J-125000D01*
G01*
G37*
G36*
G01*
X88913634Y75345023D02*
X88913634Y75095023D01*
G75*
G02*
X88788634Y74970023I-125000J0D01*
G01*
X88788634Y74970023D01*
G75*
G02*
X88663634Y75095023I0J125000D01*
G01*
X88663634Y75345023D01*
G75*
G02*
X88788634Y75470023I125000J0D01*
G01*
X88788634Y75470023D01*
G75*
G02*
X88913634Y75345023I0J-125000D01*
G01*
G37*
G36*
G01*
X89573635Y75345023D02*
X89573635Y75095023D01*
G75*
G02*
X89448635Y74970023I-125000J0D01*
G01*
X89448635Y74970023D01*
G75*
G02*
X89323635Y75095023I0J125000D01*
G01*
X89323635Y75345023D01*
G75*
G02*
X89448635Y75470023I125000J0D01*
G01*
X89448635Y75470023D01*
G75*
G02*
X89573635Y75345023I0J-125000D01*
G01*
G37*
G36*
G01*
X90233637Y75345023D02*
X90233637Y75095023D01*
G75*
G02*
X90108637Y74970023I-125000J0D01*
G01*
X90108637Y74970023D01*
G75*
G02*
X89983637Y75095023I0J125000D01*
G01*
X89983637Y75345023D01*
G75*
G02*
X90108637Y75470023I125000J0D01*
G01*
X90108637Y75470023D01*
G75*
G02*
X90233637Y75345023I0J-125000D01*
G01*
G37*
G36*
G01*
X91834634Y75345023D02*
X91834634Y75095023D01*
G75*
G02*
X91709634Y74970023I-125000J0D01*
G01*
X91709634Y74970023D01*
G75*
G02*
X91584634Y75095023I0J125000D01*
G01*
X91584634Y75345023D01*
G75*
G02*
X91709634Y75470023I125000J0D01*
G01*
X91709634Y75470023D01*
G75*
G02*
X91834634Y75345023I0J-125000D01*
G01*
G37*
G36*
G01*
X92494635Y75345023D02*
X92494635Y75095023D01*
G75*
G02*
X92369635Y74970023I-125000J0D01*
G01*
X92369635Y74970023D01*
G75*
G02*
X92244635Y75095023I0J125000D01*
G01*
X92244635Y75345023D01*
G75*
G02*
X92369635Y75470023I125000J0D01*
G01*
X92369635Y75470023D01*
G75*
G02*
X92494635Y75345023I0J-125000D01*
G01*
G37*
G36*
G01*
X93154637Y75345023D02*
X93154637Y75095023D01*
G75*
G02*
X93029637Y74970023I-125000J0D01*
G01*
X93029637Y74970023D01*
G75*
G02*
X92904637Y75095023I0J125000D01*
G01*
X92904637Y75345023D01*
G75*
G02*
X93029637Y75470023I125000J0D01*
G01*
X93029637Y75470023D01*
G75*
G02*
X93154637Y75345023I0J-125000D01*
G01*
G37*
G36*
G01*
X94275536Y75345023D02*
X94275536Y75095023D01*
G75*
G02*
X94150536Y74970023I-125000J0D01*
G01*
X94150536Y74970023D01*
G75*
G02*
X94025536Y75095023I0J125000D01*
G01*
X94025536Y75345023D01*
G75*
G02*
X94150536Y75470023I125000J0D01*
G01*
X94150536Y75470023D01*
G75*
G02*
X94275536Y75345023I0J-125000D01*
G01*
G37*
G36*
G01*
X94935537Y75345023D02*
X94935537Y75095023D01*
G75*
G02*
X94810537Y74970023I-125000J0D01*
G01*
X94810537Y74970023D01*
G75*
G02*
X94685537Y75095023I0J125000D01*
G01*
X94685537Y75345023D01*
G75*
G02*
X94810537Y75470023I125000J0D01*
G01*
X94810537Y75470023D01*
G75*
G02*
X94935537Y75345023I0J-125000D01*
G01*
G37*
G36*
G01*
X95595538Y75345023D02*
X95595538Y75095023D01*
G75*
G02*
X95470538Y74970023I-125000J0D01*
G01*
X95470538Y74970023D01*
G75*
G02*
X95345538Y75095023I0J125000D01*
G01*
X95345538Y75345023D01*
G75*
G02*
X95470538Y75470023I125000J0D01*
G01*
X95470538Y75470023D01*
G75*
G02*
X95595538Y75345023I0J-125000D01*
G01*
G37*
G36*
G01*
X96255540Y75345023D02*
X96255540Y75095023D01*
G75*
G02*
X96130540Y74970023I-125000J0D01*
G01*
X96130540Y74970023D01*
G75*
G02*
X96005540Y75095023I0J125000D01*
G01*
X96005540Y75345023D01*
G75*
G02*
X96130540Y75470023I125000J0D01*
G01*
X96130540Y75470023D01*
G75*
G02*
X96255540Y75345023I0J-125000D01*
G01*
G37*
G36*
G01*
X99581634Y75345023D02*
X99581634Y75095023D01*
G75*
G02*
X99456634Y74970023I-125000J0D01*
G01*
X99456634Y74970023D01*
G75*
G02*
X99331634Y75095023I0J125000D01*
G01*
X99331634Y75345023D01*
G75*
G02*
X99456634Y75470023I125000J0D01*
G01*
X99456634Y75470023D01*
G75*
G02*
X99581634Y75345023I0J-125000D01*
G01*
G37*
G36*
G01*
X100241635Y75345023D02*
X100241635Y75095023D01*
G75*
G02*
X100116635Y74970023I-125000J0D01*
G01*
X100116635Y74970023D01*
G75*
G02*
X99991635Y75095023I0J125000D01*
G01*
X99991635Y75345023D01*
G75*
G02*
X100116635Y75470023I125000J0D01*
G01*
X100116635Y75470023D01*
G75*
G02*
X100241635Y75345023I0J-125000D01*
G01*
G37*
G36*
G01*
X100901637Y75345023D02*
X100901637Y75095023D01*
G75*
G02*
X100776637Y74970023I-125000J0D01*
G01*
X100776637Y74970023D01*
G75*
G02*
X100651637Y75095023I0J125000D01*
G01*
X100651637Y75345023D01*
G75*
G02*
X100776637Y75470023I125000J0D01*
G01*
X100776637Y75470023D01*
G75*
G02*
X100901637Y75345023I0J-125000D01*
G01*
G37*
G36*
G01*
X103547628Y75345023D02*
X103547628Y75095023D01*
G75*
G02*
X103422628Y74970023I-125000J0D01*
G01*
X103422628Y74970023D01*
G75*
G02*
X103297628Y75095023I0J125000D01*
G01*
X103297628Y75345023D01*
G75*
G02*
X103422628Y75470023I125000J0D01*
G01*
X103422628Y75470023D01*
G75*
G02*
X103547628Y75345023I0J-125000D01*
G01*
G37*
G36*
G01*
X104207629Y75345023D02*
X104207629Y75095023D01*
G75*
G02*
X104082629Y74970023I-125000J0D01*
G01*
X104082629Y74970023D01*
G75*
G02*
X103957629Y75095023I0J125000D01*
G01*
X103957629Y75345023D01*
G75*
G02*
X104082629Y75470023I125000J0D01*
G01*
X104082629Y75470023D01*
G75*
G02*
X104207629Y75345023I0J-125000D01*
G01*
G37*
G36*
G01*
X104867631Y75345023D02*
X104867631Y75095023D01*
G75*
G02*
X104742631Y74970023I-125000J0D01*
G01*
X104742631Y74970023D01*
G75*
G02*
X104617631Y75095023I0J125000D01*
G01*
X104617631Y75345023D01*
G75*
G02*
X104742631Y75470023I125000J0D01*
G01*
X104742631Y75470023D01*
G75*
G02*
X104867631Y75345023I0J-125000D01*
G01*
G37*
G36*
G01*
X105527632Y75345023D02*
X105527632Y75095023D01*
G75*
G02*
X105402632Y74970023I-125000J0D01*
G01*
X105402632Y74970023D01*
G75*
G02*
X105277632Y75095023I0J125000D01*
G01*
X105277632Y75345023D01*
G75*
G02*
X105402632Y75470023I125000J0D01*
G01*
X105402632Y75470023D01*
G75*
G02*
X105527632Y75345023I0J-125000D01*
G01*
G37*
G36*
G01*
X106187633Y75345023D02*
X106187633Y75095023D01*
G75*
G02*
X106062633Y74970023I-125000J0D01*
G01*
X106062633Y74970023D01*
G75*
G02*
X105937633Y75095023I0J125000D01*
G01*
X105937633Y75345023D01*
G75*
G02*
X106062633Y75470023I125000J0D01*
G01*
X106062633Y75470023D01*
G75*
G02*
X106187633Y75345023I0J-125000D01*
G01*
G37*
G36*
G01*
X106847634Y75345023D02*
X106847634Y75095023D01*
G75*
G02*
X106722634Y74970023I-125000J0D01*
G01*
X106722634Y74970023D01*
G75*
G02*
X106597634Y75095023I0J125000D01*
G01*
X106597634Y75345023D01*
G75*
G02*
X106722634Y75470023I125000J0D01*
G01*
X106722634Y75470023D01*
G75*
G02*
X106847634Y75345023I0J-125000D01*
G01*
G37*
G36*
G01*
X107507636Y75345023D02*
X107507636Y75095023D01*
G75*
G02*
X107382636Y74970023I-125000J0D01*
G01*
X107382636Y74970023D01*
G75*
G02*
X107257636Y75095023I0J125000D01*
G01*
X107257636Y75345023D01*
G75*
G02*
X107382636Y75470023I125000J0D01*
G01*
X107382636Y75470023D01*
G75*
G02*
X107507636Y75345023I0J-125000D01*
G01*
G37*
G36*
G01*
X108167637Y75345023D02*
X108167637Y75095023D01*
G75*
G02*
X108042637Y74970023I-125000J0D01*
G01*
X108042637Y74970023D01*
G75*
G02*
X107917637Y75095023I0J125000D01*
G01*
X107917637Y75345023D01*
G75*
G02*
X108042637Y75470023I125000J0D01*
G01*
X108042637Y75470023D01*
G75*
G02*
X108167637Y75345023I0J-125000D01*
G01*
G37*
G36*
G01*
X108827638Y75345023D02*
X108827638Y75095023D01*
G75*
G02*
X108702638Y74970023I-125000J0D01*
G01*
X108702638Y74970023D01*
G75*
G02*
X108577638Y75095023I0J125000D01*
G01*
X108577638Y75345023D01*
G75*
G02*
X108702638Y75470023I125000J0D01*
G01*
X108702638Y75470023D01*
G75*
G02*
X108827638Y75345023I0J-125000D01*
G01*
G37*
G36*
G01*
X109487640Y75345023D02*
X109487640Y75095023D01*
G75*
G02*
X109362640Y74970023I-125000J0D01*
G01*
X109362640Y74970023D01*
G75*
G02*
X109237640Y75095023I0J125000D01*
G01*
X109237640Y75345023D01*
G75*
G02*
X109362640Y75470023I125000J0D01*
G01*
X109362640Y75470023D01*
G75*
G02*
X109487640Y75345023I0J-125000D01*
G01*
G37*
G04 #@! TD*
D11*
G04 #@! TO.C,R38*
X16441221Y125874438D03*
X16441221Y129684438D03*
G04 #@! TD*
G04 #@! TO.C,R44*
X126525000Y127045000D03*
X126525000Y130855000D03*
G04 #@! TD*
G04 #@! TO.C,M3*
G36*
G01*
X69941543Y26263845D02*
X70191543Y26263845D01*
G75*
G02*
X70316543Y26138845I0J-125000D01*
G01*
X70316543Y26138845D01*
G75*
G02*
X70191543Y26013845I-125000J0D01*
G01*
X69941543Y26013845D01*
G75*
G02*
X69816543Y26138845I0J125000D01*
G01*
X69816543Y26138845D01*
G75*
G02*
X69941543Y26263845I125000J0D01*
G01*
G37*
G36*
G01*
X70191543Y26673843D02*
X69941543Y26673843D01*
G75*
G02*
X69816543Y26798843I0J125000D01*
G01*
X69816543Y26798843D01*
G75*
G02*
X69941543Y26923843I125000J0D01*
G01*
X70191543Y26923843D01*
G75*
G02*
X70316543Y26798843I0J-125000D01*
G01*
X70316543Y26798843D01*
G75*
G02*
X70191543Y26673843I-125000J0D01*
G01*
G37*
G36*
G01*
X70191543Y27333848D02*
X69941543Y27333848D01*
G75*
G02*
X69816543Y27458848I0J125000D01*
G01*
X69816543Y27458848D01*
G75*
G02*
X69941543Y27583848I125000J0D01*
G01*
X70191543Y27583848D01*
G75*
G02*
X70316543Y27458848I0J-125000D01*
G01*
X70316543Y27458848D01*
G75*
G02*
X70191543Y27333848I-125000J0D01*
G01*
G37*
G36*
G01*
X70191543Y27993843D02*
X69941543Y27993843D01*
G75*
G02*
X69816543Y28118843I0J125000D01*
G01*
X69816543Y28118843D01*
G75*
G02*
X69941543Y28243843I125000J0D01*
G01*
X70191543Y28243843D01*
G75*
G02*
X70316543Y28118843I0J-125000D01*
G01*
X70316543Y28118843D01*
G75*
G02*
X70191543Y27993843I-125000J0D01*
G01*
G37*
G36*
G01*
X70191543Y28653845D02*
X69941543Y28653845D01*
G75*
G02*
X69816543Y28778845I0J125000D01*
G01*
X69816543Y28778845D01*
G75*
G02*
X69941543Y28903845I125000J0D01*
G01*
X70191543Y28903845D01*
G75*
G02*
X70316543Y28778845I0J-125000D01*
G01*
X70316543Y28778845D01*
G75*
G02*
X70191543Y28653845I-125000J0D01*
G01*
G37*
G36*
G01*
X70191543Y31953846D02*
X69941543Y31953846D01*
G75*
G02*
X69816543Y32078846I0J125000D01*
G01*
X69816543Y32078846D01*
G75*
G02*
X69941543Y32203846I125000J0D01*
G01*
X70191543Y32203846D01*
G75*
G02*
X70316543Y32078846I0J-125000D01*
G01*
X70316543Y32078846D01*
G75*
G02*
X70191543Y31953846I-125000J0D01*
G01*
G37*
G36*
G01*
X70191543Y32613847D02*
X69941543Y32613847D01*
G75*
G02*
X69816543Y32738847I0J125000D01*
G01*
X69816543Y32738847D01*
G75*
G02*
X69941543Y32863847I125000J0D01*
G01*
X70191543Y32863847D01*
G75*
G02*
X70316543Y32738847I0J-125000D01*
G01*
X70316543Y32738847D01*
G75*
G02*
X70191543Y32613847I-125000J0D01*
G01*
G37*
G36*
G01*
X70191543Y33273849D02*
X69941543Y33273849D01*
G75*
G02*
X69816543Y33398849I0J125000D01*
G01*
X69816543Y33398849D01*
G75*
G02*
X69941543Y33523849I125000J0D01*
G01*
X70191543Y33523849D01*
G75*
G02*
X70316543Y33398849I0J-125000D01*
G01*
X70316543Y33398849D01*
G75*
G02*
X70191543Y33273849I-125000J0D01*
G01*
G37*
G36*
G01*
X70191543Y33933847D02*
X69941543Y33933847D01*
G75*
G02*
X69816543Y34058847I0J125000D01*
G01*
X69816543Y34058847D01*
G75*
G02*
X69941543Y34183847I125000J0D01*
G01*
X70191543Y34183847D01*
G75*
G02*
X70316543Y34058847I0J-125000D01*
G01*
X70316543Y34058847D01*
G75*
G02*
X70191543Y33933847I-125000J0D01*
G01*
G37*
G36*
G01*
X70191543Y34593849D02*
X69941543Y34593849D01*
G75*
G02*
X69816543Y34718849I0J125000D01*
G01*
X69816543Y34718849D01*
G75*
G02*
X69941543Y34843849I125000J0D01*
G01*
X70191543Y34843849D01*
G75*
G02*
X70316543Y34718849I0J-125000D01*
G01*
X70316543Y34718849D01*
G75*
G02*
X70191543Y34593849I-125000J0D01*
G01*
G37*
G36*
G01*
X70191543Y35253847D02*
X69941543Y35253847D01*
G75*
G02*
X69816543Y35378847I0J125000D01*
G01*
X69816543Y35378847D01*
G75*
G02*
X69941543Y35503847I125000J0D01*
G01*
X70191543Y35503847D01*
G75*
G02*
X70316543Y35378847I0J-125000D01*
G01*
X70316543Y35378847D01*
G75*
G02*
X70191543Y35253847I-125000J0D01*
G01*
G37*
G36*
G01*
X70191543Y35913848D02*
X69941543Y35913848D01*
G75*
G02*
X69816543Y36038848I0J125000D01*
G01*
X69816543Y36038848D01*
G75*
G02*
X69941543Y36163848I125000J0D01*
G01*
X70191543Y36163848D01*
G75*
G02*
X70316543Y36038848I0J-125000D01*
G01*
X70316543Y36038848D01*
G75*
G02*
X70191543Y35913848I-125000J0D01*
G01*
G37*
G36*
G01*
X70191543Y36573847D02*
X69941543Y36573847D01*
G75*
G02*
X69816543Y36698847I0J125000D01*
G01*
X69816543Y36698847D01*
G75*
G02*
X69941543Y36823847I125000J0D01*
G01*
X70191543Y36823847D01*
G75*
G02*
X70316543Y36698847I0J-125000D01*
G01*
X70316543Y36698847D01*
G75*
G02*
X70191543Y36573847I-125000J0D01*
G01*
G37*
G36*
G01*
X70191543Y37233848D02*
X69941543Y37233848D01*
G75*
G02*
X69816543Y37358848I0J125000D01*
G01*
X69816543Y37358848D01*
G75*
G02*
X69941543Y37483848I125000J0D01*
G01*
X70191543Y37483848D01*
G75*
G02*
X70316543Y37358848I0J-125000D01*
G01*
X70316543Y37358848D01*
G75*
G02*
X70191543Y37233848I-125000J0D01*
G01*
G37*
G36*
G01*
X70191543Y37893847D02*
X69941543Y37893847D01*
G75*
G02*
X69816543Y38018847I0J125000D01*
G01*
X69816543Y38018847D01*
G75*
G02*
X69941543Y38143847I125000J0D01*
G01*
X70191543Y38143847D01*
G75*
G02*
X70316543Y38018847I0J-125000D01*
G01*
X70316543Y38018847D01*
G75*
G02*
X70191543Y37893847I-125000J0D01*
G01*
G37*
G36*
G01*
X70191543Y38553848D02*
X69941543Y38553848D01*
G75*
G02*
X69816543Y38678848I0J125000D01*
G01*
X69816543Y38678848D01*
G75*
G02*
X69941543Y38803848I125000J0D01*
G01*
X70191543Y38803848D01*
G75*
G02*
X70316543Y38678848I0J-125000D01*
G01*
X70316543Y38678848D01*
G75*
G02*
X70191543Y38553848I-125000J0D01*
G01*
G37*
G36*
G01*
X70191543Y39213847D02*
X69941543Y39213847D01*
G75*
G02*
X69816543Y39338847I0J125000D01*
G01*
X69816543Y39338847D01*
G75*
G02*
X69941543Y39463847I125000J0D01*
G01*
X70191543Y39463847D01*
G75*
G02*
X70316543Y39338847I0J-125000D01*
G01*
X70316543Y39338847D01*
G75*
G02*
X70191543Y39213847I-125000J0D01*
G01*
G37*
G36*
G01*
X70191543Y39873848D02*
X69941543Y39873848D01*
G75*
G02*
X69816543Y39998848I0J125000D01*
G01*
X69816543Y39998848D01*
G75*
G02*
X69941543Y40123848I125000J0D01*
G01*
X70191543Y40123848D01*
G75*
G02*
X70316543Y39998848I0J-125000D01*
G01*
X70316543Y39998848D01*
G75*
G02*
X70191543Y39873848I-125000J0D01*
G01*
G37*
G36*
G01*
X70191543Y40533847D02*
X69941543Y40533847D01*
G75*
G02*
X69816543Y40658847I0J125000D01*
G01*
X69816543Y40658847D01*
G75*
G02*
X69941543Y40783847I125000J0D01*
G01*
X70191543Y40783847D01*
G75*
G02*
X70316543Y40658847I0J-125000D01*
G01*
X70316543Y40658847D01*
G75*
G02*
X70191543Y40533847I-125000J0D01*
G01*
G37*
G36*
G01*
X70191543Y41193848D02*
X69941543Y41193848D01*
G75*
G02*
X69816543Y41318848I0J125000D01*
G01*
X69816543Y41318848D01*
G75*
G02*
X69941543Y41443848I125000J0D01*
G01*
X70191543Y41443848D01*
G75*
G02*
X70316543Y41318848I0J-125000D01*
G01*
X70316543Y41318848D01*
G75*
G02*
X70191543Y41193848I-125000J0D01*
G01*
G37*
G36*
G01*
X70191543Y41853847D02*
X69941543Y41853847D01*
G75*
G02*
X69816543Y41978847I0J125000D01*
G01*
X69816543Y41978847D01*
G75*
G02*
X69941543Y42103847I125000J0D01*
G01*
X70191543Y42103847D01*
G75*
G02*
X70316543Y41978847I0J-125000D01*
G01*
X70316543Y41978847D01*
G75*
G02*
X70191543Y41853847I-125000J0D01*
G01*
G37*
G36*
G01*
X70191543Y42513848D02*
X69941543Y42513848D01*
G75*
G02*
X69816543Y42638848I0J125000D01*
G01*
X69816543Y42638848D01*
G75*
G02*
X69941543Y42763848I125000J0D01*
G01*
X70191543Y42763848D01*
G75*
G02*
X70316543Y42638848I0J-125000D01*
G01*
X70316543Y42638848D01*
G75*
G02*
X70191543Y42513848I-125000J0D01*
G01*
G37*
G36*
G01*
X70191543Y43173847D02*
X69941543Y43173847D01*
G75*
G02*
X69816543Y43298847I0J125000D01*
G01*
X69816543Y43298847D01*
G75*
G02*
X69941543Y43423847I125000J0D01*
G01*
X70191543Y43423847D01*
G75*
G02*
X70316543Y43298847I0J-125000D01*
G01*
X70316543Y43298847D01*
G75*
G02*
X70191543Y43173847I-125000J0D01*
G01*
G37*
G36*
G01*
X70191543Y43833848D02*
X69941543Y43833848D01*
G75*
G02*
X69816543Y43958848I0J125000D01*
G01*
X69816543Y43958848D01*
G75*
G02*
X69941543Y44083848I125000J0D01*
G01*
X70191543Y44083848D01*
G75*
G02*
X70316543Y43958848I0J-125000D01*
G01*
X70316543Y43958848D01*
G75*
G02*
X70191543Y43833848I-125000J0D01*
G01*
G37*
G36*
G01*
X70191543Y44493847D02*
X69941543Y44493847D01*
G75*
G02*
X69816543Y44618847I0J125000D01*
G01*
X69816543Y44618847D01*
G75*
G02*
X69941543Y44743847I125000J0D01*
G01*
X70191543Y44743847D01*
G75*
G02*
X70316543Y44618847I0J-125000D01*
G01*
X70316543Y44618847D01*
G75*
G02*
X70191543Y44493847I-125000J0D01*
G01*
G37*
G36*
G01*
X70191543Y45153848D02*
X69941543Y45153848D01*
G75*
G02*
X69816543Y45278848I0J125000D01*
G01*
X69816543Y45278848D01*
G75*
G02*
X69941543Y45403848I125000J0D01*
G01*
X70191543Y45403848D01*
G75*
G02*
X70316543Y45278848I0J-125000D01*
G01*
X70316543Y45278848D01*
G75*
G02*
X70191543Y45153848I-125000J0D01*
G01*
G37*
G36*
G01*
X70191543Y45813846D02*
X69941543Y45813846D01*
G75*
G02*
X69816543Y45938846I0J125000D01*
G01*
X69816543Y45938846D01*
G75*
G02*
X69941543Y46063846I125000J0D01*
G01*
X70191543Y46063846D01*
G75*
G02*
X70316543Y45938846I0J-125000D01*
G01*
X70316543Y45938846D01*
G75*
G02*
X70191543Y45813846I-125000J0D01*
G01*
G37*
G36*
G01*
X70191543Y46473848D02*
X69941543Y46473848D01*
G75*
G02*
X69816543Y46598848I0J125000D01*
G01*
X69816543Y46598848D01*
G75*
G02*
X69941543Y46723848I125000J0D01*
G01*
X70191543Y46723848D01*
G75*
G02*
X70316543Y46598848I0J-125000D01*
G01*
X70316543Y46598848D01*
G75*
G02*
X70191543Y46473848I-125000J0D01*
G01*
G37*
G36*
G01*
X70191543Y47133846D02*
X69941543Y47133846D01*
G75*
G02*
X69816543Y47258846I0J125000D01*
G01*
X69816543Y47258846D01*
G75*
G02*
X69941543Y47383846I125000J0D01*
G01*
X70191543Y47383846D01*
G75*
G02*
X70316543Y47258846I0J-125000D01*
G01*
X70316543Y47258846D01*
G75*
G02*
X70191543Y47133846I-125000J0D01*
G01*
G37*
G36*
G01*
X70191543Y47793848D02*
X69941543Y47793848D01*
G75*
G02*
X69816543Y47918848I0J125000D01*
G01*
X69816543Y47918848D01*
G75*
G02*
X69941543Y48043848I125000J0D01*
G01*
X70191543Y48043848D01*
G75*
G02*
X70316543Y47918848I0J-125000D01*
G01*
X70316543Y47918848D01*
G75*
G02*
X70191543Y47793848I-125000J0D01*
G01*
G37*
G36*
G01*
X70191543Y48453846D02*
X69941543Y48453846D01*
G75*
G02*
X69816543Y48578846I0J125000D01*
G01*
X69816543Y48578846D01*
G75*
G02*
X69941543Y48703846I125000J0D01*
G01*
X70191543Y48703846D01*
G75*
G02*
X70316543Y48578846I0J-125000D01*
G01*
X70316543Y48578846D01*
G75*
G02*
X70191543Y48453846I-125000J0D01*
G01*
G37*
G36*
G01*
X70191543Y49113847D02*
X69941543Y49113847D01*
G75*
G02*
X69816543Y49238847I0J125000D01*
G01*
X69816543Y49238847D01*
G75*
G02*
X69941543Y49363847I125000J0D01*
G01*
X70191543Y49363847D01*
G75*
G02*
X70316543Y49238847I0J-125000D01*
G01*
X70316543Y49238847D01*
G75*
G02*
X70191543Y49113847I-125000J0D01*
G01*
G37*
G36*
G01*
X70191543Y49773846D02*
X69941543Y49773846D01*
G75*
G02*
X69816543Y49898846I0J125000D01*
G01*
X69816543Y49898846D01*
G75*
G02*
X69941543Y50023846I125000J0D01*
G01*
X70191543Y50023846D01*
G75*
G02*
X70316543Y49898846I0J-125000D01*
G01*
X70316543Y49898846D01*
G75*
G02*
X70191543Y49773846I-125000J0D01*
G01*
G37*
G36*
G01*
X70191543Y50433847D02*
X69941543Y50433847D01*
G75*
G02*
X69816543Y50558847I0J125000D01*
G01*
X69816543Y50558847D01*
G75*
G02*
X69941543Y50683847I125000J0D01*
G01*
X70191543Y50683847D01*
G75*
G02*
X70316543Y50558847I0J-125000D01*
G01*
X70316543Y50558847D01*
G75*
G02*
X70191543Y50433847I-125000J0D01*
G01*
G37*
G36*
G01*
X103888541Y21886843D02*
X103888541Y22136843D01*
G75*
G02*
X104013541Y22261843I125000J0D01*
G01*
X104013541Y22261843D01*
G75*
G02*
X104138541Y22136843I0J-125000D01*
G01*
X104138541Y21886843D01*
G75*
G02*
X104013541Y21761843I-125000J0D01*
G01*
X104013541Y21761843D01*
G75*
G02*
X103888541Y21886843I0J125000D01*
G01*
G37*
G36*
G01*
X102818539Y22136843D02*
X102818539Y21886843D01*
G75*
G02*
X102693539Y21761843I-125000J0D01*
G01*
X102693539Y21761843D01*
G75*
G02*
X102568539Y21886843I0J125000D01*
G01*
X102568539Y22136843D01*
G75*
G02*
X102693539Y22261843I125000J0D01*
G01*
X102693539Y22261843D01*
G75*
G02*
X102818539Y22136843I0J-125000D01*
G01*
G37*
G36*
G01*
X101498536Y22136843D02*
X101498536Y21886843D01*
G75*
G02*
X101373536Y21761843I-125000J0D01*
G01*
X101373536Y21761843D01*
G75*
G02*
X101248536Y21886843I0J125000D01*
G01*
X101248536Y22136843D01*
G75*
G02*
X101373536Y22261843I125000J0D01*
G01*
X101373536Y22261843D01*
G75*
G02*
X101498536Y22136843I0J-125000D01*
G01*
G37*
G36*
G01*
X100738538Y22136843D02*
X100738538Y21886843D01*
G75*
G02*
X100613538Y21761843I-125000J0D01*
G01*
X100613538Y21761843D01*
G75*
G02*
X100488538Y21886843I0J125000D01*
G01*
X100488538Y22136843D01*
G75*
G02*
X100613538Y22261843I125000J0D01*
G01*
X100613538Y22261843D01*
G75*
G02*
X100738538Y22136843I0J-125000D01*
G01*
G37*
G36*
G01*
X100073535Y22136843D02*
X100073535Y21886843D01*
G75*
G02*
X99948535Y21761843I-125000J0D01*
G01*
X99948535Y21761843D01*
G75*
G02*
X99823535Y21886843I0J125000D01*
G01*
X99823535Y22136843D01*
G75*
G02*
X99948535Y22261843I125000J0D01*
G01*
X99948535Y22261843D01*
G75*
G02*
X100073535Y22136843I0J-125000D01*
G01*
G37*
G36*
G01*
X99408533Y22136843D02*
X99408533Y21886843D01*
G75*
G02*
X99283533Y21761843I-125000J0D01*
G01*
X99283533Y21761843D01*
G75*
G02*
X99158533Y21886843I0J125000D01*
G01*
X99158533Y22136843D01*
G75*
G02*
X99283533Y22261843I125000J0D01*
G01*
X99283533Y22261843D01*
G75*
G02*
X99408533Y22136843I0J-125000D01*
G01*
G37*
G36*
G01*
X98743543Y22136843D02*
X98743543Y21886843D01*
G75*
G02*
X98618543Y21761843I-125000J0D01*
G01*
X98618543Y21761843D01*
G75*
G02*
X98493543Y21886843I0J125000D01*
G01*
X98493543Y22136843D01*
G75*
G02*
X98618543Y22261843I125000J0D01*
G01*
X98618543Y22261843D01*
G75*
G02*
X98743543Y22136843I0J-125000D01*
G01*
G37*
G36*
G01*
X97968543Y22136843D02*
X97968543Y21886843D01*
G75*
G02*
X97843543Y21761843I-125000J0D01*
G01*
X97843543Y21761843D01*
G75*
G02*
X97718543Y21886843I0J125000D01*
G01*
X97718543Y22136843D01*
G75*
G02*
X97843543Y22261843I125000J0D01*
G01*
X97843543Y22261843D01*
G75*
G02*
X97968543Y22136843I0J-125000D01*
G01*
G37*
G36*
G01*
X96868545Y22136843D02*
X96868545Y21886843D01*
G75*
G02*
X96743545Y21761843I-125000J0D01*
G01*
X96743545Y21761843D01*
G75*
G02*
X96618545Y21886843I0J125000D01*
G01*
X96618545Y22136843D01*
G75*
G02*
X96743545Y22261843I125000J0D01*
G01*
X96743545Y22261843D01*
G75*
G02*
X96868545Y22136843I0J-125000D01*
G01*
G37*
G36*
G01*
X95768548Y22136843D02*
X95768548Y21886843D01*
G75*
G02*
X95643548Y21761843I-125000J0D01*
G01*
X95643548Y21761843D01*
G75*
G02*
X95518548Y21886843I0J125000D01*
G01*
X95518548Y22136843D01*
G75*
G02*
X95643548Y22261843I125000J0D01*
G01*
X95643548Y22261843D01*
G75*
G02*
X95768548Y22136843I0J-125000D01*
G01*
G37*
G36*
G01*
X94668550Y22136843D02*
X94668550Y21886843D01*
G75*
G02*
X94543550Y21761843I-125000J0D01*
G01*
X94543550Y21761843D01*
G75*
G02*
X94418550Y21886843I0J125000D01*
G01*
X94418550Y22136843D01*
G75*
G02*
X94543550Y22261843I125000J0D01*
G01*
X94543550Y22261843D01*
G75*
G02*
X94668550Y22136843I0J-125000D01*
G01*
G37*
G36*
G01*
X93568552Y22136843D02*
X93568552Y21886843D01*
G75*
G02*
X93443552Y21761843I-125000J0D01*
G01*
X93443552Y21761843D01*
G75*
G02*
X93318552Y21886843I0J125000D01*
G01*
X93318552Y22136843D01*
G75*
G02*
X93443552Y22261843I125000J0D01*
G01*
X93443552Y22261843D01*
G75*
G02*
X93568552Y22136843I0J-125000D01*
G01*
G37*
G36*
G01*
X92468554Y22136843D02*
X92468554Y21886843D01*
G75*
G02*
X92343554Y21761843I-125000J0D01*
G01*
X92343554Y21761843D01*
G75*
G02*
X92218554Y21886843I0J125000D01*
G01*
X92218554Y22136843D01*
G75*
G02*
X92343554Y22261843I125000J0D01*
G01*
X92343554Y22261843D01*
G75*
G02*
X92468554Y22136843I0J-125000D01*
G01*
G37*
G36*
G01*
X91368556Y22136843D02*
X91368556Y21886843D01*
G75*
G02*
X91243556Y21761843I-125000J0D01*
G01*
X91243556Y21761843D01*
G75*
G02*
X91118556Y21886843I0J125000D01*
G01*
X91118556Y22136843D01*
G75*
G02*
X91243556Y22261843I125000J0D01*
G01*
X91243556Y22261843D01*
G75*
G02*
X91368556Y22136843I0J-125000D01*
G01*
G37*
G36*
G01*
X90268559Y22136843D02*
X90268559Y21886843D01*
G75*
G02*
X90143559Y21761843I-125000J0D01*
G01*
X90143559Y21761843D01*
G75*
G02*
X90018559Y21886843I0J125000D01*
G01*
X90018559Y22136843D01*
G75*
G02*
X90143559Y22261843I125000J0D01*
G01*
X90143559Y22261843D01*
G75*
G02*
X90268559Y22136843I0J-125000D01*
G01*
G37*
G36*
G01*
X89168561Y22136843D02*
X89168561Y21886843D01*
G75*
G02*
X89043561Y21761843I-125000J0D01*
G01*
X89043561Y21761843D01*
G75*
G02*
X88918561Y21886843I0J125000D01*
G01*
X88918561Y22136843D01*
G75*
G02*
X89043561Y22261843I125000J0D01*
G01*
X89043561Y22261843D01*
G75*
G02*
X89168561Y22136843I0J-125000D01*
G01*
G37*
G36*
G01*
X88068563Y22136843D02*
X88068563Y21886843D01*
G75*
G02*
X87943563Y21761843I-125000J0D01*
G01*
X87943563Y21761843D01*
G75*
G02*
X87818563Y21886843I0J125000D01*
G01*
X87818563Y22136843D01*
G75*
G02*
X87943563Y22261843I125000J0D01*
G01*
X87943563Y22261843D01*
G75*
G02*
X88068563Y22136843I0J-125000D01*
G01*
G37*
G36*
G01*
X86968565Y22136843D02*
X86968565Y21886843D01*
G75*
G02*
X86843565Y21761843I-125000J0D01*
G01*
X86843565Y21761843D01*
G75*
G02*
X86718565Y21886843I0J125000D01*
G01*
X86718565Y22136843D01*
G75*
G02*
X86843565Y22261843I125000J0D01*
G01*
X86843565Y22261843D01*
G75*
G02*
X86968565Y22136843I0J-125000D01*
G01*
G37*
G36*
G01*
X85868567Y22136843D02*
X85868567Y21886843D01*
G75*
G02*
X85743567Y21761843I-125000J0D01*
G01*
X85743567Y21761843D01*
G75*
G02*
X85618567Y21886843I0J125000D01*
G01*
X85618567Y22136843D01*
G75*
G02*
X85743567Y22261843I125000J0D01*
G01*
X85743567Y22261843D01*
G75*
G02*
X85868567Y22136843I0J-125000D01*
G01*
G37*
G36*
G01*
X84768570Y22136843D02*
X84768570Y21886843D01*
G75*
G02*
X84643570Y21761843I-125000J0D01*
G01*
X84643570Y21761843D01*
G75*
G02*
X84518570Y21886843I0J125000D01*
G01*
X84518570Y22136843D01*
G75*
G02*
X84643570Y22261843I125000J0D01*
G01*
X84643570Y22261843D01*
G75*
G02*
X84768570Y22136843I0J-125000D01*
G01*
G37*
G36*
G01*
X83668572Y22136843D02*
X83668572Y21886843D01*
G75*
G02*
X83543572Y21761843I-125000J0D01*
G01*
X83543572Y21761843D01*
G75*
G02*
X83418572Y21886843I0J125000D01*
G01*
X83418572Y22136843D01*
G75*
G02*
X83543572Y22261843I125000J0D01*
G01*
X83543572Y22261843D01*
G75*
G02*
X83668572Y22136843I0J-125000D01*
G01*
G37*
G36*
G01*
X82568574Y22136843D02*
X82568574Y21886843D01*
G75*
G02*
X82443574Y21761843I-125000J0D01*
G01*
X82443574Y21761843D01*
G75*
G02*
X82318574Y21886843I0J125000D01*
G01*
X82318574Y22136843D01*
G75*
G02*
X82443574Y22261843I125000J0D01*
G01*
X82443574Y22261843D01*
G75*
G02*
X82568574Y22136843I0J-125000D01*
G01*
G37*
G36*
G01*
X81468576Y22136843D02*
X81468576Y21886843D01*
G75*
G02*
X81343576Y21761843I-125000J0D01*
G01*
X81343576Y21761843D01*
G75*
G02*
X81218576Y21886843I0J125000D01*
G01*
X81218576Y22136843D01*
G75*
G02*
X81343576Y22261843I125000J0D01*
G01*
X81343576Y22261843D01*
G75*
G02*
X81468576Y22136843I0J-125000D01*
G01*
G37*
G36*
G01*
X80368578Y22136843D02*
X80368578Y21886843D01*
G75*
G02*
X80243578Y21761843I-125000J0D01*
G01*
X80243578Y21761843D01*
G75*
G02*
X80118578Y21886843I0J125000D01*
G01*
X80118578Y22136843D01*
G75*
G02*
X80243578Y22261843I125000J0D01*
G01*
X80243578Y22261843D01*
G75*
G02*
X80368578Y22136843I0J-125000D01*
G01*
G37*
G36*
G01*
X79268581Y22136843D02*
X79268581Y21886843D01*
G75*
G02*
X79143581Y21761843I-125000J0D01*
G01*
X79143581Y21761843D01*
G75*
G02*
X79018581Y21886843I0J125000D01*
G01*
X79018581Y22136843D01*
G75*
G02*
X79143581Y22261843I125000J0D01*
G01*
X79143581Y22261843D01*
G75*
G02*
X79268581Y22136843I0J-125000D01*
G01*
G37*
G36*
G01*
X78168583Y22136843D02*
X78168583Y21886843D01*
G75*
G02*
X78043583Y21761843I-125000J0D01*
G01*
X78043583Y21761843D01*
G75*
G02*
X77918583Y21886843I0J125000D01*
G01*
X77918583Y22136843D01*
G75*
G02*
X78043583Y22261843I125000J0D01*
G01*
X78043583Y22261843D01*
G75*
G02*
X78168583Y22136843I0J-125000D01*
G01*
G37*
G36*
G01*
X77068585Y22136843D02*
X77068585Y21886843D01*
G75*
G02*
X76943585Y21761843I-125000J0D01*
G01*
X76943585Y21761843D01*
G75*
G02*
X76818585Y21886843I0J125000D01*
G01*
X76818585Y22136843D01*
G75*
G02*
X76943585Y22261843I125000J0D01*
G01*
X76943585Y22261843D01*
G75*
G02*
X77068585Y22136843I0J-125000D01*
G01*
G37*
G36*
G01*
X75968587Y22136843D02*
X75968587Y21886843D01*
G75*
G02*
X75843587Y21761843I-125000J0D01*
G01*
X75843587Y21761843D01*
G75*
G02*
X75718587Y21886843I0J125000D01*
G01*
X75718587Y22136843D01*
G75*
G02*
X75843587Y22261843I125000J0D01*
G01*
X75843587Y22261843D01*
G75*
G02*
X75968587Y22136843I0J-125000D01*
G01*
G37*
G36*
G01*
X74868589Y22136843D02*
X74868589Y21886843D01*
G75*
G02*
X74743589Y21761843I-125000J0D01*
G01*
X74743589Y21761843D01*
G75*
G02*
X74618589Y21886843I0J125000D01*
G01*
X74618589Y22136843D01*
G75*
G02*
X74743589Y22261843I125000J0D01*
G01*
X74743589Y22261843D01*
G75*
G02*
X74868589Y22136843I0J-125000D01*
G01*
G37*
G36*
G01*
X73768592Y22136843D02*
X73768592Y21886843D01*
G75*
G02*
X73643592Y21761843I-125000J0D01*
G01*
X73643592Y21761843D01*
G75*
G02*
X73518592Y21886843I0J125000D01*
G01*
X73518592Y22136843D01*
G75*
G02*
X73643592Y22261843I125000J0D01*
G01*
X73643592Y22261843D01*
G75*
G02*
X73768592Y22136843I0J-125000D01*
G01*
G37*
G36*
G01*
X72668594Y22136843D02*
X72668594Y21886843D01*
G75*
G02*
X72543594Y21761843I-125000J0D01*
G01*
X72543594Y21761843D01*
G75*
G02*
X72418594Y21886843I0J125000D01*
G01*
X72418594Y22136843D01*
G75*
G02*
X72543594Y22261843I125000J0D01*
G01*
X72543594Y22261843D01*
G75*
G02*
X72668594Y22136843I0J-125000D01*
G01*
G37*
G36*
G01*
X71568596Y22136843D02*
X71568596Y21886843D01*
G75*
G02*
X71443596Y21761843I-125000J0D01*
G01*
X71443596Y21761843D01*
G75*
G02*
X71318596Y21886843I0J125000D01*
G01*
X71318596Y22136843D01*
G75*
G02*
X71443596Y22261843I125000J0D01*
G01*
X71443596Y22261843D01*
G75*
G02*
X71568596Y22136843I0J-125000D01*
G01*
G37*
G36*
G01*
X78568539Y58065843D02*
X78568539Y57815843D01*
G75*
G02*
X78443539Y57690843I-125000J0D01*
G01*
X78443539Y57690843D01*
G75*
G02*
X78318539Y57815843I0J125000D01*
G01*
X78318539Y58065843D01*
G75*
G02*
X78443539Y58190843I125000J0D01*
G01*
X78443539Y58190843D01*
G75*
G02*
X78568539Y58065843I0J-125000D01*
G01*
G37*
G36*
G01*
X79638541Y57815843D02*
X79638541Y58065843D01*
G75*
G02*
X79763541Y58190843I125000J0D01*
G01*
X79763541Y58190843D01*
G75*
G02*
X79888541Y58065843I0J-125000D01*
G01*
X79888541Y57815843D01*
G75*
G02*
X79763541Y57690843I-125000J0D01*
G01*
X79763541Y57690843D01*
G75*
G02*
X79638541Y57815843I0J125000D01*
G01*
G37*
G36*
G01*
X80958544Y57815843D02*
X80958544Y58065843D01*
G75*
G02*
X81083544Y58190843I125000J0D01*
G01*
X81083544Y58190843D01*
G75*
G02*
X81208544Y58065843I0J-125000D01*
G01*
X81208544Y57815843D01*
G75*
G02*
X81083544Y57690843I-125000J0D01*
G01*
X81083544Y57690843D01*
G75*
G02*
X80958544Y57815843I0J125000D01*
G01*
G37*
G36*
G01*
X82058541Y57815843D02*
X82058541Y58065843D01*
G75*
G02*
X82183541Y58190843I125000J0D01*
G01*
X82183541Y58190843D01*
G75*
G02*
X82308541Y58065843I0J-125000D01*
G01*
X82308541Y57815843D01*
G75*
G02*
X82183541Y57690843I-125000J0D01*
G01*
X82183541Y57690843D01*
G75*
G02*
X82058541Y57815843I0J125000D01*
G01*
G37*
G36*
G01*
X83158539Y57815843D02*
X83158539Y58065843D01*
G75*
G02*
X83283539Y58190843I125000J0D01*
G01*
X83283539Y58190843D01*
G75*
G02*
X83408539Y58065843I0J-125000D01*
G01*
X83408539Y57815843D01*
G75*
G02*
X83283539Y57690843I-125000J0D01*
G01*
X83283539Y57690843D01*
G75*
G02*
X83158539Y57815843I0J125000D01*
G01*
G37*
G36*
G01*
X84258537Y57815843D02*
X84258537Y58065843D01*
G75*
G02*
X84383537Y58190843I125000J0D01*
G01*
X84383537Y58190843D01*
G75*
G02*
X84508537Y58065843I0J-125000D01*
G01*
X84508537Y57815843D01*
G75*
G02*
X84383537Y57690843I-125000J0D01*
G01*
X84383537Y57690843D01*
G75*
G02*
X84258537Y57815843I0J125000D01*
G01*
G37*
G36*
G01*
X85358535Y57815843D02*
X85358535Y58065843D01*
G75*
G02*
X85483535Y58190843I125000J0D01*
G01*
X85483535Y58190843D01*
G75*
G02*
X85608535Y58065843I0J-125000D01*
G01*
X85608535Y57815843D01*
G75*
G02*
X85483535Y57690843I-125000J0D01*
G01*
X85483535Y57690843D01*
G75*
G02*
X85358535Y57815843I0J125000D01*
G01*
G37*
G36*
G01*
X86458533Y57815843D02*
X86458533Y58065843D01*
G75*
G02*
X86583533Y58190843I125000J0D01*
G01*
X86583533Y58190843D01*
G75*
G02*
X86708533Y58065843I0J-125000D01*
G01*
X86708533Y57815843D01*
G75*
G02*
X86583533Y57690843I-125000J0D01*
G01*
X86583533Y57690843D01*
G75*
G02*
X86458533Y57815843I0J125000D01*
G01*
G37*
G36*
G01*
X87558530Y57815843D02*
X87558530Y58065843D01*
G75*
G02*
X87683530Y58190843I125000J0D01*
G01*
X87683530Y58190843D01*
G75*
G02*
X87808530Y58065843I0J-125000D01*
G01*
X87808530Y57815843D01*
G75*
G02*
X87683530Y57690843I-125000J0D01*
G01*
X87683530Y57690843D01*
G75*
G02*
X87558530Y57815843I0J125000D01*
G01*
G37*
G36*
G01*
X88658528Y57815843D02*
X88658528Y58065843D01*
G75*
G02*
X88783528Y58190843I125000J0D01*
G01*
X88783528Y58190843D01*
G75*
G02*
X88908528Y58065843I0J-125000D01*
G01*
X88908528Y57815843D01*
G75*
G02*
X88783528Y57690843I-125000J0D01*
G01*
X88783528Y57690843D01*
G75*
G02*
X88658528Y57815843I0J125000D01*
G01*
G37*
G36*
G01*
X89758526Y57815843D02*
X89758526Y58065843D01*
G75*
G02*
X89883526Y58190843I125000J0D01*
G01*
X89883526Y58190843D01*
G75*
G02*
X90008526Y58065843I0J-125000D01*
G01*
X90008526Y57815843D01*
G75*
G02*
X89883526Y57690843I-125000J0D01*
G01*
X89883526Y57690843D01*
G75*
G02*
X89758526Y57815843I0J125000D01*
G01*
G37*
G36*
G01*
X90858524Y57815843D02*
X90858524Y58065843D01*
G75*
G02*
X90983524Y58190843I125000J0D01*
G01*
X90983524Y58190843D01*
G75*
G02*
X91108524Y58065843I0J-125000D01*
G01*
X91108524Y57815843D01*
G75*
G02*
X90983524Y57690843I-125000J0D01*
G01*
X90983524Y57690843D01*
G75*
G02*
X90858524Y57815843I0J125000D01*
G01*
G37*
G36*
G01*
X91958522Y57815843D02*
X91958522Y58065843D01*
G75*
G02*
X92083522Y58190843I125000J0D01*
G01*
X92083522Y58190843D01*
G75*
G02*
X92208522Y58065843I0J-125000D01*
G01*
X92208522Y57815843D01*
G75*
G02*
X92083522Y57690843I-125000J0D01*
G01*
X92083522Y57690843D01*
G75*
G02*
X91958522Y57815843I0J125000D01*
G01*
G37*
G36*
G01*
X93058519Y57815843D02*
X93058519Y58065843D01*
G75*
G02*
X93183519Y58190843I125000J0D01*
G01*
X93183519Y58190843D01*
G75*
G02*
X93308519Y58065843I0J-125000D01*
G01*
X93308519Y57815843D01*
G75*
G02*
X93183519Y57690843I-125000J0D01*
G01*
X93183519Y57690843D01*
G75*
G02*
X93058519Y57815843I0J125000D01*
G01*
G37*
G36*
G01*
X94158517Y57815843D02*
X94158517Y58065843D01*
G75*
G02*
X94283517Y58190843I125000J0D01*
G01*
X94283517Y58190843D01*
G75*
G02*
X94408517Y58065843I0J-125000D01*
G01*
X94408517Y57815843D01*
G75*
G02*
X94283517Y57690843I-125000J0D01*
G01*
X94283517Y57690843D01*
G75*
G02*
X94158517Y57815843I0J125000D01*
G01*
G37*
G36*
G01*
X95258515Y57815843D02*
X95258515Y58065843D01*
G75*
G02*
X95383515Y58190843I125000J0D01*
G01*
X95383515Y58190843D01*
G75*
G02*
X95508515Y58065843I0J-125000D01*
G01*
X95508515Y57815843D01*
G75*
G02*
X95383515Y57690843I-125000J0D01*
G01*
X95383515Y57690843D01*
G75*
G02*
X95258515Y57815843I0J125000D01*
G01*
G37*
G36*
G01*
X96358513Y57815843D02*
X96358513Y58065843D01*
G75*
G02*
X96483513Y58190843I125000J0D01*
G01*
X96483513Y58190843D01*
G75*
G02*
X96608513Y58065843I0J-125000D01*
G01*
X96608513Y57815843D01*
G75*
G02*
X96483513Y57690843I-125000J0D01*
G01*
X96483513Y57690843D01*
G75*
G02*
X96358513Y57815843I0J125000D01*
G01*
G37*
G36*
G01*
X97458511Y57815843D02*
X97458511Y58065843D01*
G75*
G02*
X97583511Y58190843I125000J0D01*
G01*
X97583511Y58190843D01*
G75*
G02*
X97708511Y58065843I0J-125000D01*
G01*
X97708511Y57815843D01*
G75*
G02*
X97583511Y57690843I-125000J0D01*
G01*
X97583511Y57690843D01*
G75*
G02*
X97458511Y57815843I0J125000D01*
G01*
G37*
G36*
G01*
X98558508Y57815843D02*
X98558508Y58065843D01*
G75*
G02*
X98683508Y58190843I125000J0D01*
G01*
X98683508Y58190843D01*
G75*
G02*
X98808508Y58065843I0J-125000D01*
G01*
X98808508Y57815843D01*
G75*
G02*
X98683508Y57690843I-125000J0D01*
G01*
X98683508Y57690843D01*
G75*
G02*
X98558508Y57815843I0J125000D01*
G01*
G37*
G36*
G01*
X99658506Y57815843D02*
X99658506Y58065843D01*
G75*
G02*
X99783506Y58190843I125000J0D01*
G01*
X99783506Y58190843D01*
G75*
G02*
X99908506Y58065843I0J-125000D01*
G01*
X99908506Y57815843D01*
G75*
G02*
X99783506Y57690843I-125000J0D01*
G01*
X99783506Y57690843D01*
G75*
G02*
X99658506Y57815843I0J125000D01*
G01*
G37*
G36*
G01*
X100758504Y57815843D02*
X100758504Y58065843D01*
G75*
G02*
X100883504Y58190843I125000J0D01*
G01*
X100883504Y58190843D01*
G75*
G02*
X101008504Y58065843I0J-125000D01*
G01*
X101008504Y57815843D01*
G75*
G02*
X100883504Y57690843I-125000J0D01*
G01*
X100883504Y57690843D01*
G75*
G02*
X100758504Y57815843I0J125000D01*
G01*
G37*
G36*
G01*
X101858502Y57815843D02*
X101858502Y58065843D01*
G75*
G02*
X101983502Y58190843I125000J0D01*
G01*
X101983502Y58190843D01*
G75*
G02*
X102108502Y58065843I0J-125000D01*
G01*
X102108502Y57815843D01*
G75*
G02*
X101983502Y57690843I-125000J0D01*
G01*
X101983502Y57690843D01*
G75*
G02*
X101858502Y57815843I0J125000D01*
G01*
G37*
G36*
G01*
X102958500Y57815843D02*
X102958500Y58065843D01*
G75*
G02*
X103083500Y58190843I125000J0D01*
G01*
X103083500Y58190843D01*
G75*
G02*
X103208500Y58065843I0J-125000D01*
G01*
X103208500Y57815843D01*
G75*
G02*
X103083500Y57690843I-125000J0D01*
G01*
X103083500Y57690843D01*
G75*
G02*
X102958500Y57815843I0J125000D01*
G01*
G37*
G36*
G01*
X104058497Y57815843D02*
X104058497Y58065843D01*
G75*
G02*
X104183497Y58190843I125000J0D01*
G01*
X104183497Y58190843D01*
G75*
G02*
X104308497Y58065843I0J-125000D01*
G01*
X104308497Y57815843D01*
G75*
G02*
X104183497Y57690843I-125000J0D01*
G01*
X104183497Y57690843D01*
G75*
G02*
X104058497Y57815843I0J125000D01*
G01*
G37*
G36*
G01*
X105158495Y57815843D02*
X105158495Y58065843D01*
G75*
G02*
X105283495Y58190843I125000J0D01*
G01*
X105283495Y58190843D01*
G75*
G02*
X105408495Y58065843I0J-125000D01*
G01*
X105408495Y57815843D01*
G75*
G02*
X105283495Y57690843I-125000J0D01*
G01*
X105283495Y57690843D01*
G75*
G02*
X105158495Y57815843I0J125000D01*
G01*
G37*
G36*
G01*
X106258493Y57815843D02*
X106258493Y58065843D01*
G75*
G02*
X106383493Y58190843I125000J0D01*
G01*
X106383493Y58190843D01*
G75*
G02*
X106508493Y58065843I0J-125000D01*
G01*
X106508493Y57815843D01*
G75*
G02*
X106383493Y57690843I-125000J0D01*
G01*
X106383493Y57690843D01*
G75*
G02*
X106258493Y57815843I0J125000D01*
G01*
G37*
G36*
G01*
X107358491Y57815843D02*
X107358491Y58065843D01*
G75*
G02*
X107483491Y58190843I125000J0D01*
G01*
X107483491Y58190843D01*
G75*
G02*
X107608491Y58065843I0J-125000D01*
G01*
X107608491Y57815843D01*
G75*
G02*
X107483491Y57690843I-125000J0D01*
G01*
X107483491Y57690843D01*
G75*
G02*
X107358491Y57815843I0J125000D01*
G01*
G37*
G36*
G01*
X108458489Y57815843D02*
X108458489Y58065843D01*
G75*
G02*
X108583489Y58190843I125000J0D01*
G01*
X108583489Y58190843D01*
G75*
G02*
X108708489Y58065843I0J-125000D01*
G01*
X108708489Y57815843D01*
G75*
G02*
X108583489Y57690843I-125000J0D01*
G01*
X108583489Y57690843D01*
G75*
G02*
X108458489Y57815843I0J125000D01*
G01*
G37*
G36*
G01*
X109558486Y57815843D02*
X109558486Y58065843D01*
G75*
G02*
X109683486Y58190843I125000J0D01*
G01*
X109683486Y58190843D01*
G75*
G02*
X109808486Y58065843I0J-125000D01*
G01*
X109808486Y57815843D01*
G75*
G02*
X109683486Y57690843I-125000J0D01*
G01*
X109683486Y57690843D01*
G75*
G02*
X109558486Y57815843I0J125000D01*
G01*
G37*
G36*
G01*
X110658484Y57815843D02*
X110658484Y58065843D01*
G75*
G02*
X110783484Y58190843I125000J0D01*
G01*
X110783484Y58190843D01*
G75*
G02*
X110908484Y58065843I0J-125000D01*
G01*
X110908484Y57815843D01*
G75*
G02*
X110783484Y57690843I-125000J0D01*
G01*
X110783484Y57690843D01*
G75*
G02*
X110658484Y57815843I0J125000D01*
G01*
G37*
G36*
G01*
X111758482Y57815843D02*
X111758482Y58065843D01*
G75*
G02*
X111883482Y58190843I125000J0D01*
G01*
X111883482Y58190843D01*
G75*
G02*
X112008482Y58065843I0J-125000D01*
G01*
X112008482Y57815843D01*
G75*
G02*
X111883482Y57690843I-125000J0D01*
G01*
X111883482Y57690843D01*
G75*
G02*
X111758482Y57815843I0J125000D01*
G01*
G37*
G36*
G01*
X112858480Y57815843D02*
X112858480Y58065843D01*
G75*
G02*
X112983480Y58190843I125000J0D01*
G01*
X112983480Y58190843D01*
G75*
G02*
X113108480Y58065843I0J-125000D01*
G01*
X113108480Y57815843D01*
G75*
G02*
X112983480Y57690843I-125000J0D01*
G01*
X112983480Y57690843D01*
G75*
G02*
X112858480Y57815843I0J125000D01*
G01*
G37*
G36*
G01*
X113958478Y57815843D02*
X113958478Y58065843D01*
G75*
G02*
X114083478Y58190843I125000J0D01*
G01*
X114083478Y58190843D01*
G75*
G02*
X114208478Y58065843I0J-125000D01*
G01*
X114208478Y57815843D01*
G75*
G02*
X114083478Y57690843I-125000J0D01*
G01*
X114083478Y57690843D01*
G75*
G02*
X113958478Y57815843I0J125000D01*
G01*
G37*
G36*
G01*
X115468541Y28008843D02*
X115718541Y28008843D01*
G75*
G02*
X115843541Y27883843I0J-125000D01*
G01*
X115843541Y27883843D01*
G75*
G02*
X115718541Y27758843I-125000J0D01*
G01*
X115468541Y27758843D01*
G75*
G02*
X115343541Y27883843I0J125000D01*
G01*
X115343541Y27883843D01*
G75*
G02*
X115468541Y28008843I125000J0D01*
G01*
G37*
G36*
G01*
X115468541Y27348843D02*
X115718541Y27348843D01*
G75*
G02*
X115843541Y27223843I0J-125000D01*
G01*
X115843541Y27223843D01*
G75*
G02*
X115718541Y27098843I-125000J0D01*
G01*
X115468541Y27098843D01*
G75*
G02*
X115343541Y27223843I0J125000D01*
G01*
X115343541Y27223843D01*
G75*
G02*
X115468541Y27348843I125000J0D01*
G01*
G37*
G36*
G01*
X115468541Y26688841D02*
X115718541Y26688841D01*
G75*
G02*
X115843541Y26563841I0J-125000D01*
G01*
X115843541Y26563841D01*
G75*
G02*
X115718541Y26438841I-125000J0D01*
G01*
X115468541Y26438841D01*
G75*
G02*
X115343541Y26563841I0J125000D01*
G01*
X115343541Y26563841D01*
G75*
G02*
X115468541Y26688841I125000J0D01*
G01*
G37*
G36*
G01*
X115468541Y26028840D02*
X115718541Y26028840D01*
G75*
G02*
X115843541Y25903840I0J-125000D01*
G01*
X115843541Y25903840D01*
G75*
G02*
X115718541Y25778840I-125000J0D01*
G01*
X115468541Y25778840D01*
G75*
G02*
X115343541Y25903840I0J125000D01*
G01*
X115343541Y25903840D01*
G75*
G02*
X115468541Y26028840I125000J0D01*
G01*
G37*
G36*
G01*
X115468541Y25368838D02*
X115718541Y25368838D01*
G75*
G02*
X115843541Y25243838I0J-125000D01*
G01*
X115843541Y25243838D01*
G75*
G02*
X115718541Y25118838I-125000J0D01*
G01*
X115468541Y25118838D01*
G75*
G02*
X115343541Y25243838I0J125000D01*
G01*
X115343541Y25243838D01*
G75*
G02*
X115468541Y25368838I125000J0D01*
G01*
G37*
G36*
G01*
X115468541Y24708837D02*
X115718541Y24708837D01*
G75*
G02*
X115843541Y24583837I0J-125000D01*
G01*
X115843541Y24583837D01*
G75*
G02*
X115718541Y24458837I-125000J0D01*
G01*
X115468541Y24458837D01*
G75*
G02*
X115343541Y24583837I0J125000D01*
G01*
X115343541Y24583837D01*
G75*
G02*
X115468541Y24708837I125000J0D01*
G01*
G37*
G36*
G01*
X115468541Y24048836D02*
X115718541Y24048836D01*
G75*
G02*
X115843541Y23923836I0J-125000D01*
G01*
X115843541Y23923836D01*
G75*
G02*
X115718541Y23798836I-125000J0D01*
G01*
X115468541Y23798836D01*
G75*
G02*
X115343541Y23923836I0J125000D01*
G01*
X115343541Y23923836D01*
G75*
G02*
X115468541Y24048836I125000J0D01*
G01*
G37*
G36*
G01*
X115468541Y23388835D02*
X115718541Y23388835D01*
G75*
G02*
X115843541Y23263835I0J-125000D01*
G01*
X115843541Y23263835D01*
G75*
G02*
X115718541Y23138835I-125000J0D01*
G01*
X115468541Y23138835D01*
G75*
G02*
X115343541Y23263835I0J125000D01*
G01*
X115343541Y23263835D01*
G75*
G02*
X115468541Y23388835I125000J0D01*
G01*
G37*
G36*
G01*
X115468541Y22728833D02*
X115718541Y22728833D01*
G75*
G02*
X115843541Y22603833I0J-125000D01*
G01*
X115843541Y22603833D01*
G75*
G02*
X115718541Y22478833I-125000J0D01*
G01*
X115468541Y22478833D01*
G75*
G02*
X115343541Y22603833I0J125000D01*
G01*
X115343541Y22603833D01*
G75*
G02*
X115468541Y22728833I125000J0D01*
G01*
G37*
G36*
G01*
X115468541Y22068832D02*
X115718541Y22068832D01*
G75*
G02*
X115843541Y21943832I0J-125000D01*
G01*
X115843541Y21943832D01*
G75*
G02*
X115718541Y21818832I-125000J0D01*
G01*
X115468541Y21818832D01*
G75*
G02*
X115343541Y21943832I0J125000D01*
G01*
X115343541Y21943832D01*
G75*
G02*
X115468541Y22068832I125000J0D01*
G01*
G37*
G04 #@! TD*
G04 #@! TO.C,R30*
X34726680Y127825340D03*
X34726680Y131635340D03*
G04 #@! TD*
D12*
G04 #@! TO.C,P48*
X34926680Y133705340D03*
G04 #@! TD*
D11*
G04 #@! TO.C,R31*
X129900000Y120595001D03*
X129900000Y124405001D03*
G04 #@! TD*
D29*
G04 #@! TO.C,J16*
X149000000Y153900000D03*
G04 #@! TD*
D12*
G04 #@! TO.C,P32*
X117901680Y38370220D03*
G04 #@! TD*
D29*
G04 #@! TO.C,J14*
X149000000Y5900000D03*
G04 #@! TD*
D12*
G04 #@! TO.C,P9*
X94301680Y133680340D03*
G04 #@! TD*
G04 #@! TO.C,J25*
G36*
G01*
X136466020Y86792657D02*
X136466020Y86792657D01*
G75*
G02*
X138163076Y86792657I848528J-848528D01*
G01*
X138587340Y86368393D01*
G75*
G02*
X138587340Y84671337I-848528J-848528D01*
G01*
X138587340Y84671337D01*
G75*
G02*
X136890284Y84671337I-848528J848528D01*
G01*
X136466020Y85095601D01*
G75*
G02*
X136466020Y86792657I848528J848528D01*
G01*
G37*
G36*
G01*
X138366020Y88992657D02*
X138366020Y88992657D01*
G75*
G02*
X140063076Y88992657I848528J-848528D01*
G01*
X140487340Y88568393D01*
G75*
G02*
X140487340Y86871337I-848528J-848528D01*
G01*
X140487340Y86871337D01*
G75*
G02*
X138790284Y86871337I-848528J848528D01*
G01*
X138366020Y87295601D01*
G75*
G02*
X138366020Y88992657I848528J848528D01*
G01*
G37*
G36*
G01*
X144566020Y88992657D02*
X144566020Y88992657D01*
G75*
G02*
X146263076Y88992657I848528J-848528D01*
G01*
X146687340Y88568393D01*
G75*
G02*
X146687340Y86871337I-848528J-848528D01*
G01*
X146687340Y86871337D01*
G75*
G02*
X144990284Y86871337I-848528J848528D01*
G01*
X144566020Y87295601D01*
G75*
G02*
X144566020Y88992657I848528J848528D01*
G01*
G37*
G36*
G01*
X142066020Y86792657D02*
X142066020Y86792657D01*
G75*
G02*
X143763076Y86792657I848528J-848528D01*
G01*
X144187340Y86368393D01*
G75*
G02*
X144187340Y84671337I-848528J-848528D01*
G01*
X144187340Y84671337D01*
G75*
G02*
X142490284Y84671337I-848528J848528D01*
G01*
X142066020Y85095601D01*
G75*
G02*
X142066020Y86792657I848528J848528D01*
G01*
G37*
G36*
G01*
X132766020Y88992657D02*
X132766020Y88992657D01*
G75*
G02*
X134463076Y88992657I848528J-848528D01*
G01*
X134887340Y88568393D01*
G75*
G02*
X134887340Y86871337I-848528J-848528D01*
G01*
X134887340Y86871337D01*
G75*
G02*
X133190284Y86871337I-848528J848528D01*
G01*
X132766020Y87295601D01*
G75*
G02*
X132766020Y88992657I848528J848528D01*
G01*
G37*
G04 #@! TD*
G04 #@! TO.C,G11*
X12590000Y45097322D03*
X12590000Y47637322D03*
X12590000Y50177322D03*
X12590000Y52717322D03*
X12590000Y55257322D03*
X15130000Y45097322D03*
X15130000Y47637322D03*
X15130000Y50177322D03*
X15130000Y52717322D03*
X15130000Y55257322D03*
X17670000Y45097322D03*
X17670000Y47637322D03*
X17670000Y50177322D03*
X17670000Y52717322D03*
X17670000Y55257322D03*
G04 #@! TD*
G04 #@! TO.C,P23*
X47901680Y79005340D03*
G04 #@! TD*
D10*
G04 #@! TO.C,M10*
X14862888Y119883984D03*
X16187892Y111658984D03*
X21420386Y111676489D03*
X21912892Y113558985D03*
X23037878Y106208992D03*
G04 #@! TD*
D12*
G04 #@! TO.C,G7*
X20210000Y32397322D03*
X20210000Y34937322D03*
X20210000Y37477322D03*
X20210000Y40017322D03*
X20210000Y42557322D03*
X22750000Y32397322D03*
X22750000Y34937322D03*
X22750000Y37477322D03*
X22750000Y40017322D03*
X22750000Y42557322D03*
X25290000Y32397322D03*
X25290000Y34937322D03*
X25290000Y37477322D03*
X25290000Y40017322D03*
X25290000Y42557322D03*
G04 #@! TD*
D29*
G04 #@! TO.C,J15*
X148950800Y71900000D03*
G04 #@! TD*
D11*
G04 #@! TO.C,R47*
X109897027Y127371405D03*
X109897027Y131181405D03*
G04 #@! TD*
G04 #@! TO.C,F1*
X21125000Y132400000D03*
X26025000Y132400000D03*
G04 #@! TD*
G04 #@! TO.C,F3*
X21175000Y134800000D03*
X26075000Y134800000D03*
G04 #@! TD*
D12*
G04 #@! TO.C,G5*
X4970000Y32397322D03*
X4970000Y34937322D03*
X4970000Y37477322D03*
X4970000Y40017322D03*
X4970000Y42557322D03*
X7510000Y32397322D03*
X7510000Y34937322D03*
X7510000Y37477322D03*
X7510000Y40017322D03*
X7510000Y42557322D03*
X10050000Y32397322D03*
X10050000Y34937322D03*
X10050000Y37477322D03*
X10050000Y40017322D03*
X10050000Y42557322D03*
G04 #@! TD*
D11*
G04 #@! TO.C,R34*
X39122748Y127853559D03*
X39122748Y131663559D03*
G04 #@! TD*
G04 #@! TO.C,R35*
X25191221Y125779438D03*
X25191221Y129589438D03*
G04 #@! TD*
D12*
G04 #@! TO.C,P14*
X32601680Y78984220D03*
G04 #@! TD*
D11*
G04 #@! TO.C,R22*
X41472748Y127850340D03*
X41472748Y131660340D03*
G04 #@! TD*
G04 #@! TO.C,R37*
X20791221Y125824438D03*
X20791221Y129634438D03*
G04 #@! TD*
D29*
G04 #@! TO.C,J11*
X5000000Y153900000D03*
G04 #@! TD*
D11*
G04 #@! TO.C,R28*
X45849428Y127825340D03*
X45849428Y131635340D03*
G04 #@! TD*
G04 #@! TO.C,R26*
X134312640Y120595340D03*
X134312640Y124405340D03*
G04 #@! TD*
D12*
G04 #@! TO.C,P22*
X69201680Y67405340D03*
G04 #@! TD*
D11*
G04 #@! TO.C,R25*
X134551680Y127141040D03*
X134551680Y130951040D03*
G04 #@! TD*
D12*
G04 #@! TO.C,P20*
X66401680Y70205340D03*
G04 #@! TD*
G04 #@! TO.C,P18*
X66401680Y64605340D03*
G04 #@! TD*
D30*
G04 #@! TO.C,J3*
X20100000Y101500000D03*
G36*
G01*
X28999999Y100150000D02*
X25800001Y100150000D01*
G75*
G02*
X25550000Y100400001I0J250001D01*
G01*
X25550000Y102599999D01*
G75*
G02*
X25800001Y102850000I250001J0D01*
G01*
X28999999Y102850000D01*
G75*
G02*
X29250000Y102599999I0J-250001D01*
G01*
X29250000Y100400001D01*
G75*
G02*
X28999999Y100150000I-250001J0D01*
G01*
G37*
D31*
X32900000Y101500000D03*
G04 #@! TD*
D11*
G04 #@! TO.C,R27*
X107526680Y131135339D03*
X107526680Y127325339D03*
G04 #@! TD*
D32*
G04 #@! TO.C,M6*
X81058676Y62730336D03*
X80451715Y70005353D03*
X81301716Y70005353D03*
X82151717Y70005353D03*
X83001718Y70005353D03*
X79840312Y71454479D03*
X83001687Y61605314D03*
X81601680Y61605314D03*
X80526688Y61605314D03*
X79126681Y61605314D03*
G04 #@! TD*
D12*
G04 #@! TO.C,P53*
X122725000Y128975000D03*
G04 #@! TD*
D13*
G04 #@! TO.C,J4*
X122824040Y8989220D03*
D14*
X122824040Y6449220D03*
X120284040Y8989220D03*
X120284040Y6449220D03*
X117744040Y8989220D03*
X117744040Y6449220D03*
X115204040Y8989220D03*
X115204040Y6449220D03*
X112664040Y8989220D03*
X112664040Y6449220D03*
X110124040Y8989220D03*
X110124040Y6449220D03*
X107584040Y8989220D03*
X107584040Y6449220D03*
X105044040Y8989220D03*
X105044040Y6449220D03*
X102504040Y8989220D03*
X102504040Y6449220D03*
X99964040Y8989220D03*
X99964040Y6449220D03*
X97424040Y8989220D03*
X97424040Y6449220D03*
X94884040Y8989220D03*
X94884040Y6449220D03*
G04 #@! TD*
D11*
G04 #@! TO.C,R39*
X18616221Y125874438D03*
X18616221Y129684438D03*
G04 #@! TD*
G04 #@! TO.C,R49*
X104101680Y127350340D03*
X104101680Y131160340D03*
G04 #@! TD*
D29*
G04 #@! TO.C,J17*
X5000000Y71900000D03*
G04 #@! TD*
D12*
G04 #@! TO.C,P7*
X14751680Y123805340D03*
G04 #@! TD*
D11*
G04 #@! TO.C,R20*
X36872748Y127828559D03*
X36872748Y131638559D03*
G04 #@! TD*
D12*
G04 #@! TO.C,P38*
X106351680Y83330340D03*
G04 #@! TD*
G04 #@! TO.C,P1*
X109401044Y88805340D03*
G04 #@! TD*
D11*
G04 #@! TO.C,R46*
X118251680Y127200340D03*
X118251680Y131010340D03*
G04 #@! TD*
D12*
G04 #@! TO.C,P49*
X37376680Y124605340D03*
G04 #@! TD*
G04 #@! TO.C,P31*
X117901680Y41205340D03*
G04 #@! TD*
D10*
G04 #@! TO.C,M2*
X120136151Y23347089D03*
X118301141Y23772097D03*
X120351149Y24322094D03*
X120136154Y25197053D03*
X120061147Y26047076D03*
X118301141Y26372092D03*
X119611141Y27672059D03*
X118301141Y28322076D03*
X124226156Y21147073D03*
X120151150Y21447075D03*
G04 #@! TD*
D11*
G04 #@! TO.C,R12*
X132125000Y124380000D03*
X132125000Y120570000D03*
G04 #@! TD*
D12*
G04 #@! TO.C,P43*
X87876680Y83130340D03*
G04 #@! TD*
D11*
G04 #@! TO.C,R18*
X122576680Y120550340D03*
X122576680Y124360340D03*
G04 #@! TD*
D10*
G04 #@! TO.C,M11*
X14837481Y70600000D03*
X14837481Y84799999D03*
X14837481Y58336732D03*
X14837481Y95699998D03*
X18637493Y59725005D03*
G04 #@! TD*
D12*
G04 #@! TO.C,P51*
X33326680Y124580340D03*
G04 #@! TD*
G04 #@! TO.C,J2*
G36*
G01*
X128276680Y107955340D02*
X129626680Y107955340D01*
G75*
G02*
X129876680Y107705340I0J-250000D01*
G01*
X129876680Y106505340D01*
G75*
G02*
X129626680Y106255340I-250000J0D01*
G01*
X128276680Y106255340D01*
G75*
G02*
X128026680Y106505340I0J250000D01*
G01*
X128026680Y107705340D01*
G75*
G02*
X128276680Y107955340I250000J0D01*
G01*
G37*
D33*
X128951680Y104605340D03*
X128951680Y102105340D03*
X128951680Y99605340D03*
X128951680Y97105340D03*
G04 #@! TD*
D11*
G04 #@! TO.C,F2*
X13661431Y132434193D03*
X18561431Y132434193D03*
G04 #@! TD*
D34*
G04 #@! TO.C,J24*
X7801680Y121005340D03*
G04 #@! TD*
M02*
