G75*
G70*
%OFA0B0*%
%FSLAX25Y25*%
%IPPOS*%
%LPD*%
%AMOC8*
5,1,8,0,0,1.08239X$1,22.5*
%
%ADD146C,0.00472*%
%ADD199C,0.00787*%
%ADD355C,0.00394*%
X0000000Y0000000D02*
%LPD*%
G01*
D199*
X0000000Y0598425D02*
G75*
G02*
X0027559Y0625984I0027559J0000000D01*
G01*
X0578740Y0625984D02*
G75*
G02*
X0606299Y0598425I0000000J-027559D01*
G01*
D355*
X0606299Y0027559D02*
X0606299Y0598425D01*
X0000000Y0598425D02*
X0000000Y0027559D01*
D199*
X0596457Y0605906D02*
G75*
G03*
X0596457Y0605906I-009843J0000000D01*
G01*
X0029528Y0020079D02*
G75*
G03*
X0029528Y0020079I-009843J0000000D01*
G01*
D355*
X0027559Y0000000D02*
X0578740Y0000000D01*
D199*
X0606299Y0027559D02*
G75*
G02*
X0578740Y0000000I-027559J0000000D01*
G01*
X0595279Y0283071D02*
G75*
G03*
X0595279Y0283071I-008858J0000000D01*
G01*
X0029528Y0605906D02*
G75*
G03*
X0029528Y0605906I-009843J0000000D01*
G01*
X0596457Y0023228D02*
G75*
G03*
X0596457Y0023228I-009843J0000000D01*
G01*
X0027559Y0000000D02*
G75*
G02*
X0000000Y0027559I0000000J0027559D01*
G01*
D355*
X0578740Y0625984D02*
X0027559Y0625984D01*
D146*
X0552355Y0456581D02*
X0552355Y0451149D01*
X0577579Y0451383D02*
X0577579Y0456815D01*
X0548860Y0451408D02*
X0548860Y0456839D01*
X0581074Y0456557D02*
X0581074Y0451125D01*
X0548860Y0451408D02*
G75*
G03*
X0552355Y0451149I0001759J0000030D01*
G01*
X0577579Y0451383D02*
G75*
G03*
X0581074Y0451125I0001759J0000030D01*
G01*
X0552355Y0456581D02*
G75*
G03*
X0548861Y0456839I-001759J-000030D01*
G01*
X0581074Y0456557D02*
G75*
G03*
X0577579Y0456815I-001759J-000030D01*
G01*
X0456447Y0297579D02*
G01*
G75*
X0495674Y0132764D02*
G01*
G75*
X0456963Y0230173D02*
G01*
G75*
X0283636Y0016614D02*
G01*
G75*
X0227230Y0286050D02*
G01*
G75*
X0330026Y0241556D02*
G01*
G75*
X0225705Y0040135D02*
G01*
G75*
X0228677Y0411712D02*
G01*
G75*
X0422880Y0354011D02*
G01*
G75*
X0118358Y0414701D02*
G01*
G75*
X0085581Y0227165D02*
G01*
G75*
X0318406Y0367126D02*
G01*
G75*
X0436982Y0078065D02*
G01*
G75*
M02*
